<svg xmlns="http://www.w3.org/2000/svg" xmlns:xlink="http://www.w3.org/1999/xlink" width="90.227" height="80.262" viewBox="0 0 90.227 80.262">
  <defs>
    <filter id="Trazado_708834" x="0" y="0" width="80.262" height="80.262" filterUnits="userSpaceOnUse">
      <feOffset dy="3" input="SourceAlpha"/>
      <feGaussianBlur stdDeviation="3" result="blur"/>
      <feFlood flood-opacity="0.161"/>
      <feComposite operator="in" in2="blur"/>
      <feComposite in="SourceGraphic"/>
    </filter>
  </defs>
  <g id="Grupo_1006104" data-name="Grupo 1006104" transform="translate(-201.51 -407.487)">
    <g transform="matrix(1, 0, 0, 1, 201.51, 407.49)" filter="url(#Trazado_708834)">
      <path id="Trazado_708834-2" data-name="Trazado 708834" d="M31.131,0A31.131,31.131,0,1,1,0,31.131,31.131,31.131,0,0,1,31.131,0Z" transform="translate(9 6)" fill="#f5b3bf"/>
    </g>
    <g id="apoyo_2_" data-name="apoyo (2)" transform="translate(222.5 410)">
      <path id="Trazado_676805" data-name="Trazado 676805" d="M343.884,8.533h-15a4.616,4.616,0,0,0-4.616,4.616V24.688a4.616,4.616,0,0,0,4.616,4.616h3.462v5.77l5.77-5.77h5.77a4.616,4.616,0,0,0,4.616-4.616V13.149A4.616,4.616,0,0,0,343.884,8.533Z" transform="translate(-280.417 -7.379)" fill="#f0e4d6"/>
      <path id="Trazado_676806" data-name="Trazado 676806" d="M356.441,13.466c-4.762,11.352-14.129,16.619-20.381,18.95a4.572,4.572,0,0,0,3.021,1.154h3.462v5.77l5.77-5.77h5.77a4.616,4.616,0,0,0,4.616-4.616V17.415A4.6,4.6,0,0,0,356.441,13.466Z" transform="translate(-290.616 -11.645)" fill="#ebdcca"/>
      <path id="Trazado_676807" data-name="Trazado 676807" d="M55.844,283.239l11.539-21.925H58.151L52.382,271.7v-9.232a6.923,6.923,0,0,0-6.924-6.924H38.534a3.462,3.462,0,0,1-3.462-3.462v-4.616H25.841v4.616a3.462,3.462,0,0,1-3.462,3.462H15.456a6.923,6.923,0,0,0-6.924,6.924v20.771Z" transform="translate(-7.378 -214.003)" fill="#fec9a3"/>
      <g id="Grupo_951647" data-name="Grupo 951647" transform="translate(5.77 51.819)">
        <path id="Trazado_676808" data-name="Trazado 676808" d="M47.244,400.615H44.936v-3.068a11.5,11.5,0,0,1-.477-13.02L45.3,383.2l1.949,1.237-.844,1.328a9.193,9.193,0,0,0,.583,10.669,1.153,1.153,0,0,1,.253.721v3.462Z" transform="translate(-42.669 -383.198)" fill="#f5b789"/>
        <path id="Trazado_676809" data-name="Trazado 676809" d="M267.088,400.615H264.78v-3.462a1.153,1.153,0,0,1,.253-.721,9.191,9.191,0,0,0,.583-10.668l-.844-1.329,1.949-1.237.844,1.329a11.5,11.5,0,0,1-.477,13.02Z" transform="translate(-234.738 -383.198)" fill="#f5b789"/>
      </g>
      <path id="Trazado_676810" data-name="Trazado 676810" d="M83.51,36.227V24.688A16.155,16.155,0,0,0,67.355,8.533h0A16.155,16.155,0,0,0,51.2,24.688V36.227a6.923,6.923,0,0,0,6.924,6.924H76.587A6.923,6.923,0,0,0,83.51,36.227Z" transform="translate(-44.276 -7.379)" fill="#645e39"/>
      <path id="Trazado_676811" data-name="Trazado 676811" d="M141.15,8.533a16.158,16.158,0,0,0-4.616.677,16.157,16.157,0,0,1,11.539,15.478V36.227a6.923,6.923,0,0,1-6.924,6.924h9.232a6.923,6.923,0,0,0,6.924-6.924V24.688A16.155,16.155,0,0,0,141.15,8.533Z" transform="translate(-118.071 -7.379)" fill="#4f4a26"/>
      <path id="Trazado_676812" data-name="Trazado 676812" d="M385.852,305.591H375.467a6.923,6.923,0,0,1,6.924-6.924h10.385A6.923,6.923,0,0,1,385.852,305.591Z" transform="translate(-324.694 -258.279)" fill="#fec9a3"/>
      <g id="Grupo_951648" data-name="Grupo 951648" transform="translate(48.465 5.77)">
        <rect id="Rectángulo_337407" data-name="Rectángulo 337407" width="8.078" height="2.308" transform="translate(0)" fill="#ccbfb0"/>
        <rect id="Rectángulo_337408" data-name="Rectángulo 337408" width="4.616" height="2.308" transform="translate(10.385)" fill="#ccbfb0"/>
        <rect id="Rectángulo_337409" data-name="Rectángulo 337409" width="15.001" height="2.308" transform="translate(0 4.616)" fill="#ccbfb0"/>
        <rect id="Rectángulo_337410" data-name="Rectángulo 337410" width="8.078" height="2.308" transform="translate(0 9.231)" fill="#ccbfb0"/>
      </g>
      <path id="Trazado_676813" data-name="Trazado 676813" d="M145.771,252.142v-4.675h-9.237v4.675a10.3,10.3,0,0,0,9.243,0Z" transform="translate(-118.071 -214.003)" fill="#f7c097"/>
      <path id="Trazado_676814" data-name="Trazado 676814" d="M93.867,92.22v4.969a10.385,10.385,0,0,0,20.771,0V87.957A10.33,10.33,0,0,0,113.4,83.03Z" transform="translate(-81.174 -71.802)" fill="#fec9a3"/>
      <rect id="Rectángulo_337411" data-name="Rectángulo 337411" width="16.155" height="12.693" transform="translate(15.001 48.465)" fill="#13c6cc"/>
      <path id="Trazado_676815" data-name="Trazado 676815" d="M58.152,312.97l-5.77,10.385v-9.232a6.923,6.923,0,0,0-6.924-6.924H41.766l-11.309,15-10.731-15h-4.27a6.923,6.923,0,0,0-6.924,6.924v20.771H55.844L67.384,312.97Z" transform="translate(-7.379 -265.658)" fill="#a19e9e"/>
      <path id="Trazado_676816" data-name="Trazado 676816" d="M178.511,313.25h-9.232l-5.77,10.385V314.4a6.924,6.924,0,0,0-6.163-6.88c-2.077,16.119-11.76,23.91-20.309,27.651h29.934Z" transform="translate(-118.506 -265.939)" fill="#afafaf"/>
      <g id="Grupo_951649" data-name="Grupo 951649" transform="translate(5.77 51.819)">
        <path id="Trazado_676817" data-name="Trazado 676817" d="M47.244,400.615H44.936v-3.068a11.5,11.5,0,0,1-.477-13.02L45.3,383.2l1.949,1.237-.844,1.328a9.193,9.193,0,0,0,.583,10.669,1.153,1.153,0,0,1,.253.721v3.462Z" transform="translate(-42.669 -383.198)" fill="#3685ba"/>
        <path id="Trazado_676818" data-name="Trazado 676818" d="M267.088,400.615H264.78v-3.462a1.153,1.153,0,0,1,.253-.721,9.191,9.191,0,0,0,.583-10.668l-.844-1.329,1.949-1.237.844,1.329a11.5,11.5,0,0,1-.477,13.02Z" transform="translate(-234.738 -383.198)" fill="#3685ba"/>
      </g>
      <path id="Trazado_676819" data-name="Trazado 676819" d="M181.052,97.188V87.956a10.33,10.33,0,0,0-1.243-4.927l-2.929,1.378a16.084,16.084,0,0,1,.71,4.7V100.65a6.923,6.923,0,0,1-6.924,6.924,10.385,10.385,0,0,0,10.385-10.385Z" transform="translate(-147.588 -71.801)" fill="#f7c097"/>
      <path id="Trazado_676820" data-name="Trazado 676820" d="M69.207,35.772H68.053V38.08h1.154A8.086,8.086,0,0,0,77.284,30V17.309a17.309,17.309,0,0,0-34.618,0V30a8.086,8.086,0,0,0,8.078,8.078H51.9V35.772H50.744A5.776,5.776,0,0,1,44.974,30V17.309a15,15,0,0,1,30,0V30A5.776,5.776,0,0,1,69.207,35.772Z" transform="translate(-36.896 0)"/>
      <path id="Trazado_676821" data-name="Trazado 676821" d="M47.251,384.435,45.3,383.2l-.844,1.329a11.5,11.5,0,0,0,.477,13.02v3.068h2.308v-3.462a1.153,1.153,0,0,0-.253-.721,9.193,9.193,0,0,1-.583-10.669Z" transform="translate(-36.898 -331.379)"/>
      <path id="Trazado_676822" data-name="Trazado 676822" d="M336.5,0h-15a5.776,5.776,0,0,0-5.77,5.77V17.309a5.776,5.776,0,0,0,5.77,5.77h2.308v4.616a1.154,1.154,0,0,0,.712,1.066,1.154,1.154,0,0,0,1.258-.25l5.432-5.432H336.5a5.777,5.777,0,0,0,5.77-5.77V5.77A5.777,5.777,0,0,0,336.5,0Zm3.462,17.309a3.462,3.462,0,0,1-3.462,3.462h-5.77a1.151,1.151,0,0,0-.816.338l-3.8,3.8V21.925a1.154,1.154,0,0,0-1.154-1.154H321.5a3.462,3.462,0,0,1-3.462-3.462V5.77A3.462,3.462,0,0,1,321.5,2.308h15a3.462,3.462,0,0,1,3.462,3.462Z" transform="translate(-273.037 0)"/>
      <rect id="Rectángulo_337412" data-name="Rectángulo 337412" width="8.078" height="2.308" transform="translate(48.465 5.77)"/>
      <rect id="Rectángulo_337413" data-name="Rectángulo 337413" width="4.616" height="2.308" transform="translate(58.851 5.77)"/>
      <rect id="Rectángulo_337414" data-name="Rectángulo 337414" width="15.001" height="2.308" transform="translate(48.465 10.385)"/>
      <rect id="Rectángulo_337415" data-name="Rectángulo 337415" width="8.078" height="2.308" transform="translate(48.465 15.001)"/>
      <path id="Trazado_676823" data-name="Trazado 676823" d="M264.78,397.154v3.462h2.308v-3.068a11.5,11.5,0,0,0,.477-13.02l-.844-1.329-1.949,1.237.844,1.329a9.191,9.191,0,0,1-.583,10.668A1.153,1.153,0,0,0,264.78,397.154Z" transform="translate(-228.968 -331.379)"/>
      <path id="Trazado_676824" data-name="Trazado 676824" d="M2.308,112.894a5.776,5.776,0,0,1,5.77-5.77h3.672l10.391,14.519a1.152,1.152,0,0,0,.923.482h.015a1.153,1.153,0,0,0,.923-.462l10.962-14.54H38.08a5.776,5.776,0,0,1,5.77,5.77v9.232a1.154,1.154,0,0,0,2.163.56l5.44-9.791h6.616L46.817,133.665h2.625L60.7,112.895h.462a8.086,8.086,0,0,0,8.077-8.077,1.154,1.154,0,0,0-1.154-1.154H57.7a8.077,8.077,0,0,0-8.061,7.749l-3.478,6.261v-4.779a8.086,8.086,0,0,0-8.078-8.078H33.863l-.031-.024-.021.024H31.156a2.307,2.307,0,0,1-2.308-2.308V99.794a11.54,11.54,0,0,0,5.77-9.978V80.584a11.558,11.558,0,0,0-1.385-5.477,1.154,1.154,0,0,0-1.5-.5L12.2,83.8a1.155,1.155,0,0,0-.662,1.044v4.97a11.54,11.54,0,0,0,5.77,9.978v2.715A2.307,2.307,0,0,1,15,104.817H8.078A8.086,8.086,0,0,0,0,112.894v20.771H2.308ZM57.7,105.971h9.116a5.779,5.779,0,0,1-5.654,4.616H52.043A5.779,5.779,0,0,1,57.7,105.971ZM23.1,119.024l-3.561-4.976h7.311ZM13.847,89.816V85.578l17.818-8.384a9.236,9.236,0,0,1,.645,3.39v9.232a9.231,9.231,0,1,1-18.463,0ZM15,107.125a4.616,4.616,0,0,0,4.616-4.616v-1.686a11.524,11.524,0,0,0,6.924,0v1.686a4.616,4.616,0,0,0,4.616,4.616h.923L28.6,111.74H17.886l-3.3-4.616Z" transform="translate(0 -64.429)"/>
    </g>
  </g>
</svg>
