<svg xmlns="http://www.w3.org/2000/svg" xmlns:xlink="http://www.w3.org/1999/xlink" width="111.888" height="111.888" viewBox="0 0 111.888 111.888">
  <defs>
    <clipPath id="clip-path">
      <circle id="Elipse_8026" data-name="Elipse 8026" cx="49.013" cy="49.013" r="49.013" transform="translate(0 0)" fill="#ffa031" opacity="0.23"/>
    </clipPath>
    <clipPath id="clip-path-2">
      <rect id="Rect치ngulo_348923" data-name="Rect치ngulo 348923" width="117.175" height="169.286" fill="none"/>
    </clipPath>
    <clipPath id="clip-path-4">
      <path id="Trazado_732766" data-name="Trazado 732766" d="M180.557,352.694a55.687,55.687,0,0,1,.69,7.087q2.781.143,5.566.158a.322.322,0,0,0,.405-.378q.081-3.313.16-6.627-3.478-.075-6.937-.492Z" transform="translate(-180.442 -352.441)" fill="none"/>
    </clipPath>
    <clipPath id="clip-path-6">
      <path id="Trazado_732771" data-name="Trazado 732771" d="M214.6,358.241a55.817,55.817,0,0,1,.69,7.087q2.781.143,5.566.158a.322.322,0,0,0,.405-.377q.08-3.314.16-6.627-3.478-.076-6.938-.493Z" transform="translate(-214.483 -357.988)" fill="none"/>
    </clipPath>
    <clipPath id="clip-path-8">
      <path id="Trazado_732789" data-name="Trazado 732789" d="M164.044,168.511c-.328-.014-7.058,26.8-6.777,39.764a28.316,28.316,0,0,0,.448,5.3,32.254,32.254,0,0,0,1.94,5.5c1.082,2.623,4.8,23.943,5.959,31.979a20.388,20.388,0,0,1,5.512-.1,31.533,31.533,0,0,0,3.56.1c.135-5.934-4-35.7-4.464-38.644-.416-2.617,1.908-14.736,2.326-21.339,3.368,19.233,7.739,42.229,8.429,61.743,2.023.183,8.488.013,8.488.013,2.132-8.958,1.172-19.883-.089-29a49.706,49.706,0,0,1-.677-7.325,45.821,45.821,0,0,1,.579-5.92q.709-5,1.416-9.994c1.3-9.2,2.579-18.783-.29-27.622l-7.77-4.843a145.706,145.706,0,0,1-18.589.394" transform="translate(-157.258 -168.117)" fill="none"/>
    </clipPath>
    <clipPath id="clip-path-10">
      <path id="Trazado_732806" data-name="Trazado 732806" d="M31.514,171.481c-.309,2.558-4.925,69.811-4.566,74.364,1.679-.029,5.884-.273,7.563-.3.918-19.917,12.19-49.853,11.494-69.779.758,5.174,4.341,24.651,4.183,25.969-1.482,12.415-4.769,25.927-5.605,38.4a51.83,51.83,0,0,0,6.375.3c.2-.173,12.288-35.96,12.561-38.96,1.437-15.818-7.825-27.677-8.456-43.548a58.893,58.893,0,0,0-8.382-.4c-1.484,0-3,0-4.633-.058a18.523,18.523,0,0,1-3.915-.7c-1.188,1.2-6.21,11.334-6.619,14.707" transform="translate(-26.928 -156.774)" fill="#253b46"/>
    </clipPath>
    <clipPath id="clip-path-12">
      <path id="Trazado_732862" data-name="Trazado 732862" d="M37.677,73.521c-1.344.266-3.224,2.813-8.036,0,0,0-.622,3.194-.937,3.417-.843.6-8.328,6.142-9.594,8.831C13.383,97.935,7.8,123.9,7.87,124.128c.325,1.043,4.788,1.96,5.879,1.933,2.59-9.576,5.268-19.341,10.125-27.919l3.46,11.463c7.824,2.783,8.7,1.926,17.191,1.244-.78-3.655,2.091-11.145,1.7-15.845,1.4,2.13,4.525,8.8,6.368,10.665a3.835,3.835,0,0,0,1.988,1.262,3.609,3.609,0,0,0,1.88-.286c3.486-1.343,4.8-6.2,6.409-9.233C64.018,95.244,65,91.368,66,88.475a.717.717,0,0,0-.372-.883c-.884-.418-2.595-1.24-3.929-1.96a.72.72,0,0,0-1.017.387,38.248,38.248,0,0,1-5.3,9.013c-.255-1.007-6-11.454-8.291-13.869-1.549-1.632-4.842-1.563-8.9-4.224a32.728,32.728,0,0,0-.51-3.418h0" transform="translate(-7.869 -73.521)" fill="none"/>
    </clipPath>
    <clipPath id="clip-path-14">
      <rect id="Rect치ngulo_348915" data-name="Rect치ngulo 348915" width="5.191" height="3.908" fill="none"/>
    </clipPath>
    <clipPath id="clip-path-15">
      <path id="Trazado_732918" data-name="Trazado 732918" d="M65.488,363.2a7.651,7.651,0,0,1,2.109-.014l14.345,1.234c.687.059,1.058-.677.53-1.051-2.61-1.853-10.222-6.553-10.639-6.578l-5.9-.355Z" transform="translate(-65.488 -356.439)" fill="none"/>
    </clipPath>
    <clipPath id="clip-path-17">
      <path id="Trazado_732928" data-name="Trazado 732928" d="M26.719,374.023a7.634,7.634,0,0,1,2.109-.014l14.345,1.234c.687.059,1.058-.677.53-1.052-2.61-1.853-10.221-6.553-10.639-6.578l-5.9-.355Z" transform="translate(-26.719 -367.258)" fill="none"/>
    </clipPath>
    <clipPath id="clip-path-19">
      <path id="Trazado_732932" data-name="Trazado 732932" d="M188.648,376.972h12.686l1.507-2.264.826,2.264h3.641v-5.64l-6.474-.14Z" transform="translate(-188.648 -371.192)" fill="none"/>
    </clipPath>
    <clipPath id="clip-path-21">
      <path id="Trazado_732939" data-name="Trazado 732939" d="M153.311,372.8H166l1.507-2.265.826,2.265h3.64v-5.64l-6.474-.14Z" transform="translate(-153.311 -367.021)" fill="none"/>
    </clipPath>
  </defs>
  <g id="Grupo_1014839" data-name="Grupo 1014839" transform="translate(9889 7456.74)">
    <path id="Trazado_725324" data-name="Trazado 725324" d="M55.944,0A55.944,55.944,0,1,1,0,55.944,55.944,55.944,0,0,1,55.944,0Z" transform="translate(-9889 -7456.74)" fill="#f1939c"/>
    <g id="Enmascarar_grupo_1013434" data-name="Enmascarar grupo 1013434" transform="translate(-9882.069 -7449.808)" clip-path="url(#clip-path)">
      <g id="Grupo_1014835" data-name="Grupo 1014835" transform="translate(-12.217 9.062)">
        <g id="Grupo_1014834" data-name="Grupo 1014834" clip-path="url(#clip-path-2)">
          <g id="Grupo_1014794" data-name="Grupo 1014794">
            <g id="Grupo_1014793" data-name="Grupo 1014793" clip-path="url(#clip-path-2)">
              <path id="Trazado_732759" data-name="Trazado 732759" d="M137.249,180.818s0,0,0,0l-1.495,6.37a7.2,7.2,0,0,1-.515,1.613,12.363,12.363,0,0,1-1.252,1.738,17.216,17.216,0,0,0-1.962,3.828c-.684,1.664-1.269,7.116-.458,7.487l2.215-6.578c-.872,2.1-2.066,8.172-.836,8.645.689.265,1.95-5.367,2.985-7.268-.6,2.017-2.3,5.926-2.366,8.029a.529.529,0,0,0,.972.305c.745-1.154,3.181-8.146,3.181-8.146-.02,1.683-.152,5.443-.173,7.125-.006.538.254,1.328.931.83.911-2.116,2.149-10.384,2.149-10.384.169,1.308.581,3.454,1.493,4.4a.214.214,0,0,0,.369-.14c.145-3.89.755-5.4-1.113-8.8.583-2.438,1.141-6.075,2.014-8.109,0,0-6.118-.974-6.139-.954" transform="translate(-74.321 -102.447)" fill="#e6b38d"/>
              <path id="Trazado_732760" data-name="Trazado 732760" d="M135.6,214.769a16.713,16.713,0,0,1,4.948.48q.686.173,1.355.4c.215.074.308-.267.094-.34a17.047,17.047,0,0,0-4.961-.911q-.718-.023-1.435.015c-.226.012-.228.365,0,.353" transform="translate(-76.734 -121.47)" fill="#a46e4a"/>
              <path id="Trazado_732761" data-name="Trazado 732761" d="M136.717,222.33l1.909-6,.541-1.7c.069-.217-.272-.31-.341-.094l-1.909,6-.541,1.7c-.069.217.272.309.34.094" transform="translate(-77.263 -121.479)" fill="#a46e4a"/>
              <path id="Trazado_732762" data-name="Trazado 732762" d="M180.558,352.694a55.745,55.745,0,0,1,.69,7.087q2.781.143,5.566.158a.322.322,0,0,0,.406-.378q.08-3.314.16-6.628-3.478-.076-6.938-.493Z" transform="translate(-102.234 -199.685)" fill="#5170ad"/>
            </g>
          </g>
          <g id="Grupo_1014796" data-name="Grupo 1014796" transform="translate(78.208 152.756)">
            <g id="Grupo_1014795" data-name="Grupo 1014795" clip-path="url(#clip-path-4)">
              <path id="Trazado_732763" data-name="Trazado 732763" d="M181.9,350.575c-.462-.105-.73.422-.659.816.1.53.719.736,1.13.957a1.192,1.192,0,0,1,.57.543.6.6,0,0,1-.092.565c-.212.319-.552.529-.764.847a.6.6,0,0,0,.268.911,3.621,3.621,0,0,1,.68.279.919.919,0,0,1,.331.606,1.985,1.985,0,0,1-.579,1.5c-.283.352-.946.983-.45,1.433a2.937,2.937,0,0,0,.364.235,1.106,1.106,0,0,1,.255.241,1.4,1.4,0,0,1,.267.656,1.348,1.348,0,0,1-.476,1.273c-.121.088,0,.293.119.2a1.652,1.652,0,0,0,.259-2.3,1.74,1.74,0,0,0-.5-.4.362.362,0,0,1-.222-.3.764.764,0,0,1,.18-.417,5.219,5.219,0,0,0,.971-1.474,1.4,1.4,0,0,0-.238-1.322,1.284,1.284,0,0,0-.6-.332c-.194-.062-.445-.133-.5-.358a.451.451,0,0,1,.129-.38,4.9,4.9,0,0,1,.4-.412,1.151,1.151,0,0,0,.461-1.025c-.136-.616-.839-.8-1.3-1.086a.722.722,0,0,1-.427-.637c.017-.187.147-.448.373-.4.147.034.21-.193.062-.227" transform="translate(-180.888 -351.376)" fill="#fff"/>
              <path id="Trazado_732764" data-name="Trazado 732764" d="M188.768,361.626c.462.105.73-.422.659-.817-.1-.53-.719-.736-1.13-.957a1.191,1.191,0,0,1-.57-.543.6.6,0,0,1,.092-.565c.212-.319.552-.529.764-.847a.6.6,0,0,0-.267-.911,3.643,3.643,0,0,1-.681-.279.921.921,0,0,1-.331-.606,1.984,1.984,0,0,1,.579-1.5c.283-.352.946-.983.45-1.433a2.959,2.959,0,0,0-.364-.235,1.109,1.109,0,0,1-.255-.241,1.4,1.4,0,0,1-.267-.656,1.348,1.348,0,0,1,.476-1.273c.12-.088,0-.293-.119-.2a1.652,1.652,0,0,0-.259,2.3,1.737,1.737,0,0,0,.5.4.36.36,0,0,1,.221.3.76.76,0,0,1-.179.417,5.225,5.225,0,0,0-.971,1.474,1.4,1.4,0,0,0,.238,1.322,1.289,1.289,0,0,0,.6.332c.194.062.445.133.5.358a.451.451,0,0,1-.129.38,4.923,4.923,0,0,1-.4.412,1.151,1.151,0,0,0-.461,1.025c.136.616.839.8,1.3,1.086a.723.723,0,0,1,.427.637c-.017.187-.147.448-.373.4-.147-.034-.21.193-.062.227" transform="translate(-184.188 -351.364)" fill="#fff"/>
              <path id="Trazado_732765" data-name="Trazado 732765" d="M191.824,348.311c-.462-.105-.73.422-.659.817.1.53.719.736,1.13.957a1.193,1.193,0,0,1,.57.543.6.6,0,0,1-.092.566c-.212.319-.552.529-.764.847a.6.6,0,0,0,.267.911,3.648,3.648,0,0,1,.681.279.922.922,0,0,1,.331.606,1.984,1.984,0,0,1-.579,1.5c-.283.352-.946.983-.45,1.433a2.97,2.97,0,0,0,.364.235,1.107,1.107,0,0,1,.255.241,1.4,1.4,0,0,1,.267.656,1.349,1.349,0,0,1-.476,1.273c-.12.088,0,.293.119.2a1.652,1.652,0,0,0,.259-2.3,1.737,1.737,0,0,0-.5-.4.362.362,0,0,1-.222-.3.764.764,0,0,1,.18-.417,5.226,5.226,0,0,0,.971-1.474,1.4,1.4,0,0,0-.238-1.322,1.287,1.287,0,0,0-.6-.332c-.194-.062-.445-.133-.5-.358a.451.451,0,0,1,.129-.38,4.914,4.914,0,0,1,.4-.412,1.151,1.151,0,0,0,.461-1.025c-.136-.616-.839-.8-1.3-1.086a.722.722,0,0,1-.427-.637c.017-.187.147-.448.373-.4.147.034.21-.193.062-.227" transform="translate(-186.511 -350.093)" fill="#fff"/>
            </g>
          </g>
          <g id="Grupo_1014798" data-name="Grupo 1014798">
            <g id="Grupo_1014797" data-name="Grupo 1014797" clip-path="url(#clip-path-2)">
              <path id="Trazado_732767" data-name="Trazado 732767" d="M214.6,358.242a55.83,55.83,0,0,1,.689,7.087q2.781.143,5.566.158a.322.322,0,0,0,.406-.377q.08-3.314.16-6.628-3.478-.075-6.938-.492Z" transform="translate(-121.521 -202.828)" fill="#5170ad"/>
            </g>
          </g>
          <g id="Grupo_1014800" data-name="Grupo 1014800" transform="translate(92.962 155.16)">
            <g id="Grupo_1014799" data-name="Grupo 1014799" clip-path="url(#clip-path-6)">
              <path id="Trazado_732768" data-name="Trazado 732768" d="M215.94,356.123c-.462-.105-.73.422-.659.817.1.53.719.736,1.13.957a1.192,1.192,0,0,1,.57.543.6.6,0,0,1-.092.565c-.212.319-.552.529-.764.847a.6.6,0,0,0,.268.911,3.629,3.629,0,0,1,.68.279.92.92,0,0,1,.331.606,1.985,1.985,0,0,1-.579,1.5c-.283.352-.946.983-.45,1.433a2.934,2.934,0,0,0,.364.235,1.116,1.116,0,0,1,.255.241,1.4,1.4,0,0,1,.267.656,1.348,1.348,0,0,1-.476,1.273c-.121.088,0,.293.119.2a1.652,1.652,0,0,0,.259-2.3,1.737,1.737,0,0,0-.5-.4.362.362,0,0,1-.222-.3.764.764,0,0,1,.18-.417,5.22,5.22,0,0,0,.971-1.474,1.4,1.4,0,0,0-.238-1.322,1.288,1.288,0,0,0-.6-.332c-.194-.062-.445-.133-.5-.358a.45.45,0,0,1,.129-.38,4.906,4.906,0,0,1,.4-.412,1.151,1.151,0,0,0,.461-1.025c-.136-.615-.839-.8-1.3-1.086a.723.723,0,0,1-.427-.637c.017-.187.147-.448.373-.4.147.034.21-.193.062-.227" transform="translate(-214.929 -356.924)" fill="#fff"/>
              <path id="Trazado_732769" data-name="Trazado 732769" d="M222.81,367.174c.462.105.73-.422.659-.817-.1-.53-.719-.736-1.13-.957a1.191,1.191,0,0,1-.57-.543.6.6,0,0,1,.092-.565c.212-.319.552-.529.764-.847a.6.6,0,0,0-.267-.911,3.649,3.649,0,0,1-.681-.279.921.921,0,0,1-.331-.606,1.984,1.984,0,0,1,.579-1.5c.283-.352.946-.983.45-1.433a2.962,2.962,0,0,0-.364-.235,1.1,1.1,0,0,1-.255-.241,1.4,1.4,0,0,1-.267-.656,1.348,1.348,0,0,1,.476-1.273c.121-.088,0-.293-.119-.2a1.652,1.652,0,0,0-.259,2.3,1.738,1.738,0,0,0,.5.4.361.361,0,0,1,.221.3.76.76,0,0,1-.179.417,5.226,5.226,0,0,0-.971,1.474,1.4,1.4,0,0,0,.238,1.322,1.289,1.289,0,0,0,.6.332c.194.062.445.133.5.358a.451.451,0,0,1-.129.38,4.917,4.917,0,0,1-.4.412,1.151,1.151,0,0,0-.461,1.025c.136.616.839.8,1.3,1.086a.723.723,0,0,1,.427.637c-.017.187-.147.448-.373.4-.147-.034-.21.193-.062.227" transform="translate(-218.229 -356.912)" fill="#fff"/>
              <path id="Trazado_732770" data-name="Trazado 732770" d="M225.865,353.859c-.462-.105-.73.422-.659.817.1.53.719.736,1.13.957a1.192,1.192,0,0,1,.57.543.6.6,0,0,1-.092.566c-.212.319-.552.529-.764.847a.6.6,0,0,0,.267.911,3.64,3.64,0,0,1,.681.279.921.921,0,0,1,.331.606,1.984,1.984,0,0,1-.58,1.5c-.283.352-.946.983-.45,1.433a2.961,2.961,0,0,0,.364.235,1.11,1.11,0,0,1,.255.241,1.4,1.4,0,0,1,.267.656,1.348,1.348,0,0,1-.476,1.273c-.12.088,0,.293.119.2a1.652,1.652,0,0,0,.259-2.3,1.737,1.737,0,0,0-.5-.4.362.362,0,0,1-.222-.3.764.764,0,0,1,.18-.417,5.227,5.227,0,0,0,.971-1.474,1.4,1.4,0,0,0-.238-1.322,1.288,1.288,0,0,0-.6-.332c-.194-.062-.445-.133-.5-.358a.451.451,0,0,1,.129-.38,4.917,4.917,0,0,1,.4-.412,1.151,1.151,0,0,0,.461-1.025c-.136-.616-.839-.8-1.3-1.086a.723.723,0,0,1-.427-.637c.017-.187.147-.448.373-.4.147.034.21-.193.062-.227" transform="translate(-220.552 -355.641)" fill="#fff"/>
            </g>
          </g>
          <g id="Grupo_1014802" data-name="Grupo 1014802">
            <g id="Grupo_1014801" data-name="Grupo 1014801" clip-path="url(#clip-path-2)">
              <path id="Trazado_732772" data-name="Trazado 732772" d="M30.2,349.925q-.39,4.3-.781,8.6a33.048,33.048,0,0,1,4.884.594q.309-4.571,1.012-9.1a10.68,10.68,0,0,0-5.019-.635Z" transform="translate(-16.669 -197.913)" fill="#e09d2e"/>
              <path id="Trazado_732773" data-name="Trazado 732773" d="M68.761,339.563q-.391,4.3-.781,8.6a33.04,33.04,0,0,1,4.884.594q.309-4.571,1.012-9.1a10.681,10.681,0,0,0-5.019-.634Z" transform="translate(-38.516 -192.043)" fill="#e09d2e"/>
              <path id="Trazado_732774" data-name="Trazado 732774" d="M190.4,172.96c2.87,8.839,1.595,18.421.291,27.622q-.708,5-1.416,9.995a45.813,45.813,0,0,0-.579,5.92,49.712,49.712,0,0,0,.677,7.325c1.261,9.121,2.221,20.047.089,29,0,0-6.465.17-8.489-.013-.69-19.514-5.061-42.51-8.428-61.743-.418,6.6-2.741,18.723-2.326,21.339.467,2.941,4.6,32.71,4.464,38.643-2.048.161-7.1-.59-9.072,0-1.16-8.036-4.877-29.355-5.959-31.979a32.2,32.2,0,0,1-1.941-5.5,28.279,28.279,0,0,1-.448-5.3c-.281-12.961,6.449-39.778,6.777-39.764a145.706,145.706,0,0,0,18.588-.394Z" transform="translate(-89.099 -95.252)" fill="#656480"/>
            </g>
          </g>
          <g id="Grupo_1014804" data-name="Grupo 1014804" transform="translate(68.159 72.866)">
            <g id="Grupo_1014803" data-name="Grupo 1014803" clip-path="url(#clip-path-8)">
              <path id="Trazado_732775" data-name="Trazado 732775" d="M194.041,162.547q-.2,4.935-.487,9.866-.282,4.906-.641,9.807-.2,2.751-.427,5.5a.237.237,0,0,0,.235.235.24.24,0,0,0,.235-.235q.405-4.923.731-9.851.324-4.9.572-9.811.138-2.755.253-5.51c.013-.3-.458-.3-.471,0" transform="translate(-177.217 -164.833)" fill="#12263f"/>
              <path id="Trazado_732776" data-name="Trazado 732776" d="M186.44,163.849q.316,3.873.392,7.76.038,1.919.016,3.839-.011.984-.038,1.966c-.017.628-.052,1.257-.064,1.885a1.436,1.436,0,0,0,.209.88,2.02,2.02,0,0,0,.729.539l1.927,1.043c.266.144.5-.262.238-.407l-1.681-.91a4.724,4.724,0,0,1-.693-.4.734.734,0,0,1-.257-.595c-.01-.3.017-.612.028-.917s.021-.624.03-.936q.027-.948.039-1.9.051-3.8-.13-7.605-.1-2.128-.274-4.251a.242.242,0,0,0-.235-.235.237.237,0,0,0-.235.235" transform="translate(-173.792 -165.566)" fill="#12263f"/>
              <path id="Trazado_732777" data-name="Trazado 732777" d="M202.626,163.129a44.437,44.437,0,0,0,1.592,4.827,15.319,15.319,0,0,0,2.418,4.1,9.867,9.867,0,0,0,3.4,2.638,7.96,7.96,0,0,0,2.233.634,22,22,0,0,0,7.683-.7q.3-.116.595-.255a.237.237,0,0,0,.084-.322.241.241,0,0,0-.322-.085,12.455,12.455,0,0,1-4.754.93,22.892,22.892,0,0,1-2.61.029,7.87,7.87,0,0,1-2.3-.481,9.041,9.041,0,0,1-3.367-2.364,13.914,13.914,0,0,1-2.425-3.813,36,36,0,0,1-1.606-4.664q-.086-.3-.171-.593a.236.236,0,0,0-.454.125" transform="translate(-182.956 -165.126)" fill="#12263f"/>
              <path id="Trazado_732778" data-name="Trazado 732778" d="M199.074,165.351a49.117,49.117,0,0,0,2.15,5.078,24.6,24.6,0,0,0,2.933,4.6,10.738,10.738,0,0,0,4.138,3.33,12.883,12.883,0,0,0,5.61.528c2.086-.128,4.171-.265,6.256-.4l.772-.049a.241.241,0,0,0,.235-.235.237.237,0,0,0-.235-.235l-6.2.394a16.685,16.685,0,0,1-5.6-.216,9.054,9.054,0,0,1-4.211-2.941,22.7,22.7,0,0,1-3-4.432,42.962,42.962,0,0,1-2.166-4.915q-.118-.315-.235-.631a.242.242,0,0,0-.29-.164.237.237,0,0,0-.164.29" transform="translate(-180.944 -166.381)" fill="#12263f"/>
              <path id="Trazado_732779" data-name="Trazado 732779" d="M168.164,164.308a9.819,9.819,0,0,1-1.729,5.231,9.611,9.611,0,0,1-4.246,3.412,9.757,9.757,0,0,1-3.008.715.241.241,0,0,0-.235.235.237.237,0,0,0,.235.235,10.14,10.14,0,0,0,8.821-6.6,10.145,10.145,0,0,0,.634-3.227c.01-.3-.461-.3-.471,0" transform="translate(-158.214 -165.83)" fill="#12263f"/>
              <path id="Trazado_732780" data-name="Trazado 732780" d="M172.238,164.713a12.111,12.111,0,0,1-1.6,5.313,11.086,11.086,0,0,1-3.6,3.822,9.1,9.1,0,0,1-2.663,1.161.236.236,0,0,0,.125.454,10.143,10.143,0,0,0,4.626-2.7,12.338,12.338,0,0,0,2.961-4.834,12.554,12.554,0,0,0,.617-3.219c.018-.3-.453-.3-.471,0" transform="translate(-161.199 -166.06)" fill="#12263f"/>
              <path id="Trazado_732781" data-name="Trazado 732781" d="M215.7,194.094c.8,4.434.281,8.951-.177,13.393s-.721,8.9-.768,13.361a232.343,232.343,0,0,0,1.514,26.8c.527,5,1.14,9.99,1.754,14.98.036.3.508.3.471,0-1.1-8.944-2.2-17.894-2.8-26.888a163.629,163.629,0,0,1,.17-26.92c.483-4.932,1.182-9.923.295-14.852-.054-.3-.507-.171-.454.125" transform="translate(-189.827 -182.668)" fill="#12263f"/>
              <path id="Trazado_732782" data-name="Trazado 732782" d="M206.608,352.282q3.114-.365,6.253-.444,1.556-.039,3.112-.007a21.539,21.539,0,0,0,2.581-.009,4.077,4.077,0,0,0,2.485-1c.219-.21-.114-.542-.333-.333a3.447,3.447,0,0,1-2.009.843,17.387,17.387,0,0,1-2.491.03q-3.076-.075-6.151.129-1.727.114-3.446.316a.243.243,0,0,0-.235.235.237.237,0,0,0,.235.235" transform="translate(-185.086 -271.409)" fill="#472e19"/>
              <path id="Trazado_732783" data-name="Trazado 732783" d="M172.882,347.468l4.729.46,4.729.459,2.669.259a.237.237,0,0,0,.235-.235.24.24,0,0,0-.235-.235l-4.729-.46-4.729-.459-2.669-.26a.237.237,0,0,0-.235.235.24.24,0,0,0,.235.235" transform="translate(-165.977 -269.466)" fill="#472e19"/>
              <path id="Trazado_732784" data-name="Trazado 732784" d="M181.86,203.482c-1.151,3.972-2.3,7.948-3.294,11.962a113.077,113.077,0,0,0-2.4,12.129,66.484,66.484,0,0,0-.6,12.169,88.932,88.932,0,0,0,1.794,12.344l2.4,12.527.306,1.6c.057.3.511.172.454-.125l-2.391-12.466a111.69,111.69,0,0,1-2-12.376,63.207,63.207,0,0,1,.312-12.173,103.708,103.708,0,0,1,2.223-12.082c.957-4.006,2.077-7.971,3.219-11.926q.21-.728.421-1.455a.236.236,0,0,0-.454-.125" transform="translate(-167.596 -188.06)" fill="#12263f"/>
              <path id="Trazado_732785" data-name="Trazado 732785" d="M177.826,268.712a8.024,8.024,0,0,1,3.7.018c.294.072.42-.382.125-.454a8.561,8.561,0,0,0-3.953-.018c-.295.069-.17.523.125.454" transform="translate(-168.745 -224.729)" fill="#472e19"/>
              <path id="Trazado_732786" data-name="Trazado 732786" d="M180.03,271.525a5.642,5.642,0,0,1,2.242-.391c.3.01.3-.461,0-.471a5.988,5.988,0,0,0-2.367.407.243.243,0,0,0-.164.29.237.237,0,0,0,.289.164" transform="translate(-169.992 -226.216)" fill="#472e19"/>
              <path id="Trazado_732787" data-name="Trazado 732787" d="M218.6,273.521a7.582,7.582,0,0,1,3.929-.451.243.243,0,0,0,.29-.164.237.237,0,0,0-.164-.29,8.049,8.049,0,0,0-4.179.451.243.243,0,0,0-.164.29.237.237,0,0,0,.289.164" transform="translate(-191.844 -227.269)" fill="#472e19"/>
              <path id="Trazado_732788" data-name="Trazado 732788" d="M219.907,276.314a6.839,6.839,0,0,1,2.841-.3.237.237,0,0,0,.235-.235.24.24,0,0,0-.235-.235,7.184,7.184,0,0,0-2.966.32c-.286.094-.164.549.125.454" transform="translate(-192.59 -228.959)" fill="#472e19"/>
            </g>
          </g>
          <g id="Grupo_1014806" data-name="Grupo 1014806">
            <g id="Grupo_1014805" data-name="Grupo 1014805" clip-path="url(#clip-path-2)">
              <path id="Trazado_732790" data-name="Trazado 732790" d="M219.747,62.972l9.587,5.833a17.42,17.42,0,0,1,4.89,3.847,16.03,16.03,0,0,1,2.464,5.525,100.162,100.162,0,0,1,3.61,19.475c.2,2.423.288,5-.893,7.127-1.383,2.485-4.172,3.789-6.821,4.824-3.783,1.476-7.744,2.741-11.8,2.685q-.99-4.565-1.526-9.212a22.476,22.476,0,0,0,10.068-4.243c.243-.183-6.191-27.376-7.445-29.371-1.235-1.965-4.332-5.186-4.35-7.507Z" transform="translate(-123.245 -35.101)" fill="#12263f"/>
              <path id="Trazado_732791" data-name="Trazado 732791" d="M156.186,68.244a25.714,25.714,0,0,1,1.7,12.054,51.215,51.215,0,0,1-1.145,6.217c-2.736,12.051-1.806,17.372-8.207,36.153a2.129,2.129,0,0,1-.485,1.031,1.665,1.665,0,0,1-.847.3,11.636,11.636,0,0,1-6.009-.735,1.136,1.136,0,0,1-.646-.485,1.188,1.188,0,0,1-.023-.714c2.519-14.417,5.123-28.858,9.336-42.874a40.22,40.22,0,0,1,3.268-8.323,8.743,8.743,0,0,1,2.559-3.046c1.758-1.188.495.423.495.423" transform="translate(-79.595 -38.178)" fill="#12263f"/>
              <path id="Trazado_732792" data-name="Trazado 732792" d="M209.067,58.876c-.332-.672-1.2-.783-2.052-.861a8.5,8.5,0,0,0-2.539.283.894.894,0,0,0-.4.155.646.646,0,0,0-.177.391,32.856,32.856,0,0,1-2.042,6.585,9.858,9.858,0,0,0,6.838-5.518Z" transform="translate(-114.368 -32.86)" fill="#dcdada"/>
              <path id="Trazado_732793" data-name="Trazado 732793" d="M211.429,38.266q.122,2.621.244,5.243A14.439,14.439,0,0,0,216.931,31.5a18.914,18.914,0,0,1-4.542.591Z" transform="translate(-119.791 -17.846)" fill="#ac7224"/>
              <path id="Trazado_732794" data-name="Trazado 732794" d="M196.6,66.718a19.477,19.477,0,0,0-18.808-3.793,17.716,17.716,0,0,1-2.783.856,10.392,10.392,0,0,0-2.5.442c-1.9.824-2.269,3.311-2.366,5.38q-.276,5.9-.553,11.8a47.216,47.216,0,0,0,.231,9.9c.417,2.527,1.245,4.986,1.467,7.538.316,3.648-.621,7.271-1.112,10.9a1.175,1.175,0,0,0,.96,1.506c8.535,3.587,17.681,4.072,26.824,2.609-1.032-6.415,1.808-14.04,2.557-20.494a65.5,65.5,0,0,0-.065-13.076,30.759,30.759,0,0,0-1.506-8.13,11.787,11.787,0,0,0-5.064-6.348Z" transform="translate(-96.007 -35.101)" fill="#12263f"/>
              <path id="Trazado_732795" data-name="Trazado 732795" d="M188.673,71.747A4.537,4.537,0,0,0,190.35,75.7a5.036,5.036,0,0,0,4.444.911,5.928,5.928,0,0,0,2.393-1.234.237.237,0,0,0,0-.332.24.24,0,0,0-.333,0,5.305,5.305,0,0,1-4.072,1.226,4.312,4.312,0,0,1-3.24-2.318,3.8,3.8,0,0,1-.4-2.2.237.237,0,0,0-.235-.235.241.241,0,0,0-.235.235" transform="translate(-106.881 -40.517)" fill="#304b72"/>
              <path id="Trazado_732796" data-name="Trazado 732796" d="M55.064,157.928c.631,15.871,9.892,27.73,8.456,43.548-.273,3-12.358,38.787-12.56,38.96a51.823,51.823,0,0,1-6.376-.3c.836-12.476,4.123-25.989,5.605-38.4.157-1.318-3.332-20.178-4.09-25.352.7,19.925-10.67,49.246-11.588,69.162-1.679.029-5.885.273-7.563.3-.359-4.553,4.257-71.805,4.567-74.364.408-3.373,5.431-13.512,6.618-14.707a18.517,18.517,0,0,0,3.916.7c4.649.178,8.4-.17,13.015.456" transform="translate(-15.257 -88.825)" fill="#12263f"/>
            </g>
          </g>
          <g id="Grupo_1014808" data-name="Grupo 1014808" transform="translate(11.671 67.949)">
            <g id="Grupo_1014807" data-name="Grupo 1014807" clip-path="url(#clip-path-10)">
              <path id="Trazado_732797" data-name="Trazado 732797" d="M45.341,162.752a7.378,7.378,0,0,1-1.052,2.158,7.278,7.278,0,0,1-1.567,1.53,14.042,14.042,0,0,1-2.3,1.4,10.231,10.231,0,0,1-2.854.863,10.032,10.032,0,0,1-3.353-.062.242.242,0,0,0-.289.165.237.237,0,0,0,.164.289,10.732,10.732,0,0,0,6.185-.675A13.508,13.508,0,0,0,42.753,167a8.386,8.386,0,0,0,1.745-1.59,7.742,7.742,0,0,0,1.3-2.529c.091-.29-.363-.413-.454-.125" transform="translate(-30.89 -160.068)" fill="#253b46"/>
              <path id="Trazado_732798" data-name="Trazado 732798" d="M86.4,163.387a4.262,4.262,0,0,0,1.046,2.255,4.869,4.869,0,0,0,2.078,1.331,5.9,5.9,0,0,0,1.465.284.237.237,0,0,0,.235-.235.24.24,0,0,0-.235-.235,4.5,4.5,0,0,1-3.75-2.265,3.933,3.933,0,0,1-.386-1.259.237.237,0,0,0-.29-.164.241.241,0,0,0-.164.29" transform="translate(-60.621 -160.353)" fill="#253b46"/>
              <path id="Trazado_732799" data-name="Trazado 732799" d="M41.955,175.454a21.35,21.35,0,0,0-.233,7.676c.27,2.488.54,4.965.643,7.468a115.085,115.085,0,0,1-.468,14.93c-.452,5.078-1.127,10.132-1.82,15.182-.689,5.024-1.4,10.047-1.931,15.091a132.453,132.453,0,0,0-.838,14.921q.007.935.033,1.87a.235.235,0,0,0,.47,0,121.182,121.182,0,0,1,.613-14.886c.484-5.048,1.172-10.072,1.863-15.095.688-5,1.382-10.007,1.886-15.033a126.694,126.694,0,0,0,.722-14.963c-.045-2.451-.188-4.9-.456-7.337a35.8,35.8,0,0,1-.387-7.763,13.517,13.517,0,0,1,.356-1.936.236.236,0,0,0-.454-.125" transform="translate(-32.808 -167.263)" fill="#253b46"/>
              <path id="Trazado_732800" data-name="Trazado 732800" d="M21.6,354.8c1.386-.008,2.771-.051,4.156-.092,1.554-.046,3.108-.1,4.662-.135.722-.018,1.444-.033,2.166-.037a.235.235,0,0,0,0-.471c-1.385.008-2.771.051-4.156.092-1.554.046-3.108.1-4.663.135-.722.018-1.444.033-2.166.037a.235.235,0,0,0,0,.471" transform="translate(-23.782 -268.552)" fill="#253b46"/>
              <path id="Trazado_732801" data-name="Trazado 732801" d="M74.815,164.806c.16,1.831.278,3.665.338,5.5.03.91.047,1.82.057,2.731.006.482.021.967.009,1.45a1.662,1.662,0,0,1-.1.6,1.542,1.542,0,0,1-.357.487c-.375.371-.8.7-1.207,1.036q-.651.536-1.319,1.052l.4.166c.181-1.7.326-3.411.41-5.123.078-1.612.1-3.227.079-4.841-.013-.995-.041-1.989-.078-2.983-.011-.3-.482-.3-.471,0,.064,1.712.1,3.426.08,5.14q-.029,2.421-.216,4.836-.114,1.488-.274,2.971a.233.233,0,0,0,.145.215.245.245,0,0,0,.257-.049c.793-.613,1.576-1.242,2.327-1.9a2.1,2.1,0,0,0,.735-1.072,6.408,6.408,0,0,0,.056-1.47c-.016-1.833-.059-3.666-.163-5.5q-.092-1.627-.238-3.249a.242.242,0,0,0-.235-.235.237.237,0,0,0-.235.235" transform="translate(-52.558 -161.192)" fill="#253b46"/>
              <path id="Trazado_732802" data-name="Trazado 732802" d="M71.556,194.522l-1.017,2.854a.237.237,0,0,0,.164.29.24.24,0,0,0,.29-.164l1.017-2.854a.237.237,0,0,0-.164-.289.24.24,0,0,0-.29.164" transform="translate(-51.631 -178.063)" fill="#253b46"/>
              <path id="Trazado_732803" data-name="Trazado 732803" d="M74.718,194.152c2.044,6.712,4.084,13.44,5.5,20.318a90.207,90.207,0,0,1,1.571,10.459c.149,1.726.239,3.458.258,5.19a14.721,14.721,0,0,1-.059,2.319c-.179,1.083-.476,2.15-.761,3.208-.433,1.6-.9,3.2-1.374,4.792-1.068,3.583-2.187,7.15-3.323,10.711-.656,2.057-1.381,4.1-1.992,6.172-.009.03-.02.061-.03.091-.094.288.36.412.454.125q.849-2.586,1.676-5.179c1.131-3.532,2.246-7.07,3.317-10.62.862-2.855,1.784-5.728,2.388-8.652a7.552,7.552,0,0,0,.167-1.073,42.26,42.26,0,0,0-.082-4.674,83.087,83.087,0,0,0-1.248-10.376,183.86,183.86,0,0,0-5.269-20.494q-.37-1.222-.742-2.442c-.088-.289-.542-.166-.454.125" transform="translate(-53.88 -177.788)" fill="#253b46"/>
              <path id="Trazado_732804" data-name="Trazado 732804" d="M65.669,341.02l6.579.04,1.88.012a.235.235,0,0,0,0-.471l-6.579-.04-1.88-.012a.235.235,0,0,0,0,.471" transform="translate(-48.749 -260.897)" fill="#253b46"/>
              <path id="Trazado_732805" data-name="Trazado 732805" d="M50.659,159.1a15.511,15.511,0,0,0,3.781,1.3c1.339.3,2.7.551,4.052.768a18.632,18.632,0,0,0,4.329.274,15.933,15.933,0,0,0,3.9-.834,35.881,35.881,0,0,0,4.178-1.783.237.237,0,0,0,.085-.322.24.24,0,0,0-.322-.084,22.925,22.925,0,0,1-7.415,2.513,16.51,16.51,0,0,1-4.173-.147c-1.357-.2-2.71-.455-4.052-.738A16.019,16.019,0,0,1,50.9,158.7c-.268-.14-.506.266-.238.406" transform="translate(-40.306 -157.692)" fill="#253b46"/>
            </g>
          </g>
          <g id="Grupo_1014810" data-name="Grupo 1014810">
            <g id="Grupo_1014809" data-name="Grupo 1014809" clip-path="url(#clip-path-2)">
              <path id="Trazado_732807" data-name="Trazado 732807" d="M61.669,54.6A3.857,3.857,0,0,0,58.2,52.234,5.153,5.153,0,0,0,60.559,46a6.23,6.23,0,0,0-6.279-3.47,4.246,4.246,0,0,0,.055-5.616,5.656,5.656,0,0,0-6.138-1.3c.281-.821,2.365-2.2,1.533-4.306a5.294,5.294,0,0,0-3.681-3.128,21.662,21.662,0,0,1-1.119-4.292c-.275-1.8-.436-3.856-1.959-5.009a7.279,7.279,0,0,0-3.707-1.062,25.529,25.529,0,0,0-6.665-.087,9.349,9.349,0,0,0-4.178,1.713A6.058,6.058,0,0,0,26.3,21.086c-1.391,1.732-2.855,5.947-2.964,12.358a7.1,7.1,0,0,0-7.125,2.66,5.466,5.466,0,0,0,.7,6.848c-3.959.928-6.012,5.707-3.758,8.749a5.832,5.832,0,0,0-3.96,4.091,4.328,4.328,0,0,0,2.6,4.715c1.628.677,3.528.411,5.3.165,12.643-1.753,25.505-1.793,38.3-1.495,1.712.04,3.571.046,4.938-.872a3.255,3.255,0,0,0,1.335-3.7" transform="translate(-5.167 -9.938)" fill="#222221"/>
              <path id="Trazado_732808" data-name="Trazado 732808" d="M63.211,25.033a12.052,12.052,0,0,1-3.268,4.157,5.376,5.376,0,0,0,.42-4.134c-1.542,3.359-6.2,9.742-6.214,10.017a.047.047,0,0,1-.058.044c-1.237-.27-2.918,1.04-2.711,2.24a2.983,2.983,0,0,0,2.767,2.185c.127,1.615.6,7.022.744,7.288a2.011,2.011,0,0,0,.86.727c1.672.9,5.878.9,5.99.791.13-.13.04-3.452.067-4.14,5.075,0,5.075-2.285,5.075-2.67a94.149,94.149,0,0,0-.6-10.7,21.929,21.929,0,0,1-3.074-5.806" transform="translate(-29.101 -14.183)" fill="#efd0b9"/>
              <path id="Trazado_732809" data-name="Trazado 732809" d="M128.978,81.125c1.566-1.74,1.469-5.537.847-7.623-.5-1.667,1.213-6.424.7-8.082-.094-.307.378-.514.579-.254,1.11,1.432.469,5.687,1.184,7.035,0,0,3.971-10.12,4.167-10.169.492-.124.661.529.584.972-.387,2.222-2.018,4.616-2.569,6.817,0,0,2.7-6.05,4.961-7.978.175-.149.453-.02.412.189-.488,2.45-2.558,5.829-3.417,8.211,1.04-1.717,2.59-5.254,3.92-6.923.155-.2.492-.075.443.156a37.5,37.5,0,0,1-2.8,8.1c.836-.788,2.313-2.2,3.369-3.106a.306.306,0,0,1,.5.285,3.449,3.449,0,0,1-.7,1.275,68.36,68.36,0,0,0-7.926,13.181,22.928,22.928,0,0,1-4.111-2.174Z" transform="translate(-73.076 -35.002)" fill="#efd0b9"/>
              <path id="Trazado_732810" data-name="Trazado 732810" d="M188.834,57.312a75.46,75.46,0,0,0,.069,9.036,10.717,10.717,0,0,0-1.809-2.393,2.265,2.265,0,0,0-1.128-.709c-.857-.156-1.6.572-2.161,1.234,1.1-3.247,2.306-6.658,4.911-8.886a4.214,4.214,0,0,1,.131,2.87Z" transform="translate(-104.14 -31.498)" fill="#e9e9e9"/>
              <path id="Trazado_732811" data-name="Trazado 732811" d="M9.492,178.477c-.678.76-.442,7.812-.268,8.816.2,1.146.232,6.584.232,6.584-1.378.315-1.233-2.766-1.5-4.061l-.6,5.475a.782.782,0,0,1-1.106.682c-.687-.335-.72-1.461-.866-1.941a1.335,1.335,0,0,1-1,1.865A1.2,1.2,0,0,1,3.3,194.189c-.049.647-1,.89-1.509.484a1.843,1.843,0,0,1-.478-1.789c-.3.4-1.011.166-1.213-.295a2.151,2.151,0,0,1,.083-1.473c.991-3.246,2.768-5.639,4.26-8.688.683-1.4.891-3.543,1.674-4.886a4.48,4.48,0,0,0,3.374.935" transform="translate(0 -100.591)" fill="#efd0b9"/>
              <path id="Trazado_732812" data-name="Trazado 732812" d="M60.75,85.828a37.8,37.8,0,0,1-5.373,9.2c-.254-1.007-6-11.455-8.29-13.87-1.549-1.632-4.842-1.563-8.9-4.224a32.215,32.215,0,0,0-.511-3.417c-1.345.266-3.225,2.814-8.036,0,0,0-.622,3.194-.937,3.417-.843.6-8.329,6.142-9.594,8.831C13.383,97.936,7.8,123.9,7.87,124.129c.325,1.042,4.788,1.96,5.879,1.932,2.59-9.576,5.267-19.341,10.125-27.919l3.46,11.463c7.825,2.783,8.7,1.925,17.191,1.244-.78-3.655,2.091-11.145,1.7-15.845,1.4,2.131,4.525,8.8,6.368,10.666a3.839,3.839,0,0,0,1.988,1.262,3.61,3.61,0,0,0,1.881-.287c3.486-1.343,4.8-6.2,6.409-9.232,1.17-2.205,2.17-6.179,3.184-9.086a.538.538,0,0,0-.278-.665c-.865-.407-2.825-1.344-4.257-2.128a.537.537,0,0,0-.766.3" transform="translate(-4.459 -41.656)" fill="#117b2a"/>
              <path id="Trazado_732813" data-name="Trazado 732813" d="M65.7,23.072c-1.2,2.442-2.451,4.974-4.591,6.738a8.467,8.467,0,0,1-1.8,1.141c-.206.1-.027.4.178.3a9.615,9.615,0,0,0,3.049-2.329,17.7,17.7,0,0,0,2.347-3.461c.394-.729.758-1.472,1.123-2.215.1-.2-.2-.382-.3-.178" transform="translate(-33.551 -13.021)" fill="#222221"/>
              <path id="Trazado_732814" data-name="Trazado 732814" d="M86.24,26.715a12.308,12.308,0,0,0,.864,2.379,4.32,4.32,0,0,0,1.548,1.788,3.985,3.985,0,0,0,1.258.434,2.092,2.092,0,0,1,.7.26,2.313,2.313,0,0,1,.524.485,3.887,3.887,0,0,1,.844,2.582,3.727,3.727,0,0,1-.295,1.348,2.022,2.022,0,0,1-.841,1.021,1.022,1.022,0,0,1-1.079-.058.783.783,0,0,1-.118-1.025,1.516,1.516,0,0,1,1.1-.679,7.159,7.159,0,0,1,1.553-.058,5.093,5.093,0,0,1,2.917.856,2.831,2.831,0,0,1,.847,1,2.625,2.625,0,0,1,.24,1.393,6.064,6.064,0,0,1-1.2,2.764c-.144.212-.294.419-.446.624a.178.178,0,0,0,.063.241.18.18,0,0,0,.241-.063,8.8,8.8,0,0,0,1.577-2.9,3.413,3.413,0,0,0,.066-1.554,2.882,2.882,0,0,0-.679-1.328,4.429,4.429,0,0,0-2.8-1.32,10.757,10.757,0,0,0-1.756-.067,2.9,2.9,0,0,0-1.543.391,1.5,1.5,0,0,0-.671,1.16,1.057,1.057,0,0,0,.706,1.014,1.429,1.429,0,0,0,1.3-.17,2.559,2.559,0,0,0,.885-1.191,4.254,4.254,0,0,0,.06-2.94,4.108,4.108,0,0,0-.742-1.32,2.513,2.513,0,0,0-.6-.531A2.4,2.4,0,0,0,90,30.977a3.576,3.576,0,0,1-1.289-.471,3.4,3.4,0,0,1-.862-.854,8.132,8.132,0,0,1-1.094-2.409c-.063-.206-.122-.413-.179-.621a.177.177,0,0,0-.34.094" transform="translate(-48.857 -15.013)" fill="#222221"/>
              <path id="Trazado_732815" data-name="Trazado 732815" d="M33.851,51.219a.568.568,0,0,0-.279-.649,1.489,1.489,0,0,0-.7-.2,6.118,6.118,0,0,0-1.518.041,6.535,6.535,0,0,0-2.767,1.1,6.164,6.164,0,0,0-2,2.26,6.459,6.459,0,0,0-.677,3.077,6.372,6.372,0,0,0,1.036,3.345c.167.251.575.016.407-.238a6.06,6.06,0,0,1-.558-5.5A5.894,5.894,0,0,1,30.8,51a5.832,5.832,0,0,1,1.519-.193,3.937,3.937,0,0,1,.725.053.739.739,0,0,1,.291.117.348.348,0,0,1,.071.074c-.014-.018,0,0,0,.014,0-.014-.006.01-.013.03-.1.288.357.411.454.125" transform="translate(-14.682 -28.52)" fill="#222221"/>
              <path id="Trazado_732816" data-name="Trazado 732816" d="M13.173,70.13a5.629,5.629,0,0,0-4.767-1.242,6.4,6.4,0,0,0-2.376.92,4.93,4.93,0,0,0-1.871,2.044,3.025,3.025,0,0,0,0,2.585A1.868,1.868,0,0,0,6.3,75.514a1,1,0,0,0,.694-.784,1.121,1.121,0,0,0-.283-.951.885.885,0,0,0-1.076-.067,5.918,5.918,0,0,0-1.173.744,3.975,3.975,0,0,0-1.44,2.212,3.061,3.061,0,0,0,.463,2.406,2.472,2.472,0,0,0,.433.457.216.216,0,0,0,.3,0,.211.211,0,0,0,0-.3,2.394,2.394,0,0,1-.844-1.885,3.133,3.133,0,0,1,.83-2.064,4.71,4.71,0,0,1,.915-.795,6.032,6.032,0,0,1,.52-.309,1.211,1.211,0,0,1,.556-.209c.225.01.354.244.39.449a.584.584,0,0,1-.288.641,1.1,1.1,0,0,1-.98-.027,1.725,1.725,0,0,1-.768-.774,2.573,2.573,0,0,1-.023-2.2,5.248,5.248,0,0,1,3.7-2.713,5.387,5.387,0,0,1,4.235.737,4.2,4.2,0,0,1,.42.339c.2.182.5-.114.3-.3" transform="translate(-1.672 -38.977)" fill="#222221"/>
              <path id="Trazado_732817" data-name="Trazado 732817" d="M68.6,69.275H63.346l5.251,1.37Z" transform="translate(-35.89 -39.25)" fill="#d6ab8f"/>
              <path id="Trazado_732818" data-name="Trazado 732818" d="M18.181,199.075q.011,1.592.022,3.185a.177.177,0,0,0,.353,0l-.022-3.185a.177.177,0,0,0-.353,0" transform="translate(-10.301 -112.695)" fill="#b68972"/>
              <path id="Trazado_732819" data-name="Trazado 732819" d="M3.087,209.159a2.393,2.393,0,0,0-.212,1.7.177.177,0,0,0,.34-.094,2.019,2.019,0,0,1,.176-1.432c.107-.2-.2-.379-.3-.178" transform="translate(-1.589 -118.455)" fill="#b68972"/>
              <path id="Trazado_732820" data-name="Trazado 732820" d="M6.828,213.175q-.064.791-.129,1.581a.178.178,0,0,0,.176.176.18.18,0,0,0,.176-.176q.065-.791.129-1.581A.178.178,0,0,0,7,213a.18.18,0,0,0-.176.176" transform="translate(-3.795 -120.68)" fill="#b68972"/>
              <path id="Trazado_732821" data-name="Trazado 732821" d="M11.69,214.2q.083.66.166,1.319a.183.183,0,0,0,.176.176.178.178,0,0,0,.177-.176q-.083-.66-.166-1.319a.182.182,0,0,0-.176-.176.177.177,0,0,0-.176.176" transform="translate(-6.623 -121.263)" fill="#b68972"/>
              <path id="Trazado_732822" data-name="Trazado 732822" d="M1.479,207.94a17.816,17.816,0,0,0,4.243,1.91q.636.191,1.286.334c.221.049.316-.291.094-.34a17.467,17.467,0,0,1-4.309-1.561q-.58-.3-1.136-.647c-.194-.12-.371.185-.178.3" transform="translate(-0.791 -117.626)" fill="#b68972"/>
              <path id="Trazado_732823" data-name="Trazado 732823" d="M53.787,51.257a1.569,1.569,0,0,1,1.4,1.46c.007.227.36.228.353,0A1.925,1.925,0,0,0,53.787,50.9a.178.178,0,0,0-.176.176.18.18,0,0,0,.176.176" transform="translate(-30.375 -28.841)" fill="#b68972"/>
              <path id="Trazado_732824" data-name="Trazado 732824" d="M54.466,53.378h.721a.176.176,0,0,0,0-.353h-.721a.176.176,0,1,0,0,.353" transform="translate(-30.759 -30.043)" fill="#b68972"/>
              <path id="Trazado_732825" data-name="Trazado 732825" d="M67.077,46.276a.658.658,0,1,1-.635-.831.753.753,0,0,1,.635.831" transform="translate(-37.284 -25.748)" fill="#222221"/>
              <path id="Trazado_732826" data-name="Trazado 732826" d="M82.625,46.276a.658.658,0,1,1-.635-.831.753.753,0,0,1,.635.831" transform="translate(-46.093 -25.748)" fill="#222221"/>
              <path id="Trazado_732827" data-name="Trazado 732827" d="M72.5,51.113l1.234-.346.628-.176a1.647,1.647,0,0,1,.478-.1c.131,0,.192.057.169.194a2.472,2.472,0,0,1-.17.506,4.574,4.574,0,0,1-1.322,1.783c-.175.145.076.394.249.249a4.933,4.933,0,0,0,1.413-1.939c.129-.316.358-.838-.03-1.068-.335-.2-.793.007-1.127.1l-1.616.452a.177.177,0,0,0,.094.34" transform="translate(-40.956 -28.406)" fill="#b68972"/>
              <path id="Trazado_732828" data-name="Trazado 732828" d="M70.365,59.768c.678.026,1.24-.655,1.42-1.309a4.111,4.111,0,0,1-3.457-.234,2.2,2.2,0,0,0,2.036,1.543" transform="translate(-38.714 -32.989)" fill="#fff"/>
              <path id="Trazado_732829" data-name="Trazado 732829" d="M70.134,59.717a1.811,1.811,0,0,0,1.591-1.439c.034-.12-.089-.267-.217-.217a3.958,3.958,0,0,1-3.32-.215.179.179,0,0,0-.26.2,2.37,2.37,0,0,0,1.224,1.438,2.544,2.544,0,0,0,.983.234c.227.01.227-.343,0-.353a2,2,0,0,1-1.289-.512,2.208,2.208,0,0,1-.527-.759c.02.046-.01-.025-.016-.04L68.284,58c-.006-.016-.011-.033-.016-.05l-.26.2A4.3,4.3,0,0,0,71.6,58.4l-.217-.217c-.159.554-.612,1.194-1.25,1.18a.177.177,0,0,0,0,.353" transform="translate(-38.483 -32.761)" fill="#b68972"/>
              <path id="Trazado_732830" data-name="Trazado 732830" d="M65.791,38.2a.555.555,0,0,1,.44.99l-.012.009a9.335,9.335,0,0,1-2.285,1.224,3.314,3.314,0,0,1,1.233-2.077Z" transform="translate(-36.224 -21.632)" fill="#222221"/>
              <path id="Trazado_732831" data-name="Trazado 732831" d="M80.084,36.749a.556.556,0,0,0-.451.989l.013.009a9.657,9.657,0,0,0,2.343,1.224,3.3,3.3,0,0,0-1.264-2.077Z" transform="translate(-44.988 -20.813)" fill="#222221"/>
            </g>
          </g>
          <g id="Grupo_1014812" data-name="Grupo 1014812" transform="translate(3.411 31.866)">
            <g id="Grupo_1014811" data-name="Grupo 1014811" clip-path="url(#clip-path-12)">
              <path id="Trazado_732832" data-name="Trazado 732832" d="M60.319,72.595q-.127,2.209-.254,4.418c-.017.3.453.3.471,0q.126-2.209.253-4.418c.018-.3-.453-.3-.47,0" transform="translate(-37.442 -72.868)" fill="#0a601e"/>
              <path id="Trazado_732833" data-name="Trazado 732833" d="M63.376,73.033a25.612,25.612,0,0,1-.218,4.354.243.243,0,0,0,.164.29.237.237,0,0,0,.29-.164,26.327,26.327,0,0,0,.235-4.479c-.01-.3-.481-.3-.471,0" transform="translate(-39.192 -73.116)" fill="#0a601e"/>
              <path id="Trazado_732834" data-name="Trazado 732834" d="M67.016,73.468A21.352,21.352,0,0,1,66.9,77.7a.237.237,0,0,0,.235.235.24.24,0,0,0,.235-.235,21.386,21.386,0,0,0,.117-4.235.242.242,0,0,0-.235-.235.237.237,0,0,0-.235.235" transform="translate(-41.314 -73.358)" fill="#0a601e"/>
              <path id="Trazado_732835" data-name="Trazado 732835" d="M70.855,72.123q.3,2.5.6,5a.243.243,0,0,0,.235.235.236.236,0,0,0,.235-.235q-.3-2.5-.6-5a.243.243,0,0,0-.235-.235.237.237,0,0,0-.235.235" transform="translate(-43.555 -72.596)" fill="#0a601e"/>
              <path id="Trazado_732836" data-name="Trazado 732836" d="M73.861,71.691l.363,4.231a.242.242,0,0,0,.235.235.237.237,0,0,0,.235-.235l-.363-4.231a.242.242,0,0,0-.235-.235.237.237,0,0,0-.235.235" transform="translate(-45.258 -72.351)" fill="#0a601e"/>
              <path id="Trazado_732837" data-name="Trazado 732837" d="M40.661,100.562a29.23,29.23,0,0,1,1.39,4.905,29,29,0,0,1,.511,5.053q.02,1.439-.1,2.877a.237.237,0,0,0,.235.235.24.24,0,0,0,.235-.235,29.316,29.316,0,0,0-.015-5.142,29.777,29.777,0,0,0-.9-5.06q-.378-1.4-.9-2.759a.242.242,0,0,0-.29-.164.237.237,0,0,0-.164.29" transform="translate(-26.442 -88.673)" fill="#0a601e"/>
              <path id="Trazado_732838" data-name="Trazado 732838" d="M92.22,92.532a18.529,18.529,0,0,0,1.685,5.136,12.3,12.3,0,0,1,.785,2.578,9.444,9.444,0,0,1-.046,3.037,28.7,28.7,0,0,1-.849,3.444.236.236,0,0,0,.454.125,16.325,16.325,0,0,0,.967-6.194,19.966,19.966,0,0,0-1.739-5.225,10.562,10.562,0,0,1-.786-2.9.242.242,0,0,0-.235-.235.237.237,0,0,0-.235.235" transform="translate(-55.66 -84.159)" fill="#0a601e"/>
              <path id="Trazado_732839" data-name="Trazado 732839" d="M62.2,129.139a37.349,37.349,0,0,1,3.838-3.181,16.35,16.35,0,0,1,4.342-2.261,10.938,10.938,0,0,1,2.663-.516c.3-.019.3-.49,0-.471a12.488,12.488,0,0,0-4.791,1.36,22.786,22.786,0,0,0-4.225,2.839c-.74.609-1.455,1.247-2.159,1.9-.223.206.111.538.333.333" transform="translate(-38.424 -101.39)" fill="#0a601e"/>
              <path id="Trazado_732840" data-name="Trazado 732840" d="M72.043,130.513a11.4,11.4,0,0,1,4.525-2,.235.235,0,1,0-.125-.454,11.728,11.728,0,0,0-4.637,2.049.242.242,0,0,0-.085.322.236.236,0,0,0,.322.084" transform="translate(-44.028 -104.417)" fill="#0a601e"/>
              <path id="Trazado_732841" data-name="Trazado 732841" d="M9.123,186.851a24.314,24.314,0,0,0-1.32,3.73.236.236,0,0,0,.454.126,23.5,23.5,0,0,1,1.272-3.618.243.243,0,0,0-.084-.322.238.238,0,0,0-.322.085" transform="translate(-7.827 -137.666)" fill="#b17724"/>
              <path id="Trazado_732842" data-name="Trazado 732842" d="M11.9,187.83a14.31,14.31,0,0,0-.552,3.338c-.014.3.457.3.471,0a13.778,13.778,0,0,1,.535-3.213.236.236,0,0,0-.454-.125" transform="translate(-9.843 -138.192)" fill="#b17724"/>
              <path id="Trazado_732843" data-name="Trazado 732843" d="M15.082,187.815l-.786,4.034a.241.241,0,0,0,.164.289.237.237,0,0,0,.29-.164l.786-4.033a.241.241,0,0,0-.164-.29.238.238,0,0,0-.29.164" transform="translate(-11.508 -138.18)" fill="#b17724"/>
              <path id="Trazado_732844" data-name="Trazado 732844" d="M18.7,188.768q-.185,1.443-.371,2.885a.237.237,0,0,0,.235.235.241.241,0,0,0,.235-.235q.185-1.443.371-2.885a.237.237,0,0,0-.235-.235.241.241,0,0,0-.235.235" transform="translate(-13.793 -138.684)" fill="#b17724"/>
              <path id="Trazado_732845" data-name="Trazado 732845" d="M132.335,99.584l-1.1,2.712a.237.237,0,0,0,.164.29.241.241,0,0,0,.289-.165l1.1-2.711a.237.237,0,0,0-.164-.29.241.241,0,0,0-.289.164" transform="translate(-77.756 -88.189)" fill="#0a601e"/>
              <path id="Trazado_732846" data-name="Trazado 732846" d="M134.611,99.993l-.955,3.078c-.09.29.364.414.454.125l.955-3.077c.09-.29-.364-.414-.454-.125" transform="translate(-79.13 -88.427)" fill="#0a601e"/>
              <path id="Trazado_732847" data-name="Trazado 732847" d="M136.637,102.643l-1.12,2.705a.237.237,0,0,0,.164.29.241.241,0,0,0,.289-.164l1.12-2.705a.237.237,0,0,0-.164-.29.241.241,0,0,0-.29.164" transform="translate(-80.185 -89.922)" fill="#0a601e"/>
              <path id="Trazado_732848" data-name="Trazado 732848" d="M139.49,102.664l-1.352,3.265a.237.237,0,0,0,.164.29.242.242,0,0,0,.29-.164l1.352-3.265a.237.237,0,0,0-.164-.29.241.241,0,0,0-.289.164" transform="translate(-81.669 -89.934)" fill="#0a601e"/>
              <path id="Trazado_732849" data-name="Trazado 732849" d="M50.456,153.086a17,17,0,0,0,7.5,1.833,35.955,35.955,0,0,0,3.961-.1c1.344-.1,2.692-.227,4.025-.426a16.293,16.293,0,0,0,4.494-1.257.237.237,0,0,0,.085-.322.241.241,0,0,0-.322-.085,15.124,15.124,0,0,1-3.872,1.129c-1.31.222-2.638.348-3.961.456a27.848,27.848,0,0,1-7.671-.233,14.207,14.207,0,0,1-4-1.405c-.267-.144-.5.262-.238.406" transform="translate(-31.932 -118.353)" fill="#0a601e"/>
              <path id="Trazado_732850" data-name="Trazado 732850" d="M87.232,155.627a3.118,3.118,0,0,1,.344,1.617.235.235,0,0,0,.471,0,3.6,3.6,0,0,0-.409-1.855.235.235,0,1,0-.406.238" transform="translate(-52.818 -119.841)" fill="#0a601e"/>
              <path id="Trazado_732851" data-name="Trazado 732851" d="M83.675,156.465q.154,1.063.309,2.126a.236.236,0,0,0,.29.164.241.241,0,0,0,.164-.289q-.154-1.063-.309-2.126a.237.237,0,0,0-.29-.164.242.242,0,0,0-.164.29" transform="translate(-50.817 -120.347)" fill="#0a601e"/>
              <path id="Trazado_732852" data-name="Trazado 732852" d="M79.147,156.855q.124.958.247,1.915a.243.243,0,0,0,.235.235.237.237,0,0,0,.235-.235q-.124-.958-.247-1.915a.243.243,0,0,0-.235-.235.237.237,0,0,0-.235.235" transform="translate(-48.253 -120.603)" fill="#0a601e"/>
              <path id="Trazado_732853" data-name="Trazado 732853" d="M74.233,157.746l.239,2.109a.242.242,0,0,0,.235.235.237.237,0,0,0,.235-.235q-.12-1.055-.239-2.109a.243.243,0,0,0-.235-.235.237.237,0,0,0-.235.235" transform="translate(-45.469 -121.108)" fill="#0a601e"/>
              <path id="Trazado_732854" data-name="Trazado 732854" d="M69.183,157.746q-.122.958-.244,1.916a.236.236,0,0,0,.235.235.241.241,0,0,0,.235-.235q.122-.958.244-1.916a.237.237,0,0,0-.235-.235.241.241,0,0,0-.235.235" transform="translate(-42.469 -121.108)" fill="#0a601e"/>
              <path id="Trazado_732855" data-name="Trazado 732855" d="M64.266,157.3q-.122,1.054-.244,2.109a.237.237,0,0,0,.235.235.241.241,0,0,0,.235-.235q.122-1.054.244-2.109a.237.237,0,0,0-.235-.235.241.241,0,0,0-.235.235" transform="translate(-39.684 -120.853)" fill="#0a601e"/>
              <path id="Trazado_732856" data-name="Trazado 732856" d="M58.872,156.741a4.218,4.218,0,0,0-.106,1.873.237.237,0,0,0,.29.164.241.241,0,0,0,.164-.29,3.67,3.67,0,0,1,.106-1.623.235.235,0,1,0-.454-.125" transform="translate(-36.673 -120.574)" fill="#0a601e"/>
              <path id="Trazado_732857" data-name="Trazado 732857" d="M54.039,155.45a4.475,4.475,0,0,0-.153,2.054.237.237,0,0,0,.289.164.242.242,0,0,0,.165-.29,3.944,3.944,0,0,1,.153-1.8c.093-.289-.361-.413-.454-.125" transform="translate(-33.91 -119.848)" fill="#0a601e"/>
              <path id="Trazado_732858" data-name="Trazado 732858" d="M105.05,146.026a6.291,6.291,0,0,1,9.091,1.99,6.269,6.269,0,0,1-8.66-2.506Z" transform="translate(-62.93 -113.946)" fill="#0a601e"/>
              <path id="Trazado_732859" data-name="Trazado 732859" d="M15.808,134.325c.226-.435.841-.055,1.093.364a7.44,7.44,0,0,1,.79,5.562,6.83,6.83,0,0,1-3.32,4.324l1.614-9.195Z" transform="translate(-11.553 -107.862)" fill="#b17724"/>
              <path id="Trazado_732860" data-name="Trazado 732860" d="M116.838,120.329a16.478,16.478,0,0,0-.592,6.081,16.8,16.8,0,0,0,.246,1.72.238.238,0,0,0,.289.164.241.241,0,0,0,.165-.29,15.975,15.975,0,0,1-.044-5.9,16.178,16.178,0,0,1,.39-1.65.236.236,0,0,0-.454-.125" transform="translate(-69.236 -99.947)" fill="#0a601e"/>
              <path id="Trazado_732861" data-name="Trazado 732861" d="M31.643,148.227A7.676,7.676,0,0,0,31.4,150.2a.235.235,0,0,0,.471,0,7.167,7.167,0,0,1,.227-1.851.236.236,0,0,0-.454-.125" transform="translate(-21.2 -115.753)" fill="#0a601e"/>
            </g>
          </g>
          <g id="Grupo_1014817" data-name="Grupo 1014817">
            <g id="Grupo_1014816" data-name="Grupo 1014816" clip-path="url(#clip-path-2)">
              <path id="Trazado_732863" data-name="Trazado 732863" d="M183.635,16.755c-.944,5.187-2.516,10.7-2.421,15.97a2.119,2.119,0,0,0,.452,1.543,1.972,1.972,0,0,0,1.268.407,7.741,7.741,0,0,0,4.163-.857c.049,2.781.287,7.079.336,9.86,1.587-.564,6.211-2.588,7.883-2.787a92.511,92.511,0,0,1-.294-9.693,3.6,3.6,0,0,0,3.939-2.405,2.854,2.854,0,0,0-.4-2.57,2.083,2.083,0,0,0-2.417-.662q.431-4.732.862-9.463l-13.375.656" transform="translate(-102.669 -9.121)" fill="#e6b38d"/>
              <path id="Trazado_732864" data-name="Trazado 732864" d="M194.8,16.058a4.774,4.774,0,0,0-.749,1.739l-1.664-.151q.513-3.905.729-7.841c-4.646.058-9.5.072-13.63-2.087a.735.735,0,0,1-.376-.459c-.1-.375.176-.571.429-.723a9.472,9.472,0,0,1,3.837-1.28,7,7,0,0,1-4.619-1.767.72.72,0,0,1-.191-.258c-.231-.547.406-.91.921-1.035a10.794,10.794,0,0,1,5.611.156,3.871,3.871,0,0,1-2.258-.883.638.638,0,0,1,.378-1.131,14.981,14.981,0,0,1,5.691.85L188.9,1.18a.638.638,0,0,1,.481-1.162l.02.005a33.832,33.832,0,0,1,8.007,3.025,2.338,2.338,0,0,1,.7-2.325A2,2,0,0,1,198.224,3a2.76,2.76,0,0,1,4,.3,5.217,5.217,0,0,1-2.614.9,19.261,19.261,0,0,1-1.773,14A1.99,1.99,0,0,0,194,17.524Z" transform="translate(-101.147 0)" fill="#ac7224"/>
              <path id="Trazado_732865" data-name="Trazado 732865" d="M205.045,58.729c-.442,2.125-2.315,4.163-4.3,5.51s-4.749,2.1-5.176,4.191c1.459-.41,2.1-1.089,3.627-.911s3.037,1.144,3.134,2.446c2.012-2.079,4.121-4.36,4.276-7.048a5.756,5.756,0,0,0-1.559-4.189" transform="translate(-110.804 -33.275)" fill="#e9e9e9"/>
              <path id="Trazado_732866" data-name="Trazado 732866" d="M213.525,44.309l1.891-1.575a.178.178,0,0,0,0-.25.181.181,0,0,0-.25,0l-1.891,1.575a.178.178,0,0,0,0,.25.181.181,0,0,0,.25,0" transform="translate(-120.808 -24.042)" fill="#a46e4a"/>
              <g id="Grupo_1014815" data-name="Grupo 1014815" transform="translate(84.427 23.852)" opacity="0.44">
                <g id="Grupo_1014814" data-name="Grupo 1014814">
                  <g id="Grupo_1014813" data-name="Grupo 1014813" clip-path="url(#clip-path-14)">
                    <path id="Trazado_732867" data-name="Trazado 732867" d="M194.792,55.877l5.191-.846-5,3.908Z" transform="translate(-194.792 -55.032)" fill="#a46e4a"/>
                  </g>
                </g>
              </g>
              <path id="Trazado_732868" data-name="Trazado 732868" d="M215.842,45.365l.577.577a.176.176,0,0,0,.249-.25l-.576-.577a.177.177,0,0,0-.25.25" transform="translate(-122.263 -25.533)" fill="#a46e4a"/>
              <path id="Trazado_732869" data-name="Trazado 732869" d="M185.2,37.061c-.051.456-.376.794-.724.755a.753.753,0,0,1-.539-.9c.052-.456.376-.794.724-.755a.753.753,0,0,1,.539.9" transform="translate(-104.21 -20.488)" fill="#222221"/>
              <path id="Trazado_732870" data-name="Trazado 732870" d="M201.512,38.9c-.051.456-.376.794-.724.755a.753.753,0,0,1-.539-.9c.052-.456.376-.794.725-.755a.753.753,0,0,1,.538.9" transform="translate(-113.453 -21.529)" fill="#222221"/>
              <path id="Trazado_732871" data-name="Trazado 732871" d="M199.741,30.677c.052-.007.041-.006-.032,0l.062-.007.094-.009c.073-.006.146-.009.22-.01a3.455,3.455,0,0,1,.407.019l.047.005c.037,0,.021,0-.047-.007a.541.541,0,0,0,.109.017c.067.012.134.025.2.041a3.483,3.483,0,0,1,.421.127.473.473,0,0,0,.579-.329.483.483,0,0,0-.329-.579,4.007,4.007,0,0,0-1.981-.18.468.468,0,0,0-.281.216.47.47,0,0,0,.169.644.551.551,0,0,0,.363.047" transform="translate(-112.831 -16.839)" fill="#ac7224"/>
              <path id="Trazado_732872" data-name="Trazado 732872" d="M184.265,29.387a3.93,3.93,0,0,1,.443-.24c.048-.021.041-.018-.019.007l.062-.025.095-.036c.079-.028.159-.053.241-.075s.163-.042.246-.058c.033-.007.066-.013.1-.018l.066-.01q-.1.014-.025,0a3.908,3.908,0,0,1,.5-.019.475.475,0,0,0,.471-.471.481.481,0,0,0-.471-.471,3.857,3.857,0,0,0-2.186.6.471.471,0,1,0,.475.813" transform="translate(-103.999 -15.849)" fill="#ac7224"/>
              <path id="Trazado_732873" data-name="Trazado 732873" d="M191.578,49.421a3.05,3.05,0,0,0,2.619-1.472.177.177,0,0,0-.3-.178,2.691,2.691,0,0,1-2.314,1.3.177.177,0,0,0,0,.353" transform="translate(-108.447 -27.018)" fill="#a46e4a"/>
              <path id="Trazado_732874" data-name="Trazado 732874" d="M182.094,122.286a16.124,16.124,0,0,1,6.085,2.3,16.718,16.718,0,0,1,4.7,4.428,15.627,15.627,0,0,1,1.77,3.215.243.243,0,0,0,.29.164.236.236,0,0,0,.164-.289,16.573,16.573,0,0,0-3.713-5.563,17.31,17.31,0,0,0-5.579-3.7,15.879,15.879,0,0,0-3.591-1.01.243.243,0,0,0-.29.164.237.237,0,0,0,.164.29" transform="translate(-103.073 -69.025)" fill="#304b72"/>
              <path id="Trazado_732875" data-name="Trazado 732875" d="M189.509,129.373a6.788,6.788,0,0,1,2.9,2.884c.14.269.547.031.407-.238a7.225,7.225,0,0,0-3.068-3.053c-.269-.139-.507.267-.238.406" transform="translate(-107.304 -73.053)" fill="#304b72"/>
              <path id="Trazado_732876" data-name="Trazado 732876" d="M238.636,81.771A27.568,27.568,0,0,0,237.32,85.7a28.855,28.855,0,0,0-.391,12.348,27.571,27.571,0,0,0,1.06,4.007c.056.163.114.325.174.486a.242.242,0,0,0,.29.164.238.238,0,0,0,.164-.29,27.8,27.8,0,0,1-1.657-7.994,28.412,28.412,0,0,1,.7-8.137A27.693,27.693,0,0,1,239.09,81.9a.237.237,0,0,0-.164-.29.242.242,0,0,0-.29.164" transform="translate(-133.962 -46.231)" fill="#304b72"/>
              <path id="Trazado_732877" data-name="Trazado 732877" d="M244.282,146.4a8.872,8.872,0,0,1,4.972,1.418,8.522,8.522,0,0,1,1.172.909c.222.206.556-.126.333-.332a9.3,9.3,0,0,0-6.476-2.465.236.236,0,0,0,0,.471" transform="translate(-138.276 -82.681)" fill="#304b72"/>
              <path id="Trazado_732878" data-name="Trazado 732878" d="M243.8,147.251a40.421,40.421,0,0,1,3.909,2.767.243.243,0,0,0,.333,0,.237.237,0,0,0,0-.333,41.444,41.444,0,0,0-4-2.84c-.258-.161-.494.246-.238.406" transform="translate(-138.066 -83.178)" fill="#304b72"/>
              <path id="Trazado_732879" data-name="Trazado 732879" d="M221.458,159.984a51.243,51.243,0,0,1-.423-6.36q0-.908.025-1.815l-.173.227a36.245,36.245,0,0,0,4.2-1.465,36.736,36.736,0,0,0,4.03-1.982q1.091-.623,2.136-1.321c.251-.167.016-.575-.237-.406a36.316,36.316,0,0,1-3.828,2.229,35.763,35.763,0,0,1-4.055,1.736q-1.173.418-2.373.755a.241.241,0,0,0-.172.227,51.139,51.139,0,0,0,.2,6.371q.085.9.2,1.8a.243.243,0,0,0,.235.235.237.237,0,0,0,.235-.235" transform="translate(-124.967 -83.186)" fill="#304b72"/>
              <path id="Trazado_732880" data-name="Trazado 732880" d="M178.626,170.483a12.057,12.057,0,0,1-3.3-1.328,9.64,9.64,0,0,0-1.95-1.016.456.456,0,0,0-.5.706,6.583,6.583,0,0,0,1.111,1.079l1.954,1.606a.65.65,0,0,0,.87.126l1.853-.84Z" transform="translate(-97.891 -95.252)" fill="#ce9a79"/>
              <path id="Trazado_732881" data-name="Trazado 732881" d="M184.383,169.4a15.893,15.893,0,0,1-4.458-2.491.254.254,0,0,0-.4.285,4.68,4.68,0,0,0,1.6,1.883,2.8,2.8,0,0,0,1.7.812c.6-.013,1.145-.415,1.748-.434Z" transform="translate(-101.709 -94.537)" fill="#ce9a79"/>
              <path id="Trazado_732882" data-name="Trazado 732882" d="M189.436,159.658a3.106,3.106,0,0,1-1.008-.026,4.532,4.532,0,0,1-1.021-.493c-2.236-1.207-4.978-.53-7.419.175l-3.062.883c-.284.082-.594.18-.677.525a.7.7,0,0,0,.163.611,1.678,1.678,0,0,0,1.213.45,16.383,16.383,0,0,0,4.78-.333,8.8,8.8,0,0,1-5.968,4.113c-1.482.258-3.2.213-4.393.989a.455.455,0,0,0,.161.823A11.072,11.072,0,0,0,179,166.7a2.195,2.195,0,0,1,1.109-.291,4.018,4.018,0,0,1,.853.31c1.259.455,2.557-.432,3.724-1.088,2.5-1.4,5.614-.716,8.444-1.151,0-1.367-.212-3.88-.209-5.246Z" transform="translate(-97.362 -89.789)" fill="#e6b38d"/>
              <path id="Trazado_732883" data-name="Trazado 732883" d="M220.807,160.062l2.306-.391a.237.237,0,0,0,.164-.29.241.241,0,0,0-.29-.164l-2.306.391a.237.237,0,0,0-.164.29.241.241,0,0,0,.29.164" transform="translate(-124.936 -90.207)" fill="#304b72"/>
              <path id="Trazado_732884" data-name="Trazado 732884" d="M222.176,163.4l2.307-.383a.237.237,0,0,0,.164-.29.241.241,0,0,0-.29-.164l-2.307.383a.237.237,0,0,0-.164.29.241.241,0,0,0,.29.164" transform="translate(-125.712 -92.104)" fill="#304b72"/>
              <path id="Trazado_732885" data-name="Trazado 732885" d="M222.227,168.6a3.832,3.832,0,0,1,1.992-.359.235.235,0,0,0,0-.471,4.29,4.29,0,0,0-2.23.424.237.237,0,0,0-.085.322.24.24,0,0,0,.322.085" transform="translate(-125.709 -95.045)" fill="#304b72"/>
              <path id="Trazado_732886" data-name="Trazado 732886" d="M222.169,173.074l2.3-.415a.238.238,0,0,0,.164-.29.241.241,0,0,0-.29-.164l-2.3.415a.238.238,0,0,0-.164.29.241.241,0,0,0,.29.164" transform="translate(-125.708 -97.564)" fill="#304b72"/>
              <path id="Trazado_732887" data-name="Trazado 732887" d="M222.58,177.418a24.39,24.39,0,0,1,4.947-.307c.3.012.3-.459,0-.47a24.9,24.9,0,0,0-5.072.324.237.237,0,0,0-.164.289.241.241,0,0,0,.29.164" transform="translate(-125.94 -100.07)" fill="#304b72"/>
              <path id="Trazado_732888" data-name="Trazado 732888" d="M159.065,183.654a4.121,4.121,0,0,0-.833,2.607c.009.3.48.3.471,0a3.713,3.713,0,0,1,.768-2.37.236.236,0,0,0-.084-.322.241.241,0,0,0-.322.084" transform="translate(-89.649 -103.988)" fill="#304b72"/>
              <path id="Trazado_732889" data-name="Trazado 732889" d="M147.922,190.135l-.558,2.119a.236.236,0,0,0,.454.125l.558-2.119a.236.236,0,0,0-.454-.125" transform="translate(-83.488 -107.631)" fill="#304b72"/>
              <path id="Trazado_732890" data-name="Trazado 732890" d="M152.514,190.121q-.194,1.25-.388,2.5a.243.243,0,0,0,.165.29.237.237,0,0,0,.289-.165q.194-1.249.388-2.5a.243.243,0,0,0-.164-.29.237.237,0,0,0-.29.164" transform="translate(-86.189 -107.621)" fill="#304b72"/>
              <path id="Trazado_732891" data-name="Trazado 732891" d="M155.553,191.046a5.979,5.979,0,0,0-.241,1.783.235.235,0,1,0,.471,0,5.515,5.515,0,0,1,.225-1.658.235.235,0,1,0-.454-.125" transform="translate(-87.996 -108.144)" fill="#304b72"/>
              <path id="Trazado_732892" data-name="Trazado 732892" d="M157.237,135.515a6.571,6.571,0,0,0-.614,2.623.235.235,0,0,0,.47,0,6,6,0,0,1,.55-2.386.242.242,0,0,0-.084-.322.238.238,0,0,0-.322.085" transform="translate(-88.739 -76.715)" fill="#304b72"/>
              <path id="Trazado_732893" data-name="Trazado 732893" d="M160.194,136.088a3.553,3.553,0,0,1-.318,1.818.242.242,0,0,0,.084.322.237.237,0,0,0,.322-.084,4.019,4.019,0,0,0,.382-2.056.242.242,0,0,0-.235-.235.237.237,0,0,0-.235.235" transform="translate(-90.566 -76.971)" fill="#304b72"/>
              <path id="Trazado_732894" data-name="Trazado 732894" d="M196.391,11.189a17.921,17.921,0,0,0,7.633.04,17.417,17.417,0,0,0,2.081-.579.242.242,0,0,0,.164-.29.238.238,0,0,0-.29-.164,17.469,17.469,0,0,1-7.393.874,16.875,16.875,0,0,1-2.07-.334c-.3-.066-.421.387-.125.454" transform="translate(-111.175 -5.771)" fill="#8e5b22"/>
              <path id="Trazado_732895" data-name="Trazado 732895" d="M203.049,7.908a16.907,16.907,0,0,0,4.872-.346c.3-.065.171-.518-.125-.454a16.475,16.475,0,0,1-4.747.329.235.235,0,1,0,0,.471" transform="translate(-114.91 -4.024)" fill="#8e5b22"/>
              <path id="Trazado_732896" data-name="Trazado 732896" d="M216.115,15.889a11.231,11.231,0,0,1-.726,4.785,10.793,10.793,0,0,1-.578,1.25c-.143.267.263.5.407.238a11.67,11.67,0,0,0,1.376-4.856,11.285,11.285,0,0,0-.007-1.417.241.241,0,0,0-.235-.235.237.237,0,0,0-.235.235" transform="translate(-121.69 -8.869)" fill="#8e5b22"/>
              <path id="Trazado_732897" data-name="Trazado 732897" d="M220.4,17.227a16.155,16.155,0,0,1-.641,4.182.236.236,0,0,0,.454.125,16.683,16.683,0,0,0,.657-4.307.235.235,0,0,0-.471,0" transform="translate(-124.505 -9.632)" fill="#8e5b22"/>
              <path id="Trazado_732898" data-name="Trazado 732898" d="M223.1,22.5l-.8,3.068a.236.236,0,0,0,.454.125l.8-3.068a.236.236,0,0,0-.454-.125" transform="translate(-125.947 -12.655)" fill="#8e5b22"/>
              <path id="Trazado_732899" data-name="Trazado 732899" d="M33.827,59.15A4.283,4.283,0,0,0,29.3,61.016a4.346,4.346,0,0,0-.635,2.49,4.13,4.13,0,0,0,.269,1.27,9.527,9.527,0,0,0,.591,1.2,5.152,5.152,0,0,1,.886,2.278,2.691,2.691,0,0,1-.866,1.917c-.548.57-1.2,1.029-1.8,1.543a6.977,6.977,0,0,0-1.575,1.909,7.167,7.167,0,0,0-.751,4.927c.043.2.1.4.159.6.091.287.546.164.454-.125a6.592,6.592,0,0,1,.307-4.689,6.378,6.378,0,0,1,1.4-1.976c.562-.535,1.2-.981,1.776-1.5a4.026,4.026,0,0,0,1.27-1.818,3.338,3.338,0,0,0-.357-2.384A17.318,17.318,0,0,1,29.3,64.413a3.835,3.835,0,0,1,.049-2.422A3.628,3.628,0,0,1,30.8,60.137a3.9,3.9,0,0,1,2.325-.615,3.493,3.493,0,0,1,.572.082c.3.066.421-.387.125-.454" transform="translate(-14.318 -33.456)" fill="#3a3a38"/>
              <path id="Trazado_732900" data-name="Trazado 732900" d="M46.027,68.742A3.2,3.2,0,0,0,43.245,71a2.856,2.856,0,0,0,.025,1.876c.147.391.365.752.5,1.147a2.516,2.516,0,0,1,.131.967,2.652,2.652,0,0,1-.984,1.913.236.236,0,0,0,0,.332.241.241,0,0,0,.333,0A3.118,3.118,0,0,0,44.357,74.5a3.575,3.575,0,0,0-.331-1.08,5.09,5.09,0,0,1-.41-1.022,2.313,2.313,0,0,1-.025-.826,2.914,2.914,0,0,1,.754-1.536,2.5,2.5,0,0,1,1.681-.827c.3-.015.3-.485,0-.471" transform="translate(-24.277 -38.947)" fill="#3a3a38"/>
              <path id="Trazado_732901" data-name="Trazado 732901" d="M93.353,66.208a3.428,3.428,0,0,1,2.692.862,3.633,3.633,0,0,1,.884,1.165,3.25,3.25,0,0,1,.292,1.379,11.8,11.8,0,0,0,0,3.139,2.122,2.122,0,0,0,.876,1.21,5.043,5.043,0,0,0,1.546.553,4.059,4.059,0,0,1,.849.295,2.65,2.65,0,0,1,1.406,2.02.242.242,0,0,0,.235.235.237.237,0,0,0,.235-.235,3.132,3.132,0,0,0-1.951-2.565c-.928-.368-2.2-.343-2.663-1.4a3.305,3.305,0,0,1-.172-1.468c.026-.547.1-1.093.105-1.641a3.871,3.871,0,0,0-.265-1.549,4.006,4.006,0,0,0-.869-1.3,3.911,3.911,0,0,0-3.2-1.168.243.243,0,0,0-.235.235c0,.114.108.252.235.235" transform="translate(-52.759 -37.229)" fill="#3a3a38"/>
              <path id="Trazado_732902" data-name="Trazado 732902" d="M87.743,73.987a.774.774,0,0,1,.889-.178,1.411,1.411,0,0,1,.823.774A6.275,6.275,0,0,1,89.837,76a3.859,3.859,0,0,0,.471,1.276,1.756,1.756,0,0,0,1.163.856.242.242,0,0,0,.29-.164.237.237,0,0,0-.164-.289c-.943-.152-1.2-1.273-1.357-2.054a4.581,4.581,0,0,0-.488-1.484,1.821,1.821,0,0,0-1.023-.8,1.233,1.233,0,0,0-1.318.308.241.241,0,0,0,0,.332.237.237,0,0,0,.333,0" transform="translate(-49.487 -41.518)" fill="#3a3a38"/>
              <path id="Trazado_732903" data-name="Trazado 732903" d="M183.616,32.166a.414.414,0,0,1,.279.182.86.86,0,0,1,.071.481q.008.69-.034,1.379c-.026.439-.057.884-.126,1.318a.761.761,0,0,1-.148.41c-.114.117-.34.107-.489.119a5.99,5.99,0,0,1-2.47-.255,1.865,1.865,0,0,1-.772-.485,1.29,1.29,0,0,1-.258-.964c.029-.7.079-1.407.122-2.11a.428.428,0,0,1,.251-.387.612.612,0,0,1,.313-.02l.971.1c.748.076,1.5.168,2.244.229l.047,0a.237.237,0,0,0,.235-.235.241.241,0,0,0-.235-.235l-2.169-.221-1.089-.111a.975.975,0,0,0-.457.042.9.9,0,0,0-.579.794c-.028.364-.042.73-.064,1.094s-.052.748-.063,1.121a1.717,1.717,0,0,0,.358,1.186,2.2,2.2,0,0,0,.9.605,4.83,4.83,0,0,0,1.2.283,7.261,7.261,0,0,0,1.471.041,1.828,1.828,0,0,0,.685-.127.812.812,0,0,0,.377-.456,2.472,2.472,0,0,0,.114-.594q.046-.376.076-.755c.04-.5.061-.995.063-1.493a1.446,1.446,0,0,0-.29-1.181.941.941,0,0,0-.531-.229.237.237,0,0,0-.235.235.241.241,0,0,0,.235.235" transform="translate(-101.527 -17.764)" fill="#853a57"/>
              <path id="Trazado_732904" data-name="Trazado 732904" d="M199.894,34.45a.414.414,0,0,1,.279.182.864.864,0,0,1,.071.481q.007.69-.035,1.379c-.026.439-.057.884-.126,1.318a.761.761,0,0,1-.148.41c-.114.117-.34.107-.489.119a5.991,5.991,0,0,1-2.47-.255,1.864,1.864,0,0,1-.772-.485,1.29,1.29,0,0,1-.258-.964c.029-.7.079-1.407.122-2.11a.429.429,0,0,1,.251-.387.616.616,0,0,1,.313-.02l.971.1c.748.076,1.5.168,2.245.229l.046,0a.237.237,0,0,0,.235-.235.241.241,0,0,0-.235-.235l-2.169-.221-1.089-.111a.975.975,0,0,0-.457.042.9.9,0,0,0-.579.794c-.028.364-.042.73-.064,1.094s-.052.748-.063,1.121a1.715,1.715,0,0,0,.358,1.186,2.2,2.2,0,0,0,.895.605,4.835,4.835,0,0,0,1.2.283,7.263,7.263,0,0,0,1.471.041,1.82,1.82,0,0,0,.685-.127.81.81,0,0,0,.377-.455,2.47,2.47,0,0,0,.114-.594q.046-.376.076-.755c.04-.5.061-.995.063-1.493a1.446,1.446,0,0,0-.29-1.181.941.941,0,0,0-.531-.229.237.237,0,0,0-.235.235.241.241,0,0,0,.235.235" transform="translate(-110.75 -19.058)" fill="#853a57"/>
              <path id="Trazado_732905" data-name="Trazado 732905" d="M190.4,32.962a1.139,1.139,0,0,1,1.986.494c.07.294.524.17.454-.125a1.608,1.608,0,0,0-2.773-.7c-.2.226.131.56.333.333" transform="translate(-107.65 -18.18)" fill="#853a57"/>
              <path id="Trazado_732906" data-name="Trazado 732906" d="M206.394,39.117a32.546,32.546,0,0,1,3.408-.356c.3-.016.3-.486,0-.471a33.655,33.655,0,0,0-3.533.373.238.238,0,0,0-.164.29.241.241,0,0,0,.29.164" transform="translate(-116.77 -21.694)" fill="#853a57"/>
              <path id="Trazado_732907" data-name="Trazado 732907" d="M180.072,34.043l1.009,0a.235.235,0,1,0,0-.471l-1.009,0a.235.235,0,1,0,0,.471" transform="translate(-101.891 -19.021)" fill="#853a57"/>
              <path id="Trazado_732908" data-name="Trazado 732908" d="M190.378,34.1a16.461,16.461,0,0,0-2.056,5.1c-.111.511-.2,1.028-.259,1.547-.018.145.16.2.265.153l2.506-1.2c.205-.1.026-.4-.178-.305l-2.506,1.2.266.153a16.052,16.052,0,0,1,1.531-5.142q.337-.683.736-1.332c.119-.194-.186-.371-.3-.178" transform="translate(-106.552 -19.275)" fill="#a46e4a"/>
              <path id="Trazado_732909" data-name="Trazado 732909" d="M65.488,363.2a7.665,7.665,0,0,1,2.109-.014l14.345,1.234c.687.059,1.058-.677.53-1.052-2.61-1.852-10.222-6.553-10.639-6.578l-5.9-.355Z" transform="translate(-37.104 -201.95)" fill="#5170ad"/>
            </g>
          </g>
          <g id="Grupo_1014819" data-name="Grupo 1014819" transform="translate(28.384 154.489)">
            <g id="Grupo_1014818" data-name="Grupo 1014818" clip-path="url(#clip-path-15)">
              <path id="Trazado_732910" data-name="Trazado 732910" d="M63.98,369.47c2.347.1,4.694.205,7.039.342s4.686.308,7.022.548q1.957.2,3.906.473a.244.244,0,0,0,.29-.165.237.237,0,0,0-.164-.289c-2.338-.33-4.687-.575-7.04-.763s-4.7-.322-7.056-.436q-2-.1-4-.181c-.3-.013-.3.458,0,.471" transform="translate(-64.505 -363.556)" fill="#fff"/>
              <path id="Trazado_732911" data-name="Trazado 732911" d="M95.776,365.538a2.569,2.569,0,0,0-1.675,2.211.237.237,0,0,0,.235.235.24.24,0,0,0,.235-.235,2.093,2.093,0,0,1,1.33-1.757.242.242,0,0,0,.164-.289.237.237,0,0,0-.29-.164" transform="translate(-81.699 -361.588)" fill="#fff"/>
              <path id="Trazado_732912" data-name="Trazado 732912" d="M63.329,364.875a2.1,2.1,0,0,1,2.622,1.563.237.237,0,0,0,.29.164.241.241,0,0,0,.164-.289,2.589,2.589,0,0,0-2.294-1.991,2.221,2.221,0,0,0-.908.1c-.286.094-.164.548.125.454" transform="translate(-64.102 -360.9)" fill="#fff"/>
              <path id="Trazado_732913" data-name="Trazado 732913" d="M75.141,360.916a.909.909,0,1,1-.909-.909.909.909,0,0,1,.909.909" transform="translate(-69.927 -358.461)" fill="#e09d2e"/>
              <path id="Trazado_732914" data-name="Trazado 732914" d="M85.474,365.376a.622.622,0,1,1-.622-.622.622.622,0,0,1,.622.622" transform="translate(-76.106 -361.15)" fill="#e09d2e"/>
              <path id="Trazado_732915" data-name="Trazado 732915" d="M88.695,366.812a.622.622,0,1,1-.622-.622.622.622,0,0,1,.622.622" transform="translate(-77.931 -361.964)" fill="#e09d2e"/>
              <path id="Trazado_732916" data-name="Trazado 732916" d="M88.8,363.959a4.782,4.782,0,0,1,1.983-2.757c.252-.165.017-.573-.238-.406a5.278,5.278,0,0,0-2.2,3.037.236.236,0,0,0,.454.125" transform="translate(-78.436 -358.886)" fill="#fff"/>
              <path id="Trazado_732917" data-name="Trazado 732917" d="M85.581,362.7a5.282,5.282,0,0,1,1.708-2.377.237.237,0,0,0,0-.333.241.241,0,0,0-.332,0,5.718,5.718,0,0,0-1.829,2.584.238.238,0,0,0,.164.289.24.24,0,0,0,.29-.164" transform="translate(-76.609 -358.416)" fill="#fff"/>
            </g>
          </g>
          <g id="Grupo_1014821" data-name="Grupo 1014821">
            <g id="Grupo_1014820" data-name="Grupo 1014820" clip-path="url(#clip-path-2)">
              <path id="Trazado_732919" data-name="Trazado 732919" d="M26.719,374.024a7.669,7.669,0,0,1,2.109-.014l14.345,1.234c.687.059,1.058-.677.53-1.052-2.61-1.852-10.222-6.553-10.639-6.578l-5.9-.355Z" transform="translate(-15.138 -208.081)" fill="#5170ad"/>
            </g>
          </g>
          <g id="Grupo_1014823" data-name="Grupo 1014823" transform="translate(11.581 159.178)">
            <g id="Grupo_1014822" data-name="Grupo 1014822" clip-path="url(#clip-path-17)">
              <path id="Trazado_732920" data-name="Trazado 732920" d="M25.212,380.289c2.347.1,4.694.205,7.039.342s4.686.308,7.022.548q1.957.2,3.906.473a.244.244,0,0,0,.29-.165.237.237,0,0,0-.164-.289c-2.338-.33-4.687-.575-7.04-.763s-4.7-.322-7.056-.436q-2-.1-4-.181c-.3-.013-.3.458,0,.471" transform="translate(-25.737 -374.374)" fill="#fff"/>
              <path id="Trazado_732921" data-name="Trazado 732921" d="M57.007,376.358a2.569,2.569,0,0,0-1.675,2.211.235.235,0,1,0,.47,0,2.094,2.094,0,0,1,1.33-1.757.242.242,0,0,0,.164-.29.237.237,0,0,0-.29-.164" transform="translate(-42.93 -372.408)" fill="#fff"/>
              <path id="Trazado_732922" data-name="Trazado 732922" d="M24.561,375.694a2.1,2.1,0,0,1,2.622,1.563.237.237,0,0,0,.29.164.241.241,0,0,0,.164-.29,2.589,2.589,0,0,0-2.294-1.991,2.221,2.221,0,0,0-.908.1c-.286.094-.164.548.125.454" transform="translate(-25.333 -371.719)" fill="#fff"/>
              <path id="Trazado_732923" data-name="Trazado 732923" d="M36.372,371.735a.909.909,0,1,1-.909-.909.909.909,0,0,1,.909.909" transform="translate(-31.158 -369.28)" fill="#e09d2e"/>
              <path id="Trazado_732924" data-name="Trazado 732924" d="M46.7,376.2a.622.622,0,1,1-.622-.622.622.622,0,0,1,.622.622" transform="translate(-37.337 -371.969)" fill="#e09d2e"/>
              <path id="Trazado_732925" data-name="Trazado 732925" d="M49.926,377.631a.622.622,0,1,1-.622-.622.622.622,0,0,1,.622.622" transform="translate(-39.162 -372.783)" fill="#e09d2e"/>
              <path id="Trazado_732926" data-name="Trazado 732926" d="M50.035,374.778a4.782,4.782,0,0,1,1.983-2.757c.252-.165.017-.573-.238-.406a5.279,5.279,0,0,0-2.2,3.037.236.236,0,0,0,.454.125" transform="translate(-39.667 -369.705)" fill="#fff"/>
              <path id="Trazado_732927" data-name="Trazado 732927" d="M46.813,373.523a5.283,5.283,0,0,1,1.708-2.377.237.237,0,0,0,0-.333.241.241,0,0,0-.332,0,5.719,5.719,0,0,0-1.829,2.585.235.235,0,0,0,.454.125" transform="translate(-37.841 -369.235)" fill="#fff"/>
            </g>
          </g>
          <g id="Grupo_1014825" data-name="Grupo 1014825">
            <g id="Grupo_1014824" data-name="Grupo 1014824" clip-path="url(#clip-path-2)">
              <path id="Trazado_732929" data-name="Trazado 732929" d="M207.308,371.332l-6.474-.14-12.186,5.78h12.686l1.507-2.264.827,2.264h3.64Z" transform="translate(-106.884 -210.309)" fill="#e09d2e"/>
            </g>
          </g>
          <g id="Grupo_1014827" data-name="Grupo 1014827" transform="translate(81.764 160.883)">
            <g id="Grupo_1014826" data-name="Grupo 1014826" clip-path="url(#clip-path-19)">
              <path id="Trazado_732930" data-name="Trazado 732930" d="M228.469,374.139a5.472,5.472,0,0,0-1.7,2.3,5.133,5.133,0,0,0-.218.687,2.165,2.165,0,0,0-.085.678.81.81,0,0,0,.264.582,1.154,1.154,0,0,0,.781.158l2.067-.016a.235.235,0,0,0,0-.471l-1.645.013-.4,0a2.862,2.862,0,0,1-.38,0c-.152-.02-.2-.128-.218-.268a1.681,1.681,0,0,1,.072-.571,4.917,4.917,0,0,1,.788-1.715,5,5,0,0,1,1.006-1.045.237.237,0,0,0,0-.333.241.241,0,0,0-.333,0" transform="translate(-210.072 -372.824)" fill="#5170ad"/>
              <path id="Trazado_732931" data-name="Trazado 732931" d="M195.681,379.507a2.125,2.125,0,0,1,1.641,2.338.242.242,0,0,0,.164.289.238.238,0,0,0,.29-.164,2.6,2.6,0,0,0-1.97-2.917.242.242,0,0,0-.289.164.238.238,0,0,0,.165.29" transform="translate(-192.535 -375.643)" fill="#5170ad"/>
              <rect id="Rect치ngulo_348919" data-name="Rect치ngulo 348919" width="23.621" height="3.166" transform="translate(-1.066 5.237)" fill="#774a1e"/>
            </g>
          </g>
          <g id="Grupo_1014829" data-name="Grupo 1014829">
            <g id="Grupo_1014828" data-name="Grupo 1014828" clip-path="url(#clip-path-2)">
              <path id="Trazado_732933" data-name="Trazado 732933" d="M201.418,375.319a2.5,2.5,0,0,1,2.1,1.748.236.236,0,0,0,.454-.125,2.989,2.989,0,0,0-2.559-2.093.237.237,0,0,0-.235.235.24.24,0,0,0,.235.235" transform="translate(-113.986 -212.38)" fill="#5170ad"/>
              <path id="Trazado_732934" data-name="Trazado 732934" d="M203.883,373.883a2.29,2.29,0,0,1,1.941,1.611.236.236,0,0,0,.454-.125,2.774,2.774,0,0,0-2.395-1.957.237.237,0,0,0-.236.235.241.241,0,0,0,.236.235" transform="translate(-115.382 -211.566)" fill="#5170ad"/>
              <path id="Trazado_732935" data-name="Trazado 732935" d="M207,372.327a2.466,2.466,0,0,1,1.961,1.846c.068.295.522.17.454-.125a2.925,2.925,0,0,0-2.289-2.174.242.242,0,0,0-.29.164.237.237,0,0,0,.164.29" transform="translate(-117.186 -210.692)" fill="#5170ad"/>
              <path id="Trazado_732936" data-name="Trazado 732936" d="M171.971,367.161l-6.474-.14-12.186,5.78H166l1.507-2.264.827,2.264h3.64Z" transform="translate(-86.863 -207.946)" fill="#e09d2e"/>
            </g>
          </g>
          <g id="Grupo_1014831" data-name="Grupo 1014831" transform="translate(66.449 159.075)">
            <g id="Grupo_1014830" data-name="Grupo 1014830" clip-path="url(#clip-path-21)">
              <path id="Trazado_732937" data-name="Trazado 732937" d="M193.132,369.968a5.472,5.472,0,0,0-1.7,2.3,5.079,5.079,0,0,0-.218.686,2.167,2.167,0,0,0-.084.678.81.81,0,0,0,.264.583,1.152,1.152,0,0,0,.78.158l2.068-.016a.235.235,0,0,0,0-.471l-1.645.013-.4,0a2.852,2.852,0,0,1-.38,0c-.153-.02-.2-.128-.218-.268a1.69,1.69,0,0,1,.072-.571,5.164,5.164,0,0,1,.187-.6,5.055,5.055,0,0,1,.6-1.115,5,5,0,0,1,1.006-1.045.237.237,0,0,0,0-.333.242.242,0,0,0-.333,0" transform="translate(-174.735 -368.653)" fill="#5170ad"/>
              <path id="Trazado_732938" data-name="Trazado 732938" d="M160.343,375.336a2.125,2.125,0,0,1,1.641,2.338.242.242,0,0,0,.164.289.237.237,0,0,0,.29-.164,2.6,2.6,0,0,0-1.97-2.917.241.241,0,0,0-.29.164.237.237,0,0,0,.164.29" transform="translate(-157.198 -371.472)" fill="#5170ad"/>
              <rect id="Rect치ngulo_348921" data-name="Rect치ngulo 348921" width="23.621" height="3.166" transform="translate(-1.067 5.237)" fill="#774a1e"/>
            </g>
          </g>
          <g id="Grupo_1014833" data-name="Grupo 1014833">
            <g id="Grupo_1014832" data-name="Grupo 1014832" clip-path="url(#clip-path-2)">
              <path id="Trazado_732940" data-name="Trazado 732940" d="M166.081,371.148a2.5,2.5,0,0,1,2.1,1.748.236.236,0,0,0,.454-.125,2.989,2.989,0,0,0-2.559-2.093.238.238,0,0,0-.235.235.24.24,0,0,0,.235.235" transform="translate(-93.965 -210.017)" fill="#5170ad"/>
              <path id="Trazado_732941" data-name="Trazado 732941" d="M168.545,369.712a2.29,2.29,0,0,1,1.941,1.611.236.236,0,0,0,.454-.125,2.774,2.774,0,0,0-2.4-1.957.237.237,0,0,0-.235.235.24.24,0,0,0,.235.235" transform="translate(-95.361 -209.203)" fill="#5170ad"/>
              <path id="Trazado_732942" data-name="Trazado 732942" d="M171.667,368.156A2.466,2.466,0,0,1,173.627,370c.068.295.522.17.454-.125a2.925,2.925,0,0,0-2.289-2.174.242.242,0,0,0-.29.164.237.237,0,0,0,.164.29" transform="translate(-97.165 -208.329)" fill="#5170ad"/>
              <path id="Trazado_732943" data-name="Trazado 732943" d="M137.5,84.8a9.254,9.254,0,0,1,1.539,3.953.177.177,0,0,0,.217.123.181.181,0,0,0,.124-.217,9.477,9.477,0,0,0-1.575-4.037c-.128-.186-.434-.01-.3.178" transform="translate(-77.887 -47.901)" fill="#b68972"/>
              <path id="Trazado_732944" data-name="Trazado 732944" d="M143.256,85.933a4.15,4.15,0,0,1,2.224-2.5.178.178,0,0,0,.063-.241.18.18,0,0,0-.241-.063,4.492,4.492,0,0,0-2.386,2.707c-.069.217.272.309.34.094" transform="translate(-80.968 -47.089)" fill="#b68972"/>
              <path id="Trazado_732945" data-name="Trazado 732945" d="M141.006,79.657l3.171.868a.177.177,0,0,0,.094-.34l-3.171-.868a.177.177,0,0,0-.094.34" transform="translate(-79.82 -44.935)" fill="#b68972"/>
            </g>
          </g>
        </g>
      </g>
    </g>
  </g>
</svg>
