<svg xmlns="http://www.w3.org/2000/svg" xmlns:xlink="http://www.w3.org/1999/xlink" width="1335" height="598.018" viewBox="0 0 1335 598.018">
  <defs>
    <clipPath id="clip-path">
      <rect id="Rectángulo_348594" data-name="Rectángulo 348594" width="1328" height="598" transform="translate(136 2634)" fill="#005b8b" opacity="0.6"/>
    </clipPath>
    <clipPath id="clip-path-2">
      <rect id="Rectángulo_348593" data-name="Rectángulo 348593" width="896" height="597" transform="translate(-1.36 4.093)" fill="none" stroke="#3c6457" stroke-width="1"/>
    </clipPath>
    <clipPath id="clip-path-3">
      <rect id="Rectángulo_348593-2" data-name="Rectángulo 348593" width="1145" height="763" transform="translate(-0.36 0.093)" fill="none" stroke="#3c6457" stroke-width="1"/>
    </clipPath>
    <clipPath id="clip-path-4">
      <rect id="Rectángulo_348592" data-name="Rectángulo 348592" width="361" height="392" transform="translate(180 2690)" fill="#fff" stroke="#707070" stroke-width="1"/>
    </clipPath>
  </defs>
  <g id="Grupo_1014560" data-name="Grupo 1014560" transform="translate(-150 -2657.982)">
    <g id="Grupo_1013443" data-name="Grupo 1013443" transform="translate(21 27.093)">
      <rect id="Rectángulo_348589" data-name="Rectángulo 348589" width="1328" height="598" transform="translate(136 2630.907)" fill="#ffdeb7" opacity="0.15"/>
      <g id="Enmascarar_grupo_1011302" data-name="Enmascarar grupo 1011302" transform="translate(-7 -3.11)" clip-path="url(#clip-path)">
        <g id="Grupo_1013432" data-name="Grupo 1013432">
          <g id="Grupo_1013430" data-name="Grupo 1013430" transform="translate(540.418 2627.189)" opacity="0.43">
            <g id="Grupo_1013429" data-name="Grupo 1013429" transform="translate(27.942 6.718)" clip-path="url(#clip-path-2)">
              <path id="Trazado_724606" data-name="Trazado 724606" d="M366.061,1.623c11.02,18.491.58,43.172-15.6,57.373-18.666,16.389-43.5,23.862-67.947,28.257s-49.466,6.2-73.249,13.363-46.954,20.7-58.987,42.428c-11.885,21.462-11.267,47.438-9.44,71.9.674,9.02,1.457,18.2-.553,27.02s-7.341,17.391-15.683,20.885-19.63.168-22.869-8.277c-3.967-10.346,7.108-22.171,18.13-21.024s19.237,12.1,19.973,23.161-4.571,21.753-11.659,30.271-15.942,15.352-24,22.957C62.69,349.077,43.618,410.512,55.648,466.265c1.12,5.19.007,13.037.239,18.342s-.9,10.849-4.184,15.022c-3.143,4-7.9,6.351-12.638,8.2A97.844,97.844,0,0,1,.51,514.479" transform="translate(-33.269 -7.707)" fill="none" stroke="#3c6457" stroke-linecap="round" stroke-linejoin="round" stroke-width="1.021" stroke-dasharray="6.128 6.128"/>
              <path id="Trazado_724607" data-name="Trazado 724607" d="M581.316.51c-9.654.561-15.508,12.719-12.2,21.807s12.876,14.61,22.405,16.255,19.275.183,28.922-.488a176.293,176.293,0,0,1,49.868,3.649c13.759,3.013,27.471,7.863,38.3,16.877S727,81.38,725.869,95.422s-12.494,27.381-26.556,28.184c-9.1.518-19.293-5.98-19.071-15.093C680.4,101.9,686.207,96.287,692.7,95s13.29,1.1,18.627,5.016c12.4,9.1,17.491,25.348,18.244,40.707s-2.047,30.7-1.837,46.073,4.041,31.749,15.409,42.106c12.132,11.051,29.822,12.826,44.881,19.345a73.685,73.685,0,0,1,36.658,100.517" transform="translate(76.966 -7.924)" fill="none" stroke="#3c6457" stroke-linecap="round" stroke-linejoin="round" stroke-width="1.021" stroke-dasharray="6.128 6.128"/>
              <path id="Trazado_724609" data-name="Trazado 724609" d="M581.316.51c-9.654.561-15.508,12.719-12.2,21.807s12.876,14.61,22.405,16.255,19.275.183,28.922-.488a176.293,176.293,0,0,1,49.868,3.649c13.759,3.013,27.471,7.863,38.3,16.877S727,81.38,725.869,95.422s-12.494,27.381-26.556,28.184c-9.1.518-19.293-5.98-19.071-15.093C680.4,101.9,686.207,96.287,692.7,95s13.29,1.1,18.627,5.016c12.4,9.1,17.491,25.348,18.244,40.707s-2.047,30.7-1.837,46.073,4.041,31.749,15.409,42.106c12.132,11.051,29.822,12.826,44.881,19.345a73.685,73.685,0,0,1,36.658,100.517" transform="translate(-448.664 542.076)" fill="none" stroke="#3c6457" stroke-linecap="round" stroke-linejoin="round" stroke-width="1.021" stroke-dasharray="6.128 6.128"/>
              <path id="Trazado_724608" data-name="Trazado 724608" d="M443.027,541.254c12.273-3.435,17.078-25.394,17.191-38.137s-2.308-26.252,3.316-37.687c7.208-14.654,25.541-20.626,41.832-19.5s31.64,7.707,47.489,11.642a149.8,149.8,0,0,0,77.8-1.747c24.7-7.243,50.075-15.843,72.216-29.33,5.736-3.493,11.563-7.581,14.361-13.685,10.056-21.931-26.319-23.652-31.676-3.282-2.329,8.857,1.1,18.579,7.344,25.28s14.945,10.681,23.84,12.861c8.758,2.148,18.037,2.762,26.1,6.8,13.039,6.523,20.461,20.879,23.469,35.145A89.781,89.781,0,0,1,753.7,556.545" transform="translate(235.662 110.73)" fill="none" stroke="#3c6457" stroke-linecap="round" stroke-linejoin="round" stroke-width="1.021" stroke-dasharray="6.128 6.128"/>
            </g>
          </g>
          <g id="Grupo_1013431" data-name="Grupo 1013431" transform="translate(-59.582 2593.189)" opacity="0.43">
            <g id="Enmascarar_grupo_1013429" data-name="Enmascarar grupo 1013429" transform="translate(27.942 6.718)" clip-path="url(#clip-path-3)">
              <path id="Trazado_724606-2" data-name="Trazado 724606" d="M366.061,1.623c11.02,18.491.58,43.172-15.6,57.373-18.666,16.389-43.5,23.862-67.947,28.257s-49.466,6.2-73.249,13.363-46.954,20.7-58.987,42.428c-11.885,21.462-11.267,47.438-9.44,71.9.674,9.02,1.457,18.2-.553,27.02s-7.341,17.391-15.683,20.885-19.63.168-22.869-8.277c-3.967-10.346,7.108-22.171,18.13-21.024s19.237,12.1,19.973,23.161-4.571,21.753-11.659,30.271-15.942,15.352-24,22.957C62.69,349.077,43.618,410.512,55.648,466.265c1.12,5.19.007,13.037.239,18.342s-.9,10.849-4.184,15.022c-3.143,4-7.9,6.351-12.638,8.2A97.844,97.844,0,0,1,.51,514.479" transform="translate(-33.269 -7.707)" fill="none" stroke="#3c6457" stroke-linecap="round" stroke-linejoin="round" stroke-width="1.021" stroke-dasharray="6.128 6.128"/>
              <path id="Trazado_724607-2" data-name="Trazado 724607" d="M581.316.51c-9.654.561-15.508,12.719-12.2,21.807s12.876,14.61,22.405,16.255,19.275.183,28.922-.488a176.293,176.293,0,0,1,49.868,3.649c13.759,3.013,27.471,7.863,38.3,16.877S727,81.38,725.869,95.422s-12.494,27.381-26.556,28.184c-9.1.518-19.293-5.98-19.071-15.093C680.4,101.9,686.207,96.287,692.7,95s13.29,1.1,18.627,5.016c12.4,9.1,17.491,25.348,18.244,40.707s-2.047,30.7-1.837,46.073,4.041,31.749,15.409,42.106c12.132,11.051,29.822,12.826,44.881,19.345a73.685,73.685,0,0,1,36.658,100.517" transform="translate(76.966 -7.924)" fill="none" stroke="#3c6457" stroke-linecap="round" stroke-linejoin="round" stroke-width="1.021" stroke-dasharray="6.128 6.128"/>
            </g>
          </g>
        </g>
      </g>
      <g id="Enmascarar_grupo_1011301" data-name="Enmascarar grupo 1011301" transform="translate(0 -3)" opacity="0.53" clip-path="url(#clip-path-4)">
        <g id="Grupo_1013417" data-name="Grupo 1013417" transform="translate(218.99 2685.727)" opacity="0.48">
          <g id="Grupo_1013418" data-name="Grupo 1013418">
            <path id="Trazado_724449" data-name="Trazado 724449" d="M271.61,45.82a.887.887,0,0,0,1.77-.09,12.7,12.7,0,0,1,.66-3.89c.3,1.6.65,3.19.96,4.78a.58.58,0,0,0,.42.63.918.918,0,0,0,1.13-.35,65.268,65.268,0,0,0,4.78-9.62c.29-.83-1.02-1.51-1.54-.81a30.6,30.6,0,0,0-3.63,7.06c-.32-1.66-.67-3.31-.86-4.98a.893.893,0,0,0-1.67-.37,16.288,16.288,0,0,0-2.02,7.64Z" fill="#558273"/>
            <path id="Trazado_724450" data-name="Trazado 724450" d="M251.53,48.04a1.031,1.031,0,0,0,.14.45.917.917,0,0,0,1.05.38,66.3,66.3,0,0,1,7.7-2.33c2.16-.55,5.49-.77,7.26-2.21a.356.356,0,0,0-.11-.64c-2.06-.57-5.03.53-7.05.99a57.628,57.628,0,0,0-8.36,2.45.924.924,0,0,0-.64.92Z" fill="#558273"/>
            <path id="Trazado_724451" data-name="Trazado 724451" d="M248.15,52.95h-.02a46.581,46.581,0,0,1-1.14,9.63c-.34,1.71-.78,3.4-1.26,5.07a16.738,16.738,0,0,0-1.05,3.68.262.262,0,0,0,.4.21c1.34-1.11,2.11-3.27,2.66-5.28-.04.27-.08.53-.12.8a27.958,27.958,0,0,0-.58,4.81.311.311,0,0,0,.58.13c1.38-2.88,1.92-6.32,2.44-9.44.52-3.16,2.04-6.14,2.56-9.27a.927.927,0,0,0-1.39-.98,1.9,1.9,0,0,0-.75,1.23.525.525,0,0,0,.12.51c-.23,1.03-.55,2.05-.88,3.07a30.558,30.558,0,0,0,.23-4.27c-.02-1.21-1.85-1.04-1.81.1Z" fill="#558273"/>
            <path id="Trazado_724452" data-name="Trazado 724452" d="M247.22,79.95a38.331,38.331,0,0,1,6.62,5.57c2.22,2.32,3.87,5.03,5.88,7.5.31.38,1.07.14.85-.39-2.26-5.49-6.94-10.27-11.79-13.65a1.591,1.591,0,0,0-.19-.3.878.878,0,0,0-.97-.35c-.09.02-.18.04-.26.06-.78.19-.7,1.2-.14,1.56Z" fill="#558273"/>
            <path id="Trazado_724453" data-name="Trazado 724453" d="M262.47,102.02a25.972,25.972,0,0,1-.29,3.62c-.29,2.44-.83,4.85-1.16,7.29a.306.306,0,0,0,.52.27c1.79-1.99,2.08-5.65,2.47-8.16.12-.75.99-5.47-1.06-4.8a.5.5,0,0,0-.32.63c-.14-.7-.17.82-.16,1.15Z" fill="#558273"/>
            <path id="Trazado_724454" data-name="Trazado 724454" d="M257.43,110.78c-.11.23.15.52.39.36,3.45-2.44,3.11-8.63,3.78-12.34.21-1.14-1.58-1.52-1.74-.39-.94,4.18-.53,8.41-2.43,12.38Z" fill="#558273"/>
            <path id="Trazado_724455" data-name="Trazado 724455" d="M251.64,127.67c.39,1.56,1.26,3.41,2.85,4.05,1.66.69,3.47-.48,4.14-2.03a.8.8,0,0,0-.12-.76,11.139,11.139,0,0,0,2.35-3.6,7.2,7.2,0,0,0-.17-6.2c-1.1-1.84-3.68-2.25-5.61-1.8-4.25.99-4.28,7.08-3.44,10.34Zm2.82-7.92c1-1.07,2.79-.92,3.98-.3,1.36.69,1.36,2.57,1.18,3.86-.16,1.11-2.96,8.15-4.36,5.03-.12-.26-.54-.13-.43.12a2.4,2.4,0,0,0,1.29,1.48,1.16,1.16,0,0,1-.96.09c-.96-.39-1.39-1.72-1.69-2.62-.74-2.35-.82-5.74.99-7.65Z" fill="#558273"/>
            <path id="Trazado_724456" data-name="Trazado 724456" d="M268.22,93.2a29.7,29.7,0,0,0,4.68-.94,27.978,27.978,0,0,1,3.41-.48,17.225,17.225,0,0,0,2.27.02.355.355,0,0,0,.23-.45c-.46-1.69-4.23-.99-5.37-.84-1.78.23-4.37.38-5.72,1.63-.45.42,0,1.03.49,1.06Z" fill="#558273"/>
            <path id="Trazado_724457" data-name="Trazado 724457" d="M281.23,92.18c-.12.97-.82,2.99-.14,3.85a.71.71,0,0,0,.94.21c.94-.52.82-2.21.93-3.12.15-1.17.3-2.33.47-3.5a28.951,28.951,0,0,1,1.29,2.76c-.12.31-.24.62-.38.93-.14.33.2.73.54.5a4.155,4.155,0,0,0,.32-.27.919.919,0,0,0,1.63.05,30.056,30.056,0,0,0,1.98-7.41.9.9,0,0,0-1.75-.39c-.46,1.41-.91,2.79-1.4,4.16a20.1,20.1,0,0,0-1.94-3.35.93.93,0,0,0-1.68.29c-.37,1.75-.58,3.53-.81,5.3Z" fill="#558273"/>
            <path id="Trazado_724458" data-name="Trazado 724458" d="M291.19,99.2a11.654,11.654,0,0,1,2.84,3.48c.7,1.25,1.09,2.69,1.89,3.87a.59.59,0,0,0,1.08-.34,12.8,12.8,0,0,0-4.61-8.31c-.88-.74-2.1.58-1.21,1.3Z" fill="#558273"/>
            <path id="Trazado_724459" data-name="Trazado 724459" d="M296.89,112.18a.909.909,0,0,0-.2,1.68,3.124,3.124,0,0,1,.88.66c.31,1.12.64,2.24,1.02,3.34a.7.7,0,0,0,1.37-.25,6.868,6.868,0,0,0-.76-3.89c-.01-.05-.03-.1-.04-.16a6.474,6.474,0,0,0,2.6-1.28c.16.93.33,1.86.54,2.78.17.76.45,2.48,1.47,2.56a.251.251,0,0,0,.2-.13c.44-.78-.11-2.33-.23-3.15-.24-1.77-.41-3.54-.72-5.3-.2-1.11-1.85-1.11-1.81.09.07,1.67-1.09,2.33-2.44,2.67a3.721,3.721,0,0,0-.95-1.98.585.585,0,0,0-.92.16,3.01,3.01,0,0,0-.01,2.19Z" fill="#558273"/>
            <path id="Trazado_724460" data-name="Trazado 724460" d="M287.52,80.29a.43.43,0,0,0,.8.18c1.47-3.05,1.76-6.74,2.43-10.03a.9.9,0,0,0-1.76-.39,42.409,42.409,0,0,0-1.46,10.25Z" fill="#558273"/>
            <path id="Trazado_724461" data-name="Trazado 724461" d="M282.11,53.16a45.268,45.268,0,0,1,4.82,5.61c.63.85,1.24,1.72,1.8,2.62a3.24,3.24,0,0,0,.55.89c.15.11.75.55.53.23.11.15.41.19.49-.02.23-.6.48-.77.12-1.48a23.314,23.314,0,0,0-1.99-3.19,37.029,37.029,0,0,0-4.52-5.5,1.144,1.144,0,0,0-.21-.5.863.863,0,0,0-1.17-.26c-.09.05-.18.1-.28.15a.921.921,0,0,0-.13,1.44Z" fill="#558273"/>
            <path id="Trazado_724462" data-name="Trazado 724462" d="M293.9,60.67c3.01.53,6.07-.45,8.93-1.35a.747.747,0,0,0-.27-1.45c-2.3.13-4.45,1.06-6.73,1.1a.337.337,0,0,0-.25-.2,7.874,7.874,0,0,0-1.54.08.925.925,0,0,0-.15,1.82Z" fill="#558273"/>
            <path id="Trazado_724463" data-name="Trazado 724463" d="M294.16,57.42c2.52-.4,5.45-.68,7.79-1.75a.546.546,0,0,0-.19-1.06c-2.5-.16-5.23.57-7.69,1-1.13.2-1.08,2,.09,1.82Z" fill="#558273"/>
            <path id="Trazado_724464" data-name="Trazado 724464" d="M311.3,60.75a8.226,8.226,0,0,0,3.25.26.3.3,0,0,0,.23.14,2.543,2.543,0,0,0,2.36-.94,3.413,3.413,0,0,0,.38-.21c1.68-1,1.53-2.74.43-3.99a11.256,11.256,0,0,0-.42-2.22c-1.06-3.38-5.08-6.33-8.27-3.33-2.82,2.66-1.98,9.09,2.04,10.28Zm.4-9.55c3.06-1.05,5.36,4.18,4.66,7.33a5.154,5.154,0,0,1-5.48-.19C308.79,56.48,308.78,52.19,311.7,51.2Z" fill="#558273"/>
          </g>
          <g id="Grupo_1013419" data-name="Grupo 1013419">
            <path id="Trazado_724465" data-name="Trazado 724465" d="M172.23,298.95a.887.887,0,0,0,1.77-.09,12.7,12.7,0,0,1,.66-3.89c.3,1.6.65,3.19.96,4.78a.58.58,0,0,0,.42.63.918.918,0,0,0,1.13-.35,65.267,65.267,0,0,0,4.78-9.62c.29-.83-1.02-1.51-1.54-.81a30.6,30.6,0,0,0-3.63,7.06c-.32-1.66-.67-3.31-.86-4.98a.893.893,0,0,0-1.67-.37,16.288,16.288,0,0,0-2.02,7.64Z" fill="#558273"/>
            <path id="Trazado_724466" data-name="Trazado 724466" d="M152.14,301.17a1.031,1.031,0,0,0,.14.45.917.917,0,0,0,1.05.38,66.3,66.3,0,0,1,7.7-2.33c2.16-.55,5.49-.77,7.26-2.21a.359.359,0,0,0-.11-.64c-2.06-.57-5.03.53-7.05.99a57.63,57.63,0,0,0-8.36,2.45.924.924,0,0,0-.64.92Z" fill="#558273"/>
            <path id="Trazado_724467" data-name="Trazado 724467" d="M148.76,306.09h-.02a46.581,46.581,0,0,1-1.14,9.63c-.34,1.71-.78,3.4-1.26,5.07a16.738,16.738,0,0,0-1.05,3.68.262.262,0,0,0,.4.21c1.34-1.11,2.11-3.27,2.66-5.28-.04.27-.08.53-.12.8a27.958,27.958,0,0,0-.58,4.81.311.311,0,0,0,.58.13c1.38-2.88,1.92-6.32,2.44-9.44.52-3.16,2.04-6.14,2.56-9.27a.927.927,0,0,0-1.39-.98,1.9,1.9,0,0,0-.75,1.23.525.525,0,0,0,.12.51c-.23,1.03-.55,2.05-.88,3.07a30.558,30.558,0,0,0,.23-4.27c-.02-1.21-1.85-1.04-1.81.1Z" fill="#558273"/>
            <path id="Trazado_724468" data-name="Trazado 724468" d="M147.84,333.09a38.331,38.331,0,0,1,6.62,5.57c2.22,2.32,3.87,5.03,5.88,7.5.31.38,1.07.14.85-.39-2.26-5.49-6.94-10.27-11.79-13.65a1.59,1.59,0,0,0-.19-.3.878.878,0,0,0-.97-.35c-.09.02-.18.04-.26.06-.78.19-.7,1.2-.14,1.56Z" fill="#558273"/>
            <path id="Trazado_724469" data-name="Trazado 724469" d="M163.08,355.15a25.974,25.974,0,0,1-.29,3.62c-.29,2.44-.83,4.85-1.16,7.29a.306.306,0,0,0,.52.27c1.79-1.99,2.08-5.65,2.47-8.16.12-.75.99-5.47-1.06-4.8a.5.5,0,0,0-.32.63C163.1,353.3,163.07,354.82,163.08,355.15Z" fill="#558273"/>
            <path id="Trazado_724470" data-name="Trazado 724470" d="M158.04,363.92c-.11.23.15.52.39.36,3.45-2.44,3.11-8.63,3.78-12.34.21-1.14-1.58-1.52-1.74-.39-.94,4.18-.53,8.41-2.43,12.38Z" fill="#558273"/>
            <path id="Trazado_724471" data-name="Trazado 724471" d="M152.25,380.8c.39,1.56,1.26,3.41,2.85,4.05,1.66.69,3.47-.48,4.14-2.03a.8.8,0,0,0-.12-.76,11.139,11.139,0,0,0,2.35-3.6,7.2,7.2,0,0,0-.17-6.2c-1.1-1.84-3.68-2.25-5.61-1.8-4.25.99-4.28,7.08-3.44,10.34Zm2.82-7.92c1-1.07,2.79-.92,3.98-.3,1.36.69,1.36,2.57,1.18,3.86-.16,1.11-2.96,8.15-4.36,5.03-.12-.26-.54-.13-.43.12a2.4,2.4,0,0,0,1.29,1.48,1.16,1.16,0,0,1-.96.09c-.96-.39-1.39-1.72-1.69-2.62-.74-2.35-.82-5.74.99-7.65Z" fill="#558273"/>
            <path id="Trazado_724472" data-name="Trazado 724472" d="M168.83,346.33a29.7,29.7,0,0,0,4.68-.94,27.974,27.974,0,0,1,3.41-.48,17.226,17.226,0,0,0,2.27.02.355.355,0,0,0,.23-.45c-.46-1.69-4.23-.99-5.37-.84-1.78.23-4.37.38-5.72,1.63-.45.42,0,1.03.49,1.06Z" fill="#558273"/>
            <path id="Trazado_724473" data-name="Trazado 724473" d="M181.84,345.31c-.12.97-.82,2.99-.14,3.85a.71.71,0,0,0,.94.21c.94-.52.82-2.21.93-3.12.15-1.17.3-2.33.47-3.5a28.952,28.952,0,0,1,1.29,2.76c-.12.31-.24.62-.38.93-.14.33.2.73.54.5a4.148,4.148,0,0,0,.32-.27.919.919,0,0,0,1.63.05,30.014,30.014,0,0,0,1.98-7.42.9.9,0,0,0-1.75-.39c-.46,1.41-.91,2.79-1.4,4.16a20.1,20.1,0,0,0-1.94-3.35.93.93,0,0,0-1.68.29c-.37,1.75-.58,3.53-.81,5.3Z" fill="#558273"/>
            <path id="Trazado_724474" data-name="Trazado 724474" d="M191.8,352.34a11.653,11.653,0,0,1,2.84,3.48c.7,1.25,1.09,2.69,1.89,3.87a.589.589,0,0,0,1.08-.34,12.8,12.8,0,0,0-4.61-8.31c-.88-.74-2.1.58-1.21,1.3Z" fill="#558273"/>
            <path id="Trazado_724475" data-name="Trazado 724475" d="M197.5,365.32a.909.909,0,0,0-.2,1.68,3.124,3.124,0,0,1,.88.66c.31,1.12.64,2.24,1.02,3.34a.7.7,0,0,0,1.37-.25,6.869,6.869,0,0,0-.76-3.89.748.748,0,0,1-.04-.16,6.474,6.474,0,0,0,2.6-1.28c.16.93.33,1.86.54,2.78.17.76.45,2.48,1.47,2.56a.251.251,0,0,0,.2-.13c.44-.78-.11-2.33-.23-3.15-.24-1.77-.41-3.54-.72-5.3-.2-1.11-1.85-1.11-1.81.09.07,1.67-1.09,2.33-2.44,2.67a3.721,3.721,0,0,0-.95-1.98.585.585,0,0,0-.92.16,3.01,3.01,0,0,0-.01,2.19Z" fill="#558273"/>
            <path id="Trazado_724476" data-name="Trazado 724476" d="M188.13,333.42a.43.43,0,0,0,.8.18c1.47-3.05,1.76-6.74,2.43-10.03a.9.9,0,0,0-1.76-.39,42.409,42.409,0,0,0-1.46,10.25Z" fill="#558273"/>
            <path id="Trazado_724477" data-name="Trazado 724477" d="M182.72,306.29a45.269,45.269,0,0,1,4.82,5.61c.63.85,1.24,1.72,1.8,2.62a3.24,3.24,0,0,0,.55.89c.15.11.75.55.53.23.11.15.41.19.49-.02.23-.6.48-.77.12-1.48a23.31,23.31,0,0,0-1.99-3.19,37.027,37.027,0,0,0-4.52-5.5,1.143,1.143,0,0,0-.21-.5.863.863,0,0,0-1.17-.26c-.09.05-.18.1-.28.15a.921.921,0,0,0-.13,1.44Z" fill="#558273"/>
            <path id="Trazado_724478" data-name="Trazado 724478" d="M194.51,313.81c3.01.53,6.07-.45,8.93-1.35a.747.747,0,0,0-.27-1.45c-2.3.13-4.45,1.06-6.73,1.1a.337.337,0,0,0-.25-.2,7.876,7.876,0,0,0-1.54.08.925.925,0,0,0-.15,1.82Z" fill="#558273"/>
            <path id="Trazado_724479" data-name="Trazado 724479" d="M194.77,310.56c2.52-.4,5.45-.68,7.79-1.75a.546.546,0,0,0-.19-1.06c-2.5-.16-5.23.57-7.69,1-1.13.2-1.08,2,.09,1.82Z" fill="#558273"/>
            <path id="Trazado_724480" data-name="Trazado 724480" d="M211.91,313.89a8.226,8.226,0,0,0,3.25.26.3.3,0,0,0,.23.14,2.543,2.543,0,0,0,2.36-.94,3.415,3.415,0,0,0,.38-.21c1.68-1,1.53-2.74.43-3.99a11.258,11.258,0,0,0-.42-2.22c-1.06-3.38-5.08-6.33-8.27-3.33-2.82,2.66-1.98,9.09,2.04,10.28Zm.4-9.55c3.06-1.05,5.36,4.18,4.66,7.33a5.154,5.154,0,0,1-5.48-.19c-2.09-1.86-2.1-6.15.82-7.14Z" fill="#558273"/>
          </g>
          <g id="Grupo_1013421" data-name="Grupo 1013421">
            <path id="Trazado_724481" data-name="Trazado 724481" d="M165.43,69.6c-3.19-.68-6.39-1.7-8.68-4.12-2.3-2.39-1.56-4.88.48-6.52v.11c1.97,3.25,7.14,4.83,10.42,2.58,1.27-.89,1.08-2.71.27-3.82a7.492,7.492,0,0,0-5.71-3.05c-4.97-.47-10.14,2.97-9.83,8.21.36,5.54,8.22,9.56,13.09,8.09a.752.752,0,0,0-.04-1.48Zm-6.61-11.7a8.884,8.884,0,0,1,4.43-.74c.9.06,4.57,1.65,3.19,3.04-2.02,2.08-7.01.13-8.61-1.53a.333.333,0,0,0-.18-.08A9.713,9.713,0,0,1,158.82,57.9Z" fill="#558273"/>
            <path id="Trazado_724482" data-name="Trazado 724482" d="M174.86,69.49c-.12-1.69-2.72-2.62-4.12-2.77a.569.569,0,0,0-.37,1.03c.67.44,1.41.77,2.08,1.22a5.623,5.623,0,0,0,1.91,1.06c.32.06.52-.27.5-.54Z" fill="#558273"/>
            <path id="Trazado_724483" data-name="Trazado 724483" d="M172.82,73.15c.18-.92-.77-1.55-1.46-1.98a7.617,7.617,0,0,0-2.55-.86c-.67-.15-1.08.85-.37,1.05a6.733,6.733,0,0,1,2.03,1.12c.65.46,1.08,1.16,1.95,1.12.23-.01.36-.24.4-.44Z" fill="#558273"/>
            <g id="Grupo_1013420" data-name="Grupo 1013420">
              <path id="Trazado_724484" data-name="Trazado 724484" d="M192.96,87.37c.86-1.68.77-3.92,1.29-5.75a11.924,11.924,0,0,0,.52-6.31,1.383,1.383,0,0,0-2.23-.82c-1.29,1.15-2.54,2.34-3.91,3.4-1.83,1.41-1.39-1.93-1.36-3.07.03-1.04.17-2.07.28-3.11.15-1.54-1.68-1.88-2.56-.92-.59.65-1.18,1.29-1.78,1.92.02-.05.05-.09.07-.14.38-.83,1.18-1.91.89-2.88a.547.547,0,0,0-.69-.36v-.02a.592.592,0,0,1-.06.04c-.02,0-.03.02-.05.03-.89.41-1.35,1.53-1.9,2.25a22.573,22.573,0,0,0-3.56,7.47,1.389,1.389,0,0,0,2.44,1.25,46.222,46.222,0,0,1,4.07-4.85c-.04,2.17.36,4.3,2.18,5.54,1.46.99,3.48-.43,5.17-1.97-.8,3.33-2.3,7.5.45,8.66a.6.6,0,0,0,.76-.36Z" fill="#558273"/>
              <path id="Trazado_724485" data-name="Trazado 724485" d="M208.96,91.59a18.593,18.593,0,0,1-7.54-4.86c-1.48-1.76-.42-3.47,1.79-3.38,2.09.08,4.02,1.27,5.81,2.2a.272.272,0,0,0,.36-.4c-2.35-3.56-11.82-6.99-11.68.1.09,4.41,7.12,9.39,11.3,7.4a.57.57,0,0,0-.05-1.05Z" fill="#558273"/>
              <path id="Trazado_724486" data-name="Trazado 724486" d="M220.76,90.13c-1.06-.87-2.51-1.35-3.5-2.32,1.37-1.26,2.76-2.85,2.42-4.73-.46-2.56-4.36-2.92-6.33-3.06-1.29-.09-1.82,1.92-.5,2.27.99.26,1.88.73,2.83,1.08a.39.39,0,0,0,.53-.33,2.669,2.669,0,0,1,.92.6c.44.46-2.31,2.71-2.58,2.94a1.361,1.361,0,0,0-.37,1.61,6.2,6.2,0,0,0,6.35,2.98.584.584,0,0,0,.23-1.05Z" fill="#558273"/>
              <path id="Trazado_724487" data-name="Trazado 724487" d="M225.54,94.54a.721.721,0,0,0,.04-.07.853.853,0,0,0,.01-.39.367.367,0,0,0-.25-.3c-.77-.19-1.13.53-.93,1.18.22.71,1.38.22,1.13-.43Z" fill="#558273"/>
            </g>
          </g>
          <g id="Grupo_1013422" data-name="Grupo 1013422">
            <path id="Trazado_724488" data-name="Trazado 724488" d="M470.27,46.64c-3.06,1.14-6.3,1.98-9.54,1.17-3.22-.79-3.93-3.29-3.09-5.77a.236.236,0,0,0,.06.09c3.4,1.69,8.62.25,10.18-3.4.59-1.43-.54-2.87-1.82-3.37a7.5,7.5,0,0,0-6.46.48c-4.45,2.27-6.98,7.94-3.9,12.2,3.27,4.48,12.06,3.67,15.39-.18a.754.754,0,0,0-.83-1.23ZM458.43,40.3a8.968,8.968,0,0,1,3.34-2.99c.79-.43,4.74-1.05,4.33.86-.6,2.84-5.85,3.86-8.09,3.32a.3.3,0,0,0-.2.03,9.867,9.867,0,0,1,.62-1.21Z" fill="#558273"/>
            <path id="Trazado_724489" data-name="Trazado 724489" d="M478.19,41.49c-1.01-1.36-3.7-.76-4.96-.13a.571.571,0,0,0,.24,1.07c.8.01,1.6-.11,2.41-.08a5.5,5.5,0,0,0,2.18-.13.478.478,0,0,0,.13-.73Z" fill="#558273"/>
            <path id="Trazado_724490" data-name="Trazado 724490" d="M478.41,45.67c-.34-.88-1.48-.89-2.29-.89a7.412,7.412,0,0,0-2.61.64c-.65.23-.46,1.29.25,1.08a6.4,6.4,0,0,1,2.31-.14c.8.04,1.53.41,2.25-.1a.486.486,0,0,0,.1-.58Z" fill="#558273"/>
            <path id="Trazado_724491" data-name="Trazado 724491" d="M500,38.44a8.577,8.577,0,0,0-1.89-2.7,1.385,1.385,0,0,0-2.32.5c-.48,1.66-.89,3.34-1.48,4.96-.79,2.17-2.2-.88-2.79-1.87-.53-.89-.96-1.84-1.43-2.77-.7-1.38-2.43-.69-2.65.59q-.225,1.29-.48,2.58a1,1,0,0,0-.02-.16c-.12-.91-.02-2.24-.79-2.91a.55.55,0,0,0-.78.07h0a.146.146,0,0,1-.03.05.219.219,0,0,0-.03.05c-.53.82-.32,2.01-.4,2.92a22.183,22.183,0,0,0,1,8.21,1.383,1.383,0,0,0,2.72-.25,47.365,47.365,0,0,1,.84-6.28c1.13,1.85,2.61,3.44,4.81,3.51,1.76.05,2.71-2.23,3.31-4.43.69,2.02,1.33,4.46,2.42,5.9v-8Z" fill="#558273"/>
          </g>
          <g id="Grupo_1013423" data-name="Grupo 1013423">
            <path id="Trazado_724492" data-name="Trazado 724492" d="M71.86,307.69c.1-.31.22-.4.55-.37.43.03.49.64.18.86S71.72,308.11,71.86,307.69Z" fill="#558273"/>
            <path id="Trazado_724493" data-name="Trazado 724493" d="M67.96,307.07c.71.05,1.39.27,2.1.3.61.03.71.94.06.98a3.556,3.556,0,0,1-2.5-.59c-.34-.27-.03-.72.34-.69Z" fill="#558273"/>
            <path id="Trazado_724494" data-name="Trazado 724494" d="M97.5,284.77c2.81-.16,4.47-2.93,4.87-5.47.5-3.08-.79-5.35-2.76-7.55-.18-.19-.51,0-.52.22-1.73.72-2.24,3.91-2.47,5.47-.29,1.94-.89,4.88.04,6.75a.893.893,0,0,0,.85.57Zm.65-7.03c.24-1.51.33-3.61,1.3-4.91a9.47,9.47,0,0,1,1.33,5.71c-.3,1.75-1.05,3.83-2.87,4.42-.48-1.47.04-3.96.23-5.22Z" fill="#558273"/>
            <path id="Trazado_724495" data-name="Trazado 724495" d="M85,338.61a2.256,2.256,0,0,0,.33-.04c7.13-1.87,13.28-5.95,19.51-9.74,6.3-3.85,12.83-7.38,18.1-12.63.04-.05-.03-.13-.08-.08-6.11,4.18-12.74,7.38-19.19,11.01a120.056,120.056,0,0,1-18.47,8.96c.35-4.07,2.67-7.85,5.02-11.11,2.9-4.05,6.12-8.09,10.32-10.86a70.391,70.391,0,0,1,9.93-5.27,88.273,88.273,0,0,1,8.43-3.79,52.571,52.571,0,0,1,7.79-1.63,15.491,15.491,0,0,1,6.43-.07c-.21.38-.39.77-.64,1.2-.55.84-1.19,1.59-1.76,2.41-.73,1.09-1.82,2.3-1.82,3.67a.189.189,0,0,0,.3.13,11.707,11.707,0,0,0,1.9-2.06c.04-.03.05-.07.09-.1l2.66-6.04s-.05,0-.05.02c-.08.08-.14.12-.21.18a11.033,11.033,0,0,0-5.71-.6,62.935,62.935,0,0,0-7.86,1.08,67.784,67.784,0,0,0-10.95,4.17c-1.03.45-2.06.91-3.06,1.39a2.335,2.335,0,0,0-.35-1.1,5.413,5.413,0,0,0-.36-.61,1.74,1.74,0,0,0-.11-.25,9.3,9.3,0,0,0-1.53-2.18,2.394,2.394,0,0,0-2.68-.64,2.968,2.968,0,0,0-.77-1.42,5.2,5.2,0,0,0-.66-.8,1.1,1.1,0,0,0-.17-.12c.68-.47,1.36-.95,2.04-1.46,4.73-3.6,9.16-7.71,12.3-12.8a45.493,45.493,0,0,0,5.95-16.38,50.012,50.012,0,0,0-4.07-30.15,51.087,51.087,0,0,0-20.19-21.99,48.384,48.384,0,0,0-16-6.05c-6.04-1.02-12.13-.8-18.23-.77a.8.8,0,0,0-.15.03l-.13-.33a1.056,1.056,0,0,0,.04-.7.6.6,0,0,0-.61-.4,5.019,5.019,0,0,0-2.22.66.736.736,0,0,0-.27.82c.44,2.22.65,4.44,1,6.66a46.649,46.649,0,0,0-7.56,3.21c-5.67,2.85-10.95,6.01-15.28,10.75a44.8,44.8,0,0,0-5.75,7.98,66.941,66.941,0,0,0-4.14,7.97,54.842,54.842,0,0,0-4,17.68c-.43,11.35,4.94,22.2,13.37,29.68,7.88,6.99,19.29,12.61,30.05,12.07a.356.356,0,0,0,.04-.7c-5.44-1.05-10.8-1.9-15.93-4.11l-.66-.29a8.342,8.342,0,0,0,.8.26c.13.06.18-.15.04-.2-5.07-1.6-7.6-7.23-8.58-12.1a2.075,2.075,0,0,0,2.2-1.89c.2-1.89-1.58-3.7-.62-5.48a.861.861,0,0,0-.21-1.06,31.969,31.969,0,0,1-4.25-3.42c-1.81-1.81-1-2.73-1.26-4.73a4.294,4.294,0,0,0-2.97-3.71c-2.08-.58-4.44,1.32-5.93-.97-1.43-2.22-2.07-4.75-4.04-6.58a.27.27,0,0,0-.42.09c1.19-10.84,5.53-21.97,13.31-29.6,4.31-4.19,9.32-7.1,14.64-9.8a41.854,41.854,0,0,1,9.87-3.7h.02a14.349,14.349,0,0,0-5.25,3.72c-1.39,1.79-.69,4.01-3.08,5-1.36.59-2.83,1.18-3.24,2.73-.38,1.47,1.14,2.61,2.38,2.82,1.71.3,4.09.5,5.72-.24,2.45-1.12,3.69-3.5,5.88-4.94a4.329,4.329,0,0,1,4.99,0,3.807,3.807,0,0,0,2.24.58,4.458,4.458,0,0,0,2.31-.92c.65-.46,1.99-1.73,2.81-.99-2.05.98-3.85,2.82-1.68,4.83a.712.712,0,0,0,1-.08c.27-.26,1.97-.59,2.12.08.21.81-3.13,1.81-3.64,1.95a33.49,33.49,0,0,1-6.52,1.31,21.556,21.556,0,0,1-5.54-.62c-2.18-.4-4.77-.84-6.88.16a13.1,13.1,0,0,0-5.06,4.6c-2.55,3.8-5.36,9.23-4.38,13.99.82,3.95,4.64,8.75,9.03,8.73a18.011,18.011,0,0,0,5.96-1.44c2.09-.72,5.15-1.64,6.19,1.08,1,2.62,1.64,5.15,3.05,7.61a17.908,17.908,0,0,1,2.72,8.87c.16,4.49.33,10.43,5.23,12.56,3.29,1.45,6.1-.75,7.75-3.58,1.2-2.07,1.65-4.3,2.41-6.55a17.5,17.5,0,0,1,2.32-3.24,28.5,28.5,0,0,0,4.5-5.54c1.29-2.37,1.01-4.34,0-6.75-.66-1.57-1.56-3.54-.77-5.25a16.309,16.309,0,0,1,1.81-2.84c1.01-1.33,2.19-2.99,1.96-4.75-.2-1.53-1.07-3.64-2.62-4.31-1.6-.7-2.91.34-4.5.08-1.66-.26-1.84-1.95-2.41-3.26a5.421,5.421,0,0,0-1.64-1.98c-1.31-1.1-3.71-2.44-3.71-4.37.02-2.71,3.65.73,4.02,1.37,1.41,2.35,1.75,4.7,4.49,5.82,3.79,1.53,6.72-1.96,6.38-5.52-.18-1.9-1.32-3.07-2.6-4.2a2.377,2.377,0,0,0,.45.15c5.02,1.87,10.6,4.84,12.66,10.01a.351.351,0,0,0,.24.17,55.073,55.073,0,0,1,2.94,9.76c2.19,11,1.2,22.44-6.06,31.44-7.91,9.77-19.49,14.87-31.3,18.23-.93.27-.44,1.67.47,1.42l.93-.27a15.79,15.79,0,0,0-.27,3.07,38.274,38.274,0,0,0-.11,5.86c-.03.37.37.64.71.63a14.114,14.114,0,0,0,3.34-.44.674.674,0,0,0,.46-.69c-.11-.88-.25-1.77-.4-2.67a3.761,3.761,0,0,0,.47-1.01c4.07-2.16,8.2-4.09,12.21-6.26.16.36.33.73.49,1.07a3.409,3.409,0,0,0,.76,1.19.124.124,0,0,0,.14.04.756.756,0,0,1-.4.65.3.3,0,0,0,.35.49.155.155,0,0,0,.08-.08,2.363,2.363,0,0,0-.15,1.77c.48,1.56,1.92,2.73,2.19,4.35l.03.04a46.989,46.989,0,0,0-7.64,9.35c-2.39,3.8-5.1,8.74-4.12,13.41.13.57.85.56,1.21.22ZM25.77,267.79a14.794,14.794,0,0,0,1.7,3.28,4.416,4.416,0,0,0,4.05,1.71c1.46-.17,2.87-.31,3.79,1.18a11.192,11.192,0,0,1,1.31,3.36c.64,2.73,2.89,3.85,4.32,5.94a5.091,5.091,0,0,0-.56,3.05,12.475,12.475,0,0,0,.4,1.79c.07.3.07.41.09.45a4.665,4.665,0,0,1-.91-.08,1.267,1.267,0,0,0-1.41,1.62,21.66,21.66,0,0,0,4.41,9.01,10.648,10.648,0,0,0,2.45,2.24,43.74,43.74,0,0,1-9.05-6.32c-7.99-7.31-13.52-17.66-12.9-28.71.05-.94.13-1.88.24-2.84.58,1.49,1.44,2.81,2.06,4.3Zm73.55,35.44a6.2,6.2,0,0,0,.69,1.25,4.458,4.458,0,0,0-1.08.31.469.469,0,0,0-.27-.05,7.233,7.233,0,0,0-1.82.5,2.216,2.216,0,0,0-.36.16c.85-.81,1.66-1.67,2.49-2.5a.259.259,0,0,0,.07-.11c.09.15.19.29.28.44Zm-4.78,1.69a.459.459,0,0,0-.07-.14c.49-.3.98-.6,1.47-.88a1.734,1.734,0,0,1-.25.21c-.35.29-.76.54-1.15.82Zm-1.22-67.47c1.32,1.08,2.72,2.18,2.72,4.07-.01,1.21-.49,2.79-1.81,3.15-3.91,1.09-4.67-3.47-6.92-5.29-.89-.73-2.93-2.68-4.3-2.03-1.29.63-1.07,2.13-.63,3.32.91,2.53,4.41,3.15,5.25,5.79.45,1.43,1.07,3.64,2.89,3.9,2.09.31,3.95-1.32,5.27,1.13,1.42,2.6-.05,4.72-1.48,6.89a8.4,8.4,0,0,0-1.48,5.91c.37,2.88,1.72,5.29-.05,8.02-.03,0-.04.05-.06.09a35.164,35.164,0,0,0-3.75,4.86c-.34.48-.68.94-1,1.45a13.582,13.582,0,0,0-1.14,2.33c-.13.24-.26.49-.37.74-1.15,2.41-2.08,5.69-4.32,7.37-2.2,1.64-4.43.27-5.73-1.89-1.52-2.56-1.36-5.49-1.49-8.36a16.355,16.355,0,0,0-2.25-7.79,46.854,46.854,0,0,1-3.94-7.89c-.6-1.75-1.3-3.38-3.27-3.84a8.48,8.48,0,0,0-4.74.52c-2.11.76-4.57,1.97-6.83,1.4-2.96-.76-4.97-3.76-5.73-6.58-.79-3,.32-6.24,1.56-8.97,1.15-2.46,2.6-5.35,4.8-7.03,2.7-2.07,4.95-1.1,8.01-1.22,2.76-.11,5.49.13,8.27-.11,2.41-.22,10.71-.66,9.4-5.18-.75-2.62-3.4-2.28-5.06-.95-.69-1.18,1.62-2.14,2.31-2.44.28-.12.55-.48.39-.79-1.88-3.84-4.24.81-6.7.83s-3.56-2.37-6.13-1.93c-1.87.32-3.36,1.92-4.59,3.19-1.94,2.02-3.57,2.9-6.38,2.76a4.627,4.627,0,0,1-1.94-.34c-1.11-.65.63-1.49.89-1.61.64-.28,1.27-.54,1.87-.84,1.43-.7,1.87-2.16,2.18-3.62.61-2.81,3.74-4.06,6.07-5.22a.821.821,0,0,0,.4-1.21c-.05-.04-.06-.12-.11-.16a23.77,23.77,0,0,1,2.43-.26c10.13-.12,21.19,1.33,29.12,8.07a48.843,48.843,0,0,1,10.76,13.17,5.275,5.275,0,0,0-.58-.48,39.438,39.438,0,0,0-6.29-3.42c-1.58-.8-3.08-1.78-4.72-2.48-.75-.33-2.05-.79-2.55.23-.51,1.05,1.11,2.22,1.76,2.75Zm-12.95,72.6a7.033,7.033,0,0,0-.26-2.83,3.94,3.94,0,0,0-.44-.84c10.7-3.6,21.19-9.34,27.76-18.71,6.54-9.36,7.73-20.24,5.4-31.28-2.47-11.59-8.51-23.64-18.22-30.81-7.3-5.41-17.62-7.82-26.89-7a.464.464,0,0,0-.34-.24c-.22-.05-.45-.11-.67-.16a14.13,14.13,0,0,0-4.05-.14,32.786,32.786,0,0,1-.92-3.26c-.07-.3-.14-.6-.2-.92,2.72-.02,5.45-.1,8.18-.06,12.27.14,23.91,4.2,33.05,12.56a48.234,48.234,0,0,1,15.25,27.92c1.79,11.41-.1,24.59-7.07,34.05a58.637,58.637,0,0,1-14.38,13.14c-5.06,3.44-11.02,5.39-16.19,8.58Zm12.34-3.87a2.6,2.6,0,0,1-.19-.33c.2-.09.38-.19.56-.29a15.58,15.58,0,0,0,.61,1.68,2.643,2.643,0,0,0-.97-1.06Zm3.12-.2a.582.582,0,0,0-.05.16v.11a4.025,4.025,0,0,0-.57.33c-.01-.03-.02-.05-.03-.08A5.92,5.92,0,0,0,95.83,305.98Zm-1.81,1.97c.07.1.1.22.17.32a.489.489,0,0,0,.16.16c-.11.09-.19.18-.3.27A1.031,1.031,0,0,0,94.02,307.95Zm.91,4.22a3.342,3.342,0,0,1-.7-1.72c.02-.91.84-1.45,1.49-1.97a.347.347,0,0,0,.13-.3,28.8,28.8,0,0,1,2.85-1.53,5.738,5.738,0,0,0,1.64-1.07c1.2-.53,2.41-.74,3.33.5.14.2.3.4.45.6a.217.217,0,0,0,.02.12,4.317,4.317,0,0,0,.52,1.11c-.04.05-.08.12-.02.19s.14.15.21.23a3.544,3.544,0,0,0,.36.88,46.318,46.318,0,0,0-5.78,3.29,32.531,32.531,0,0,0-3.02,2.38,13.75,13.75,0,0,0-1.49-2.7Z" fill="#558273"/>
            <path id="Trazado_724496" data-name="Trazado 724496" d="M126.94,312.58a7.274,7.274,0,0,0,.68-.68c.06-.09.21,0,.16.11a1.339,1.339,0,0,1-.76.68A.07.07,0,0,1,126.94,312.58Z" fill="#558273"/>
            <path id="Trazado_724497" data-name="Trazado 724497" d="M124.33,314.71a2.81,2.81,0,0,1,1.19-1.15.216.216,0,0,1,.24.36c-.21.15-.42.31-.62.48s-.45.28-.65.44a.1.1,0,0,1-.15-.13Z" fill="#558273"/>
            <path id="Trazado_724498" data-name="Trazado 724498" d="M89.48,331.83a1.656,1.656,0,0,0,.06-.21.06.06,0,0,1,.1-.03.712.712,0,0,1,.16-.61.432.432,0,0,1,.07-.65.447.447,0,0,1,.5.74c-.02.02-.04.01-.06.02a.258.258,0,0,1-.11.28c-.04.03-.04.13-.05.17a.776.776,0,0,1-.09.33.169.169,0,0,1-.29.02.614.614,0,0,1-.11-.23,1.5,1.5,0,0,1-.02.2C89.64,331.96,89.45,331.93,89.48,331.83Z" fill="#558273"/>
            <path id="Trazado_724499" data-name="Trazado 724499" d="M124.25,309.14a2.667,2.667,0,0,0,1.14-1.09c.22-.38.24-.85.51-1.19a.171.171,0,0,1,.29.05c.22.47-.11,1.02-.38,1.4a3.527,3.527,0,0,1-1.42,1.09c-.16.08-.3-.19-.14-.27Z" fill="#558273"/>
            <path id="Trazado_724500" data-name="Trazado 724500" d="M124.72,306c.08-.21.33-.22.52-.19.26.04.18.46-.08.41-.11-.02-.22.02-.34-.01a.153.153,0,0,1-.1-.2Z" fill="#558273"/>
            <path id="Trazado_724501" data-name="Trazado 724501" d="M95.31,326.86c-.82-4.79,4.91-8.41,8.22-10.73,5.85-4.09,11.63-8.37,18.71-10.01.18-.05.28.24.09.28-6.64,1.52-11.89,5.39-17.39,9.16-3.54,2.42-9.83,6.23-9.19,11.28.03.29-.4.31-.45.03Z" fill="#558273"/>
            <path id="Trazado_724502" data-name="Trazado 724502" d="M108.65,319.98a17.048,17.048,0,0,1,2.28-1.19c.09-.04.19.1.12.17a17.149,17.149,0,0,1-2.13,1.42c-.25.17-.52-.23-.27-.39Z" fill="#558273"/>
            <path id="Trazado_724503" data-name="Trazado 724503" d="M80.8,274.47c-.11-1.55-.78-2.98-.93-4.52,0-.11.16-.15.19-.04a19.68,19.68,0,0,1,.98,4.54.121.121,0,0,1-.24.02Z" fill="#558273"/>
            <path id="Trazado_724504" data-name="Trazado 724504" d="M73.06,258.51a4.408,4.408,0,0,1,2.57,1.16c.1.11-.04.27-.15.18a5.241,5.241,0,0,0-2.45-1.18.077.077,0,0,1,.03-.15Z" fill="#558273"/>
            <path id="Trazado_724505" data-name="Trazado 724505" d="M61.79,247.2c4.25-1.83,8.56-2.7,13.03-1.05,4.73,1.76,8.05,6.88,10.43,11.05a.126.126,0,0,1-.21.14c-3.01-3.83-5.3-7.98-9.73-10.41-4.03-2.22-9.38-.93-13.38.72-.28.12-.43-.33-.15-.45Z" fill="#558273"/>
            <path id="Trazado_724506" data-name="Trazado 724506" d="M80.87,259.97a.147.147,0,0,1,.22-.19,4.172,4.172,0,0,0,1.38.73,1.883,1.883,0,0,0,1.7-.64c.14-.14.37.05.23.19-.95.99-2.76,1.34-3.52-.08Z" fill="#558273"/>
            <path id="Trazado_724507" data-name="Trazado 724507" d="M55.23,252.79a1.672,1.672,0,0,1,.8-1.56.273.273,0,0,1,.31.45,3.227,3.227,0,0,0-.87,1.16A.128.128,0,0,1,55.23,252.79Z" fill="#558273"/>
            <path id="Trazado_724508" data-name="Trazado 724508" d="M43.92,262.24a.375.375,0,0,1,.62-.42,1.268,1.268,0,0,1,.33.94.351.351,0,0,1-.63.13c-.12-.21-.19-.43-.32-.64Z" fill="#558273"/>
            <path id="Trazado_724509" data-name="Trazado 724509" d="M45.74,265.09a8.069,8.069,0,0,0,.8.48c.09.04.06.19-.04.18a2.277,2.277,0,0,1-.93-.31c-.22-.12-.04-.47.17-.35Z" fill="#558273"/>
            <path id="Trazado_724510" data-name="Trazado 724510" d="M47.98,266.91a2.267,2.267,0,0,1,.86,1c.02.04-.05.09-.08.05-.29-.3-.46-.71-.83-.95-.06-.04-.02-.15.05-.11Z" fill="#558273"/>
            <path id="Trazado_724511" data-name="Trazado 724511" d="M50.38,273.67a.174.174,0,0,1,.33-.11c1.4,4.29,1.76,8.8,3.24,13.07.06.14-.16.26-.23.12-2.04-4.07-2.1-8.76-3.35-13.07Z" fill="#558273"/>
            <path id="Trazado_724512" data-name="Trazado 724512" d="M60.73,296.43c.07.02.14.04.22.06a.1.1,0,0,1-.04.19l-.22-.03C60.55,296.64,60.59,296.4,60.73,296.43Z" fill="#558273"/>
            <path id="Trazado_724513" data-name="Trazado 724513" d="M73.37,300.22a27.448,27.448,0,0,0,5.06-1.8c.07-.03.12.08.06.12a15.828,15.828,0,0,1-5.03,1.96C73.28,300.55,73.18,300.26,73.37,300.22Z" fill="#558273"/>
            <path id="Trazado_724514" data-name="Trazado 724514" d="M102.4,266.39c0-2.1-.77-4.14-.73-6.24a.13.13,0,0,1,.25-.05,19.1,19.1,0,0,1,1.21,6.24c-.02.47-.72.52-.72.05Z" fill="#558273"/>
            <path id="Trazado_724515" data-name="Trazado 724515" d="M101.12,255.68a1.72,1.72,0,0,1,.97-1.41,1.322,1.322,0,0,1,1.57.93.225.225,0,0,1-.21.24c-.43,0-.74-.29-1.14-.41-.55-.16-.73.22-.86.71a.163.163,0,0,1-.32-.06Z" fill="#558273"/>
          </g>
          <g id="Grupo_1013424" data-name="Grupo 1013424">
            <path id="Trazado_724516" data-name="Trazado 724516" d="M393.3,351.07a.437.437,0,0,1,.29.6c-.09.42-.71.4-.87.05C392.55,351.39,392.91,350.87,393.3,351.07Z" fill="#558273"/>
            <path id="Trazado_724517" data-name="Trazado 724517" d="M394.47,347.29c-.15.69-.46,1.34-.59,2.04-.12.6-1.03.57-.98-.08a3.611,3.611,0,0,1,.93-2.39C394.14,346.56,394.55,346.94,394.47,347.29Z" fill="#558273"/>
            <path id="Trazado_724518" data-name="Trazado 724518" d="M412.4,379.67c-.24,2.8,2.27,4.84,4.73,5.59,2.98.93,5.41-.03,7.86-1.68a.321.321,0,0,0-.14-.55c-.47-1.82-3.56-2.76-5.07-3.22-1.88-.56-4.71-1.57-6.69-.91a.92.92,0,0,0-.69.76Zm6.87,1.63c1.46.45,3.52.83,4.67,1.98-1.89.62-3.9,1.14-5.84.52-1.69-.54-3.64-1.58-3.97-3.46,1.52-.27,3.92.59,5.14.96Z" fill="#558273"/>
            <path id="Trazado_724519" data-name="Trazado 724519" d="M360.84,359.73c0,.09-.01.21-.01.33.85,7.32,4.02,13.98,6.9,20.68,2.93,6.78,5.5,13.74,9.96,19.7.04.05.13-.02.09-.07-3.28-6.63-5.51-13.65-8.2-20.54a121.616,121.616,0,0,1-6.28-19.55c3.98.92,7.4,3.74,10.29,6.53,3.6,3.44,7.15,7.19,9.3,11.75a69.432,69.432,0,0,1,3.82,10.57,89.074,89.074,0,0,1,2.57,8.88,52.6,52.6,0,0,1,.52,7.94,15.45,15.45,0,0,1-.84,6.38c-.34-.26-.71-.49-1.1-.8-.75-.66-1.4-1.4-2.14-2.08-.98-.88-2.02-2.12-3.38-2.31a.192.192,0,0,0-.17.28,10.991,10.991,0,0,0,1.78,2.17c.02.04.06.06.08.1l5.61,3.48s0-.05-.01-.06a1.577,1.577,0,0,1-.14-.23,11.11,11.11,0,0,0,1.4-5.57,61.88,61.88,0,0,0,.04-7.94,68.1,68.1,0,0,0-2.59-11.42c-.3-1.08-.61-2.17-.95-3.23a2.22,2.22,0,0,0,1.13-.19,5.241,5.241,0,0,0,.65-.27,1.527,1.527,0,0,0,.26-.08,9.14,9.14,0,0,0,2.37-1.21,2.4,2.4,0,0,0,1.01-2.57,3.1,3.1,0,0,0,1.51-.56,5.7,5.7,0,0,0,.89-.54.924.924,0,0,0,.14-.15c.37.73.75,1.48,1.16,2.22,2.9,5.19,6.35,10.15,10.95,13.97a45.484,45.484,0,0,0,15.38,8.19,49.994,49.994,0,0,0,30.42.2,51.139,51.139,0,0,0,24.61-16.9,48.381,48.381,0,0,0,8.24-14.99c1.86-5.84,2.5-11.9,3.32-17.94v-.15l.34-.08a1.123,1.123,0,0,0,.69.14.594.594,0,0,0,.48-.55,4.984,4.984,0,0,0-.34-2.29.745.745,0,0,0-.78-.39c-2.25.12-4.49.02-6.74.05a47.3,47.3,0,0,0-2.11-7.94c-2.02-6.02-4.41-11.68-8.5-16.64a44.872,44.872,0,0,0-7.09-6.82,65.159,65.159,0,0,0-7.31-5.21,54.994,54.994,0,0,0-16.95-6.45c-11.18-2.02-22.68,1.77-31.27,9.07-8.03,6.82-15.2,17.32-16.18,28.06a.358.358,0,0,0,.69.14c1.8-5.24,3.39-10.42,6.31-15.19l.38-.61c-.12.24-.26.49-.37.76-.08.12.12.19.2.07,2.3-4.79,8.22-6.51,13.19-6.79a2.075,2.075,0,0,0,1.56,2.44c1.84.46,3.89-1.05,5.52.16a.873.873,0,0,0,1.08-.06,32.485,32.485,0,0,1,3.98-3.72c2.04-1.54,2.84-.61,4.86-.59a4.289,4.289,0,0,0,4.09-2.42c.86-1.98-.69-4.59,1.79-5.73,2.4-1.1,4.99-1.38,7.09-3.08a.273.273,0,0,0-.03-.43c10.56,2.7,20.98,8.56,27.44,17.34,3.54,4.86,5.72,10.23,7.64,15.87a42.046,42.046,0,0,1,2.28,10.29v.02a14.407,14.407,0,0,0-2.95-5.72c-1.58-1.63-3.87-1.24-4.52-3.75-.4-1.43-.77-2.97-2.25-3.59-1.4-.58-2.75.76-3.12,1.96-.54,1.65-1.07,3.98-.56,5.7.77,2.58,2.94,4.15,4.06,6.51a4.364,4.364,0,0,1-.69,4.94,3.814,3.814,0,0,0-.89,2.13,4.565,4.565,0,0,0,.58,2.42c.36.71,1.43,2.22.58,2.92-.69-2.17-2.25-4.2-4.55-2.34a.709.709,0,0,0-.06,1c.22.31.31,2.03-.38,2.09-.83.09-1.35-3.35-1.42-3.88a34.246,34.246,0,0,1-.38-6.64,21.889,21.889,0,0,1,1.39-5.4c.7-2.1,1.5-4.61.8-6.83a13.053,13.053,0,0,0-3.85-5.65c-3.4-3.05-8.38-6.6-13.24-6.3-4.03.26-9.32,3.36-9.91,7.71a18.157,18.157,0,0,0,.59,6.1c.42,2.17.9,5.33-1.94,5.98-2.74.62-5.33.9-7.96,1.95a17.973,17.973,0,0,1-9.17,1.45c-4.47-.48-10.37-1.14-13.17,3.41-1.9,3.06-.11,6.15,2.45,8.17,1.88,1.48,4.03,2.23,6.15,3.31a18.306,18.306,0,0,1,2.89,2.76,28.716,28.716,0,0,0,4.85,5.24c2.17,1.61,4.15,1.61,6.69.96,1.65-.43,3.72-1.05,5.31-.02a16.346,16.346,0,0,1,2.56,2.19c1.17,1.19,2.65,2.59,4.43,2.61,1.54.01,3.75-.55,4.64-1.98.92-1.48.08-2.93.55-4.47.49-1.61,2.19-1.54,3.57-1.92a5.415,5.415,0,0,0,2.19-1.35c1.27-1.15,2.94-3.33,4.85-3.06,2.68.4-1.24,3.51-1.92,3.79-2.53,1.07-4.9,1.07-6.39,3.63-2.05,3.54,1,6.93,4.57,7.09,1.9.09,3.23-.87,4.52-1.98a3.357,3.357,0,0,0-.22.42c-2.55,4.7-6.28,9.82-11.69,11.13a.322.322,0,0,0-.2.21,55.736,55.736,0,0,1-10.07,1.54c-11.2.62-22.39-1.97-30.28-10.42-8.56-9.21-11.98-21.39-13.65-33.55-.13-.95-1.59-.67-1.47.27.04.32.09.64.13.95a16.335,16.335,0,0,0-3-.7,37.075,37.075,0,0,0-5.78-.93c-.36-.08-.68.28-.72.62a13.565,13.565,0,0,0-.03,3.37.671.671,0,0,0,.62.55c.88.02,1.79,0,2.7-.02a3.813,3.813,0,0,0,.93.6c1.57,4.33,2.9,8.69,4.48,12.97-.38.1-.77.23-1.13.34a3.465,3.465,0,0,0-1.28.58.129.129,0,0,0-.06.13.752.752,0,0,1-.59-.49.3.3,0,0,0-.53.27.121.121,0,0,0,.07.09,2.4,2.4,0,0,0-1.74-.4c-1.61.26-2.97,1.52-4.62,1.56l-.04.02a46.882,46.882,0,0,0-8.18-8.87c-3.43-2.9-7.93-6.28-12.7-5.97-.58.05-.67.77-.38,1.17Zm78.44-48.69a14.752,14.752,0,0,0-3.49,1.22,4.425,4.425,0,0,0-2.27,3.77c-.04,1.47-.1,2.89-1.7,3.59a11.1,11.1,0,0,1-3.51.82c-2.79.25-4.22,2.32-6.49,3.45a5.067,5.067,0,0,0-2.95-.98,11.3,11.3,0,0,0-1.83.15,3.261,3.261,0,0,0-.46.03,4.343,4.343,0,0,1,.21-.88,1.275,1.275,0,0,0-1.41-1.63,21.633,21.633,0,0,0-9.54,3.1,11.116,11.116,0,0,0-2.57,2.11,44.039,44.039,0,0,1,7.53-8.08c8.36-6.88,19.39-10.9,30.24-8.74.92.19,1.84.39,2.78.63-1.56.36-2.98,1.03-4.55,1.44Zm-45.43,67.84a5.758,5.758,0,0,0-1.33.51,5.118,5.118,0,0,0-.15-1.11.452.452,0,0,0,.09-.26,7.858,7.858,0,0,0-.24-1.87c-.03-.11-.06-.25-.1-.38.69.96,1.42,1.88,2.12,2.82a.254.254,0,0,0,.1.08c-.16.07-.31.15-.47.21Zm-1-4.97a.528.528,0,0,0,.15-.05c.23.53.46,1.06.67,1.57a2.468,2.468,0,0,1-.17-.27c-.24-.39-.43-.83-.65-1.25Zm66.97,8.27c-1.25,1.16-2.54,2.39-4.41,2.12-1.19-.18-2.7-.88-2.87-2.24-.52-4.03,4.09-4.14,6.21-6.11.85-.78,3.07-2.52,2.61-3.97-.44-1.36-1.96-1.36-3.2-1.09-2.63.54-3.74,3.92-6.47,4.38-1.48.24-3.75.55-4.26,2.31-.6,2.02.75,4.09-1.86,5.06-2.77,1.04-4.66-.72-6.62-2.44a8.426,8.426,0,0,0-5.64-2.29c-2.9-.04-5.48.95-7.93-1.17,0-.03-.04-.05-.08-.07a34.305,34.305,0,0,0-4.29-4.4c-.42-.41-.83-.81-1.29-1.19a13.506,13.506,0,0,0-2.15-1.45c-.22-.16-.45-.33-.68-.47-2.23-1.48-5.34-2.85-6.69-5.31-1.31-2.41.35-4.43,2.67-5.4,2.75-1.15,5.63-.57,8.48-.3a16.471,16.471,0,0,0,8.03-1.14,46.363,46.363,0,0,1,8.36-2.79c1.81-.35,3.53-.81,4.26-2.7a8.5,8.5,0,0,0,.15-4.77c-.45-2.19-1.3-4.8-.42-6.96,1.17-2.83,4.42-4.39,7.32-4.75,3.08-.36,6.13,1.19,8.66,2.81,2.27,1.48,4.93,3.32,6.28,5.74,1.67,2.97.39,5.06.08,8.1-.28,2.75-.9,5.42-1.05,8.2-.12,2.42-.85,10.69,3.81,10.03,2.7-.38,2.74-3.04,1.65-4.88,1.27-.52,1.89,1.9,2.09,2.63.08.29.4.61.73.5,4.06-1.33-.2-4.31.12-6.75s2.85-3.19,2.78-5.8c-.06-1.9-1.42-3.59-2.51-4.99-1.73-2.21-2.37-3.94-1.84-6.7a4.487,4.487,0,0,1,.61-1.87c.79-1.01,1.39.84,1.47,1.1.19.67.36,1.33.57,1.97.49,1.51,1.88,2.16,3.28,2.66,2.7,1,3.49,4.27,4.31,6.74a.833.833,0,0,0,1.15.57c.05-.04.12-.04.18-.08,0,.8-.01,1.61-.09,2.44-1.3,10.05-4.29,20.8-12.08,27.7a48.938,48.938,0,0,1-14.55,8.8,5.37,5.37,0,0,0,.55-.5,39.209,39.209,0,0,0,4.27-5.74c1.02-1.45,2.19-2.8,3.12-4.33.43-.7,1.07-1.92.13-2.55-.97-.65-2.35.79-2.97,1.35Zm-70.06-23.03a7.174,7.174,0,0,0,2.84.14,3.992,3.992,0,0,0,.9-.31c2.06,11.1,6.27,22.3,14.62,30.12,8.35,7.79,18.95,10.5,30.21,9.75,11.83-.81,24.6-5.11,33.06-13.71,6.38-6.47,10.22-16.35,10.71-25.64a.525.525,0,0,0,.29-.31c.08-.21.17-.43.25-.64a14.37,14.37,0,0,0,.71-3.99c1.11-.23,2.22-.34,3.35-.46.31-.03.62-.05.94-.07-.37,2.7-.67,5.41-1.09,8.11-1.86,12.12-7.52,23.08-17.08,30.96a48.239,48.239,0,0,1-29.79,11.17c-11.54.17-24.33-3.56-32.72-11.79a58.479,58.479,0,0,1-10.99-16.08c-2.69-5.49-3.79-11.66-6.22-17.23Zm2.1,12.76a1.827,1.827,0,0,1,.35-.14c.06.21.14.4.21.59a14.81,14.81,0,0,0-1.75.37,2.593,2.593,0,0,0,1.18-.81Zm-.24,3.12a.507.507,0,0,0-.15-.07.517.517,0,0,1-.11-.02,4.6,4.6,0,0,0-.25-.61.293.293,0,0,0,.09-.02,6.706,6.706,0,0,0,.42.72Zm-1.69-2.07a3.422,3.422,0,0,0-.34.13.42.42,0,0,0-.18.13c-.07-.12-.16-.22-.23-.33a1.112,1.112,0,0,0,.75.08Zm-4.3.31a3.264,3.264,0,0,1,1.8-.45c.9.15,1.32,1.04,1.74,1.76a.356.356,0,0,0,.28.17,28.2,28.2,0,0,1,1.11,3.04,5.648,5.648,0,0,0,.83,1.77c.35,1.26.39,2.49-.96,3.23-.21.11-.44.24-.66.36h-.12a4.405,4.405,0,0,0-1.17.36.138.138,0,0,0-.19-.04,3.092,3.092,0,0,0-.26.18,3.65,3.65,0,0,0-.92.23,45.78,45.78,0,0,0-2.45-6.19,32.54,32.54,0,0,0-1.93-3.32,13.62,13.62,0,0,0,2.88-1.09Z" fill="#558273"/>
            <path id="Trazado_724520" data-name="Trazado 724520" d="M380.72,404.92a6.2,6.2,0,0,0,.58.77c.08.07-.04.21-.13.14a1.388,1.388,0,0,1-.57-.85.069.069,0,0,1,.12-.06Z" fill="#558273"/>
            <path id="Trazado_724521" data-name="Trazado 724521" d="M378.98,402.03a2.778,2.778,0,0,1,.97,1.34.217.217,0,0,1-.39.19c-.12-.23-.25-.46-.38-.69s-.22-.48-.35-.71a.1.1,0,0,1,.15-.13Z" fill="#558273"/>
            <path id="Trazado_724522" data-name="Trazado 724522" d="M366.93,365.12a1.758,1.758,0,0,0,.2.09c.05.03.05.08.01.1a.721.721,0,0,1,.58.24.423.423,0,0,1,.63.16.445.445,0,0,1-.8.39c-.01-.02,0-.05-.02-.07a.257.257,0,0,1-.26-.15c-.02-.04-.12-.06-.16-.07a.982.982,0,0,1-.32-.13.169.169,0,0,1,.02-.29.668.668,0,0,1,.25-.08,1.335,1.335,0,0,1-.19-.05c-.1-.02-.04-.2.05-.15Z" fill="#558273"/>
            <path id="Trazado_724523" data-name="Trazado 724523" d="M384.51,402.74a2.827,2.827,0,0,0,.91,1.29c.34.27.81.36,1.1.67a.17.17,0,0,1-.1.28c-.49.15-.99-.25-1.33-.58a3.427,3.427,0,0,1-.88-1.56c-.05-.17.23-.27.29-.1Z" fill="#558273"/>
            <path id="Trazado_724524" data-name="Trazado 724524" d="M387.55,403.64c.2.1.17.35.11.54-.08.26-.48.12-.39-.14.04-.11.02-.22.06-.33a.156.156,0,0,1,.22-.07Z" fill="#558273"/>
            <path id="Trazado_724525" data-name="Trazado 724525" d="M371.03,371.6c4.86-.13,7.64,6.04,9.47,9.65,3.23,6.36,6.66,12.69,7.28,19.93.02.19-.28.25-.29.05-.57-6.78-3.67-12.53-6.62-18.5-1.9-3.84-4.79-10.61-9.87-10.68-.29,0-.25-.44.04-.45Z" fill="#558273"/>
            <path id="Trazado_724526" data-name="Trazado 724526" d="M375.97,385.77a16.324,16.324,0,0,1,.86,2.43c.03.1-.12.18-.18.09a16.887,16.887,0,0,1-1.1-2.31.24.24,0,0,1,.43-.21Z" fill="#558273"/>
            <path id="Trazado_724527" data-name="Trazado 724527" d="M424.94,364.59c1.55.11,3.06-.35,4.6-.29a.1.1,0,0,1,.01.19,18.948,18.948,0,0,1-4.63.33c-.15-.01-.14-.25.01-.24Z" fill="#558273"/>
            <path id="Trazado_724528" data-name="Trazado 724528" d="M441.83,359.17a4.415,4.415,0,0,1-1.51,2.38c-.12.08-.26-.08-.15-.17a5.242,5.242,0,0,0,1.52-2.26.074.074,0,0,1,.14.05Z" fill="#558273"/>
            <path id="Trazado_724529" data-name="Trazado 724529" d="M454.61,349.6c1.21,4.46,1.47,8.85-.79,13.05-2.41,4.44-7.94,7-12.41,8.77a.123.123,0,0,1-.11-.22c4.22-2.44,8.65-4.12,11.68-8.17,2.76-3.68,2.24-9.15,1.16-13.35-.08-.3.39-.38.47-.09Z" fill="#558273"/>
            <path id="Trazado_724530" data-name="Trazado 724530" d="M439.29,366.7a.146.146,0,0,1,.16.24,4.228,4.228,0,0,0-.91,1.27,1.9,1.9,0,0,0,.39,1.77c.12.16-.1.36-.22.2-.85-1.08-.94-2.92.58-3.48Z" fill="#558273"/>
            <path id="Trazado_724531" data-name="Trazado 724531" d="M450,342.32a1.671,1.671,0,0,1,1.43,1.01c.16.31-.33.55-.49.24a3.309,3.309,0,0,0-1.02-1.02A.128.128,0,0,1,450,342.32Z" fill="#558273"/>
            <path id="Trazado_724532" data-name="Trazado 724532" d="M442.23,329.8a.378.378,0,0,1,.33.68,1.288,1.288,0,0,1-.97.19.347.347,0,0,1-.04-.64c.22-.09.45-.13.68-.23Z" fill="#558273"/>
            <path id="Trazado_724533" data-name="Trazado 724533" d="M439.15,331.2a6.526,6.526,0,0,0-.58.72.092.092,0,0,1-.17-.06,2.281,2.281,0,0,1,.44-.88c.15-.2.48.03.32.22Z" fill="#558273"/>
            <path id="Trazado_724534" data-name="Trazado 724534" d="M437.04,333.16a2.268,2.268,0,0,1-1.11.71c-.04.02-.08-.06-.04-.09a5.29,5.29,0,0,0,1.05-.69c.05-.06.15,0,.1.06Z" fill="#558273"/>
            <path id="Trazado_724535" data-name="Trazado 724535" d="M430,334.58a.179.179,0,0,1,.07.35c-4.44.78-8.96.5-13.4,1.38-.15.04-.23-.2-.08-.24,4.32-1.45,8.96-.85,13.41-1.48Z" fill="#558273"/>
            <path id="Trazado_724536" data-name="Trazado 724536" d="M406.02,341.63l-.09.21a.1.1,0,0,1-.18-.06l.06-.21c.03-.14.26-.06.21.07Z" fill="#558273"/>
            <path id="Trazado_724537" data-name="Trazado 724537" d="M400.49,353.61a28.535,28.535,0,0,0,1.07,5.26.063.063,0,0,1-.12.04,15.991,15.991,0,0,1-1.24-5.25c-.02-.19.27-.24.29-.05Z" fill="#558273"/>
            <path id="Trazado_724538" data-name="Trazado 724538" d="M429.9,387.11c2.08.29,4.2-.18,6.28.15.13.02.16.23.02.25a19.109,19.109,0,0,1-6.35.32c-.46-.08-.42-.79.05-.72Z" fill="#558273"/>
            <path id="Trazado_724539" data-name="Trazado 724539" d="M440.69,387.35a1.74,1.74,0,0,1,1.26,1.16,1.312,1.312,0,0,1-1.14,1.42.231.231,0,0,1-.21-.24c.06-.42.4-.7.56-1.07.23-.52-.12-.76-.59-.95a.165.165,0,0,1,.11-.31Z" fill="#558273"/>
          </g>
          <g id="Grupo_1013425" data-name="Grupo 1013425">
            <path id="Trazado_724540" data-name="Trazado 724540" d="M456.69,242.45c-5.1-6.12-13.31-7.99-20.83-5.7-3.72,1.17-6.31,3.91-8.21,7.27-.51.95-3.07,5.6-1.78,6.63a.184.184,0,0,0,.09.06,9.613,9.613,0,0,0-3.36.67,33,33,0,0,0-9.06-16.49c-6.32-6.44-14.89-8.32-23.66-7.33a16.094,16.094,0,0,0-4.8,1.29c-1.18-2.09-2.46-4.14-3.74-6.2a4.881,4.881,0,0,0-.34-.56c2.59-.5,3.9-3.66,4.74-5.87a19.491,19.491,0,0,0,1.54-9.09,18.737,18.737,0,0,0-5.39-11.1c-2.97-2.96-7.5-4.42-11.54-5.16-8.25-1.55-16.92,2.19-20.24,10.09-3.25,7.77-.4,17.46,5.89,22.83a15.17,15.17,0,0,0,6.33,3.18c2.53.51,5.2.17,7.81.46a.963.963,0,0,0,.33-.04c.56.97,1.1,1.98,1.66,2.95,1.2,1.99,2.31,4.54,3.9,6.36a36.413,36.413,0,0,0-5.08,10.39c-2.67,8.6-2.28,19.75,5.64,25.45a55.451,55.451,0,0,0-3.99,6.12c-.81,1.37-1.62,2.74-2.43,4.16a8.409,8.409,0,0,1-2.19,2.84.323.323,0,0,0-.07.5,21.935,21.935,0,0,0-16.96,3.68,15.57,15.57,0,0,0-5.74,8.19,20.275,20.275,0,0,0-.69,6.19c.1,2.16,1.22,3.72,1.76,5.76a.1.1,0,0,0,.19-.02c2.06,6.23,9,11.31,14.97,12.48a17.737,17.737,0,0,0,12.63-2.51c3.5-2.23,5.73-5.95,6.97-9.87a22.928,22.928,0,0,0,.57-11.99,12.964,12.964,0,0,0-3.26-6.31c2.84-3.77,5.07-8.06,7.7-12,7.59,3.79,15.78,2.02,22.85-2.25,5.84-3.51,10.69-8.25,12.88-14.5a.922.922,0,0,0,.37,0,4.981,4.981,0,0,1,1.84-.15.6.6,0,0,0-.07.5c1.32,7.1,8.58,10.36,15.15,10.68a21.157,21.157,0,0,0,19.18-10.86,18.141,18.141,0,0,0-1.53-20.74Zm-92.97-16.74a12.334,12.334,0,0,1-6.41-2.68,19.05,19.05,0,0,1-6.9-11.6,17.69,17.69,0,0,1,1.94-12.16c2.32-3.99,6.43-6.27,10.85-7.15,4.27-.81,8.68.26,12.64,1.83a16.106,16.106,0,0,1,9.06,9.04,15.9,15.9,0,0,1,.57,10.62c-.66,2.51-1.76,7.15-4.75,7.78a.287.287,0,0,0-.15.07,24.688,24.688,0,0,0-3.58-4.77.257.257,0,0,0-.18-.07.384.384,0,0,0-.19-.31c-1.66-1.36-4.6-1.05-6.23.24-1.44,1.19-3.17,3.17-2.73,5.19a.444.444,0,0,0-.14.63c.71,1.22,1.41,2.4,2.12,3.62-1.97-.2-3.94-.12-5.93-.27Zm9.37,4.09-4.56-7.95c-.03-.1-.08-.1-.16-.16a6.758,6.758,0,0,1,2.17-3.92c1.71-1.47,3.72-1.17,5.66-.47l.14.02c1.09,2.07,2.53,3.96,3.78,5.92,1.28,2.05,2.51,4.15,3.79,6.2a22.065,22.065,0,0,0-7.3,6.47,56.343,56.343,0,0,0-3.52-6.11Zm7.43,69.53a21.945,21.945,0,0,1-1.91,13.19,15.105,15.105,0,0,1-11.48,8.6c-5.08.92-9.73-1.02-13.66-4.08-3.81-2.94-5.83-6.88-7.31-11.34-.07-.2-.3-.19-.33,0a11.055,11.055,0,0,0,.23,2.83c-.16-.54-.36-1.03-.51-1.57a10.315,10.315,0,0,1-.21-3.95,18.713,18.713,0,0,1,1.9-7.46c2.09-4.02,6.27-6.43,10.51-7.67a19.926,19.926,0,0,1,14.31.91,14.111,14.111,0,0,1,8.46,10.53Zm5.11-20.91a.749.749,0,0,0-.36.55c-.43.68-.84,1.27-1.14,1.69-2.36,3.38-4,7.14-6.35,10.48a16.942,16.942,0,0,0-2.92-2.3,19.7,19.7,0,0,0-6.64-2.66c1.23-.42,1.86-1.54,2.57-2.55,1.41-1.98,2.53-4.15,3.81-6.19,2.22-3.68,5.4-9.08,10.49-7.86,4.45,1.08,2.47,5.63.55,8.84Zm30.27-8.28c-7.19,7.65-19,13.35-29.07,8.41,1.78-2.86,3.29-6.78.21-9.29-3.21-2.57-7.49-.09-9.78,2.42-9.91-7.95-6.91-23.82-.77-33.11,3.13-4.8,7.85-8.95,13.74-9.66a29.248,29.248,0,0,1,14.44,1.63c4.4,1.73,7.92,5.04,10.77,8.73,6.99,9.1,8.8,22.05.45,30.88Zm6.36-8.61a26.9,26.9,0,0,0,.63-3.31,23.679,23.679,0,0,0-.17-6.08,3.307,3.307,0,0,0,.89,0c1.13-.06,2.2-.09,3.32-.06a27.8,27.8,0,0,1,7.04.9c.04.05.09.01.13.02.91.79,1.32,2.43,1.62,3.55.6,2.19-.9,4.48-2.77,5.46-.05.04-.06.08-.11.12-1.94-.43-4.12.13-6.12-.25a12.18,12.18,0,0,0-4.47-.34Zm21.33,10.81c-7.38,1.38-16.34-1.4-18.38-9.3,0,0-.04,0-.04-.05.77.16,1.58.33,2.36.44a11.257,11.257,0,0,0,5.36-.32.68.68,0,0,0,.73.11,6.627,6.627,0,0,0,3.54-6.6c-.06-1.17-.94-4.05-2.36-4.54-.02-.19-.18-.35-.44-.44a28.913,28.913,0,0,0-7.92-.99v-.05a.523.523,0,0,0,.24-.62,1.246,1.246,0,0,1,.07-.46c.09-.31.18-.63.28-.94.22-.58.35-1.11.57-1.64a19.29,19.29,0,0,1,3.94-6.13c3.08-3.18,8.11-3.74,12.26-3.45a16.51,16.51,0,0,1,15.57,16.02c.05,9.05-6.95,17.28-15.77,18.96Z" fill="#558273"/>
            <path id="Trazado_724541" data-name="Trazado 724541" d="M357.65,317.42c-.15-.05-.23.2-.07.24A.125.125,0,1,0,357.65,317.42Z" fill="#558273"/>
            <path id="Trazado_724542" data-name="Trazado 724542" d="M362.86,317.83c-.42-.02-.83,0-1.24-.02a.065.065,0,1,0,0,.13,8.677,8.677,0,0,0,1.25-.02c.05,0,.03-.08-.01-.08Z" fill="#558273"/>
            <path id="Trazado_724543" data-name="Trazado 724543" d="M369.12,316.43a5.8,5.8,0,0,0-2.06.44.165.165,0,1,0,.11.31c.64-.25,1.37-.27,1.98-.58a.093.093,0,0,0-.04-.17Z" fill="#558273"/>
            <path id="Trazado_724544" data-name="Trazado 724544" d="M377.02,299.29a11.321,11.321,0,0,0-7.97-4.79,2.148,2.148,0,0,0-2.38,1.77,2.046,2.046,0,0,0,.28,1.3,4.263,4.263,0,0,0,.41.54c.3.38-.11.63-.3,1a.455.455,0,0,0,.37.69c1.76.2,1.75-1.62.97-2.65-.6-.77.17-1.39,1.05-1.45a6.036,6.036,0,0,1,2.35.74,13.467,13.467,0,0,1,4.34,2.59c4.07,4,.65,12.21-3.34,14.92-.09.06,0,.21.08.15,4.33-2.93,6.93-10.1,4.14-14.82Z" fill="#558273"/>
            <path id="Trazado_724545" data-name="Trazado 724545" d="M355.49,296.35a.357.357,0,0,0-.25.05.052.052,0,0,0-.02.08.319.319,0,0,0,.18.18.167.167,0,1,0,.09-.31Z" fill="#558273"/>
            <path id="Trazado_724546" data-name="Trazado 724546" d="M353.98,295.13a9.1,9.1,0,0,0-2.28,2.02,4.582,4.582,0,0,0-1.45,2.53c-.01.08.09.07.12.02a8.809,8.809,0,0,1,2.07-2.67c.54-.52,1.41-1.06,1.66-1.8.03-.08-.05-.13-.12-.1Z" fill="#558273"/>
            <path id="Trazado_724547" data-name="Trazado 724547" d="M352.34,303.84a3.549,3.549,0,0,1,.26-.71.1.1,0,0,0-.16-.1,1.939,1.939,0,0,0-.42,1.44.089.089,0,0,0,.17,0A3.4,3.4,0,0,0,352.34,303.84Z" fill="#558273"/>
            <path id="Trazado_724548" data-name="Trazado 724548" d="M361.46,317.5c-5.07-.53-9.22-6.6-9.83-11.35,0-.05-.09-.03-.08.02.62,4.48,4.61,11.75,9.91,11.49a.075.075,0,1,0,0-.15Z" fill="#558273"/>
            <path id="Trazado_724549" data-name="Trazado 724549" d="M441.25,267.23a5.926,5.926,0,0,1-.54-.38c-.24-.25-.58.17-.3.37a1.257,1.257,0,0,0,.77.24.127.127,0,0,0,.07-.23Z" fill="#558273"/>
            <path id="Trazado_724550" data-name="Trazado 724550" d="M449.65,265.98a22.005,22.005,0,0,0-3.2,1.37c-.13.06-.02.26.1.19,1.02-.54,2.12-.91,3.13-1.46.05-.03.02-.12-.04-.1Z" fill="#558273"/>
            <path id="Trazado_724551" data-name="Trazado 724551" d="M456.27,254.84s-.03-.02-.03,0c.02,3.68-1.23,7.44-4.37,9.6-.03.02,0,.06.02.05a10.893,10.893,0,0,0,4.39-9.65Z" fill="#558273"/>
            <path id="Trazado_724552" data-name="Trazado 724552" d="M455.43,251.55c-.34-.57-.91-1.85-1.82-1.4-1.95.96-3.25,2.77-5.38,3.48-6.17,2.06-8.17-4.56-9.31-9.03a.1.1,0,1,0-.19.05c.47,3.19,1.59,8.22,5.1,9.45a7.626,7.626,0,0,0,5.48-.27,10.076,10.076,0,0,0,2.38-1.61c.4-.33.78-.68,1.15-1.02,1.05-.97,1.64-.74,2.47.43.05.07.17.01.12-.07Z" fill="#558273"/>
            <path id="Trazado_724553" data-name="Trazado 724553" d="M438.73,244.28c-.61.25-1.17.59-1.75.89a7.027,7.027,0,0,1-1.91.63c-.07,0-.07.12,0,.13,1.42.33,2.6-.85,3.74-1.49a.094.094,0,0,0-.08-.17Z" fill="#558273"/>
            <path id="Trazado_724554" data-name="Trazado 724554" d="M434.47,246.32a.543.543,0,0,0-.2.74.111.111,0,0,0,.2-.02c.05-.15.03-.39.16-.5s-.03-.32-.17-.23Z" fill="#558273"/>
            <path id="Trazado_724555" data-name="Trazado 724555" d="M380.9,210.72c-.1-.02-.2-.02-.3-.03a1.2,1.2,0,0,0,.13-.31.1.1,0,0,0-.15-.12c-.2.09-.27.25-.38.42-.17.02-.21.32-.02.36.12.02.25.03.37.04a.554.554,0,0,1-.27.31,2.067,2.067,0,0,1-.7-.04.054.054,0,0,0-.03.1,1.476,1.476,0,0,0,.87.25c.38-.06.54-.38.62-.73a.2.2,0,0,0-.14-.25Z" fill="#558273"/>
            <path id="Trazado_724556" data-name="Trazado 724556" d="M380.61,205.21c-1.69-4.32-6.76-5.35-10.71-6.74s-7.82-1.13-10.32,2.51a13.354,13.354,0,0,0-1.42,11.82c.48,1.37,1.29,3.36,2.76,3.94,1.99.79,3.18-.54,4.84-1.34a.094.094,0,0,0-.07-.17,6.839,6.839,0,0,0-1.45.74,3.086,3.086,0,0,1-3.54-.29c-1.37-1.16-1.89-3.47-2.29-5.12-.76-3.12.42-6.87,2.14-9.48,2.42-3.66,6.56-3.27,10.22-2.02,3.61,1.23,8.19,2.33,9.74,6.2.03.07.12.02.1-.05Z" fill="#558273"/>
            <path id="Trazado_724557" data-name="Trazado 724557" d="M370.66,212.43a9.875,9.875,0,0,0-1.01.43.058.058,0,0,0,.06.1c.32-.17.68-.27.99-.46.05-.03.01-.08-.03-.06Z" fill="#558273"/>
            <path id="Trazado_724558" data-name="Trazado 724558" d="M373.15,212.42a2.254,2.254,0,0,1-1.36.06c-.08-.02-.12.1-.04.12a1.6,1.6,0,0,0,1.43-.11c.04-.02.02-.09-.03-.07Z" fill="#558273"/>
            <path id="Trazado_724559" data-name="Trazado 724559" d="M374.75,211.06s-.06-.06-.09-.03c-.05.11-.1.22-.15.34s.15.16.17.05a2.377,2.377,0,0,0,.06-.37Z" fill="#558273"/>
            <path id="Trazado_724560" data-name="Trazado 724560" d="M380.68,226.78a11.291,11.291,0,0,1-1.98-3.04c-.51-1.36-.99-2.49-2.42-3.03-.02,0-.05.03-.02.04,1.6.74,1.96,2.19,2.55,3.7a15.371,15.371,0,0,0,2.34,3.91.08.08,0,0,0,.14-.06A2.275,2.275,0,0,0,380.68,226.78Z" fill="#558273"/>
            <path id="Trazado_724561" data-name="Trazado 724561" d="M380.39,229.09a1.767,1.767,0,0,1-1.03.29c-.36,0-.71-.16-1.06-.19a.092.092,0,0,0-.07.15,1.893,1.893,0,0,0,2.26-.07c.12-.08.03-.27-.1-.19Z" fill="#558273"/>
            <path id="Trazado_724562" data-name="Trazado 724562" d="M379.93,273.46a23.172,23.172,0,0,0-1.82,1.75c-.04.06.03.12.09.09a7.716,7.716,0,0,0,1.94-1.62c.13-.14-.07-.35-.2-.22Z" fill="#558273"/>
            <path id="Trazado_724563" data-name="Trazado 724563" d="M377.06,285.32a1.613,1.613,0,0,1-2.95-.45,3.672,3.672,0,0,1,.37-3.89c1.15-1.86,2.75-3.32,3.53-5.41.03-.08-.1-.12-.14-.04-1.32,3-6.24,5.12-4.89,8.98.61,1.77,3.18,2.76,4.18.89.03-.06-.06-.15-.11-.08Z" fill="#558273"/>
            <path id="Trazado_724564" data-name="Trazado 724564" d="M378.25,283.8c-.23.2-.31.5-.5.73-.07.09.08.21.15.13a2.258,2.258,0,0,0,.48-.78.078.078,0,0,0-.13-.08Z" fill="#558273"/>
            <path id="Trazado_724565" data-name="Trazado 724565" d="M376.84,263.24a15.417,15.417,0,0,1-1.31-8.87c.3-3.16,1.08-6.63,3.08-9.17.08-.1-.09-.24-.17-.14-2,2.36-2.7,5.88-3.09,8.86-.35,2.69-.69,7.22,1.41,9.39a.055.055,0,0,0,.09-.06Z" fill="#558273"/>
            <path id="Trazado_724566" data-name="Trazado 724566" d="M380.47,244.15s.01-.11-.04-.1a1.171,1.171,0,0,0-.56.06.115.115,0,0,0,0,.17.413.413,0,0,0,.11.07c.08.03.14-.03.15-.11.1-.03.25-.02.34-.09Z" fill="#558273"/>
            <path id="Trazado_724567" data-name="Trazado 724567" d="M380.91,244.23s-.05,0-.04.02a4.547,4.547,0,0,1,.24.82c0,.03.06.02.06,0a2.11,2.11,0,0,0-.26-.84Z" fill="#558273"/>
            <path id="Trazado_724568" data-name="Trazado 724568" d="M400.7,250.16a16.627,16.627,0,0,1-10.93.92c-.07-.02-.11.1-.03.11,3.45.86,7.89,1.09,11-.94.06-.03.01-.12-.05-.09Z" fill="#558273"/>
            <path id="Trazado_724569" data-name="Trazado 724569" d="M405.77,237.13a9.432,9.432,0,0,1,1.26.38c.07.03.14-.08.08-.13a3.42,3.42,0,0,0-1.99-.69c-.17-.02-.21.21-.09.3,1.69,1.1,4.1,3.67,3.1,5.86-.02.04.04.08.06.04,1.01-2.02-.74-4.44-2.41-5.75Z" fill="#558273"/>
            <path id="Trazado_724570" data-name="Trazado 724570" d="M408.91,238.72a4.372,4.372,0,0,0-1.11-.85c-.05-.03-.1.05-.05.07.4.24.75.54,1.13.81.02.02.05-.02.03-.04Z" fill="#558273"/>
            <path id="Trazado_724571" data-name="Trazado 724571" d="M409.27,239.18s-.07.03-.04.06a4.806,4.806,0,0,1,.81.98.04.04,0,0,0,.07-.04,2.257,2.257,0,0,0-.83-1Z" fill="#558273"/>
            <path id="Trazado_724572" data-name="Trazado 724572" d="M416.22,252.59c-.1-3.44-2.19-6.27-3.52-9.3-.04-.11-.23-.04-.19.07,1.04,2.74,2.77,5.14,3.31,8.06s-.3,6.19-1.29,8.94a21.544,21.544,0,0,1-3.58,6.15,11.886,11.886,0,0,1-6.44,4.03.081.081,0,0,0,.02.16c4.74.04,8.43-5.66,9.95-9.48a22.055,22.055,0,0,0,1.74-8.62Z" fill="#558273"/>
            <path id="Trazado_724573" data-name="Trazado 724573" d="M401.79,270.49a6.73,6.73,0,0,1-1.79-.19c-.77-.21-1.01-.75-1.4-1.39-.03-.04-.09-.02-.08.04.44,1.5,1.85,1.9,3.25,1.87.21-.01.22-.33.01-.33Z" fill="#558273"/>
            <path id="Trazado_724574" data-name="Trazado 724574" d="M397.07,230.73a.4.4,0,0,0-.03-.04.247.247,0,0,0-.19-.12.683.683,0,0,0-.35.15.4.4,0,0,0-.09.05c-.02-.01-.03-.03-.06-.04a.45.45,0,0,0-.49.35c-.08.18.19.27.29.13.01,0,.02-.02.03-.03a1.209,1.209,0,0,1,.57-.15c.14,0,.18-.07.28-.14a.1.1,0,0,0,.03-.17Z" fill="#558273"/>
            <path id="Trazado_724575" data-name="Trazado 724575" d="M398.38,231.55a12.648,12.648,0,0,0-8.38,1.34c-1.22.65-4.57,2.57-2.68,4.18a2.076,2.076,0,0,0,3.93-.16,2.066,2.066,0,0,0,0-1.13c.03-.02.05-.03.08-.05h0a1,1,0,0,1,.14-.08,1.445,1.445,0,0,0,.45-.47,6.61,6.61,0,0,1,.47-.58.255.255,0,0,0-.03-.31,1.074,1.074,0,0,0-.38-.2,9.8,9.8,0,0,0,.97-.49.49.49,0,0,0,.17-.18c.54-.21,1.1-.38,1.64-.53.98-.29,2.52-.19,3.31-.89a.31.31,0,0,0,.06-.13c.07.01.14.01.21.02.19.03.23-.29.05-.33Z" fill="#558273"/>
          </g>
          <g id="Grupo_1013426" data-name="Grupo 1013426">
            <path id="Trazado_724576" data-name="Trazado 724576" d="M340.29,18.13a4.292,4.292,0,0,0-3.81.67,3.136,3.136,0,0,0-1.09,1.6,3.558,3.558,0,0,0,.51,2.82c1.25,1.86,3.55,2.76,5.42,1.46a.39.39,0,0,0,.45-.36c1.97-1.85.9-5.34-1.48-6.18Zm1.23,4.1c-.11-.07-.24-.14-.35-.21.11.01.22.03.34.04h.04a.567.567,0,0,1-.03.18Zm-.69-1.69a.475.475,0,0,0-.06-.66h.18a2.452,2.452,0,0,1,.53,1.07,5.664,5.664,0,0,0-.66-.42Zm-1.71-1.43a.437.437,0,0,0-.1.44c-.38-.08-.76-.17-1.13-.26A3.433,3.433,0,0,1,339.12,19.11Zm-1.86.51a.376.376,0,0,0,.21.49c.29.13.59.25.89.36-.51-.14-1.03-.28-1.55-.37a1.644,1.644,0,0,1,.26-.33c.06-.05.12-.1.19-.15Zm-.82,1.25.04.02a.418.418,0,0,1,.1.04.386.386,0,0,0,.05.7,11.129,11.129,0,0,1,3.58,1.95c-1.32-.52-2.54-1.3-3.9-1.76h-.04c-.06-.13-.12-.26-.17-.39a1.975,1.975,0,0,0,.32-.54Zm.58,2.05c-.09-.11-.19-.24-.3-.38.62.29,1.33.66,1.39,1.25v.01a4.524,4.524,0,0,1-1.1-.89Zm1.31,1a.26.26,0,0,0,.08-.12,1.149,1.149,0,0,0-.04-.46c.5.28,1,.56,1.52.8a2.349,2.349,0,0,1-1.55-.22Z" fill="#558273"/>
            <path id="Trazado_724577" data-name="Trazado 724577" d="M355.98,18.22a11.926,11.926,0,0,0-1.72-1.54.479.479,0,0,0-.44-.29c-1.68.09-3.25,1.66-4.41,2.74-.52.49-1.02,1-1.51,1.52h-.04a.516.516,0,0,0-.47.55c-.89.98-1.75,1.99-2.63,2.96-3.64,4.03-8.38,7.32-11.5,11.79a.256.256,0,0,0,.1.4c.19.67,1.05,1.35,1.42,1.89.5.73,1.16,2.21,1.99,2.61,0,0,.03,0,.04.01a.447.447,0,0,0,.64.24,38.308,38.308,0,0,0,3.94-3.39.426.426,0,0,0,.36-.33c.24-.22.47-.43.71-.64,1.8-1.58,3.6-3.15,5.42-4.7,1.57-1.34,3.19-2.6,4.79-3.91,1.18-.97,7.69-5.48,5.52-7.38v-.01a8.414,8.414,0,0,0-2.2-2.52Zm-2.39-.58a2.476,2.476,0,0,0,.32.33c-.17-.02-.34-.03-.51-.05a.424.424,0,0,0-.44.35h-.19a.63.63,0,0,0-.58.71.57.57,0,0,0-.3,1.1c.86.3,1.76.47,2.64.7-1.35-.11-2.77-.6-3.99-.81a.67.67,0,0,0-.2,0c.44-.41.9-.81,1.37-1.18a17.532,17.532,0,0,1,1.88-1.15Zm-2.63,10.19c-.1-.07-.2-.13-.3-.19a5.649,5.649,0,0,0,.58-.04c-.1.08-.19.15-.28.23Zm-8.29,6.88c-.24-.14-.47-.27-.71-.39.35.05.7.09,1.05.11Zm-5.29-1.42h0s-.07-.03-.1-.04a.341.341,0,0,0-.22-.02c.06-.07.13-.13.19-.2.98.55,2.02.97,3.04,1.43a30.8,30.8,0,0,1-2.9-1.17h0Zm15.02-7.06a3.5,3.5,0,0,0,.62-.15.536.536,0,0,1,.11-.05c-.17.15-.34.29-.52.44a.175.175,0,0,0-.04-.05c-.05-.06-.12-.12-.18-.18Zm-4.21-4.08a7.636,7.636,0,0,0,.92.42,8.771,8.771,0,0,0-1.09-.22c.06-.06.12-.13.18-.19Zm4.99,2.83a3.21,3.21,0,0,0-.31-.19,5,5,0,0,0,1.72-.06c-.41.37-.82.74-1.24,1.1A.58.58,0,0,0,353.18,24.98ZM350.56,23c.64.16,1.29.31,1.91.5A12.229,12.229,0,0,1,350.56,23Zm-5.58,2.65c.68-.69,1.34-1.41,1.98-2.13A17.59,17.59,0,0,0,350.45,25a14.1,14.1,0,0,0-3.21-.49.594.594,0,0,0-.17,1.16c.99.39,2.33.41,3.42.79-1.66.04-3.32-.49-4.99-.56-.71-.03-.75.92-.16,1.15,1.14.46,2.38.65,3.54,1.05a17.053,17.053,0,0,1-5.11-1.28c.41-.39.82-.77,1.21-1.17Zm-1.97,1.87a.422.422,0,0,0,.24.27,26.61,26.61,0,0,0,2.83,1.07,31.718,31.718,0,0,0-3.11-.72c-.5-.07-.72.74-.27.95,1.33.59,3.1.78,4.4,1.54a15.2,15.2,0,0,1-5.21-1.42c-.49-.19-.81.59-.35.83,1.06.57,2.22.92,3.31,1.4a9.977,9.977,0,0,1-1.71-.35c-.75-.29-1.54-.5-2.29-.72a.456.456,0,0,0-.24.88c.71.21,1.43.46,2.15.67a6.319,6.319,0,0,1,1.19.6,17.75,17.75,0,0,1-4.68-1.22.375.375,0,0,0-.39.07c.21-.21.42-.42.64-.63,1.14-1.1,2.33-2.14,3.5-3.21Zm-4.16,3.87a.483.483,0,0,0,.19.77c1.15.45,2.38.79,3.5,1.34a19.282,19.282,0,0,1-4.57-1.21c.29-.3.58-.6.88-.9Zm-2.07,2.13a.393.393,0,0,0,.17.5c.9.43,1.83.83,2.71,1.29-1.08-.34-2.12-.76-3.19-1.12-.5-.17-.68.58-.22.78a23.775,23.775,0,0,1,3.6,1.72c-1.48-.43-2.84-1.34-4.44-1.4-.36-.01-.54.54-.19.7.89.4,1.76.84,2.6,1.32-.75-.22-1.5-.46-2.25-.68a.387.387,0,0,0-.48.37,3.958,3.958,0,0,0-.99-.97,34.975,34.975,0,0,0,2.67-2.51Zm1.91,4.8c-.09.1-.18.2-.27.29-.3-.23-.62-.43-.94-.63.41.12.81.23,1.22.33Zm-3.24-.82a16.515,16.515,0,0,0,2.04,1.37c-.19,0-.37.01-.56.01a.3.3,0,0,0-.44-.04l-.04.04h-.02c-.18-.26-.36-.51-.54-.77-.14-.19-.28-.4-.43-.62Zm1.65,2.29c-.06-.07-.11-.15-.17-.22.21,0,.42.01.63.01-.11.13-.22.25-.32.38a2.195,2.195,0,0,0-.14-.18Zm18.46-15.95a.739.739,0,0,0-.28-.43,4.983,4.983,0,0,0-.81-.51,8.368,8.368,0,0,0,1.94.1C356.14,23.29,355.85,23.57,355.56,23.84Zm1.6-1.78a.683.683,0,0,0-.36-.33.736.736,0,0,0-.14-.04c.16-.05.33-.1.5-.17.02,0,.03-.02.05-.03a.489.489,0,0,0,.18.14,1.846,1.846,0,0,1-.23.44Z" fill="#558273"/>
            <path id="Trazado_724578" data-name="Trazado 724578" d="M352.74,33.57c-1.63-1.04-3.3-.06-4.32,1.3-1.54,1.55.19,4.05,1.91,4.67,1.69.6,3.91-.07,4.3-1.99a4.068,4.068,0,0,0-1.89-3.99Zm-3.56,1.91c.74-1.05,1.82-1.78,3.05-1.05.01,0,.03.02.04.03l-.68-.09c-.22-.03-.31.19-.25.37a8.187,8.187,0,0,0-1.01-.18.234.234,0,0,0-.12.43c.46.24.91.47,1.37.7-.55-.11-1.09-.22-1.64-.31-.37-.05-.66.45-.27.64.8.41,1.68.71,2.47,1.15a31.435,31.435,0,0,1-3.4-1.12,2.165,2.165,0,0,1,0-.36.515.515,0,0,0,.46-.22Zm-.19,1.59c.6.26,1.22.47,1.78.78a12.606,12.606,0,0,1-1.58-.4,3.473,3.473,0,0,1-.21-.37Zm2.03,1.6a3.4,3.4,0,0,1-.59-.19,4.043,4.043,0,0,0,1.67.18c.33-.04.39-.48.2-.69l-.04-.04a9.37,9.37,0,0,0,.92.19,2.463,2.463,0,0,1-2.16.55Zm2.59-1.36a5.363,5.363,0,0,0-1.06-.78c.26.05.53.09.8.12a.277.277,0,0,0,.25-.1,3.421,3.421,0,0,1,.04.45,1.553,1.553,0,0,1-.03.31Zm-.16-1.33c-.21-.12-.43-.23-.64-.33a.3.3,0,0,0,.09-.54c-.09-.05-.19-.11-.28-.17a.213.213,0,0,0,.07-.15,3.113,3.113,0,0,1,.76,1.19Z" fill="#558273"/>
          </g>
          <g id="Grupo_1013427" data-name="Grupo 1013427">
            <path id="Trazado_724579" data-name="Trazado 724579" d="M470.19,274.18a4.3,4.3,0,0,0-3.82.59,3.166,3.166,0,0,0-1.13,1.58,3.56,3.56,0,0,0,.45,2.83c1.21,1.89,3.49,2.84,5.38,1.58a.4.4,0,0,0,.46-.35c2-1.81,1.02-5.32-1.35-6.21Zm1.14,4.12c-.11-.07-.23-.14-.35-.22.11.02.22.03.34.04h.04A1.126,1.126,0,0,1,471.33,278.3Zm-.65-1.7a.473.473,0,0,0-.04-.66h.18a2.631,2.631,0,0,1,.51,1.08,6.634,6.634,0,0,0-.65-.43Zm-1.67-1.46a.464.464,0,0,0-.11.44c-.38-.09-.75-.19-1.13-.28A3.443,3.443,0,0,1,469.01,275.14Zm-1.88.47a.363.363,0,0,0,.2.49c.29.14.58.26.88.38-.51-.15-1.02-.3-1.54-.41a1.353,1.353,0,0,1,.27-.32,1.332,1.332,0,0,1,.19-.14Zm-.85,1.23.04.02c.03.01.07.03.1.04a.383.383,0,0,0,.04.7,10.854,10.854,0,0,1,3.54,2.03c-1.31-.54-2.52-1.36-3.86-1.85h-.04c-.06-.13-.11-.27-.16-.4a2.279,2.279,0,0,0,.34-.53Zm.54,2.06c-.09-.11-.19-.24-.29-.38.61.3,1.32.69,1.36,1.28v.01a4.355,4.355,0,0,1-1.08-.92Zm1.29,1.03a.26.26,0,0,0,.08-.12,1.374,1.374,0,0,0-.03-.46c.5.29.99.58,1.5.83A2.367,2.367,0,0,1,468.11,279.93Z" fill="#558273"/>
            <path id="Trazado_724580" data-name="Trazado 724580" d="M485.88,274.61a11.805,11.805,0,0,0-1.69-1.58.477.477,0,0,0-.44-.3c-1.68.05-3.28,1.59-4.47,2.64-.53.48-1.04.98-1.54,1.49h-.04a.525.525,0,0,0-.49.54c-.91.96-1.79,1.95-2.69,2.91-3.73,3.95-8.54,7.14-11.75,11.55a.266.266,0,0,0,.09.41c.17.67,1.02,1.37,1.38,1.92.48.75,1.12,2.23,1.94,2.66a.1.1,0,0,1,.04.01.445.445,0,0,0,.63.25,38.071,38.071,0,0,0,4.01-3.31.415.415,0,0,0,.36-.32c.24-.21.48-.42.73-.63q2.745-2.31,5.52-4.59c1.59-1.31,3.25-2.53,4.87-3.81,1.2-.94,7.8-5.32,5.68-7.26v-.01a8.38,8.38,0,0,0-2.14-2.57Zm-2.38-.63a3.284,3.284,0,0,0,.31.34l-.51-.06a.408.408,0,0,0-.44.34h-.19a.618.618,0,0,0-.59.7.575.575,0,0,0-.33,1.1c.85.32,1.75.51,2.63.75-1.35-.13-2.76-.66-3.98-.89a.669.669,0,0,0-.2,0c.45-.4.92-.79,1.4-1.15a18.236,18.236,0,0,1,1.91-1.11Zm-2.84,10.13c-.1-.07-.2-.14-.29-.2a5.635,5.635,0,0,0,.58-.03c-.1.08-.19.15-.29.22Zm-8.43,6.7c-.23-.14-.46-.28-.7-.41.35.06.69.11,1.05.14-.11.09-.23.18-.34.27Zm-5.26-1.53h0s-.07-.03-.1-.04a.287.287,0,0,0-.22-.02l.2-.2c.97.57,1.99,1.02,3,1.5a29.477,29.477,0,0,1-2.87-1.23h0Zm15.17-6.73a3.562,3.562,0,0,0,.63-.14.37.37,0,0,0,.11-.05c-.18.14-.35.28-.53.42a.175.175,0,0,0-.04-.05c-.05-.06-.11-.12-.17-.18Zm-4.12-4.17a7.624,7.624,0,0,0,.91.44,8.509,8.509,0,0,0-1.09-.24c.06-.06.12-.13.18-.19Zm4.93,2.94c-.1-.07-.2-.14-.3-.2a4.983,4.983,0,0,0,1.72-.03q-.63.555-1.26,1.08a.583.583,0,0,0-.15-.85Zm-2.58-2.03c.64.18,1.28.33,1.9.54A12.308,12.308,0,0,1,480.37,279.29Zm-5.63,2.53c.7-.67,1.37-1.38,2.03-2.09a17.336,17.336,0,0,0,3.46,1.55,14.147,14.147,0,0,0-3.19-.56.6.6,0,0,0-.19,1.16c.98.41,2.32.46,3.4.87-1.66,0-3.3-.56-4.98-.67-.71-.05-.77.9-.19,1.15,1.13.48,2.37.7,3.51,1.13a16.68,16.68,0,0,1-5.08-1.39c.41-.38.83-.76,1.24-1.14Zm-2.01,1.83a.422.422,0,0,0,.24.27,27.3,27.3,0,0,0,2.8,1.13c-1.03-.26-2.05-.63-3.09-.79a.512.512,0,0,0-.29.94c1.32.62,3.08.84,4.37,1.64a15.158,15.158,0,0,1-5.18-1.53c-.48-.2-.82.57-.37.83,1.05.6,2.2.96,3.28,1.47a9.284,9.284,0,0,1-1.7-.39c-.74-.31-1.53-.53-2.27-.77a.459.459,0,0,0-.26.88c.71.23,1.42.49,2.14.71a6.64,6.64,0,0,1,1.18.62,18.023,18.023,0,0,1-4.65-1.32.4.4,0,0,0-.4.06c.22-.21.43-.41.65-.61,1.16-1.08,2.38-2.09,3.57-3.13Zm-4.24,3.77a.479.479,0,0,0,.17.77c1.14.48,2.37.84,3.47,1.42a19.155,19.155,0,0,1-4.54-1.31C467.89,288,468.19,287.71,468.49,287.42Zm-2.12,2.09a.379.379,0,0,0,.16.5c.89.45,1.81.87,2.69,1.35-1.07-.36-2.1-.81-3.17-1.19-.5-.18-.7.57-.23.77a24.193,24.193,0,0,1,3.56,1.79c-1.47-.47-2.81-1.4-4.41-1.49-.36-.02-.56.53-.21.69.88.42,1.74.88,2.57,1.37-.75-.23-1.49-.49-2.24-.72a.373.373,0,0,0-.48.36,3.812,3.812,0,0,0-.97-.99,34.76,34.76,0,0,0,2.72-2.45Zm1.81,4.84c-.1.1-.19.19-.28.29-.3-.24-.61-.44-.93-.65C467.37,294.12,467.77,294.24,468.18,294.35Zm-3.22-.89a17.744,17.744,0,0,0,2.01,1.42h-.56a.278.278,0,0,0-.43-.05l-.04.04h-.02c-.18-.26-.35-.52-.53-.78-.13-.19-.27-.41-.42-.63Zm1.6,2.32c-.06-.07-.11-.15-.17-.22l.63.03c-.11.12-.22.25-.33.37A2.026,2.026,0,0,0,466.56,295.78Zm18.8-15.55a.721.721,0,0,0-.27-.43,5.83,5.83,0,0,0-.8-.53,8.339,8.339,0,0,0,1.94.14c-.28.29-.57.56-.86.82Zm1.63-1.75a.682.682,0,0,0-.35-.34c-.05-.02-.09-.03-.14-.05.16-.05.33-.1.5-.16.02,0,.03-.02.05-.03a.4.4,0,0,0,.18.14,1.818,1.818,0,0,1-.24.43Z" fill="#558273"/>
            <path id="Trazado_724581" data-name="Trazado 724581" d="M482.3,289.89c-1.61-1.08-3.3-.13-4.35,1.21-1.57,1.52.11,4.05,1.81,4.71,1.68.64,3.91.02,4.34-1.89a4.061,4.061,0,0,0-1.81-4.03Zm-3.6,1.84c.76-1.04,1.86-1.74,3.07-.99.01,0,.03.02.04.03-.22-.03-.45-.07-.67-.1s-.31.19-.26.36a8.205,8.205,0,0,0-1.01-.2.229.229,0,0,0-.13.42c.45.25.9.49,1.35.73-.54-.12-1.09-.25-1.63-.34-.37-.06-.67.43-.29.64.79.43,1.66.75,2.44,1.2a33.869,33.869,0,0,1-3.38-1.19v-.36a.484.484,0,0,0,.46-.21Zm-.22,1.58c.59.27,1.21.5,1.77.82a10.764,10.764,0,0,1-1.57-.44,2.754,2.754,0,0,1-.2-.38Zm1.99,1.65a2.746,2.746,0,0,1-.59-.21,4.227,4.227,0,0,0,1.67.22c.33-.03.4-.48.21-.69a.138.138,0,0,1-.03-.04c.3.08.61.15.92.21a2.439,2.439,0,0,1-2.17.5Zm2.62-1.3a5.428,5.428,0,0,0-1.04-.8c.26.05.53.1.8.14a.3.3,0,0,0,.25-.09,3.4,3.4,0,0,1,.03.45,1.545,1.545,0,0,1-.04.31Zm-.13-1.34c-.21-.12-.42-.24-.64-.34a.3.3,0,0,0,.1-.54c-.09-.06-.19-.12-.28-.18a.275.275,0,0,0,.08-.15,3.143,3.143,0,0,1,.74,1.21Z" fill="#558273"/>
          </g>
          <path id="Trazado_724582" data-name="Trazado 724582" d="M260.03,224.11a.676.676,0,0,0-.1.36,3.212,3.212,0,0,0-1.17,3.75c-2.46,2.37-4.96,4.74-7.38,7.15a6.42,6.42,0,0,0-4-1.24c-1.99.05-7.74,3.49-7.49,6.02a3.481,3.481,0,0,0-.22.36,44.42,44.42,0,0,1-9.89-1.03c-1.61-.31-3.21-.65-4.81-.96a7.4,7.4,0,0,0-3.28-.32,8.446,8.446,0,0,0-1.33-4.67.823.823,0,0,0-.16-.22,6.768,6.768,0,0,0-4.22-2.71,14.9,14.9,0,0,0-5.8,0,59.893,59.893,0,0,0-1.66-8.33c-.97-3.21-2.29-6.27-2.72-9.61,0-.03-.02-.04-.02-.06a4.223,4.223,0,0,0,2.43-1.97.469.469,0,0,0,.28-.55,3.18,3.18,0,0,0,.19-1.91,4.007,4.007,0,0,0-5.86-2.31,3.313,3.313,0,0,0-1.79,3.75,3.609,3.609,0,0,0,1.95,2.23,2.845,2.845,0,0,0,.91.63,3.092,3.092,0,0,0,.83.22.689.689,0,0,0-.02.13,45.187,45.187,0,0,0,2.47,8.97c.97,2.91,1.03,6.15,2.2,8.99a16.374,16.374,0,0,0-2.81.97c-1.71.78-3.8,2.46-4.19,4.41a6.877,6.877,0,0,0-.52,5.99,48.4,48.4,0,0,1-11.28,2.44c-3.08.42-6.97.71-9.67,2.41a4.846,4.846,0,0,0-4.96-2.53,5,5,0,0,0-1.79.68c.04-.07.09-.16.13-.24.05-.1-.09-.24-.2-.18-3.14,1.58-2.53,5.34.1,6.95,2.12,1.3,6,1.64,7.02-1.13a4.164,4.164,0,0,0,.05-2.72c3.48-.58,6.85-1.55,10.4-2a42.6,42.6,0,0,0,10.74-2.36,10.075,10.075,0,0,0,6.36,5.35,8.847,8.847,0,0,0,2.03.2,11.166,11.166,0,0,0,1.18.2.6.6,0,0,0,.6-.34c-.34,1.17.35,2.98.51,4.14a27.12,27.12,0,0,0,.85,4.73,3.176,3.176,0,0,0-1.73,2.41,3.262,3.262,0,0,0-.02.7,3.138,3.138,0,0,0-.09.84c.06,1.69,2.28,2.6,3.75,2.77a3.577,3.577,0,0,0,3.65-1.98,3.785,3.785,0,0,0-.94-3.71,4.015,4.015,0,0,0-3.23-1.4c-.22-1.53-.46-3.06-.64-4.6-.14-1.22-.06-3.3-1.06-4.24a11.891,11.891,0,0,0,4.45-2.74c1.69,2.91,4.41,5.36,6.76,7.78,2.79,2.87,5.76,5.59,8.53,8.49,2.56,2.67,4.92,5.51,7.42,8.22a37.261,37.261,0,0,0,5.46,5.4,131.168,131.168,0,0,0-1.41,4.17,7.2,7.2,0,0,0,3.07,5.46c3.15,2.46,9.3,1.27,10.08-2.93.59-3.23-2-6.47-4.78-8.02a5.553,5.553,0,0,0-5.73-.03c-.56-.45-1.15-.87-1.68-1.33a56.308,56.308,0,0,1-4.37-4.37c-2.52-2.7-4.88-5.51-7.44-8.17-2.56-2.68-5.31-5.2-7.9-7.84-2.02-2.07-3.89-4.41-6.04-6.39a4.257,4.257,0,0,1-.51-1.2,1.7,1.7,0,0,1,.1-1.02h0a12.675,12.675,0,0,0,1.2-1.99,8.746,8.746,0,0,0,.78-2.83,7.356,7.356,0,0,0,2.4.69c1.85.39,3.69.82,5.55,1.2a45.248,45.248,0,0,0,9.77,1.05c.21,2.58,3.15,5.65,5.19,6.52,4.7,1.99,8.82-1.22,9.71-5.59a7.942,7.942,0,0,0-1.97-6.9,60.073,60.073,0,0,0,7.23-6.85,3.783,3.783,0,0,0,4.08.57,3.237,3.237,0,0,0,1.45-4.59c-.78-1.54-3.73-3.13-5.04-1.22ZM203.3,207.06a3.725,3.725,0,0,1,.65-.36.148.148,0,0,0,.07-.01.427.427,0,0,0,.15.63,14.433,14.433,0,0,1,2.02,1.49c-1-.51-1.98-1.04-3.02-1.48.04-.09.08-.18.13-.27Zm-.42,1.27a14.406,14.406,0,0,1,2.51,2.07c-.36-.1-.7-.19-1.05-.32a10.582,10.582,0,0,1-1.48-.85,3.946,3.946,0,0,1,.02-.91Zm-28.2,42.38c-.18-.12-.37-.25-.54-.39v-.04c-.09-.25-.18-.51-.27-.76a15.192,15.192,0,0,0,1.54,1.57,6.22,6.22,0,0,1-.73-.36Zm1.77.71c-.52-.68-1.25-1.35-1.82-2.06a34.69,34.69,0,0,0,3.43,2.23,4.942,4.942,0,0,1-1.61-.17Zm-2.59-3.88a.612.612,0,0,1,.06-.13,2.416,2.416,0,0,1,.35-.44c.68.66,1.33,1.36,1.94,2.08-.78-.5-1.56-1.01-2.35-1.5Zm6.03,3.06a1.793,1.793,0,0,1-.4.46.209.209,0,0,0-.04-.06c-.29-.36-.59-.71-.88-1.06a12.425,12.425,0,0,0,1.32.65h0Zm-1.06-3.71c-.73-.37-1.42-.79-2.18-1.11a3.285,3.285,0,0,1,2.94,1.42,4.107,4.107,0,0,1-.76-.32Zm35.64,15.57a2.171,2.171,0,0,1-.72-1.1,7.081,7.081,0,0,0,2.2,1.25,1.167,1.167,0,0,1-1.47-.15Zm1.79-2.86a.739.739,0,0,1,.06.05c-.58-.27-1.15-.57-1.74-.84a2.57,2.57,0,0,1,1.71,0A.547.547,0,0,0,216.26,259.6Zm37.61,18.53c-.27-.31-.54-.63-.81-.94a1.61,1.61,0,0,0,.69-.1c.02,0,.03-.02.05-.03a8.982,8.982,0,0,1,2.05,3,3.309,3.309,0,0,1,.24,1.54,24.338,24.338,0,0,0-2.67-2.51c.47-.05.84-.52.46-.98Zm-4.98-2.46a2.427,2.427,0,0,1,.77-.27.65.65,0,0,0,.21.35c.21.18.4.37.6.56-.5-.22-1.01-.42-1.53-.59a.147.147,0,0,0-.05-.06Zm-1.66,2.81q2.01,1.155,3.95,2.44a18.711,18.711,0,0,0-4.15-2.07C247.09,278.72,247.16,278.6,247.23,278.48Zm3.83,6.23a4.478,4.478,0,0,1-2.47-1.3,12.827,12.827,0,0,0,2.89,1.33,2.845,2.845,0,0,1-.42-.04Zm-3.85-3.22c-.09-.18-.17-.37-.24-.55a2.889,2.889,0,0,1-.18-.84c1.41,1.09,2.91,2.06,4.2,3.26-1.29-.55-2.47-1.27-3.78-1.87Zm6.24,3a.526.526,0,0,0-.11-.29,13.286,13.286,0,0,0-1.65-1.78,10.221,10.221,0,0,0,3.28,1.24,4.561,4.561,0,0,1-1.52.83Zm-5.15-7.52c1.05.72,2.1,1.43,3.12,2.18-1.13-.61-2.28-1.18-3.45-1.7a5.78,5.78,0,0,0,.33-.48Zm-38.55-44.23a.714.714,0,0,0,.26.39c1.62,1.17,3.21,2.38,4.7,3.69-2-1.23-3.95-2.52-5.92-3.78.31-.11.63-.21.97-.3Zm-6.76,5.43a.848.848,0,0,0,1.06-.44c2.3,2.59,5.51,4.16,8.34,6.15-3.24-1.5-6.2-3.54-9.36-5.2a.371.371,0,0,0-.09-.02,4.218,4.218,0,0,1,.04-.49Zm2.11,6.87a9.454,9.454,0,0,1-.65-.77c1.12.9,2.28,1.75,3.46,2.55a18.253,18.253,0,0,1-2.81-1.78Zm-1.98-3.59a7.377,7.377,0,0,1-.18-1.13c2.67,2.43,6.26,3.69,9.02,5.98a24.393,24.393,0,0,1-8.83-4.84Zm10.98,5.04a12.278,12.278,0,0,0-1.05-.98c.55.23,1.11.44,1.69.63-.21.12-.42.24-.64.34Zm-9.39-10.12c.09-.16.18-.31.27-.46,2.83,2.24,6.1,3.93,8.9,6.18-3.32-1.42-6.21-3.74-9.17-5.72Zm11.32,8.85c-.47-.46-.97-.89-1.49-1.31a17.144,17.144,0,0,0,2.21.65h.02c-.23.23-.48.45-.73.66Zm-9.93-10.65a6.985,6.985,0,0,1,.93-.68,25.907,25.907,0,0,0,4.34,3.45,37.81,37.81,0,0,0-5.27-2.78Zm11.47,9.09a.577.577,0,0,0-.13-.3,19.611,19.611,0,0,0-2.11-1.97c.77.41,1.55.8,2.36,1.14a.671.671,0,0,0,.69-.08,9.537,9.537,0,0,1-.82,1.21Zm1.38-2.32c-.07.17-.17.33-.25.49a.725.725,0,0,0-.15-.43,14.374,14.374,0,0,0-1.04-1.15c.41.21.82.42,1.24.62a.717.717,0,0,0,.34.07c-.05.12-.09.26-.14.39Zm-2.32-8.02.66.99c-.94-.62-1.83-1.31-2.74-1.97h.12a5.528,5.528,0,0,1,1.82.49.987.987,0,0,0,.15.49Zm29.8,2.52a.62.62,0,0,0,.17,1.05q1.035.375,2.04.78c-1.09-.26-2.17-.57-3.25-.86a.608.608,0,0,0-.53,1.09c-.53-.15-1.05-.29-1.58-.42a7.986,7.986,0,0,1,3.15-1.65Zm-4.01,2.51a.558.558,0,0,0,.25.23c.82.38,1.64.76,2.45,1.13a18.16,18.16,0,0,0-3.09-.87,4.573,4.573,0,0,1,.38-.49Zm-.91,1.49c.45.25.91.48,1.37.71a13.265,13.265,0,0,0-1.4-.26.164.164,0,0,0-.1.02,2.852,2.852,0,0,1,.13-.48Zm-.54,2.06a.72.72,0,0,0,.15-.27.233.233,0,0,0,.24-.28,1.14,1.14,0,0,1-.02-.26,45.386,45.386,0,0,0,6.2,3.29c-2.17-.87-4.29-1.84-6.54-2.5a.06.06,0,0,0-.04.01h0Zm3.03,3.72c-.52-.19-1.05-.38-1.36-.49l-.04-.04c.17.04.45.13.89.27.02,0,.05-.03.02-.04-.36-.27-.72-.53-1.09-.79a.24.24,0,0,0-.29,0,7.608,7.608,0,0,1-.77-1.31c1.57,1.36,3.59,2.18,5.41,3.26a27.6,27.6,0,0,1-2.77-.85Zm5.28,1.39a.4.4,0,0,0-.03-.04,32.389,32.389,0,0,0-5.45-3.44c2.22.89,4.35,2.04,6.62,2.81a4.406,4.406,0,0,1-1.13.66Zm2.04-1.59a45.112,45.112,0,0,0-6.63-3.42,57.1,57.1,0,0,0,7.01,2.67h.09a4.793,4.793,0,0,1-.48.75Zm.84-1.59a.438.438,0,0,1-.09-.05h-.01c-.96-.51-1.96-.97-2.95-1.42a15.731,15.731,0,0,0,2.91.75.474.474,0,0,0,.37-.07,7.273,7.273,0,0,1-.22.8Zm.32-1.75a.113.113,0,0,0-.05-.04c-.7-.41-1.4-.79-2.12-1.17.72.24,1.45.47,2.18.69,0,.17,0,.35-.01.52Zm7.51-14.59a1.329,1.329,0,0,1-.13-.46,7.753,7.753,0,0,1,1.59,1.23,12.889,12.889,0,0,1-1.47-.77Zm.1-1.5a3.778,3.778,0,0,1,.3-.51c.51.36,1.05.7,1.56,1.06C261.33,226.35,260.72,226.16,260.09,225.99Zm2.8,2.6a6.741,6.741,0,0,0-.87-1.05c.53.16,1.06.33,1.59.48a2.1,2.1,0,0,1-.72.58Zm-.55-3.55a1.042,1.042,0,0,0,.1.33,7.538,7.538,0,0,1-1.18-.49,1.8,1.8,0,0,1,1.13-.07.431.431,0,0,0-.04.22Z" fill="#558273"/>
          <path id="Trazado_724583" data-name="Trazado 724583" d="M223.94,57.88c-.79-.83-1.6-1.65-2.41-2.47-.17-2.59-2.76-4.84-5.43-7.32-2.87-2.66-7.01-7.16-10.4-6.16a25.17,25.17,0,0,1-2.94-2.7,1.3,1.3,0,0,0-.51-1.13,1.074,1.074,0,0,0-.33-.5c6.52-7.08,5.9-17.05-1-23.68-4.29-4.11-10.58-5.3-16.24-4.1-3.43.72-9.8,2.62-10.1,6.82-6.89,5.46-4.41,18.15,1.6,23.51,6.49,5.79,15.9,5.01,22.58.25a1.31,1.31,0,0,0,.74.34c.06.01.11.01.18.02a.487.487,0,0,0-.04.11.452.452,0,0,0,.71.5c.15-.13.32-.24.48-.36a36.4,36.4,0,0,0,2.7,2.56,8.868,8.868,0,0,0-.96,1.67,1.625,1.625,0,0,0-.28,2.31A72.462,72.462,0,0,0,217.17,60.3a1.8,1.8,0,0,0,1.32.24c.1.11.2.22.31.35a1.407,1.407,0,0,0,1.5.45,3.08,3.08,0,0,0,.31.46,2.391,2.391,0,0,0,2.19.75,2.726,2.726,0,0,0,2.15-2.81,1.236,1.236,0,0,0-.08-.75,2.91,2.91,0,0,0-.16-.5,1.1,1.1,0,0,0-.77-.63ZM198.33,36.72c-5.32,4.98-13.79,5.94-19.66,1.39-5.97-4.63-6.27-13.88-2.51-19.92a1.354,1.354,0,0,0,.6-.4c6-7.39,17.86-6.6,23.79.38,4.95,5.82,2.95,13.7-2.23,18.54Z" fill="#558273"/>
          <path id="Trazado_724584" data-name="Trazado 724584" d="M26.24,107.5a44.128,44.128,0,0,0,84.3-18.05c.92-.34,1.83-.7,2.73-1.11a39.1,39.1,0,0,0-32.36-71.2c-.71.32-1.4.67-2.07,1.02A35.928,35.928,0,0,0,26.93,63.4a33.836,33.836,0,0,0,1.64,3.17,44.108,44.108,0,0,0-2.33,40.92Zm82.05-19.63A36.952,36.952,0,0,1,74,81.48c.17-.08.35-.15.52-.22A35.871,35.871,0,0,0,94.31,57.99,41.763,41.763,0,0,1,108.3,87.87ZM66.14,56.19q-1.365,3.36-2.71,6.72c-.17.44-.73,1.39-1.05,2.26a36.237,36.237,0,0,1-1.26-4.34l.06-.27a42.456,42.456,0,0,1,1.64-4.76,53.7,53.7,0,0,1,4.21-8.41c.9.02,1.8.06,2.69.13-1.41,2.77-2.43,5.85-3.58,8.67ZM71,47.65c.93.11,1.87.24,2.79.41-2.07,3.53-2.95,7.58-4.7,11.29-1.63,3.44-3.53,6.81-4.71,10.44-.3-.58-.6-1.17-.87-1.77q-.24-.525-.45-1.05c.83-.39,1.23-2.26,1.53-2.98.88-2.18,1.74-4.36,2.6-6.54,1.28-3.26,2.59-6.5,3.81-9.78Zm-9.31,7.2c-.41.93-.79,1.89-1.13,2.85a36.971,36.971,0,0,1-.32-4.58,26.38,26.38,0,0,1,1.59-2.97,22.473,22.473,0,0,1,1.71-2.68c.86-.05,1.73-.08,2.6-.08-2.04,2-3.33,4.92-4.45,7.46Zm-1.3-5.37c.05-.57.1-1.15.18-1.72.37-.05.73-.09,1.1-.13a14.059,14.059,0,0,0-1.28,1.85Zm1.09,19.45a38.9,38.9,0,0,0,8.26,11.76,33.77,33.77,0,0,1-38.55-14.1A41.623,41.623,0,0,1,58.25,48.15a38.984,38.984,0,0,0,3.22,20.78Zm3.91,2.65a82.761,82.761,0,0,1,4.8-11.17,60.436,60.436,0,0,0,3.98-12.27c.45.09.91.17,1.37.28-.6,1.95-.89,4.04-1.34,6.02-.65,2.88-1.35,5.75-2.14,8.59-.73,2.61-1.55,5.19-2.48,7.74-.4,1.09-.84,2.18-1.29,3.25-.16.36-.36.72-.53,1.08a36.926,36.926,0,0,1-2.36-3.5Zm5.24.22a87.18,87.18,0,0,0,2.65-8.31c.69-2.54,1.27-5.11,1.77-7.69a41.974,41.974,0,0,0,1.06-7.25c.67.16,1.34.34,2,.53a14.421,14.421,0,0,0-.53,2.91c-.33,2.37-.41,4.77-.68,7.16a55.26,55.26,0,0,1-2.47,9.58c-1.03,3.39-2.2,6.73-3.54,10-.75-.76-1.48-1.56-2.17-2.38.96-1.19,1.45-3.36,1.9-4.53Zm1.53,7.55a93.261,93.261,0,0,0,3.39-9.5,72.237,72.237,0,0,0,2.49-9.59c.32-2.09.31-4.24.43-6.35.08-1.53.33-3.07.47-4.59.61.19,1.22.38,1.82.6a38.507,38.507,0,0,1-1.9,15.7c-1.54,4.86-3.94,9.26-5.95,13.89-.27.12-.53.24-.81.34l-.2-.2a.694.694,0,0,0,.27-.31Zm18.35-20.9a26.847,26.847,0,0,1-.66,5c-.33.67-.67,1.32-1.04,1.97.52-3.04,1.18-8.11.76-11.09.27.18.53.37.8.55a29.831,29.831,0,0,1,.15,3.56Zm1.02-2.72c.29.22.59.44.88.66a33.721,33.721,0,0,1-.98,3.25c.03-.5.04-1,.05-1.49s.07-1.44.05-2.43ZM86.14,69.38c-.2.26-.42.51-.63.76a39.212,39.212,0,0,0,1.83-8.17,27.111,27.111,0,0,0,.03-8.99c.23.13.46.26.69.4.51,5.28.69,11.41-1.91,16Zm.17-16.84a19.424,19.424,0,0,1,.31,2.53,34.717,34.717,0,0,1-.26,6.28,31.442,31.442,0,0,1-3.13,11.28c-.03.03-.06.05-.09.08.31-.67.54-1.37.7-1.78a30.921,30.921,0,0,0,1.6-6.97c.5-3.72.95-8.23,0-12,.28.14.56.27.83.41A1.046,1.046,0,0,0,86.31,52.54ZM84.44,63.35a35.578,35.578,0,0,1-1.52,6.78,14.037,14.037,0,0,1-1.24,2.7c-.32.53-.72.81-.67,1.44a.28.28,0,0,0,.14.22q-.84.69-1.74,1.35a55.71,55.71,0,0,0,3.03-11.22c.39-2.32.63-4.67.84-7.01a52.252,52.252,0,0,0,.38-6.5c.4.18.8.35,1.2.55a68.209,68.209,0,0,1-.42,11.69Zm-2.13-6.43q-.33,3.525-.88,7.02a57.874,57.874,0,0,1-3.8,13.12c-.86.54-1.77,1.04-2.7,1.51a74.875,74.875,0,0,0,5.16-13.1c1.44-4.77,2.47-10.16,1.6-15.18.42.17.84.33,1.26.5-.38,2-.45,4.11-.64,6.13Zm-.47-37.74a36.869,36.869,0,0,1,30.51,67.13c-.61.28-1.23.54-1.85.78A44.035,44.035,0,0,0,94.9,55.51,35.812,35.812,0,0,0,80.97,19.6c.29-.14.58-.3.88-.43Zm8.51,15.41a33.535,33.535,0,0,1,2.57,19.36,44.4,44.4,0,0,0-31.94-8.51A36.831,36.831,0,0,1,78.75,20.77a33.559,33.559,0,0,1,11.6,13.82ZM45.72,17.85a33.654,33.654,0,0,1,30.91,1.59A39.093,39.093,0,0,0,58.64,45.8,44.036,44.036,0,0,0,29.95,64.43c-.34-.63-.67-1.27-.97-1.94A33.743,33.743,0,0,1,45.72,17.86ZM29.93,68.71A36.017,36.017,0,0,0,71.65,82.42a39.187,39.187,0,0,0,36.67,7.78A41.893,41.893,0,1,1,29.93,68.71Z" fill="#558273"/>
          <g id="Grupo_1013428" data-name="Grupo 1013428">
            <path id="Trazado_724585" data-name="Trazado 724585" d="M483.4,137.39c-2.5-3.8-2.96-8.48-5.45-12.34-1.32-2.02-2.91-3.85-4.31-5.81-1.62-2.27-2.84-4.83-4.23-7.23-2.64-4.55-5.35-9.07-7.72-13.77-2.46-4.88-4.28-10.06-6.44-15.07a236.576,236.576,0,0,0-15.62-29.8c-2.66-4.35-3.27-9.71-4.94-14.46a31.635,31.635,0,0,0-2.12-4.53c-.84-1.49-2.44-3.5-2.61-5.23a.625.625,0,0,0-.33-.52.82.82,0,0,0-.46-.24.242.242,0,0,0-.35-.01l-.02.02h0c-3.75.85-6.99,2.9-10.21,4.93-3.99,2.51-8.14,4.79-12.29,7.04-8.14,4.42-16.44,8.54-24.66,12.84-8.23,4.32-16.3,8.92-24.27,13.72-3.94,2.38-7.88,4.88-11.99,6.96-1.26.64-2.43,1.48-3.62,2.22-.97.6-2.55,1.77-3.82,1.8a.662.662,0,0,0-1.17.34.653.653,0,0,0,.27.92,88.656,88.656,0,0,0,5.98,10.34q5.79,9.36,11.93,18.51c3.6,5.37,7.28,10.74,11.38,15.75.64.78,3.38,4.48,5.39,5.02a1.012,1.012,0,0,0,1.15,1.22,2.343,2.343,0,0,0,.82-.34c2.71.76,5.93.66,8.63,1.1,4.56.75,9.07,1.75,13.66,2.32,9.97,1.24,19.87,2.95,29.85,4.19,9.81,1.21,19.7,1.29,29.55,1.79,8.9.45,17.98,2.88,26.85,1.03a.872.872,0,0,0,.55-1.35.883.883,0,0,0,.65-1.36ZM374.34,125.56a12.383,12.383,0,0,1-1.11,1.94.614.614,0,0,0-.55-.31c.2,0-.32-.16-.62-.32a7.56,7.56,0,0,1-1.53-1.24,46.369,46.369,0,0,1-4.21-4.87c-4.08-5.19-7.77-10.69-11.41-16.19-5.14-7.74-9.95-15.68-14.95-23.5,1.48.38,2.98.71,4.45,1.04a34.9,34.9,0,0,0,5.6,1.19.244.244,0,0,0,.17-.41,9.568,9.568,0,0,0-4.38-2.22,7.263,7.263,0,0,0-2.98-.39c-.99.1-2.5-.61-3.69-1.01a17.223,17.223,0,0,0,4.53-2.22c3.32-1.93,6.7-3.76,10.02-5.71,8.27-4.87,16.47-9.83,24.93-14.38,8.43-4.53,17.01-8.77,25.47-13.25,4.21-2.23,8.37-4.53,12.48-6.94,3.12-1.83,6.13-4.03,9.48-5.46-5.39,6.27-9.1,14.21-12.66,21.51-5.17,10.61-11.2,20.92-17.19,31.08-5.76,9.78-11.67,19.45-16.54,29.72-1.2,2.54-2.22,5.17-3.33,7.76-.61,1.42-1.26,2.82-1.98,4.19Zm106.13,12.92a.5.5,0,0,0-.05-.07,74.6,74.6,0,0,0-5.97-4.8c-1.75-1.29-3.87-3.55-6.02-3.99-.23-.05-.52.15-.42.41.76,1.94,3.08,3.23,4.67,4.49,1.77,1.4,3.52,2.81,5.26,4.26-7.48.6-15.16-1.23-22.59-1.62-9.86-.52-19.74-.63-29.56-1.79-9.67-1.15-19.23-3.16-28.92-4.09-5.03-.48-9.97-1.69-14.97-2.46a48.3,48.3,0,0,0-6.98-.4,21.3,21.3,0,0,0,1.72-3.19c1.43-2.89,2.56-5.92,3.83-8.89,3.61-8.46,8.37-16.52,13.13-24.43a.854.854,0,0,0,.49.13,21.04,21.04,0,0,1,4.27.26,9.687,9.687,0,0,0,3.67.21.341.341,0,0,0,.16-.56c-1.65-1.6-5.19-1.81-7.56-1.74.43-.71.85-1.42,1.28-2.12,6.26-10.41,12.11-21.07,17.78-31.81,4.3-8.14,8.55-16.18,13.32-24.02-.2,1.12-.3,2.26-.4,3.38-.13,1.57-.64,3.94.53,5.17a.39.39,0,0,0,.6-.07c.8-1.2.31-2.98.33-4.38.03-1.99.4-3.95.47-5.93l.16-.04c.33,2.57,2.47,5.19,3.49,7.35,2.06,4.37,2.52,9.32,4.42,13.76,2.11,4.93,5.45,9.41,8.02,14.11,2.86,5.24,5.45,10.61,7.89,16.05,2.26,5.03,4.13,10.22,6.42,15.24a164.862,164.862,0,0,0,7.96,14.6,140.447,140.447,0,0,0,8.45,13.18,24.226,24.226,0,0,1,3.69,7.38,24.829,24.829,0,0,0,2.65,6.2c-.41.08-.82.15-1.23.22Z" fill="#558273"/>
            <path id="Trazado_724586" data-name="Trazado 724586" d="M432.11,100.34c-.68-1.27-2.59-2.33-3.71-3.23a18.711,18.711,0,0,0-2.71-1.88c.47-.94.15-2.3.18-3.33a18.79,18.79,0,0,0-.02-4.68.587.587,0,0,0-1.13,0,24.021,24.021,0,0,0-.33,3.39c-.06.71-.1,1.41-.14,2.12,0,.17.03.69.03,1.15-.12,0-.25.06-.26.18a.186.186,0,0,1-.02.07l-.01.02a7.021,7.021,0,0,0-1.97-.57c-1.45-.27-2.94-.3-4.4-.53-1.18-.18-1.71,1.6-.5,1.82a39.513,39.513,0,0,0,4.19.48c.54.04,1.13.11,1.71.13a.75.75,0,0,0,.33.39,29.6,29.6,0,0,1,4.5,3.2c.91.76,2.12,2.26,3.33,2.47a.829.829,0,0,0,.93-1.2Z" fill="#558273"/>
            <path id="Trazado_724587" data-name="Trazado 724587" d="M412.87,93.52a5.229,5.229,0,0,0-3.04-1.42,7.248,7.248,0,0,0-3.86-.16c-.63.23-.84,1.35,0,1.48,1.14.17,2.28.08,3.43.27,1.1.18,2.3.59,3.38.19a.219.219,0,0,0,.1-.36Z" fill="#558273"/>
            <path id="Trazado_724588" data-name="Trazado 724588" d="M389.54,89.63a11.162,11.162,0,0,0-3.34-.79,16.808,16.808,0,0,0-3.74-.29.925.925,0,0,0,0,1.85c2.24.03,4.52.5,6.76.4.57-.03.93-.89.32-1.17Z" fill="#558273"/>
            <path id="Trazado_724589" data-name="Trazado 724589" d="M377.62,88.54a8.933,8.933,0,0,0-4.18-1.24,42.693,42.693,0,0,0-5.29-.53c-.9-.02-1.12,1.4-.22,1.58a35.056,35.056,0,0,0,4.57.48,15.681,15.681,0,0,0,5.07,0,.153.153,0,0,0,.04-.28Z" fill="#558273"/>
            <path id="Trazado_724590" data-name="Trazado 724590" d="M364.82,86.27c-2.78-2.11-6.63-2.89-10.03-3.42a.753.753,0,0,0-.4,1.45c3.27,1.23,6.97,1.25,10.33,2.21A.132.132,0,0,0,364.82,86.27Z" fill="#558273"/>
            <path id="Trazado_724591" data-name="Trazado 724591" d="M427.01,54.12c-.25-3.34.74-6.68.4-9.98a.5.5,0,0,0-.97-.13,33.585,33.585,0,0,0-1.16,10.12c.08,1.1,1.82,1.11,1.73,0Z" fill="#558273"/>
            <path id="Trazado_724592" data-name="Trazado 724592" d="M426.41,69.94a47.732,47.732,0,0,1,.51-5.47c.19-1.64.75-3.97,0-5.53a.5.5,0,0,0-.91.11,40.245,40.245,0,0,0-.8,5.71,25.867,25.867,0,0,0-.59,5.18.914.914,0,0,0,.62.85.594.594,0,0,0,.8-.13A.9.9,0,0,0,426.41,69.94Z" fill="#558273"/>
            <path id="Trazado_724593" data-name="Trazado 724593" d="M426.39,82.97a20.1,20.1,0,0,1-.06-5.2c.05-1.3.2-2.98-.51-4.14a.307.307,0,0,0-.57.15c-.2,3.11-1.06,6.54-.53,9.63a.853.853,0,0,0,1.43.39.844.844,0,0,0,.23-.84Z" fill="#558273"/>
            <path id="Trazado_724594" data-name="Trazado 724594" d="M442.04,107.78c-1.32-.89-2.58-1.89-3.86-2.84a6.909,6.909,0,0,0-1.82-1.1c-.34-.11-.61.05-.84.01-.07-.02-.12.04-.11.11h0a.091.091,0,0,0,.18,0c0,.21-.2.48.18.9a13.126,13.126,0,0,0,1.64,1.52c1.22,1,2.44,2.01,3.74,2.91.92.64,1.83-.88.9-1.51Z" fill="#558273"/>
            <path id="Trazado_724595" data-name="Trazado 724595" d="M450.79,115.07c-1.65-1.35-3.29-3.19-5.19-4.18a.338.338,0,0,0-.47.45c.64,1.21,7.03,7.94,8.25,6.46.68-.83-2.18-2.41-2.59-2.73Z" fill="#558273"/>
            <path id="Trazado_724596" data-name="Trazado 724596" d="M465.1,127.69c-.74-1.87-3.25-3.37-4.79-4.6-1.31-1.04-3.38-2.92-5.19-2.52a.282.282,0,0,0-.17.4c1.02,1.53,3.2,2.57,4.59,3.79,1.35,1.18,2.92,3.37,4.71,3.77.46.1,1.05-.32.85-.84Z" fill="#558273"/>
          </g>
          <path id="Trazado_724597" data-name="Trazado 724597" d="M13.04,365.25c3.07-.75,6.07-1.51,9.03-2.51a16.358,16.358,0,0,1,8.66-17.15,31.545,31.545,0,0,1,11.32-3.32c4.28-.52,9.04-.53,12.99-2.49.06-.03.1.06.05.1-2.87,1.72-6.36,2.17-9.6,2.78a52.051,52.051,0,0,0-11.36,3.15,18.173,18.173,0,0,0-8.32,6.53c-1.89,2.92-2.12,6.39-1.95,9.75.26-.1.51-.19.77-.29a81.532,81.532,0,0,0,11.35-5.73c3.82-2.28,7.41-4.89,11.08-7.39,3.52-2.4,6.57-5.36,9.84-8.08.28-.23.58.16.35.41-2.87,3.13-6.2,5.82-9.36,8.65a75.9,75.9,0,0,1-10.6,7.74,82.491,82.491,0,0,1-13.15,6.72c6.1,2.97,12.98,6.02,19.71,3.39,10.43-4.08,8.69-16.92,12.95-25.24,0-.02.05,0,.04.01a146.688,146.688,0,0,1-3.98,16.43c-.75,2.32-1.57,4.94-3.14,6.84a13.472,13.472,0,0,1-5.08,3.61c-7.17,3.08-16.49-.19-22.72-4.23a44.217,44.217,0,0,1-8.55,2.08.892.892,0,0,1-.34-1.75Z" fill="#558273"/>
          <path id="Trazado_724598" data-name="Trazado 724598" d="M199.6,152.06c-3.13.42-6.2.84-9.25,1.52a16.361,16.361,0,0,1-10.46,16.12,31.733,31.733,0,0,1-11.62,2.08c-4.32.06-9.05-.44-13.18,1.07a.054.054,0,0,1-.04-.1c3.04-1.4,6.56-1.47,9.84-1.73a52.035,52.035,0,0,0,11.63-1.91,18.18,18.18,0,0,0,8.97-5.59c2.2-2.7,2.79-6.12,2.99-9.49-.27.07-.53.13-.8.21a82.745,82.745,0,0,0-11.9,4.47c-4.04,1.85-7.9,4.06-11.82,6.15-3.76,2.01-7.11,4.62-10.65,6.97-.3.2-.56-.22-.31-.45,3.2-2.8,6.79-5.12,10.24-7.59a75.5,75.5,0,0,1,11.37-6.55,81.681,81.681,0,0,1,13.8-5.26c-5.75-3.61-12.26-7.38-19.23-5.5-10.81,2.93-10.47,15.89-15.6,23.7-.01.02-.05,0-.04-.02a146.353,146.353,0,0,1,5.73-15.91c1-2.22,2.09-4.75,3.86-6.46a13.629,13.629,0,0,1,5.44-3.04c7.46-2.29,16.38,1.96,22.13,6.66a43.628,43.628,0,0,1,8.72-1.14.889.889,0,0,1,.15,1.77Z" fill="#558273"/>
          <path id="Trazado_724599" data-name="Trazado 724599" d="M350.51,176.06c-.38-.94-1.6-1.68-2.36-2.3-1.04-.84-2.09-1.66-3.13-2.49a26.1,26.1,0,0,0-.19-17.44,29.139,29.139,0,0,0-4.46-7.64,33.139,33.139,0,0,0-7.15-6.94.269.269,0,0,0-.38.11c-3.78-2.61-8.96-2.69-13.32-1.9a24.086,24.086,0,0,0-12.05,5.97c-5.85,5.37-10.07,13.42-10.15,21.45a17.644,17.644,0,0,0,3.44,10.79,39.092,39.092,0,0,0,11.71,10.66,18.812,18.812,0,0,0,7.18,2.31,30.229,30.229,0,0,0,7.77-.44c5-.81,9.81-2.94,12.95-7.03.24-.31.46-.65.68-.98a.648.648,0,0,0,.19-.02c1.57-.52,3.08-1.16,4.61-1.79s3.25-1.03,4.7-1.8a.285.285,0,0,0-.04-.52Zm-4.34,1.29c-1.75.7-3.48,1.46-5.28,2.06-.02,0-.03.02-.05.02a.356.356,0,0,0-.41.17c-3.07,4.82-8.31,7.05-13.78,7.88a26.3,26.3,0,0,1-8.21.16,19.62,19.62,0,0,1-7.69-3.35,38.278,38.278,0,0,1-6.31-5.62,28.3,28.3,0,0,1-4.42-5.69,18.448,18.448,0,0,1-1.51-11.86,31.116,31.116,0,0,1,10.55-17.95c6.37-5.37,17.08-7.49,24.28-2.59a.3.3,0,0,0,.43-.06,71.592,71.592,0,0,1,5.63,5.79,29.575,29.575,0,0,1,4.49,7.42c2.39,5.78,2.02,11.9.2,17.78a.43.43,0,0,0,.57.52c.89.76,1.82,1.48,2.73,2.21.7.56,1.4,1.39,2.18,1.92a18.538,18.538,0,0,0-3.4,1.21Z" fill="#558273"/>
          <path id="Trazado_724600" data-name="Trazado 724600" d="M309.56,164.37c1.93-5.81,3.48-11.6,5.99-17.21.3-.68-.68-1.4-1.22-.86a15.045,15.045,0,0,1-3.97,3.37.492.492,0,0,0,.29.93,4.068,4.068,0,0,0,1.75-.65c-1.9,4.41-2.9,9.26-4.39,13.76-.55.87,1.15,1.81,1.54.65Z" fill="#558273"/>
          <path id="Trazado_724601" data-name="Trazado 724601" d="M326.21,156.39a8.168,8.168,0,0,0,.51-5.62c-.55-1.5-2.57-2.27-3.73-1.34a2.631,2.631,0,0,0-2.16.43c-2.09,1.34-3.46,3.8-4.54,5.97-1.11,2.25-3.87,10.37,1.36,10.04,4.17-.26,7.25-6.15,8.56-9.48Zm-8.42,7.93c-3.52.84-.76-6.54-.27-7.62.64-1.4,2.7-5.72,4.83-6.2a.47.47,0,0,0,.65.34,3.746,3.746,0,0,1,.53-.22.113.113,0,0,0,.08-.03c3.33-1.05.97,5.58.35,6.88-1.14,2.4-3.36,6.17-6.17,6.84Z" fill="#558273"/>
          <path id="Trazado_724602" data-name="Trazado 724602" d="M336.76,156.45c.09-2.37-1.72-5.2-4.35-3.53-.32.2-.09.69.23.72,1.04.1,1.88-.15,2.37.99a5.77,5.77,0,0,1,.13,2.89,12.3,12.3,0,0,1-1.86,5.28,6.519,6.519,0,0,1-4.16,2.44c-3.1.58-2.56-3.39-2.08-5.21.76-2.91,3.07-4.94,4.98-7.1.28-.31-.16-.78-.51-.61a12.251,12.251,0,0,0-6.33,11.02c.2,4.85,5.66,3.57,8.27,1.47,2.32-1.86,3.2-5.56,3.31-8.38Z" fill="#558273"/>
          <path id="Trazado_724603" data-name="Trazado 724603" d="M328.8,169.64a1.455,1.455,0,0,0-2.06.36c-.01.02-.02.03-.03.05-1.79.24-3.94-.07-5.59.05-1.75.14-3.46.42-5.19.71-.7.12-2.42.14-2.89.8-.27.38-.32.79.17.97a.313.313,0,0,0,.34-.07,2.309,2.309,0,0,0,.32-.06c.48-.1.99-.14,1.47-.21,1-.14,2-.3,3-.42a46.028,46.028,0,0,1,6.64-.35,9.349,9.349,0,0,0,3.87-.34c.74-.29.5-1.19-.06-1.48Z" fill="#558273"/>
          <path id="Trazado_724604" data-name="Trazado 724604" d="M330.35,173.81c-3.76-1.43-8.78-.96-12.61,0-.49.12-.36.89.14.78,4.21-.95,8.23-.13,12.44-.34.24,0,.23-.36.04-.43Z" fill="#558273"/>
          <path id="Trazado_724605" data-name="Trazado 724605" d="M332.63,175.3a.445.445,0,0,0-.51.73A.445.445,0,0,0,332.63,175.3Z" fill="#558273"/>
        </g>
      </g>
    </g>
  </g>
</svg>
