<svg id="Grupo_1013869" data-name="Grupo 1013869" xmlns="http://www.w3.org/2000/svg" xmlns:xlink="http://www.w3.org/1999/xlink" width="14.515" height="19.307" viewBox="0 0 14.515 19.307">
  <defs>
    <clipPath id="clip-path">
      <rect id="Rectángulo_344336" data-name="Rectángulo 344336" width="14.515" height="19.307" fill="#005b8b"/>
    </clipPath>
  </defs>
  <g id="Grupo_896441" data-name="Grupo 896441" clip-path="url(#clip-path)">
    <path id="Trazado_694308" data-name="Trazado 694308" d="M8.489,103.409a2.491,2.491,0,0,0,2.519-.072,2.469,2.469,0,0,0,3.506,1.272c-.035.44-.035.846-.1,1.24A5.942,5.942,0,0,1,9.6,110.822a5.486,5.486,0,0,1-1.047.116c-.964.007-1.929.016-2.891-.032a5.692,5.692,0,0,1-3.652-1.6,5.69,5.69,0,0,1-1.778-2.6,6.9,6.9,0,0,1-.159-2.768,2.357,2.357,0,0,1,2.389-2.03c1.1-.021,2.2-.015,3.3,0a1.506,1.506,0,0,1,1.463,1.159,1.476,1.476,0,0,1-.787,1.665,1.95,1.95,0,0,1-.773.17c-.653.023-1.308,0-1.962.01a.613.613,0,0,0-.583.929.549.549,0,0,0,.5.283c.838,0,1.68.032,2.512-.043a2.6,2.6,0,0,0,2.332-2.414c.007-.074.018-.147.032-.257" transform="translate(0 -91.637)" fill="#005b8b"/>
    <path id="Trazado_694309" data-name="Trazado 694309" d="M14.575,9.029H12.2V8.7q0-3.758,0-7.516A1.158,1.158,0,0,1,13.374,0a1.143,1.143,0,0,1,1.214,1.112q.008,3.884,0,7.768c0,.042-.007.083-.013.15" transform="translate(-10.967 0)" fill="#005b8b"/>
    <path id="Trazado_694310" data-name="Trazado 694310" d="M86.589,62.412c0,.41,0,.821,0,1.231A1.15,1.15,0,0,1,85.4,64.809a1.162,1.162,0,0,1-1.209-1.174q0-1.231,0-2.462a1.162,1.162,0,0,1,1.2-1.179,1.151,1.151,0,0,1,1.191,1.162c0,.419,0,.837,0,1.256" transform="translate(-75.718 -53.955)" fill="#005b8b"/>
    <path id="Trazado_694311" data-name="Trazado 694311" d="M122.591,74.4c0,.41,0,.821,0,1.231a1.2,1.2,0,0,1-2.395-.012q0-1.218,0-2.437a1.2,1.2,0,0,1,2.395-.013c0,.41,0,.821,0,1.231" transform="translate(-108.097 -64.749)" fill="#005b8b"/>
    <path id="Trazado_694312" data-name="Trazado 694312" d="M50.591,50.1c0,.31,0,.62,0,.929a1.2,1.2,0,0,1-2.395-.01q0-.917,0-1.834a1.2,1.2,0,0,1,2.395-.016c0,.31,0,.62,0,.929" transform="translate(-43.345 -43.166)" fill="#005b8b"/>
  </g>
</svg>
