<svg xmlns="http://www.w3.org/2000/svg" xmlns:xlink="http://www.w3.org/1999/xlink" width="85" height="79" viewBox="0 0 85 79">
  <defs>
    <filter id="Elipse_7683" x="6" y="2" width="77" height="77" filterUnits="userSpaceOnUse">
      <feOffset dy="3" input="SourceAlpha"/>
      <feGaussianBlur stdDeviation="3" result="blur"/>
      <feFlood flood-opacity="0.161"/>
      <feComposite operator="in" in2="blur"/>
      <feComposite in="SourceGraphic"/>
    </filter>
  </defs>
  <g id="Grupo_1006100" data-name="Grupo 1006100" transform="translate(-180 -845)">
    <rect id="Rectángulo_345654" data-name="Rectángulo 345654" width="85" height="75" rx="5" transform="translate(180 845)" fill="#4db1f0"/>
    <g id="Grupo_1003781" data-name="Grupo 1003781" transform="translate(195.197 853.281)">
      <g transform="matrix(1, 0, 0, 1, -15.2, -8.28)" filter="url(#Elipse_7683)">
        <circle id="Elipse_7683-2" data-name="Elipse 7683" cx="29.5" cy="29.5" r="29.5" transform="translate(15 8)" fill="#bfe5f9"/>
      </g>
    </g>
    <g id="interprete" transform="translate(194 856)">
      <g id="Grupo_1014243" data-name="Grupo 1014243" transform="translate(1.903 1.903)">
        <g id="Grupo_1014225" data-name="Grupo 1014225" transform="translate(41.548 50.4)">
          <path id="Trazado_730207" data-name="Trazado 730207" d="M55.226,57.8v3.794H48v-3.55l4.516-.018,1.012-.009A6.58,6.58,0,0,0,55.226,57.8Z" transform="translate(-48 -57.8)" fill="#0353ad"/>
        </g>
        <g id="Grupo_1014226" data-name="Grupo 1014226" transform="translate(39.742 27.187)">
          <path id="Trazado_730208" data-name="Trazado 730208" d="M49.613,48.268a1.82,1.82,0,0,0-1.806,1.806V41.042H46L47.626,32.1A14.431,14.431,0,0,1,60.452,46.461v1.915a7.142,7.142,0,0,1-5.419,6.937,6.58,6.58,0,0,1-1.7.217l-1.012.009V50.074L51.049,48.8a1.812,1.812,0,0,0-1.283-.533Z" transform="translate(-46 -32.1)" fill="#006bda"/>
        </g>
        <g id="Grupo_1014227" data-name="Grupo 1014227" transform="translate(32.516 31.613)">
          <path id="Trazado_730209" data-name="Trazado 730209" d="M41.613,37l3.613,4.516H38Z" transform="translate(-38 -37)" fill="#0353ad"/>
        </g>
        <g id="Grupo_1014228" data-name="Grupo 1014228" transform="translate(23.484 50.373)">
          <path id="Trazado_730210" data-name="Trazado 730210" d="M35.226,57.978v3.613H28V57.77a7,7,0,0,0,1.7.208Z" transform="translate(-28 -57.77)" fill="#0353ad"/>
        </g>
        <g id="Grupo_1014229" data-name="Grupo 1014229" transform="translate(23.484 36.129)">
          <path id="Trazado_730211" data-name="Trazado 730211" d="M35.226,49.975v1.057H30.71A2.706,2.706,0,0,1,28,48.323V42a1.776,1.776,0,0,0,.533,1.274Z" transform="translate(-28 -42)" fill="#0353ad"/>
        </g>
        <g id="Grupo_1014230" data-name="Grupo 1014230" transform="translate(18.065 27.187)">
          <path id="Trazado_730212" data-name="Trazado 730212" d="M27.419,55.286A7.121,7.121,0,0,1,22,48.376V46.461a14.366,14.366,0,0,1,3.4-9.3c-.009-.009,0-.009,0-.009a14.426,14.426,0,0,1,9.43-5.049l1.626,8.942H34.645v2.863L30.5,39.768a1.806,1.806,0,0,0-3.08,1.274v6.323a2.706,2.706,0,0,0,2.71,2.71h4.516v5.419H29.117a7,7,0,0,1-1.7-.208Z" transform="translate(-22 -32.1)" fill="#006bda"/>
        </g>
        <g id="Grupo_1014231" data-name="Grupo 1014231" transform="translate(36.129 27.097)">
          <path id="Trazado_730213" data-name="Trazado 730213" d="M47.239,32.09l-1.626,8.942L42,36.516,45.613,32A13.793,13.793,0,0,1,47.239,32.09Z" transform="translate(-42 -32)" fill="#0353ad"/>
        </g>
        <g id="Grupo_1014232" data-name="Grupo 1014232" transform="translate(30.89 27.097)">
          <path id="Trazado_730214" data-name="Trazado 730214" d="M37.826,32l3.613,4.516-3.613,4.516L36.2,32.09A13.793,13.793,0,0,1,37.826,32Z" transform="translate(-36.2 -32)" fill="#0353ad"/>
        </g>
        <g id="Grupo_1014233" data-name="Grupo 1014233" transform="translate(0 0)">
          <path id="Trazado_730215" data-name="Trazado 730215" d="M20.308,2H5.369A3.361,3.361,0,0,0,2,5.369a2.778,2.778,0,0,0,.036.479l1.355,9.511a3.376,3.376,0,0,0,3.342,2.9h4.3L14.275,21.5a1.277,1.277,0,0,0,2.177-.9V18.258h2.493a3.376,3.376,0,0,0,3.342-2.9l1.355-9.511a2.778,2.778,0,0,0,.036-.479A3.369,3.369,0,0,0,20.308,2Z" transform="translate(-2 -2)" fill="#e6e9ed"/>
        </g>
        <g id="Grupo_1014234" data-name="Grupo 1014234" transform="translate(0 27.097)">
          <path id="Trazado_730216" data-name="Trazado 730216" d="M11.032,48.258h-4.3a3.376,3.376,0,0,1-3.342-2.9L2.036,35.848A2.778,2.778,0,0,1,2,35.369,3.361,3.361,0,0,1,5.369,32H20.308a3.369,3.369,0,0,1,3.369,3.369,2.778,2.778,0,0,1-.036.479l-.181,1.292s-.009,0,0,.009a14.366,14.366,0,0,0-3.4,9.3v1.806H16.452V50.6a1.277,1.277,0,0,1-2.177.9Z" transform="translate(-2 -32)" fill="#e6e9ed"/>
        </g>
        <g id="Grupo_1014235" data-name="Grupo 1014235" transform="translate(23.484 34.323)">
          <path id="Trazado_730217" data-name="Trazado 730217" d="M35.226,44.67v5.112l-6.693-6.7a1.8,1.8,0,1,1,2.547-2.547Z" transform="translate(-28 -40)" fill="#aab2bd"/>
        </g>
        <g id="Grupo_1014236" data-name="Grupo 1014236" transform="translate(30.71 36.129)">
          <path id="Trazado_730218" data-name="Trazado 730218" d="M46.839,56.515v3.55H36V42H46.839v9.032a2.714,2.714,0,0,0-2.71,2.719v.072A2.7,2.7,0,0,0,46.839,56.515Z" transform="translate(-36 -42)" fill="#e6e9ed"/>
        </g>
        <g id="Grupo_1014237" data-name="Grupo 1014237" transform="translate(25.29)">
          <path id="Trazado_730219" data-name="Trazado 730219" d="M37.406,9.768l-1.319.443a3.6,3.6,0,0,0-2.475,3.423v1.915h-.9a2.717,2.717,0,0,0-1.861.741A10.212,10.212,0,0,1,40.215,2h1.246a10.212,10.212,0,0,1,9.366,14.289,2.717,2.717,0,0,0-1.861-.741h-.9v-.9a1.812,1.812,0,0,0-1.806-1.806H40.839C38.8,12.839,37.786,11.3,37.406,9.768Z" transform="translate(-30 -2)" fill="#fcd770"/>
        </g>
        <g id="Grupo_1014238" data-name="Grupo 1014238" transform="translate(32.516 24.369)">
          <path id="Trazado_730220" data-name="Trazado 730220" d="M44.684,28.98l.542,2.728-3.613,4.516L38,31.708l.542-2.728c.117.009.235.018.361.018h5.419C44.449,29,44.566,28.989,44.684,28.98Z" transform="translate(-38 -28.98)" fill="#f0d0b4"/>
        </g>
        <g id="Grupo_1014239" data-name="Grupo 1014239" transform="translate(43.355 13.548)">
          <path id="Trazado_730221" data-name="Trazado 730221" d="M52.818,17.795A2.708,2.708,0,0,1,50.9,22.419H50V17h.9a2.717,2.717,0,0,1,1.861.741l.054.054Z" transform="translate(-50 -17)" fill="#f0d0b4"/>
        </g>
        <g id="Grupo_1014240" data-name="Grupo 1014240" transform="translate(25.29 13.548)">
          <path id="Trazado_730222" data-name="Trazado 730222" d="M33.613,17v5.419h-.9a2.71,2.71,0,0,1,0-5.419Z" transform="translate(-30 -17)" fill="#f0d0b4"/>
        </g>
        <g id="Grupo_1014241" data-name="Grupo 1014241" transform="translate(28.903 7.768)">
          <path id="Trazado_730223" data-name="Trazado 730223" d="M48.452,16.381V22.7A4.518,4.518,0,0,1,44.3,27.2c-.117.009-.235.018-.361.018H38.516c-.126,0-.244-.009-.361-.018A4.518,4.518,0,0,1,34,22.7V14.466a3.6,3.6,0,0,1,2.475-3.423l1.319-.443c.379,1.535,1.391,3.071,3.432,3.071h5.419a1.812,1.812,0,0,1,1.806,1.806Z" transform="translate(-34 -10.6)" fill="#f0d0b4"/>
        </g>
        <g id="Grupo_1014242" data-name="Grupo 1014242" transform="translate(38.839 43.355)">
          <path id="Trazado_730224" data-name="Trazado 730224" d="M47.71,57.289A2.7,2.7,0,0,1,45,54.6v-.072a2.714,2.714,0,0,1,2.71-2.719A1.82,1.82,0,0,1,49.516,50h.154a1.812,1.812,0,0,1,1.283.533l1.274,1.274v5.465Z" transform="translate(-45 -50)" fill="#f0d0b4"/>
        </g>
      </g>
      <g id="Grupo_1014244" data-name="Grupo 1014244" transform="translate(1 1)">
        <path id="Trazado_730225" data-name="Trazado 730225" d="M13.613,35A3.617,3.617,0,0,0,10,38.613v7.226h1.806V42.226h3.613v3.613h1.806V38.613A3.617,3.617,0,0,0,13.613,35Zm-1.806,5.419V38.613a1.806,1.806,0,1,1,3.613,0v1.806Z" transform="translate(-1.871 -4.29)"/>
        <path id="Trazado_730226" data-name="Trazado 730226" d="M12.249,12.7a13.33,13.33,0,0,1-2.907,2.369l.929,1.549A15.113,15.113,0,0,0,13.419,14.1a15.137,15.137,0,0,0,3.148,2.515l.929-1.549A13.287,13.287,0,0,1,14.59,12.7a15.112,15.112,0,0,0,2.18-4.083h2.068V6.806H14.323V5H12.516V6.806H8V8.613h2.068A15.111,15.111,0,0,0,12.249,12.7Zm1.171-1.456A13.36,13.36,0,0,1,12,8.613h2.835A13.31,13.31,0,0,1,13.419,11.239Z" transform="translate(-1.677 -1.387)"/>
        <path id="Trazado_730227" data-name="Trazado 730227" d="M2.4,15.393a4.3,4.3,0,0,0,4.233,3.672h3.926l2.974,2.974A2.18,2.18,0,0,0,17.258,20.5V19.065h1.591a4.3,4.3,0,0,0,4.233-3.672l1.359-9.512a4.377,4.377,0,0,0,.042-.605A4.281,4.281,0,0,0,20.208,1H5.276A4.274,4.274,0,0,0,1.043,5.881ZM5.276,2.806H20.207a2.473,2.473,0,0,1,2.47,2.469,2.517,2.517,0,0,1-.024.35l-1.358,9.512a2.483,2.483,0,0,1-2.446,2.121h-3.4V20.5a.388.388,0,0,1-.639.265l-3.5-3.5H6.635A2.482,2.482,0,0,1,4.19,15.137L2.832,5.626a2.389,2.389,0,0,1-.025-.35A2.473,2.473,0,0,1,5.276,2.806Z" transform="translate(-1 -1)"/>
        <path id="Trazado_730229" data-name="Trazado 730229" d="M42.389,28.115,42.166,27a5.425,5.425,0,0,0,3.995-5.223,3.617,3.617,0,0,0,3.613-3.613,3.58,3.58,0,0,0-.72-2.142A11.089,11.089,0,0,0,38.653,1h-1.24a11.088,11.088,0,0,0-10.4,15.018A3.6,3.6,0,0,0,29.9,21.774,5.425,5.425,0,0,0,33.9,27l-.223,1.117a15.282,15.282,0,0,0-9.249,3.693A4.27,4.27,0,0,0,20.208,28.1H5.276a4.274,4.274,0,0,0-4.233,4.881L2.4,42.489a4.3,4.3,0,0,0,4.233,3.673h3.926l2.974,2.974a2.18,2.18,0,0,0,3.722-1.542V46.161H19.1a8.031,8.031,0,0,0,5.38,6.786V57h27.1V52.972A8.072,8.072,0,0,0,57,45.371V43.452A15.374,15.374,0,0,0,42.389,28.115Zm4.675,23.513-3.615.019a1.682,1.682,0,0,1-1.275-.523,1.828,1.828,0,0,1-.529-1.342,1.807,1.807,0,0,1,1.806-1.814h.9v-.9a.9.9,0,0,1,.9-.9h.154a.9.9,0,0,1,.639.265l1.013,1.013Zm-15.355-7.8-5.155-5.155a.9.9,0,0,1,0-1.277.916.916,0,0,1,1.277,0l3.878,3.878ZM26.29,40.961l5.2,5.2H28.1a1.808,1.808,0,0,1-1.806-1.806ZM40.363,27.194l.314,1.571L38.032,32.07l-2.645-3.306.314-1.571ZM34,29.924l2.873,3.592-1.922,2.4-1.088-5.987Zm4.03,5.038,1.733,2.167H36.3Zm4.516,3.973v7.346a3.584,3.584,0,0,0-1.651.938,3.647,3.647,0,0,0-1.059,2.633,3.565,3.565,0,0,0,2.71,3.477v1.865H33.516V38.935Zm-3.359-5.419,2.873-3.592.138.007-1.088,5.987Zm6.972-13.548V16.355a1.806,1.806,0,1,1,0,3.613ZM28.1,18.161A1.808,1.808,0,0,1,29.9,16.355v3.613A1.808,1.808,0,0,1,28.1,18.161ZM29.9,13.539v1.009a3.59,3.59,0,0,0-1.4.283A9.3,9.3,0,0,1,37.412,2.806h1.24A9.3,9.3,0,0,1,47.56,14.83a3.606,3.606,0,0,0-1.4-.282,2.713,2.713,0,0,0-2.71-2.71H38.032c-2.143,0-2.71-2.364-2.71-3.613v-.9H33.516v.9a7,7,0,0,0,.051.837l-.575.191A4.512,4.512,0,0,0,29.9,13.539Zm1.806,8.235V13.539a2.706,2.706,0,0,1,1.853-2.571l.461-.154a4.266,4.266,0,0,0,4.009,2.83h5.419a.9.9,0,0,1,.9.9v7.226a3.617,3.617,0,0,1-3.613,3.613H35.323a3.617,3.617,0,0,1-3.613-3.613ZM15.452,44.355v3.239a.388.388,0,0,1-.639.265l-3.5-3.5H6.635A2.482,2.482,0,0,1,4.19,42.234L2.832,32.723a2.389,2.389,0,0,1-.025-.35A2.473,2.473,0,0,1,5.276,29.9H20.207a2.473,2.473,0,0,1,2.47,2.469,2.517,2.517,0,0,1-.024.35l-.153,1.07a15.278,15.278,0,0,0-3.436,9.659v.9Zm5.419,1.016V43.452a13.561,13.561,0,0,1,11.192-13.33l1.274,7.007H31.71v1.588l-2.6-2.6a2.773,2.773,0,0,0-3.831,0,2.69,2.69,0,0,0-.794,1.916v6.323A3.617,3.617,0,0,0,28.1,47.968H31.71v3.613H27.081a6.217,6.217,0,0,1-6.21-6.21Zm5.419,7.976c.26.025.524.04.79.04H31.71v1.806H26.29Zm23.484,1.846H44.355V53.448l4.634-.024c.266,0,.527-.017.786-.044Zm5.419-9.823a6.261,6.261,0,0,1-6.215,6.247h-.107V47.839a3.61,3.61,0,0,0,2.71-3.485V38.032H49.774v6.323a1.809,1.809,0,0,1-1.465,1.774l-.98-.98a2.69,2.69,0,0,0-1.917-.794h-.154a2.7,2.7,0,0,0-.9.158V37.129H42.727L44,30.122a13.561,13.561,0,0,1,11.193,13.33Z" transform="translate(-1 -1)"/>
      </g>
    </g>
  </g>
</svg>
