<svg xmlns="http://www.w3.org/2000/svg" xmlns:xlink="http://www.w3.org/1999/xlink" width="96" height="96" viewBox="0 0 96 96">
  <defs>
    <filter id="Elipse_7683" x="0" y="0" width="96" height="96" filterUnits="userSpaceOnUse">
      <feOffset dy="3" input="SourceAlpha"/>
      <feGaussianBlur stdDeviation="3" result="blur"/>
      <feFlood flood-opacity="0.161"/>
      <feComposite operator="in" in2="blur"/>
      <feComposite in="SourceGraphic"/>
    </filter>
  </defs>
  <g id="Grupo_1014418" data-name="Grupo 1014418" transform="translate(-185.896 -847)">
    <g id="Grupo_1003781" data-name="Grupo 1003781" transform="translate(194.897 853)">
      <g transform="matrix(1, 0, 0, 1, -9, -6)" filter="url(#Elipse_7683)">
        <circle id="Elipse_7683-2" data-name="Elipse 7683" cx="39" cy="39" r="39" transform="translate(9 6)" fill="#f5b3bf"/>
      </g>
    </g>
    <g id="interprete" transform="translate(186 858.275)">
      <g id="Grupo_1014243" data-name="Grupo 1014243" transform="translate(1.191 1.191)">
        <g id="Grupo_1014225" data-name="Grupo 1014225" transform="translate(54.788 66.46)">
          <path id="Trazado_730207" data-name="Trazado 730207" d="M57.528,57.8v5H48V58.122l5.955-.024,1.334-.012A8.677,8.677,0,0,0,57.528,57.8Z" transform="translate(-48 -57.8)" fill="#0353ad"/>
        </g>
        <g id="Grupo_1014226" data-name="Grupo 1014226" transform="translate(52.406 35.851)">
          <path id="Trazado_730208" data-name="Trazado 730208" d="M50.764,53.42A2.4,2.4,0,0,0,48.382,55.8V43.891H46L48.144,32.1A19.029,19.029,0,0,1,65.057,51.038v2.525A9.418,9.418,0,0,1,57.91,62.71,8.676,8.676,0,0,1,55.671,63l-1.334.012V55.8l-1.679-1.679a2.389,2.389,0,0,0-1.691-.7Z" transform="translate(-46 -32.1)" fill="#006bda"/>
        </g>
        <g id="Grupo_1014227" data-name="Grupo 1014227" transform="translate(42.878 41.687)">
          <path id="Trazado_730209" data-name="Trazado 730209" d="M42.764,37l4.764,5.955H38Z" transform="translate(-38 -37)" fill="#0353ad"/>
        </g>
        <g id="Grupo_1014228" data-name="Grupo 1014228" transform="translate(30.967 66.425)">
          <path id="Trazado_730210" data-name="Trazado 730210" d="M37.528,58.044v4.764H28V57.77a9.224,9.224,0,0,0,2.239.274Z" transform="translate(-28 -57.77)" fill="#0353ad"/>
        </g>
        <g id="Grupo_1014229" data-name="Grupo 1014229" transform="translate(30.967 47.642)">
          <path id="Trazado_730211" data-name="Trazado 730211" d="M37.528,52.517V53.91H31.573A3.568,3.568,0,0,1,28,50.337V42a2.342,2.342,0,0,0,.7,1.679Z" transform="translate(-28 -42)" fill="#0353ad"/>
        </g>
        <g id="Grupo_1014230" data-name="Grupo 1014230" transform="translate(23.821 35.851)">
          <path id="Trazado_730212" data-name="Trazado 730212" d="M29.146,62.674A9.39,9.39,0,0,1,22,53.563V51.038A18.944,18.944,0,0,1,26.478,38.77c-.012-.012,0-.012,0-.012A19.024,19.024,0,0,1,38.913,32.1l2.144,11.791H38.675v3.776l-5.467-5.455a2.382,2.382,0,0,0-4.061,1.679v8.337A3.568,3.568,0,0,0,32.719,55.8h5.955v7.146H31.385a9.225,9.225,0,0,1-2.239-.274Z" transform="translate(-22 -32.1)" fill="#006bda"/>
        </g>
        <g id="Grupo_1014231" data-name="Grupo 1014231" transform="translate(47.642 35.731)">
          <path id="Trazado_730213" data-name="Trazado 730213" d="M48.908,32.119,46.764,43.91,42,37.955,46.764,32A18.19,18.19,0,0,1,48.908,32.119Z" transform="translate(-42 -32)" fill="#0353ad"/>
        </g>
        <g id="Grupo_1014232" data-name="Grupo 1014232" transform="translate(40.734 35.731)">
          <path id="Trazado_730214" data-name="Trazado 730214" d="M38.344,32l4.764,5.955L38.344,43.91,36.2,32.119A18.189,18.189,0,0,1,38.344,32Z" transform="translate(-36.2 -32)" fill="#0353ad"/>
        </g>
        <g id="Grupo_1014233" data-name="Grupo 1014233" transform="translate(0 0)">
          <path id="Trazado_730215" data-name="Trazado 730215" d="M26.143,2H6.443A4.433,4.433,0,0,0,2,6.443a3.664,3.664,0,0,0,.048.631L3.834,19.616a4.451,4.451,0,0,0,4.407,3.823H13.91l4.276,4.276a1.684,1.684,0,0,0,2.87-1.191V23.439h3.287a4.451,4.451,0,0,0,4.407-3.823L30.537,7.074a3.663,3.663,0,0,0,.048-.631A4.443,4.443,0,0,0,26.143,2Z" transform="translate(-2 -2)" fill="#e6e9ed"/>
        </g>
        <g id="Grupo_1014234" data-name="Grupo 1014234" transform="translate(0 35.731)">
          <path id="Trazado_730216" data-name="Trazado 730216" d="M13.91,53.439H8.241a4.451,4.451,0,0,1-4.407-3.823L2.048,37.074A3.664,3.664,0,0,1,2,36.443,4.433,4.433,0,0,1,6.443,32h19.7a4.443,4.443,0,0,1,4.443,4.443,3.663,3.663,0,0,1-.048.631l-.238,1.7s-.012,0,0,.012a18.944,18.944,0,0,0-4.478,12.268v2.382H21.057v3.085a1.684,1.684,0,0,1-2.87,1.191Z" transform="translate(-2 -32)" fill="#e6e9ed"/>
        </g>
        <g id="Grupo_1014235" data-name="Grupo 1014235" transform="translate(30.967 45.26)">
          <path id="Trazado_730217" data-name="Trazado 730217" d="M37.528,46.158V52.9L28.7,44.061A2.375,2.375,0,1,1,32.061,40.7Z" transform="translate(-28 -40)" fill="#aab2bd"/>
        </g>
        <g id="Grupo_1014236" data-name="Grupo 1014236" transform="translate(40.496 47.642)">
          <path id="Trazado_730218" data-name="Trazado 730218" d="M50.293,61.14v4.681H36V42H50.293V53.91A3.579,3.579,0,0,0,46.719,57.5v.1A3.556,3.556,0,0,0,50.293,61.14Z" transform="translate(-36 -42)" fill="#e6e9ed"/>
        </g>
        <g id="Grupo_1014237" data-name="Grupo 1014237" transform="translate(33.349)">
          <path id="Trazado_730219" data-name="Trazado 730219" d="M39.767,12.243l-1.739.584a4.749,4.749,0,0,0-3.263,4.514v2.525H33.573a3.582,3.582,0,0,0-2.454.977A13.466,13.466,0,0,1,43.471,2h1.644A13.466,13.466,0,0,1,57.466,20.842a3.582,3.582,0,0,0-2.454-.977H53.821V18.675a2.389,2.389,0,0,0-2.382-2.382H44.293C41.6,16.293,40.267,14.268,39.767,12.243Z" transform="translate(-30 -2)" fill="#fcd770"/>
        </g>
        <g id="Grupo_1014238" data-name="Grupo 1014238" transform="translate(42.878 32.134)">
          <path id="Trazado_730220" data-name="Trazado 730220" d="M46.814,28.98l.715,3.6-4.764,5.955L38,32.577l.715-3.6c.155.012.31.024.476.024h7.146C46.5,29,46.659,28.992,46.814,28.98Z" transform="translate(-38 -28.98)" fill="#f0d0b4"/>
        </g>
        <g id="Grupo_1014239" data-name="Grupo 1014239" transform="translate(57.17 17.866)">
          <path id="Trazado_730221" data-name="Trazado 730221" d="M53.716,18.048a3.571,3.571,0,0,1-2.525,6.1H50V17h1.191a3.582,3.582,0,0,1,2.454.977l.071.071Z" transform="translate(-50 -17)" fill="#f0d0b4"/>
        </g>
        <g id="Grupo_1014240" data-name="Grupo 1014240" transform="translate(33.349 17.866)">
          <path id="Trazado_730222" data-name="Trazado 730222" d="M34.764,17v7.146H33.573a3.573,3.573,0,0,1,0-7.146Z" transform="translate(-30 -17)" fill="#f0d0b4"/>
        </g>
        <g id="Grupo_1014241" data-name="Grupo 1014241" transform="translate(38.114 10.243)">
          <path id="Trazado_730223" data-name="Trazado 730223" d="M53.057,18.223V26.56a5.958,5.958,0,0,1-5.479,5.931c-.155.012-.31.024-.476.024H39.955c-.167,0-.322-.012-.476-.024A5.958,5.958,0,0,1,34,26.56V15.7a4.749,4.749,0,0,1,3.263-4.514L39,10.6c.5,2.025,1.834,4.05,4.526,4.05h7.146a2.389,2.389,0,0,1,2.382,2.382Z" transform="translate(-34 -10.6)" fill="#f0d0b4"/>
        </g>
        <g id="Grupo_1014242" data-name="Grupo 1014242" transform="translate(51.215 57.17)">
          <path id="Trazado_730224" data-name="Trazado 730224" d="M48.573,59.612A3.556,3.556,0,0,1,45,56.062v-.1a3.579,3.579,0,0,1,3.573-3.585A2.4,2.4,0,0,1,50.955,50h.2a2.389,2.389,0,0,1,1.691.7l1.679,1.679v7.206Z" transform="translate(-45 -50)" fill="#f0d0b4"/>
        </g>
      </g>
      <g id="Grupo_1014244" data-name="Grupo 1014244" transform="translate(0 0)">
        <path id="Trazado_730225" data-name="Trazado 730225" d="M14.764,35A4.769,4.769,0,0,0,10,39.764v9.528h2.382V44.528h4.764v4.764h2.382V39.764A4.769,4.769,0,0,0,14.764,35Zm-2.382,7.146V39.764a2.382,2.382,0,1,1,4.764,0v2.382Z" transform="translate(0.719 5.496)"/>
        <path id="Trazado_730226" data-name="Trazado 730226" d="M13.6,15.148A17.577,17.577,0,0,1,9.77,18.272L11,20.314A19.929,19.929,0,0,0,15.146,17,19.96,19.96,0,0,0,19.3,20.314l1.226-2.043a17.521,17.521,0,0,1-3.833-3.124,19.927,19.927,0,0,0,2.875-5.384h2.727V7.382H16.337V5H13.955V7.382H8V9.764h2.727A19.927,19.927,0,0,0,13.6,15.148Zm1.544-1.92a17.618,17.618,0,0,1-1.87-3.464h3.739A17.551,17.551,0,0,1,15.146,13.228Z" transform="translate(0.337 -0.236)"/>
        <path id="Trazado_730227" data-name="Trazado 730227" d="M2.849,19.979a5.667,5.667,0,0,0,5.582,4.842h5.177l3.922,3.922a2.875,2.875,0,0,0,4.908-2.033V24.821h2.1a5.667,5.667,0,0,0,5.582-4.842L31.911,7.436a5.772,5.772,0,0,0,.056-.8A5.645,5.645,0,0,0,26.329,1H6.638A5.636,5.636,0,0,0,1.057,7.436Zm3.79-16.6H26.328a3.261,3.261,0,0,1,3.258,3.256,3.318,3.318,0,0,1-.032.461L27.762,19.642a3.275,3.275,0,0,1-3.225,2.8h-4.48V26.71a.512.512,0,0,1-.842.349l-4.62-4.62H8.431a3.272,3.272,0,0,1-3.224-2.8L3.415,7.1a3.151,3.151,0,0,1-.033-.462A3.261,3.261,0,0,1,6.638,3.382Z" transform="translate(-1 -1)"/>
        <path id="Trazado_730229" data-name="Trazado 730229" d="M55.579,36.755l-.294-1.473a7.154,7.154,0,0,0,5.268-6.888,4.769,4.769,0,0,0,4.764-4.764,4.721,4.721,0,0,0-.949-2.825A14.622,14.622,0,0,0,50.651,1H49.016A14.621,14.621,0,0,0,35.3,20.8a4.744,4.744,0,0,0,3.815,7.591,7.154,7.154,0,0,0,5.269,6.888l-.294,1.473a20.152,20.152,0,0,0-12.2,4.87,5.631,5.631,0,0,0-5.563-4.894H6.638a5.636,5.636,0,0,0-5.581,6.436L2.849,55.71a5.667,5.667,0,0,0,5.582,4.843h5.177l3.922,3.922a2.875,2.875,0,0,0,4.908-2.033V60.552h2.435A10.59,10.59,0,0,0,31.967,69.5v5.344H67.7V69.533A10.644,10.644,0,0,0,74.845,59.51V56.979A20.273,20.273,0,0,0,55.579,36.755Zm6.165,31.005-4.767.025A2.218,2.218,0,0,1,55.3,67.1a2.41,2.41,0,0,1-.7-1.77,2.383,2.383,0,0,1,2.381-2.392h1.191V61.743a1.193,1.193,0,0,1,1.191-1.191h.2a1.186,1.186,0,0,1,.843.349l1.336,1.335ZM41.5,57.472l-6.8-6.8a1.19,1.19,0,0,1,0-1.684,1.207,1.207,0,0,1,1.684,0L41.5,54.1Zm-7.146-3.778,6.858,6.858H36.731a2.384,2.384,0,0,1-2.382-2.382ZM52.906,35.54l.414,2.071-3.487,4.359-3.487-4.359.414-2.071Zm-8.387,3.6,3.789,4.737-2.535,3.169-1.435-7.9C44.4,39.148,44.458,39.143,44.518,39.141Zm5.314,6.644,2.286,2.857H47.546Zm5.955,5.239v9.687a4.726,4.726,0,0,0-2.177,1.236,4.81,4.81,0,0,0-1.4,3.472A4.7,4.7,0,0,0,55.788,70v2.46H43.878V51.024Zm-4.43-7.146,3.789-4.737.182.01-1.435,7.9Zm9.194-17.866V21.248a2.382,2.382,0,0,1,0,4.764ZM36.731,23.63a2.384,2.384,0,0,1,2.382-2.382v4.764A2.384,2.384,0,0,1,36.731,23.63Zm2.382-6.095v1.33a4.735,4.735,0,0,0-1.845.373A12.266,12.266,0,0,1,49.015,3.382H50.65A12.265,12.265,0,0,1,62.4,19.237a4.755,4.755,0,0,0-1.845-.372,3.577,3.577,0,0,0-3.573-3.573H49.833c-2.826,0-3.573-3.117-3.573-4.764V9.337H43.878v1.191a9.236,9.236,0,0,0,.067,1.1l-.759.253A5.95,5.95,0,0,0,39.114,17.535ZM41.5,28.394V17.535a3.568,3.568,0,0,1,2.443-3.39l.607-.2a5.626,5.626,0,0,0,5.287,3.732h7.146a1.193,1.193,0,0,1,1.191,1.191v9.528a4.769,4.769,0,0,1-4.764,4.764H46.26A4.769,4.769,0,0,1,41.5,28.394ZM20.057,58.17v4.271a.512.512,0,0,1-.842.349l-4.62-4.62H8.431a3.272,3.272,0,0,1-3.224-2.8L3.415,42.832a3.151,3.151,0,0,1-.033-.462,3.261,3.261,0,0,1,3.256-3.256H26.328a3.261,3.261,0,0,1,3.258,3.256,3.318,3.318,0,0,1-.032.461l-.2,1.411a20.147,20.147,0,0,0-4.531,12.737V58.17ZM27.2,59.51V56.979A17.882,17.882,0,0,1,41.961,39.4l1.681,9.24H41.5v2.094l-3.429-3.429a3.656,3.656,0,0,0-5.052,0,3.547,3.547,0,0,0-1.047,2.526V58.17a4.769,4.769,0,0,0,4.764,4.764H41.5V67.7h-6.1A8.2,8.2,0,0,1,27.2,59.51Zm7.146,10.518c.343.033.691.052,1.042.052h6.1v2.382H34.349Zm30.967,2.434H58.17v-2.3l6.11-.032c.35,0,.7-.023,1.036-.058ZM72.463,59.51a8.256,8.256,0,0,1-8.2,8.237h-.142V62.765a4.76,4.76,0,0,0,3.573-4.6V49.833H65.317V58.17a2.385,2.385,0,0,1-1.932,2.339l-1.292-1.292a3.547,3.547,0,0,0-2.527-1.047h-.2a3.556,3.556,0,0,0-1.191.208V48.642H56.024L57.7,39.4A17.882,17.882,0,0,1,72.463,56.979Z" transform="translate(-1 -1)"/>
      </g>
    </g>
  </g>
</svg>
