<svg xmlns="http://www.w3.org/2000/svg" xmlns:xlink="http://www.w3.org/1999/xlink" width="234.732" height="235" viewBox="0 0 234.732 235">
  <defs>
    <clipPath id="clip-path">
      <path id="Trazado_715417" data-name="Trazado 715417" d="M158.613,188.539c5.133-6.283,9.645-13.578,16.314-18.6,6.644-5,15.86-7.227,23-11.65a97.6,97.6,0,0,0,15.416-11.519A42.919,42.919,0,0,1,203.984,157c-4.86,3.816-10.854,6.186-16.325,8.965a49.217,49.217,0,0,0-14.154,10.2c-7.881,8.5-14.9,17.831-25.17,23.623a61.957,61.957,0,0,1-6.676,3.252,57.674,57.674,0,0,0,16.954-14.5M214.3,80.129c-8.351-7.287-18.8-11.439-27.929-17.577-7.351-4.94-12.83-16.211-16.419-23.665-4.845-10.067-12.084-21.578-21.517-28.5a48.5,48.5,0,0,0-12.01-6.341c2.581.569,5.158,1.145,7.689,1.921a33.236,33.236,0,0,1,12.337,7.382,69.6,69.6,0,0,1,14.7,19.269c3.323,6.384,5.406,13.409,9.492,19.388,3.709,5.428,8.984,9.5,14.475,12.99,11.945,7.592,25.533,13.55,30.916,27.73,2.137,5.625,2.169,12,1.676,18.026-.18-11.477-4.351-22.721-13.406-30.623M111.757,0C86.568.019,59.411,10.873,47.472,28.071c-6.414,9.235-7.055,15.907-6.286,26.5C42.306,70.026,37.229,78.651,26,89.158c-9.013,8.433-17.628,18.02-21.9,29.086q.38-1.416.856-2.812c2.672-7.82,7.726-14.744,13.118-20.9,4.875-5.571,10.764-10.269,14.96-16.416,8.9-13.042,2.909-28.908,7.23-43.155C44.932,19.569,61.639,12.711,75.2,7.249c.408-.164-.3-.378-.495-.314C61.066,11.292,45.788,18.41,39.409,32.092c-2.937,6.3-3,13.52-3.1,20.324-.131,9.147-.517,17.46-5.659,25.375-4.362,6.716-11.114,11.843-16.314,17.9-5.419,6.318-10,13.454-12.5,21.433C-1.837,128.8.116,143.74,6.706,154.665a108.916,108.916,0,0,0,8.827,15.955c18.7,28.39,56.949,38.083,88.991,39.335,10.2.4,19.13-.331,27.134-2.741a32.975,32.975,0,0,0,6.35-1.534c3.367-1.219,6.781-2.723,10.023-4.22,11.239-5.19,19.131-15,27.479-23.76,9.153-9.6,22.185-12.392,32.436-20.346a41.458,41.458,0,0,0,11.25-13.846,31.814,31.814,0,0,0,3.316-9.386q.958-1.975,1.748-4.033c6.572-9.962,7.836-24.309,4.952-35.441-3.732-14.412-17.544-21.667-29.352-28.641-6.471-3.823-12.579-8.186-17.086-14.292-4.465-6.05-6.974-13.474-10.484-20.081a72.425,72.425,0,0,0-14.644-18.63c-6.178-5.69-13.535-7.964-21.636-9.434-.679-.123-1.358-.241-2.037-.359a65.047,65.047,0,0,0-8.219-2.018A79.471,79.471,0,0,0,111.872,0Z" transform="translate(0 -0.004)" fill="#f5b3bf"/>
    </clipPath>
    <filter id="Rectángulo_33844" x="182.311" y="141.77" width="43.561" height="28.871" filterUnits="userSpaceOnUse">
      <feOffset dy="3" input="SourceAlpha"/>
      <feGaussianBlur stdDeviation="3" result="blur"/>
      <feFlood flood-opacity="0.161"/>
      <feComposite operator="in" in2="blur"/>
      <feComposite in="SourceGraphic"/>
    </filter>
    <filter id="Trazado_113690" x="191.594" y="149.13" width="40.589" height="29.548" filterUnits="userSpaceOnUse">
      <feOffset dy="3" input="SourceAlpha"/>
      <feGaussianBlur stdDeviation="3" result="blur-2"/>
      <feFlood flood-opacity="0.161"/>
      <feComposite operator="in" in2="blur-2"/>
      <feComposite in="SourceGraphic"/>
    </filter>
    <filter id="Rectángulo_33844-2" x="14.055" y="32.706" width="43.561" height="28.871" filterUnits="userSpaceOnUse">
      <feOffset dy="3" input="SourceAlpha"/>
      <feGaussianBlur stdDeviation="3" result="blur-3"/>
      <feFlood flood-opacity="0.161"/>
      <feComposite operator="in" in2="blur-3"/>
      <feComposite in="SourceGraphic"/>
    </filter>
    <filter id="Trazado_113690-2" x="23.339" y="40.066" width="40.589" height="29.548" filterUnits="userSpaceOnUse">
      <feOffset dy="3" input="SourceAlpha"/>
      <feGaussianBlur stdDeviation="3" result="blur-4"/>
      <feFlood flood-opacity="0.161"/>
      <feComposite operator="in" in2="blur-4"/>
      <feComposite in="SourceGraphic"/>
    </filter>
    <filter id="Trazado_113638" x="76.327" y="31.976" width="65.875" height="65.875" filterUnits="userSpaceOnUse">
      <feOffset dy="3" input="SourceAlpha"/>
      <feGaussianBlur stdDeviation="3" result="blur-5"/>
      <feFlood flood-opacity="0.161"/>
      <feComposite operator="in" in2="blur-5"/>
      <feComposite in="SourceGraphic"/>
    </filter>
    <clipPath id="clip-path-2">
      <rect id="Rectángulo_348761" data-name="Rectángulo 348761" width="225" height="235" transform="translate(1132 9359.825)" fill="#fff" stroke="#707070" stroke-width="1" opacity="0.75"/>
    </clipPath>
    <clipPath id="clip-path-3">
      <rect id="Rectángulo_348753" data-name="Rectángulo 348753" width="279" height="279" transform="translate(-0.352 -0.062)" fill="none"/>
    </clipPath>
    <clipPath id="clip-path-4">
      <rect id="Rectángulo_348754" data-name="Rectángulo 348754" width="14.701" height="15.927" fill="#1f4068"/>
    </clipPath>
    <filter id="Trazado_730180" x="117.611" y="132.293" width="39.835" height="38.447" filterUnits="userSpaceOnUse">
      <feOffset dy="3" input="SourceAlpha"/>
      <feGaussianBlur stdDeviation="3" result="blur-6"/>
      <feFlood flood-opacity="0.161"/>
      <feComposite operator="in" in2="blur-6"/>
      <feComposite in="SourceGraphic"/>
    </filter>
    <clipPath id="clip-path-5">
      <rect id="Rectángulo_348760" data-name="Rectángulo 348760" width="71.421" height="69.59" fill="#fff"/>
    </clipPath>
  </defs>
  <g id="Grupo_1014212" data-name="Grupo 1014212" transform="translate(8797 5726.001)">
    <g id="Grupo_1014155" data-name="Grupo 1014155" transform="translate(-8792.938 -5704.237)">
      <g id="Grupo_1012586" data-name="Grupo 1012586" transform="translate(0 0)">
        <g id="Grupo_1010424" data-name="Grupo 1010424" transform="translate(0 0)">
          <g id="Grupo_1006262" data-name="Grupo 1006262" transform="translate(0 0)">
            <g id="Grupo_1006260" data-name="Grupo 1006260" clip-path="url(#clip-path)">
              <rect id="Rectángulo_346887" data-name="Rectángulo 346887" width="233.932" height="210.349" transform="translate(-1.837 0)" fill="#f5b3bf"/>
            </g>
          </g>
          <g id="Grupo_1006266" data-name="Grupo 1006266" transform="translate(187.248 122.467)">
            <g id="Grupo_1006264" data-name="Grupo 1006264" transform="translate(0 3.539)">
              <g transform="matrix(1, 0, 0, 1, -191.31, -147.77)" filter="url(#Rectángulo_33844)">
                <rect id="Rectángulo_33844-3" data-name="Rectángulo 33844" width="25.56" height="10.871" rx="3" transform="translate(191.31 147.77)" fill="#f9e8dc"/>
              </g>
              <g transform="matrix(1, 0, 0, 1, -191.31, -147.77)" filter="url(#Trazado_113690)">
                <path id="Trazado_113690-3" data-name="Trazado 113690" d="M2.892,11.548H19.7a2.892,2.892,0,0,0,2.892-2.892V2.892A2.892,2.892,0,0,0,19.7,0H2.892A2.892,2.892,0,0,0,0,2.892V8.656a2.892,2.892,0,0,0,2.892,2.892" transform="translate(200.59 155.13)" fill="#f5b3bf"/>
              </g>
              <path id="Trazado_113691" data-name="Trazado 113691" d="M2.81,1.4a1.4,1.4,0,1,0-1.4,1.4,1.4,1.4,0,0,0,1.4-1.4" transform="translate(13.349 11.729)" fill="#fff"/>
              <path id="Trazado_113692" data-name="Trazado 113692" d="M2.81,1.4a1.4,1.4,0,1,0-1.4,1.4,1.4,1.4,0,0,0,1.4-1.4" transform="translate(19.174 11.729)" fill="#fff"/>
              <path id="Trazado_113693" data-name="Trazado 113693" d="M2.81,1.4a1.4,1.4,0,1,0-1.4,1.4,1.4,1.4,0,0,0,1.4-1.4" transform="translate(24.997 11.729)" fill="#fff"/>
            </g>
            <g id="Grupo_1006265" data-name="Grupo 1006265" transform="translate(19.941 0)">
              <path id="Trazado_113641" data-name="Trazado 113641" d="M1520.082,262.383a.741.741,0,1,1-.741-.741.741.741,0,0,1,.741.741" transform="translate(-1518.599 -261.642)" fill="#ed9aa9"/>
              <path id="Trazado_113642" data-name="Trazado 113642" d="M1571.756,262.383a.741.741,0,1,1-.741-.741.741.741,0,0,1,.741.741" transform="translate(-1567.014 -261.642)" fill="#ed9aa9"/>
              <path id="Trazado_113643" data-name="Trazado 113643" d="M1623.431,262.383a.741.741,0,1,1-.741-.741.741.741,0,0,1,.741.741" transform="translate(-1615.427 -261.642)" fill="#ed9aa9"/>
              <path id="Trazado_113644" data-name="Trazado 113644" d="M1675.107,262.383a.741.741,0,1,1-.741-.741.741.741,0,0,1,.741.741" transform="translate(-1663.842 -261.642)" fill="#ed9aa9"/>
              <path id="Trazado_113646" data-name="Trazado 113646" d="M1520.082,311.709a.741.741,0,1,1-.741-.741.741.741,0,0,1,.741.741" transform="translate(-1518.599 -307.855)" fill="#ed9aa9"/>
              <path id="Trazado_113647" data-name="Trazado 113647" d="M1571.756,311.709a.741.741,0,1,1-.741-.741.741.741,0,0,1,.741.741" transform="translate(-1567.014 -307.855)" fill="#ed9aa9"/>
              <path id="Trazado_113648" data-name="Trazado 113648" d="M1623.431,311.709a.741.741,0,1,1-.741-.741.741.741,0,0,1,.741.741" transform="translate(-1615.427 -307.855)" fill="#ed9aa9"/>
              <path id="Trazado_113649" data-name="Trazado 113649" d="M1675.107,311.709a.741.741,0,1,1-.741-.741.741.741,0,0,1,.741.741" transform="translate(-1663.842 -307.855)" fill="#ed9aa9"/>
              <path id="Trazado_113651" data-name="Trazado 113651" d="M1520.082,361.035a.741.741,0,1,1-.741-.741.741.741,0,0,1,.741.741" transform="translate(-1518.599 -354.069)" fill="#ed9aa9"/>
              <path id="Trazado_113652" data-name="Trazado 113652" d="M1571.756,361.035a.741.741,0,1,1-.741-.741.741.741,0,0,1,.741.741" transform="translate(-1567.014 -354.069)" fill="#ed9aa9"/>
              <path id="Trazado_113653" data-name="Trazado 113653" d="M1623.431,361.035a.741.741,0,1,1-.741-.741.741.741,0,0,1,.741.741" transform="translate(-1615.427 -354.069)" fill="#ed9aa9"/>
              <path id="Trazado_113654" data-name="Trazado 113654" d="M1675.107,361.035a.741.741,0,1,1-.741-.741.741.741,0,0,1,.741.741" transform="translate(-1663.842 -354.069)" fill="#ed9aa9"/>
              <path id="Trazado_113656" data-name="Trazado 113656" d="M1520.082,410.362a.741.741,0,1,1-.741-.741.741.741,0,0,1,.741.741" transform="translate(-1518.599 -400.283)" fill="#ed9aa9"/>
              <path id="Trazado_113657" data-name="Trazado 113657" d="M1571.756,410.362a.741.741,0,1,1-.741-.741.741.741,0,0,1,.741.741" transform="translate(-1567.014 -400.283)" fill="#ed9aa9"/>
              <path id="Trazado_113658" data-name="Trazado 113658" d="M1623.431,410.362a.741.741,0,1,1-.741-.741.741.741,0,0,1,.741.741" transform="translate(-1615.427 -400.283)" fill="#ed9aa9"/>
              <path id="Trazado_113659" data-name="Trazado 113659" d="M1675.107,410.362a.741.741,0,1,1-.741-.741.741.741,0,0,1,.741.741" transform="translate(-1663.842 -400.283)" fill="#ed9aa9"/>
              <path id="Trazado_113661" data-name="Trazado 113661" d="M1520.082,459.688a.741.741,0,1,1-.741-.741.741.741,0,0,1,.741.741" transform="translate(-1518.599 -446.496)" fill="#ed9aa9"/>
              <path id="Trazado_113662" data-name="Trazado 113662" d="M1571.756,459.688a.741.741,0,1,1-.741-.741.741.741,0,0,1,.741.741" transform="translate(-1567.014 -446.496)" fill="#ed9aa9"/>
              <path id="Trazado_113663" data-name="Trazado 113663" d="M1623.431,459.688a.741.741,0,1,1-.741-.741.741.741,0,0,1,.741.741" transform="translate(-1615.427 -446.496)" fill="#ed9aa9"/>
              <path id="Trazado_113664" data-name="Trazado 113664" d="M1675.107,459.688a.741.741,0,1,1-.741-.741.741.741,0,0,1,.741.741" transform="translate(-1663.842 -446.496)" fill="#ed9aa9"/>
            </g>
          </g>
          <g id="Grupo_1006268" data-name="Grupo 1006268" transform="translate(18.993 13.403)">
            <g id="Grupo_1006264-2" data-name="Grupo 1006264" transform="translate(0 3.539)">
              <g transform="matrix(1, 0, 0, 1, -23.06, -38.71)" filter="url(#Rectángulo_33844-2)">
                <rect id="Rectángulo_33844-4" data-name="Rectángulo 33844" width="25.56" height="10.871" rx="3" transform="translate(23.06 38.71)" fill="#f9e8dc"/>
              </g>
              <g transform="matrix(1, 0, 0, 1, -23.06, -38.71)" filter="url(#Trazado_113690-2)">
                <path id="Trazado_113690-4" data-name="Trazado 113690" d="M2.892,11.548H19.7a2.892,2.892,0,0,0,2.892-2.892V2.892A2.892,2.892,0,0,0,19.7,0H2.892A2.892,2.892,0,0,0,0,2.892V8.656a2.892,2.892,0,0,0,2.892,2.892" transform="translate(32.34 46.07)" fill="#f5b3bf"/>
              </g>
              <path id="Trazado_113691-2" data-name="Trazado 113691" d="M2.81,1.4a1.4,1.4,0,1,0-1.4,1.4,1.4,1.4,0,0,0,1.4-1.4" transform="translate(13.349 11.729)" fill="#fff"/>
              <path id="Trazado_113692-2" data-name="Trazado 113692" d="M2.81,1.4a1.4,1.4,0,1,0-1.4,1.4,1.4,1.4,0,0,0,1.4-1.4" transform="translate(19.174 11.729)" fill="#fff"/>
              <path id="Trazado_113693-2" data-name="Trazado 113693" d="M2.81,1.4a1.4,1.4,0,1,0-1.4,1.4,1.4,1.4,0,0,0,1.4-1.4" transform="translate(24.997 11.729)" fill="#fff"/>
            </g>
            <g id="Grupo_1006265-2" data-name="Grupo 1006265" transform="translate(19.941)">
              <path id="Trazado_113641-2" data-name="Trazado 113641" d="M1520.082,262.383a.741.741,0,1,1-.741-.741.741.741,0,0,1,.741.741" transform="translate(-1518.599 -261.642)" fill="#ed9aa9"/>
              <path id="Trazado_113642-2" data-name="Trazado 113642" d="M1571.756,262.383a.741.741,0,1,1-.741-.741.741.741,0,0,1,.741.741" transform="translate(-1567.014 -261.642)" fill="#ed9aa9"/>
              <path id="Trazado_113643-2" data-name="Trazado 113643" d="M1623.431,262.383a.741.741,0,1,1-.741-.741.741.741,0,0,1,.741.741" transform="translate(-1615.427 -261.642)" fill="#ed9aa9"/>
              <path id="Trazado_113644-2" data-name="Trazado 113644" d="M1675.107,262.383a.741.741,0,1,1-.741-.741.741.741,0,0,1,.741.741" transform="translate(-1663.842 -261.642)" fill="#ed9aa9"/>
              <path id="Trazado_113646-2" data-name="Trazado 113646" d="M1520.082,311.709a.741.741,0,1,1-.741-.741.741.741,0,0,1,.741.741" transform="translate(-1518.599 -307.855)" fill="#ed9aa9"/>
              <path id="Trazado_113647-2" data-name="Trazado 113647" d="M1571.756,311.709a.741.741,0,1,1-.741-.741.741.741,0,0,1,.741.741" transform="translate(-1567.014 -307.855)" fill="#ed9aa9"/>
              <path id="Trazado_113648-2" data-name="Trazado 113648" d="M1623.431,311.709a.741.741,0,1,1-.741-.741.741.741,0,0,1,.741.741" transform="translate(-1615.427 -307.855)" fill="#ed9aa9"/>
              <path id="Trazado_113649-2" data-name="Trazado 113649" d="M1675.107,311.709a.741.741,0,1,1-.741-.741.741.741,0,0,1,.741.741" transform="translate(-1663.842 -307.855)" fill="#ed9aa9"/>
              <path id="Trazado_113651-2" data-name="Trazado 113651" d="M1520.082,361.035a.741.741,0,1,1-.741-.741.741.741,0,0,1,.741.741" transform="translate(-1518.599 -354.069)" fill="#ed9aa9"/>
              <path id="Trazado_113652-2" data-name="Trazado 113652" d="M1571.756,361.035a.741.741,0,1,1-.741-.741.741.741,0,0,1,.741.741" transform="translate(-1567.014 -354.069)" fill="#ed9aa9"/>
              <path id="Trazado_113653-2" data-name="Trazado 113653" d="M1623.431,361.035a.741.741,0,1,1-.741-.741.741.741,0,0,1,.741.741" transform="translate(-1615.427 -354.069)" fill="#ed9aa9"/>
              <path id="Trazado_113654-2" data-name="Trazado 113654" d="M1675.107,361.035a.741.741,0,1,1-.741-.741.741.741,0,0,1,.741.741" transform="translate(-1663.842 -354.069)" fill="#ed9aa9"/>
              <path id="Trazado_113656-2" data-name="Trazado 113656" d="M1520.082,410.362a.741.741,0,1,1-.741-.741.741.741,0,0,1,.741.741" transform="translate(-1518.599 -400.283)" fill="#ed9aa9"/>
              <path id="Trazado_113657-2" data-name="Trazado 113657" d="M1571.756,410.362a.741.741,0,1,1-.741-.741.741.741,0,0,1,.741.741" transform="translate(-1567.014 -400.283)" fill="#ed9aa9"/>
              <path id="Trazado_113658-2" data-name="Trazado 113658" d="M1623.431,410.362a.741.741,0,1,1-.741-.741.741.741,0,0,1,.741.741" transform="translate(-1615.427 -400.283)" fill="#ed9aa9"/>
              <path id="Trazado_113659-2" data-name="Trazado 113659" d="M1675.107,410.362a.741.741,0,1,1-.741-.741.741.741,0,0,1,.741.741" transform="translate(-1663.842 -400.283)" fill="#ed9aa9"/>
              <path id="Trazado_113661-2" data-name="Trazado 113661" d="M1520.082,459.688a.741.741,0,1,1-.741-.741.741.741,0,0,1,.741.741" transform="translate(-1518.599 -446.496)" fill="#ed9aa9"/>
              <path id="Trazado_113662-2" data-name="Trazado 113662" d="M1571.756,459.688a.741.741,0,1,1-.741-.741.741.741,0,0,1,.741.741" transform="translate(-1567.014 -446.496)" fill="#ed9aa9"/>
              <path id="Trazado_113663-2" data-name="Trazado 113663" d="M1623.431,459.688a.741.741,0,1,1-.741-.741.741.741,0,0,1,.741.741" transform="translate(-1615.427 -446.496)" fill="#ed9aa9"/>
              <path id="Trazado_113664-2" data-name="Trazado 113664" d="M1675.107,459.688a.741.741,0,1,1-.741-.741.741.741,0,0,1,.741.741" transform="translate(-1663.842 -446.496)" fill="#ed9aa9"/>
            </g>
          </g>
          <g id="Grupo_1006267" data-name="Grupo 1006267" transform="translate(81.265 16.212)">
            <g id="Grupo_1003557" data-name="Grupo 1003557" transform="translate(0 0)">
              <path id="Trazado_113637" data-name="Trazado 113637" d="M1047.816,468.269a29.789,29.789,0,1,0-29.789,29.789,29.789,29.789,0,0,0,29.789-29.789" transform="translate(-986.494 -438.48)" fill="#ed9aa9"/>
              <g transform="matrix(1, 0, 0, 1, -85.33, -37.98)" filter="url(#Trazado_113638)">
                <path id="Trazado_113638-2" data-name="Trazado 113638" d="M1111.2,537.507a23.938,23.938,0,1,0-23.938,23.938,23.938,23.938,0,0,0,23.938-23.938" transform="translate(-978 -475.59)" fill="#fff" opacity="0.5"/>
              </g>
            </g>
          </g>
        </g>
      </g>
    </g>
    <g id="Enmascarar_grupo_1011314" data-name="Enmascarar grupo 1011314" transform="translate(-9929 -15085.826)" clip-path="url(#clip-path-2)">
      <g id="Grupo_1014204" data-name="Grupo 1014204" transform="translate(1109.352 9346.888)">
        <g id="whisper_1_Convertido_" data-name="whisper_1 [Convertido]">
          <g id="BACK" transform="translate(0 0)">
            <g id="Grupo_1014168" data-name="Grupo 1014168" clip-path="url(#clip-path-3)">
              <g id="Grupo_1014167" data-name="Grupo 1014167" transform="translate(27.56 34.492)">
                <g id="Grupo_1014157" data-name="Grupo 1014157" transform="translate(0 88.249)">
                  <path id="Trazado_730084" data-name="Trazado 730084" d="M206.89,1191.64a47.9,47.9,0,0,1,15.1,10.18,73.084,73.084,0,0,1,10.842,13.505,40.753,40.753,0,0,1-25.937-23.686Z" transform="translate(-206.89 -1156.064)" fill="#005b8b"/>
                  <path id="Trazado_730085" data-name="Trazado 730085" d="M270.307,1381.775a27.474,27.474,0,0,1,11.783,3.264h0a27.67,27.67,0,0,1-23.82-1.125A27.453,27.453,0,0,1,270.307,1381.775Z" transform="translate(-251.448 -1320.925)" fill="#005b8b"/>
                  <path id="Trazado_730086" data-name="Trazado 730086" d="M425.284,1216.19a27.64,27.64,0,0,1-5.568,23.189,27.672,27.672,0,0,1,5.568-23.188Z" transform="translate(-390.927 -1177.354)" fill="#005b8b"/>
                  <path id="Trazado_730087" data-name="Trazado 730087" d="M323.354,1524.951c-4.92-2.731-5.817-5.8-3.471-9.372a27.484,27.484,0,0,1,8.807-8.479,24.44,24.44,0,0,1-4.291,11.45c-1.964,2.762-2.28,4.8-1.045,6.4Z" transform="translate(-303.806 -1429.637)" fill="#005b8b"/>
                  <path id="Trazado_730088" data-name="Trazado 730088" d="M298.408,996.268c.113-.032.227-.064.34-.093l.583-.153c.2-.049.39-.093.587-.141l.293-.069.295-.062.59-.125q1.183-.233,2.379-.4a42.819,42.819,0,0,1,4.809-.349,33.778,33.778,0,0,1,4.764.232l-.106-.143q-1.611-2.131-3.327-4.181t-3.536-4.007c-.6-.656-1.219-1.3-1.842-1.936s-1.256-1.264-1.908-1.871c.656.6,1.292,1.227,1.921,1.859s1.248,1.272,1.856,1.924q1.824,1.954,3.548,4t3.339,4.176q.45.594.891,1.191a14.18,14.18,0,0,1,.281-1.595q.193-.809.454-1.6c.178-.525.369-1.045.584-1.556s.445-1.016.705-1.5c-.116.251-.23.5-.336.759s-.214.51-.316.768c-.2.514-.394,1.033-.566,1.559s-.329,1.054-.47,1.589l-.1.4c-.032.134-.058.27-.088.4-.062.256-.1.517-.149.775.763,1.034,1.511,2.081,2.229,3.147.254.367.5.741.741,1.113s.493.744.726,1.122l.71,1.133.689,1.146c.114.191.231.381.343.574l.332.58.332.58c.11.194.223.386.327.583l.637,1.175.159.293.153.3.3.595c.414.789.79,1.6,1.178,2.4.19.4.366.813.551,1.218l.274.609c.09.2.173.41.259.616l.51,1.236.474,1.249.236.625.218.632.276.806h.053q-.048-1.643-.113-3.286-.165-4.222-.426-8.44t-.621-8.428q-.215-2.507-.473-5.011a7.735,7.735,0,0,1-1.656.836,12.782,12.782,0,0,1-7.72-.234,16.4,16.4,0,0,1,6.226-3.813,16.632,16.632,0,0,1,2.734-.675l-.183-1.612-.256-2.1c-.019-.161-.04-.32-.061-.481a24.178,24.178,0,0,1-7.138,5.25h0a27.48,27.48,0,0,1,4.986-11.163,8.775,8.775,0,0,1,1.141-1.267l-.109-.706-.165-1.044-.175-1.041-.175-1.041c-.058-.347-.116-.694-.181-1.041l-.378-2.078c-.061-.347-.13-.692-.2-1.037l-.2-1.037-.2-1.037c-.068-.345-.146-.689-.218-1.033l-.04-.185a24.457,24.457,0,0,1-10.427-6.365c-2.342-2.448-4.285-3.142-6.092-2.231,3.609-4.318,6.794-4.621,9.858-1.646a27.485,27.485,0,0,1,6.648,10.186l-.39-1.823q-.56-2.509-1.2-5l-.021.013h0l.013-.045c-.27-1.058-.547-2.114-.839-3.166h0a73.1,73.1,0,0,1-9.1-14.736,47.894,47.894,0,0,1-4.54-17.633,40.752,40.752,0,0,1,13.637,32.369c.293,1.044.574,2.09.847,3.139a49.376,49.376,0,0,1,4.727-10.486,32.029,32.029,0,0,1,8.06-9.121A27.241,27.241,0,0,1,318.4,959.269q.647,2.492,1.222,5l.446,2.066c.073.344.15.688.219,1.033l.206,1.036.206,1.036c.069.345.138.69.2,1.037l.382,2.078q.428,2.414.806,4.837c2.346-2.077,5.2-1.753,8.8,1.4-1.927-.616-3.737.372-5.667,3.156a22.7,22.7,0,0,1-2.117,2.61q.273,2.119.514,4.242a16.34,16.34,0,0,1,4.455-.069,17.47,17.47,0,0,1-4.047,3.922q.253,2.524.469,5.05.352,4.211.609,8.43c.235,3.906.414,7.818.513,11.73h.108l.057-1,.021-.364.011-.182.017-.182.066-.725.066-.725.033-.363.045-.361.179-1.446.023-.181.028-.181.056-.36.113-.72.113-.72.133-.717c.09-.477.173-.956.27-1.431l.3-1.426a98.845,98.845,0,0,1,3.207-11.2q.968-2.748,2.059-5.452t2.308-5.351c1.072-2.341,2.2-4.655,3.411-6.929a27.638,27.638,0,0,1-11.638-20.776,27.664,27.664,0,0,1,11.663,20.733q.912-1.713,1.887-3.39c-.49.839-.956,1.69-1.414,2.547-.158.3-.313.592-.469.89a.082.082,0,0,0,0,.019h0l-.008-.007q-.438.838-.866,1.682-1.314,2.6-2.52,5.251-.914,2.014-1.763,4.057a34.42,34.42,0,0,1,4.544-1.458,44.006,44.006,0,0,1,4.73-.923q1.195-.155,2.4-.244l.6-.037.3-.017.3-.011c.2-.007.4-.016.6-.021l.6-.008c.2-.005.4,0,.6,0s.4,0,.6.009c.4.016.8.024,1.2.055.8.046,1.6.141,2.4.244a27.637,27.637,0,0,1,23.723,2.427c.17,0-6.887,3.805-12.127,3.3-6.549-.631-11.6-5.728-11.6-5.728h0c-.8-.092-1.6-.174-2.4-.207-.4-.028-.8-.033-1.2-.048-.2-.005-.4,0-.6-.005s-.4,0-.6,0l-.6.012c-.2.005-.4.016-.6.024l-.3.013-.3.019-.6.04q-1.2.1-2.393.256a43.689,43.689,0,0,0-4.728.9q-1.169.289-2.32.644c-.753.231-1.5.478-2.236.767q-.269.647-.531,1.3-1.089,2.7-2.046,5.453a98.545,98.545,0,0,0-3.229,11.185l-.305,1.423c-.1.475-.181.953-.272,1.43l-.134.716-.114.72-.114.72-.057.36-.028.179-.024.181-.189,1.445-.048.361-.036.363-.072.725-.072.725-.017.181-.012.182-.023.364-.064,1h14.792v5.048h0v.224h0V1047.5H310.884v-29.641h14.66l-.281-.8-.222-.631-.24-.623-.483-1.245-.518-1.232c-.088-.2-.17-.412-.26-.615l-.275-.609c-.185-.405-.362-.814-.554-1.216-.389-.8-.766-1.608-1.183-2.4l-.305-.593-.153-.3-.159-.293-.639-1.174c-.1-.2-.218-.389-.328-.582l-.333-.579-.333-.579c-.112-.193-.23-.382-.344-.574l-.692-1.143-.713-1.13c-.234-.378-.485-.748-.728-1.119s-.487-.745-.742-1.11c-.96-1.429-1.968-2.826-3-4.2-.782-.09-1.568-.137-2.354-.165-.8-.032-1.605-.036-2.409-.02-.837.016-1.672.061-2.506.127a16.8,16.8,0,0,0-1.3,1.327c-.308.351-.609.708-.895,1.077a13.825,13.825,0,0,1,6.257,10.107,13.815,13.815,0,0,1-6.282-10.074c-.1.128-.2.258-.289.388s-.19.259-.281.39-.187.26-.274.4l-.263.4c-.045.066-.086.135-.127.2l-.125.206c-.339.546-.633,1.118-.926,1.692l.2-.438c.068-.146.134-.294.21-.434l.224-.428c.073-.143.159-.28.239-.421a17.819,17.819,0,0,1,1.061-1.616,18.1,18.1,0,0,1,1.228-1.492c.218-.238.444-.467.673-.693.216-.2.434-.405.664-.594q-1.147.094-2.289.244-1.193.161-2.377.386l-.59.121-.295.061-.293.068c-.2.045-.392.089-.587.137l-.583.15q-.157.04-.315.084a13.812,13.812,0,0,1-11.426,3.268,13.834,13.834,0,0,1,11.387-3.306Z" transform="translate(-276.389 -923.71)" fill="#005b8b"/>
                  <path id="Trazado_730089" data-name="Trazado 730089" d="M705.612,1080.77a40.75,40.75,0,0,1-18.512,29.851,73.082,73.082,0,0,1,6.757-15.946,47.919,47.919,0,0,1,11.756-13.9Z" transform="translate(-623.337 -1059.915)" fill="#005b8b"/>
                  <path id="Trazado_730090" data-name="Trazado 730090" d="M663.61,1299.388a27.638,27.638,0,0,1,22.615-7.565,27.667,27.667,0,0,1-22.615,7.566Z" transform="translate(-602.966 -1242.759)" fill="#005b8b"/>
                  <path id="Trazado_730091" data-name="Trazado 730091" d="M682.156,1407.053a13.761,13.761,0,0,1,2.92-5.326c-.376-.278-.762-.54-1.154-.793a16.785,16.785,0,0,0-1.674-.955c.3.125.583.272.868.422s.562.315.837.485a17.892,17.892,0,0,1,1.588,1.1,18.184,18.184,0,0,1,1.461,1.267c.114.114.235.222.344.34l.333.351c.113.115.215.239.321.361l.313.367c-.437-.473-.876-.943-1.35-1.376l-.177-.165c-.058-.056-.117-.11-.178-.162l-.363-.317c-.119-.108-.248-.2-.372-.307s-.248-.2-.377-.3-.255-.2-.384-.295a13.818,13.818,0,0,1-3.3,11.4,13.754,13.754,0,0,1,.349-6.1Z" transform="translate(-618.583 -1336.74)" fill="#005b8b"/>
                  <path id="Trazado_730092" data-name="Trazado 730092" d="M742.024,1451.045c.751-1.879-.108-3.754-2.749-5.876a24.444,24.444,0,0,1-7.246-9.85,27.484,27.484,0,0,1,10.783,5.763c3.228,2.8,3.2,6-.79,9.963Z" transform="translate(-662.301 -1367.388)" fill="#005b8b"/>
                  <rect id="Rectángulo_348727" data-name="Rectángulo 348727" width="35.417" height="2.717" transform="translate(67.017 123.789) rotate(180)" fill="#005b8b"/>
                  <path id="Trazado_730093" data-name="Trazado 730093" d="M0,0H29.641V.591H0Z" transform="translate(64.129 100.179) rotate(180)" fill="#003f60"/>
                </g>
                <g id="Grupo_1014166" data-name="Grupo 1014166" transform="translate(144.567)">
                  <g id="Grupo_1014162" data-name="Grupo 1014162" transform="translate(1.982 6.668)">
                    <g id="Grupo_1014158" data-name="Grupo 1014158" transform="translate(4.358 12.057)">
                      <rect id="Rectángulo_348728" data-name="Rectángulo 348728" width="33.327" height="6.955" fill="#f0f2f5"/>
                      <rect id="Rectángulo_348729" data-name="Rectángulo 348729" width="0.681" height="6.955" transform="translate(2.802)" fill="#fff"/>
                    </g>
                    <g id="Grupo_1014159" data-name="Grupo 1014159" transform="translate(1.988 19.012)">
                      <rect id="Rectángulo_348730" data-name="Rectángulo 348730" width="33.495" height="3.766" fill="#e1e6eb"/>
                      <rect id="Rectángulo_348731" data-name="Rectángulo 348731" width="2.093" height="3.766" transform="translate(24.059)" fill="#fff"/>
                      <rect id="Rectángulo_348732" data-name="Rectángulo 348732" width="1.046" height="3.766" transform="translate(21.777)" fill="#fff"/>
                    </g>
                    <rect id="Rectángulo_348733" data-name="Rectángulo 348733" width="35.483" height="2.536" transform="translate(0 3.893)" fill="#f0f2f5"/>
                    <g id="Grupo_1014160" data-name="Grupo 1014160" transform="translate(1.988 6.429)">
                      <rect id="Rectángulo_348734" data-name="Rectángulo 348734" width="30.055" height="5.627" transform="translate(1.072 0.001)" fill="#f0f2f5"/>
                      <rect id="Rectángulo_348735" data-name="Rectángulo 348735" width="13.763" height="0.758" transform="translate(0 4.87)" fill="#e1e6eb"/>
                      <rect id="Rectángulo_348736" data-name="Rectángulo 348736" width="13.763" height="0.758" transform="translate(0 0.001)" fill="#e1e6eb"/>
                      <rect id="Rectángulo_348737" data-name="Rectángulo 348737" width="5.627" height="18.121" transform="translate(13.763 5.627) rotate(-90)" fill="#e1e6eb"/>
                      <rect id="Rectángulo_348738" data-name="Rectángulo 348738" width="1.609" height="4.112" transform="translate(16.098 0.758)" fill="#fff"/>
                    </g>
                    <g id="Grupo_1014161" data-name="Grupo 1014161" transform="translate(4.358)">
                      <rect id="Rectángulo_348739" data-name="Rectángulo 348739" width="17.185" height="3.894" transform="translate(13.512)" fill="#f0f2f5"/>
                      <rect id="Rectángulo_348740" data-name="Rectángulo 348740" width="16.991" height="3.894" fill="#e1e6eb"/>
                      <rect id="Rectángulo_348741" data-name="Rectángulo 348741" width="14.135" height="0.47" transform="translate(16.991)" fill="#e1e6eb"/>
                      <rect id="Rectángulo_348742" data-name="Rectángulo 348742" width="14.135" height="0.47" transform="translate(16.991 3.424)" fill="#e1e6eb"/>
                      <rect id="Rectángulo_348743" data-name="Rectángulo 348743" width="0.219" height="3.894" transform="translate(4.107)" fill="#fff"/>
                      <rect id="Rectángulo_348744" data-name="Rectángulo 348744" width="0.219" height="3.894" transform="translate(2.642)" fill="#fff"/>
                    </g>
                    <path id="Trazado_730094" data-name="Trazado 730094" d="M1374.525,338.63v1.162L1343.4,338.63Z" transform="translate(-1339.042 -334.737)" fill="#d2d9e1"/>
                    <path id="Trazado_730095" data-name="Trazado 730095" d="M1343.4,400.11v2.536l29.513-2.536Z" transform="translate(-1339.042 -388.053)" fill="#d2d9e1"/>
                  </g>
                  <g id="Grupo_1014163" data-name="Grupo 1014163" transform="translate(42.359)">
                    <rect id="Rectángulo_348745" data-name="Rectángulo 348745" width="21.573" height="25.943" transform="translate(0 3.524)" fill="#f0f2f5"/>
                    <rect id="Rectángulo_348746" data-name="Rectángulo 348746" width="5.707" height="25.943" transform="translate(0 3.524)" fill="#e1e6eb"/>
                    <rect id="Rectángulo_348747" data-name="Rectángulo 348747" width="4.284" height="1.738" transform="translate(0.712 6.219)" fill="#fff"/>
                    <rect id="Rectángulo_348748" data-name="Rectángulo 348748" width="4.284" height="0.868" transform="translate(0.712 9.445)" fill="#fff"/>
                    <rect id="Rectángulo_348749" data-name="Rectángulo 348749" width="21.573" height="29.467" transform="translate(10.786)" fill="#e1e6eb"/>
                    <rect id="Rectángulo_348750" data-name="Rectángulo 348750" width="5.707" height="29.467" transform="translate(10.786)" fill="#f0f2f5"/>
                    <rect id="Rectángulo_348751" data-name="Rectángulo 348751" width="0.775" height="29.467" transform="translate(10.786)" fill="#e1e6eb"/>
                  </g>
                  <g id="Grupo_1014165" data-name="Grupo 1014165" transform="translate(0 29.447)">
                    <rect id="Rectángulo_348752" data-name="Rectángulo 348752" width="80.184" height="8.372" fill="#f0f2f5"/>
                    <g id="Grupo_1014164" data-name="Grupo 1014164" transform="translate(11.152 8.372)">
                      <path id="Trazado_730096" data-name="Trazado 730096" d="M1781.438,557.7l-1.5-13.795h4.728l-1.5,13.795a.871.871,0,0,1-1.731,0Z" transform="translate(-1726.788 -543.91)" fill="#e1e6eb"/>
                      <path id="Trazado_730097" data-name="Trazado 730097" d="M1381.138,557.7l-1.5-13.795h4.728l-1.5,13.795a.871.871,0,0,1-1.731,0Z" transform="translate(-1379.64 -543.91)" fill="#e1e6eb"/>
                      <path id="Trazado_730098" data-name="Trazado 730098" d="M1784.668,543.91l-.234,2.143L1780,544.485l-.062-.575Z" transform="translate(-1726.788 -543.91)" fill="#d2d9e1"/>
                      <path id="Trazado_730099" data-name="Trazado 730099" d="M1384.367,543.91l-.232,2.143-4.432-1.568-.062-.575Z" transform="translate(-1379.64 -543.91)" fill="#d2d9e1"/>
                    </g>
                  </g>
                </g>
              </g>
            </g>
          </g>
          <g id="TEXT" transform="translate(32.586 25.342)">
            <g id="Grupo_1014177" data-name="Grupo 1014177">
              <g id="Grupo_1014169" data-name="Grupo 1014169" transform="translate(0 29.9)">
                <path id="Trazado_730100" data-name="Trazado 730100" d="M301.315,453.422H246.806a2.066,2.066,0,0,1-2.066-2.066V426.1a2.066,2.066,0,0,1,2.066-2.066h4.151V415.36l7.466,8.676h42.891a2.066,2.066,0,0,1,2.066,2.066v25.254a2.066,2.066,0,0,1-2.066,2.066Z" transform="translate(-244.74 -415.36)" fill="#f0f2f5"/>
              </g>
              <g id="Grupo_1014172" data-name="Grupo 1014172" transform="translate(22.809 21.426)">
                <path id="Trazado_730101" data-name="Trazado 730101" d="M419.408,352.24H482.89a2.189,2.189,0,0,1,2.188,2.188v29.627a2.188,2.188,0,0,1-2.188,2.188h-5.006v8.325l-8.64-8.325H419.408a2.189,2.189,0,0,1-2.188-2.188V354.428A2.189,2.189,0,0,1,419.408,352.24Z" transform="translate(-417.127 -352.147)" fill="#fff"/>
                <path id="Trazado_730102" data-name="Trazado 730102" d="M477.368,394.209l-8.774-8.481H418.708a2.189,2.189,0,0,1-2.188-2.188V353.728a2.189,2.189,0,0,1,2.188-2.188h63.665a2.189,2.189,0,0,1,2.188,2.188V383.54a2.189,2.189,0,0,1-2.188,2.188h-5.006v8.481Zm-58.476-8.665h49.786l8.5,8.169v-8.169h5.006a2.189,2.189,0,0,0,2.188-2.188V353.913a2.189,2.189,0,0,0-2.188-2.188h-63.3a2.189,2.189,0,0,0-2.188,2.188v29.443A2.189,2.189,0,0,0,418.893,385.544Z" transform="translate(-416.52 -351.54)" fill="#1f4068"/>
                <path id="Trazado_730103" data-name="Trazado 730103" d="M38.505,21.372H32.1l-1.037,2.622H27.086L33.451,9.171h3.976l6.217,14.824H39.52Zm-1.142-2.96-2.03-5.287-2.072,5.287Z" transform="translate(-18.961 1.059)" fill="#1f4068"/>
                <path id="Trazado_730104" data-name="Trazado 730104" d="M123.7,3.878a3.406,3.406,0,0,1-2.651,3.331,3.792,3.792,0,0,1,3.156,3.879c0,2.629-2.3,4.272-5.917,4.272h-7.582V0h7.3c3.484,0,5.7,1.511,5.7,3.878m-4.119.7c0-.92-.68-1.468-1.8-1.446h-3.068v2.98h3.068c1.118,0,1.8-.57,1.8-1.535m.482,6c0-.964-.877-1.578-2.279-1.555h-3.068v3.221h3.068c1.4,0,2.279-.614,2.279-1.666" transform="translate(-81.369 10.23)" fill="#1f4068"/>
                <g id="Grupo_1014171" data-name="Grupo 1014171" transform="translate(47.497 9.662)">
                  <g id="Grupo_1014170" data-name="Grupo 1014170" transform="translate(0 0)" clip-path="url(#clip-path-4)">
                    <path id="Trazado_730105" data-name="Trazado 730105" d="M8.432,3.457a4.232,4.232,0,0,0-4.238,4.4,4.257,4.257,0,0,0,4.238,4.439,5.8,5.8,0,0,0,3.882-1.83L14.7,13.027a9.345,9.345,0,0,1-6.491,2.9A7.917,7.917,0,0,1,0,7.9C0,3.39,3.591,0,8.365,0a8.972,8.972,0,0,1,6.313,2.676L12.313,5.51A5.322,5.322,0,0,0,8.432,3.457" transform="translate(0 0)" fill="#1f4068"/>
                  </g>
                </g>
              </g>
              <g id="Grupo_1014174" data-name="Grupo 1014174" transform="translate(10.745 50.493)">
                <path id="Trazado_730106" data-name="Trazado 730106" d="M382.235,570.45H327.726a2.066,2.066,0,0,0-2.066,2.066V597.77a2.066,2.066,0,0,0,2.066,2.066h4.151v8.676l7.466-8.676h42.891a2.066,2.066,0,0,0,2.066-2.066V572.516a2.066,2.066,0,0,0-2.066-2.066Z" transform="translate(-325.66 -570.45)" fill="#1f4068"/>
                <g id="Grupo_1014173" data-name="Grupo 1014173" transform="translate(9.866 12.054)">
                  <circle id="Elipse_8007" data-name="Elipse 8007" cx="2.014" cy="2.014" r="2.014" transform="translate(0 0.83) rotate(-5.64)" fill="#fff"/>
                  <circle id="Elipse_8008" data-name="Elipse 8008" cx="2.014" cy="2.014" r="2.014" transform="translate(11.503 0.83) rotate(-5.64)" fill="#fff"/>
                  <circle id="Elipse_8009" data-name="Elipse 8009" cx="2.014" cy="2.014" r="2.014" transform="translate(23.006 0.829) rotate(-5.64)" fill="#fff"/>
                  <circle id="Elipse_8010" data-name="Elipse 8010" cx="2.014" cy="2.014" r="2.014" transform="translate(34.071 3.716) rotate(-67.28)" fill="#fff"/>
                </g>
              </g>
              <g id="Grupo_1014176" data-name="Grupo 1014176" transform="translate(18.482)">
                <path id="Trazado_730107" data-name="Trazado 730107" d="M427.349,219.389H385.515a1.585,1.585,0,0,1-1.585-1.585V198.423a1.585,1.585,0,0,1,1.585-1.585H388.7V190.18l5.73,6.658h32.918a1.586,1.586,0,0,1,1.585,1.585V217.8a1.585,1.585,0,0,1-1.585,1.585Z" transform="translate(-383.93 -190.18)" fill="#1f4068"/>
                <g id="Grupo_1014175" data-name="Grupo 1014175" transform="translate(7.716 16.388)">
                  <circle id="Elipse_8011" data-name="Elipse 8011" cx="1.546" cy="1.546" r="1.546" transform="translate(0 0)" fill="#fff"/>
                  <circle id="Elipse_8012" data-name="Elipse 8012" cx="1.546" cy="1.546" r="1.546" transform="translate(8.827 0)" fill="#fff"/>
                  <circle id="Elipse_8013" data-name="Elipse 8013" cx="1.546" cy="1.546" r="1.546" transform="translate(17.656 0)" fill="#fff"/>
                  <path id="Trazado_730108" data-name="Trazado 730108" d="M644.581,315.146a1.546,1.546,0,1,0-1.546,1.546A1.545,1.545,0,0,0,644.581,315.146Z" transform="translate(-615.007 -313.6)" fill="#fff"/>
                </g>
              </g>
            </g>
          </g>
          <g id="CHARACTER" transform="translate(73.97 43.277)">
            <g id="Grupo_1014197" data-name="Grupo 1014197">
              <path id="Trazado_730109" data-name="Trazado 730109" d="M599.692,901.528l-2.4,2.259-4.954,7.723s-4.481,17.311-18.724,15.955c0,0-16.684,2.332-16.32-18.433,0,0-4.714-23.354,7.654-55.173a1.282,1.282,0,0,1,1-.8l17.191-2.661L592,830.314a11.857,11.857,0,0,1,8.632-6.792l27.383-5.129,4.051-7.043,40.367,3.815a9.832,9.832,0,0,1,7.247,4.322L681.9,822.8s18.085,4.23,34.275,12.475a12.767,12.767,0,0,1,6.987,11.371v12.959s-1.89,30.969-9.288,61.666c0,0,.81,14.919-10.6,19.986l.883,8.8H595.832l3.771-24.93.086-23.6Z" transform="translate(-556.408 -746.805)" fill="#003f60"/>
              <path id="Trazado_730110" data-name="Trazado 730110" d="M1063.04,1010.651s7.9-94.674,7.911-129.431l36.479,2.863a3.61,3.61,0,0,1,3.26,4.3c-1.389,7-6.289,23.006-23.55,46.39l-8.764,75.882H1063.04Z" transform="translate(-995.769 -807.398)" fill="#e8e8e8"/>
              <path id="Trazado_730111" data-name="Trazado 730111" d="M1129.5,1141.41l8.337,7.409-10.387,32.482-14.832-16.157a1.183,1.183,0,0,1-.274-1.1C1113.042,1161.408,1116.495,1151.073,1129.5,1141.41Z" transform="translate(-1038.492 -1033.039)" fill="#003f60"/>
              <g id="Grupo_1014186" data-name="Grupo 1014186" transform="translate(60.308)">
                <g id="Grupo_1014185" data-name="Grupo 1014185" transform="translate(3.133 9.933)">
                  <g id="Grupo_1014178" data-name="Grupo 1014178" transform="translate(5.437)">
                    <path id="Trazado_730112" data-name="Trazado 730112" d="M1157.679,722.685l-10.989,10.308a10.892,10.892,0,0,0-1.783,2.081l-3.958,6-5.322-6.283a10.927,10.927,0,0,0-1.973-1.82L1121,723.889V690.2h36.679v32.486Z" transform="translate(-1114.912 -651.675)" fill="#ffc89f"/>
                    <rect id="Rectángulo_348755" data-name="Rectángulo 348755" width="48.856" height="78.698" rx="24.428" fill="#ffc89f"/>
                    <path id="Trazado_730113" data-name="Trazado 730113" d="M1121.979,914.761a20.42,20.42,0,0,1-6.333-.481c-.522-.113-1.032-.274-1.547-.418s-1.009-.354-1.515-.53c-.256-.082-.494-.207-.74-.313l-.733-.331c-.486-.226-.949-.5-1.426-.741-.466-.264-.91-.567-1.365-.848-.445-.3-.872-.621-1.3-.937s-.819-.689-1.23-1.032-.771-.741-1.151-1.115a20.331,20.331,0,0,1-3.656-5.194,31.23,31.23,0,0,0,4.137,4.7c.4.337.778.686,1.174,1.021.41.316.81.647,1.228.951s.841.6,1.275.883.875.552,1.327.8.9.509,1.366.733.934.446,1.41.647.954.4,1.445.57l.737.246c.247.08.488.181.74.242a31.106,31.106,0,0,0,6.158,1.143Z" transform="translate(-1097.55 -836.063)" fill="#ff9a6c"/>
                    <path id="Trazado_730114" data-name="Trazado 730114" d="M1365.742,891.51a13.929,13.929,0,0,1-1.413,3.051c-.148.239-.3.478-.455.71l-.489.689c-.17.224-.351.441-.526.663l-.551.641a17.525,17.525,0,0,1-2.5,2.267,13.9,13.9,0,0,1-2.906,1.69c.84-.745,1.668-1.467,2.466-2.217s1.557-1.53,2.292-2.332l.547-.605c.177-.207.348-.418.53-.621l.522-.629c.165-.218.337-.429.51-.641.673-.863,1.314-1.755,1.976-2.662Z" transform="translate(-1319.489 -826.255)" fill="#ff9a6c"/>
                  </g>
                  <g id="Grupo_1014181" data-name="Grupo 1014181" transform="translate(15.338 24.809)">
                    <g id="Grupo_1014179" data-name="Grupo 1014179" transform="translate(23.077 7.45)">
                      <circle id="Elipse_8014" data-name="Elipse 8014" cx="2.199" cy="2.199" r="2.199" transform="translate(2.338 3.311)" fill="#1b1b2f"/>
                      <path id="Trazado_730115" data-name="Trazado 730115" d="M1332.584,644.8a7.081,7.081,0,0,0-1.037-.647c-.181-.093-.364-.179-.548-.263s-.374-.154-.567-.212a6.924,6.924,0,0,0-2.367-.37,4.532,4.532,0,0,0-.6.037l-.3.028c-.1.012-.2.041-.295.058l-.591.124c-.19.065-.383.126-.575.187l-.29.092-.276.125-.555.251c-.365.179-.708.4-1.074.591.328-.244.659-.491,1.005-.717l.547-.292.275-.146.29-.114c.194-.076.388-.151.583-.223.2-.053.4-.1.608-.149.1-.023.2-.052.307-.066l.312-.033a4.7,4.7,0,0,1,.625-.047,6.218,6.218,0,0,1,2.448.453,6.114,6.114,0,0,1,2.074,1.332Z" transform="translate(-1323.51 -643.012)" fill="#1b1b2f"/>
                    </g>
                    <g id="Grupo_1014180" data-name="Grupo 1014180" transform="translate(0.001 7.45)">
                      <circle id="Elipse_8015" data-name="Elipse 8015" cx="2.199" cy="2.199" r="2.199" transform="translate(2.337 3.311)" fill="#1b1b2f"/>
                      <path id="Trazado_730116" data-name="Trazado 730116" d="M1158.793,644.8a7.08,7.08,0,0,0-1.037-.647c-.181-.093-.364-.179-.548-.263s-.374-.154-.567-.212a6.924,6.924,0,0,0-2.368-.37,4.53,4.53,0,0,0-.6.037l-.3.028c-.1.012-.2.041-.295.058l-.59.124c-.19.065-.382.126-.575.187l-.289.092-.276.125-.555.251c-.365.179-.708.4-1.074.591.328-.244.658-.491,1.005-.717l.547-.292.275-.146.289-.114c.194-.076.388-.151.583-.223.2-.053.405-.1.608-.149.1-.023.2-.052.307-.066l.312-.033a4.7,4.7,0,0,1,.625-.047,6.219,6.219,0,0,1,2.449.453,6.115,6.115,0,0,1,2.074,1.332Z" transform="translate(-1149.72 -643.012)" fill="#1b1b2f"/>
                    </g>
                    <path id="Trazado_730117" data-name="Trazado 730117" d="M1280.19,722.37c.193.933.353,1.871.51,2.81s.3,1.879.432,2.82a6.155,6.155,0,0,1,.1,1.45,3.859,3.859,0,0,1-.38,1.414,2.527,2.527,0,0,1-.97,1.089c-.422.222-.841.449-1.267.661.393-.27.8-.522,1.192-.785a2.361,2.361,0,0,0,.841-1.061,3.967,3.967,0,0,0,.307-1.338,6.03,6.03,0,0,0-.109-1.389c-.129-.943-.257-1.884-.364-2.83s-.214-1.891-.287-2.84Z" transform="translate(-1261.495 -704.382)" fill="#1b1b2f"/>
                    <path id="Trazado_730118" data-name="Trazado 730118" d="M1332.593,590.012c-1.013-.06-1.781-.124-2.51-.145s-1.353-.049-1.99-.025a1.032,1.032,0,0,0-.239.005l-.24.011c-.081,0-.162,0-.243,0s-.163.017-.246.019c-.165.013-.334.013-.508.015-.171.02-.348.035-.532.04-.092.005-.187,0-.283,0s-.186.025-.284.029c-.193.017-.4.024-.609.028a9.414,9.414,0,0,1-1.388.021,3.877,3.877,0,0,1,.3-.677,4.017,4.017,0,0,1,.393-.608c.155-.177.319-.351.493-.515.085-.086.177-.162.267-.242s.2-.139.3-.2c.2-.131.412-.254.627-.369.223-.1.454-.179.689-.258a3.628,3.628,0,0,1,.356-.1l.368-.062a4.231,4.231,0,0,1,.745-.068,5,5,0,0,1,2.826.8,2.709,2.709,0,0,1,.3.215c.1.074.191.149.282.231a4.973,4.973,0,0,1,.5.532,3.218,3.218,0,0,1,.643,1.331Z" transform="translate(-1300.441 -586.901)" fill="#1b1b2f"/>
                    <path id="Trazado_730119" data-name="Trazado 730119" d="M1158.784,590.012c-1.013-.06-1.781-.124-2.511-.145s-1.353-.049-1.99-.025a1.032,1.032,0,0,0-.239.005l-.24.011c-.081,0-.162,0-.243,0s-.163.017-.246.019c-.165.013-.334.013-.509.015-.171.02-.348.035-.532.04-.092.005-.187,0-.283,0s-.186.025-.284.029c-.193.017-.4.024-.61.028a9.413,9.413,0,0,1-1.388.021,3.905,3.905,0,0,1,.3-.677,4,4,0,0,1,.393-.608c.155-.177.319-.351.493-.515.085-.086.177-.162.267-.242s.2-.139.3-.2c.2-.131.412-.254.627-.369.223-.1.454-.179.689-.258a3.613,3.613,0,0,1,.356-.1l.368-.062a4.231,4.231,0,0,1,.745-.068,5,5,0,0,1,2.826.8,2.719,2.719,0,0,1,.3.215c.1.074.191.149.282.231a4.934,4.934,0,0,1,.5.532,3.213,3.213,0,0,1,.643,1.331Z" transform="translate(-1149.71 -586.901)" fill="#1b1b2f"/>
                  </g>
                  <g id="Grupo_1014184" data-name="Grupo 1014184" transform="translate(0 36.162)">
                    <g id="Grupo_1014182" data-name="Grupo 1014182" transform="translate(49.331 0)">
                      <rect id="Rectángulo_348756" data-name="Rectángulo 348756" width="10.36" height="17.202" rx="5.18" transform="translate(10.36 17.202) rotate(180)" fill="#ffc89f"/>
                      <path id="Trazado_730120" data-name="Trazado 730120" d="M1443.713,694.17a3.751,3.751,0,0,1,2.078,1.078,4.136,4.136,0,0,1,1.121,2.133,5.672,5.672,0,0,1,.066,1.2c-.016.382-.021.766-.049,1.149a22.453,22.453,0,0,1-.23,2.3,22.874,22.874,0,0,1-.23-2.3c-.028-.382-.032-.766-.049-1.149a5.622,5.622,0,0,0-.088-1.089,3.884,3.884,0,0,0-.324-1.017,4.581,4.581,0,0,0-.562-.92,5.138,5.138,0,0,0-1.737-1.382Z" transform="translate(-1438.666 -691.279)" fill="#ff9a6c"/>
                      <path id="Trazado_730121" data-name="Trazado 730121" d="M1439.165,744.737a1.782,1.782,0,0,1-.636-.5,2.371,2.371,0,0,1-.4-.694,2.345,2.345,0,0,1-.149-.787,1.788,1.788,0,0,1,.161-.79c.124.251.206.482.293.709l.246.664.246.664c.081.228.169.459.239.729Z" transform="translate(-1433.697 -732.732)" fill="#ff9a6c"/>
                    </g>
                    <g id="Grupo_1014183" data-name="Grupo 1014183" transform="translate(0 0)">
                      <rect id="Rectángulo_348757" data-name="Rectángulo 348757" width="10.36" height="17.202" rx="5.18" fill="#ffc89f"/>
                      <path id="Trazado_730122" data-name="Trazado 730122" d="M1052.549,694.881a5.241,5.241,0,0,0-1.6,1.443,4.528,4.528,0,0,0-.777,1.913,7.419,7.419,0,0,0-.062,1.065c-.016.37-.021.742-.049,1.113a21.089,21.089,0,0,1-.23,2.225,21.483,21.483,0,0,1-.23-2.225c-.028-.37-.033-.742-.049-1.113,0-.188-.009-.364-.005-.563a4.936,4.936,0,0,1,.044-.592,4.156,4.156,0,0,1,1-2.11,3.733,3.733,0,0,1,1.952-1.158Z" transform="translate(-1047.511 -691.895)" fill="#ff9a6c"/>
                      <path id="Trazado_730123" data-name="Trazado 730123" d="M1071.03,744.746c.07-.27.158-.5.239-.729l.245-.664.246-.664c.088-.226.17-.458.293-.709a1.747,1.747,0,0,1,.161.79,2.394,2.394,0,0,1-.149.788,2.367,2.367,0,0,1-.4.694,1.761,1.761,0,0,1-.636.5Z" transform="translate(-1066.14 -732.741)" fill="#ff9a6c"/>
                    </g>
                  </g>
                </g>
                <path id="Trazado_730124" data-name="Trazado 730124" d="M1022.209,359.239l.979-.5-.979,5.949-2.937,2.985s.49,11.612.327,11.612-4.079-11.11-4.079-20.209c0,0-2.927,2.649.88,6.891,0,0-5.307-.783-2.806-5.352a35.827,35.827,0,0,0,2.353-5.1c.023-.064.047-.127.07-.193l-1.413,1.912s-1.028-1.912,1.156-5.209c0,0-4.816,3.626-4.881,8.769a9.363,9.363,0,0,1,4.046-10.154s-.669-3.556,3-9.046a9.969,9.969,0,0,0-3.544,4.631s-1.73-6.616,8.8-9c0,0,1.832-5.226,8.792-2.646,0,0-2.358-8.1,7.406-9.325,0,0-7.306,2.066-5.963,8.571,0,0,3.131-10.714,13.417-6.735,0,0,3.205-.612,4.845,3.061,0,0,5.516,2.831,8.871,0,0,0-1.267,3.52-5.068,1.761a8.252,8.252,0,0,0,5.068,1.224c2.832-.307,4.026,2.678,4.026,2.678s6.984-.673,6.763,7.679c0,0,9.471,5.433,6.685,12.928,0,0,.39-6.521-7.355-10.125,0,0,8.716,9.366,4.813,14,0,0,.792-2.942-2.317-6.008l-1.769,5.7s3.11,4.82,1.585,6.885c0,0-.609-4.82-1.83-6.51,0,0,.834,9.937-3.434,15.379l.207-7.7-2.685-4.167-.688-8.483s-5.988-3.816-5.781-3.816A16.818,16.818,0,0,0,1060.5,351s-2.754-5.441-10.6-2.757l.207-.919-3.029,1.342.62-1.838-2.547,1.838-2.547-.849.559.989-5.032-1.342.62.777s-9.361.424-15.419,6.784l1.583-.5-2.7,4.708Z" transform="translate(-1010.602 -325.25)" fill="#1b1b2f"/>
                <path id="Trazado_730125" data-name="Trazado 730125" d="M1169.595,373.01a7.734,7.734,0,0,0,.159,2.155c.053.357.162.7.246,1.052.1.345.223.685.337,1.025a17.489,17.489,0,0,0,2.017,3.808c.207.295.389.607.616.887l.665.852c.214.291.465.552.7.823s.481.539.717.813q.759.773,1.531,1.539c.534.489,1.074.972,1.605,1.469-.572-.446-1.133-.908-1.7-1.362-.538-.49-1.068-.988-1.6-1.488a25.093,25.093,0,0,1-2.784-3.369,16.634,16.634,0,0,1-1.986-3.9c-.1-.351-.213-.7-.3-1.053-.072-.358-.17-.712-.208-1.076a7.181,7.181,0,0,1-.017-2.178Z" transform="translate(-1148.417 -366.668)" fill="#1f4168"/>
                <path id="Trazado_730126" data-name="Trazado 730126" d="M1201.167,366.42a7.063,7.063,0,0,0-.493,1.811,9.986,9.986,0,0,0-.111,1.868,13.151,13.151,0,0,0,.665,3.671,19.218,19.218,0,0,0,1.484,3.442c.308.546.639,1.081.961,1.62.352.522.712,1.037,1.058,1.567-.4-.489-.783-.989-1.178-1.486-.349-.527-.7-1.052-1.038-1.589-.154-.276-.307-.555-.456-.835l-.224-.42c-.072-.141-.129-.289-.2-.434l-.381-.874c-.114-.3-.208-.6-.313-.9a12.579,12.579,0,0,1-.609-3.756,7.992,7.992,0,0,1,.828-3.682Z" transform="translate(-1175.144 -360.953)" fill="#1f4168"/>
                <path id="Trazado_730127" data-name="Trazado 730127" d="M1285.86,402.913c.361-.39.712-.787,1.036-1.207s.652-.833.952-1.267a21.212,21.212,0,0,0,1.609-2.717,15.128,15.128,0,0,0,1.072-2.958l.157-.773c.054-.258.057-.522.09-.785l.044-.394c.012-.131,0-.263,0-.4,0-.264,0-.53,0-.8a9.788,9.788,0,0,1-.076,3.191,12.73,12.73,0,0,1-1.028,3.039,16.679,16.679,0,0,1-1.692,2.721,15.568,15.568,0,0,1-2.17,2.341Z" transform="translate(-1249.311 -382.807)" fill="#1f4168"/>
                <path id="Trazado_730128" data-name="Trazado 730128" d="M1263.465,432.147a11.624,11.624,0,0,1-.455-3.29,10.765,10.765,0,0,1,.125-1.665,7.835,7.835,0,0,1,.422-1.612c-.082.55-.154,1.091-.194,1.637s-.065,1.091-.058,1.638.017,1.094.044,1.642S1263.414,431.6,1263.465,432.147Z" transform="translate(-1229.494 -412.258)" fill="#1f4168"/>
                <path id="Trazado_730129" data-name="Trazado 730129" d="M1302.91,412.4a33.141,33.141,0,0,1,7.221-5.857,23.239,23.239,0,0,1,2.076-1.077,15.469,15.469,0,0,1,2.187-.831,10.529,10.529,0,0,1,4.618-.421,10.418,10.418,0,0,0-2.31.094,12.407,12.407,0,0,0-2.241.543,21.133,21.133,0,0,0-4.18,1.945,35.5,35.5,0,0,0-3.828,2.6q-.922.7-1.8,1.459t-1.735,1.544Z" transform="translate(-1264.097 -393.648)" fill="#1f4168"/>
                <path id="Trazado_730130" data-name="Trazado 730130" d="M1363.261,443.127a11.023,11.023,0,0,1,3.99-.9,17.3,17.3,0,0,1,8.022,1.528,9.879,9.879,0,0,1,.92.461c.3.173.608.317.888.518s.575.373.844.584.534.428.8.644l-.842-.58c-.28-.191-.584-.349-.874-.524s-.6-.319-.9-.477a9.481,9.481,0,0,0-.926-.418,19.8,19.8,0,0,0-7.924-1.511,14.525,14.525,0,0,0-2.023.179l-.5.081-.5.118c-.335.068-.649.2-.977.3Z" transform="translate(-1316.434 -426.674)" fill="#1f4168"/>
                <path id="Trazado_730131" data-name="Trazado 730131" d="M1442.41,515.089a19.233,19.233,0,0,0-1.66-2.175,20.929,20.929,0,0,0-1.92-1.933,20.49,20.49,0,0,0-2.144-1.68,25.17,25.17,0,0,0-2.346-1.411c.212.085.425.173.635.264s.426.175.628.284c.408.212.818.424,1.206.673a14.994,14.994,0,0,1,2.217,1.65,15.438,15.438,0,0,1,1.9,2.009c.286.361.555.736.811,1.118A11.214,11.214,0,0,1,1442.41,515.089Z" transform="translate(-1378.075 -483.639)" fill="#1f4168"/>
                <path id="Trazado_730132" data-name="Trazado 730132" d="M1080.864,415.409a8.642,8.642,0,0,1,2.221-.863,9.811,9.811,0,0,1,2.377-.3,5.3,5.3,0,0,1,.6.016c.2.016.4.021.6.045a9.044,9.044,0,0,1,1.179.224c.193.054.389.09.576.161l.563.2a4.876,4.876,0,0,1,.545.244c.179.086.357.175.532.267a13.921,13.921,0,0,0-2.266-.652,11.25,11.25,0,0,0-2.329-.214,12.532,12.532,0,0,0-2.332.223c-.193.035-.384.08-.576.119s-.381.1-.57.15a10.3,10.3,0,0,0-1.123.373Z" transform="translate(-1071.531 -402.429)" fill="#1f4168"/>
                <path id="Trazado_730133" data-name="Trazado 730133" d="M1123.653,469.94c-.571-.3-1.149-.587-1.739-.843s-1.182-.507-1.786-.725a18.049,18.049,0,0,0-3.708-.967,8.7,8.7,0,0,0-3.775.19,5.669,5.669,0,0,0-1.7.829,6.717,6.717,0,0,0-1.361,1.349,6.2,6.2,0,0,1,1.275-1.463,5.829,5.829,0,0,1,1.722-.928,8.63,8.63,0,0,1,3.885-.266,16.9,16.9,0,0,1,3.748,1.046,20.114,20.114,0,0,1,3.444,1.778Z" transform="translate(-1096.438 -448.192)" fill="#1f4168"/>
                <path id="Trazado_730134" data-name="Trazado 730134" d="M1074.128,495.163c-1.037-.137-2.078-.219-3.122-.258s-2.086-.052-3.127-.011a30.885,30.885,0,0,0-6.178.818,23.484,23.484,0,0,0-2.973.923,20.51,20.51,0,0,0-2.788,1.377,15.9,15.9,0,0,0-2.484,1.872,16.068,16.068,0,0,0-2.055,2.35,14.787,14.787,0,0,1,1.956-2.455,15.978,15.978,0,0,1,2.466-1.96,18.387,18.387,0,0,1,2.808-1.434,23.573,23.573,0,0,1,3-.96,29.539,29.539,0,0,1,6.242-.757,31.906,31.906,0,0,1,6.254.493Z" transform="translate(-1045.983 -472.171)" fill="#1f4168"/>
                <path id="Trazado_730135" data-name="Trazado 730135" d="M1029.07,505.682a9.145,9.145,0,0,1,1.657-1.5,10.69,10.69,0,0,1,1.947-1.123c.339-.162.7-.281,1.047-.413a10.023,10.023,0,0,1,1.089-.286c.185-.033.366-.078.552-.1l.558-.066a4.922,4.922,0,0,1,.56-.028q.281-.006.559,0c-.368.069-.738.088-1.1.174l-.543.106c-.181.037-.356.094-.534.141a13.125,13.125,0,0,0-2.07.746,15.038,15.038,0,0,0-1.94,1.042q-.468.295-.912.625c-.3.215-.588.447-.871.69Z" transform="translate(-1026.618 -478.666)" fill="#1f4168"/>
                <path id="Trazado_730136" data-name="Trazado 730136" d="M1406,545.14a22.436,22.436,0,0,1,2.029,1.078c.663.385,1.307.8,1.94,1.231s1.253.88,1.851,1.36c.3.236.6.481.891.724s.578.5.858.765l-3.766-2.605c-.627-.434-1.263-.854-1.894-1.283L1406,545.141Z" transform="translate(-1353.498 -515.943)" fill="#1f4168"/>
                <path id="Trazado_730137" data-name="Trazado 730137" d="M1042.15,561.254a4.331,4.331,0,0,1,.762-1.361,8.017,8.017,0,0,1,1.1-1.118,10.622,10.622,0,0,1,1.266-.914c.222-.135.45-.259.677-.384.236-.109.467-.227.706-.328l-1.255.9c-.408.311-.821.612-1.2.947a13.139,13.139,0,0,0-1.113,1.042,6.948,6.948,0,0,0-.935,1.212Z" transform="translate(-1037.961 -526.358)" fill="#1f4168"/>
                <path id="Trazado_730138" data-name="Trazado 730138" d="M1065.31,579.131c.372-.659.771-1.3,1.177-1.94s.822-1.269,1.241-1.9.852-1.248,1.3-1.86l.669-.916c.231-.3.456-.6.694-.9-.184.332-.384.653-.576.98l-.6.961c-.4.641-.821,1.268-1.241,1.9s-.853,1.247-1.3,1.858-.89,1.223-1.364,1.815Z" transform="translate(-1058.046 -538.907)" fill="#1f4168"/>
                <circle id="Elipse_8016" data-name="Elipse 8016" cx="5.355" cy="5.355" r="5.355" transform="matrix(0.377, -0.926, 0.926, 0.377, 26.01, 72.76)" fill="#ff9a6c"/>
                <path id="Trazado_730139" data-name="Trazado 730139" d="M1228.41,864.027a5.083,5.083,0,0,1-1.113.716,5.422,5.422,0,0,1-1.273.4,5.252,5.252,0,0,1-2.658-.223,5.133,5.133,0,0,1-2.2-1.5,5.5,5.5,0,0,1-.738-1.113,5.068,5.068,0,0,1-.414-1.256,5.849,5.849,0,0,0,1.32,2.216,5.428,5.428,0,0,0,2.134,1.378,5.533,5.533,0,0,0,2.527.277A5.876,5.876,0,0,0,1228.41,864.027Z" transform="translate(-1192.205 -789.906)" fill="#e43f5a"/>
              </g>
              <g id="Grupo_1014187" data-name="Grupo 1014187" transform="translate(122.168 186.782)">
                <path id="Trazado_730140" data-name="Trazado 730140" d="M1501.179,1739.612l.7,7s-16.252.012-25.4-14.673c0,0,9.013,14.659,24.7,7.672Z" transform="translate(-1476.48 -1731.94)" fill="#112e4c"/>
              </g>
              <g id="Grupo_1014188" data-name="Grupo 1014188" transform="translate(32.668 139.245)">
                <path id="Trazado_730141" data-name="Trazado 730141" d="M804.83,1391.412a118.491,118.491,0,0,0-2.39-17.482l1.488,1.712a7.926,7.926,0,0,1,1.9,6.007Z" transform="translate(-802.44 -1373.93)" fill="#112e4c"/>
              </g>
              <g id="Grupo_1014189" data-name="Grupo 1014189" transform="translate(67.271 150.942)" opacity="0.4">
                <path id="Trazado_730142" data-name="Trazado 730142" d="M1063.04,1514.332l4-52.312v52.312Z" transform="translate(-1063.04 -1462.02)" fill="#1f4168"/>
              </g>
              <g id="Grupo_1014190" data-name="Grupo 1014190" transform="translate(39.375 145.245)" opacity="0.4">
                <path id="Trazado_730143" data-name="Trazado 730143" d="M856.859,1428.6l-2.4,2.259-1.5,2.346,1.508-2.9a13.458,13.458,0,0,0,1.516-6.312l-.037-4.869Z" transform="translate(-852.95 -1419.12)" fill="#07192c"/>
              </g>
              <g id="Grupo_1014191" data-name="Grupo 1014191" transform="translate(137.021 151.657)">
                <path id="Trazado_730144" data-name="Trazado 730144" d="M1605.027,1483.275s-3.577-8.073-16.687-15.865l5.667,2.425a17.354,17.354,0,0,1,9.068,8.987l1.953,4.454Z" transform="translate(-1588.34 -1467.41)" fill="#112e4c"/>
              </g>
              <g id="Grupo_1014192" data-name="Grupo 1014192" transform="translate(127.671 122.805)">
                <path id="Trazado_730145" data-name="Trazado 730145" d="M1518.1,1271.426s-.2-5.178,4.545-10.227l3.833-11.079S1516.5,1262.475,1518.1,1271.426Z" transform="translate(-1517.924 -1250.12)" fill="#112e4c"/>
              </g>
              <g id="Grupo_1014193" data-name="Grupo 1014193" transform="translate(133.183 135.236)">
                <path id="Trazado_730146" data-name="Trazado 730146" d="M1559.43,1345.963s12.707-1.846,20.123,3.446l-4.922-3.655a10.219,10.219,0,0,0-8.946-1.608l-6.255,1.818Z" transform="translate(-1559.43 -1343.739)" fill="#112e4c"/>
              </g>
              <g id="Grupo_1014194" data-name="Grupo 1014194" transform="translate(97.309 94.67)" opacity="0.4">
                <path id="Trazado_730147" data-name="Trazado 730147" d="M1289.26,1041.724a23.762,23.762,0,0,0,3.5-3.493,19.03,19.03,0,0,1,2.174,5.8S1292.738,1039.761,1289.26,1041.724Z" transform="translate(-1289.26 -1038.23)" fill="#1f4168"/>
              </g>
              <g id="Grupo_1014195" data-name="Grupo 1014195" transform="translate(123.748 116.169)">
                <path id="Trazado_730148" data-name="Trazado 730148" d="M1490.552,1226.374s.453-14.826,2.131-26.234l-4.3,24.057,2.172,2.175Z" transform="translate(-1488.38 -1200.14)" fill="#112e4c"/>
              </g>
              <g id="Grupo_1014196" data-name="Grupo 1014196" transform="translate(74.891 125.493)">
                <path id="Trazado_730149" data-name="Trazado 730149" d="M1124.531,1273.267s-7.174,4.674-2.564-2.907Z" transform="translate(-1120.422 -1270.36)" fill="#0e2640"/>
              </g>
              <path id="Trazado_730150" data-name="Trazado 730150" d="M1608.251,1052.62c.232-.483.452-.974.7-1.453s.483-.958.75-1.426l.394-.7.414-.691.207-.345.216-.34.435-.679c.6-.891,1.22-1.77,1.89-2.612l.247-.319.256-.312c.171-.207.34-.417.514-.621.352-.406.7-.815,1.068-1.208a41.434,41.434,0,0,1,4.715-4.39,32.217,32.217,0,0,1,5.384-3.523,27.3,27.3,0,0,0-2.742,1.681q-1.327.91-2.577,1.923a42.5,42.5,0,0,0-4.681,4.4,43,43,0,0,0-3.987,5.036l-.442.672-.221.336-.211.343-.422.685-.4.7c-.276.461-.522.938-.778,1.409s-.482.959-.725,1.437Z" transform="translate(-1468.585 -939.891)" fill="#170c08"/>
              <path id="Trazado_730151" data-name="Trazado 730151" d="M1315.64,1038.221l.412.755c.068.126.138.252.2.38l.179.392c.117.261.239.522.35.787l.305.8a23.733,23.733,0,0,1,.923,3.317,29.243,29.243,0,0,1,.475,3.41,24.556,24.556,0,0,1,.039,3.439c.011-.574,0-1.146-.025-1.718-.009-.286-.032-.571-.047-.858l-.071-.855a31.722,31.722,0,0,0-.5-3.392,25.151,25.151,0,0,0-.888-3.309l-.287-.809c-.1-.265-.222-.527-.331-.791l-.165-.4c-.061-.129-.126-.256-.19-.385l-.38-.771Z" transform="translate(-1214.828 -943.551)" fill="#1b1a2e"/>
              <path id="Trazado_730152" data-name="Trazado 730152" d="M1274.96,1043.052c.247-.177.507-.332.748-.516l.369-.264.358-.277c.239-.185.471-.377.706-.568s.459-.393.68-.6c.451-.4.886-.822,1.309-1.253q.319-.323.625-.657c.207-.22.408-.447.607-.676a15.185,15.185,0,0,1-1.158,1.4c-.41.449-.847.871-1.295,1.283a18.076,18.076,0,0,1-1.414,1.15,13.834,13.834,0,0,1-1.536.977Z" transform="translate(-1179.55 -943.568)" fill="#1b1a2e"/>
              <path id="Trazado_730153" data-name="Trazado 730153" d="M1225.173,1041.26c.562.332,1.114.682,1.648,1.058s1.06.765,1.575,1.166,1.017.82,1.507,1.252.972.874,1.429,1.34c-.248-.213-.494-.426-.746-.633s-.5-.42-.75-.627c-.5-.414-1.008-.827-1.523-1.226s-1.029-.8-1.552-1.187l-.393-.291-.4-.284c-.26-.2-.534-.373-.8-.567Z" transform="translate(-1136.371 -946.187)" fill="#1b1a2e"/>
              <path id="Trazado_730154" data-name="Trazado 730154" d="M1250.81,1086.012c.2-.716.421-1.426.64-2.137s.45-1.417.674-2.126.464-1.413.7-2.115l.362-1.054c.126-.351.247-.7.376-1.05-.1.358-.208.713-.313,1.07l-.327,1.066c-.219.71-.45,1.417-.674,2.126s-.463,1.413-.7,2.115S1251.066,1085.314,1250.81,1086.012Z" transform="translate(-1158.607 -977.641)" fill="#1b1a2e"/>
              <path id="Trazado_730155" data-name="Trazado 730155" d="M1164.88,1461.362l.365-7.555.385-7.553.771-15.107.817-15.1.409-7.552.43-7.551-.364,7.555-.385,7.553-.773,15.106-.817,15.1-.409,7.553Z" transform="translate(-1084.086 -1258.109)" fill="#1b1a2e"/>
              <path id="Trazado_730156" data-name="Trazado 730156" d="M1247.96,1138.27c.462.469.913.948,1.364,1.429s.891.969,1.337,1.453.88.979,1.313,1.474l.648.745c.213.251.429.5.637.754-.232-.234-.458-.473-.686-.709l-.676-.72c-.45-.481-.891-.969-1.336-1.453s-.88-.979-1.313-1.474-.866-.992-1.287-1.5Z" transform="translate(-1156.135 -1030.316)" fill="#1b1a2e"/>
              <path id="Trazado_730157" data-name="Trazado 730157" d="M1519.23,1228.065a14.206,14.206,0,0,1,.378-2.836,15.267,15.267,0,0,1,.9-2.722l.141-.331c.048-.109.106-.215.158-.323.109-.214.212-.43.325-.64.247-.41.471-.834.757-1.222a14.906,14.906,0,0,1,1.846-2.2l-.016.024,1.528-4.431,1.539-4.427,1.551-4.423,1.568-4.416-1.5,4.442-1.512,4.436-1.526,4.432-1.536,4.428,0,.013-.011.011a14.8,14.8,0,0,0-1.838,2.175c-.287.381-.514.8-.764,1.2-.114.208-.219.422-.329.633-.053.106-.111.21-.161.319l-.143.327a15.957,15.957,0,0,0-.927,2.7,14.1,14.1,0,0,0-.426,2.824Z" transform="translate(-1391.385 -1083.954)" fill="#170c08"/>
              <path id="Trazado_730158" data-name="Trazado 730158" d="M1304.59,1197.22l4.225,4.184,4.209,4.2,8.418,8.4,8.386,8.433,4.192,4.216,4.178,4.232-4.225-4.184-4.209-4.2-8.418-8.4-8.386-8.433-4.192-4.217Z" transform="translate(-1205.245 -1081.439)" fill="#170c08"/>
              <path id="Trazado_730159" data-name="Trazado 730159" d="M1568.231,1456.85a49.344,49.344,0,0,1,6.553,3.769,49.876,49.876,0,0,1,5.935,4.69c.924.86,1.8,1.767,2.645,2.709l.62.716c.2.242.4.49.6.736.1.123.2.244.295.37l.283.38.281.381c.094.126.189.254.275.385l.531.785c.175.263.333.536.5.8l.248.4.228.414c.15.277.311.55.451.833a26.066,26.066,0,0,1,1.45,3.491,26.155,26.155,0,0,0-1.508-3.46,29.2,29.2,0,0,0-1.985-3.208,35.4,35.4,0,0,0-2.358-2.945c-.842-.935-1.722-1.836-2.645-2.691s-1.877-1.677-2.863-2.461-2-1.524-3.039-2.241-2.1-1.394-3.18-2.04-2.182-1.263-3.316-1.814Z" transform="translate(-1433.879 -1306.594)" fill="#170c08"/>
              <path id="Trazado_730160" data-name="Trazado 730160" d="M1559.43,1358.179a40.471,40.471,0,0,1,5.728-.353c.957,0,1.916.049,2.871.122s1.908.184,2.855.339a26.759,26.759,0,0,1,2.81.61,20.269,20.269,0,0,1,2.719.935c.223.088.438.194.654.3s.436.2.644.321.422.227.631.346l.609.381a13.706,13.706,0,0,1,2.208,1.83,13.75,13.75,0,0,0-2.244-1.774l-.612-.37c-.208-.117-.421-.224-.632-.337s-.428-.211-.644-.311-.432-.2-.656-.287a21.648,21.648,0,0,0-2.71-.912,26.786,26.786,0,0,0-2.8-.595,39.036,39.036,0,0,0-5.7-.491q-1.434-.028-2.867.037c-.955.038-1.911.1-2.86.212Z" transform="translate(-1426.248 -1220.719)" fill="#170c08"/>
              <path id="Trazado_730161" data-name="Trazado 730161" d="M1553.451,1250.161a27.74,27.74,0,0,1,2.966-2.33c.511-.368,1.046-.7,1.572-1.046s1.074-.657,1.61-.987a70.252,70.252,0,0,1,6.724-3.435l1.73-.755,1.753-.7.878-.349c.292-.117.591-.217.886-.325l1.776-.639.445-.159.449-.145.9-.29,1.8-.578,3.632-1.032-3.611,1.094-1.79.6-.895.3-.448.15-.442.163-1.77.651c-.295.11-.592.211-.884.328l-.875.352-1.749.706-1.726.76a73.259,73.259,0,0,0-6.727,3.4c-.538.324-1.085.636-1.617.969s-1.065.668-1.58,1.029a27.8,27.8,0,0,0-3,2.277Z" transform="translate(-1421.062 -1116.275)" fill="#170c08"/>
              <path id="Trazado_730162" data-name="Trazado 730162" d="M840.72,1199.635q-.249-2.8-.55-5.6l-.295-2.8-.313-2.8q-.643-5.589-1.43-11.161c-.5-3.718-1.081-7.424-1.7-11.123l-.483-2.771c-.161-.924-.347-1.843-.517-2.766l-.256-1.384c-.085-.461-.185-.919-.276-1.38l-.56-2.757.592,2.75c.1.459.2.916.292,1.377l.273,1.379c.177.922.365,1.84.529,2.763l.5,2.77c.085.461.163.924.238,1.386l.23,1.388c.153.926.309,1.85.449,2.778l.429,2.782.4,2.786q.763,5.577,1.385,11.17c.2,1.864.4,3.73.584,5.6s.34,3.736.485,5.606Z" transform="translate(-797.436 -1044.911)" fill="#170c08"/>
              <path id="Trazado_730163" data-name="Trazado 730163" d="M798.72,1358.29c.22.8.41,1.6.6,2.4s.355,1.612.516,2.422c.325,1.619.6,3.247.849,4.878s.446,3.272.6,4.916.259,3.292.323,4.941l-.09-1.235c-.028-.412-.057-.823-.1-1.234l-.107-1.232c-.037-.41-.086-.821-.129-1.229-.084-.821-.187-1.639-.284-2.457l-.166-1.226-.084-.612-.093-.611c-.232-1.632-.513-3.258-.817-4.878s-.635-3.237-1.015-4.843Z" transform="translate(-766.545 -1221.122)" fill="#170c08"/>
              <path id="Trazado_730164" data-name="Trazado 730164" d="M801.1,1167.22l-.266,3.175-.279,3.172-.58,6.344-.611,6.342-.316,3.17-.331,3.168.264-3.173.279-3.174.58-6.344.611-6.342.317-3.169Z" transform="translate(-766.545 -1055.422)" fill="#170c08"/>
              <path id="Trazado_730165" data-name="Trazado 730165" d="M1476.49,1731.932a17.483,17.483,0,0,0,1.042,1.429c.367.462.757.9,1.158,1.336a23.891,23.891,0,0,0,2.583,2.407,20.082,20.082,0,0,0,6.137,3.411,18.237,18.237,0,0,0,3.435.769l.878.085c.293.02.588.019.882.03.147,0,.293.01.441.011l.441-.019c.293-.015.588-.016.881-.041.584-.071,1.173-.108,1.75-.23.29-.054.58-.1.868-.162l.856-.215.429-.106.421-.133.843-.268c.07-.022.141-.042.21-.069l.206-.081.412-.161.824-.321-.818.337-.409.169-.2.084c-.069.028-.139.048-.209.073l-.839.284-.42.141-.428.114-.858.226c-.288.066-.58.114-.87.171-.578.129-1.17.173-1.755.25-.295.028-.591.033-.886.05l-.443.021c-.148,0-.3-.007-.444-.009-.3-.009-.592-.008-.887-.027l-.884-.082a18.328,18.328,0,0,1-3.464-.763,19.957,19.957,0,0,1-6.16-3.459,22.693,22.693,0,0,1-4.718-5.253Z" transform="translate(-1354.32 -1545.149)" fill="#170c08"/>
              <path id="Trazado_730166" data-name="Trazado 730166" d="M1226.36,1441.85l4.177,4.794,4.16,4.807,8.32,9.615,8.286,9.645,4.143,4.823,4.127,4.836-4.176-4.793-4.161-4.807-8.32-9.615-8.286-9.645-4.143-4.822Z" transform="translate(-1137.403 -1293.587)" fill="#170c08"/>
              <path id="Trazado_730167" data-name="Trazado 730167" d="M1508.133,1134.5c-.23,1.446-.438,2.895-.639,4.346l-.3,2.175-.284,2.177q-.556,4.356-.976,8.729c-.154,1.455-.283,2.913-.416,4.371-.065.729-.117,1.459-.177,2.188s-.115,1.459-.161,2.189l-.145,2.191-.114,2.194-.061,1.1-.044,1.1-.088,2.195c.061-2.928.158-5.856.361-8.778.041-.732.094-1.462.149-2.192s.1-1.461.166-2.191c.125-1.459.246-2.918.393-4.375q.448-4.37,1.021-8.726l.3-2.176.313-2.174C1507.651,1137.389,1507.881,1135.943,1508.133,1134.5Z" transform="translate(-1378.811 -1027.047)" fill="#170c08"/>
              <path id="Trazado_730168" data-name="Trazado 730168" d="M802.44,1360.53a13.451,13.451,0,0,1,2.3,1.854,16.087,16.087,0,0,1,1.908,2.261l.214.3.2.315c.127.211.267.416.385.632a14.494,14.494,0,0,1,.668,1.321l.151.338c.05.113.1.224.141.343l.252.7a6.922,6.922,0,0,1,.214.708l.193.713a18.648,18.648,0,0,0-1.045-2.752l-.158-.332a3.313,3.313,0,0,0-.169-.327l-.355-.644c-.119-.214-.259-.416-.388-.624l-.2-.311-.214-.3c-.143-.2-.276-.4-.43-.6l-.455-.578-.483-.555c-.163-.183-.336-.357-.5-.538s-.349-.345-.522-.518-.362-.331-.544-.5a13.742,13.742,0,0,0-1.156-.914Z" transform="translate(-769.772 -1223.064)" fill="#170c08"/>
              <path id="Trazado_730169" data-name="Trazado 730169" d="M907.23,1676.67c1.426.473,2.847.959,4.266,1.447l4.254,1.481,4.244,1.511,2.118.766,2.114.779-2.135-.717-2.131-.73-4.254-1.482-4.244-1.511C910.049,1677.706,908.638,1677.195,907.23,1676.67Z" transform="translate(-860.647 -1497.227)" fill="#170c08"/>
              <path id="Trazado_730170" data-name="Trazado 730170" d="M657.959,1194.143q-.352,1.207-.652,2.429l-.295,1.221-.272,1.227q-.528,2.458-.89,4.946c-.057.414-.13.827-.177,1.244l-.151,1.247c-.049.416-.081.834-.121,1.251l-.059.625c-.019.208-.029.418-.044.627l-.084,1.253-.041,1.256-.023.628v.628l0,1.257-.037-1.257-.017-.629.008-.629.021-1.259.065-1.257c.012-.21.019-.42.035-.628l.054-.627c.038-.418.069-.837.115-1.253l.146-1.251c.045-.417.114-.831.171-1.247.251-1.66.548-3.313.921-4.949s.8-3.261,1.319-4.856Z" transform="translate(-641.996 -1078.768)" fill="#170c08"/>
              <path id="Trazado_730171" data-name="Trazado 730171" d="M1210.91,1523.146l.953-3.808.967-3.806,1.954-7.606,1.984-7.6,1-3.8,1.017-3.792-.953,3.809-.967,3.805-1.954,7.6-1.985,7.6-1,3.8Z" transform="translate(-1124.005 -1337.719)" fill="#170c08"/>
              <path id="Trazado_730172" data-name="Trazado 730172" d="M1446.437,1020.031a1.5,1.5,0,0,0,.142-1.434,1.45,1.45,0,0,0-.445-.583,4.489,4.489,0,0,0-.659-.361l-2.717-1.372-2.7-1.4-1.346-.709-1.34-.722,1.37.664,1.364.676,2.717,1.372,2.7,1.4.336.178a1.971,1.971,0,0,1,.328.21,1.512,1.512,0,0,1,.25,2.082Z" transform="translate(-1320.395 -922.07)" fill="#170c08"/>
              <path id="Trazado_730173" data-name="Trazado 730173" d="M1364.57,1088.808l2.316-3.244,2.326-3.236,4.67-6.46,4.7-6.44,2.357-3.213,2.369-3.205-2.316,3.244-2.326,3.236-4.67,6.458-4.7,6.44-2.357,3.214Z" transform="translate(-1257.261 -965.049)" fill="#170c08"/>
              <path id="Trazado_730174" data-name="Trazado 730174" d="M984.845,1080.261a1.34,1.34,0,0,1,.169-.884,1.373,1.373,0,0,1,.7-.588l1.712-.631,3.431-1.24,3.442-1.211,1.725-.595,1.73-.582-1.708.644-1.712.631-3.431,1.24-3.442,1.211-1.725.595a1.312,1.312,0,0,0-.689.545,1.357,1.357,0,0,0-.2.867Z" transform="translate(-927.943 -975.04)" fill="#170c08"/>
              <path id="Trazado_730175" data-name="Trazado 730175" d="M995.319,1196l-1.329-9.785-1.308-9.787-2.614-19.575-2.569-19.581-1.284-9.79-1.264-9.792,1.329,9.783,1.308,9.787,2.614,19.574,2.569,19.581,1.284,9.79Z" transform="translate(-928.048 -1012.469)" fill="#170c08"/>
              <path id="Trazado_730176" data-name="Trazado 730176" d="M1472.8,914c.284,1.607.554,3.215.82,4.824l.786,4.829.19,1.208.048.3c.008.05.013.1.019.156s.005.106,0,.16a1.587,1.587,0,0,1-.146.615,1.57,1.57,0,0,1-.377.506,1.79,1.79,0,0,1-.54.319l-1.126.477-2.255.949-2.26.936,2.235-1,2.24-.984,1.121-.489a1.659,1.659,0,0,0,.507-.3,1.436,1.436,0,0,0,.478-1.036c0-.049,0-.1,0-.146s-.01-.1-.019-.146l-.049-.3-.2-1.207-.754-4.834c-.246-1.612-.49-3.225-.719-4.84Z" transform="translate(-1346.923 -835.825)" fill="#170c08"/>
              <path id="Trazado_730177" data-name="Trazado 730177" d="M996.344,918.871l-1.773,3.366-1.785,3.359-3.589,6.71-1.807,3.347-.9,1.674-.226.418a1.14,1.14,0,0,0-.1.206.659.659,0,0,0-.036.216.715.715,0,0,0,.475.678l3.6,1.227,3.6,1.24-3.618-1.178-3.613-1.191a.823.823,0,0,1-.554-.777.91.91,0,0,1,.145-.475l.224-.42.9-1.677,1.8-3.354,3.617-6.695,1.818-3.342,1.83-3.335Z" transform="translate(-928.973 -840.049)" fill="#170c08"/>
              <circle id="Elipse_8017" data-name="Elipse 8017" cx="1.749" cy="1.749" r="1.749" transform="translate(9.466 115.662)" fill="#1f4168"/>
              <circle id="Elipse_8018" data-name="Elipse 8018" cx="1.749" cy="1.749" r="1.749" transform="translate(7.926 122.735)" fill="#1f4168"/>
              <path id="Trazado_730178" data-name="Trazado 730178" d="M1245.371,1268.09c1.188,1.176,2.342,2.386,3.481,3.609s2.252,2.472,3.353,3.73,2.164,2.549,3.208,3.856,2.045,2.646,3,4.018c-.508-.664-1-1.34-1.522-1.992s-1.037-1.311-1.56-1.961c-1.06-1.292-2.13-2.575-3.229-3.832s-2.205-2.51-3.328-3.748q-.84-.928-1.694-1.847c-.564-.616-1.138-1.224-1.711-1.832Z" transform="translate(-1153.889 -1142.899)" fill="#0e2640"/>
              <circle id="Elipse_8019" data-name="Elipse 8019" cx="1.749" cy="1.749" r="1.749" transform="matrix(0.696, -0.718, 0.718, 0.696, 94.588, 124.335)" fill="#1f4168"/>
              <circle id="Elipse_8020" data-name="Elipse 8020" cx="1.749" cy="1.749" r="1.749" transform="matrix(0.27, -0.963, 0.963, 0.27, 99.714, 130.912)" fill="#1f4168"/>
              <path id="Trazado_730179" data-name="Trazado 730179" d="M653.822,1105.783l-1.726,5.482s-13.416,6.89-22.076-4.894l1.5-3.679a.988.988,0,0,1,.665-.584,28.485,28.485,0,0,1,21.641,3.677Z" transform="translate(-620.246 -998.315)" fill="#1f4168"/>
              <g transform="matrix(1, 0, 0, 1, -51.32, -30.34)" filter="url(#Trazado_730180)">
                <path id="Trazado_730180-2" data-name="Trazado 730180" d="M1139.258,1138.27l6.007,5.854s-9.214,9.951-18.125,14.593l-3.71-4.208S1131.834,1141.343,1139.258,1138.27Z" transform="translate(-996.82 -999.98)" fill="#cccaca"/>
              </g>
              <path id="Trazado_730181" data-name="Trazado 730181" d="M611.264,861.217s-9.627,5.6-20.893-2.353l1-3.716a25.831,25.831,0,0,0-.421-14.849h0a11.616,11.616,0,0,1-.521-2.382h0a11.691,11.691,0,0,0-1.115-3.84L586,827.3l-4.428-4.133a1.967,1.967,0,0,1,.469-3.207c2.292-1.1,6.122-1.358,10.166,5.243l3.624,5.842a2.192,2.192,0,0,0,3.249.543l5.036-4.108a10.669,10.669,0,0,1,3.936-2.03,26.228,26.228,0,0,1,8.975-.943,3.762,3.762,0,0,1,2.7,1.523h0a2.7,2.7,0,0,1,.4,2.41h0a2.848,2.848,0,0,1,2.11.856l1.252,1.281a2.5,2.5,0,0,1,.712,1.747h0a2.38,2.38,0,0,1,1.77.665l1.082,1.016a2.956,2.956,0,0,1,.9,2.585l-.223,1.528,1.067,1.222a4.084,4.084,0,0,1,.914,3.555h0a4.279,4.279,0,0,1-1.944,2.734l-3.953,2.422a32.323,32.323,0,0,1-11.089,9.909l-1.463,3.257Z" transform="translate(-577.687 -753.749)" fill="#ffc89f"/>
              <path id="Trazado_730182" data-name="Trazado 730182" d="M969.183,752.935l-4.827-6.793a26.413,26.413,0,0,1-9.963-14.343,20.264,20.264,0,0,0-4.349-8.043q-.49-.546-1.053-1.1c-1.4-1.366-6.063-5.313-6.063-5.313a3.71,3.71,0,0,1-.771-4.515l.032-.057a3.723,3.723,0,0,1,4.921-1.48l.121.061a27.233,27.233,0,0,1,9.123,7.55l2.65,3.4a9.642,9.642,0,0,0,3.151-4.249s-.191-6.389,3.221-10.99c0,0,5.72-24.09,11.268-23.656,0,0,1.551-3.928,4.27-4.592a1.907,1.907,0,0,1,2.223,2.552l-.939,2.389h.02a1.748,1.748,0,0,1,1.578,2.29c-1.336,4.1-4.939,15.468-7.156,25.274a27.32,27.32,0,0,0-.2,11.017l1.605,8.632a27.494,27.494,0,0,0,3.516,9.219h0a34.871,34.871,0,0,1-12.375,12.74Z" transform="translate(-890.549 -631.824)" fill="#ffc89f"/>
              <path id="Trazado_730183" data-name="Trazado 730183" d="M1156.347,806.411q.464-2.29.96-4.574l.062-.285c.017-.094.028-.187.042-.281s0-.189,0-.283a2.742,2.742,0,0,0-.044-.279,1.944,1.944,0,0,0-.56-.964,1.885,1.885,0,0,0-1.006-.482,1.917,1.917,0,0,0-1.11.179,3.465,3.465,0,0,0-.943.659l-.2.208c-.064.072-.122.15-.184.224a5.435,5.435,0,0,0-.339.473,9.2,9.2,0,0,0-.971,2.113c-.068.182-.114.372-.171.558s-.11.373-.153.563l-.138.567-.117.571-.058.286-.049.288-.1.575c-.06.384-.1.77-.159,1.155v.009l0,.008-1.194,2.816-1.207,2.811-1.225,2.8-.614,1.4-.623,1.4-.012-.005.58-1.415.589-1.411,1.181-2.822,1.2-2.814,1.212-2.808,0,.016c.058-.386.113-.773.177-1.156l.106-.576.053-.288.063-.285.126-.571.147-.566c.047-.19.1-.376.162-.562s.109-.374.181-.556a9.854,9.854,0,0,1,.98-2.122,5.473,5.473,0,0,1,.339-.479c.061-.076.12-.154.185-.228l.2-.214a3.516,3.516,0,0,1,.949-.692,2.027,2.027,0,0,1,1.158-.21,1.951,1.951,0,0,1,1.072.5,2.008,2.008,0,0,1,.6,1.024,2.743,2.743,0,0,1,.045.3c0,.1,0,.2,0,.3s-.029.2-.046.3l-.064.286q-.508,2.28-1.053,4.553l-.013,0Z" transform="translate(-1067.913 -736.22)" fill="#ff9a6c"/>
              <path id="Trazado_730184" data-name="Trazado 730184" d="M1156.513,716.319a2,2,0,0,0-.694.093,3.241,3.241,0,0,0-.645.278,4.9,4.9,0,0,0-1.106.863,8.536,8.536,0,0,0-.888,1.091,12.312,12.312,0,0,0-.724,1.212,21.047,21.047,0,0,0-1.113,2.6q-.474,1.334-.821,2.711v.005l0,0c-.5.668-.955,1.372-1.39,2.083s-.844,1.442-1.237,2.179-.766,1.484-1.123,2.239-.7,1.516-1.02,2.286c-.652,1.538-1.215,3.111-1.73,4.7s-.925,3.211-1.284,4.843l-.013,0a46.3,46.3,0,0,1,1.187-4.875c.246-.8.5-1.6.793-2.382s.587-1.568.919-2.337a47.648,47.648,0,0,1,2.2-4.512,43.748,43.748,0,0,1,2.664-4.252l0,.009c.226-.919.471-1.835.774-2.733a17.857,17.857,0,0,1,1.1-2.621,9.487,9.487,0,0,1,1.654-2.312,4.811,4.811,0,0,1,1.141-.852,3.209,3.209,0,0,1,.664-.26,1.957,1.957,0,0,1,.706-.072l0,.013Z" transform="translate(-1064.869 -664.372)" fill="#ff9a6c"/>
              <path id="Trazado_730185" data-name="Trazado 730185" d="M1146.131,713.79l-1.086,2.7-1.1,2.691c-.73,1.8-1.476,3.583-2.215,5.374v0l0,.005c-.542.973-1.029,1.982-1.48,3s-.868,2.061-1.244,3.115-.732,2.114-1.031,3.192c-.162.536-.3,1.078-.44,1.62-.074.269-.133.544-.2.817l-.187.819c.222-1.1.457-2.194.755-3.273s.631-2.151,1-3.211.786-2.1,1.232-3.128a33.176,33.176,0,0,1,1.482-3.021l0,.008c.749-1.787,1.489-3.577,2.245-5.36l1.131-2.677,1.143-2.672Z" transform="translate(-1060.038 -662.199)" fill="#ff9a6c"/>
              <path id="Trazado_730186" data-name="Trazado 730186" d="M1129.64,904.748c.092-.45.159-.9.206-1.36s.082-.912.093-1.369.009-.915-.019-1.37a13.34,13.34,0,0,0-.153-1.361,10.349,10.349,0,0,0-.765-2.62,8.586,8.586,0,0,0-1.493-2.288c.157.167.327.324.469.5.073.089.149.175.22.266l.2.279a8.182,8.182,0,0,1,.693,1.2,8.492,8.492,0,0,1,.493,1.293,10.672,10.672,0,0,1,.311,1.348,13.945,13.945,0,0,1-.26,5.483Z" transform="translate(-1051.678 -818.81)" fill="#ff9a6c"/>
              <path id="Trazado_730187" data-name="Trazado 730187" d="M1101.527,1049.174a22.639,22.639,0,0,1-.766-4.508,35.367,35.367,0,0,1-.04-4.58c.028-.381.064-.761.1-1.142.017-.19.031-.381.052-.571l.073-.568c.05-.378.1-.758.15-1.135l.2-1.127.1-.563c.039-.187.084-.373.126-.559l.255-1.117c.023-.093.042-.186.066-.279l.078-.275.157-.551.315-1.1-.28,1.109-.141.554-.07.278c-.023.093-.04.186-.06.28l-.236,1.118c-.039.186-.081.372-.117.559l-.092.564-.187,1.127c-.052.377-.1.755-.143,1.133l-.071.567c-.02.19-.032.38-.048.568-.029.38-.064.758-.089,1.138a37.108,37.108,0,0,0,.008,4.565l.037.569.056.568c.021.19.036.38.061.568l.076.566a19.882,19.882,0,0,0,.432,2.244Z" transform="translate(-1028.399 -937.376)" fill="#ff9a6c"/>
              <path id="Trazado_730188" data-name="Trazado 730188" d="M1048.275,1006.711c-.187.154-.373.309-.551.473s-.358.324-.531.493c-.345.337-.678.685-.993,1.05a11.817,11.817,0,0,0-.87,1.151c-.127.2-.258.406-.365.623-.125.207-.208.434-.315.653a6.255,6.255,0,0,1,.591-1.332,8.938,8.938,0,0,1,.856-1.184,11.02,11.02,0,0,1,1.025-1.038,9.708,9.708,0,0,1,1.153-.89Z" transform="translate(-979.821 -916.225)" fill="#ff9a6c"/>
              <path id="Trazado_730189" data-name="Trazado 730189" d="M1004.621,968.48a7.95,7.95,0,0,1-.694,1.484,9.4,9.4,0,0,1-.963,1.332,7.75,7.75,0,0,1-1.2,1.119,6.629,6.629,0,0,1-1.421.815c.118-.069.236-.138.354-.2l.177-.1c.057-.037.113-.077.169-.114l.339-.226.32-.252c.053-.043.108-.082.158-.126l.151-.135c.1-.092.2-.177.3-.272l.284-.289c.1-.1.179-.2.271-.3a10.7,10.7,0,0,0,.976-1.3l.215-.347c.067-.118.137-.235.2-.354C1004.389,968.973,1004.508,968.728,1004.621,968.48Z" transform="translate(-941.394 -883.071)" fill="#ff9a6c"/>
              <path id="Trazado_730190" data-name="Trazado 730190" d="M826.126,887.676l-7.636.414c.316-.042.633-.08.949-.115l.952-.092c.635-.057,1.272-.1,1.908-.137s1.275-.06,1.912-.072,1.276-.018,1.913,0Z" transform="translate(-783.69 -812.985)" fill="#ff9a6c"/>
              <path id="Trazado_730191" data-name="Trazado 730191" d="M682.544,912.961a9.555,9.555,0,0,1-1.126.783,9.74,9.74,0,0,1-1.22.633,7.073,7.073,0,0,1-1.309.43,4.065,4.065,0,0,1-1.369.076c.114,0,.228-.008.343-.009a.919.919,0,0,0,.17-.015l.169-.023c.056-.008.113-.012.169-.02l.166-.035c.11-.026.223-.04.331-.076l.327-.093.321-.11c.108-.035.212-.078.317-.12s.211-.081.313-.13c.418-.175.822-.385,1.223-.6.2-.106.4-.22.594-.337s.39-.234.584-.357Z" transform="translate(-661.439 -834.923)" fill="#ff9a6c"/>
              <path id="Trazado_730192" data-name="Trazado 730192" d="M862.235,917l-1.71.2c-.57.069-1.138.134-1.706.216s-1.134.161-1.7.254c-.281.049-.566.094-.846.153s-.562.114-.843.17a16.347,16.347,0,0,1,1.67-.425c.563-.114,1.133-.2,1.7-.286s1.141-.138,1.713-.186,1.146-.084,1.721-.094Z" transform="translate(-815.726 -838.427)" fill="#ff9a6c"/>
              <path id="Trazado_730193" data-name="Trazado 730193" d="M894.561,960.243c-.25,0-.5,0-.747.015s-.5.013-.746.025c-.5.024-.993.053-1.487.1s-.988.1-1.48.166c-.246.035-.491.072-.736.12s-.487.1-.734.141a11.384,11.384,0,0,1,1.453-.361c.491-.09.988-.157,1.486-.2s1-.066,1.5-.066a14.76,14.76,0,0,1,1.5.064Z" transform="translate(-844.517 -875.873)" fill="#ff9a6c"/>
              <path id="Trazado_730194" data-name="Trazado 730194" d="M1205.58,716.351a1.9,1.9,0,0,1,.653.143,1.705,1.705,0,0,1,.552.381,1.738,1.738,0,0,1,.51,1.224c0,.057,0,.114-.005.17l-.022.17c-.027.11-.053.223-.089.328l-.2.637-.4,1.276c-.536,1.7-1.061,3.407-1.587,5.112s-1.054,3.41-1.551,5.123c-.248.856-.493,1.716-.725,2.576s-.467,1.722-.7,2.584q-.677,2.589-1.3,5.19a48.807,48.807,0,0,0-1.072,5.234,28.273,28.273,0,0,0-.163,5.331c.058.888.159,1.775.3,2.654l.458,2.637-.013,0c-.169-.876-.353-1.749-.51-2.628s-.266-1.767-.335-2.658a26.355,26.355,0,0,1,.123-5.355,26.668,26.668,0,0,1,.465-2.642c.206-.868.4-1.739.621-2.605.422-1.734.887-3.458,1.356-5.18s.965-3.436,1.45-5.155.979-3.432,1.489-5.143,1.049-3.412,1.595-5.111l.416-1.272.211-.635c.037-.106.064-.211.09-.317l.024-.162c.008-.055,0-.109.008-.163a1.8,1.8,0,0,0-.119-.641,1.763,1.763,0,0,0-.352-.552,1.685,1.685,0,0,0-.532-.386,1.88,1.88,0,0,0-.643-.157v-.013Z" transform="translate(-1113.934 -664.419)" fill="#ff9a6c"/>
              <path id="Trazado_730195" data-name="Trazado 730195" d="M1204.79,683.013a10.751,10.751,0,0,1,1.66-2.851,6.387,6.387,0,0,1,1.2-1.143,4.55,4.55,0,0,1,.721-.424,3.2,3.2,0,0,1,.8-.263,2.072,2.072,0,0,1,.425-.032,1.976,1.976,0,0,1,.421.069,1.877,1.877,0,0,1,.748.393,2.1,2.1,0,0,1,.517.668,1.92,1.92,0,0,1,.183.822c0,.07,0,.142-.009.211l-.036.208a1.478,1.478,0,0,1-.06.2c-.021.068-.044.134-.07.2l-.311.765-.635,1.524.574-1.548.293-.771a1.839,1.839,0,0,0,.065-.193,1.683,1.683,0,0,0,.053-.194l.031-.2c.007-.066,0-.134.005-.2a1.9,1.9,0,0,0-.185-.773,1.971,1.971,0,0,0-.49-.624,1.751,1.751,0,0,0-.7-.362,1.868,1.868,0,0,0-.392-.061,1.975,1.975,0,0,0-.4.033,3.062,3.062,0,0,0-.767.247,4.424,4.424,0,0,0-.7.406,6.209,6.209,0,0,0-.631.518q-.295.283-.566.594a10.324,10.324,0,0,0-.964,1.331,12.394,12.394,0,0,0-.776,1.454Z" transform="translate(-1118.697 -631.422)" fill="#ff9a6c"/>
              <path id="Trazado_730196" data-name="Trazado 730196" d="M1103.09,741.932a17.066,17.066,0,0,1,.914-2.361,13.448,13.448,0,0,1,1.293-2.179l-.007.013q.787-3.294,1.758-6.542c.644-2.164,1.337-4.315,2.126-6.433a48.666,48.666,0,0,1,2.726-6.2,16.947,16.947,0,0,1,1.864-2.828,6.548,6.548,0,0,1,1.24-1.153,3.23,3.23,0,0,1,.755-.381,2.229,2.229,0,0,1,.835-.109,2.171,2.171,0,0,0-.83.122,3.212,3.212,0,0,0-.745.39,6.507,6.507,0,0,0-1.214,1.166,17.4,17.4,0,0,0-1.826,2.836,51.957,51.957,0,0,0-2.687,6.2c-.775,2.118-1.478,4.262-2.129,6.424s-1.255,4.335-1.8,6.525v.008l-.007.007a14.106,14.106,0,0,0-1.317,2.152,17.168,17.168,0,0,0-.951,2.344Z" transform="translate(-1030.501 -662.167)" fill="#ff9a6c"/>
            </g>
          </g>
          <g id="FRONT" transform="translate(48.564 83.806)">
            <g id="Grupo_1014201" data-name="Grupo 1014201">
              <rect id="Rectángulo_348758" data-name="Rectángulo 348758" width="191.283" height="0.405" transform="translate(0 162.521)" fill="#1b1a2e"/>
              <g id="Grupo_1014200" data-name="Grupo 1014200" transform="translate(156.487)">
                <path id="Trazado_730197" data-name="Trazado 730197" d="M1569.456,635.3a12.6,12.6,0,0,0-21.582,12.026l-4.264,3.791,6.675.53a12.6,12.6,0,1,0,19.171-16.348Z" transform="translate(-1543.609 -630.822)" fill="#fff"/>
                <g id="Grupo_1014198" data-name="Grupo 1014198" transform="translate(8.708 10.623)">
                  <circle id="Elipse_8021" data-name="Elipse 8021" cx="1.396" cy="1.396" r="1.396" transform="translate(11.546 2.579) rotate(-67.5)" fill="#1f4068"/>
                  <path id="Trazado_730198" data-name="Trazado 730198" d="M1654.27,715.106a1.4,1.4,0,1,0,1.4-1.4A1.4,1.4,0,0,0,1654.27,715.106Z" transform="translate(-1648.283 -713.282)" fill="#1f4068"/>
                  <path id="Trazado_730199" data-name="Trazado 730199" d="M1609.18,715.106a1.4,1.4,0,1,0,1.4-1.4A1.4,1.4,0,0,0,1609.18,715.106Z" transform="translate(-1609.18 -713.282)" fill="#1f4068"/>
                </g>
                <g id="Grupo_1014199" data-name="Grupo 1014199">
                  <path id="Trazado_730200" data-name="Trazado 730200" d="M1543.61,783.32q.831.1,1.665.182c.555.055,1.111.1,1.668.147s1.113.085,1.67.118,1.114.064,1.673.082q-.83-.1-1.665-.182c-.555-.054-1.111-.1-1.668-.146s-1.113-.085-1.67-.118S1544.169,783.34,1543.61,783.32Z" transform="translate(-1543.609 -763.026)" fill="#1b1a2e"/>
                  <path id="Trazado_730201" data-name="Trazado 730201" d="M1547.865,754.76q-.558.446-1.1.911c-.363.308-.72.623-1.076.937s-.708.635-1.057.959-.694.651-1.033.985q.558-.446,1.1-.911c.363-.308.72-.623,1.075-.937s.708-.635,1.057-.959S1547.526,755.095,1547.865,754.76Z" transform="translate(-1543.6 -738.259)" fill="#1b1a2e"/>
                  <path id="Trazado_730202" data-name="Trazado 730202" d="M1574.146,651.309a12.617,12.617,0,0,0,20.059-1.075,12.554,12.554,0,0,0,1.855-4.242,12.772,12.772,0,0,0,.2-4.628,12.632,12.632,0,0,0-1.471-4.392,12.288,12.288,0,0,0-1.318-1.916,12.913,12.913,0,0,0-1.643-1.646,12.467,12.467,0,0,0-4.042-2.261,12.735,12.735,0,0,0-4.584-.651,12.585,12.585,0,0,0-4.511,1.037,12.754,12.754,0,0,0-3.828,2.6,12.549,12.549,0,0,0-3.726,8.283,12.625,12.625,0,0,0,.594,4.574,12.59,12.59,0,0,1-.563-4.573,12.579,12.579,0,0,1,16.58-11.156,12.363,12.363,0,0,1,4,2.245,12.836,12.836,0,0,1,1.625,1.632,12.3,12.3,0,0,1,1.3,1.9,12.544,12.544,0,0,1-.566,13.137,12.584,12.584,0,0,1-19.968,1.139Z" transform="translate(-1567.469 -630.486)" fill="#1b1a2e"/>
                </g>
              </g>
            </g>
          </g>
        </g>
        <g id="Grupo_1014203" data-name="Grupo 1014203" transform="translate(143.061 126.353)">
          <g id="Grupo_1014202" data-name="Grupo 1014202" clip-path="url(#clip-path-5)">
            <path id="Trazado_730203" data-name="Trazado 730203" d="M122.623,109.978c-1.032,0-1.712.375-1.712,1.126,0,2.721,8.655,1.173,8.655,7.083,0,3.354-2.955,5.066-6.615,5.066a12.351,12.351,0,0,1-7.576-2.627l1.665-3.354A10.5,10.5,0,0,0,123,119.759c1.267,0,2.064-.469,2.064-1.337,0-2.791-8.655-1.1-8.655-6.92,0-3.072,2.6-5.019,6.568-5.019a12.614,12.614,0,0,1,6.568,1.853l-1.619,3.4a12.781,12.781,0,0,0-5.3-1.759" transform="translate(-67.554 -60.816)" fill="#fff"/>
            <path id="Trazado_730204" data-name="Trazado 730204" d="M119.937,2.754a2.419,2.419,0,0,1-1.883,2.366A2.693,2.693,0,0,1,120.3,7.874c0,1.867-1.634,3.034-4.2,3.034h-5.384V0h5.182c2.474,0,4.046,1.073,4.046,2.754m-2.926.5c0-.653-.483-1.043-1.276-1.027h-2.179V4.342h2.179c.794,0,1.276-.4,1.276-1.09m.342,4.264c0-.685-.623-1.121-1.619-1.1h-2.179V8.7h2.179c1,0,1.619-.436,1.619-1.183" transform="translate(-55.794)" fill="#fff"/>
            <path id="Trazado_730205" data-name="Trazado 730205" d="M38.505,21.372H32.1l-1.037,2.622H27.086L33.451,9.171h3.976l6.217,14.824H39.52Zm-1.142-2.96-2.03-5.287-2.072,5.287Z" transform="translate(-25.57 -5.814)" fill="#fff"/>
            <rect id="Rectángulo_348759" data-name="Rectángulo 348759" width="2.568" height="9.837" transform="translate(30.864 39.783)" fill="#fff"/>
            <path id="Trazado_730206" data-name="Trazado 730206" d="M1.82,75.181l1.618,4.686,1.626-4.686H6.8L4.269,81.659H2.513L0,75.181Z" transform="translate(41.72 -52.193)" fill="#fff"/>
          </g>
        </g>
      </g>
    </g>
  </g>
</svg>
