<svg xmlns="http://www.w3.org/2000/svg" width="70.914" height="74.637" viewBox="0 0 70.914 74.637">
  <g id="perdedor" transform="translate(-3 -2)">
    <path id="Trazado_708800" data-name="Trazado 708800" d="M50.178,50.9a8.241,8.241,0,0,1-2.966-6.331V43.62H32.54v.946A8.24,8.24,0,0,1,29.574,50.9l5.411,5.414h9.781Z" transform="translate(5.917 9.267)" fill="#cf8c78"/>
    <path id="Trazado_708801" data-name="Trazado 708801" d="M50.352,50.651a8.227,8.227,0,0,1-2.945-5.926c-.16.1-.318.2-.489.291a14.018,14.018,0,0,1-11.937.822.572.572,0,0,0-.769.412l-.015.059a8.161,8.161,0,0,1-4.174,5.127l-1.223.649,3.5,4.9,3.217.536s2.451-.825,3.889-1.451h5.531Z" transform="translate(5.745 9.513)" fill="#f1b8a0"/>
    <path id="Trazado_708802" data-name="Trazado 708802" d="M59.68,14.574v2.879a121.5,121.5,0,0,1-.856,14.427H23.856A121.5,121.5,0,0,1,23,17.453V16.344Z" transform="translate(4.453 2.8)" fill="#4c4c4c"/>
    <g id="Grupo_1003782" data-name="Grupo 1003782" transform="translate(26.231 22.634)">
      <path id="Trazado_708803" data-name="Trazado 708803" d="M26.891,28a4.891,4.891,0,0,0,0,9.781h.45" transform="translate(-22 -16.844)" fill="#cf8c78"/>
      <path id="Trazado_708804" data-name="Trazado 708804" d="M50.082,28a4.891,4.891,0,0,1,0,9.781h-.45" transform="translate(-15.847 -16.844)" fill="#cf8c78"/>
      <path id="Trazado_708805" data-name="Trazado 708805" d="M53.632,19.272l.073.148a15.528,15.528,0,0,1,1.638,6.943v9.781a15.161,15.161,0,0,1-7.8,13.252A14.135,14.135,0,0,1,33.8,49.4,15.161,15.161,0,0,1,26,36.145V26.364a15.529,15.529,0,0,1,1.641-6.949l.268-.538" transform="translate(-21.109 -18.876)" fill="#cf8c78"/>
    </g>
    <path id="Trazado_708806" data-name="Trazado 708806" d="M35.8,49.39a14.143,14.143,0,0,0,5.651,1.7,14.142,14.142,0,0,0,5.651-1.7,15.161,15.161,0,0,0,7.8-13.252V26.356a15.529,15.529,0,0,0-1.641-6.949l-.07-.142L29.894,18.91l-.251.5A15.528,15.528,0,0,0,28,26.356v9.781a15.161,15.161,0,0,0,7.8,13.252Z" transform="translate(5.566 3.765)" fill="#f1b8a0"/>
    <path id="Trazado_708808" data-name="Trazado 708808" d="M25.163,9.084a6.276,6.276,0,0,0,.067,10.937A34.324,34.324,0,0,0,41.9,24.34h3.674a19.266,19.266,0,0,0,8.615-2.034,12.548,12.548,0,0,0,6.937-11.223V8.445l-1.6,1.6a2.871,2.871,0,0,1-2.031.841,10.486,10.486,0,0,1-4.7-1.11A35.831,35.831,0,0,0,36.773,6,23.4,23.4,0,0,0,25.162,9.084Z" transform="translate(4.231 0.891)" fill="#212121"/>
    <path id="Trazado_708809" data-name="Trazado 708809" d="M57.045,10.891a10.486,10.486,0,0,1-4.7-1.11A35.831,35.831,0,0,0,36.328,6,23.4,23.4,0,0,0,24.8,9.042a6.261,6.261,0,0,0,2.433,8.533,34.324,34.324,0,0,0,16.67,4.32h3.674a19.266,19.266,0,0,0,8.615-2.034,12.425,12.425,0,0,0,1.943-1.236,12.726,12.726,0,0,0,.762-1.087,12.547,12.547,0,0,0,1.788-6.456V8.445l-1.6,1.6a2.871,2.871,0,0,1-2.031.841Z" transform="translate(4.676 0.891)" fill="#383838"/>
    <path id="Trazado_708810" data-name="Trazado 708810" d="M71.02,66.117v-4.26a10.379,10.379,0,0,0-7.4-9.938L53.9,49l-.57.569a14.757,14.757,0,0,1-20.871,0L31.895,49,16,52.668v13.5Z" transform="translate(2.895 10.465)" fill="#0059bd"/>
    <path id="Trazado_708811" data-name="Trazado 708811" d="M70.3,61.857a10.38,10.38,0,0,0-7.4-9.941L53.183,49l-.57.569a14.757,14.757,0,0,1-20.871,0L31.175,49,19.23,51.756A13.5,13.5,0,0,0,32.452,62.491L70.3,62.449Z" transform="translate(3.614 10.465)" fill="#006bda"/>
    <path id="Trazado_708812" data-name="Trazado 708812" d="M30,31.621l.471-.627,3.08-1.539a28.741,28.741,0,0,0,7.478-5.391,2.942,2.942,0,0,0-1.9-5.02h-.367a11.609,11.609,0,0,0-6.288,1.94l-.856.573-3.24.809-.165-3.491h-.3l-.269.539A15.528,15.528,0,0,0,26,26.364v8.965a15.425,15.425,0,0,0,4-3.707Z" transform="translate(5.121 3.758)" fill="#b7796a"/>
    <path id="Trazado_708813" data-name="Trazado 708813" d="M27.858,19v-.116h-.27C27.675,18.913,27.765,18.958,27.858,19Z" transform="translate(5.475 3.758)" fill="#212121"/>
    <path id="Trazado_708814" data-name="Trazado 708814" d="M31.907,20.531a34.365,34.365,0,0,0,7.786.911h.838a2.95,2.95,0,0,0-2.718-2.427h-.367a11.606,11.606,0,0,0-5.539,1.516Z" transform="translate(6.436 3.789)" fill="#111"/>
    <path id="Trazado_708815" data-name="Trazado 708815" d="M18.895,63.133,15.227,61.91l11-22.008a14.2,14.2,0,0,0,7.915-5.257l.643-.856,3.337-1.669a27.533,27.533,0,0,0,7.161-5.161,1.729,1.729,0,0,0-1.223-2.951,10.447,10.447,0,0,0-5.793,1.753l-1.037.692-4.891,1.223L31.232,4.349A2.469,2.469,0,0,0,28.758,2H28.7a2.465,2.465,0,0,0-2.466,2.465V16.672L22.75,17.895a5.364,5.364,0,0,0-5.078,3.668H16.449a3.668,3.668,0,0,0-3.668,3.668,24.685,24.685,0,0,0,.48,4.846L15.227,39.9,3.856,60.37a6.8,6.8,0,0,0,3.1,9.476L18.895,75.36Z" transform="translate(0 0)" fill="#cf8c78"/>
    <path id="Trazado_708816" data-name="Trazado 708816" d="M42.842,25.008a10.441,10.441,0,0,0-5.792,1.754l-1.037.692-4.891,1.223L30.01,5.349A2.469,2.469,0,0,0,27.535,3h-.061a2.445,2.445,0,0,0-1.018.225,2.466,2.466,0,0,0-.225,1.017V16.449L22.75,17.672a5.364,5.364,0,0,0-5.078,3.668H16.449a3.668,3.668,0,0,0-3.668,3.668,24.685,24.685,0,0,0,.48,4.846l1.965,9.826L3.856,60.147A6.8,6.8,0,0,0,6.95,69.624l11.944,5.513V62.91l-3.668-1.223,11-22.008a14.2,14.2,0,0,0,7.915-5.257l.643-.856L38.126,31.9a27.492,27.492,0,0,0,6.1-4.185,1.687,1.687,0,0,0-1.388-2.7Z" transform="translate(0 0.223)" fill="#f1b8a0"/>
    <path id="Trazado_708817" data-name="Trazado 708817" d="M16.512,27.181a.763.763,0,0,1-.392.111,1.109,1.109,0,0,1-1.054-.76l-.691-2.071-2.323.773.691,2.079a3.555,3.555,0,0,0,3.373,2.426,3.179,3.179,0,0,0,1.784-.556,3.257,3.257,0,0,0,4.524-.885,3.271,3.271,0,0,0,1.18.219,3.307,3.307,0,0,0,3.276-2.89l.8-6.393a26.9,26.9,0,0,0,.205-3.3H25.438a24.608,24.608,0,0,1-.186,3l-.8,6.393a.856.856,0,0,1-1.7,0l-.8-6.393a24.608,24.608,0,0,1-.186-3V14.707l-1.036.367a5.352,5.352,0,0,0-1.41.2v.659a26.9,26.9,0,0,0,.205,3.3l.8,6.393a3.245,3.245,0,0,0,.219.8v.029a.838.838,0,0,1-1.651.2l-2.054-8.22-2.372.592Z" transform="translate(2.016 2.829)" fill="#cf8c78"/>
  </g>
</svg>
