<svg xmlns="http://www.w3.org/2000/svg" xmlns:xlink="http://www.w3.org/1999/xlink" width="247.736" height="241.723" viewBox="0 0 247.736 241.723">
  <defs>
    <clipPath id="clip-path">
      <path id="Trazado_715417" data-name="Trazado 715417" d="M158.613,188.539c5.133-6.283,9.645-13.578,16.314-18.6,6.644-5,15.86-7.227,23-11.65a97.6,97.6,0,0,0,15.416-11.519A42.919,42.919,0,0,1,203.984,157c-4.86,3.816-10.854,6.186-16.325,8.965a49.217,49.217,0,0,0-14.154,10.2c-7.881,8.5-14.9,17.831-25.17,23.623a61.957,61.957,0,0,1-6.676,3.252,57.674,57.674,0,0,0,16.954-14.5M214.3,80.129c-8.351-7.287-18.8-11.439-27.929-17.577-7.351-4.94-12.83-16.211-16.419-23.665-4.845-10.067-12.084-21.578-21.517-28.5a48.5,48.5,0,0,0-12.01-6.341c2.581.569,5.158,1.145,7.689,1.921a33.236,33.236,0,0,1,12.337,7.382,69.6,69.6,0,0,1,14.7,19.269c3.323,6.384,5.406,13.409,9.492,19.388,3.709,5.428,8.984,9.5,14.475,12.99,11.945,7.592,25.533,13.55,30.916,27.73,2.137,5.625,2.169,12,1.676,18.026-.18-11.477-4.351-22.721-13.406-30.623M111.757,0C86.568.019,59.411,10.873,47.472,28.071c-6.414,9.235-7.055,15.907-6.286,26.5C42.306,70.026,37.229,78.651,26,89.158c-9.013,8.433-17.628,18.02-21.9,29.086q.38-1.416.856-2.812c2.672-7.82,7.726-14.744,13.118-20.9,4.875-5.571,10.764-10.269,14.96-16.416,8.9-13.042,2.909-28.908,7.23-43.155C44.932,19.569,61.639,12.711,75.2,7.249c.408-.164-.3-.378-.495-.314C61.066,11.292,45.788,18.41,39.409,32.092c-2.937,6.3-3,13.52-3.1,20.324-.131,9.147-.517,17.46-5.659,25.375-4.362,6.716-11.114,11.843-16.314,17.9-5.419,6.318-10,13.454-12.5,21.433C-1.837,128.8.116,143.74,6.706,154.665a108.916,108.916,0,0,0,8.827,15.955c18.7,28.39,56.949,38.083,88.991,39.335,10.2.4,19.13-.331,27.134-2.741a32.975,32.975,0,0,0,6.35-1.534c3.367-1.219,6.781-2.723,10.023-4.22,11.239-5.19,19.131-15,27.479-23.76,9.153-9.6,22.185-12.392,32.436-20.346a41.458,41.458,0,0,0,11.25-13.846,31.814,31.814,0,0,0,3.316-9.386q.958-1.975,1.748-4.033c6.572-9.962,7.836-24.309,4.952-35.441-3.732-14.412-17.544-21.667-29.352-28.641-6.471-3.823-12.579-8.186-17.086-14.292-4.465-6.05-6.974-13.474-10.484-20.081a72.425,72.425,0,0,0-14.644-18.63c-6.178-5.69-13.535-7.964-21.636-9.434-.679-.123-1.358-.241-2.037-.359a65.047,65.047,0,0,0-8.219-2.018A79.471,79.471,0,0,0,111.872,0Z" transform="translate(0 -0.004)" fill="#f5b3bf"/>
    </clipPath>
    <filter id="Rectángulo_33844" x="190.556" y="151.675" width="43.561" height="28.871" filterUnits="userSpaceOnUse">
      <feOffset dy="3" input="SourceAlpha"/>
      <feGaussianBlur stdDeviation="3" result="blur"/>
      <feFlood flood-opacity="0.161"/>
      <feComposite operator="in" in2="blur"/>
      <feComposite in="SourceGraphic"/>
    </filter>
    <filter id="Trazado_113690" x="199.839" y="159.035" width="40.589" height="29.548" filterUnits="userSpaceOnUse">
      <feOffset dy="3" input="SourceAlpha"/>
      <feGaussianBlur stdDeviation="3" result="blur-2"/>
      <feFlood flood-opacity="0.161"/>
      <feComposite operator="in" in2="blur-2"/>
      <feComposite in="SourceGraphic"/>
    </filter>
    <filter id="Rectángulo_33844-2" x="22.3" y="42.611" width="43.561" height="28.871" filterUnits="userSpaceOnUse">
      <feOffset dy="3" input="SourceAlpha"/>
      <feGaussianBlur stdDeviation="3" result="blur-3"/>
      <feFlood flood-opacity="0.161"/>
      <feComposite operator="in" in2="blur-3"/>
      <feComposite in="SourceGraphic"/>
    </filter>
    <filter id="Trazado_113690-2" x="31.584" y="49.972" width="40.589" height="29.548" filterUnits="userSpaceOnUse">
      <feOffset dy="3" input="SourceAlpha"/>
      <feGaussianBlur stdDeviation="3" result="blur-4"/>
      <feFlood flood-opacity="0.161"/>
      <feComposite operator="in" in2="blur-4"/>
      <feComposite in="SourceGraphic"/>
    </filter>
    <filter id="Trazado_113638" x="84.572" y="41.881" width="65.875" height="65.875" filterUnits="userSpaceOnUse">
      <feOffset dy="3" input="SourceAlpha"/>
      <feGaussianBlur stdDeviation="3" result="blur-5"/>
      <feFlood flood-opacity="0.161"/>
      <feComposite operator="in" in2="blur-5"/>
      <feComposite in="SourceGraphic"/>
    </filter>
  </defs>
  <g id="Grupo_1014211" data-name="Grupo 1014211" transform="translate(8805.245 6071.599)">
    <g id="Grupo_1014074" data-name="Grupo 1014074" transform="translate(-8792.938 -6039.93)">
      <g id="Grupo_1012586" data-name="Grupo 1012586" transform="translate(0 0)">
        <g id="Grupo_1010424" data-name="Grupo 1010424" transform="translate(0 0)">
          <g id="Grupo_1006262" data-name="Grupo 1006262" transform="translate(0 0)">
            <g id="Grupo_1006260" data-name="Grupo 1006260" clip-path="url(#clip-path)">
              <rect id="Rectángulo_346887" data-name="Rectángulo 346887" width="233.932" height="210.349" transform="translate(-1.837 0)" fill="#f5b3bf"/>
            </g>
          </g>
          <g id="Grupo_1006266" data-name="Grupo 1006266" transform="translate(187.248 122.467)">
            <g id="Grupo_1006264" data-name="Grupo 1006264" transform="translate(0 3.539)">
              <g transform="matrix(1, 0, 0, 1, -199.56, -157.68)" filter="url(#Rectángulo_33844)">
                <rect id="Rectángulo_33844-3" data-name="Rectángulo 33844" width="25.56" height="10.871" rx="3" transform="translate(199.56 157.68)" fill="#f9e8dc"/>
              </g>
              <g transform="matrix(1, 0, 0, 1, -199.56, -157.68)" filter="url(#Trazado_113690)">
                <path id="Trazado_113690-3" data-name="Trazado 113690" d="M2.892,11.548H19.7a2.892,2.892,0,0,0,2.892-2.892V2.892A2.892,2.892,0,0,0,19.7,0H2.892A2.892,2.892,0,0,0,0,2.892V8.656a2.892,2.892,0,0,0,2.892,2.892" transform="translate(208.84 165.04)" fill="#f5b3bf"/>
              </g>
              <path id="Trazado_113691" data-name="Trazado 113691" d="M2.81,1.4a1.4,1.4,0,1,0-1.4,1.4,1.4,1.4,0,0,0,1.4-1.4" transform="translate(13.349 11.729)" fill="#fff"/>
              <path id="Trazado_113692" data-name="Trazado 113692" d="M2.81,1.4a1.4,1.4,0,1,0-1.4,1.4,1.4,1.4,0,0,0,1.4-1.4" transform="translate(19.174 11.729)" fill="#fff"/>
              <path id="Trazado_113693" data-name="Trazado 113693" d="M2.81,1.4a1.4,1.4,0,1,0-1.4,1.4,1.4,1.4,0,0,0,1.4-1.4" transform="translate(24.997 11.729)" fill="#fff"/>
            </g>
            <g id="Grupo_1006265" data-name="Grupo 1006265" transform="translate(19.941 0)">
              <path id="Trazado_113641" data-name="Trazado 113641" d="M1520.082,262.383a.741.741,0,1,1-.741-.741.741.741,0,0,1,.741.741" transform="translate(-1518.599 -261.642)" fill="#ed9aa9"/>
              <path id="Trazado_113642" data-name="Trazado 113642" d="M1571.756,262.383a.741.741,0,1,1-.741-.741.741.741,0,0,1,.741.741" transform="translate(-1567.014 -261.642)" fill="#ed9aa9"/>
              <path id="Trazado_113643" data-name="Trazado 113643" d="M1623.431,262.383a.741.741,0,1,1-.741-.741.741.741,0,0,1,.741.741" transform="translate(-1615.427 -261.642)" fill="#ed9aa9"/>
              <path id="Trazado_113644" data-name="Trazado 113644" d="M1675.107,262.383a.741.741,0,1,1-.741-.741.741.741,0,0,1,.741.741" transform="translate(-1663.842 -261.642)" fill="#ed9aa9"/>
              <path id="Trazado_113646" data-name="Trazado 113646" d="M1520.082,311.709a.741.741,0,1,1-.741-.741.741.741,0,0,1,.741.741" transform="translate(-1518.599 -307.855)" fill="#ed9aa9"/>
              <path id="Trazado_113647" data-name="Trazado 113647" d="M1571.756,311.709a.741.741,0,1,1-.741-.741.741.741,0,0,1,.741.741" transform="translate(-1567.014 -307.855)" fill="#ed9aa9"/>
              <path id="Trazado_113648" data-name="Trazado 113648" d="M1623.431,311.709a.741.741,0,1,1-.741-.741.741.741,0,0,1,.741.741" transform="translate(-1615.427 -307.855)" fill="#ed9aa9"/>
              <path id="Trazado_113649" data-name="Trazado 113649" d="M1675.107,311.709a.741.741,0,1,1-.741-.741.741.741,0,0,1,.741.741" transform="translate(-1663.842 -307.855)" fill="#ed9aa9"/>
              <path id="Trazado_113651" data-name="Trazado 113651" d="M1520.082,361.035a.741.741,0,1,1-.741-.741.741.741,0,0,1,.741.741" transform="translate(-1518.599 -354.069)" fill="#ed9aa9"/>
              <path id="Trazado_113652" data-name="Trazado 113652" d="M1571.756,361.035a.741.741,0,1,1-.741-.741.741.741,0,0,1,.741.741" transform="translate(-1567.014 -354.069)" fill="#ed9aa9"/>
              <path id="Trazado_113653" data-name="Trazado 113653" d="M1623.431,361.035a.741.741,0,1,1-.741-.741.741.741,0,0,1,.741.741" transform="translate(-1615.427 -354.069)" fill="#ed9aa9"/>
              <path id="Trazado_113654" data-name="Trazado 113654" d="M1675.107,361.035a.741.741,0,1,1-.741-.741.741.741,0,0,1,.741.741" transform="translate(-1663.842 -354.069)" fill="#ed9aa9"/>
              <path id="Trazado_113656" data-name="Trazado 113656" d="M1520.082,410.362a.741.741,0,1,1-.741-.741.741.741,0,0,1,.741.741" transform="translate(-1518.599 -400.283)" fill="#ed9aa9"/>
              <path id="Trazado_113657" data-name="Trazado 113657" d="M1571.756,410.362a.741.741,0,1,1-.741-.741.741.741,0,0,1,.741.741" transform="translate(-1567.014 -400.283)" fill="#ed9aa9"/>
              <path id="Trazado_113658" data-name="Trazado 113658" d="M1623.431,410.362a.741.741,0,1,1-.741-.741.741.741,0,0,1,.741.741" transform="translate(-1615.427 -400.283)" fill="#ed9aa9"/>
              <path id="Trazado_113659" data-name="Trazado 113659" d="M1675.107,410.362a.741.741,0,1,1-.741-.741.741.741,0,0,1,.741.741" transform="translate(-1663.842 -400.283)" fill="#ed9aa9"/>
              <path id="Trazado_113661" data-name="Trazado 113661" d="M1520.082,459.688a.741.741,0,1,1-.741-.741.741.741,0,0,1,.741.741" transform="translate(-1518.599 -446.496)" fill="#ed9aa9"/>
              <path id="Trazado_113662" data-name="Trazado 113662" d="M1571.756,459.688a.741.741,0,1,1-.741-.741.741.741,0,0,1,.741.741" transform="translate(-1567.014 -446.496)" fill="#ed9aa9"/>
              <path id="Trazado_113663" data-name="Trazado 113663" d="M1623.431,459.688a.741.741,0,1,1-.741-.741.741.741,0,0,1,.741.741" transform="translate(-1615.427 -446.496)" fill="#ed9aa9"/>
              <path id="Trazado_113664" data-name="Trazado 113664" d="M1675.107,459.688a.741.741,0,1,1-.741-.741.741.741,0,0,1,.741.741" transform="translate(-1663.842 -446.496)" fill="#ed9aa9"/>
            </g>
          </g>
          <g id="Grupo_1006268" data-name="Grupo 1006268" transform="translate(18.993 13.403)">
            <g id="Grupo_1006264-2" data-name="Grupo 1006264" transform="translate(0 3.539)">
              <g transform="matrix(1, 0, 0, 1, -31.3, -48.61)" filter="url(#Rectángulo_33844-2)">
                <rect id="Rectángulo_33844-4" data-name="Rectángulo 33844" width="25.56" height="10.871" rx="3" transform="translate(31.3 48.61)" fill="#f9e8dc"/>
              </g>
              <g transform="matrix(1, 0, 0, 1, -31.3, -48.61)" filter="url(#Trazado_113690-2)">
                <path id="Trazado_113690-4" data-name="Trazado 113690" d="M2.892,11.548H19.7a2.892,2.892,0,0,0,2.892-2.892V2.892A2.892,2.892,0,0,0,19.7,0H2.892A2.892,2.892,0,0,0,0,2.892V8.656a2.892,2.892,0,0,0,2.892,2.892" transform="translate(40.58 55.97)" fill="#f5b3bf"/>
              </g>
              <path id="Trazado_113691-2" data-name="Trazado 113691" d="M2.81,1.4a1.4,1.4,0,1,0-1.4,1.4,1.4,1.4,0,0,0,1.4-1.4" transform="translate(13.349 11.729)" fill="#fff"/>
              <path id="Trazado_113692-2" data-name="Trazado 113692" d="M2.81,1.4a1.4,1.4,0,1,0-1.4,1.4,1.4,1.4,0,0,0,1.4-1.4" transform="translate(19.174 11.729)" fill="#fff"/>
              <path id="Trazado_113693-2" data-name="Trazado 113693" d="M2.81,1.4a1.4,1.4,0,1,0-1.4,1.4,1.4,1.4,0,0,0,1.4-1.4" transform="translate(24.997 11.729)" fill="#fff"/>
            </g>
            <g id="Grupo_1006265-2" data-name="Grupo 1006265" transform="translate(19.941)">
              <path id="Trazado_113641-2" data-name="Trazado 113641" d="M1520.082,262.383a.741.741,0,1,1-.741-.741.741.741,0,0,1,.741.741" transform="translate(-1518.599 -261.642)" fill="#ed9aa9"/>
              <path id="Trazado_113642-2" data-name="Trazado 113642" d="M1571.756,262.383a.741.741,0,1,1-.741-.741.741.741,0,0,1,.741.741" transform="translate(-1567.014 -261.642)" fill="#ed9aa9"/>
              <path id="Trazado_113643-2" data-name="Trazado 113643" d="M1623.431,262.383a.741.741,0,1,1-.741-.741.741.741,0,0,1,.741.741" transform="translate(-1615.427 -261.642)" fill="#ed9aa9"/>
              <path id="Trazado_113644-2" data-name="Trazado 113644" d="M1675.107,262.383a.741.741,0,1,1-.741-.741.741.741,0,0,1,.741.741" transform="translate(-1663.842 -261.642)" fill="#ed9aa9"/>
              <path id="Trazado_113646-2" data-name="Trazado 113646" d="M1520.082,311.709a.741.741,0,1,1-.741-.741.741.741,0,0,1,.741.741" transform="translate(-1518.599 -307.855)" fill="#ed9aa9"/>
              <path id="Trazado_113647-2" data-name="Trazado 113647" d="M1571.756,311.709a.741.741,0,1,1-.741-.741.741.741,0,0,1,.741.741" transform="translate(-1567.014 -307.855)" fill="#ed9aa9"/>
              <path id="Trazado_113648-2" data-name="Trazado 113648" d="M1623.431,311.709a.741.741,0,1,1-.741-.741.741.741,0,0,1,.741.741" transform="translate(-1615.427 -307.855)" fill="#ed9aa9"/>
              <path id="Trazado_113649-2" data-name="Trazado 113649" d="M1675.107,311.709a.741.741,0,1,1-.741-.741.741.741,0,0,1,.741.741" transform="translate(-1663.842 -307.855)" fill="#ed9aa9"/>
              <path id="Trazado_113651-2" data-name="Trazado 113651" d="M1520.082,361.035a.741.741,0,1,1-.741-.741.741.741,0,0,1,.741.741" transform="translate(-1518.599 -354.069)" fill="#ed9aa9"/>
              <path id="Trazado_113652-2" data-name="Trazado 113652" d="M1571.756,361.035a.741.741,0,1,1-.741-.741.741.741,0,0,1,.741.741" transform="translate(-1567.014 -354.069)" fill="#ed9aa9"/>
              <path id="Trazado_113653-2" data-name="Trazado 113653" d="M1623.431,361.035a.741.741,0,1,1-.741-.741.741.741,0,0,1,.741.741" transform="translate(-1615.427 -354.069)" fill="#ed9aa9"/>
              <path id="Trazado_113654-2" data-name="Trazado 113654" d="M1675.107,361.035a.741.741,0,1,1-.741-.741.741.741,0,0,1,.741.741" transform="translate(-1663.842 -354.069)" fill="#ed9aa9"/>
              <path id="Trazado_113656-2" data-name="Trazado 113656" d="M1520.082,410.362a.741.741,0,1,1-.741-.741.741.741,0,0,1,.741.741" transform="translate(-1518.599 -400.283)" fill="#ed9aa9"/>
              <path id="Trazado_113657-2" data-name="Trazado 113657" d="M1571.756,410.362a.741.741,0,1,1-.741-.741.741.741,0,0,1,.741.741" transform="translate(-1567.014 -400.283)" fill="#ed9aa9"/>
              <path id="Trazado_113658-2" data-name="Trazado 113658" d="M1623.431,410.362a.741.741,0,1,1-.741-.741.741.741,0,0,1,.741.741" transform="translate(-1615.427 -400.283)" fill="#ed9aa9"/>
              <path id="Trazado_113659-2" data-name="Trazado 113659" d="M1675.107,410.362a.741.741,0,1,1-.741-.741.741.741,0,0,1,.741.741" transform="translate(-1663.842 -400.283)" fill="#ed9aa9"/>
              <path id="Trazado_113661-2" data-name="Trazado 113661" d="M1520.082,459.688a.741.741,0,1,1-.741-.741.741.741,0,0,1,.741.741" transform="translate(-1518.599 -446.496)" fill="#ed9aa9"/>
              <path id="Trazado_113662-2" data-name="Trazado 113662" d="M1571.756,459.688a.741.741,0,1,1-.741-.741.741.741,0,0,1,.741.741" transform="translate(-1567.014 -446.496)" fill="#ed9aa9"/>
              <path id="Trazado_113663-2" data-name="Trazado 113663" d="M1623.431,459.688a.741.741,0,1,1-.741-.741.741.741,0,0,1,.741.741" transform="translate(-1615.427 -446.496)" fill="#ed9aa9"/>
              <path id="Trazado_113664-2" data-name="Trazado 113664" d="M1675.107,459.688a.741.741,0,1,1-.741-.741.741.741,0,0,1,.741.741" transform="translate(-1663.842 -446.496)" fill="#ed9aa9"/>
            </g>
          </g>
          <g id="Grupo_1006267" data-name="Grupo 1006267" transform="translate(81.265 16.212)">
            <g id="Grupo_1003557" data-name="Grupo 1003557" transform="translate(0 0)">
              <path id="Trazado_113637" data-name="Trazado 113637" d="M1047.816,468.269a29.789,29.789,0,1,0-29.789,29.789,29.789,29.789,0,0,0,29.789-29.789" transform="translate(-986.494 -438.48)" fill="#ed9aa9"/>
              <g transform="matrix(1, 0, 0, 1, -93.57, -47.88)" filter="url(#Trazado_113638)">
                <path id="Trazado_113638-2" data-name="Trazado 113638" d="M1111.2,537.507a23.938,23.938,0,1,0-23.938,23.938,23.938,23.938,0,0,0,23.938-23.938" transform="translate(-969.75 -465.69)" fill="#fff" opacity="0.5"/>
              </g>
            </g>
          </g>
        </g>
      </g>
    </g>
    <g id="_3249751" data-name="3249751" transform="translate(-8805.245 -6071.599)">
      <g id="Background_Complete" data-name="Background Complete" transform="translate(0 10.685)">
        <g id="Grupo_1014078" data-name="Grupo 1014078" transform="translate(0 27.641)">
          <g id="Grupo_1014077" data-name="Grupo 1014077" transform="translate(0 2.289)">
            <path id="Trazado_729877" data-name="Trazado 729877" d="M11.6,73.716,3.05,114.993c3.806,3.858,7.84,7.512,14.351,8.888l31.324,5.5,7.354-48.526L11.6,73.71Z" transform="translate(-1.264 -71.169)" fill="#fafafa"/>
            <path id="Trazado_729878" data-name="Trazado 729878" d="M8.554,69.37,0,110.648l14.351,8.888,31.324,5.51,9.251-46.582Z" transform="translate(0 -69.37)" fill="#fff"/>
            <path id="Trazado_729879" data-name="Trazado 729879" d="M5.837,136.11,0,138.311a18.115,18.115,0,0,0,5.182,5.3,26.213,26.213,0,0,0,9.169,3.589S7.512,143.8,5.837,136.11Z" transform="translate(0 -97.034)" fill="#e0e0e0"/>
          </g>
          <path id="Trazado_729880" data-name="Trazado 729880" d="M5.256,76.614l21.412-6.645L25.3,65.46,3.54,71.789Z" transform="translate(-1.467 -65.46)" fill="#ebebeb"/>
          <path id="Trazado_729881" data-name="Trazado 729881" d="M87.68,91.46,73.8,73.86,70.08,76.752,83.792,94.792Z" transform="translate(-29.048 -68.942)" fill="#ebebeb"/>
          <path id="Trazado_729882" data-name="Trazado 729882" d="M55.089,103.439c-.018.082-7.922-1.393-17.659-3.3s-17.618-3.513-17.6-3.595,7.922,1.393,17.659,3.3S55.106,103.357,55.089,103.439Z" transform="translate(-8.22 -78.345)" fill="#e0e0e0"/>
          <path id="Trazado_729883" data-name="Trazado 729883" d="M52.7,114.249c-.018.082-7.922-1.393-17.659-3.3s-17.618-3.513-17.6-3.595,7.922,1.393,17.659,3.3S52.716,114.167,52.7,114.249Z" transform="translate(-7.229 -82.825)" fill="#e0e0e0"/>
          <path id="Trazado_729884" data-name="Trazado 729884" d="M51.149,123.939c-.018.082-7.922-1.393-17.659-3.3s-17.618-3.513-17.6-3.595,7.922,1.393,17.659,3.3S51.166,123.857,51.149,123.939Z" transform="translate(-6.586 -86.842)" fill="#e0e0e0"/>
          <path id="Trazado_729885" data-name="Trazado 729885" d="M49.279,133.2c-.018.082-7.922-1.393-17.659-3.3S14,126.39,14.02,126.308s7.922,1.394,17.659,3.3S49.3,133.117,49.279,133.2Z" transform="translate(-5.811 -90.68)" fill="#e0e0e0"/>
        </g>
        <g id="Grupo_1014080" data-name="Grupo 1014080" transform="translate(167.938)">
          <g id="Grupo_1014079" data-name="Grupo 1014079">
            <path id="Trazado_729886" data-name="Trazado 729886" d="M329.671,32.019,318.6,59.011c-3.677.744-7.4,1.276-11.669-.457l-20.1-8.964,14.555-30.68,28.279,13.109Z" transform="translate(-286.83 -18.524)" fill="#fafafa"/>
            <path id="Trazado_729887" data-name="Trazado 729887" d="M333.1,30.979,322.035,57.964l-11.675-.457-20.1-8.964L302.983,18.25Z" transform="translate(-288.252 -18.25)" fill="#fff"/>
            <path id="Trazado_729888" data-name="Trazado 729888" d="M333.765,80.06l2.494,3.525a12.616,12.616,0,0,1-5.024,1.036,18.047,18.047,0,0,1-6.645-1.493,12.051,12.051,0,0,0,9.175-3.068Z" transform="translate(-302.482 -43.87)" fill="#e0e0e0"/>
          </g>
          <path id="Trazado_729889" data-name="Trazado 729889" d="M355.363,41.8,345.65,29.705l2.529-2.055L358.215,39.7Z" transform="translate(-311.211 -22.146)" fill="#ebebeb"/>
          <path id="Trazado_729890" data-name="Trazado 729890" d="M301,23.361l14.772-4.731,1.013,3.1-14.848,5.047Z" transform="translate(-292.704 -18.408)" fill="#ebebeb"/>
          <path id="Trazado_729891" data-name="Trazado 729891" d="M310.82,37c.035-.076,5.188,2.026,11.505,4.7s11.423,4.906,11.388,4.983-5.182-2.026-11.505-4.7S310.791,37.075,310.82,37Z" transform="translate(-296.774 -26.021)" fill="#e0e0e0"/>
          <path id="Trazado_729892" data-name="Trazado 729892" d="M308.01,44.129c.035-.076,5.188,2.026,11.505,4.7s11.423,4.906,11.388,4.983-5.182-2.026-11.505-4.7S307.981,44.2,308.01,44.129Z" transform="translate(-295.609 -28.976)" fill="#e0e0e0"/>
          <path id="Trazado_729893" data-name="Trazado 729893" d="M305.14,50.289c.035-.076,5.188,2.026,11.505,4.7s11.423,4.906,11.388,4.983-5.182-2.026-11.5-4.7S305.111,50.365,305.14,50.289Z" transform="translate(-294.419 -31.529)" fill="#e0e0e0"/>
          <path id="Trazado_729894" data-name="Trazado 729894" d="M302.64,56.319c.035-.076,5.188,2.026,11.505,4.7S325.568,65.927,325.533,66s-5.182-2.026-11.505-4.7S302.611,56.395,302.64,56.319Z" transform="translate(-293.383 -34.029)" fill="#e0e0e0"/>
        </g>
        <g id="Grupo_1014081" data-name="Grupo 1014081" transform="translate(189.348 65.745)">
          <path id="Trazado_729895" data-name="Trazado 729895" d="M332.79,193.3c-8.97-7.307-10.205-19.731-9.011-30.727.2-1.833.141-3.788,1.136-5.34s3.121-2.5,4.707-1.6c1.317.744,1.8,2.377,2.465,3.747a10.813,10.813,0,0,0,4.011,4.444,4.093,4.093,0,0,0,3.753.621c1.651-.755,2-2.939,2.125-4.766q.351-5.12.7-10.24a17.068,17.068,0,0,1,.954-5.392,5.683,5.683,0,0,1,3.853-3.572,3.452,3.452,0,0,1,4.093,2.623,16.63,16.63,0,0,1-.117,2.283,1.951,1.951,0,0,0,.989,1.9,2.212,2.212,0,0,0,2.073-.691,24.51,24.51,0,0,0,4.86-6.271,34.148,34.148,0,0,1,4.579-6.5,9.929,9.929,0,0,1,6.985-3.267c2.635.047,5.3,1.874,5.779,4.491s-1.224,5.135-3.021,7.1a40.89,40.89,0,0,1-9.1,7.477,3.357,3.357,0,0,0-1.534,1.423c-.486,1.189.58,2.488,1.751,2.98a21.283,21.283,0,0,0,4.233.8c1.417.275,2.916,1.019,3.355,2.406.609,1.926-1.1,3.771-2.734,4.942a35.064,35.064,0,0,1-10.8,5.211,11.789,11.789,0,0,0-3.987,1.587,3.4,3.4,0,0,0-1.37,3.8,3.456,3.456,0,0,0,3.642,1.721,24.9,24.9,0,0,0,4.128-1.235c2.588-.761,5.82-.351,7.272,1.944a5.808,5.808,0,0,1,.234,5.17,13.365,13.365,0,0,1-3.109,4.315,35.225,35.225,0,0,1-15.808,9.444c-5.984,1.593-11.429,1.739-17.073-.814" transform="translate(-323.396 -130.538)" fill="#034365"/>
          <path id="Trazado_729896" data-name="Trazado 729896" d="M338.16,202.736a80.372,80.372,0,0,1,4.11-14.86,165.051,165.051,0,0,1,7.816-17.173c.773-1.481,1.528-2.951,2.283-4.4s1.5-2.869,2.313-4.221a82.468,82.468,0,0,1,5.135-7.506c1.751-2.307,3.49-4.438,5.135-6.411s3.22-3.782,4.725-5.375a65.7,65.7,0,0,1,7.641-6.967c.966-.749,1.727-1.306,2.254-1.675.252-.176.451-.316.6-.416a1.69,1.69,0,0,1,.211-.135,1.886,1.886,0,0,1-.193.158c-.146.111-.334.258-.58.445-.509.386-1.265.96-2.213,1.727a69.022,69.022,0,0,0-7.553,7.026c-1.487,1.593-3.045,3.413-4.684,5.392s-3.367,4.116-5.106,6.423a82.393,82.393,0,0,0-5.094,7.489c-.808,1.347-1.546,2.764-2.3,4.21s-1.511,2.91-2.278,4.4A167.736,167.736,0,0,0,342.551,188a81.872,81.872,0,0,0-4.163,14.79" transform="translate(-329.516 -131.807)" fill="#e0e0e0"/>
          <path id="Trazado_729897" data-name="Trazado 729897" d="M365.7,167.834a8,8,0,0,1-.123-.8c-.059-.515-.117-1.259-.182-2.178-.123-1.844-.2-4.391-.287-7.2s-.2-5.351-.351-7.184c-.076-.919-.141-1.657-.193-2.172a3.772,3.772,0,0,1-.041-.8,3.9,3.9,0,0,1,.176.785c.094.509.193,1.247.3,2.166.211,1.833.369,4.385.451,7.2.076,2.775.141,5.281.193,7.2.029.867.053,1.6.07,2.184a3.415,3.415,0,0,1-.012.8Z" transform="translate(-340.439 -137.569)" fill="#e0e0e0"/>
          <path id="Trazado_729898" data-name="Trazado 729898" d="M390.4,177.6s-.34.035-.948.041-1.487.018-2.57.064c-2.172.07-5.17.281-8.466.65s-6.265.849-8.408,1.247c-1.071.193-1.932.375-2.529.492a5.056,5.056,0,0,1-.937.158,5.282,5.282,0,0,1,.908-.287c.591-.158,1.446-.375,2.512-.6,2.131-.463,5.106-.972,8.414-1.352a82.741,82.741,0,0,1,8.5-.55c1.089-.012,1.973.012,2.582.047a5.136,5.136,0,0,1,.943.088Z" transform="translate(-341.28 -149.985)" fill="#e0e0e0"/>
          <path id="Trazado_729899" data-name="Trazado 729899" d="M338.908,203.692a2.617,2.617,0,0,1-.141-.3c-.094-.24-.2-.527-.34-.878-.293-.767-.685-1.885-1.148-3.279-.937-2.781-2.108-6.663-3.343-10.961s-2.371-8.185-3.244-10.984c-.427-1.358-.785-2.477-1.048-3.308-.111-.363-.2-.656-.281-.9a1.258,1.258,0,0,1-.076-.322,1.327,1.327,0,0,1,.141.3c.094.24.2.527.34.878.293.767.685,1.885,1.148,3.279.937,2.781,2.108,6.663,3.343,10.961s2.371,8.185,3.244,10.984c.433,1.358.785,2.477,1.048,3.308.111.363.2.656.281.9A1.259,1.259,0,0,1,338.908,203.692Z" transform="translate(-325.838 -148.039)" fill="#e0e0e0"/>
          <path id="Trazado_729900" data-name="Trazado 729900" d="M377.741,212.337a2.462,2.462,0,0,1-.322.105c-.252.064-.556.141-.931.234-.861.211-2.02.492-3.431.837-2.892.708-6.885,1.727-11.288,2.869s-8.408,2.125-11.318,2.769c-1.458.322-2.635.574-3.454.732l-.943.176a1.2,1.2,0,0,1-.334.035,1.28,1.28,0,0,1,.322-.105c.252-.064.556-.141.931-.234.861-.211,2.02-.492,3.431-.837,2.892-.708,6.885-1.727,11.288-2.869s8.408-2.125,11.318-2.769c1.458-.322,2.635-.574,3.454-.732l.943-.176A1.2,1.2,0,0,1,377.741,212.337Z" transform="translate(-332.65 -164.442)" fill="#e0e0e0"/>
        </g>
      </g>
      <g id="Floor" transform="translate(0.293 241.307)">
        <path id="Trazado_729901" data-name="Trazado 729901" d="M247.943,412.292c0,.082-55.394.152-123.716.152S.5,412.374.5,412.292s55.382-.152,123.727-.152S247.943,412.21,247.943,412.292Z" transform="translate(-0.5 -412.14)" fill="#263238"/>
      </g>
      <g id="Note" transform="translate(68.123)">
        <g id="Grupo_1014083" data-name="Grupo 1014083">
          <g id="Grupo_1014082" data-name="Grupo 1014082" transform="translate(3.876 0.585)">
            <path id="Trazado_729902" data-name="Trazado 729902" d="M128.14,19.2l14.122,43.063c5.615,1.563,11.329,2.8,18.133.6l32.156-11.634L173.44,2.05l-45.3,17.143Z" transform="translate(-125.113 -1.435)" fill="#e0e0e0"/>
            <path id="Trazado_729903" data-name="Trazado 729903" d="M122.97,17.341,137.092,60.41l18.139.6,32.156-11.64L171.074,1Z" transform="translate(-122.97 -1)" fill="#034365"/>
            <path id="Trazado_729904" data-name="Trazado 729904" d="M151.362,93.62,147.1,98.8a19.436,19.436,0,0,0,7.67,2.166A28.091,28.091,0,0,0,165.239,99.4s-8.2.492-13.87-5.785Z" transform="translate(-132.972 -39.391)" fill="#023550"/>
          </g>
          <path id="Trazado_729906" data-name="Trazado 729906" d="M120.53,32.425l16.406-17.653L133.253,11.3l-16.9,17.547Z" transform="translate(-116.35 -4.684)" fill="#e0e0e0"/>
          <path id="Trazado_729907" data-name="Trazado 729907" d="M204.021,8.982,181.66,0l-1.92,4.684,22.442,9.485Z" transform="translate(-142.625)" fill="#e0e0e0"/>
          <path id="Trazado_729908" data-name="Trazado 729908" d="M178.954,30.2c.029.082-8.138,2.927-18.232,6.364s-18.3,6.159-18.332,6.077,8.133-2.927,18.232-6.364S178.925,30.117,178.954,30.2Z" transform="translate(-127.144 -12.517)" fill="#fff"/>
          <path id="Trazado_729909" data-name="Trazado 729909" d="M182.5,41.549c.029.082-8.138,2.927-18.232,6.364s-18.3,6.159-18.332,6.077,8.133-2.927,18.232-6.364S182.475,41.467,182.5,41.549Z" transform="translate(-128.615 -17.221)" fill="#fff"/>
          <path id="Trazado_729910" data-name="Trazado 729910" d="M186.254,51.419c.029.082-8.138,2.927-18.232,6.364s-18.3,6.159-18.332,6.077,8.133-2.927,18.232-6.364S186.225,51.337,186.254,51.419Z" transform="translate(-130.169 -21.312)" fill="#fff"/>
          <path id="Trazado_729911" data-name="Trazado 729911" d="M189.464,61.059c.029.082-8.138,2.927-18.232,6.364s-18.3,6.159-18.332,6.077,8.133-2.927,18.232-6.364,18.3-6.159,18.332-6.077Z" transform="translate(-131.5 -25.308)" fill="#fff"/>
        </g>
      </g>
      <g id="Character_2" data-name="Character 2" transform="translate(110.019 63.261)">
        <g id="Grupo_1014100" data-name="Grupo 1014100">
          <path id="Trazado_729912" data-name="Trazado 729912" d="M236.863,257.645l-2.834,26.377s-5.521-8.343-9.257-4.625c-3.56,3.542-9.842,29.421-9.842,29.421s-.088,8.437,4.4,10.668c14.374,7.137,30.381-6.318,30.381-6.318l-2.272-75.418h0a30.236,30.236,0,0,0-10.58,19.9Z" transform="translate(-199.108 -161.809)" fill="#f9a21b"/>
          <g id="Grupo_1014092" data-name="Grupo 1014092" transform="translate(39.869)">
            <g id="Grupo_1014091" data-name="Grupo 1014091" transform="translate(7.695)">
              <g id="Grupo_1014090" data-name="Grupo 1014090" transform="translate(3.382 12.358)">
                <g id="Grupo_1014084" data-name="Grupo 1014084">
                  <path id="Trazado_729913" data-name="Trazado 729913" d="M310.248,194.323l-24.889-1.991c-.152-2.9.053-14.151.053-14.151s-10.357-1.61-10.486-11.968,1.669-34.135,1.669-34.135h0a35.987,35.987,0,0,1,36.16,4.543l1.534,1.183-4.04,56.506Z" transform="translate(-274.919 -129.154)" fill="#ffbe9d"/>
                  <path id="Trazado_729914" data-name="Trazado 729914" d="M292.793,209.925a24.086,24.086,0,0,0,13.5-3.835s-3.191,7.453-13.525,6.517Z" transform="translate(-282.318 -161.044)" fill="#aa6550"/>
                </g>
                <g id="Grupo_1014085" data-name="Grupo 1014085" transform="translate(37.689 19.058)">
                  <path id="Trazado_729915" data-name="Trazado 729915" d="M339.694,162.03c.176-.076,7.114-2.1,6.891,4.977s-7.289,5.392-7.3,5.188S339.694,162.03,339.694,162.03Z" transform="translate(-339.29 -161.704)" fill="#b78876"/>
                  <path id="Trazado_729916" data-name="Trazado 729916" d="M343.121,171.228c.029-.023.123.088.328.193a1.219,1.219,0,0,0,.919.047,3.058,3.058,0,0,0,1.5-2.693,4.033,4.033,0,0,0-.287-1.774,1.427,1.427,0,0,0-.9-.978.622.622,0,0,0-.738.316c-.1.193-.059.34-.1.351-.018.018-.146-.123-.082-.416a.787.787,0,0,1,.293-.433.929.929,0,0,1,.685-.158A1.734,1.734,0,0,1,346,166.819a4.138,4.138,0,0,1,.363,1.985c-.094,1.423-.867,2.734-1.9,3a1.331,1.331,0,0,1-1.124-.222c-.211-.182-.246-.34-.223-.351Z" transform="translate(-340.873 -163.349)" fill="#aa6550"/>
                </g>
                <g id="Grupo_1014089" data-name="Grupo 1014089" transform="translate(3.606 10.362)">
                  <g id="Grupo_1014088" data-name="Grupo 1014088" transform="translate(0 5.584)">
                    <g id="Grupo_1014086" data-name="Grupo 1014086">
                      <path id="Trazado_729917" data-name="Trazado 729917" d="M281.679,160.624a1.481,1.481,0,0,0,1.429,1.493,1.41,1.41,0,0,0,1.522-1.335,1.476,1.476,0,0,0-1.423-1.493A1.423,1.423,0,0,0,281.679,160.624Z" transform="translate(-281.326 -157.591)" fill="#263238"/>
                      <path id="Trazado_729918" data-name="Trazado 729918" d="M281.108,157.942c.182.193,1.306-.638,2.892-.632,1.587-.018,2.758.8,2.928.6.082-.088-.1-.433-.609-.8a4.035,4.035,0,0,0-2.348-.72,3.866,3.866,0,0,0-2.307.744c-.492.375-.656.726-.562.808Z" transform="translate(-281.077 -156.39)" fill="#263238"/>
                    </g>
                    <g id="Grupo_1014087" data-name="Grupo 1014087" transform="translate(15.645 0.293)">
                      <path id="Trazado_729919" data-name="Trazado 729919" d="M308.3,161.573a1.481,1.481,0,0,0,1.429,1.493,1.411,1.411,0,0,0,1.522-1.335,1.48,1.48,0,0,0-1.423-1.493,1.419,1.419,0,0,0-1.528,1.335Z" transform="translate(-308.005 -158.277)" fill="#263238"/>
                      <path id="Trazado_729920" data-name="Trazado 729920" d="M307.823,158.447c.181.193,1.306-.638,2.9-.632,1.587-.018,2.758.8,2.927.6.082-.088-.1-.433-.609-.8a4.076,4.076,0,0,0-2.348-.726,3.866,3.866,0,0,0-2.307.744c-.486.375-.656.726-.562.808Z" transform="translate(-307.798 -156.89)" fill="#263238"/>
                    </g>
                    <path id="Trazado_729921" data-name="Trazado 729921" d="M295.108,170.325a10.659,10.659,0,0,0-2.582-.468c-.4-.041-.79-.123-.861-.4a2.12,2.12,0,0,1,.269-1.206c.381-.984.785-2.014,1.2-3.091,1.669-4.4,2.875-8.027,2.7-8.092s-1.674,3.454-3.343,7.857c-.4,1.089-.785,2.119-1.153,3.115a2.37,2.37,0,0,0-.211,1.593,1.008,1.008,0,0,0,.667.591,2.622,2.622,0,0,0,.691.094,9.974,9.974,0,0,0,2.617,0Z" transform="translate(-285.212 -156.671)" fill="#263238"/>
                  </g>
                  <path id="Trazado_729922" data-name="Trazado 729922" d="M307.134,148.051c.158.433,1.745.228,3.613.451,1.874.187,3.378.732,3.624.345.111-.187-.152-.591-.761-1.013a6.119,6.119,0,0,0-2.687-.943,6,6,0,0,0-2.828.334c-.685.275-1.03.615-.96.82Z" transform="translate(-291.874 -146.852)" fill="#263238"/>
                  <path id="Trazado_729923" data-name="Trazado 729923" d="M282.1,150.014c.281.363,1.376-.012,2.693-.029,1.317-.064,2.436.24,2.693-.135.111-.182-.064-.545-.55-.89a3.9,3.9,0,0,0-4.339.135c-.468.369-.621.744-.5.919Z" transform="translate(-281.485 -147.48)" fill="#263238"/>
                </g>
              </g>
              <path id="Trazado_729924" data-name="Trazado 729924" d="M269.159,116.8a3.826,3.826,0,0,1,1.411-3.413,2.707,2.707,0,0,1,3.513.263,3.16,3.16,0,0,1,2.723-3.835c1.686-.105,3.127,1.171,4.76,1.616a7.694,7.694,0,0,0,4.836-.556c1.534-.615,2.963-1.47,4.514-2.038a13.238,13.238,0,0,1,16.933,7.775,5.885,5.885,0,0,1,6.236,2.36,9.64,9.64,0,0,1,1.475,6.792,21.762,21.762,0,0,1-1.183,4.649c0,.135.012.263.012.4-.105,5.691-.749,12.383-3.179,12.418-4.233.064-3.226-7.91-3.226-7.91-5.193-2.008-3.261-9.8-4.561-10.972s-4.016-3.923-14.9,1.634c-4.221,2.16-9.842,2.09-12.9,1.393l-.269-.053a.249.249,0,0,1-.064-.012c-.035-.006-.059-.029-.088-.035a9.657,9.657,0,0,1-2.787-1.183,5.535,5.535,0,0,1-2.3-2.559,3.026,3.026,0,0,1,.591-3.244,6.646,6.646,0,0,1-1.54-3.484Z" transform="translate(-269.143 -108.047)" fill="#263238"/>
            </g>
            <path id="Trazado_729925" data-name="Trazado 729925" d="M322.77,301.19l.785,14.7,1.751,21.107H258.781l2.887-31.184L256,256.54c.492-17.413,7.178-24.649,20.855-26.312.111-.012-1.194.146-1.077.135,1.885-.223,0,0,1.077-.135a44.052,44.052,0,0,0,26.541-.018h0c4.1.176,7.5,1.434,10.99,2.108,10.99,2.108,20.036,10.6,22.231,17.986,1.809,6.083,14.9,58.854,14.9,58.854H325.481L322.77,301.2Z" transform="translate(-256 -158.684)" fill="#f9a21b"/>
          </g>
          <path id="Trazado_729926" data-name="Trazado 729926" d="M295.517,186.806a7.138,7.138,0,0,0,.925,1.809,2.4,2.4,0,0,0,1.71.99,2.143,2.143,0,0,0,1.821-1,3.468,3.468,0,0,0,.509-2.073c-.029-.656-.328-1.434-.978-1.511a1.641,1.641,0,0,0-.79.176L295.3,186.59" transform="translate(-232.421 -139.953)" fill="#aa6550"/>
          <path id="Trazado_729927" data-name="Trazado 729927" d="M296.42,189.373a4.879,4.879,0,0,0,1.821-.222,2.6,2.6,0,0,0,1.376-1.253,2.744,2.744,0,0,0,.047-2.237,2.425,2.425,0,0,0-.3-.509c-.135-.141-.111-.135-.258-.111a4.973,4.973,0,0,0-.545.217c-.193.076-.375.152-.562.228-.732.3-1.393.556-1.95.761a6.383,6.383,0,0,1-1.862.562,6.113,6.113,0,0,1,1.692-.954c.539-.258,1.183-.562,1.9-.884.182-.082.363-.164.55-.246a6.471,6.471,0,0,1,.626-.258.807.807,0,0,1,.509.018.866.866,0,0,1,.375.3,3.023,3.023,0,0,1,.386.65,3.2,3.2,0,0,1-.105,2.734,2.891,2.891,0,0,1-1.733,1.4,2.767,2.767,0,0,1-1.481.059c-.34-.088-.5-.2-.486-.24Z" transform="translate(-231.96 -139.709)" fill="#263238"/>
          <g id="Grupo_1014094" data-name="Grupo 1014094" transform="translate(0 61.246)">
            <path id="Trazado_729928" data-name="Trazado 729928" d="M227.969,290.967l-15.668-48.1-1.417-8.08s-4.262-18-4.45-19.79c-.217-2.061-1.265-2.447-2.02-2.319-1.177.2-1.856,1.751-1.721,3.525.047.615,1.159,10.252,1.159,10.252a22.963,22.963,0,0,0-2.149-2.4c-1.622-1.651-5.082-2.324-8.507-1.844s-4.344.919-4.216,2.26a1.713,1.713,0,0,0,.814,1.224,3.394,3.394,0,0,0,2.354.539c5.5-.7,7.3,2.09,7.3,2.09l.187,1.054s-3.607-2.032-6.159-.732a3.3,3.3,0,0,0-1,.773,4.331,4.331,0,0,0-3.039,6.827,1.806,1.806,0,0,0,1.844.9,2.283,2.283,0,0,0,.908-.7,3.8,3.8,0,0,1,.451-.416l.937,2.886s2.447,6.376,3.2,9.268l7.629,48.438A12.16,12.16,0,0,0,218.519,306.7h0a12.156,12.156,0,0,0,9.456-15.738Z" transform="translate(-188.211 -212.652)" fill="#ffbe9d"/>
            <g id="Grupo_1014093" data-name="Grupo 1014093" transform="translate(10.645 17.934)">
              <path id="Trazado_729929" data-name="Trazado 729929" d="M218.078,255.275a2.531,2.531,0,0,1-2.74-1.077c-.644-.837-.984-1.868-1.563-2.746-1.733-2.635-5.346-3.589-6.956-6.3-.222-.381-.381-.913-.059-1.212.3-.275.779-.135,1.153.023q4.813,2.029,9.626,4.052" transform="translate(-206.29 -243.49)" fill="#ffbe9d"/>
              <path id="Trazado_729930" data-name="Trazado 729930" d="M217.336,247.8a4.336,4.336,0,0,0-1-.545c-.656-.316-1.616-.755-2.8-1.282-1.241-.545-2.646-1.159-4.186-1.833-.4-.17-.8-.345-1.212-.521a2.058,2.058,0,0,0-1.54-.263.88.88,0,0,0-.515.843,1.769,1.769,0,0,0,.24.82,6.83,6.83,0,0,0,.925,1.23c1.434,1.5,3.168,2.348,4.467,3.413a7.818,7.818,0,0,1,1.639,1.692c.416.6.7,1.259,1.03,1.833a3.674,3.674,0,0,0,2.354,2.038c.773.141,1.159-.152,1.136-.164A2.98,2.98,0,0,1,216.8,255a3.553,3.553,0,0,1-2.038-2.014,20.8,20.8,0,0,0-.989-1.9,7.994,7.994,0,0,0-1.7-1.844c-1.341-1.13-3.056-2.008-4.38-3.4a6.438,6.438,0,0,1-.843-1.107c-.217-.375-.234-.779-.012-.843.234-.105.673.076,1.089.252s.82.34,1.218.5c1.557.626,2.98,1.206,4.233,1.71,1.206.48,2.19.861,2.875,1.107a4.354,4.354,0,0,0,1.083.334Z" transform="translate(-206.087 -243.283)" fill="#aa6550"/>
            </g>
            <path id="Trazado_729931" data-name="Trazado 729931" d="M199.936,237.348a4.28,4.28,0,0,0-.831-1.786,3.31,3.31,0,0,0-1.809-1.036,8.53,8.53,0,0,0-2.646-.094,13.583,13.583,0,0,1-2.746.053,4.436,4.436,0,0,1-2.137-.79,1.706,1.706,0,0,1-.7-1.364,1.113,1.113,0,0,1,.123-.55c.035.006-.006.2.023.545a1.619,1.619,0,0,0,.714,1.159,4.308,4.308,0,0,0,2.008.656,14.507,14.507,0,0,0,2.676-.088,8.28,8.28,0,0,1,2.764.135,3.479,3.479,0,0,1,1.932,1.206,3.08,3.08,0,0,1,.621,1.4,1.092,1.092,0,0,1,0,.562Z" transform="translate(-188.388 -220.581)" fill="#aa6550"/>
            <path id="Trazado_729932" data-name="Trazado 729932" d="M212.527,217.56a11.476,11.476,0,0,1,.234,1.915c.129,1.317.281,2.886.445,4.62.193,1.733.369,3.3.515,4.614a10.559,10.559,0,0,1,.164,1.92,8.352,8.352,0,0,1-.433-1.879c-.211-1.171-.439-2.8-.632-4.614s-.3-3.454-.334-4.643a8.96,8.96,0,0,1,.035-1.932Z" transform="translate(-198.087 -214.686)" fill="#aa6550"/>
            <path id="Trazado_729933" data-name="Trazado 729933" d="M199.79,244.052s-.217-.047-.585-.158a1.793,1.793,0,0,0-1.487.088.95.95,0,0,0-.41.855,5.474,5.474,0,0,0,.222,1.235,2.183,2.183,0,0,1-.064,1.534,1.834,1.834,0,0,1-1.388.919,2.086,2.086,0,0,1-1.581-.492,2.589,2.589,0,0,1-.855-1.265,8.5,8.5,0,0,1-.228-2.471,4.994,4.994,0,0,1,.316-1.639c.158-.369.328-.521.34-.509.029.023-.094.2-.2.562a5.744,5.744,0,0,0-.187,1.6,9.207,9.207,0,0,0,.293,2.365,2.072,2.072,0,0,0,2.049,1.475,1.491,1.491,0,0,0,1.107-.714,1.847,1.847,0,0,0,.053-1.282,5.181,5.181,0,0,1-.2-1.329,1.231,1.231,0,0,1,.585-1.071,1.876,1.876,0,0,1,1.686,0c.363.158.544.275.533.3Z" transform="translate(-190.186 -224.879)" fill="#aa6550"/>
            <path id="Trazado_729934" data-name="Trazado 729934" d="M192.347,247.465a.851.851,0,0,1,0,.55,1.7,1.7,0,0,1-1.013,1.112,2.249,2.249,0,0,1-2.184-.427,3.689,3.689,0,0,1-1.218-2.436,4.468,4.468,0,0,1,.544-2.664,4.205,4.205,0,0,1,1.569-1.563,4.029,4.029,0,0,1,1.405-.5c.351-.047.544-.029.544,0a7.018,7.018,0,0,0-1.8.732,4.121,4.121,0,0,0-1.879,3.952,3.382,3.382,0,0,0,1.06,2.207,1.984,1.984,0,0,0,1.862.439,1.577,1.577,0,0,0,.96-.9c.123-.3.105-.5.135-.5Z" transform="translate(-187.906 -224.614)" fill="#aa6550"/>
            <path id="Trazado_729935" data-name="Trazado 729935" d="M208.02,258.281a1.6,1.6,0,0,1,.925-.088,3.61,3.61,0,0,1,2.137,1l-.316.129a11.355,11.355,0,0,1,.076-1.306,8.336,8.336,0,0,1,1.552-4.239,20.723,20.723,0,0,0-1.171,4.286,12.2,12.2,0,0,0-.088,1.265l-.012.439-.3-.31a3.81,3.81,0,0,0-1.915-1.031c-.545-.117-.884-.094-.884-.141Z" transform="translate(-196.243 -229.698)" fill="#aa6550"/>
            <path id="Trazado_729936" data-name="Trazado 729936" d="M202.866,233.467c.094.035-.2.767-1.013,1.218s-1.587.34-1.563.24c0-.111.679-.17,1.376-.574S202.772,233.408,202.866,233.467Z" transform="translate(-193.039 -221.278)" fill="#aa6550"/>
          </g>
          <path id="Trazado_729937" data-name="Trazado 729937" d="M265.958,233.435s-.217.234-.609.685a7,7,0,0,0-1.358,2.178,2.832,2.832,0,0,0-.152.843,1.922,1.922,0,0,0,.222.884,3.106,3.106,0,0,0,1.686,1.253,16.573,16.573,0,0,0,5.357.755c1.007.018,2.1.059,3.209.123.556.064,1.124.135,1.7.2s1.159.217,1.751.328a17.751,17.751,0,0,1,7.038,3.127,13.026,13.026,0,0,1,2.91,3.05,10.83,10.83,0,0,1,.55.949c.17.34.287.679.433,1.013a12.493,12.493,0,0,1,.609,2.143,13.593,13.593,0,0,1-1.376,9,13.124,13.124,0,0,1-6.921,5.908,13.718,13.718,0,0,1-4.309.855,16.459,16.459,0,0,1-4.169-.509,26.811,26.811,0,0,0-3.829-.685,6.593,6.593,0,0,0-3.478.615,9.012,9.012,0,0,0-2.605,2.114c-.732.82-1.353,1.68-1.967,2.5a12.384,12.384,0,0,1-4,3.823,4.955,4.955,0,0,1-2.231.585,5.035,5.035,0,0,1-1.9-.357,4.1,4.1,0,0,1-1.306-.826,3.12,3.12,0,0,1-.656-.925,2.028,2.028,0,0,1-.2-.9,8.974,8.974,0,0,0,.316.843,3.22,3.22,0,0,0,.667.843,4.073,4.073,0,0,0,1.265.738,4.635,4.635,0,0,0,3.888-.31,12.223,12.223,0,0,0,3.812-3.782c.6-.82,1.218-1.7,1.956-2.553a9.512,9.512,0,0,1,2.728-2.254,7.166,7.166,0,0,1,3.741-.7,26.857,26.857,0,0,1,3.917.667,16.241,16.241,0,0,0,4.028.474,13.177,13.177,0,0,0,4.116-.831,12.531,12.531,0,0,0,6.593-5.644,13.049,13.049,0,0,0,1.329-8.6,12.213,12.213,0,0,0-.574-2.049c-.135-.328-.258-.667-.4-.96a9,9,0,0,0-.515-.89,12.4,12.4,0,0,0-2.764-2.922,17.359,17.359,0,0,0-6.809-3.08c-.58-.111-1.148-.269-1.715-.34s-1.124-.146-1.675-.217c-1.1-.076-2.155-.129-3.179-.158a16.657,16.657,0,0,1-5.469-.872,3.4,3.4,0,0,1-1.821-1.434,2.188,2.188,0,0,1-.234-1.03,3.2,3.2,0,0,1,.193-.919A6.579,6.579,0,0,1,265.232,234a3.61,3.61,0,0,1,.7-.6Z" transform="translate(-213.788 -160.005)" fill="#fafafa"/>
          <path id="Trazado_729938" data-name="Trazado 729938" d="M352.837,287.817a5.983,5.983,0,0,1-.281-1.317,10.836,10.836,0,0,1,.246-3.671,14.08,14.08,0,0,1,2.272-4.965,16.318,16.318,0,0,1,4.918-4.538,20.607,20.607,0,0,1,6.253-2.36,26.917,26.917,0,0,1,5.416-.556,29.884,29.884,0,0,1,3.654.187,5.6,5.6,0,0,1,1.323.228c-.006.111-1.909-.1-4.965.018a29.973,29.973,0,0,0-5.3.673,21.079,21.079,0,0,0-6.06,2.336,16.34,16.34,0,0,0-4.772,4.339,14.355,14.355,0,0,0-2.313,4.743,12.4,12.4,0,0,0-.427,3.548,8.236,8.236,0,0,1,.041,1.335Z" transform="translate(-256.128 -175.346)" fill="#fafafa"/>
          <path id="Trazado_729939" data-name="Trazado 729939" d="M388,317.514a6.994,6.994,0,0,1-.691,1.03,16.762,16.762,0,0,1-2.36,2.418,19.447,19.447,0,0,1-10.129,4.438,19.507,19.507,0,0,1-10.9-1.9,16.7,16.7,0,0,1-2.863-1.792,4.044,4.044,0,0,1-.913-.837c.07-.1,1.411,1.071,3.964,2.237a19.669,19.669,0,0,0,20.569-2.483c2.2-1.739,3.226-3.191,3.32-3.115Z" transform="translate(-259.297 -194.868)" fill="#fafafa"/>
          <path id="Trazado_729940" data-name="Trazado 729940" d="M332.985,314.33s-.187.082-.533.217a4,4,0,0,0-1.341.89,6.49,6.49,0,0,0-1.347,2.16,20.426,20.426,0,0,0-.943,3.3,38.155,38.155,0,0,1-.954,4.128,9.778,9.778,0,0,1-1.013,2.184,8.483,8.483,0,0,1-1.71,1.909,13.432,13.432,0,0,1-4.836,2.447c-1.8.533-3.712.826-5.633,1.206a23.678,23.678,0,0,0-10.012,4.169,16.468,16.468,0,0,0-3.337,3.361,14.644,14.644,0,0,0-1.9,3.665,12.71,12.71,0,0,0-.621,5.925c.211,1.411.533,2.155.468,2.172a2.045,2.045,0,0,1-.246-.527,6.631,6.631,0,0,1-.228-.667,7.873,7.873,0,0,1-.228-.937,12.329,12.329,0,0,1,.445-6.1,14.8,14.8,0,0,1,1.9-3.817,16.605,16.605,0,0,1,3.408-3.513,23.8,23.8,0,0,1,10.234-4.321c1.938-.381,3.829-.667,5.58-1.177a12.974,12.974,0,0,0,4.649-2.307,7.93,7.93,0,0,0,1.616-1.768,9.4,9.4,0,0,0,.984-2.049,41.434,41.434,0,0,0,1.013-4.057,19.45,19.45,0,0,1,1.048-3.343,6.586,6.586,0,0,1,1.5-2.2,3.861,3.861,0,0,1,1.464-.837,1.488,1.488,0,0,1,.574-.1Z" transform="translate(-233.694 -193.552)" fill="#fafafa"/>
          <path id="Trazado_729941" data-name="Trazado 729941" d="M323.72,307.55a2.914,2.914,0,0,1,.3,1.2,5.123,5.123,0,0,1-.937,3.238,4.989,4.989,0,0,1-1.762,1.6,4.69,4.69,0,0,1-1.271.463,5.044,5.044,0,0,1-1.429.059,5.566,5.566,0,0,1-2.81-1.136A5.036,5.036,0,0,1,314,310.254a4.7,4.7,0,0,1-.029-2.155,4.789,4.789,0,0,1,.931-1.839,10.188,10.188,0,0,1,1.282-1.405,4.92,4.92,0,0,1,.744-.556,1.962,1.962,0,0,1,.919-.322l.076.521-.287.07-.146-.5a4.971,4.971,0,0,1,3.226.176,5.371,5.371,0,0,1,2.038,1.405,4.405,4.405,0,0,1,.831,1.347c.117.345.146.539.123.544a7.569,7.569,0,0,0-1.183-1.68,5.212,5.212,0,0,0-1.961-1.218,4.62,4.62,0,0,0-2.922-.076l-.146-.5c.094-.023.187-.053.287-.076l.076.521a2.648,2.648,0,0,0-1.306.767,9.748,9.748,0,0,0-1.189,1.335,3.857,3.857,0,0,0-.785,3.49,4.424,4.424,0,0,0,1.593,2.389,5.074,5.074,0,0,0,2.506,1.048,4.6,4.6,0,0,0,1.271-.029,4.47,4.47,0,0,0,1.136-.381,4.637,4.637,0,0,0,1.645-1.405,5.178,5.178,0,0,0,1.048-2.98c.012-.767-.123-1.189-.064-1.2Z" transform="translate(-240.115 -189.218)" fill="#fafafa"/>
          <path id="Trazado_729942" data-name="Trazado 729942" d="M265.018,277.49a1.074,1.074,0,0,1,0,.158c0,.123-.006.275-.018.463-.023.427-.053,1.019-.088,1.768-.094,1.534-.181,3.753-.3,6.493-.228,5.486-.451,13.062-.632,21.441s-.287,15.961-.369,21.453c-.041,2.728-.076,4.942-.1,6.5-.018.749-.029,1.341-.035,1.768q-.009.281-.018.457a.372.372,0,0,1-.018.158,1.1,1.1,0,0,1-.018-.158c0-.123-.006-.275-.012-.463,0-.427-.012-1.019-.018-1.768v-6.5c.023-5.492.1-13.074.281-21.453s.433-15.961.72-21.441c.152-2.74.275-4.959.4-6.493.059-.749.111-1.335.146-1.762.018-.187.035-.34.047-.457s.023-.158.023-.158Z" transform="translate(-219.195 -178.281)" fill="#263238"/>
          <g id="Grupo_1014095" data-name="Grupo 1014095" transform="translate(34.634 118.261)" opacity="0.2">
            <path id="Trazado_729943" data-name="Trazado 729943" d="M247.06,345.417c3.267,1.563,7.535-1.44,9.2-4.655a95.819,95.819,0,0,0,.749-10.7c-.222-6.7.263-13.332.041-20.03a21.083,21.083,0,0,1-4.778,10.879,7.349,7.349,0,0,0-1.8,2.769c-.48,1.932,1,5.4,1.944,7.155,2.9,5.351-3.454,14.614-5.152,14.444" transform="translate(-247.06 -310.03)"/>
          </g>
          <g id="Grupo_1014096" data-name="Grupo 1014096" transform="translate(95.778 109.941)" opacity="0.2">
            <path id="Trazado_729944" data-name="Trazado 729944" d="M351.49,295.82q1.607,20.024,3.209,40.048a11.884,11.884,0,0,0,.7,3.712,4,4,0,0,0,2.693,2.459c1.9.386,3.736-1.247,4.274-3.109a11.2,11.2,0,0,0-.357-5.732c-.8-3.2-1.692-6.376-2.594-9.549q-3.917-13.815-7.84-27.624" transform="translate(-351.49 -295.82)"/>
          </g>
          <path id="Trazado_729945" data-name="Trazado 729945" d="M278.688,376.741a7.551,7.551,0,0,0,.89-2.125,10.018,10.018,0,0,0-1-6.1c-.55-1.212-1.329-2.465-2.114-3.853a16.794,16.794,0,0,1-1.985-4.731,11.275,11.275,0,0,1,.416-5.668c.574-1.885,1.429-3.718,2.12-5.638a16.88,16.88,0,0,0,.293-11.195,16.443,16.443,0,0,0-2.219-4.444,17.068,17.068,0,0,0-2.963-3.173,17.562,17.562,0,0,0-5.5-3.068c-1.423-.474-2.254-.6-2.242-.662a2.279,2.279,0,0,1,.609.053,13.1,13.1,0,0,1,1.7.381,16.789,16.789,0,0,1,5.7,2.957,17.126,17.126,0,0,1,3.1,3.214,16.783,16.783,0,0,1,2.342,4.567,17.256,17.256,0,0,1-.252,11.581c-.7,1.956-1.557,3.776-2.12,5.609a10.74,10.74,0,0,0-.433,5.381,16.651,16.651,0,0,0,1.874,4.6c.761,1.388,1.522,2.664,2.067,3.923a9.957,9.957,0,0,1,.831,6.335,5.587,5.587,0,0,1-.72,1.6,2.331,2.331,0,0,1-.4.463Z" transform="translate(-219.609 -198.42)" fill="#fafafa"/>
          <path id="Trazado_729946" data-name="Trazado 729946" d="M366.885,242.425a4.312,4.312,0,0,1-.568,1.165,8.506,8.506,0,0,1-2.541,2.465,10.836,10.836,0,0,1-4.988,1.651,16.5,16.5,0,0,1-6.376-.814,13.325,13.325,0,0,1-5.568-3.232,8.227,8.227,0,0,1-1.622-2.342,7.738,7.738,0,0,1-.632-2.4,6.111,6.111,0,0,1,.65-3.484,2.888,2.888,0,0,1,.3-.474,1.993,1.993,0,0,1,.258-.322c.152-.164.234-.24.252-.228.047.035-.258.386-.591,1.124a6.257,6.257,0,0,0-.433,3.331,7.487,7.487,0,0,0,.662,2.237,7.875,7.875,0,0,0,1.563,2.16,13.155,13.155,0,0,0,5.351,3.045,16.723,16.723,0,0,0,6.148.837,10.753,10.753,0,0,0,4.807-1.458,9.319,9.319,0,0,0,2.576-2.237c.5-.644.714-1.048.761-1.025Z" transform="translate(-252.839 -160.424)" fill="#fafafa"/>
          <path id="Trazado_729947" data-name="Trazado 729947" d="M358.954,310.573s-.023-.053-.064-.164c-.041-.129-.088-.287-.152-.492-.135-.451-.322-1.089-.556-1.9-.474-1.669-1.153-4.052-1.991-6.985-1.657-5.919-3.94-14.069-6.464-23.069-1.247-4.508-2.442-8.8-3.525-12.711a43.114,43.114,0,0,1-1.247-5.632,17.448,17.448,0,0,1-.018-5.029,10.811,10.811,0,0,1,3.314-6.37,7.99,7.99,0,0,1,1.645-1.107c.193-.082.351-.146.474-.2a.882.882,0,0,1,.164-.059,9.27,9.27,0,0,0-2.207,1.452,10.851,10.851,0,0,0-3.179,6.318,17.238,17.238,0,0,0,.053,4.959,45.2,45.2,0,0,0,1.265,5.591c1.089,3.905,2.289,8.2,3.548,12.705,2.488,9.011,4.742,17.167,6.376,23.092.8,2.945,1.446,5.334,1.9,7.008.211.814.381,1.452.5,1.909.053.2.094.369.123.5a.723.723,0,0,1,.029.176Z" transform="translate(-252.924 -165.584)" fill="#263238"/>
          <path id="Trazado_729948" data-name="Trazado 729948" d="M308.552,129.985a6.27,6.27,0,0,0,0-1.253,4.884,4.884,0,0,0-1.616-2.91,6.579,6.579,0,0,0-4.661-1.54,20.411,20.411,0,0,0-6.06,1.352,32.252,32.252,0,0,1-3.132.908,16.274,16.274,0,0,1-8.127-.3,15.725,15.725,0,0,1-3.191-1.352,9.353,9.353,0,0,1-.8-.5,1.361,1.361,0,0,1-.263-.2c.018-.029.392.222,1.124.585a17.685,17.685,0,0,0,3.2,1.253,16.853,16.853,0,0,0,5.035.6,16.364,16.364,0,0,0,2.974-.381c1.019-.228,2.049-.562,3.1-.908a20.009,20.009,0,0,1,6.148-1.347,6.738,6.738,0,0,1,4.813,1.663,4.926,4.926,0,0,1,1.593,3.05,2.892,2.892,0,0,1-.123,1.265Z" transform="translate(-226.369 -114.654)" fill="#455a64"/>
          <path id="Trazado_729949" data-name="Trazado 729949" d="M337.471,149.8a1.315,1.315,0,0,1-.135-.217c-.082-.146-.193-.369-.322-.662a13.654,13.654,0,0,1-.826-2.576,14.238,14.238,0,0,1-.269-4,35.16,35.16,0,0,1,.925-4.813,9.425,9.425,0,0,0,.012-4.76,4.845,4.845,0,0,0-.99-1.8,3.655,3.655,0,0,0-1.487-.978,3.4,3.4,0,0,0-2.553.064,5.182,5.182,0,0,0-.8.556,1.954,1.954,0,0,1,.738-.662,3.446,3.446,0,0,1,2.682-.164,3.777,3.777,0,0,1,1.6,1.007,4.913,4.913,0,0,1,1.071,1.891,9.589,9.589,0,0,1,.023,4.906,37.392,37.392,0,0,0-.943,4.772,14.746,14.746,0,0,0,.2,3.94,14.9,14.9,0,0,0,.726,2.57,7.581,7.581,0,0,1,.345.925Z" transform="translate(-247.232 -116.978)" fill="#455a64"/>
          <path id="Trazado_729950" data-name="Trazado 729950" d="M308.763,124.56s-.006-.146,0-.416c.012-.3.023-.7.047-1.189a13.735,13.735,0,0,0-.48-4.3,7.688,7.688,0,0,0-1.382-2.611,5.34,5.34,0,0,0-2.775-1.833,6.982,6.982,0,0,0-3.706.152,17.257,17.257,0,0,0-3.706,1.68,30.807,30.807,0,0,1-3.677,1.891,11.166,11.166,0,0,1-3.788.761,11.75,11.75,0,0,1-3.466-.427,13.47,13.47,0,0,1-2.816-1.159,11.514,11.514,0,0,1-3.331-2.846,7.283,7.283,0,0,1-.673-.984,1.827,1.827,0,0,1-.2-.363,2.637,2.637,0,0,1,.252.334,9.05,9.05,0,0,0,.714.943,11.849,11.849,0,0,0,3.343,2.728,13.187,13.187,0,0,0,2.775,1.1,11.734,11.734,0,0,0,3.4.386,10.972,10.972,0,0,0,3.683-.755,30.278,30.278,0,0,0,3.636-1.879,16.993,16.993,0,0,1,3.776-1.7,7.233,7.233,0,0,1,3.858-.135,5.6,5.6,0,0,1,2.9,1.944,7.68,7.68,0,0,1,1.393,2.711,13.385,13.385,0,0,1,.392,4.368c-.029.515-.07.919-.1,1.189a2.347,2.347,0,0,1-.064.41Z" transform="translate(-225.585 -110.067)" fill="#455a64"/>
          <g id="Grupo_1014099" data-name="Grupo 1014099" transform="translate(39.26 150.469)">
            <g id="Grupo_1014098" data-name="Grupo 1014098">
              <g id="Grupo_1014097" data-name="Grupo 1014097">
                <path id="Trazado_729951" data-name="Trazado 729951" d="M302.611,375.462l43.783-6.528-.708-3.894h23.566l.691,5.99a18.112,18.112,0,0,1-17.606,21.535L301.27,392Z" transform="translate(-274.156 -365.04)" fill="#ffbe9d"/>
                <path id="Trazado_729952" data-name="Trazado 729952" d="M286.577,381.136a46.121,46.121,0,0,1-5.826-2.465,19.022,19.022,0,0,0-8.97-1.739l-12.172.621a5.946,5.946,0,0,0,2.043,2.723c1.288.714,8.859.867,8.859.867l-.386.4a8.767,8.767,0,0,1-6.06,2.652l-1.165.029a11.416,11.416,0,0,1-2.541-.5l-3-1.212c-.908-.41-1.868-.345-2.266.574-.357.826-.094,1.967,2.383,3.214,1.388.7,6.522,2.477,6.522,2.477a12.506,12.506,0,0,0,.3,2.166c.222.749,2.242,1.493,2.242,1.493a26.806,26.806,0,0,0,1.792,3.214,18.317,18.317,0,0,0,4.011,1.382,17.233,17.233,0,0,0,9.59-.07l4.637-1.388V381.441" transform="translate(-254.96 -369.959)" fill="#ffbe9d"/>
              </g>
              <path id="Trazado_729953" data-name="Trazado 729953" d="M276.157,398.75a13.864,13.864,0,0,1-6.148-1.616c.035-.082,1.364.427,3.056.872s3.1.656,3.086.744Z" transform="translate(-261.198 -378.339)" fill="#aa6550"/>
              <path id="Trazado_729954" data-name="Trazado 729954" d="M277.478,404.136a4.459,4.459,0,0,1-3.25-.884,12.155,12.155,0,0,1,1.622.463,12.309,12.309,0,0,1,1.634.416Z" transform="translate(-262.946 -380.874)" fill="#aa6550"/>
              <path id="Trazado_729955" data-name="Trazado 729955" d="M389.889,381.749c-.059.023-.345-.849-1.048-2.131a16.885,16.885,0,0,0-1.4-2.143,16.889,16.889,0,0,0-4.637-4.169,16.583,16.583,0,0,0-2.283-1.165c-1.353-.562-2.242-.755-2.231-.814a2.8,2.8,0,0,1,.632.105,5.7,5.7,0,0,1,.726.193c.281.088.6.176.949.316a14.939,14.939,0,0,1,2.348,1.124,17.023,17.023,0,0,1,2.576,1.885,17.515,17.515,0,0,1,2.149,2.354,15.08,15.08,0,0,1,1.37,2.213,9.047,9.047,0,0,1,.416.908,6.815,6.815,0,0,1,.269.7,2.376,2.376,0,0,1,.17.621Z" transform="translate(-306.081 -367.644)" fill="#aa6550"/>
            </g>
            <path id="Trazado_729956" data-name="Trazado 729956" d="M277.864,382.259a9.414,9.414,0,0,1-.943,1.007,15.122,15.122,0,0,1-2.652,2.008,10.436,10.436,0,0,1-3.109,1.2,4.345,4.345,0,0,1-1.37.146,17.713,17.713,0,0,0,4.327-1.61,21.047,21.047,0,0,0,2.664-1.909,7.432,7.432,0,0,1,1.083-.843Z" transform="translate(-261.107 -372.177)" fill="#aa6550"/>
          </g>
        </g>
      </g>
      <g id="Character_1" data-name="Character 1" transform="translate(10.83 69.89)">
        <g id="Grupo_1014126" data-name="Grupo 1014126">
          <path id="Trazado_729957" data-name="Trazado 729957" d="M60.852,306.675c1.042,0-7.974,24.228-10.293,30.417-.258.685-.439,1.288-.439,1.288l63.128.111-.744-58.737a.786.786,0,0,0-.006-.117l-5.281-42.015a1.042,1.042,0,0,0-.755-.872c-2.5-.679-11.505-3-18.4-3.255-8.08-.3-19.761,1.306-19.761,1.306s-10.48,1.083-16.253,3.162a1.044,1.044,0,0,0-.679,1.118l9.479,67.6Z" transform="translate(-31.605 -166.659)" fill="#034365"/>
          <path id="Trazado_729958" data-name="Trazado 729958" d="M106.46,314.05a8.179,8.179,0,0,1-.316.761,6.446,6.446,0,0,1-.445.861,12.286,12.286,0,0,1-.667,1.095,14.732,14.732,0,0,1-.919,1.259c-.34.451-.755.878-1.183,1.341a18.932,18.932,0,0,1-6.821,4.467c-.6.2-1.159.422-1.7.55a15.32,15.32,0,0,1-1.522.345,12.1,12.1,0,0,1-1.271.176,6.874,6.874,0,0,1-.966.064,3.766,3.766,0,0,1-.826-.018c0-.064,1.177-.059,3.027-.433a15.034,15.034,0,0,0,1.493-.375c.539-.141,1.089-.357,1.675-.568A21.668,21.668,0,0,0,99.6,321.72a22.047,22.047,0,0,0,3.132-2.547c.427-.451.849-.867,1.189-1.306.363-.416.667-.837.943-1.218,1.083-1.546,1.546-2.629,1.61-2.6Z" transform="translate(-48.061 -200.064)" fill="#263238"/>
          <g id="Grupo_1014101" data-name="Grupo 1014101" transform="translate(20.658 147.815)" opacity="0.2">
            <path id="Trazado_729959" data-name="Trazado 729959" d="M53.78,389.869A18.581,18.581,0,0,0,71.889,387.6c2.278-1.651,4.186-3.812,6.645-5.182,3.408-1.9,7.465-2.079,11.359-2.36a55.384,55.384,0,0,0,15.352-2.822,6.168,6.168,0,0,0,2.687-1.622,2.393,2.393,0,0,0,.246-2.922c-.673-.843-1.92-.89-3-.861-16.324.48-31.242,1.792-47.133,5.568" transform="translate(-53.78 -371.83)"/>
          </g>
          <path id="Trazado_729960" data-name="Trazado 729960" d="M83.826,125.769c5.047-5.135,13.01-8.168,19.608-5.281,4.438,1.938,7.442,6.1,11.335,8.982,2.834,2.1,6.341,3.718,7.822,6.915,1.312,2.816.679,6.1.363,9.192s-.094,6.657,2.3,8.642c1.259,1.042,2.91,1.452,4.327,2.266,2.851,1.634,4.543,4.813,5.152,8.039a34.278,34.278,0,0,1-.053,9.819l-13.589,2.588-2.231-3.753-.779,5.9-17.342,1.563L83.82,125.769Z" transform="translate(-45.574 -119.369)" fill="#263238"/>
          <g id="Grupo_1014105" data-name="Grupo 1014105" transform="translate(34.908 10.449)">
            <g id="Grupo_1014104" data-name="Grupo 1014104">
              <path id="Trazado_729961" data-name="Trazado 729961" d="M79.22,138.776l-.029,3.782-1.071,56.676c-.094,6.569,6.195,12.161,13.226,12.208h0c7.108.047,10.006-5.293,10.205-11.927.211-6.962.568-14.292.568-14.292s9.011-1.241,11.195-12.9c1.083-5.8,1.054-15.352.779-23.168a12.366,12.366,0,0,0-13.314-11.9L79.22,138.764Z" transform="translate(-78.118 -137.216)" fill="#ffbe9d"/>
              <g id="Grupo_1014102" data-name="Grupo 1014102" transform="translate(27.841 15.194)">
                <path id="Trazado_729962" data-name="Trazado 729962" d="M132.168,169.493a1.5,1.5,0,0,1-1.487,1.475,1.436,1.436,0,0,1-1.511-1.393,1.5,1.5,0,0,1,1.487-1.475,1.434,1.434,0,0,1,1.511,1.4Z" transform="translate(-127.121 -165.211)" fill="#263238"/>
                <path id="Trazado_729963" data-name="Trazado 729963" d="M131.6,164.825c-.193.193-1.306-.685-2.922-.72-1.616-.064-2.822.738-2.992.533-.082-.088.117-.439.644-.8a4.079,4.079,0,0,1,2.4-.667,3.965,3.965,0,0,1,2.319.82C131.537,164.38,131.695,164.743,131.6,164.825Z" transform="translate(-125.67 -163.166)" fill="#263238"/>
              </g>
              <g id="Grupo_1014103" data-name="Grupo 1014103" transform="translate(11.951 15.059)">
                <path id="Trazado_729964" data-name="Trazado 729964" d="M104.988,169.493a1.5,1.5,0,0,1-1.487,1.475,1.436,1.436,0,0,1-1.511-1.393,1.5,1.5,0,0,1,1.487-1.475,1.434,1.434,0,0,1,1.511,1.4Z" transform="translate(-99.964 -165.076)" fill="#263238"/>
                <path id="Trazado_729965" data-name="Trazado 729965" d="M104.461,164.6c-.193.193-1.306-.685-2.922-.72-1.616-.064-2.822.738-2.992.533-.082-.088.117-.439.644-.8a4.079,4.079,0,0,1,2.4-.667,3.965,3.965,0,0,1,2.319.82C104.4,164.15,104.555,164.513,104.461,164.6Z" transform="translate(-98.53 -162.936)" fill="#263238"/>
              </g>
              <path id="Trazado_729966" data-name="Trazado 729966" d="M117.835,176.972a10.5,10.5,0,0,1,2.635-.4c.416-.029.808-.1.884-.381a2.094,2.094,0,0,0-.24-1.23c-.363-1.007-.738-2.067-1.136-3.173-1.569-4.52-2.693-8.232-2.512-8.291s1.6,3.554,3.173,8.068q.562,1.669,1.083,3.191a2.407,2.407,0,0,1,.17,1.628,1.032,1.032,0,0,1-.7.585,2.642,2.642,0,0,1-.7.076,10.48,10.48,0,0,1-2.658-.07Z" transform="translate(-94.42 -148.11)" fill="#263238"/>
              <path id="Trazado_729967" data-name="Trazado 729967" d="M108.1,215.944A29.766,29.766,0,0,1,92.54,211.33s3.583,8.144,15.328,7.371Z" transform="translate(-84.096 -167.936)" fill="#eb996e"/>
              <path id="Trazado_729968" data-name="Trazado 729968" d="M113.328,192.307a2.91,2.91,0,0,0-2.582-1.153,2.671,2.671,0,0,0-1.862.931A1.692,1.692,0,0,0,108.7,194a1.947,1.947,0,0,0,2.1.591,6.057,6.057,0,0,0,2.1-1.177,1.785,1.785,0,0,0,.474-.463.54.54,0,0,0,.012-.6" transform="translate(-90.704 -159.569)" fill="#eb996e"/>
              <path id="Trazado_729969" data-name="Trazado 729969" d="M109.736,188.19c.263-.006.217,1.745,1.686,3.033s3.337,1.142,3.343,1.388c.023.111-.427.328-1.218.328a4.4,4.4,0,0,1-2.793-1.06,3.8,3.8,0,0,1-1.3-2.541C109.408,188.6,109.613,188.172,109.736,188.19Z" transform="translate(-91.105 -158.344)" fill="#263238"/>
            </g>
            <path id="Trazado_729970" data-name="Trazado 729970" d="M104.306,156.82c-.17.433-1.78.182-3.683.357-1.9.141-3.449.65-3.689.252-.105-.193.17-.6.8-1.007a6.1,6.1,0,0,1,2.752-.878,6.17,6.17,0,0,1,2.863.416C104.042,156.258,104.382,156.616,104.306,156.82Z" transform="translate(-85.909 -144.803)" fill="#263238"/>
            <path id="Trazado_729971" data-name="Trazado 729971" d="M131.165,159.176c-.357.357-1.7-.059-3.331-.123-1.628-.111-3.015.164-3.32-.228-.135-.187.094-.55.708-.884a5.389,5.389,0,0,1,2.723-.527,5.309,5.309,0,0,1,2.635.808c.568.392.744.779.586.949Z" transform="translate(-97.334 -145.584)" fill="#263238"/>
          </g>
          <path id="Trazado_729972" data-name="Trazado 729972" d="M42.422,239.306s-18.83,4.421-22.483,22.272c-1.68,8.2-4.028,55.312,6.944,62.631,14.163,9.444,32.173.849,32.173.849L56.744,302.27H45.051L43.476,277.3c.439,1.915-1.054-38-1.054-38Z" transform="translate(-18.498 -169.081)" fill="#034365"/>
          <path id="Trazado_729973" data-name="Trazado 729973" d="M162.881,317.765a14.563,14.563,0,0,0,13.062-15.118l-7.688-32.682s-4.988-28.051-20.756-30.575l5.375,42.759-.515,9.011s.246,5.96.849,17.132l9.678,9.473Z" transform="translate(-71.969 -169.118)" fill="#034365"/>
          <path id="Trazado_729974" data-name="Trazado 729974" d="M168.587,338.263a19.681,19.681,0,0,0-2.84.31,11.539,11.539,0,0,0-9.046,9.239,19.594,19.594,0,0,0-.252,2.846,3.045,3.045,0,0,1-.088-.773,10.084,10.084,0,0,1,.129-2.114,11.333,11.333,0,0,1,9.216-9.409,10.253,10.253,0,0,1,2.108-.176,3.19,3.19,0,0,1,.773.076Z" transform="translate(-75.638 -210.068)" fill="#263238"/>
          <path id="Trazado_729975" data-name="Trazado 729975" d="M69.8,127.493c2.12,2.845,3.127,5.035,4.4,10.094.621,2.477-1.393,4.233-3.4,5.744a1.615,1.615,0,0,1-2.553-.937h0s.7,7.758-2.108,11.236a6.711,6.711,0,0,0-1.06,5.486,9.288,9.288,0,0,0,2.506,4.743A11.719,11.719,0,0,1,69.5,177.049a33.959,33.959,0,0,0-1.78,3.185,4.808,4.808,0,0,0-.375,2.061,1.633,1.633,0,0,1-1.382,1.733,127.674,127.674,0,0,1-29.1.872,1.591,1.591,0,0,1-1.423-1.206c-.761-3.214.509-6.722,2.131-9.678,1.815-3.308,4.122-6.476,4.748-10.194.585-3.5-.369-7.272,1.036-10.533,1.727-4,6.417-5.89,8.765-9.555,2.213-3.46,2.038-8,4.022-11.6a11.1,11.1,0,0,1,13.66-4.643" transform="translate(-25.426 -122.399)" fill="#263238"/>
          <path id="Trazado_729976" data-name="Trazado 729976" d="M94.881,132.158c3.683,1.891,5.381,6.394,8.958,8.478,3.255,1.9,7.325,1.4,11.054.837-.141-.826-.275-1.657-.416-2.482A6.573,6.573,0,0,0,115.859,141a2.28,2.28,0,0,0,2.266.539c1.253-.5,1.417-2.225,1.095-3.536a12.156,12.156,0,0,0-3.255-5.515,16.511,16.511,0,0,0-21.535-1.721" transform="translate(-49.972 -122.766)" fill="#263238"/>
          <path id="Trazado_729977" data-name="Trazado 729977" d="M154.135,277.756s.023.158.035.463c.012.328.023.767.041,1.317.023,1.148.082,2.8.17,4.848.17,4.093.55,9.737,1.013,15.972s.808,11.891.925,15.99c.059,2.049.082,3.706.07,4.854q-.009.826-.018,1.317a2.173,2.173,0,0,1-.029.463,2.369,2.369,0,0,1-.035-.463c-.012-.328-.023-.767-.041-1.317-.023-1.148-.082-2.8-.17-4.848-.17-4.093-.55-9.737-1.013-15.978s-.808-11.891-.925-15.99c-.059-2.049-.082-3.706-.07-4.854q.009-.826.018-1.317a2.175,2.175,0,0,1,.029-.463Z" transform="translate(-74.699 -185.018)" fill="#263238"/>
          <path id="Trazado_729978" data-name="Trazado 729978" d="M62.381,324.029a2.923,2.923,0,0,1-.041-.328c-.018-.246-.035-.562-.059-.943-.047-.861-.111-2.032-.193-3.454-.164-2.922-.422-6.95-.726-11.4-.31-4.432-.585-8.443-.79-11.4-.094-1.429-.17-2.6-.228-3.454-.018-.381-.035-.691-.047-.943a2.311,2.311,0,0,1,0-.328,1.348,1.348,0,0,1,.059.322c.029.246.064.556.105.937.082.855.187,2.026.322,3.449.258,2.916.58,6.944.884,11.394s.527,8.49.638,11.411c.053,1.464.088,2.646.094,3.466v.943A1.565,1.565,0,0,1,62.381,324.029Z" transform="translate(-35.822 -190.834)" fill="#263238"/>
          <path id="Trazado_729979" data-name="Trazado 729979" d="M59.328,346.838c0,.053-.609.082-1.534.392a7.061,7.061,0,0,0-3.091,2.084,6.981,6.981,0,0,0-1.528,3.4c-.152.96-.07,1.575-.129,1.575a1.087,1.087,0,0,1-.088-.422,5.591,5.591,0,0,1,0-1.183,6.573,6.573,0,0,1,4.766-5.662,5.673,5.673,0,0,1,1.165-.2,1.049,1.049,0,0,1,.433.018Z" transform="translate(-32.769 -213.643)" fill="#263238"/>
          <path id="Trazado_729980" data-name="Trazado 729980" d="M76.9,369.544a3.108,3.108,0,0,1-.07-.363c-.035-.269-.082-.615-.135-1.042-.105-.943-.258-2.242-.439-3.829-.345-3.273-.814-7.723-1.329-12.647-.17-1.71-.34-3.361-.492-4.9l.146.129c-3.753-.023-7-.041-9.362-.053-1.13-.018-2.043-.035-2.717-.041-.293-.012-.533-.018-.726-.023a.127.127,0,1,1,0-.047c.193-.006.433-.012.726-.023.673-.012,1.587-.023,2.717-.041,2.36-.012,5.609-.035,9.362-.053h.135l.012.135c.158,1.534.328,3.185.5,4.895.48,4.924.919,9.38,1.241,12.653.141,1.593.258,2.892.34,3.841.029.427.059.773.076,1.048a1.786,1.786,0,0,1,.006.369Z" transform="translate(-36.331 -213.561)" fill="#263238"/>
          <path id="Trazado_729981" data-name="Trazado 729981" d="M60.869,377.183s-.146.064-.439.164c-.322.1-.749.24-1.282.41-1.118.345-2.74.843-4.766,1.382a59.575,59.575,0,0,1-7.213,1.5,24.922,24.922,0,0,1-9-.427,38.358,38.358,0,0,1-4.5-1.271c-.714-.252-1.405-.515-2.079-.8a10.658,10.658,0,0,1-.989-.445l-.48-.24-.445-.287a10.964,10.964,0,0,1-2.822-2.769,19.257,19.257,0,0,1-1.739-2.968,34.353,34.353,0,0,1-1.768-4.643c-.17-.562-.3-1-.381-1.294a2.285,2.285,0,0,1-.105-.457,3.094,3.094,0,0,1,.17.439c.105.316.252.744.433,1.276a39.038,39.038,0,0,0,1.85,4.584,19.4,19.4,0,0,0,1.751,2.916,10.743,10.743,0,0,0,2.775,2.682l.433.275.463.234c.3.164.638.293.972.433.667.275,1.358.533,2.067.785a38.068,38.068,0,0,0,4.467,1.253,25.042,25.042,0,0,0,8.894.445,63.483,63.483,0,0,0,7.2-1.429c2.026-.515,3.659-.978,4.784-1.288.545-.146.978-.263,1.3-.357a2.986,2.986,0,0,1,.457-.105Z" transform="translate(-20.304 -221.2)" fill="#263238"/>
          <path id="Trazado_729982" data-name="Trazado 729982" d="M60.772,144.4a7.49,7.49,0,0,0-1.71-8.191,8.422,8.422,0,0,0-8.291-1.8,6.367,6.367,0,0,0-3.238,2.213,5.916,5.916,0,0,0,.328,6.844,8.637,8.637,0,0,0,6.4,3.109,16.4,16.4,0,0,0,7.131-1.475" transform="translate(-30.143 -125.436)" fill="#263238"/>
          <g id="Grupo_1014108" data-name="Grupo 1014108" transform="translate(38.433 106.352)">
            <g id="Grupo_1014106" data-name="Grupo 1014106" transform="translate(8.768)">
              <path id="Trazado_729983" data-name="Trazado 729983" d="M103.5,307.636c4.093,3.378,13.73,11.376,13.73,11.376l5.4-.96L106.284,304.3a2.169,2.169,0,0,0-2.968.164h0A2.174,2.174,0,0,0,103.5,307.636Z" transform="translate(-100.608 -302.164)" fill="#455a64"/>
              <path id="Trazado_729984" data-name="Trazado 729984" d="M101.577,304.735l-2.119-1.915a1.042,1.042,0,0,1-.1-1.44h0a1.036,1.036,0,0,1,1.493-.094l2.043,1.868-1.312,1.581Z" transform="translate(-99.116 -301.013)" fill="#455a64"/>
              <path id="Trazado_729985" data-name="Trazado 729985" d="M112.089,309.117a7.206,7.206,0,0,1-1.317,1.61,7.309,7.309,0,0,1-1.534,1.4,14.293,14.293,0,0,1,2.851-3.009Z" transform="translate(-103.31 -304.371)" fill="#263238"/>
              <path id="Trazado_729986" data-name="Trazado 729986" d="M109.242,313.866a10.365,10.365,0,0,1-1.634-1.066c-.978-.7-2.3-1.721-3.677-2.927a6.105,6.105,0,0,1-1.721-1.979,2.827,2.827,0,0,1-.053-2.149,2.734,2.734,0,0,1,.867-1.165c.275-.2.457-.269.463-.252s-.146.117-.386.345a2.832,2.832,0,0,0-.738,1.148,2.681,2.681,0,0,0,.105,1.961,6.072,6.072,0,0,0,1.663,1.868c1.376,1.2,2.67,2.242,3.607,2.986a13.832,13.832,0,0,1,1.5,1.235Z" transform="translate(-100.299 -302.386)" fill="#263238"/>
            </g>
            <g id="Grupo_1014107" data-name="Grupo 1014107" transform="translate(0 15.691)">
              <path id="Trazado_729987" data-name="Trazado 729987" d="M84.14,340.792c3.882-1.306,8.01-.427,11.891-1.733A10.356,10.356,0,0,0,99.7,337.25c1.235-1.095,1.862-2.705,2.846-4.028,2.939-3.958,8.431-4.778,13.332-5.281a9.92,9.92,0,0,1,3.431.047,3.366,3.366,0,0,1,2.494,2.155,2.068,2.068,0,0,1-1.546,2.605,2.486,2.486,0,0,1,2.026,2.2c.2,1.06.023,2.155.164,3.22.2,1.5,1.019,2.9.972,4.409-.064,2.067-1.78,3.771-3.689,4.567a24.588,24.588,0,0,1-6.066,1.189c-10.053,1.417-17.7,7.126-27.4,11.435" transform="translate(-84.14 -327.813)" fill="#ffbe9d"/>
              <path id="Trazado_729988" data-name="Trazado 729988" d="M146.5,337.543a1.391,1.391,0,0,0,1.979.41,2.122,2.122,0,0,0,.761-2.043,4.748,4.748,0,0,0-.972-2.061,26.683,26.683,0,0,0-2.816-3.109l-3.115,2.605,4.157,4.2Z" transform="translate(-108.264 -329.026)" fill="#ffbe9d"/>
              <path id="Trazado_729989" data-name="Trazado 729989" d="M141.6,336.412c0,.094-1.909-.059-4.21.3-2.307.34-4.075,1.048-4.11.96a4.233,4.233,0,0,1,1.136-.527,15.216,15.216,0,0,1,2.927-.738,15.419,15.419,0,0,1,3.015-.158,4.3,4.3,0,0,1,1.241.164Z" transform="translate(-104.508 -331.302)" fill="#eb996e"/>
              <path id="Trazado_729990" data-name="Trazado 729990" d="M144.781,346.617c-.018.094-1.6-.234-3.572-.176-1.973.041-3.536.445-3.56.351a11.5,11.5,0,0,1,7.137-.176Z" transform="translate(-106.32 -335.406)" fill="#eb996e"/>
              <path id="Trazado_729991" data-name="Trazado 729991" d="M148.2,338.557c-.047,0,0-.457-.088-1.171a6.221,6.221,0,0,0-.943-2.6,6.527,6.527,0,0,0-.4-.545l-.088-.111.1-.094a2.8,2.8,0,0,0,.808-2.061c-.012-.58-.176-.919-.129-.937a1.54,1.54,0,0,1,.328.919,2.857,2.857,0,0,1-.8,2.289l.012-.2a6.254,6.254,0,0,1,.427.568,5.567,5.567,0,0,1,.9,2.752,2.583,2.583,0,0,1-.129,1.189Z" transform="translate(-110.063 -329.15)" fill="#eb996e"/>
            </g>
          </g>
          <path id="Trazado_729992" data-name="Trazado 729992" d="M149.433,341.79l5.106,4.8.656,2.845-4.725-1.066a20.327,20.327,0,0,1-1.036-6.575Z" transform="translate(-72.761 -211.563)" fill="#455a64"/>
          <path id="Trazado_729993" data-name="Trazado 729993" d="M118.129,351.292c-.105.187-27.559,13.724-27.559,13.724v2.91l28.016-14.573,34.767-1.312V349.98Z" transform="translate(-48.372 -214.958)" fill="#f5f5f5"/>
          <path id="Trazado_729994" data-name="Trazado 729994" d="M90.57,369.8c.193-.129,30.311-2.845,30.311-2.845l32.472-13.461L118.586,354.8,90.57,369.375v.422Z" transform="translate(-48.372 -216.413)" fill="#263238"/>
          <g id="Grupo_1014109" data-name="Grupo 1014109" transform="translate(70.999 139.179)">
            <path id="Trazado_729995" data-name="Trazado 729995" d="M139.811,364.077c-.246-1.575,1.265-2.927,2.8-3.349s3.185-.252,4.743-.609a21.251,21.251,0,0,0,2.892-1.03c4.8-1.844,10.071-1.938,15.211-2.008a3.267,3.267,0,0,1-1.165,3.993,5.39,5.39,0,0,1-.158,3.858,12.05,12.05,0,0,1-2.143,3.3,7.443,7.443,0,0,1-2.541,2.125,8.471,8.471,0,0,1-3.255.5c-3.449.07-7.149.076-10.006-1.862-2.219-1.5-3.753-4.093-6.323-4.86.2.006.4.018.609.023" transform="translate(-139.77 -357.08)" fill="#ffbe9d"/>
            <path id="Trazado_729996" data-name="Trazado 729996" d="M168.888,363.774a6.251,6.251,0,0,1-.662.064c-.492.018-1.095.035-1.8.059-1.522.035-3.624.064-5.943.076h-3.273a4.457,4.457,0,0,1-1.446-.223,2.284,2.284,0,0,1-1.048-.761,1.391,1.391,0,0,1-.275-1.036,1.312,1.312,0,0,1,.363-.72.738.738,0,0,1,.615-.258,1.282,1.282,0,0,0-.533.34,1.2,1.2,0,0,0,0,1.546,2.03,2.03,0,0,0,.954.65,4.568,4.568,0,0,0,1.37.182c1.013-.006,2.114-.018,3.267-.023,2.319-.012,4.421,0,5.943.018.708.018,1.312.029,1.8.041a2.614,2.614,0,0,1,.662.059Z" transform="translate(-145.837 -358.692)" fill="#eb996e"/>
            <path id="Trazado_729997" data-name="Trazado 729997" d="M161.043,369.773s-.293.076-.831.164-1.317.193-2.283.287a22.71,22.71,0,0,1-3.425.082,25.519,25.519,0,0,1-4.134-.7,32.257,32.257,0,0,0-7.477-.919c-.966,0-1.751.035-2.289.064a4.857,4.857,0,0,1-.843.023,4.414,4.414,0,0,1,.831-.146,22.642,22.642,0,0,1,2.3-.158,29.021,29.021,0,0,1,7.547.837,26.941,26.941,0,0,0,4.087.714,23.824,23.824,0,0,0,3.384-.018c.966-.064,1.745-.146,2.289-.187a5.322,5.322,0,0,1,.843-.047Z" transform="translate(-139.76 -361.798)" fill="#eb996e"/>
            <path id="Trazado_729998" data-name="Trazado 729998" d="M159.809,374.024a5.4,5.4,0,0,1-.644.123c-.416.053-1.025.129-1.774.193a21.331,21.331,0,0,1-5.9-.193A25.71,25.71,0,0,1,146,371.98a13.989,13.989,0,0,0-2.313-.708,2.076,2.076,0,0,1,.656.035,8.3,8.3,0,0,1,1.733.474c1.429.515,3.22,1.645,5.469,2.067a24.389,24.389,0,0,0,5.826.275c.7-.041,1.294-.07,1.78-.1a2.364,2.364,0,0,1,.656,0Z" transform="translate(-141.389 -362.958)" fill="#eb996e"/>
          </g>
          <g id="Grupo_1014110" data-name="Grupo 1014110" transform="translate(81.631 123.201)" opacity="0.2">
            <path id="Trazado_729999" data-name="Trazado 729999" d="M157.92,341.119a19.819,19.819,0,0,1,1.71-6.189,9.558,9.558,0,0,1,4.421-4.526,6.354,6.354,0,0,1,6.154.375,3.181,3.181,0,0,1,1.23,1.464,1.807,1.807,0,0,1-.293,1.821c-.65.685-1.739.58-2.682.539a11.3,11.3,0,0,0-10.439,6.288" transform="translate(-157.92 -329.79)"/>
          </g>
          <g id="Grupo_1014111" data-name="Grupo 1014111" transform="translate(24.661 105.683)" opacity="0.2">
            <path id="Trazado_730000" data-name="Trazado 730000" d="M66.743,326.932c2.324-4.2,1.5-9.462-.281-13.911s-4.45-8.548-5.814-13.15a81.139,81.139,0,0,0,4.011,27.495" transform="translate(-60.618 -299.87)"/>
          </g>
          <path id="Trazado_730001" data-name="Trazado 730001" d="M73.536,234.928s2.84,6.692,13.086,6.265S97.2,232.82,97.2,232.82l6.856,7.284-6.511,13.42-8.747,6.528-11.915-4.895-9.819-7.617,6.476-12.617Z" transform="translate(-38.627 -166.395)" fill="#034365"/>
          <g id="Grupo_1014112" data-name="Grupo 1014112" transform="translate(4.545 97.13)" opacity="0.5">
            <path id="Trazado_730002" data-name="Trazado 730002" d="M32.63,285.272a14.036,14.036,0,0,1-2.992,2.793,14.025,14.025,0,0,1-3.372,2.319,14.034,14.034,0,0,1,2.992-2.793A14.024,14.024,0,0,1,32.63,285.272Z" transform="translate(-26.26 -285.262)" fill="#fafafa"/>
          </g>
          <path id="Trazado_730003" data-name="Trazado 730003" d="M40.945,270.248a7.591,7.591,0,0,1-3.419-1.382,7.539,7.539,0,0,1-2.781-2.424,22.212,22.212,0,0,1,3.1,1.9c1.692,1.048,3.168,1.739,3.1,1.9Z" transform="translate(-25.229 -180.327)" fill="#fafafa"/>
          <path id="Trazado_730004" data-name="Trazado 730004" d="M56.554,274.283c.141.105-1.153,1.991-2.629,4.374s-2.588,4.38-2.746,4.3a15.784,15.784,0,0,1,2.225-4.625,15.775,15.775,0,0,1,3.15-4.057Z" transform="translate(-32.037 -183.577)" fill="#fafafa"/>
          <path id="Trazado_730005" data-name="Trazado 730005" d="M44.527,303.891a9.864,9.864,0,0,1-2.652-3.32,9.731,9.731,0,0,1-1.563-3.952c.164-.064.931,1.657,2.1,3.648s2.26,3.513,2.125,3.624Z" transform="translate(-27.529 -192.839)" fill="#fafafa"/>
          <path id="Trazado_730006" data-name="Trazado 730006" d="M33.4,321.083c-.17.023-.509-1.47-.761-3.326a9.878,9.878,0,0,1-.158-3.408,19.122,19.122,0,0,1,.919,6.733Z" transform="translate(-24.256 -200.189)" fill="#fafafa"/>
          <g id="Grupo_1014113" data-name="Grupo 1014113" transform="translate(16.524 116.874)" opacity="0.5">
            <path id="Trazado_730007" data-name="Trazado 730007" d="M46.737,325.685a12.657,12.657,0,0,1,1.68-3.5c1.071-1.85,2.061-3.285,2.207-3.2a12.73,12.73,0,0,1-1.68,3.507c-1.071,1.85-2.061,3.285-2.207,3.2Z" transform="translate(-46.719 -318.983)" fill="#fafafa"/>
          </g>
          <path id="Trazado_730008" data-name="Trazado 730008" d="M28.84,343.16c-.123.111-1.429-1.171-2.693-3.021a10.257,10.257,0,0,1-1.85-3.6c.152-.082,1.107,1.44,2.354,3.255S28.975,343.049,28.84,343.16Z" transform="translate(-20.894 -209.385)" fill="#fafafa"/>
          <path id="Trazado_730009" data-name="Trazado 730009" d="M47.445,344.965a17.463,17.463,0,0,1-3,3.46c-1.78,1.792-3.314,3.15-3.437,3.033a17.462,17.462,0,0,1,3-3.46C45.788,346.206,47.322,344.848,47.445,344.965Z" transform="translate(-27.824 -212.876)" fill="#fafafa"/>
          <g id="Grupo_1014114" data-name="Grupo 1014114" transform="translate(8.761 147.127)" opacity="0.5">
            <path id="Trazado_730010" data-name="Trazado 730010" d="M37.688,376.659A7.827,7.827,0,0,1,35.1,374a7.852,7.852,0,0,1-1.616-3.343c.158-.076.96,1.352,2.114,2.992A21.421,21.421,0,0,1,37.688,376.659Z" transform="translate(-33.462 -370.655)" fill="#fafafa"/>
          </g>
          <path id="Trazado_730011" data-name="Trazado 730011" d="M61.651,373.617a12.658,12.658,0,0,1-3.214,2.184c-1.862,1.06-3.431,1.8-3.519,1.657a12.659,12.659,0,0,1,3.214-2.184C59.988,374.214,61.563,373.471,61.651,373.617Z" transform="translate(-33.592 -224.748)" fill="#fafafa"/>
          <path id="Trazado_730012" data-name="Trazado 730012" d="M73.33,361.1a7.6,7.6,0,0,1-2.711-2.623,7.673,7.673,0,0,1-1.675-3.378c.158-.076.96,1.382,2.166,3.021A26.369,26.369,0,0,1,73.33,361.1Z" transform="translate(-39.399 -217.078)" fill="#fafafa"/>
          <path id="Trazado_730013" data-name="Trazado 730013" d="M88.976,307.752a17.553,17.553,0,0,1-3.46,2.974c-2.014,1.5-3.73,2.617-3.829,2.482a17.341,17.341,0,0,1,3.46-2.974c2.014-1.5,3.73-2.617,3.829-2.482Z" transform="translate(-44.688 -197.45)" fill="#fafafa"/>
          <path id="Trazado_730014" data-name="Trazado 730014" d="M75.421,301.532c-.17-.018-.141-1.622.059-3.583s.5-3.536.667-3.519.141,1.622-.059,3.583S75.591,301.55,75.421,301.532Z" transform="translate(-42.047 -191.932)" fill="#fafafa"/>
          <g id="Grupo_1014115" data-name="Grupo 1014115" transform="translate(36.266 89.761)" opacity="0.5">
            <path id="Trazado_730015" data-name="Trazado 730015" d="M87.612,278.8c-.094.135-1.909-.984-3.9-2.687a14.378,14.378,0,0,1-3.267-3.425c.123-.123,1.692,1.288,3.665,2.963S87.717,278.657,87.612,278.8Z" transform="translate(-80.438 -272.677)" fill="#fafafa"/>
          </g>
          <path id="Trazado_730016" data-name="Trazado 730016" d="M75.4,253.916c.129.111-1.153,1.833-2.857,3.841s-3.2,3.56-3.326,3.449,1.153-1.827,2.863-3.841,3.2-3.56,3.326-3.449Z" transform="translate(-39.516 -175.137)" fill="#fafafa"/>
          <g id="Grupo_1014116" data-name="Grupo 1014116" transform="translate(20.991 74.742)" opacity="0.5">
            <path id="Trazado_730017" data-name="Trazado 730017" d="M60.58,249.23c-.094.152-1.4-.521-3.1-1.095a20.57,20.57,0,0,1-3.127-1.019,6.058,6.058,0,0,1,3.32.439,6,6,0,0,1,2.9,1.669Z" transform="translate(-54.35 -247.025)" fill="#fafafa"/>
          </g>
          <path id="Trazado_730018" data-name="Trazado 730018" d="M102.547,259.874c-.164-.047.117-1.47.621-3.185a8.935,8.935,0,0,1,1.2-3.009c.164.047-.117,1.47-.621,3.185A8.935,8.935,0,0,1,102.547,259.874Z" transform="translate(-53.317 -175.041)" fill="#fafafa"/>
          <path id="Trazado_730019" data-name="Trazado 730019" d="M111.446,282.884a8.206,8.206,0,0,1-.129-3.115,8.305,8.305,0,0,1,.48-3.08,8.206,8.206,0,0,1,.129,3.115A8.305,8.305,0,0,1,111.446,282.884Z" transform="translate(-56.953 -184.579)" fill="#fafafa"/>
          <path id="Trazado_730020" data-name="Trazado 730020" d="M122.551,301.493a10.026,10.026,0,0,1-2.863-1.909,10.046,10.046,0,0,1-2.483-2.383,10.025,10.025,0,0,1,2.863,1.909A10.046,10.046,0,0,1,122.551,301.493Z" transform="translate(-59.409 -193.076)" fill="#fafafa"/>
          <path id="Trazado_730021" data-name="Trazado 730021" d="M138.174,280.422c.111.129-1.03,1.317-2.553,2.658s-2.846,2.33-2.957,2.2,1.03-1.317,2.553-2.658S138.063,280.293,138.174,280.422Z" transform="translate(-65.817 -186.121)" fill="#fafafa"/>
          <g id="Grupo_1014117" data-name="Grupo 1014117" transform="translate(62.524 82.991)" opacity="0.5">
            <path id="Trazado_730022" data-name="Trazado 730022" d="M130.885,265.754a14.134,14.134,0,0,1-5.592-4.631c.123-.123,1.347.943,2.881,2.213s2.8,2.278,2.7,2.424Z" transform="translate(-125.285 -261.113)" fill="#fafafa"/>
          </g>
          <path id="Trazado_730023" data-name="Trazado 730023" d="M149.9,248.745a5.617,5.617,0,0,1-1.827,2.477,5.713,5.713,0,0,1-2.588,1.675c-.094-.146.966-.984,2.166-2.119S149.76,248.639,149.9,248.745Z" transform="translate(-71.132 -172.993)" fill="#fafafa"/>
          <g id="Grupo_1014118" data-name="Grupo 1014118" transform="translate(63.444 72.577)" opacity="0.5">
            <path id="Trazado_730024" data-name="Trazado 730024" d="M134.863,245.384c-.023.164-1.891.029-4.122-.539a11.012,11.012,0,0,1-3.882-1.487c.059-.164,1.833.34,4.034.9a20.287,20.287,0,0,1,3.976,1.13Z" transform="translate(-126.858 -243.326)" fill="#fafafa"/>
          </g>
          <g id="Grupo_1014119" data-name="Grupo 1014119" transform="translate(85.009 83.743)" opacity="0.5">
            <path id="Trazado_730025" data-name="Trazado 730025" d="M163.724,272.212a17.149,17.149,0,0,1,1.042-5.047c.831-2.728,1.8-4.83,1.956-4.766s-.55,2.242-1.376,4.947-1.452,4.906-1.622,4.866Z" transform="translate(-163.688 -262.398)" fill="#fafafa"/>
          </g>
          <path id="Trazado_730026" data-name="Trazado 730026" d="M164.637,296.705c-.123.117-1.569-1.218-3.226-2.974s-2.91-3.279-2.787-3.4,1.569,1.218,3.226,2.974S164.76,296.588,164.637,296.705Z" transform="translate(-76.577 -190.232)" fill="#fafafa"/>
          <g id="Grupo_1014120" data-name="Grupo 1014120" transform="translate(92.485 105.232)" opacity="0.5">
            <path id="Trazado_730027" data-name="Trazado 730027" d="M176.7,307.66c-.17,0-.269-1.92-.234-4.286s.211-4.28.381-4.274.269,1.92.234,4.286S176.869,307.666,176.7,307.66Z" transform="translate(-176.458 -299.1)" fill="#fafafa"/>
          </g>
          <path id="Trazado_730028" data-name="Trazado 730028" d="M165.82,328.855a11.844,11.844,0,0,1-2.547-3.583,11.676,11.676,0,0,1-1.61-4.093c.164-.064,1,1.692,2.149,3.8s2.149,3.776,2.008,3.876Z" transform="translate(-77.831 -203.019)" fill="#fafafa"/>
          <path id="Trazado_730029" data-name="Trazado 730029" d="M186.55,338.042c.117.123-.7,1.107-1.815,2.2s-2.125,1.879-2.242,1.762.7-1.107,1.815-2.2S186.427,337.925,186.55,338.042Z" transform="translate(-86.469 -210.005)" fill="#fafafa"/>
          <g id="Grupo_1014121" data-name="Grupo 1014121" transform="translate(70.617 107.267)" opacity="0.5">
            <path id="Trazado_730030" data-name="Trazado 730030" d="M139.132,309.616c-.152-.047.386-1.967,1.774-3.964a8.718,8.718,0,0,1,3.08-3.068c.123.135-1.253,1.481-2.576,3.413C140.069,307.924,139.3,309.68,139.132,309.616Z" transform="translate(-139.107 -302.575)" fill="#fafafa"/>
          </g>
          <path id="Trazado_730031" data-name="Trazado 730031" d="M80.8,336.634c-.164-.041.123-1.78.644-3.888s1.071-3.788,1.235-3.747-.123,1.78-.644,3.894A13.121,13.121,0,0,1,80.8,336.64Z" transform="translate(-44.302 -206.261)" fill="#fafafa"/>
          <path id="Trazado_730032" data-name="Trazado 730032" d="M101.024,341.617a11.332,11.332,0,0,1-3.255-1.757,11.405,11.405,0,0,1-2.922-2.272,11.333,11.333,0,0,1,3.255,1.757A11.407,11.407,0,0,1,101.024,341.617Z" transform="translate(-50.143 -209.815)" fill="#fafafa"/>
          <path id="Trazado_730033" data-name="Trazado 730033" d="M102.345,324.052c-.141.094-.826-.685-1.528-1.739s-1.165-1.985-1.025-2.079.826.685,1.528,1.739S102.485,323.958,102.345,324.052Z" transform="translate(-52.184 -202.625)" fill="#fafafa"/>
          <path id="Trazado_730034" data-name="Trazado 730034" d="M112.8,330.779c.1.141-.521.738-1.376,1.341s-1.628.978-1.727.837.521-.738,1.376-1.341S112.7,330.639,112.8,330.779Z" transform="translate(-56.294 -206.987)" fill="#fafafa"/>
          <g id="Grupo_1014122" data-name="Grupo 1014122" transform="translate(39.894 159.871)" opacity="0.5">
            <path id="Trazado_730035" data-name="Trazado 730035" d="M86.684,398.433a11.765,11.765,0,0,1,.345-3.021,11.442,11.442,0,0,1,.55-2.992,5.957,5.957,0,0,1,.053,3.08,6.03,6.03,0,0,1-.949,2.933Z" transform="translate(-86.634 -392.42)" fill="#fafafa"/>
          </g>
          <g id="Grupo_1014123" data-name="Grupo 1014123" transform="translate(50.081 153.339)" opacity="0.5">
            <path id="Trazado_730036" data-name="Trazado 730036" d="M108.487,389.061A16.7,16.7,0,0,1,106,385.314c-1.224-2.155-2.1-3.964-1.956-4.046a16.7,16.7,0,0,1,2.483,3.747C107.755,387.17,108.633,388.979,108.487,389.061Z" transform="translate(-104.033 -381.265)" fill="#fafafa"/>
          </g>
          <g id="Grupo_1014124" data-name="Grupo 1014124" transform="translate(62.963 154.603)" opacity="0.5">
            <path id="Trazado_730037" data-name="Trazado 730037" d="M133.082,383.427c.135.1-1.335,2.242-3.279,4.784s-3.63,4.52-3.759,4.415,1.335-2.242,3.279-4.784S132.947,383.328,133.082,383.427Z" transform="translate(-126.035 -383.424)" fill="#fafafa"/>
          </g>
          <g id="Grupo_1014125" data-name="Grupo 1014125" transform="translate(65.63 166.966)" opacity="0.5">
            <path id="Trazado_730038" data-name="Trazado 730038" d="M139.331,404.61a16.442,16.442,0,0,1-4.327.937c-2.412.351-4.391.5-4.415.328a16.442,16.442,0,0,1,4.327-.937C137.329,404.587,139.308,404.44,139.331,404.61Z" transform="translate(-130.59 -404.539)" fill="#fafafa"/>
          </g>
          <path id="Trazado_730039" data-name="Trazado 730039" d="M146.615,389.968a10.73,10.73,0,0,1,.047-2.822,10.913,10.913,0,0,1,.2-2.816,5.1,5.1,0,0,1,.41,2.84,5.013,5.013,0,0,1-.656,2.793Z" transform="translate(-71.57 -229.196)" fill="#fafafa"/>
          <path id="Trazado_730040" data-name="Trazado 730040" d="M106.839,403.45a10.283,10.283,0,0,1-5.826-4.186,24.973,24.973,0,0,1,2.892,2.125c1.587,1.148,3.009,1.9,2.933,2.067Z" transform="translate(-52.696 -235.383)" fill="#fafafa"/>
          <path id="Trazado_730041" data-name="Trazado 730041" d="M68.529,400.715A14.966,14.966,0,0,1,70,394.889a14.966,14.966,0,0,1-1.47,5.826Z" transform="translate(-39.212 -233.573)" fill="#fafafa"/>
          <path id="Trazado_730042" data-name="Trazado 730042" d="M63.951,151.908c.035-.047.7.527,1.926,1.194a13.923,13.923,0,0,0,2.242.978,15.9,15.9,0,0,0,2.922.65,15.574,15.574,0,0,0,2.992.029,13.855,13.855,0,0,0,2.406-.445c1.347-.375,2.125-.785,2.149-.726a2.383,2.383,0,0,1-.533.31,5.533,5.533,0,0,1-.656.3,9.132,9.132,0,0,1-.9.328,12.681,12.681,0,0,1-2.442.515,15.213,15.213,0,0,1-3.056,0,14.491,14.491,0,0,1-2.974-.691,12.594,12.594,0,0,1-2.26-1.06c-.31-.17-.568-.363-.8-.521a6.513,6.513,0,0,1-.574-.439,2.419,2.419,0,0,1-.451-.422Z" transform="translate(-37.333 -132.856)" fill="#455a64"/>
          <path id="Trazado_730043" data-name="Trazado 730043" d="M79.315,160.205a4.948,4.948,0,0,1-.638.2c-.416.105-1.025.24-1.78.375a16.234,16.234,0,0,1-6,.035,9.341,9.341,0,0,1-5.182-2.957,6.5,6.5,0,0,1-.984-1.546,2.67,2.67,0,0,1-.217-.632,10.718,10.718,0,0,0,1.358,2.038,9.539,9.539,0,0,0,5.082,2.8,17.688,17.688,0,0,0,5.9.053c.755-.105,1.364-.211,1.786-.275a3.188,3.188,0,0,1,.662-.082Z" transform="translate(-37.573 -134.419)" fill="#455a64"/>
          <path id="Trazado_730044" data-name="Trazado 730044" d="M53.6,199.971a.568.568,0,0,1-.076-.082,2.3,2.3,0,0,1-.2-.263,3.333,3.333,0,0,1-.468-1.171,5.389,5.389,0,0,1,1.288-4.35,10.921,10.921,0,0,1,2.447-2.067c.96-.632,2.038-1.218,3.1-1.926a9.489,9.489,0,0,0,2.822-2.752,4.986,4.986,0,0,0,.7-1.932A6.107,6.107,0,0,0,63.1,183.3a26.965,26.965,0,0,0-1.481-4.04,11.13,11.13,0,0,1-.989-3.94,10.5,10.5,0,0,1,2.008-6.487,9.831,9.831,0,0,1,3.454-3.045c.24-.117.463-.222.656-.316.193-.064.357-.123.5-.176a1.9,1.9,0,0,1,.422-.123,2.621,2.621,0,0,1-.4.182c-.141.059-.3.123-.486.2-.187.1-.4.211-.638.334a10,10,0,0,0-3.331,3.062,10.372,10.372,0,0,0-1.9,6.353,11.017,11.017,0,0,0,.984,3.841,26.1,26.1,0,0,1,1.5,4.087,6.267,6.267,0,0,1,.117,2.237,5.291,5.291,0,0,1-.744,2.049,9.665,9.665,0,0,1-2.922,2.834c-1.083.72-2.16,1.288-3.115,1.909a10.742,10.742,0,0,0-2.424,2,5.32,5.32,0,0,0-1.335,4.186,3.983,3.983,0,0,0,.626,1.534Z" transform="translate(-32.707 -138.352)" fill="#455a64"/>
          <path id="Trazado_730045" data-name="Trazado 730045" d="M77.886,201.205a3.905,3.905,0,0,1-.34-.193,2.838,2.838,0,0,1-.755-.82,3.925,3.925,0,0,1-.527-1.686,6.313,6.313,0,0,1,.258-2.33c.474-1.721,1.915-3.285,2.992-5.246a6.573,6.573,0,0,0,.878-3.337,8.907,8.907,0,0,0-.943-3.613c-1.112-2.354-2.822-4.227-4-6.183a12.614,12.614,0,0,1-1.382-2.945,7.147,7.147,0,0,1-.287-2.822,5.582,5.582,0,0,1,1.7-3.659,4.01,4.01,0,0,1,.937-.6,1.775,1.775,0,0,1,.363-.129,6.1,6.1,0,0,0-1.224.82,5.577,5.577,0,0,0-1.569,3.595,6.93,6.93,0,0,0,.316,2.728,12.823,12.823,0,0,0,1.376,2.869c.6.96,1.306,1.915,2.032,2.922a20.314,20.314,0,0,1,2.008,3.285,9.307,9.307,0,0,1,.966,3.741,6.821,6.821,0,0,1-.931,3.472c-1.118,2-2.553,3.531-3.033,5.176a6.341,6.341,0,0,0-.293,2.254,3.973,3.973,0,0,0,.457,1.639,3.513,3.513,0,0,0,.989,1.071Z" transform="translate(-41.397 -139.376)" fill="#455a64"/>
          <path id="Trazado_730046" data-name="Trazado 730046" d="M108.632,139.629a1.45,1.45,0,0,1-.222-.094,4.337,4.337,0,0,1-.58-.369,7.155,7.155,0,0,1-1.686-1.879,20.746,20.746,0,0,1-1.622-3.361c-.269-.644-.556-1.317-.913-1.979a12.229,12.229,0,0,0-1.294-1.932,13.227,13.227,0,0,0-6.768-4.362,17.976,17.976,0,0,0-3.367-.48,5.485,5.485,0,0,1,.919-.053,12,12,0,0,1,2.5.328,12.567,12.567,0,0,1,3.466,1.405,12.824,12.824,0,0,1,3.484,2.974,12.029,12.029,0,0,1,1.317,1.985c.357.679.644,1.364.908,2.014a22.278,22.278,0,0,0,1.546,3.355,7.436,7.436,0,0,0,1.575,1.9c.451.375.744.533.726.556Z" transform="translate(-49.039 -121.753)" fill="#455a64"/>
          <path id="Trazado_730047" data-name="Trazado 730047" d="M116.949,139.122a2.092,2.092,0,0,1-.316-.035,5.009,5.009,0,0,1-.878-.228,7.569,7.569,0,0,1-2.793-1.815,16.959,16.959,0,0,1-2.9-4,30.949,30.949,0,0,0-3.185-5.07,10.01,10.01,0,0,0-4.971-3.1,19.39,19.39,0,0,0-4.836-.644c-1.4-.029-2.529.029-3.314.059-.363.012-.662.023-.9.035a2.644,2.644,0,0,1-.316-.006,1.114,1.114,0,0,1,.31-.053c.2-.023.509-.059.9-.094.779-.064,1.915-.158,3.32-.158a18.743,18.743,0,0,1,4.906.591,10.215,10.215,0,0,1,5.123,3.168,29.947,29.947,0,0,1,3.2,5.135,17.163,17.163,0,0,0,2.8,3.987,8,8,0,0,0,2.682,1.856c.726.287,1.159.34,1.153.375Z" transform="translate(-49.188 -121.293)" fill="#455a64"/>
          <path id="Trazado_730048" data-name="Trazado 730048" d="M151,194.859c-.035-.012.152-.416.345-1.183a11.1,11.1,0,0,0-2.57-10.41c-.679-.755-1.452-1.47-2.237-2.219a20.221,20.221,0,0,1-2.172-2.33,14.568,14.568,0,0,1-1.563-2.529,13.857,13.857,0,0,1-.943-2.518,14.339,14.339,0,0,1-.4-5.668,7.917,7.917,0,0,1,.164-.9,2.064,2.064,0,0,1,.082-.31c.029,0-.059.439-.129,1.224a15.23,15.23,0,0,0,.064,3.337,15.055,15.055,0,0,0,.468,2.254,13.872,13.872,0,0,0,.954,2.459,14.337,14.337,0,0,0,1.546,2.465,20.55,20.55,0,0,0,2.143,2.289c.785.749,1.563,1.47,2.248,2.237a11.489,11.489,0,0,1,1.7,2.442,11.171,11.171,0,0,1,1.212,4.854,10.659,10.659,0,0,1-.451,3.343,6.991,6.991,0,0,1-.316.861,1.061,1.061,0,0,1-.141.287Z" transform="translate(-69.412 -139.025)" fill="#455a64"/>
          <path id="Trazado_730049" data-name="Trazado 730049" d="M48.286,145.248a3.112,3.112,0,0,1,.076-.574,5.618,5.618,0,0,1,.574-1.475,6.252,6.252,0,0,1,9.093-2.178,5.486,5.486,0,0,1,1.177,1.054,1.843,1.843,0,0,1,.328.48,10.94,10.94,0,0,0-1.622-1.352,6.23,6.23,0,0,0-8.794,2.108,10.872,10.872,0,0,0-.837,1.938Z" transform="translate(-30.842 -127.881)" fill="#455a64"/>
          <path id="Trazado_730050" data-name="Trazado 730050" d="M57.971,149.567a4.79,4.79,0,0,1,.164-1.329,5.84,5.84,0,0,1,1.382-2.933,3.1,3.1,0,0,1,3.1-.785,1.8,1.8,0,0,1,.831.568c.146.187.193.31.176.322a2.735,2.735,0,0,0-1.071-.685,3.013,3.013,0,0,0-2.822.8A6.351,6.351,0,0,0,58.34,148.3a6.794,6.794,0,0,1-.375,1.276Z" transform="translate(-34.854 -129.736)" fill="#455a64"/>
          <path id="Trazado_730051" data-name="Trazado 730051" d="M69,138.589a27.384,27.384,0,0,0-1.54,3.191,27.7,27.7,0,0,0-.8,3.449,7.665,7.665,0,0,1,.509-3.554A7.516,7.516,0,0,1,69,138.589Z" transform="translate(-38.442 -127.335)" fill="#e8505b"/>
        </g>
      </g>
      <g id="Speech_Bubble" data-name="Speech Bubble" transform="translate(107.995 74.118)">
        <g id="Grupo_1014128" data-name="Grupo 1014128">
          <g id="Grupo_1014127" data-name="Grupo 1014127" transform="translate(12.25 19.475)">
            <path id="Trazado_730052" data-name="Trazado 730052" d="M230.67,161.681a1.821,1.821,0,1,0,1.821-1.821A1.819,1.819,0,0,0,230.67,161.681Z" transform="translate(-215.858 -159.855)" fill="#455a64"/>
            <circle id="Elipse_8006" data-name="Elipse 8006" cx="1.821" cy="1.821" r="1.821" transform="translate(7.517 0.005)" fill="#455a64"/>
            <path id="Trazado_730053" data-name="Trazado 730053" d="M205.617,160.764a1.822,1.822,0,1,0,2.488-.667A1.82,1.82,0,0,0,205.617,160.764Z" transform="translate(-205.372 -159.852)" fill="#455a64"/>
          </g>
          <path id="Trazado_730054" data-name="Trazado 730054" d="M205.926,126.608a3.489,3.489,0,0,0-.369-.006c-.269.006-.626.018-1.083.029-.24.012-.5.012-.8.035-.293.041-.609.088-.954.135s-.72.105-1.112.158c-.392.1-.808.2-1.247.31a20.21,20.21,0,0,0-6.036,2.629,21.651,21.651,0,0,0-6.241,6.077,21.042,21.042,0,0,0-3.6,12.846c.035.492.023,1,.1,1.493s.152,1,.228,1.5a21.541,21.541,0,0,0,2.026,5.937,22.781,22.781,0,0,0,3.882,5.34,22.486,22.486,0,0,0,5.592,4.017,20.347,20.347,0,0,0,6.815,2.09,13.388,13.388,0,0,0,1.815.152,16.03,16.03,0,0,0,1.838.035,22.393,22.393,0,0,0,3.677-.463,21.515,21.515,0,0,0,7.325-3.08l-.222.023q3.812,1.528,7.459,2.992l.439.176-.129-.457q-1.133-4.11-2.2-7.974l-.035.2a21.342,21.342,0,0,0,3.981-9.116,19.774,19.774,0,0,0,.293-4.672,15.73,15.73,0,0,0-.211-2.242c-.059-.369-.111-.732-.17-1.089s-.176-.708-.263-1.054A21.349,21.349,0,0,0,218.4,130.5a20.461,20.461,0,0,0-4.953-2.611c-.386-.141-.755-.269-1.118-.4-.369-.094-.72-.182-1.06-.269s-.662-.164-.972-.24c-.31-.059-.609-.094-.89-.135-.562-.07-1.06-.17-1.493-.193s-.79-.029-1.095-.035q-.413-.009-.667-.018a1.34,1.34,0,0,0-.228.006.989.989,0,0,0,.228.029q.255.018.667.053c.3.018.662.047,1.089.076s.919.141,1.481.222A21.212,21.212,0,0,1,226.36,142.72c.082.345.187.685.252,1.036l.158,1.071a15.078,15.078,0,0,1,.2,2.2,18.723,18.723,0,0,1-.3,4.579,20.95,20.95,0,0,1-3.929,8.917l-.064.088.029.105q1.054,3.864,2.178,7.98l.316-.281q-3.645-1.467-7.459-3l-.117-.047-.105.07a21.118,21.118,0,0,1-7.161,3.009,21.417,21.417,0,0,1-3.595.457,15.328,15.328,0,0,1-1.8-.035,12.722,12.722,0,0,1-1.774-.152,19.92,19.92,0,0,1-6.663-2.038,21.968,21.968,0,0,1-5.474-3.917,22.569,22.569,0,0,1-3.812-5.217,21.108,21.108,0,0,1-2.008-5.814L185,150.256c-.07-.486-.064-.978-.1-1.464a22.15,22.15,0,0,1,.047-2.863,21.068,21.068,0,0,1,9.532-15.82,20.3,20.3,0,0,1,5.937-2.676c.433-.117.843-.222,1.23-.328.392-.064.761-.123,1.1-.181s.656-.105.949-.158c.293-.029.556-.041.79-.059.457-.035.814-.059,1.077-.076a2.366,2.366,0,0,0,.369-.041Z" transform="translate(-184.449 -126.59)" fill="#455a64"/>
        </g>
      </g>
    </g>
  </g>
</svg>
