<svg xmlns="http://www.w3.org/2000/svg" xmlns:xlink="http://www.w3.org/1999/xlink" width="1251.61" height="541.805" viewBox="0 0 1251.61 541.805">
  <defs>
    <filter id="Rectángulo_348590" x="575" y="40.897" width="501" height="90" filterUnits="userSpaceOnUse">
      <feOffset dy="3" input="SourceAlpha"/>
      <feGaussianBlur stdDeviation="3" result="blur"/>
      <feFlood flood-opacity="0.161"/>
      <feComposite operator="in" in2="blur"/>
      <feComposite in="SourceGraphic"/>
    </filter>
    <filter id="Rectángulo_348590-2" x="430" y="141.897" width="364" height="86" filterUnits="userSpaceOnUse">
      <feOffset dy="3" input="SourceAlpha"/>
      <feGaussianBlur stdDeviation="3" result="blur-2"/>
      <feFlood flood-opacity="0.161"/>
      <feComposite operator="in" in2="blur-2"/>
      <feComposite in="SourceGraphic"/>
    </filter>
    <filter id="Rectángulo_348591" x="844" y="141.897" width="364" height="86" filterUnits="userSpaceOnUse">
      <feOffset dy="3" input="SourceAlpha"/>
      <feGaussianBlur stdDeviation="3" result="blur-3"/>
      <feFlood flood-opacity="0.161"/>
      <feComposite operator="in" in2="blur-3"/>
      <feComposite in="SourceGraphic"/>
    </filter>
    <filter id="Rectángulo_344415" x="430" y="325.897" width="364" height="102" filterUnits="userSpaceOnUse">
      <feOffset dy="3" input="SourceAlpha"/>
      <feGaussianBlur stdDeviation="3" result="blur-4"/>
      <feFlood flood-opacity="0.161"/>
      <feComposite operator="in" in2="blur-4"/>
      <feComposite in="SourceGraphic"/>
    </filter>
    <filter id="Rectángulo_344415-2" x="844" y="325.897" width="364" height="102" filterUnits="userSpaceOnUse">
      <feOffset dy="3" input="SourceAlpha"/>
      <feGaussianBlur stdDeviation="3" result="blur-5"/>
      <feFlood flood-opacity="0.161"/>
      <feComposite operator="in" in2="blur-5"/>
      <feComposite in="SourceGraphic"/>
    </filter>
    <filter id="Rectángulo_344415-3" x="430" y="225.897" width="364" height="102" filterUnits="userSpaceOnUse">
      <feOffset dy="3" input="SourceAlpha"/>
      <feGaussianBlur stdDeviation="3" result="blur-6"/>
      <feFlood flood-opacity="0.161"/>
      <feComposite operator="in" in2="blur-6"/>
      <feComposite in="SourceGraphic"/>
    </filter>
    <filter id="Rectángulo_344415-4" x="844" y="225.897" width="364" height="102" filterUnits="userSpaceOnUse">
      <feOffset dy="3" input="SourceAlpha"/>
      <feGaussianBlur stdDeviation="3" result="blur-7"/>
      <feFlood flood-opacity="0.161"/>
      <feComposite operator="in" in2="blur-7"/>
      <feComposite in="SourceGraphic"/>
    </filter>
    <clipPath id="clip-path">
      <path id="path8808" d="M0-682.665H30.842v30.842H0Z" transform="translate(0 682.665)"/>
    </clipPath>
  </defs>
  <g id="Grupo_1014559" data-name="Grupo 1014559" transform="translate(4874.61 8165.358)">
    <g id="Grupo_1014555" data-name="Grupo 1014555" transform="translate(-4863 -7747.327)">
      <g id="Grupo_1013398" data-name="Grupo 1013398" transform="translate(21.29)">
        <g id="Grupo_1013394" data-name="Grupo 1013394" transform="translate(0 36.51)">
          <g id="Grupo_1013393" data-name="Grupo 1013393">
            <path id="Trazado_724429" data-name="Trazado 724429" d="M156.3,443.57l-.67,10.54a7.19,7.19,0,0,1-7.12,6.67l-125.39-.51.47,8.75,128.81.33A12.755,12.755,0,0,0,165,457.64l1.27-17.54a11.441,11.441,0,0,0-11.29-12.51L21.29,426.2l.5,9.29,128.12,1.11a6.45,6.45,0,0,1,6.39,6.98Z" transform="translate(-21.29 -426.2)" fill="#bd4939"/>
            <path id="Trazado_724430" data-name="Trazado 724430" d="M25.8,435.52l1.24,24.76,116.28.47a12.773,12.773,0,0,0,12.64-11.89h0a11.422,11.422,0,0,0-11.35-12.32L25.8,435.52Z" transform="translate(-21.29 -426.2)" fill="#dddce0"/>
            <path id="Trazado_724431" data-name="Trazado 724431" d="M206.26,449.22a23.073,23.073,0,0,1-14.43,18.74c-.11.05-.22.09-.33.13a20.985,20.985,0,0,1-2.45.75,20.392,20.392,0,0,1-5.01.6l-50.27-.17.39-8.57,49.71.24c.23,0,.46,0,.68-.02s.46-.03.68-.06.42-.05.63-.08a.5.5,0,0,0,.16-.03,5.354,5.354,0,0,0,.55-.11c.22-.05.43-.1.65-.16q.285-.075.57-.18a9.957,9.957,0,0,0,1.33-.53c.19-.09.38-.19.57-.28a.559.559,0,0,0,.08-.05c.04-.02.08-.04.13-.07a11.914,11.914,0,0,0,1.22-.77,1.529,1.529,0,0,0,.16-.11c.23-.17.45-.33.67-.51s.43-.37.64-.56.39-.37.57-.56c.02-.02.04-.03.06-.05.16-.17.31-.34.46-.52a7.007,7.007,0,0,0,.48-.6c.1-.12.19-.25.28-.38.12-.17.24-.34.34-.51s.21-.34.31-.51a3.007,3.007,0,0,0,.19-.35,2.68,2.68,0,0,0,.12-.24c.15-.3.29-.59.42-.9.04-.09.08-.19.11-.28.08-.2.16-.41.23-.61.04-.12.08-.25.12-.38s.07-.24.1-.36c.03-.1.05-.2.08-.3.03-.14.07-.28.1-.43s.05-.27.08-.41v-.05a2.02,2.02,0,0,0,.06-.34c.02-.17.05-.35.06-.52a11.2,11.2,0,0,0-2.63-8.57,10.738,10.738,0,0,0-8.11-3.65l-50.76-.48.41-9.09,52.12.58a18.559,18.559,0,0,1,14.05,6.42,19.374,19.374,0,0,1,4.43,14.86Z" transform="translate(-21.29 -426.2)" fill="#d26d57"/>
            <path id="Trazado_724432" data-name="Trazado 724432" d="M196.75,449.15a9.379,9.379,0,0,1-.19,1.2,13.352,13.352,0,0,1-5.45,8.29,12.525,12.525,0,0,1-7.24,2.31l-53.56-.26,1.01-24.27,54.7.52a10.773,10.773,0,0,1,8.11,3.65,11.2,11.2,0,0,1,2.63,8.57Z" transform="translate(-21.29 -426.2)" fill="#fdf8ef"/>
            <path id="Trazado_724433" data-name="Trazado 724433" d="M196.75,449.15a9.379,9.379,0,0,1-.19,1.2l-65.81-.46.05-1.22,65.95.47Z" transform="translate(-21.29 -426.2)" fill="#dddce0"/>
          </g>
          <path id="Trazado_724434" data-name="Trazado 724434" d="M189.67,459.51c-.18.09-.37.19-.57.28a13.629,13.629,0,0,1-1.33.53c-.19.07-.38.12-.57.18a5.59,5.59,0,0,1-.65.16,5.353,5.353,0,0,1-.55.11c-.05.01-.1.02-.16.03-.21.03-.42.06-.63.08s-.45.04-.68.06-.45.02-.68.02l-5.6-.03.67-11.9,11.43.08-.69,10.4Z" transform="translate(-21.29 -426.2)" fill="#38312f"/>
          <path id="Trazado_724435" data-name="Trazado 724435" d="M189.05,468.84a20.392,20.392,0,0,1-5.01.6l-6.25-.02.48-8.5,5.6.03c.23,0,.46,0,.68-.02s.46-.03.68-.06.42-.05.63-.08a.5.5,0,0,0,.16-.03,5.354,5.354,0,0,0,.55-.11c.22-.05.43-.1.65-.16q.285-.075.57-.18a9.957,9.957,0,0,0,1.33-.53c.19-.09.38-.19.57-.28l-.62,9.33Z" transform="translate(-21.29 -426.2)" fill="#38312f"/>
          <path id="Trazado_724436" data-name="Trazado 724436" d="M194.1,464.21l-6.6-3.91-4.65,3.86-3.91-15.13,11.42.08Z" transform="translate(-21.29 -426.2)" fill="#ebaa43"/>
        </g>
        <g id="Grupo_1013397" data-name="Grupo 1013397" transform="translate(13.54)">
          <g id="Grupo_1013396" data-name="Grupo 1013396">
            <path id="Trazado_724437" data-name="Trazado 724437" d="M179.46,409.81c0,.21-.01.43-.03.64a9.313,9.313,0,0,1-2.88,6,8.512,8.512,0,0,1-5.96,2.41L35.96,417.15l.38,9.39,134.19,1.47a17.689,17.689,0,0,0,11.68-4.37c.23-.19.46-.4.68-.6a19.651,19.651,0,0,0,6.06-12.45c.02-.21.04-.42.04-.64.03-.41.04-.82.03-1.22a17.54,17.54,0,0,0-1.29-6.52h0a15.832,15.832,0,0,0-14.52-10.07L34.83,389.69l.4,9.83,136.63,2.17a7.7,7.7,0,0,1,7.51,6.9,8.3,8.3,0,0,1,.07,1.23Z" transform="translate(-34.83 -389.69)" fill="#3b314b"/>
            <path id="Trazado_724438" data-name="Trazado 724438" d="M40.58,399.58l.64,17.63,129.38,1.64a8.512,8.512,0,0,0,5.96-2.41,9.337,9.337,0,0,0,2.88-6,7.835,7.835,0,0,0-7.56-8.77l-131.3-2.09Z" transform="translate(-34.83 -389.69)" fill="#dddce0"/>
            <g id="Grupo_1013395" data-name="Grupo 1013395" transform="translate(94.75 1.68)">
              <path id="Trazado_724439" data-name="Trazado 724439" d="M193.19,410.04c0,.2-.01.39-.03.6a9.425,9.425,0,0,1-2.94,5.98,8.858,8.858,0,0,1-3.93,2.16,8.058,8.058,0,0,1-2.03.24l-54.31-.69-.37,9.22,54.51.6a17.944,17.944,0,0,0,12.36-4.96,19.777,19.777,0,0,0,6.18-12.42c1.01-9.93-5.88-18.23-15.43-18.4l-56.18-1-.38,9.64,55.1.88a5.118,5.118,0,0,1,.56.03,1.334,1.334,0,0,1,.28.03c.14.01.28.04.41.06a5.6,5.6,0,0,1,.56.12c.07.02.14.03.21.05h.02a7.294,7.294,0,0,1,2.12,1.02,2.347,2.347,0,0,1,.25.19,6.9,6.9,0,0,1,1.11,1.05,5.447,5.447,0,0,1,.37.47c.13.18.26.36.38.55h0a5.155,5.155,0,0,1,.33.61,5.784,5.784,0,0,1,.28.63,4.3,4.3,0,0,1,.2.57c.02.06.04.14.06.2a4.075,4.075,0,0,1,.14.58v.02c.05.23.08.46.11.7.02.18.04.37.05.55a4.968,4.968,0,0,1,.01.67v.04Z" transform="translate(-129.58 -391.37)" fill="#5f5384"/>
              <path id="Trazado_724440" data-name="Trazado 724440" d="M135.78,401.1l-.76,17.3,49.24.62a8.582,8.582,0,0,0,5.96-2.4,9.449,9.449,0,0,0,2.94-5.98c.02-.21.03-.42.04-.64a9.68,9.68,0,0,0-.06-1.22,7.578,7.578,0,0,0-7.39-6.89l-49.95-.8Z" transform="translate(-129.58 -391.37)" fill="#dddce0"/>
              <path id="Trazado_724441" data-name="Trazado 724441" d="M135.78,401.1l-.76,17.3,45.64.58a7.71,7.71,0,0,0,5.54-2.41,9.779,9.779,0,0,0,2.74-5.99c.02-.21.03-.42.04-.64a9.715,9.715,0,0,0-.05-1.22c-.41-3.87-3.19-6.82-6.84-6.88l-46.31-.74Z" transform="translate(-129.58 -391.37)" fill="#fdf8ef"/>
              <path id="Trazado_724442" data-name="Trazado 724442" d="M132.62,407.9l-.05,1.23,60.63.87a9.68,9.68,0,0,0-.06-1.22l-60.52-.89Z" transform="translate(-129.58 -391.37)" fill="#dddce0"/>
            </g>
          </g>
          <path id="Trazado_724443" data-name="Trazado 724443" d="M169.39,418.84l.35,9.16,12.6.14-.12-4.51L182.1,419Z" transform="translate(-34.83 -389.69)" fill="#38312f"/>
          <path id="Trazado_724444" data-name="Trazado 724444" d="M168.99,408.43l.05,1.23.35,9.18,12.71.16-.25-9.16-.04-1.22Z" transform="translate(-34.83 -389.69)" fill="#38312f"/>
          <path id="Trazado_724445" data-name="Trazado 724445" d="M186.14,426.15l-7.44-4.58L173.53,426,169,408.43l12.81.19Z" transform="translate(-34.83 -389.69)" fill="#cb4d12"/>
        </g>
      </g>
      <rect id="Rectángulo_348587" data-name="Rectángulo 348587" width="271.65" height="31.74" transform="translate(0 78.57)" fill="#f0c27a"/>
      <rect id="Rectángulo_348588" data-name="Rectángulo 348588" width="121.41" height="31.74" transform="translate(0 78.57)" fill="#ebaa43"/>
    </g>
    <g id="Grupo_1014556" data-name="Grupo 1014556" transform="translate(-4505.609 -8165.358)">
      <rect id="Rectángulo_348585" data-name="Rectángulo 348585" width="882.609" height="473.187" fill="#38312f"/>
      <rect id="Rectángulo_348586" data-name="Rectángulo 348586" width="882.609" height="448.721" fill="#3c6457"/>
    </g>
    <path id="Trazado_730782" data-name="Trazado 730782" d="M334,102.014c18.878-50.678-41.869-52.6-76.209-51.6-11.8.343-16.3-1.046-36.517,3.455C177.4,63.636,165.755,62,124.7,31,95.728,9.115,26.682-2.4,48.739,71.3c10.419,34.817,15.05,79.246-18.1,90.044s-43.452,65.644-10.468,84.514,75.471-5.841,111.776,24.5,58.286-35.353,121.337-21.1,88.256-12.29,95.187-53.524c4.47-26.591-25.147-65.053-14.467-93.722" transform="translate(-4874.609 -8078.418)" fill="#3c6457" opacity="0.19"/>
    <g id="Grupo_1014557" data-name="Grupo 1014557" transform="translate(-4855.232 -8012.758)">
      <g id="Grupo_1013391" data-name="Grupo 1013391">
        <g id="Grupo_1013381" data-name="Grupo 1013381" transform="translate(24.962)">
          <path id="Trazado_724372" data-name="Trazado 724372" d="M253.144,500c-2.04-10.2.34-35.71.78-41.89.47-6.65,1.75-13.25,2.46-19.88.71-6.58.96-13.16,2.02-19.71,1.22-7.49,2.82-14.94,4.59-22.36a2.137,2.137,0,0,1,2.1-1.49,2.934,2.934,0,0,1,2.69-1.6,357.667,357.667,0,0,1,96.06,6.34c8.89,1.82,17.58,4.04,26.16,6.58a2.84,2.84,0,0,1,.7.32,2.283,2.283,0,0,1,2.34,1.48c3.35,11.94,5.21,24.18,6.7,36.27,1.51,12.23,3.63,24.38,4.23,36.64.31,6.43.58,12.86.56,19.29h-151.4Z" transform="translate(-193.194 -110.814)" fill="#005554"/>
          <path id="Trazado_724373" data-name="Trazado 724373" d="M373.1,456.28c1.07-13.73,2.59-27.54,6.76-40.61a2.168,2.168,0,0,1,4.19,1.07c-2.11,13.39-5.04,26.6-6.57,40.1s-1.47,27.3-.88,40.95c.13,2.97-4.57,2.97-4.69,0a343.848,343.848,0,0,1,1.19-41.5Z" transform="translate(-292.111 -110.814)" fill="#24403a"/>
          <path id="Trazado_724374" data-name="Trazado 724374" d="M300.972,492.85c.16-2.08.33-4.16.48-6.24.3-4.05.49-8.09.52-12.16.01-1.7-.15-3.58.61-5.14.83-1.68,2.44-2.27,4.21-2.62,4.07-.8,8.08-1.71,12.28-1.33,1.4.13,2.16,1.93.84,2.69a35.834,35.834,0,0,1-10,3.47,15.527,15.527,0,0,1-2.42.59c-.02.14-.03.29-.05.42-.27,1.77-.51,3.54-.76,5.32-.49,3.52-.74,7.08-1.01,10.63l-.42,5.61c-.13,1.72-.16,3.67-1.09,5.14a1.651,1.651,0,0,1-2.96-.38c-.78-1.87-.38-4.09-.23-6.01Z" transform="translate(-157.662 -110.814)" fill="#24403a"/>
          <path id="Trazado_724375" data-name="Trazado 724375" d="M292.292,403.7a85.469,85.469,0,0,1-13.71-1.05h-.06c-.21-.07-.42-.13-.62-.2-.05-.02-.4-.13-.5-.17a39.935,39.935,0,0,1-7.48-3.54c-.07-.05-.6-.4-.7-.47-.28-.19-.56-.37-.84-.55-.63-.42-1.27-.84-1.9-1.26-1.24-.83-2.48-1.67-3.73-2.49a81.171,81.171,0,0,0-8.01-4.76c-1.33-.67-2.72-1.2-4.01-1.93l-.35-.2c-.01,0-.03-.02-.04-.02-.24-.18-.49-.36-.73-.55s-.45-.37-.66-.57c-.09-.08-.18-.17-.26-.25a1.1,1.1,0,0,1-.11-.14c-.05-.18-.08-.13,0,0v.02c-.02-.02-.04-.05-.06-.07-.1-.12-.2-.24-.29-.37a7.951,7.951,0,0,1-.48-.66c-.13-.19-.26-.38-.38-.58,0,0-.1-.2-.17-.31-.46-.93-.89-1.87-1.27-2.83-.88-2.23-1.68-4.49-2.65-6.68a29.109,29.109,0,0,0-6.06-8.41c-1.06-1.1-2.15-2.18-3.27-3.22-.56-.52-1.12-1.02-1.68-1.53-.16-.15-.32-.32-.49-.45-.03-.02-.02-.01-.04-.03-.18-.21-.37-.43-.54-.65-3.99-4.88-6.6-10.66-10.21-15.8-3.76-5.35-8.14-10.22-12.14-15.39a167.025,167.025,0,0,1-10.99-16.03c-.82-1.36-1.62-2.74-2.4-4.12-.06-.11-.54-.96-.22-.39.28.5,0,0-.05-.09l-.57-1.05c-.38-.7-.75-1.41-1.12-2.12-.89-1.71-1.73-3.43-2.56-5.17a94.016,94.016,0,0,1-.59-22.65c.84-8.65,3.15-17.21,7.6-24.49a44.121,44.121,0,0,1,3.7-5.17,1.128,1.128,0,0,1,.57-.38,1.088,1.088,0,0,1,.64-1.69c13.85-2.91,21.95-4.62,31.74,5.6,5.93,6.19,16.2,23.05,19.84,30.78,1.88,3.99,3.58,8.06,5.21,12.16.76,1.9,1.42,3.87,2.27,5.74a3.729,3.729,0,0,0,1.39,1.82,9.24,9.24,0,0,0,2.53.65c5.38,1.14,9.19,7.58,7.53,12.64a14.514,14.514,0,0,1,3.65,1.02,9.871,9.871,0,0,1,4.5,3.14,5.881,5.881,0,0,1,.97,2.29,13.138,13.138,0,0,1-.15,3.6c-.19,2.45,1.69,4.28,3.4,5.81a80.614,80.614,0,0,0,6.71,5.1q3.525,2.535,7.04,5.08c3.84,2.77,8.09,5.48,10.59,9.68,2.37,1.75,3.13,5.62,3.3,8.43.36,5.98.56,11.96.84,17.94.14,3.07.29,6.15.43,9.22.66,14.18-9.38,19.27-20.54,18.06-.6-.07-1.21-.17-1.81-.28Z" transform="translate(-40.942 -110.814)" fill="#e7a030"/>
          <path id="Trazado_724376" data-name="Trazado 724376" d="M259.676,425.32l56.41-5.46c9.34-.9,18.69-1.94,28.08-2.45a49.1,49.1,0,0,1,13.72.86,72.028,72.028,0,0,1,12.57,4.53c9.23,4.02,21.08-.3,29.45,5.37,1.25.85-8.64,21.87-12.08,26.29a133.921,133.921,0,0,1-11.29,12.63q-3.45,3.42-7.2,6.51a1.255,1.255,0,0,1-2.05-.56c-1.98-6.34-4.25-12.63-6.75-18.8-2.5-6.19-5.41-12.18-8.22-18.24-1.34-2.89-2.63-5.88-4.25-8.66-2.91,5.13-2.52,11.75-4.43,17.28a63.7,63.7,0,0,1-4.78,9.74,51.67,51.67,0,0,0-4.18,9.9c-1.19,3.87-2.4,7.69-4.82,10.95a1.531,1.531,0,0,1-1.85.24c-11.18-5.15-22.39-10.21-33.58-15.32-5.22-2.38-10.62-4.57-15.55-7.56a42.591,42.591,0,0,1-11.33-10.25,100.446,100.446,0,0,1-9.16-14.69,1.544,1.544,0,0,1,1.28-2.35Z" transform="translate(-194.506 -110.814)" fill="#fdf8ef"/>
          <path id="Trazado_724377" data-name="Trazado 724377" d="M262.243,263.31a61.412,61.412,0,0,1,15.2-20.08,62.817,62.817,0,0,1,9.77-7.31c3.61-2.04,8.27-2.26,12.42-3.09,3.92-.78,7.56-2.07,11.58-1.66a2.04,2.04,0,0,1,.08-.92,2.517,2.517,0,0,1,3.08-1.36c11.51,2.29,22.99,5.21,34.47,8.38,10.33,2.85,20.87,5.75,31.01,9.68,14.43,5.6,24.89,33.36,26.15,47.17a138.222,138.222,0,0,1,.41,13.96c-.06,5.08-.07,10.24-.64,15.31-2.99,26.39-4.72,21.16-6.51,45.34-.82,11.02,4.52,35,5.71,46.49,4.32,39.08-41.88,26.53-71.1,23.46a139.936,139.936,0,0,0-19.7-.72c-5.21.19-10.4.58-15.61.6-10.08.04-29.88-.43-37.48-8.04-10.53-10.55,4.87-27.32.76-71.6-.66-11.71-2.56-23.1-4.18-34.38-2.96-20.51-4.31-42.9,4.57-61.22Z" transform="translate(-198.183 -110.814)" fill="#e7a030"/>
          <path id="Trazado_724378" data-name="Trazado 724378" d="M262.456,424.42a15.948,15.948,0,0,0,8.35,6.9c4.45,1.58,9.28,1.68,13.95,1.97,10,.61,20.01.97,30.01,1.54s19.92,1.52,29.86,2.69c9.88,1.16,19.79,2.33,29.76,2.36a73.967,73.967,0,0,0,16.34-1.33,21.925,21.925,0,0,0,6.52-2.6,14.454,14.454,0,0,0,4.52-4.62.854.854,0,0,1,1.56.64c-.55,4.05-4.19,7.32-7.71,8.98-4.51,2.13-9.74,2.46-14.64,2.72-10.51.57-21.03-.43-31.46-1.62-10.59-1.21-21.15-2.43-31.79-3.08-10.49-.65-20.99-1-31.49-1.62-5.59-.33-11.57-.32-16.86-2.34-4.21-1.6-8.57-4.86-9.26-9.63a1.279,1.279,0,0,1,2.34-.95Z" transform="translate(-199.765 -110.814)" fill="#ebaa43"/>
          <path id="Trazado_724379" data-name="Trazado 724379" d="M358.362,350.57a60.273,60.273,0,0,1,7.72-21.97,57.148,57.148,0,0,1,16.86-18.16c-1.89-3.11-3.21-6.99-.75-9.95,1.23-1.49,3.22-1.98,5-2.6a8.069,8.069,0,0,0,4.08-2.9c2.19-3,2.89-6.84,3.94-10.35,1.16-3.91,2.46-7.78,3.96-11.56a69.328,69.328,0,0,1,12.24-20.82,50.621,50.621,0,0,1,20.64-13.66c9.5-3.49,19.58-4.86,29.68-6.08a1.388,1.388,0,0,1,1.38,1.3,1.065,1.065,0,0,1-.29.81c4.01,20.85-7.16,39.58-13.54,58.38-3.19,9.4-5.4,19.16-9.25,28.31a60.735,60.735,0,0,1-7.01,12.58c-2.85,3.87-6.21,7.33-9.29,11.03a48.809,48.809,0,0,0-4.64,6.43c-1.19,2.03-2.15,4.17-3.22,6.27-1.73,3.4-4.06,7.18-8.25,7.2a19.975,19.975,0,0,1-2.66,4.35,22.437,22.437,0,0,1-3.96,4.07,25.9,25.9,0,0,1-10.9,4.58,50.387,50.387,0,0,1-15.6-.06c-2.59-.35-5.16-.81-7.73-1.29-2.17-.4-4.69-.7-6.26-2.48-1.45-1.64-1.71-3.85-2.04-5.88a55.189,55.189,0,0,1-.65-6.01,59.4,59.4,0,0,1,.54-11.55Z" transform="translate(-357.742 -110.814)" fill="#e7a030"/>
          <g id="Grupo_1013380" data-name="Grupo 1013380" transform="translate(93.69)">
            <path id="Trazado_724380" data-name="Trazado 724380" d="M259.554,161.54c2.93-45.62,41.36-63.17,79.16-41.49a1.844,1.844,0,0,1,.28-.09,24.515,24.515,0,0,1,17.56,2.47,23.165,23.165,0,0,1,10.22,13.08c3.08,9.67.23,19.44-4.49,27.92a50.289,50.289,0,0,1-3.03,8.86l-77.66,35c-.85-12.81-22.74-34.69-22.03-45.76Zm104.18-23.41c-.68-4.94-3.03-9.8-7.44-12.66a17.463,17.463,0,0,0-5.96-2.4c8.47,4.16,12.38,12.8,13.33,22.24a24.974,24.974,0,0,0,.06-7.18Z" transform="translate(-257.624 -110.814)" fill="#38312f"/>
            <g id="Grupo_1013378" data-name="Grupo 1013378" transform="translate(7.771 61.826)">
              <path id="Trazado_724381" data-name="Trazado 724381" d="M342.567,271.19s12.3-13.1,12.44-18.17c.24-8.43-15.35-33.31-15.35-33.31l-53.07-1.93,30.64,28.84,25.32,24.57Z" transform="translate(-279.387 -172.64)" fill="#fdf8ef"/>
              <path id="Trazado_724382" data-name="Trazado 724382" d="M302.79,172.64l-5.13,62.81,42.54,30.64,8.06-92.3Z" transform="translate(-283.71 -172.64)" fill="#eeb990"/>
              <path id="Trazado_724383" data-name="Trazado 724383" d="M362.21,271.19c-12.15-32.13-55.97-53.41-55.97-53.41l-7.21,24.32s15.64,15.52,27.49,20.11c14.1,5.47,35.69,8.98,35.69,8.98Z" transform="translate(-299.03 -172.64)" fill="#fdf8ef"/>
            </g>
            <g id="Grupo_1013379" data-name="Grupo 1013379" transform="translate(0 16.489)">
              <path id="Trazado_724384" data-name="Trazado 724384" d="M339.975,217.3c-21.11,3.76-39.52-8.96-47.58-24.22-36.29,2.49-31.67-52.61.75-36.22a46.575,46.575,0,0,1,9.08-17.73,34.877,34.877,0,0,1,4.19-4.24c.01,0,.02-.02.04-.03,7.03-5.98,17.49-9.87,32.74-6.02a35.021,35.021,0,0,1,13.48,6.7,36.863,36.863,0,0,1,4.72,4.47c20.64,23.28,16.61,71.23-17.42,77.29Z" transform="translate(-266.965 -127.302)" fill="#eeb990"/>
              <path id="Trazado_724385" data-name="Trazado 724385" d="M305.374,209.9c3.75,2.38,7.29,4.96,11.52,6.44a35.132,35.132,0,0,0,6.39,1.59,39.941,39.941,0,0,0,6.62.6c1.06-.02,1.43,1.72.32,1.86a27.416,27.416,0,0,1-7.07.24,32.751,32.751,0,0,1-7.01-1.64c-4.49-1.59-9.1-3.96-12.04-7.8-.58-.76.47-1.8,1.27-1.3Z" transform="translate(-264.853 -127.302)" fill="#da893e"/>
              <path id="Trazado_724386" data-name="Trazado 724386" d="M346.957,172.27a14.947,14.947,0,0,1,3-1.69,8.764,8.764,0,0,1,3.53-.48,12.774,12.774,0,0,1,6.76,2.39,13.53,13.53,0,0,1,4.34,5.44,13.164,13.164,0,0,1,.97,3.34c.17,1.11.41,2.59-.45,3.42a1.157,1.157,0,0,1-1.81-.27c-.02,0-.03.01-.05.02a2.681,2.681,0,0,1-.43-1.46,8.411,8.411,0,0,0-2.97-3.72,5.916,5.916,0,0,0-2.92-1.16,3.076,3.076,0,0,0-2.35.99c-.5.44-1.58.2-1.54-.61a3.292,3.292,0,0,1,2.56-2.82,6.5,6.5,0,0,1,4.91.92c.05.03.09.06.14.09a9.909,9.909,0,0,0-7.04-3.88c-1.84-.18-4.28-.24-5.93.59a.673.673,0,0,1-.71-1.14Z" transform="translate(-342.417 -127.302)" fill="#da893e"/>
              <path id="Trazado_724387" data-name="Trazado 724387" d="M297.583,187.34a3.29,3.29,0,0,1,.16-.69,1.506,1.506,0,0,1,.96-.99,1.058,1.058,0,0,1,1.01.27,1.745,1.745,0,0,1,.49,1.03c-.03-.17-.02-.08.01.03s.05.2.08.3c.1.37.19.74.32,1.1l.01.02c.06.09.11.19.16.28l.18.27a.549.549,0,0,0,.07.09c.03.04.03.03.04.05.09.11.23.23.31.31s.17.14.25.22l.02.02c.01,0,0,0,.02.01a5.951,5.951,0,0,0,.55.31c.1.05.19.09.29.13-.28-.12.09.03.13.04.22.07.45.12.67.17.12.03.25.05.37.07a.5.5,0,0,1,.12.02c.45.04.9.05,1.35.05a6.229,6.229,0,0,0,1.33-.11,1.157,1.157,0,0,1,1.3.63,1,1,0,0,1-.4,1.32,8.1,8.1,0,0,1-3.63.81,6.714,6.714,0,0,1-3.52-1.11,6.525,6.525,0,0,1-2.35-2.83,3.65,3.65,0,0,1-.32-1.83Z" transform="translate(-235.443 -127.302)" fill="#da893e"/>
              <path id="Trazado_724388" data-name="Trazado 724388" d="M322.4,140.75a13.574,13.574,0,0,1,7.66-.11c9.06,2.71-3.76,8.74-7.6,9.38-2.39.4-10.61,1.01-9.05-3.03,1.12-2.88,5.84-5.31,8.98-6.25Z" transform="translate(-276.47 -127.302)" fill="#38312f"/>
              <path id="Trazado_724389" data-name="Trazado 724389" d="M282.141,141.46a6.986,6.986,0,0,1,4.37,2.68c3.65,5.16-6.78,4.79-9.28,3.86-1.56-.58-6.51-3.1-3.47-5.38,2.16-1.62,6.13-1.64,8.39-1.16Z" transform="translate(-190.091 -127.302)" fill="#38312f"/>
              <path id="Trazado_724390" data-name="Trazado 724390" d="M293.285,158.13a17.836,17.836,0,0,0-3.46-6.49,14.839,14.839,0,0,0-6.19-4.38,14.486,14.486,0,0,0-7.5-.69,17.169,17.169,0,0,0-6.72,2.73,21.239,21.239,0,0,0-8.18,11.15,22.258,22.258,0,0,0-.01,13.86,18.091,18.091,0,0,0,3.58,6.21,14.217,14.217,0,0,0,13.1,4.68,17.435,17.435,0,0,0,6.48-2.52,21.47,21.47,0,0,0,8.37-10.66,22.534,22.534,0,0,0,.54-13.87Zm-9.59,23.58a13.6,13.6,0,0,1-12.54,1.79,14.431,14.431,0,0,1-8.44-9.61,20.469,20.469,0,0,1,.52-12.72,20.129,20.129,0,0,1,7.65-9.82,13.551,13.551,0,0,1,11.92-1.67,13.254,13.254,0,0,1,5.15,3.52,16.064,16.064,0,0,1,3.2,5.5,20.236,20.236,0,0,1,.01,12.71,19.911,19.911,0,0,1-7.46,10.3Z" transform="translate(-184.285 -127.302)" fill="#fdf8ef"/>
              <path id="Trazado_724391" data-name="Trazado 724391" d="M337.368,158.2a19.835,19.835,0,0,0-4-6.79,15.22,15.22,0,0,0-6.93-4.39,14.494,14.494,0,0,0-8.18.07,17.719,17.719,0,0,0-6.85,3.87,24.588,24.588,0,0,0-7.38,13.12,26.425,26.425,0,0,0,1.14,15.11,18.983,18.983,0,0,0,4.31,6.57,14.952,14.952,0,0,0,6.89,3.9,14.5,14.5,0,0,0,7.69-.35,18.1,18.1,0,0,0,6.4-3.77,25.119,25.119,0,0,0,7.59-12.43,27.132,27.132,0,0,0-.67-14.92Zm-7.68,26.53a15.736,15.736,0,0,1-6.05,3.41,12.217,12.217,0,0,1-6.91.04,12.9,12.9,0,0,1-5.81-3.74,17.465,17.465,0,0,1-3.48-5.98,24.218,24.218,0,0,1,6.33-24.98,15.949,15.949,0,0,1,5.6-3.31,12.265,12.265,0,0,1,6.42-.33,12.594,12.594,0,0,1,5.78,3.26,16.693,16.693,0,0,1,3.79,5.77,20.245,20.245,0,0,1,1.48,6.83,27.866,27.866,0,0,1-.62,6.94,22.885,22.885,0,0,1-6.51,12.1Z" transform="translate(-272.237 -127.302)" fill="#fdf8ef"/>
              <path id="Trazado_724392" data-name="Trazado 724392" d="M323.81,167.93c-.07,3.12-1.7,5.55-3.64,5.43s-3.45-2.75-3.38-5.87,1.7-5.55,3.64-5.43S323.88,164.81,323.81,167.93Z" transform="translate(-270.62 -127.302)" fill="#38312f"/>
              <path id="Trazado_724393" data-name="Trazado 724393" d="M288.08,168.35c-.07,3.12-1.7,5.55-3.64,5.43s-3.45-2.75-3.38-5.87,1.7-5.55,3.64-5.43S288.15,165.23,288.08,168.35Z" transform="translate(-199.16 -127.302)" fill="#38312f"/>
              <path id="Trazado_724394" data-name="Trazado 724394" d="M293.049,166.08c-1.05-2.2-1.99-4.45-3.02-6.65a.917.917,0,1,1,1.58-.93,50.792,50.792,0,0,1,4.28,7.11c1.22,2.5,2.31,5.06,3.3,7.65.87,2.29,1.64,4.84.74,7.16-.86,2.22-2.95,3.23-5.1,3.85-1.31.38-2.33-1.73-1.04-2.32,1.51-.69,3.41-1.58,3.66-3.43.26-1.97-.84-4.16-1.57-5.97-.87-2.18-1.82-4.34-2.83-6.46Z" transform="translate(-220.268 -127.302)" fill="#da893e"/>
              <path id="Trazado_724395" data-name="Trazado 724395" d="M290.55,158.43a13.882,13.882,0,0,1,3.72-1.37,17.763,17.763,0,0,1,4-.43,15.577,15.577,0,0,1,4.06.55,12.8,12.8,0,0,1,3.75,1.68l-.45.93a26.921,26.921,0,0,0-3.63-.87,23.572,23.572,0,0,0-3.66-.3,32.416,32.416,0,0,0-3.68.2c-1.22.14-2.47.35-3.67.58l-.44-.97Z" transform="translate(-226.65 -127.302)" fill="#fdf8ef"/>
            </g>
            <path id="Trazado_724396" data-name="Trazado 724396" d="M290.391,148.94c6.71-8.58,14.13-16.82,23.97-22.05,8.65-4.6,19.21-6.64,29.06-3.97.76.12,1.52.26,2.27.43a32.244,32.244,0,0,1,7.8,2.99,1.992,1.992,0,0,1,.96,1.21,2.57,2.57,0,0,1,.09,4.01,48.272,48.272,0,0,1-24.7,9.72,62.458,62.458,0,0,1-13.72-.54,20.037,20.037,0,0,0-4.78-.1c-3.66,5.25-5.06,32.52-12.21,30.19-5.32-1.73-3.57-12.92-8.94-19.62a1.868,1.868,0,0,1,.22-2.28Z" transform="translate(-275.37 -110.814)" fill="#38312f"/>
          </g>
        </g>
        <g id="Grupo_1013387" data-name="Grupo 1013387" transform="translate(0 0.01)">
          <g id="Grupo_1013386" data-name="Grupo 1013386">
            <path id="Trazado_724397" data-name="Trazado 724397" d="M382.29,207.76l-.02,14.82s31.59-3.67,42.65-8.1c0,0,15.59,15.77,49.26,15.54l1.03-6.56,7.55.35.92-6.53-101.39-9.52Z" transform="translate(-377.318 -110.824)" fill="#fdf8ef"/>
            <path id="Trazado_724398" data-name="Trazado 724398" d="M488.632,125.37l-4.46,94.83a3.35,3.35,0,0,1-3.8,3.14l-48.1-5.59-11.61-1.34c-.08,0-.15-.02-.22-.02l-15.07-.81a3.684,3.684,0,0,0-.47,0l-3.35.26-24.84,1.92a3.684,3.684,0,0,1-3.96-3.72l3.17-90.2a3.3,3.3,0,0,1,2.27-3.02l29.49-9.81a3.065,3.065,0,0,1,.79-.15,2.18,2.18,0,0,1,.51-.02l10.39.53a1.553,1.553,0,0,1,.37.04l18.77,2.93,46.99,7.33a3.66,3.66,0,0,1,3.12,3.72Z" transform="translate(-372.75 -110.824)" fill="#d26634"/>
            <path id="Trazado_724399" data-name="Trazado 724399" d="M480.556,205.57c-.14,1.05-.44,1.75-1.55,2.01a20.672,20.672,0,0,1-2.95.36c-2.08.17-4.18.21-6.25.52-2.09.31-4.09,1.18-6.26.74a.846.846,0,0,1-.24-.08.935.935,0,0,1-1.04-.93,35.207,35.207,0,0,1,.15-3.85c.14-1.18.26-2.33.31-3.52.05-1.17.1-2.35.15-3.52a3.4,3.4,0,0,1,.83-2.69,5.923,5.923,0,0,1,2.45-.85c1.03-.24,2.07-.47,3.11-.68,2.08-.42,4.17-.81,6.29-1.06,1.5-.18,4.13-.91,4.79,1.08a14.044,14.044,0,0,1,.44,3.09c.09,1.01.13,2.02.14,3.03A44.829,44.829,0,0,1,480.556,205.57Z" transform="translate(-454.563 -110.824)" fill="#de8644"/>
            <path id="Trazado_724400" data-name="Trazado 724400" d="M459.83,114.32l-6.24,103.43-11.61-1.34c-.08,0-.15-.02-.22-.02l-15.07-.81a3.684,3.684,0,0,0-.47,0l-3.35.26c1.88-30.52,5.42-87,6.92-104.99a2.18,2.18,0,0,1,.51-.02l10.39.53a1.553,1.553,0,0,1,.37.04l18.77,2.93Z" transform="translate(-394.068 -110.824)" fill="#38312f"/>
            <path id="Trazado_724401" data-name="Trazado 724401" d="M445.469,113.4c-.38,12.9-1.02,25.78-1.81,38.65-.79,12.72-1.42,25.46-2.08,38.2-.38,7.24-.88,14.46-.71,21.73a1.008,1.008,0,0,0,2.01.1c.81-6.4,1.08-12.84,1.4-19.3l.99-19.32c.65-12.73,1.13-25.48,1.8-38.21q.57-10.86,1.37-21.69c.14-1.85-2.9-2.02-2.96-.15Z" transform="translate(-400.647 -110.824)" fill="#494341"/>
            <g id="Grupo_1013385" data-name="Grupo 1013385" transform="translate(15.704 77.704)">
              <g id="Grupo_1013383" data-name="Grupo 1013383" transform="translate(0)">
                <path id="Trazado_724402" data-name="Trazado 724402" d="M472.387,201.06c-1.16,1.62-3.69,2.05-5.62,2.02a16.681,16.681,0,0,1-10.66-4.5c-1.82,1.06-3.62,2.11-5.44,3.15,1.43-.38,3-.73,4.4.07,1.44.81,2.38,2.53,3.34,3.8,2.24,2.98,4.71,5.85,6.79,8.93s1.6,6.29.49,9.49a4.373,4.373,0,0,1-2.39,3.02,16.175,16.175,0,0,1-.23,5.52,9.435,9.435,0,0,1-3.27,4.18,2.446,2.446,0,0,1-2.83.45c-.21-.09-.44-.19-.65-.29.22,3.81.93,7.67,1,11.44a20.657,20.657,0,0,1-1.65,9.02,13.536,13.536,0,0,1-1.34,2.3c.01,1.06.09,2.13.18,3.19.23,2.57.51,5.13.77,7.69.54,5.34,1.02,10.68,1.53,16.02.11,1.16.23,2.33.33,3.49.34,3.52.67,7.03,1,10.55l.02.25c.19,1.96.6,4.19-1.5,5.21a21.069,21.069,0,0,1-6.37,1.42,49.868,49.868,0,0,1-7.12.44,47.709,47.709,0,0,1-6.3-.48c-2.03-.3-4.47-.52-6.35-1.46a.555.555,0,0,0-.08-.05,4.89,4.89,0,0,1-3.16-3.22c-.54-1.91.05-3.87.51-5.7q.93-3.615,1.63-7.28c.1-.52.2-1.04.28-1.56q1.17-6.51,1.79-13.1c.65-6.93,1.04-13.91,1.34-20.9-.57-3.93-1.25-7.85-2.16-11.72-.56-2.39-1.23-4.78-1.99-7.12-.75-2.31-1.75-4.51-2.6-6.78a10.478,10.478,0,0,1-.49-6.84c.32-1.12.78-2.2,1.06-3.36a15.554,15.554,0,0,0,.16-3.55c0-2.5,1.11-4.66,2.07-6.89.98-2.32,2.02-4.62,3.05-6.93a1.369,1.369,0,0,1,.63-.99,92.638,92.638,0,0,1,14-7.76c2.18-.99,4.36-2.06,6.6-2.91,1.93-.74,4.09-1.2,6.12-.28a24.218,24.218,0,0,1,5.11,3.76,30.217,30.217,0,0,0,5.75,3.88c1.01.51,2.15.89,2.62,2.02a2.372,2.372,0,0,1-.34,2.34Z" transform="translate(-425.218 -188.528)" fill="#eeb990"/>
                <path id="Trazado_724403" data-name="Trazado 724403" d="M461.1,224.12c-1.08-1.11-2.2-2.19-3.34-3.24s-2.31-2.08-3.5-3.08c-1.01-.86-1.98-2.17-3.43-1.72a17.014,17.014,0,0,0-3.77,2.11q-2.025,1.29-3.96,2.68a82.216,82.216,0,0,0-7.12,5.9c-.64.58.27,1.46.95.99,4.52-3.15,9.31-5.97,14.01-8.85.65-.39.82-.68,1.5-.17.58.44,1.14.9,1.69,1.36,1.04.86,2.04,1.77,3.02,2.71s1.93,1.88,2.86,2.86a8.032,8.032,0,0,0,2.89,2.32.427.427,0,0,0,.55-.51,7.612,7.612,0,0,0-2.35-3.37Z" transform="translate(-426.288 -188.528)" fill="#da893e"/>
                <g id="Grupo_1013382" data-name="Grupo 1013382" transform="translate(16.932 35.557)">
                  <path id="Trazado_724404" data-name="Trazado 724404" d="M455.733,230.88a.832.832,0,0,0-1.12-.06c-.22.19-.45.37-.68.57-.1-.13-.19-.25-.29-.38a13.7,13.7,0,0,0-.95-1.07c-.32-.34-.65-.67-.98-.99a5.293,5.293,0,0,0-.64-.53,5.862,5.862,0,0,0,.01-3.77c-.19-.8-1.58-.74-1.48.11a4.241,4.241,0,0,1-.61,3.1,14.284,14.284,0,0,1-2.15,2.38,28.071,28.071,0,0,1-2.76,2.35c-.5.37-.99.75-1.49,1.13a3.029,3.029,0,0,0-1.26,1.5.8.8,0,0,0,.67,1,5.58,5.58,0,0,0,1.47,1.9c.65.72,1.27,1.46,1.85,2.22a28.337,28.337,0,0,1,3.14,5.23,37.138,37.138,0,0,1,1.98,5.59,25.9,25.9,0,0,1,1.14,6.07.331.331,0,0,0,.66.03,28.907,28.907,0,0,0,.09-6.24,22.964,22.964,0,0,0-1.73-6.14,29.353,29.353,0,0,0-3.1-5.62,27.1,27.1,0,0,0-2-2.53,10.571,10.571,0,0,0-1.4-1.44c.02-.02.05-.04.07-.06.53-.45,1.04-.9,1.54-1.38.97-.93,2.01-1.79,3.04-2.66.41-.35.82-.72,1.2-1.11v.01c.08.09.18.17.26.25.33.32.66.66.98.99.47.5.95,1.01,1.41,1.52a3.814,3.814,0,0,0-.34.58,3.294,3.294,0,0,0-.25,2.03,2.213,2.213,0,0,0,1.46,1.58.73.73,0,0,0,.94-.86.835.835,0,0,1-.04-.15v-.01c0-.03-.01-.09-.01-.1a.591.591,0,0,0-.02-.14c0-.09-.09-.7-.11-.81v-.07c0-.02,0-.05-.01-.06v-.29c0-.11.02-.21.03-.32h0c0-.03.02-.11.02-.12a2.286,2.286,0,0,1,.08-.28s.02-.06.04-.11a.293.293,0,0,1,.04-.08,3.6,3.6,0,0,1,.39-.62,2.559,2.559,0,0,1,.2-.26c.01-.01.05-.06.07-.08a1.2,1.2,0,0,0,.11-.12c.18-.19.37-.38.56-.56a.775.775,0,0,0,.01-1.1Z" transform="translate(-441.296 -224.085)" fill="#da893e"/>
                  <path id="Trazado_724405" data-name="Trazado 724405" d="M443.11,234.9v.05a.51.51,0,0,0-.01-.09h0v.03Z" transform="translate(-430.213 -224.085)" fill="#da893e"/>
                </g>
                <path id="Trazado_724406" data-name="Trazado 724406" d="M462.538,221.36a20.532,20.532,0,0,0-3.37-5.38,36.278,36.278,0,0,0-4.75-4.52c-1.61-1.33-3.28-3.18-5.29-3.88a.534.534,0,0,0-.21-.03h-.12a7.547,7.547,0,0,0-3.65,1.21q-1.845.96-3.63,2.01a46.974,46.974,0,0,0-6.65,4.67c-.58.5.17,1.56.84,1.14,2.28-1.4,4.54-2.82,6.88-4.12,1.14-.63,2.3-1.24,3.47-1.81a13.353,13.353,0,0,0,2.7-1.5,32.935,32.935,0,0,1,4.67,3.02,29.275,29.275,0,0,1,4.09,4.24,21.916,21.916,0,0,1,2.92,4.81,15.721,15.721,0,0,1,.86,2.56,6.548,6.548,0,0,1,.29,2.9c-.28,1.2,1.57,1.79,1.91.59.55-1.91-.2-4.08-.95-5.89Z" transform="translate(-425.419 -188.528)" fill="#da893e"/>
                <path id="Trazado_724407" data-name="Trazado 724407" d="M461.688,201.11c-2.44.57-4.85,1.21-7.29,1.77-1.2.28-2.39.58-3.57.93a10.339,10.339,0,0,0-3.33,1.4c-.42.31-.07.98.41,1.01a10.3,10.3,0,0,0,3.65-.66c1.16-.36,2.31-.72,3.46-1.13,2.34-.83,4.7-1.58,7.04-2.4.53-.19.17-1.05-.37-.92Z" transform="translate(-436.699 -188.528)" fill="#da893e"/>
              </g>
              <g id="Grupo_1013384" data-name="Grupo 1013384" transform="translate(5.439 69.791)">
                <path id="Trazado_724408" data-name="Trazado 724408" d="M467.48,267.61c.03,1.73-1.36,2.61-2.83,3.23-3.17,1.34-6.81,1.01-10.22.94-3.59-.07-7.34-.48-10.46-2.55a5.934,5.934,0,0,1-1.67-1.44,4.352,4.352,0,0,1-.45-2.54,38.917,38.917,0,0,1,.1-6.3.765.765,0,0,1,.87-.59.873.873,0,0,1,.74.1,22.452,22.452,0,0,0,10.63,3.14c3.92.18,7.71-.84,11.56-1.2a.9.9,0,0,1,1.05.85c.16,2.12.66,4.23.69,6.35Z" transform="translate(-441.77 -258.319)" fill="#38312f"/>
                <path id="Trazado_724409" data-name="Trazado 724409" d="M455.6,270.89c-.73-.06-1.46-.12-2.18-.17-.33-.03-.66-.05-.99-.08-.22-.02-.47-.01-.71-.04-.03-.15-.07-.31-.11-.46-.06-.25-.11-.51-.16-.76a16.17,16.17,0,0,1-.24-1.7v-.14a.412.412,0,0,0,.11-.07c.11,0,.35.02.37.02.35.04.69.07,1.04.11s.69.07,1.04.11a2.844,2.844,0,0,0,1.39-.08.855.855,0,0,0,.02-1.49,3.241,3.241,0,0,0-1.47-.31l-1.2-.1a8.848,8.848,0,0,0-1.37-.08c0-.45,0-.91.01-1.36a6.49,6.49,0,0,1,.06-1.32c.09-.41.32-.29.72-.3a12.6,12.6,0,0,0,3.28-.68.517.517,0,0,0-.26-1,6.841,6.841,0,0,1-2.63.13,2.586,2.586,0,0,0-2.35.41,2.858,2.858,0,0,0-.59,2.09c0,.91,0,1.81.04,2.72s.09,1.81.19,2.71a6.647,6.647,0,0,0,.6,2.63c.53.87,1.75.68,2.61.7l2.78.06a.765.765,0,0,0,.02-1.53Z" transform="translate(-438.246 -258.319)" fill="#605f69"/>
              </g>
            </g>
            <path id="Trazado_724410" data-name="Trazado 724410" d="M381.1,157.33c.38-6.09.79-14.84.98-18.97a2.231,2.231,0,0,1,2.49-2.1c11.3,1.11,22.27,2.53,33.49,4.47a2.453,2.453,0,0,1,2.05,2.48c-.32,6.16-1.02,12.64-1.84,18.74a2.235,2.235,0,0,1-2.53,1.89l-32.49-3.97a2.434,2.434,0,0,1-2.16-2.52Z" transform="translate(-312.57 -110.824)" fill="#de8644"/>
          </g>
          <path id="Trazado_724411" data-name="Trazado 724411" d="M430.686,339.05a18.568,18.568,0,0,1,.92-4.49c.22-.73.51-1.43.76-2.16a13.538,13.538,0,0,0,.5-2.7c.41-3.28.67-6.59,1.07-9.87.41-3.37.93-6.71,1.5-10.05.28-1.64.56-3.28.85-4.92a23.177,23.177,0,0,1,.88-4.4c1.32-3.36,5.16-2.15,8-1.62q10.44,1.95,20.87,3.89,2.6.48,5.17,1a1.383,1.383,0,0,1,.77.45,1.056,1.056,0,0,1,.98.89,45.829,45.829,0,0,0,2.53,8.68,80.4,80.4,0,0,0,4.14,8.18c1.26,2.38,2.45,4.65,1.77,7.33a5.058,5.058,0,0,1-2.59,3.35c.19.32.37.65.56,1.03.5.97,1.21,1.77,1.63,2.8a18.037,18.037,0,0,1,.95,3.03,6.324,6.324,0,0,1-.4,3.22,10.137,10.137,0,0,1-1.8,2.9,2.247,2.247,0,0,0-.7,1.51,8.01,8.01,0,0,0,.89,2.32,39.581,39.581,0,0,1,2.76,9.34,13.811,13.811,0,0,1,.39,4.33,4.928,4.928,0,0,1-1.92,3.07,58.724,58.724,0,0,1-7.46,5.23,38.291,38.291,0,0,1-8.61,3.92c-2.95.87-6.17,1.44-9.26.49a16.817,16.817,0,0,1-7-4.96c-2.19-2.37-4.3-4.8-6.42-7.23a83.5,83.5,0,0,1-6.06-7.37,34.909,34.909,0,0,1-4.31-8.28,23.414,23.414,0,0,1-1.36-8.9Z" transform="translate(-425.183 -110.824)" fill="#e7a030"/>
          <path id="Trazado_724412" data-name="Trazado 724412" d="M442.177,291.11c1.29-2.22,3.5-5.45,6.68-4.35,0,0-.37,2.26-.46,2.82a2.76,2.76,0,0,0,.67,2.22,5.762,5.762,0,0,0,2.92,2.14,35.794,35.794,0,0,0,8.56,1.64c4.88.48,15.26,1.92,15.57-4.87,3.57,1.23,3.55,6.09,3.83,7.13a30.624,30.624,0,0,1,1.34,6.51c.1,2.22-.66,4.31-.65,6.51a45.4,45.4,0,0,0,1.02,6.73.938.938,0,0,1-.4.88c-1.45.97-2.72,2.16-4.2,3.1a14.757,14.757,0,0,1-4.53,1.96,29.982,29.982,0,0,1-10.05.2,61.036,61.036,0,0,1-11.24-2.27,3.425,3.425,0,0,1-2.55-3.26c-.18-1.88-.3-3.77-.4-5.65-.12-2.19-.19-4.38-.19-6.57a30.4,30.4,0,0,0-.17-3.93,24.856,24.856,0,0,0-2.77,7.18,26.025,26.025,0,0,0-.45,9.48.973.973,0,0,1-1.4.95,32.377,32.377,0,0,1-4.15-1.91c-.65-.35-1.28-.71-1.91-1.09-.51-.31-1.32-.65-1.61-1.18a4.934,4.934,0,0,1-.23-1.99c-.03-.75-.01-1.51,0-2.26a28.634,28.634,0,0,1,.34-4.24c.89-5.66,3.62-11,6.45-15.88Z" transform="translate(-428.425 -110.824)" fill="#fdf8ef"/>
        </g>
        <g id="Grupo_1013390" data-name="Grupo 1013390" transform="translate(251.896 99.682)">
          <path id="Trazado_724413" data-name="Trazado 724413" d="M163.712,373.97q5.25-24.81,10.5-49.63c.83-3.93,1.62-7.88,2.51-11.79a33.771,33.771,0,0,1,3.53-9.89c1.83-3.07,4.49-5.35,7.11-7.74a66.069,66.069,0,0,0,6.67-7.61,29.1,29.1,0,0,1,3.38-3.64,19.465,19.465,0,0,1,4.63-2.75,24.24,24.24,0,0,1,9.82-2.28,49.181,49.181,0,0,1,10.93,1.07c1.71.33,3.56.46,4.68,1.94a39.066,39.066,0,0,1,3.1,4.95,46.888,46.888,0,0,1,6,19.96c.35,6.84.27,13.71-1.51,20.29-1.05,3.91-2.66,7.78-3.11,11.84-.45,3.99,1.79,7.91,2.37,11.84.49,3.3.72,6.62-1.16,9.48a7.347,7.347,0,0,1-3.47,2.9,15.843,15.843,0,0,1,.03,8.69,16.237,16.237,0,0,1-2.83,5.34c-.58.79-1.05,1.67-1.66,2.45a29.163,29.163,0,0,0-2.42,2.91,37.218,37.218,0,0,0-2.98,6.36c-.78,2.18-1.27,4.49-2.46,6.49-2.21,3.71-6.61,6.17-10.78,7.3-5.74,1.56-11.62.98-17.5.16a1.67,1.67,0,0,1-2.05.06,43.032,43.032,0,0,1-7.27-5.83,51.759,51.759,0,0,1-5.89-7.34,53.024,53.024,0,0,1-4.36-8.04,41.8,41.8,0,0,1-1.62-4.23c-1.87.78-4.73-.67-4.19-3.25Z" transform="translate(-163.645 -210.496)" fill="#e7a030"/>
          <g id="Grupo_1013389" data-name="Grupo 1013389" transform="translate(18.311)">
            <g id="Grupo_1013388" data-name="Grupo 1013388" transform="translate(21.946)">
              <path id="Trazado_724414" data-name="Trazado 724414" d="M139.413,285.97l-.72.03c.82-.03,0,0-.14,0-1.05,0-2.1-.02-3.14-.08a37.324,37.324,0,0,1-5.66-.74c-.33-.07-.66-.14-.98-.22a.293.293,0,0,1-.09-.02c-.4-.09-.8-.22-1.19-.34-.88-.26-1.76-.54-2.64-.85-.95-.33-1.89-.7-2.81-1.1-.38-.17-.76-.34-1.14-.52-.24-.11-1.24-.44-1.34-.67.5.27.57.31.21.11l-.33-.18c-.18-.1-.36-.2-.54-.31q-.645-.375-1.26-.78c-.76-.49-1.49-1-2.21-1.54-.39-.29-.76-.6-1.14-.91-.17-.14-.34-.29-.5-.43h0c-.63-.61-1.24-1.21-1.82-1.87s-1.11-1.34-1.63-2.05c5.56-9.08,19.28-31.37,21.9-34.71,4.51-5.76,12.86-7.48,20.29-8.54,3.8-.54,7.71-.6,11.38-1.62,5.39-1.5,9.9-4.96,14.95-7.26s11.49-3.29,16.2,0a2.9,2.9,0,0,1,1.41,1.9c.11,1.21-1.15,2-2.24,2.52-6.28,2.98-12.57,5.96-19.06,8.49a68.671,68.671,0,0,1,18.27,4.91c.45.19.97.5.95.97-.01.42-.46.66-.84.82-14.29,5.97-22.66,12.56-37.31,17.71-1.1.39-9.72,16.56-15.27,27.15-.52.05-1.05.09-1.57.12Z" transform="translate(-110.343 -210.496)" fill="#eeb990"/>
              <path id="Trazado_724415" data-name="Trazado 724415" d="M173.964,230.56a1.589,1.589,0,0,0-.48-1.15,6.737,6.737,0,0,0-5.38-2.1,11.97,11.97,0,0,0-5.47,1.85c1.25-3.42,2.87-6.9,4.12-10.32a1.4,1.4,0,0,0,.12-.85,1.249,1.249,0,0,0-.37-.52c-1.74-1.67-4.67-1.4-6.56-.05s-2.96,3.5-3.97,5.57a48.091,48.091,0,0,1-5.68,9.68c.05-4.13-.15-8-.1-12.13.01-1,.02-1.99.04-2.99.02-1.77.04-3.55.06-5.32a1.781,1.781,0,0,0-.28-1.2,1.713,1.713,0,0,0-1.13-.48,7.107,7.107,0,0,0-5.87,1.98,6.8,6.8,0,0,0-1.82,5.83c-2.08.57-3.9,2.81-4.55,4.83a11.219,11.219,0,0,0,.06,6.34,8.994,8.994,0,0,1,.36,1.68c-.36,1.3-1.71,2.38-2.63,3.22q-1.965,1.8-4.11,3.41c-1.38,1.04-2.83,2-4.29,2.93-.16.1-.32.19-.48.29-5.23,1.47-10.86.95-16.3,1.02a38.039,38.039,0,0,0-14.56,3.06,57.425,57.425,0,0,0-12.04,3.12,26.312,26.312,0,0,0-3.05,1.41c1.69,3.14,3.12,6.4,4.65,9.62.43.89.87,1.79,1.31,2.68a4.681,4.681,0,0,1,.5,1.91c.24.51.45,1.03.65,1.55,13.79-1.19,37.48-7.5,46.41-10.41,5.23-1.71,9.91-2.46,15.24-3.89,2.19-.58,4.46-1.22,6.09-2.73,1.55-1.44,2.31-3.51,3.02-5.5,5.15-3.76,10.55-7.48,15.67-11.27a1.671,1.671,0,0,0,.82-1.05Z" transform="translate(-57.094 -210.496)" fill="#eeb990"/>
              <path id="Trazado_724416" data-name="Trazado 724416" d="M116.076,217.95a1.839,1.839,0,0,0-2.83,0c-.26.35.21.82.54.49s.84-.08,1.2.11a1.5,1.5,0,0,1,.75,1.34,24.383,24.383,0,0,1-.44,3.9c-.23,2.62-.13,5.26-.1,7.89a36.56,36.56,0,0,1-.43,7.25,15.707,15.707,0,0,1-1.96,5.57,9.939,9.939,0,0,1-4.78,4.01.663.663,0,0,0,.41,1.26,9.805,9.805,0,0,0,5.22-3.98,17.2,17.2,0,0,0,2.63-6.14c1.18-5.79-.45-11.84.39-17.67.19-1.33.51-2.94-.6-4.04Z" transform="translate(-27.986 -210.496)" fill="#da893e"/>
              <path id="Trazado_724417" data-name="Trazado 724417" d="M119.149,232.69c-1.12,3.36.06,7.2-1.46,10.44-1.61,3.42-5.14,5.08-8.59,6.31a29.788,29.788,0,0,0-5.89,2.5.568.568,0,0,0,.48,1.01c3.74-1.27,7.66-2.33,11.09-4.25a8.861,8.861,0,0,0,3.99-4.06,15.238,15.238,0,0,0,.86-5.26,27.23,27.23,0,0,1,.86-6.37c.25-.82-1.07-1.11-1.33-.32Z" transform="translate(-27.009 -210.496)" fill="#da893e"/>
              <path id="Trazado_724418" data-name="Trazado 724418" d="M95.711,229.72c-.9,1.95-1.7,3.94-2.73,5.82-.5.91-.98,1.82-1.45,2.74a8.518,8.518,0,0,0-1.17,3.02.485.485,0,0,0,.81.43,8.481,8.481,0,0,0,1.64-2.78c.43-.94.84-1.89,1.25-2.85.84-1.98,1.91-3.83,2.87-5.75.38-.76-.86-1.41-1.22-.64Z" transform="translate(9.119 -210.496)" fill="#da893e"/>
              <path id="Trazado_724419" data-name="Trazado 724419" d="M170.38,238.01a16.382,16.382,0,0,1-2,1.61,8.115,8.115,0,0,1-2.32,1.29,12.59,12.59,0,0,1-2.61.15q-1.335.135-2.67.21c-.46.02-.92.04-1.38.05a.143.143,0,0,0-.02-.03,13.84,13.84,0,0,1-2.32-.06c.03.03.05.06.08.09-3.03-.05-6.06-.27-9.08-.14a32.457,32.457,0,0,0-18.78,6.69,29.515,29.515,0,0,0-4.05,3.85,19.45,19.45,0,0,0-2.97,4.82c-.25.56.58,1.25.99.7.97-1.33,2.1-2.55,3.16-3.81a31.492,31.492,0,0,1,3.46-3.47,34.128,34.128,0,0,1,8.38-5.21,27.984,27.984,0,0,1,9.77-2.39c3.61-.19,7.21.49,10.82.68h0a.645.645,0,0,0,.63.02c.4.01.8.03,1.2.02a15.717,15.717,0,0,0,2.99-.31,22.3,22.3,0,0,0,2.73-1.11,27.8,27.8,0,0,0,2.71-.91,8.652,8.652,0,0,0,2.38-1.73c.67-.65-.45-1.69-1.12-1.03Z" transform="translate(-97.42 -210.496)" fill="#da893e"/>
            </g>
            <path id="Trazado_724420" data-name="Trazado 724420" d="M158.093,288.33a11.113,11.113,0,0,1,1.35-2.98,26.634,26.634,0,0,1,1.8-2.8,31.677,31.677,0,0,1,4.51-5.03c1.73-1.54,3.59-2.93,5.39-4.38.98-.79,1.95-1.59,2.88-2.45a26.536,26.536,0,0,1,2.68-2.4,4.77,4.77,0,0,1,5.98.12.673.673,0,0,1,.14.79,20.855,20.855,0,0,1-1.57,3.09c.79,1.97,3.04,3.59,4.65,4.81a31.759,31.759,0,0,0,6.61,3.82,42.37,42.37,0,0,0,14.73,3.45c.72.04,1.46.1,2.18.07a2.6,2.6,0,0,0,1.82-1.08,12.354,12.354,0,0,0,2.61-4.21,1.564,1.564,0,0,1,1.83-.08c2.25,1.96,2.84,4.96,2.73,7.74a22.3,22.3,0,0,1-1.37,6.39v.01c-.37,2.86-.44,5.85-.57,8.74-.13,2.82-.17,5.65-.23,8.48a25.02,25.02,0,0,1-.12,3.97c-.27,1.37-1.73,1.75-2.9,2.14a26.9,26.9,0,0,1-3.98.98,13.11,13.11,0,0,1-4.19.26,11.424,11.424,0,0,1-4.12-1.96c-1.47-.9-2.93-1.82-4.4-2.73a1.222,1.222,0,0,1-.52-1.59,40.107,40.107,0,0,0,3.03-8.62,31.546,31.546,0,0,0,.99-6.01,63.64,63.64,0,0,1-4.42,6.79,30.019,30.019,0,0,0-2.73,4.64c-.63,1.39-.85,3.79-2.57,4.31a6.549,6.549,0,0,1-3.15-.31c-1.15-.27-2.27-.6-3.39-.98-2.16-.75-4.31-1.53-6.4-2.46a32.121,32.121,0,0,1-5.77-3.12,26.409,26.409,0,0,1-4.58-4.63,60.487,60.487,0,0,1-4.42-5.81c-.18-.27-.35-.55-.52-.83-.14-.16-.27-.32-.41-.48-.74-.9-1.47-1.8-2.19-2.72-.69-.89-1.62-1.76-1.39-2.96Z" transform="translate(-158.057 -210.496)" fill="#fdf8ef"/>
          </g>
        </g>
      </g>
      <path id="Trazado_724421" data-name="Trazado 724421" d="M261.336,352.16c.1-7.05.62-14.07,1.16-21.08,1-13.12,1.93-26.29.52-39.5a87.713,87.713,0,0,0-4.8-21.5c-.34-.9.84-1.62,1.3-.78,13.29,24.12,6.89,53.43,5.97,79.67-.14,3.88-.03,7.75-.02,11.63q0,2.985.09,5.99a53.666,53.666,0,0,1-.33,5.95c-.07.81-1,.77-1.27.12a25.664,25.664,0,0,1-1.57-4.62c-.35-1.76-.58-3.56-.76-5.35a92.694,92.694,0,0,1-.29-10.54Z" transform="translate(-37.353 -110.814)" fill="#c57f13"/>
      <path id="Trazado_724422" data-name="Trazado 724422" d="M365.214,328.59a4.159,4.159,0,0,1,2.25.76,15.338,15.338,0,0,1,1.68,1.54,33.088,33.088,0,0,1,3.1,3.69,32.218,32.218,0,0,1,4.24,8.3c.94,2.65,1.65,5.41,2.48,8.11.14-2.18.36-4.34.43-6.36a39.593,39.593,0,0,0-3.31-17.87,40.246,40.246,0,0,0-5.17-8.49c-1.07-1.34-2.25-2.59-3.27-3.96a14.171,14.171,0,0,1-2.24-4.48,1.408,1.408,0,0,1,1.71-1.71,30.638,30.638,0,0,1,16.44,13.9c4.13,7.51,4.11,15.87,2.58,24.1-.9,4.86-1.98,9.68-2.81,14.55a1.233,1.233,0,0,1-.13.94.076.076,0,0,1,.04.02c.46.07,1.11-1,1.36-1.29a56.85,56.85,0,0,0,4.93-6.62q3.315-5.1,6.8-10.06a49.4,49.4,0,0,1,4.39-8.24c1.79-2.97,3.6-5.93,5.38-8.91a168.894,168.894,0,0,0,9.77-18.42c2.74-6.27,5.08-12.63,5.75-19.48a57.962,57.962,0,0,0-1.5-19.98,67.509,67.509,0,0,0-9.26-20.52c-1.22-1.84,1.71-3.45,2.96-1.68,8.04,11.38,11.41,25.8,10.7,39.63a74.881,74.881,0,0,1-2.85,16.78c1.55-2.72,3.05-5.48,4.44-8.28,1.49-2.99,3.08-6.15,3.26-9.55.18-3.49-1.6-6.78-2.98-9.89a1.553,1.553,0,0,1,2.7-1.53,17,17,0,0,1,3.55,10.52c-.15,3.84-1.71,7.42-3.42,10.81-1.84,3.64-3.83,7.22-5.97,10.7a29.535,29.535,0,0,1-4.86,6.32,133.618,133.618,0,0,1-7.09,13.71c-1.94,3.34-3.94,6.64-5.94,9.94,3.55,12.15,2.42,24.93.76,37.33-.9,6.78-1.85,13.55-2.57,20.35-.65,6.1-1.43,12.24-1.56,18.38a54.744,54.744,0,0,0,.58,9.57,38.094,38.094,0,0,0,3.03,9.4c.55,1.27-1.03,2.83-2.1,1.6-3.82-4.35-5.28-10.66-5.53-16.31a90.67,90.67,0,0,1,1.52-18.08c1.1-7.01,2.15-14.02,2.99-21.06.8-6.62,1.57-13.27,1.72-19.94a77.087,77.087,0,0,0-1.32-17.03,52.454,52.454,0,0,1-3,4.59c-2.14,3.69-4.32,7.35-6.6,10.96-1.94,3.07-8.28,14.07-12.26,7.78-.06-.09-.1-.19-.16-.28a1.431,1.431,0,0,1-.95-1.45c0-.14.03-.28.04-.43-.08-.21-.15-.42-.22-.64-2.93-4.59-4.21-9.87-5.95-15.04a33.591,33.591,0,0,0-3.92-8.17,26.653,26.653,0,0,0-2.85-3.51c-.53-.55-1.1-1.05-1.64-1.59a5.231,5.231,0,0,1-1.19-2.08.948.948,0,0,1,1.05-1.36Zm10.95-11.73a25.566,25.566,0,0,0-6.18-4.53c.91,1.2,1.94,2.34,2.8,3.46a40.73,40.73,0,0,1,4.38,7.13,46.5,46.5,0,0,1,4.37,15.49c.49,4.86-.29,9.71-.33,14.56,1.21-5.66,2.79-11.26,2.83-17.09a26.412,26.412,0,0,0-7.86-19.01Z" transform="translate(-308.092 -110.814)" fill="#c57f13"/>
      <path id="Trazado_724423" data-name="Trazado 724423" d="M407.346,297.27c4.61,0,8.69,2.3,11.97,5.41a39.311,39.311,0,0,1,4.54,5.27c1.42,1.92,2.54,4,3.83,6.01.72,1.12-1,2.01-1.76,1-1.3-1.72-2.76-3.34-4.16-4.98a38.763,38.763,0,0,0-4.52-4.54,26.453,26.453,0,0,0-10.26-5.29,1.47,1.47,0,0,1,.37-2.88Z" transform="translate(-345.153 -110.814)" fill="#ebaa43"/>
      <path id="Trazado_724424" data-name="Trazado 724424" d="M207.077,362.85a33.291,33.291,0,0,1,2.1-8.88,21.237,21.237,0,0,1,2.97-8.51c1.36-2.21,3.78-3.39,5.66-5.08a10.384,10.384,0,0,0,3.06-5.55c1.17-5.04.73-10.32,3.15-15.03.37-.72,1.64-.24,1.34.55-1.65,4.29-.75,9.03-1.07,13.51a15.612,15.612,0,0,1-1.7,6.5c-1.23,2.21-3.28,3.56-5.33,4.91a.737.737,0,0,1-.44.58c-4.15,1.91-2.18,7.27-.44,10.14a37.027,37.027,0,0,0,7.22,8.52,47.443,47.443,0,0,0,9.07,6.24c1.64.88,3.33,1.67,5.05,2.39,1.66.69,3.74,1.21,5.03,2.52a1.265,1.265,0,0,1-.57,2.1,9.314,9.314,0,0,1-4.91-.88,50.294,50.294,0,0,1-4.63-2.03,48.48,48.48,0,0,1-8.78-5.58,42.463,42.463,0,0,1-7.01-7.17c-1.99-2.61-4.1-5.67-4.85-8.94-.07.43-.13.87-.21,1.3a15.969,15.969,0,0,0,.13,2.94c.76,5.38,3.63,10.23,6.31,14.84a72.2,72.2,0,0,1,4.37,8.42c1.17,2.82,2.3,6,2.04,9.1a1.558,1.558,0,0,1-2.89.76c-2.18-2.98-4.88-5.57-7.14-8.5a47.532,47.532,0,0,1-5.74-8.87,19.7,19.7,0,0,1-1.79-10.28Zm4.82,9.59a47.949,47.949,0,0,0,4.97,8.16c1.1,1.52,2.25,3.09,3.52,4.54a24.668,24.668,0,0,0-1.08-3.13,82.124,82.124,0,0,0-3.96-7.62,60.136,60.136,0,0,1-5.15-10.77,19.626,19.626,0,0,0,1.7,8.82Z" transform="translate(38.556 -110.814)" fill="#c57f13"/>
      <path id="Trazado_724425" data-name="Trazado 724425" d="M175.294,359.51a26.126,26.126,0,0,1,4.35,1.53,40.584,40.584,0,0,0,4.47,1.39,71.389,71.389,0,0,0,9.14,1.82,65.593,65.593,0,0,0,9.4.22,43.135,43.135,0,0,0,9.34-1.12c1.46-.38,1.96,1.74.59,2.24a46.4,46.4,0,0,1-9.65,2.68,39.325,39.325,0,0,1-10.11,0,36.726,36.726,0,0,1-9.7-2.32c-2.89-1.18-6.61-2.53-8.69-4.97a.892.892,0,0,1,.85-1.48Z" transform="translate(101.048 -110.814)" fill="#c57f13"/>
      <path id="Trazado_724426" data-name="Trazado 724426" d="M233.247,333.72a28.457,28.457,0,0,1,10.09-13.59c1.47-1.1,3.13-1.91,4.69-2.86,1.35-.83,2.54,1.29,1.21,2.14a26.568,26.568,0,0,0-3.88,3.38c-1.24,1.19-2.42,2.45-3.55,3.74a53.993,53.993,0,0,0-6.03,8.23c-.76,1.3-3.11.47-2.54-1.03Z" transform="translate(5.665 -110.814)" fill="#c57f13"/>
      <path id="Trazado_724427" data-name="Trazado 724427" d="M287.283,338.91a2.082,2.082,0,0,1,2.28-.96c16.39,5.59,33.1,11.15,50.6,11.25a60.513,60.513,0,0,0,14.75-1.59,1.107,1.107,0,0,1,.56,2.14,72.207,72.207,0,0,1-26.2,2.43A127.553,127.553,0,0,1,303,346.65c-3.91-1.2-7.79-2.5-11.67-3.81a13.291,13.291,0,0,0,2.2,1.72c1.78,1.21,3.63,2.33,5.52,3.36a64.564,64.564,0,0,0,12.43,5.16,65.658,65.658,0,0,0,13.01,2.54c4.52.4,9.05.3,13.56.58a1.281,1.281,0,0,1,.32,2.51,35.656,35.656,0,0,1-11.73,1.14,69.77,69.77,0,0,1-33.87-10.92c-3.01-1.94-8.43-5.82-5.5-10.01Z" transform="translate(-154.07 -110.814)" fill="#c57f13"/>
      <path id="Trazado_724428" data-name="Trazado 724428" d="M287.251,284.31c9.24,1.59,18.2,4.75,27.66,4.88,9.17.12,18.03-2.97,26.04-7.25a1,1,0,0,1,.98,1.73,80.3,80.3,0,0,1-12.61,6.97,37.71,37.71,0,0,1-14.18,2.58,69.576,69.576,0,0,1-28.78-6.76c-1.28-.59-.35-2.36.88-2.15Z" transform="translate(-139.529 -110.814)" fill="#c57f13"/>
    </g>
    <g id="Grupo_1014558" data-name="Grupo 1014558" transform="translate(-5050.609 -10846.461)">
      <path id="Trazado_724214" data-name="Trazado 724214" d="M278.365,30.56c42.46,12.2,83.312,38.326,111.316,79.985s41.652,99.88,30.007,152.283c-4.825,21.742-13.648,41.725-22.747,61.223-9.668,20.719-19.962,41.483-34.345,57.4-20.228,22.369-46.955,33.333-73.451,39.987C238,434.279,183.161,432.618,135.765,405.41s-85.95-82.7-92.209-147.334a246.912,246.912,0,0,1,.533-49.027c9.668-93.5,69.747-188.41,149.466-187.519,28.555.319,56.834,1,84.8,9.029Z" transform="translate(610.542 2689.023)" fill="#426e5f" opacity="0.46"/>
      <path id="Trazado_724446" data-name="Trazado 724446" d="M177.162,25.834C201.4,31.652,224.715,44.116,240.7,63.987s23.774,47.643,17.128,72.639c-2.754,10.371-7.79,19.9-12.983,29.2-5.519,9.883-11.394,19.787-19.6,27.378-11.546,10.67-26.8,15.9-41.925,19.074-29.193,6.127-60.5,5.335-87.548-7.643S46.708,165.19,43.136,134.36a98.539,98.539,0,0,1,.3-23.386c5.519-44.6,39.811-89.872,85.313-89.447,16.3.152,32.44.477,48.4,4.307Z" transform="translate(1046.553 2839.677)" fill="#426e5f" opacity="0.46"/>
      <g id="Grupo_1013407" data-name="Grupo 1013407" transform="translate(196 -643.506)">
        <g transform="matrix(1, 0, 0, 1, -20, 3324.61)" filter="url(#Rectángulo_348590)">
          <rect id="Rectángulo_348590-3" data-name="Rectángulo 348590" width="483" height="72" rx="10" transform="translate(584 46.9)" fill="#ffdeb7"/>
        </g>
        <text id="Lengua_meta_Lengua_origen" data-name="Lengua meta
Lengua origen" transform="translate(653 3400.506)" fill="#12263f" font-size="16" font-family="Roboto-Medium, Roboto" font-weight="500"><tspan x="-46.613" y="0">Lengua meta</tspan><tspan x="-51.059" y="24">Lengua origen</tspan></text>
        <text id="Lengua_origen_Lengua_meta" data-name="Lengua origen
Lengua meta" transform="translate(948 3400.506)" fill="#12263f" font-size="16" font-family="Roboto-Medium, Roboto" font-weight="500"><tspan x="-51.059" y="0">Lengua origen</tspan><tspan x="-46.613" y="24">Lengua meta</tspan></text>
        <g id="Grupo_1013406" data-name="Grupo 1013406" transform="translate(749 3385.506)">
          <path id="Trazado_696219" data-name="Trazado 696219" d="M24,24H124.321V63.783H103.565L96.646,74.161V63.783H24Z" transform="translate(-22.271 -23.135)" fill="#fcc419"/>
          <path id="Trazado_696220" data-name="Trazado 696220" d="M371.026,77.513a1.73,1.73,0,0,1,1.726,1.845,1.769,1.769,0,0,1-1.785,1.614h-.426A1.73,1.73,0,0,1,372.2,83.2a1.769,1.769,0,0,1-1.707,1.23H369.3a1.73,1.73,0,0,1,1.73,1.73h0a1.73,1.73,0,0,1-1.73,1.73h-8.192a5.278,5.278,0,0,1-3.732-1.546l-.184-.184H352V75.784h5.189v-.93a2.162,2.162,0,0,1,.52-1.407L362.378,68l1.384,1.038a2.594,2.594,0,0,1,.519,3.632l-1.038,1.384H377.08a1.73,1.73,0,0,1,1.73,1.73h0a1.73,1.73,0,0,1-1.73,1.73h-6.919" transform="translate(-279.354 -57.622)" fill="#f5a000"/>
          <path id="Trazado_696224" data-name="Trazado 696224" d="M56.755,78.919H51.566v-.507a2.96,2.96,0,0,0-.867-2.09,2.953,2.953,0,0,1-.863-2.086V72h-1.73a2.6,2.6,0,0,0-2.595,2.595v2.595H37.788A1.769,1.769,0,0,0,36,78.8a1.73,1.73,0,0,0,1.726,1.845A1.73,1.73,0,0,0,36,82.493a1.769,1.769,0,0,0,1.785,1.614h.426a1.73,1.73,0,0,0-1.656,2.23,1.769,1.769,0,0,0,1.707,1.23h1.071a1.706,1.706,0,0,0-1.566,2.149,1.639,1.639,0,0,0,1.566,1.31h9.277a2.959,2.959,0,0,0,2.09-.867A2.953,2.953,0,0,1,52.79,89.3h3.966Z" transform="translate(-31.675 -60.757)" fill="#f5a000"/>
          <path id="Trazado_696225" data-name="Trazado 696225" d="M169.945,71.891v-1.73a2.6,2.6,0,0,0-2.595-2.595h-1.513V52.9c-1.525-1.736-3.459-.678-3.459.831v6.054c0-1.51-1.934-2.567-3.459-.831v1.317a1.73,1.73,0,0,0-2.149-1.678h0a1.73,1.73,0,0,0-1.31,1.678V55.493c-1.525-1.736-3.459-.678-3.459.831V70.64a3.062,3.062,0,0,0,.886,2.139,2.953,2.953,0,0,1,.843,2.065V78.81h9.513V73.621h0a4.237,4.237,0,0,0,2.965-1.21l.53-.519Z" transform="translate(-122.596 -45.082)" fill="#f5a000"/>
          <path id="Trazado_696226" data-name="Trazado 696226" d="M262.613,59.723l1.09-.872a2.162,2.162,0,0,1,1.351-.474h1.478a2.953,2.953,0,0,1,2.088.865h0a2.953,2.953,0,0,1,.865,2.088v1.357a.879.879,0,0,1-.879.879h0a2.053,2.053,0,0,1-1.452-.6l-1.128-1.128-2.595,1.73h0a2.6,2.6,0,0,0,2.595,2.595h0l1.152-1.728a1.946,1.946,0,0,1,1.619-.867h0a.688.688,0,0,1,.688.688v1.367a5.946,5.946,0,0,1-.627,2.659l-.7,1.4a2.162,2.162,0,0,1-1.25,1.084l-4.34,1.447v3.459h-8.648l-1.648-14.012a4.33,4.33,0,0,1,.058-1.372l1.807-8.832h0a2.39,2.39,0,0,1,2.342,2.869l-.828,4.049,1.946-9.513h0a2.746,2.746,0,0,1,2.7,3.257l-1.185,6.256L261.052,48h0a2.811,2.811,0,0,1,2.783,3.21l-1.221,8.513" transform="translate(-201.162 -41.946)" fill="#f5a000"/>
          <path id="Trazado_696231" data-name="Trazado 696231" d="M33.794,86.778A2.5,2.5,0,0,0,36.2,88.756h9.277a3.792,3.792,0,0,0,2.7-1.118,2.074,2.074,0,0,1,1.476-.612h3.966a.865.865,0,1,0,0-1.73H49.655a3.792,3.792,0,0,0-2.7,1.118,2.074,2.074,0,0,1-1.476.612H40.5a2.687,2.687,0,0,0,.145-.865A2.648,2.648,0,0,0,40,84.415a2.579,2.579,0,0,0-.015-3.443,2.579,2.579,0,0,0,0-3.459,2.569,2.569,0,0,0,.515-2.595h1.016v.9a3.427,3.427,0,0,0,3.423,3.423.865.865,0,1,0,0-1.73,1.7,1.7,0,0,1-1.694-1.694v-4.36a1.732,1.732,0,0,1,1.73-1.73h.865v2.088a2.073,2.073,0,0,0,.611,1.476l1.014,1.014a.355.355,0,0,1,.1.253v1.223a.865.865,0,0,0,.865.865h4.324V82.7a.865.865,0,0,0,1.73,0V75.784a.865.865,0,0,0-.865-.865H49.3V74.56a2.073,2.073,0,0,0-.611-1.476l-1.014-1.014a.355.355,0,0,1-.1-.253V68.865A.865.865,0,0,0,46.7,68h-1.73a3.463,3.463,0,0,0-3.459,3.459v1.73H34.594a2.59,2.59,0,0,0-1.928,4.324,2.585,2.585,0,0,0,.275,3.728,2.587,2.587,0,0,0,1.024,3.8A2.681,2.681,0,0,0,33.794,86.778Zm2.408.249a.778.778,0,0,1-.723-.642.943.943,0,0,1,.173-.807A.706.706,0,0,1,36.2,85.3h1.968a.874.874,0,0,1,0,1.73ZM35.08,83.567a.865.865,0,1,1,0-1.73h2.974a.865.865,0,1,1,0,1.73Zm-.486-3.459a.865.865,0,1,1,0-1.73h3.459a.865.865,0,1,1,0,1.73Zm0-5.189h3.459a.865.865,0,1,1,0,1.73H34.594a.865.865,0,1,1,0-1.73Z" transform="translate(-28.541 -57.622)"/>
          <path id="Trazado_696232" data-name="Trazado 696232" d="M150.594,50.595A2.6,2.6,0,0,0,148,53.189V67.533a3.793,3.793,0,0,0,1.118,2.7,2.073,2.073,0,0,1,.611,1.476v3.966a.865.865,0,0,0,.865.865h6.054a.865.865,0,1,0,0-1.73h-5.189v-3.1a3.793,3.793,0,0,0-1.118-2.7,2.073,2.073,0,0,1-.611-1.476V53.189a.865.865,0,0,1,1.73,0v6.919a2.59,2.59,0,0,0,4.324,1.928,2.59,2.59,0,0,0,4.324-1.928V50.595a.865.865,0,1,1,1.73,0V63.567h-.865a2.6,2.6,0,0,0-2.594,2.595.865.865,0,1,0,1.73,0,.865.865,0,0,1,.865-.865h3.459a1.732,1.732,0,0,1,1.73,1.73v.865h-2.088a2.076,2.076,0,0,0-1.477.612l-1.013,1.013a.357.357,0,0,1-.254.105h-1.223a.865.865,0,0,0-.865.865v5.189a.865.865,0,1,0,1.73,0V71.351h.358a2.076,2.076,0,0,0,1.476-.612l1.013-1.013a.356.356,0,0,1,.254-.105h2.953a.865.865,0,0,0,.865-.865v-1.73a3.463,3.463,0,0,0-3.459-3.459h-.865V50.595a2.595,2.595,0,1,0-5.189,0v3.611a2.579,2.579,0,0,0-2.863.79,2.574,2.574,0,0,0-2.091-.378c-.08.02-.159.045-.235.072v-1.5A2.6,2.6,0,0,0,150.594,50.595Zm6.054,6.054a.865.865,0,0,1,1.73,0v3.459a.865.865,0,0,1-1.73,0Zm-2.8-.354a.877.877,0,0,1,.212-.026.865.865,0,0,1,.863.865v2.974a.865.865,0,1,1-1.73,0V57.134a.865.865,0,0,1,.655-.839Z" transform="translate(-119.46 -41.946)"/>
          <path id="Trazado_696233" data-name="Trazado 696233" d="M366.162,83.893h-10.02l-1.477-1.477a.865.865,0,0,0-.611-.253h-5.189a.865.865,0,0,0,0,1.73H353.7l1.477,1.476a.865.865,0,0,0,.611.253h10.378a2.592,2.592,0,0,0,2.344-3.7,2.594,2.594,0,0,0,1.043-3.813,2.579,2.579,0,0,0,.787-2.86h3.611a2.595,2.595,0,0,0,0-5.189H361.837a3.463,3.463,0,0,0-.692-4.843l-1.384-1.038a.865.865,0,0,0-1.175.13l-4.064,4.74a5.546,5.546,0,0,0-1.266,2.741h-4.392a.865.865,0,0,0-.865.865v6.919a.865.865,0,0,0,1.73,0V73.514h4.324a.865.865,0,0,0,.865-.865,3.814,3.814,0,0,1,.917-2.48l3.537-4.126.735.552a1.732,1.732,0,0,1,.346,2.422L359.416,70.4a.865.865,0,0,0,.692,1.384h13.837a.865.865,0,0,1,0,1.73h-6.919a.865.865,0,0,0,0,1.73h.865a.865.865,0,0,1,0,1.73h-.486a.865.865,0,1,0,0,1.73.865.865,0,0,1,0,1.73h-1.244a.865.865,0,0,0,0,1.73.865.865,0,0,1,0,1.73Z" transform="translate(-276.219 -54.488)"/>
          <path id="Trazado_696234" data-name="Trazado 696234" d="M118.916,20H16.865a.865.865,0,0,0-.865.865V60.647a.865.865,0,0,0,.865.865h9.513a.865.865,0,1,0,0-1.73H17.73V21.73H118.051V59.783H97.295a.865.865,0,0,0-.72.385l-5.334,8V60.647a.865.865,0,0,0-.865-.865H29.837a.865.865,0,1,0,0,1.73H89.511v9.513a.865.865,0,0,0,1.584.48l6.662-9.993h21.158a.865.865,0,0,0,.865-.865V20.865A.865.865,0,0,0,118.916,20Z" transform="translate(-16 -20)"/>
          <path id="Trazado_696235" data-name="Trazado 696235" d="M267.213,58.2a3.818,3.818,0,0,0-3.818-3.818h-1.478a3.034,3.034,0,0,0-1.291.292l.928-6.472a3.676,3.676,0,0,0-3.639-4.2.865.865,0,0,0-.85.706l-.2,1.084a3.6,3.6,0,0,0-2.406-.924.865.865,0,0,0-.847.692l-.542,2.65a3.238,3.238,0,0,0-2.07-.747.865.865,0,0,0-.847.692l-1.806,8.832a5.183,5.183,0,0,0-.07,1.646l1.648,14.012a.865.865,0,0,0,.859.763h5.241a.865.865,0,1,0,0-1.73h-4.472l-1.558-13.248a3.457,3.457,0,0,1,.046-1.1l1.633-7.984a1.527,1.527,0,0,1,.821,1.675l-.828,4.05a.865.865,0,0,0,.674,1.021.874.874,0,0,0,.173.017.865.865,0,0,0,.846-.692l.828-4.049v0l.95-4.645a1.884,1.884,0,0,1,1.2,1.894l-1.213,6.469a.865.865,0,0,0,1.7.319l1.152-6.146a.844.844,0,0,0,.032-.108c.014-.072.019-.144.029-.216l.576-3.075a1.946,1.946,0,0,1,1.232,2.095l-1.221,8.513a.865.865,0,0,0,.733.979.9.9,0,0,0,.124.009.861.861,0,0,0,.538-.191l0,0,1.089-.872a1.3,1.3,0,0,1,.812-.284H263.4a2.088,2.088,0,0,1,2.088,2.088l-.014,1.371a1.181,1.181,0,0,1-.84-.348L263.5,58.091a.865.865,0,0,0-1.091-.108l-2.594,1.73a.865.865,0,0,0-.385.72,3.463,3.463,0,0,0,3.459,3.459.865.865,0,0,0,.72-.385l1.152-1.728a1.08,1.08,0,0,1,.723-.467v1.176a5.108,5.108,0,0,1-.537,2.273l-.7,1.4a1.289,1.289,0,0,1-.75.651l-4.34,1.446a.865.865,0,0,0-.591.821V72.54a.865.865,0,1,0,1.73,0V69.7l3.748-1.249a3.009,3.009,0,0,0,1.751-1.518l.7-1.4a6.845,6.845,0,0,0,.718-3.047V61.12a1.543,1.543,0,0,0-.2-.76,1.732,1.732,0,0,0,.2-.808Zm-3.892,2.623-.86,1.289a1.736,1.736,0,0,1-1.249-1.249l1.566-1.044.627.627c.038.038.077.075.117.11A2.822,2.822,0,0,0,263.322,60.819Z" transform="translate(-198.026 -38.811)"/>
        </g>
      </g>
      <g id="Grupo_1013404" data-name="Grupo 1013404" transform="translate(614.789 2828.699)">
        <g transform="matrix(1, 0, 0, 1, -438.79, -147.6)" filter="url(#Rectángulo_348590-2)">
          <rect id="Rectángulo_348590-4" data-name="Rectángulo 348590" width="346" height="68" rx="10" transform="translate(439 147.9)" fill="#ffa031"/>
        </g>
        <text id="Lengua_viso_-_gesto_-_espacial._Lengua_tridimensional_ágrafa." data-name="Lengua viso - gesto - espacial.
Lengua tridimensional ágrafa." transform="translate(173.211 28.301)" fill="#12263f" font-size="16" font-family="Roboto-Medium, Roboto" font-weight="500"><tspan x="-108.418" y="0">Lengua viso - gesto - espacial.</tspan><tspan x="-106.973" y="24">Lengua tridimensional ágrafa.</tspan></text>
      </g>
      <g transform="matrix(1, 0, 0, 1, 176, 2681.1)" filter="url(#Rectángulo_348591)">
        <rect id="Rectángulo_348591-2" data-name="Rectángulo 348591" width="346" height="68" rx="10" transform="translate(853 147.9)" fill="#ffa031"/>
      </g>
      <g id="Grupo_1013405" data-name="Grupo 1013405" transform="translate(120.864 -685)">
        <text id="Lengua_oral_-_auditiva._Lengua_escrita_lineal." data-name="Lengua oral - auditiva.
Lengua escrita lineal." transform="translate(1081.135 3542)" fill="#12263f" font-size="16" font-family="Roboto-Medium, Roboto" font-weight="500"><tspan x="-79.098" y="0">Lengua oral - auditiva.</tspan><tspan x="-76.25" y="24">Lengua escrita lineal.</tspan></text>
      </g>
      <g transform="matrix(1, 0, 0, 1, 176, 2681.1)" filter="url(#Rectángulo_344415)">
        <rect id="Rectángulo_344415-5" data-name="Rectángulo 344415" width="346" height="84" rx="10" transform="translate(439 331.9)" fill="#fff"/>
      </g>
      <g id="Grupo_1013411" data-name="Grupo 1013411" transform="translate(-17 -166)">
        <text id="Sentido" transform="translate(680 3205)" fill="#12263f" font-size="18" font-family="Roboto-Black, Roboto" font-weight="800"><tspan x="-31.289" y="0">Sentido</tspan></text>
        <text id="Búsqueda_del_sentido_idéntico_o_en_otras_señas_propias_de_la_lengua_visual." data-name="Búsqueda del sentido idéntico o en otras señas propias de la lengua visual." transform="translate(649 3214)" fill="#12263f" font-size="16" font-family="Roboto-Regular, Roboto"><tspan x="0" y="17">Búsqueda del sentido idéntico o en otras </tspan><tspan x="0" y="39">señas propias de la lengua visual.</tspan></text>
      </g>
      <g id="Grupo_1013408" data-name="Grupo 1013408" transform="translate(295.473 -367.527)">
        <circle id="Elipse_4785" data-name="Elipse 4785" cx="26.5" cy="26.5" r="26.5" transform="translate(639.527 3396.527)" fill="#ed9aa9"/>
        <g id="Icons" transform="translate(650.616 3407.616)">
          <path id="Shape" d="M19.792,49.044V52.33a1.057,1.057,0,0,1-1.057,1.057H6.057A1.057,1.057,0,0,1,5,52.33V48.22Z" transform="translate(-2.358 -22.745)" fill="#dfc49c"/>
          <path id="Shape-2" data-name="Shape" d="M18.208,49.124V52.41a1.057,1.057,0,0,1-1.057,1.057H6.057A1.057,1.057,0,0,1,5,52.41V48.39Z" transform="translate(-2.358 -22.825)" fill="#ffe0b2"/>
          <path id="Shape-3" data-name="Shape" d="M4.226,8.453V2.113A2.113,2.113,0,0,0,0,2.113V20.6a5.811,5.811,0,0,0,5.811,5.811H16.377a4.755,4.755,0,0,0,4.755-4.755v-6.34Z" fill="#dfc49c"/>
          <g id="Grupo_930129" data-name="Grupo 930129">
            <path id="Shape-4" data-name="Shape" d="M4.226,8.453V2.113A2.113,2.113,0,0,0,0,2.113V20.6a5.811,5.811,0,0,0,5.811,5.811h8.981a4.755,4.755,0,0,0,4.755-4.755v-6.34Z" fill="#ffe0b2"/>
            <path id="Shape-5" data-name="Shape" d="M12.226,13.113v3.7a2.113,2.113,0,1,1-4.226,0v-3.7a2.113,2.113,0,0,1,4.226,0Z" transform="translate(-3.774 -5.189)" fill="#ffe0b2"/>
            <path id="Shape-6" data-name="Shape" d="M20.226,10.113V15.4A2.113,2.113,0,0,1,16,15.4V10.113a2.113,2.113,0,1,1,4.226,0Z" transform="translate(-7.547 -3.774)" fill="#ffe0b2"/>
          </g>
          <path id="Shape-7" data-name="Shape" d="M28.226,14.113a21.192,21.192,0,0,1-.069,3.7H24v-3.7a2.113,2.113,0,1,1,4.226,0Z" transform="translate(-11.321 -5.66)" fill="#dfc49c"/>
          <path id="Shape-8" data-name="Shape" d="M26.642,14.255a21.191,21.191,0,0,1-.069,3.7H24v-3.7A2.113,2.113,0,0,1,25.321,12.3,2.113,2.113,0,0,1,26.642,14.255Z" transform="translate(-11.321 -5.802)" fill="#ffe0b2"/>
          <path id="Shape-9" data-name="Shape" d="M51.382,47.329a1.057,1.057,0,0,1-1.057,1.236H45.043a1.057,1.057,0,0,1-.38-2.023c.28-.122.407-.09,1.437-.09a.528.528,0,0,0,.528-.528V40.641a.528.528,0,0,0-.528-.528H45.043a1.057,1.057,0,0,1-1.057-1.236A1.094,1.094,0,0,1,45.1,38h5.225a1.057,1.057,0,0,1,1.057,1.236,1.094,1.094,0,0,1-1.115.877,8.846,8.846,0,0,0-1.1,0,.528.528,0,0,0-.423.528v5.283a.528.528,0,0,0,.354.5c.148.048.122.032,1.173.032a1.094,1.094,0,0,1,1.115.877Z" transform="translate(-20.741 -17.924)" fill="#bb193b"/>
          <path id="Shape-10" data-name="Shape" d="M49.8,47.329a1.057,1.057,0,0,1-1.057,1.236h-3.7a1.057,1.057,0,0,1-.38-2.023c.28-.122.407-.09,1.437-.09a.528.528,0,0,0,.528-.528V40.641a.528.528,0,0,0-.528-.528H45.043a1.057,1.057,0,0,1-1.057-1.236A1.094,1.094,0,0,1,45.1,38h3.64a1.057,1.057,0,0,1,.38,2.023,4.2,4.2,0,0,1-1.437.09.528.528,0,0,0-.528.528v5.283a.528.528,0,0,0,.528.528,4.464,4.464,0,0,1,1.411.079,1.057,1.057,0,0,1,.7.8Z" transform="translate(-20.741 -17.924)" fill="#ef314c"/>
          <path id="Shape-11" data-name="Shape" d="M30.566,26.17v5.283l-8.981,1.585v-.528a5.283,5.283,0,0,1,5.177-5.283H22.113a2.113,2.113,0,1,1,0-4.226H27.4A3.17,3.17,0,0,1,30.566,26.17Z" transform="translate(-9.434 -10.849)" fill="#dfc49c"/>
          <path id="Shape-12" data-name="Shape" d="M28.981,26.17v6.34l-7.4.433v-.433a5.283,5.283,0,0,1,5.177-5.283H22.113a2.113,2.113,0,1,1,0-4.226h3.7A3.17,3.17,0,0,1,28.981,26.17Z" transform="translate(-9.434 -10.849)" fill="#ffe0b2"/>
        </g>
        <g id="Layer_2" transform="translate(650.59 3407.591)">
          <path id="Shape-13" data-name="Shape" d="M10.057,54H9.528a.528.528,0,1,0,0,1.057h.528a.528.528,0,0,0,0-1.057Z" transform="translate(-4.245 -25.472)"/>
          <path id="Shape-14" data-name="Shape" d="M14.528,55.057h7.925a.528.528,0,1,0,0-1.057H14.528a.528.528,0,1,0,0,1.057Z" transform="translate(-6.604 -25.472)"/>
          <path id="Shape-15" data-name="Shape" d="M2.642,26.273v3.841A1.585,1.585,0,0,0,4.226,31.7H16.906a1.585,1.585,0,0,0,1.585-1.585V27.229a5.283,5.283,0,0,0,3.7-5.04v-6.34a3.7,3.7,0,0,0-3.7-3.7h-.528V8.981a2.642,2.642,0,0,0-4.226-2.113A2.642,2.642,0,0,0,8.5,6.377,2.583,2.583,0,0,0,5.283,6.34v-3.7A2.642,2.642,0,0,0,0,2.642V21.132a6.34,6.34,0,0,0,2.642,5.14ZM15.321,7.4a1.585,1.585,0,0,1,1.585,1.585v3.17h-3.17V8.981A1.585,1.585,0,0,1,15.321,7.4ZM9.509,6.868a1.585,1.585,0,1,1,3.17,0V12.2a2.6,2.6,0,0,0-1.87,1.5,1.585,1.585,0,0,1-1.3-1.553Zm-2.642,0A1.585,1.585,0,0,1,8.453,8.453v3.7a1.585,1.585,0,0,1-3.17,0v-3.7A1.585,1.585,0,0,1,6.868,6.868ZM1.057,2.642a1.585,1.585,0,0,1,3.17,0v9.509a2.642,2.642,0,0,0,4.755,1.585,2.642,2.642,0,0,0,1.585,1.02,2.642,2.642,0,0,0,2.642,2.678h1.426a5.811,5.811,0,0,0-2.483,4.755v.528a.528.528,0,0,0,1.057,0v-.528a4.755,4.755,0,0,1,4.755-4.755h1.057a.528.528,0,1,0,0-1.057H13.208a1.585,1.585,0,1,1,0-3.17h5.283a2.642,2.642,0,0,1,2.642,2.642v6.34a4.226,4.226,0,0,1-4.226,4.226.528.528,0,0,0,0,1.057h.528v2.642a.528.528,0,0,1-.528.528H4.226a.528.528,0,0,1-.528-.528V26.885a6.218,6.218,0,0,0,2.642.586.528.528,0,1,0,0-1.057,5.283,5.283,0,0,1-5.283-5.283Z" transform="translate(0 0)"/>
          <path id="Shape-16" data-name="Shape" d="M45.669,46.453a1.585,1.585,0,1,0-.058,3.17h5.283a1.585,1.585,0,0,0,1.585-1.849,1.632,1.632,0,0,0-1.643-1.321h-1V41.17h1A1.585,1.585,0,0,0,50.894,38H45.669a1.585,1.585,0,0,0-.058,3.17h1.057v5.283Zm1-6.34H45.611a.529.529,0,0,1,.058-1.057h5.225a.529.529,0,0,1-.058,1.057h-1A1.057,1.057,0,0,0,48.78,41.17v5.283a1.057,1.057,0,0,0,1.057,1.057h1a.576.576,0,0,1,.581.433.528.528,0,0,1-.523.623H45.611a.529.529,0,1,1,.058-1.057h1a1.057,1.057,0,0,0,1.057-1.057V41.17a1.057,1.057,0,0,0-1.057-1.057Z" transform="translate(-20.78 -17.924)"/>
        </g>
      </g>
      <g transform="matrix(1, 0, 0, 1, 176, 2681.1)" filter="url(#Rectángulo_344415-2)">
        <rect id="Rectángulo_344415-6" data-name="Rectángulo 344415" width="346" height="84" rx="10" transform="translate(853 331.9)" fill="#fff"/>
      </g>
      <g id="Grupo_1013411-2" data-name="Grupo 1013411" transform="translate(398 -166)">
        <text id="Sentido-2" data-name="Sentido" transform="translate(680 3205)" fill="#12263f" font-size="18" font-family="Roboto-Black, Roboto" font-weight="800"><tspan x="-31.289" y="0">Sentido</tspan></text>
        <text id="Búsqueda_del_sentido_idéntico_o_en_otras_palabras_propias_de_la_lengua_oral." data-name="Búsqueda del sentido idéntico o en otras palabras propias de la lengua oral." transform="translate(649 3214)" fill="#12263f" font-size="16" font-family="Roboto-Regular, Roboto"><tspan x="0" y="17">Búsqueda del sentido idéntico o en otras </tspan><tspan x="0" y="39">palabras propias de la lengua oral.</tspan></text>
      </g>
      <g transform="matrix(1, 0, 0, 1, 176, 2681.1)" filter="url(#Rectángulo_344415-3)">
        <rect id="Rectángulo_344415-7" data-name="Rectángulo 344415" width="346" height="84" rx="10" transform="translate(439 231.9)" fill="#fff"/>
      </g>
      <g id="Grupo_1013412" data-name="Grupo 1013412" transform="translate(632 2922)">
        <text id="Seña" transform="translate(20 17)" fill="#12263f" font-size="18" font-family="Roboto-Black, Roboto" font-weight="800"><tspan x="-20.386" y="0">Seña</tspan></text>
        <text id="La_sintaxis_los_campos_semánticos_y_los_giros_idiomáticos." data-name="La sintaxis, los campos semánticos y los giros idiomáticos." transform="translate(0 26)" fill="#12263f" font-size="16" font-family="Roboto-Regular, Roboto"><tspan x="0" y="17">La sintaxis, los campos semánticos y los </tspan><tspan x="0" y="39">giros idiomáticos.</tspan></text>
      </g>
      <g id="Grupo_1013408-2" data-name="Grupo 1013408" transform="translate(935 2929)">
        <circle id="Elipse_4785-2" data-name="Elipse 4785" cx="26.5" cy="26.5" r="26.5" fill="#ed9aa9"/>
        <g id="Icons-2" data-name="Icons" transform="translate(11.255 11.089)">
          <path id="Shape-17" data-name="Shape" d="M5,49.044V52.33a1.057,1.057,0,0,0,1.057,1.057H18.736a1.057,1.057,0,0,0,1.057-1.057V48.22Z" transform="translate(8.223 -22.745)" fill="#dfc49c"/>
          <path id="Shape-18" data-name="Shape" d="M5,49.124V52.41a1.057,1.057,0,0,0,1.057,1.057H17.151a1.057,1.057,0,0,0,1.057-1.057V48.39Z" transform="translate(9.808 -22.825)" fill="#ffe0b2"/>
          <path id="Shape-19" data-name="Shape" d="M16.906,8.453V2.113a2.113,2.113,0,1,1,4.226,0V20.6a5.811,5.811,0,0,1-5.811,5.811H4.755A4.755,4.755,0,0,1,0,21.66v-6.34Z" transform="translate(9.525)" fill="#dfc49c"/>
          <g id="Grupo_930129-2" data-name="Grupo 930129" transform="translate(11.11)">
            <path id="Shape-20" data-name="Shape" d="M15.321,8.453V2.113a2.113,2.113,0,1,1,4.226,0V20.6a5.811,5.811,0,0,1-5.811,5.811H4.755A4.755,4.755,0,0,1,0,21.66v-6.34Z" fill="#ffe0b2"/>
            <path id="Shape-21" data-name="Shape" d="M8,13.113v3.7a2.113,2.113,0,1,0,4.226,0v-3.7a2.113,2.113,0,1,0-4.226,0Z" transform="translate(3.094 -5.189)" fill="#ffe0b2"/>
            <path id="Shape-22" data-name="Shape" d="M16,10.113V15.4a2.113,2.113,0,0,0,4.226,0V10.113a2.113,2.113,0,1,0-4.226,0Z" transform="translate(-9.132 -3.774)" fill="#ffe0b2"/>
          </g>
          <path id="Shape-23" data-name="Shape" d="M24,14.113a21.192,21.192,0,0,0,.069,3.7h4.158v-3.7a2.113,2.113,0,1,0-4.226,0Z" transform="translate(-10.249 -5.66)" fill="#dfc49c"/>
          <path id="Shape-24" data-name="Shape" d="M24,14.255a21.191,21.191,0,0,0,.069,3.7h2.573v-3.7A2.113,2.113,0,0,0,25.321,12.3,2.113,2.113,0,0,0,24,14.255Z" transform="translate(-8.664 -5.802)" fill="#ffe0b2"/>
          <path id="Shape-25" data-name="Shape" d="M43.986,47.329a1.057,1.057,0,0,0,1.057,1.236h5.283a1.057,1.057,0,0,0,.38-2.023c-.28-.122-.407-.09-1.437-.09a.528.528,0,0,1-.528-.528V40.641a.528.528,0,0,1,.528-.528h1.057a1.057,1.057,0,0,0,1.057-1.236A1.094,1.094,0,0,0,50.268,38H45.043a1.057,1.057,0,0,0-1.057,1.236,1.094,1.094,0,0,0,1.115.877,8.846,8.846,0,0,1,1.1,0,.528.528,0,0,1,.423.528v5.283a.528.528,0,0,1-.354.5c-.148.048-.122.032-1.173.032a1.094,1.094,0,0,0-1.115.877Z" transform="translate(-43.971 -17.924)" fill="#bb193b"/>
          <path id="Shape-26" data-name="Shape" d="M43.986,47.329a1.057,1.057,0,0,0,1.057,1.236h3.7a1.057,1.057,0,0,0,.38-2.023c-.28-.122-.407-.09-1.437-.09a.528.528,0,0,1-.528-.528V40.641a.528.528,0,0,1,.528-.528h1.057A1.057,1.057,0,0,0,49.8,38.876,1.094,1.094,0,0,0,48.683,38h-3.64a1.057,1.057,0,0,0-.38,2.023,4.2,4.2,0,0,0,1.437.09.528.528,0,0,1,.528.528v5.283a.528.528,0,0,1-.528.528,4.464,4.464,0,0,0-1.411.079,1.057,1.057,0,0,0-.7.8Z" transform="translate(-42.386 -17.924)" fill="#ef314c"/>
          <path id="Shape-27" data-name="Shape" d="M20,26.17v5.283l8.981,1.585v-.528A5.283,5.283,0,0,0,23.8,27.226h4.649a2.113,2.113,0,1,0,0-4.226H23.17A3.17,3.17,0,0,0,20,26.17Z" transform="translate(-10.475 -10.849)" fill="#dfc49c"/>
          <path id="Shape-28" data-name="Shape" d="M20,26.17v6.34l7.4.433v-.433a5.283,5.283,0,0,0-5.177-5.283h4.649a2.113,2.113,0,1,0,0-4.226h-3.7A3.17,3.17,0,0,0,20,26.17Z" transform="translate(-8.89 -10.849)" fill="#ffe0b2"/>
        </g>
        <g id="Layer_2-2" data-name="Layer_2" transform="translate(10.217 11.064)">
          <path id="Shape-29" data-name="Shape" d="M9.528,54h.528a.528.528,0,1,1,0,1.057H9.528a.528.528,0,0,1,0-1.057Z" transform="translate(16.381 -25.472)"/>
          <path id="Shape-30" data-name="Shape" d="M22.453,55.057H14.528a.528.528,0,1,1,0-1.057h7.925a.528.528,0,1,1,0,1.057Z" transform="translate(1.343 -25.472)"/>
          <path id="Shape-31" data-name="Shape" d="M19.547,26.273v3.841A1.585,1.585,0,0,1,17.962,31.7H5.283A1.585,1.585,0,0,1,3.7,30.113V27.229A5.283,5.283,0,0,1,0,22.189v-6.34a3.7,3.7,0,0,1,3.7-3.7h.528V8.981A2.642,2.642,0,0,1,8.453,6.868a2.642,2.642,0,0,1,5.235-.491,2.583,2.583,0,0,1,3.217-.037v-3.7a2.642,2.642,0,1,1,5.283,0V21.132a6.34,6.34,0,0,1-2.642,5.14ZM6.868,7.4A1.585,1.585,0,0,0,5.283,8.981v3.17h3.17V8.981A1.585,1.585,0,0,0,6.868,7.4Zm5.811-.528a1.585,1.585,0,1,0-3.17,0V12.2a2.6,2.6,0,0,1,1.87,1.5,1.585,1.585,0,0,0,1.3-1.553Zm2.642,0a1.585,1.585,0,0,0-1.585,1.585v3.7a1.585,1.585,0,0,0,3.17,0v-3.7A1.585,1.585,0,0,0,15.321,6.868Zm5.811-4.226a1.585,1.585,0,1,0-3.17,0v9.509a2.642,2.642,0,0,1-4.755,1.585,2.642,2.642,0,0,1-1.585,1.02,2.642,2.642,0,0,1-2.642,2.678H7.555a5.811,5.811,0,0,1,2.483,4.755v.528a.528.528,0,0,1-1.057,0v-.528a4.755,4.755,0,0,0-4.755-4.755H3.17a.528.528,0,1,1,0-1.057H8.981a1.585,1.585,0,1,0,0-3.17H3.7a2.642,2.642,0,0,0-2.642,2.642v6.34a4.226,4.226,0,0,0,4.226,4.226.528.528,0,0,1,0,1.057H4.755v2.642a.528.528,0,0,0,.528.528H17.962a.528.528,0,0,0,.528-.528V26.885a6.218,6.218,0,0,1-2.642.586.528.528,0,0,1,0-1.057,5.283,5.283,0,0,0,5.283-5.283Z" transform="translate(9.532 0)"/>
          <path id="Shape-32" data-name="Shape" d="M50.887,46.453a1.585,1.585,0,1,1,.058,3.17H45.662a1.585,1.585,0,0,1-1.585-1.849,1.632,1.632,0,0,1,1.643-1.321h1V41.17h-1A1.585,1.585,0,0,1,45.662,38h5.225a1.585,1.585,0,0,1,.058,3.17H49.888v5.283Zm-1-6.34h1.057a.529.529,0,0,0-.058-1.057H45.662a.529.529,0,0,0,.058,1.057h1a1.057,1.057,0,0,1,1.057,1.057v5.283a1.057,1.057,0,0,1-1.057,1.057h-1a.576.576,0,0,0-.581.433.528.528,0,0,0,.523.623h5.283a.529.529,0,1,0-.058-1.057h-1a1.057,1.057,0,0,1-1.057-1.057V41.17a1.057,1.057,0,0,1,1.057-1.057Z" transform="translate(-44.054 -17.924)"/>
        </g>
      </g>
      <g transform="matrix(1, 0, 0, 1, 176, 2681.1)" filter="url(#Rectángulo_344415-4)">
        <rect id="Rectángulo_344415-8" data-name="Rectángulo 344415" width="346" height="84" rx="10" transform="translate(853 231.9)" fill="#fff"/>
      </g>
      <g id="Grupo_1013412-2" data-name="Grupo 1013412" transform="translate(398 -266)">
        <text id="Palabra" transform="translate(680 3205)" fill="#12263f" font-size="18" font-family="Roboto-Black, Roboto" font-weight="800"><tspan x="-30.959" y="0">Palabra</tspan></text>
        <text id="La_sintaxis_los_campos_semánticos_y_los_giros_idiomáticos.-2" data-name="La sintaxis, los campos semánticos y los giros idiomáticos." transform="translate(649 3214)" fill="#12263f" font-size="16" font-family="Roboto-Regular, Roboto"><tspan x="0" y="17">La sintaxis, los campos semánticos y los </tspan><tspan x="0" y="39">giros idiomáticos.</tspan></text>
      </g>
      <g id="Grupo_1013415" data-name="Grupo 1013415" transform="translate(146 -84)">
        <circle id="Elipse_4786" data-name="Elipse 4786" cx="26.5" cy="26.5" r="26.5" transform="translate(1203 3013)" fill="#ed9aa9"/>
        <g id="g8804" transform="translate(1214.541 3023.617)">
          <g id="g8806" clip-path="url(#clip-path)">
            <g id="g8812" transform="translate(12.512 10.09)">
              <path id="path8814" d="M-377.841-58.562v9.672a2.767,2.767,0,0,1-2.762,2.771h-.913l-.094.11L-384.42-42.7l-2.9-3.419h-5.633a2.767,2.767,0,0,1-2.762-2.771V-61.333H-380.6a2.767,2.767,0,0,1,2.762,2.771" transform="translate(395.719 61.333)" fill="#09eaa3"/>
            </g>
            <g id="g8816" transform="translate(26.423 10.09)">
              <path id="path8818" d="M-83.833-58.562v9.672A2.767,2.767,0,0,1-86.6-46.119h-.913l-.094.11-.2-.11a2.767,2.767,0,0,0,2.762-2.771v-9.672A2.767,2.767,0,0,0-87.8-61.333h1.2a2.767,2.767,0,0,1,2.762,2.771" transform="translate(87.8 61.333)" fill="#14bb87"/>
            </g>
            <g id="g8820" transform="translate(0.452 5.873)">
              <path id="path8822" d="M-505.061-58.562v9.31a2.767,2.767,0,0,1-2.762,2.771h-11.652l-2.9,3.419-2.9-3.419h-.913a2.767,2.767,0,0,1-2.762-2.771v-9.31a2.767,2.767,0,0,1,2.762-2.771h18.374a2.767,2.767,0,0,1,2.762,2.771" transform="translate(528.959 61.333)" fill="#ff6b81"/>
            </g>
            <g id="g8824" transform="translate(20.383 5.873)">
              <path id="path8826" d="M-83.833-58.562v9.31A2.767,2.767,0,0,1-86.6-46.481h-1.2a2.767,2.767,0,0,0,2.762-2.771v-9.31A2.767,2.767,0,0,0-87.8-61.333h1.2a2.767,2.767,0,0,1,2.762,2.771" transform="translate(87.8 61.333)" fill="#ed2061"/>
            </g>
            <g id="g8828" transform="translate(0.452 25.808)">
              <path id="path8830" d="M-303.772-65.232a1.494,1.494,0,0,1-1.493,1.5h-11.388a1.494,1.494,0,0,1-1.493-1.5,1.494,1.494,0,0,1,1.493-1.5h.4l1.151-1.59,1.151,1.59h8.686a1.494,1.494,0,0,1,1.493,1.5" transform="translate(318.146 68.318)" fill="#4dd4f7"/>
            </g>
            <g id="g8832" transform="translate(12.128 27.398)">
              <path id="path8834" d="M-57.009-31.624a1.494,1.494,0,0,1-1.493,1.5h-1.2a1.494,1.494,0,0,0,1.493-1.5,1.494,1.494,0,0,0-1.493-1.5h1.2a1.494,1.494,0,0,1,1.493,1.5" transform="translate(59.707 33.12)" fill="#00c2f3"/>
            </g>
            <g id="g8836" transform="translate(16.017 0.452)">
              <path id="path8838" d="M-303.772-31.624a1.494,1.494,0,0,1-1.493,1.5h-.4l-.073.1-1.078,1.49-1.151-1.591h-8.686a1.494,1.494,0,0,1-1.493-1.5,1.494,1.494,0,0,1,1.493-1.5h11.388a1.494,1.494,0,0,1,1.493,1.5" transform="translate(318.146 33.12)" fill="#fbdf63"/>
            </g>
            <g id="g8840" transform="translate(27.693 0.452)">
              <path id="path8842" d="M-57.009-31.624a1.494,1.494,0,0,1-1.493,1.5h-.4l-.073.1c-.125-.119-.19-.2-.151-.219a1.5,1.5,0,0,0,.912-1.378,1.494,1.494,0,0,0-1.493-1.5h1.2a1.494,1.494,0,0,1,1.493,1.5" transform="translate(59.707 33.12)" fill="#ffa402"/>
            </g>
            <g id="g8844" transform="translate(0 5.422)">
              <path id="path8846" d="M-111.676,9.174a.452.452,0,0,1-.344-.159l-2.769-3.259h-.7a3.222,3.222,0,0,1-3.214-3.223v-9.31A3.222,3.222,0,0,1-115.493-10h2.149a.452.452,0,0,1,.452.452.452.452,0,0,1-.452.452h-2.149a2.317,2.317,0,0,0-2.31,2.319v9.31a2.317,2.317,0,0,0,2.31,2.319h.913a.452.452,0,0,1,.344.159l2.56,3.013,2.56-3.013a.452.452,0,0,1,.344-.159h11.652a2.317,2.317,0,0,0,2.31-2.319v-9.31A2.317,2.317,0,0,0-97.119-9.1h-14.129a.452.452,0,0,1-.452-.452.452.452,0,0,1,.452-.452h14.129a3.222,3.222,0,0,1,3.214,3.223v9.31a3.222,3.222,0,0,1-3.214,3.223h-11.443l-2.769,3.259A.452.452,0,0,1-111.676,9.174Z" transform="translate(118.706 10)"/>
            </g>
            <g id="g8848" transform="translate(12.06 18.852)">
              <path id="path8850" d="M-393.964.322a.452.452,0,0,1-.344-.159L-397.078-3.1H-402.5a3.222,3.222,0,0,1-3.214-3.223.452.452,0,0,1,.452-.452.452.452,0,0,1,.452.452A2.317,2.317,0,0,0-402.5-4h5.633a.452.452,0,0,1,.344.159l2.56,3.013,2.56-3.013A.452.452,0,0,1-391.06-4h.913a2.317,2.317,0,0,0,2.31-2.319V-9.548a.452.452,0,0,1,.452-.452.452.452,0,0,1,.452.452V-6.32A3.222,3.222,0,0,1-390.147-3.1h-.7L-393.62.162A.452.452,0,0,1-393.964.322Z" transform="translate(405.715 10)"/>
            </g>
            <g id="g8852" transform="translate(25.718 9.638)">
              <path id="path8854" d="M-5.328-1.966a.452.452,0,0,1-.452-.452V-6.777A2.317,2.317,0,0,0-8.089-9.1H-9.548A.452.452,0,0,1-10-9.548.452.452,0,0,1-9.548-10h1.459A3.222,3.222,0,0,1-4.876-6.777v4.359A.452.452,0,0,1-5.328-1.966Z" transform="translate(10 10)"/>
            </g>
            <g id="g8856" transform="translate(0 25.356)">
              <path id="path8858" d="M-190.864-39.719h-11.388a1.948,1.948,0,0,1-1.945-1.948,1.948,1.948,0,0,1,1.945-1.948h.169l1.016-1.4a.452.452,0,0,1,.366-.187.452.452,0,0,1,.366.187l1.016,1.4h2.259a.452.452,0,0,1,.452.452.452.452,0,0,1-.452.452h-2.49a.452.452,0,0,1-.366-.187l-.785-1.085-.785,1.085a.452.452,0,0,1-.366.187h-.4a1.044,1.044,0,0,0-1.041,1.044,1.044,1.044,0,0,0,1.041,1.044h11.388a1.044,1.044,0,0,0,1.041-1.044,1.044,1.044,0,0,0-1.041-1.044h-4.107a.452.452,0,0,1-.452-.452.452.452,0,0,1,.452-.452h4.107a1.948,1.948,0,0,1,1.944,1.948A1.948,1.948,0,0,1-190.864-39.719Z" transform="translate(204.197 45.205)"/>
            </g>
            <g id="g8860" transform="translate(15.565 0)">
              <path id="path8862" d="M-68.878-70.742a.452.452,0,0,1-.366-.187l-1.016-1.4h-4.667a.452.452,0,0,1-.452-.452.452.452,0,0,1,.452-.452h4.9a.452.452,0,0,1,.366.187l.785,1.085.785-1.085a.452.452,0,0,1,.366-.187h.4a1.044,1.044,0,0,0,1.041-1.044,1.044,1.044,0,0,0-1.041-1.044H-78.715a1.044,1.044,0,0,0-1.041,1.044,1.044,1.044,0,0,0,1.041,1.044h1.7a.452.452,0,0,1,.452.452.452.452,0,0,1-.452.452h-1.7A1.948,1.948,0,0,1-80.66-74.28a1.948,1.948,0,0,1,1.944-1.948h11.388a1.948,1.948,0,0,1,1.945,1.948,1.948,1.948,0,0,1-1.945,1.948H-67.5l-1.016,1.4A.452.452,0,0,1-68.878-70.742Z" transform="translate(80.66 76.228)"/>
            </g>
            <g id="g8864" transform="translate(4.622 9.935)">
              <path id="path8866" d="M-9.548-4.693A.452.452,0,0,1-10-5.144v-4.4A.452.452,0,0,1-9.548-10a.452.452,0,0,1,.452.452v4.4A.452.452,0,0,1-9.548-4.693Z" transform="translate(10 10)"/>
            </g>
            <g id="g8868" transform="translate(5.074 16.598)">
              <path id="path8870"/>
            </g>
            <g id="g8872" transform="translate(18.633 10.386)">
              <path id="path8874"/>
            </g>
            <g id="g8876" transform="translate(6.922 11.178)">
              <path id="path8878" d="M-7.649-89.352h-1.9A.452.452,0,0,1-10-89.8a.452.452,0,0,1,.452-.452H-8.1v-1H-9.548A.452.452,0,0,1-10-91.7v-1.9a.452.452,0,0,1,.452-.452h1.9A.452.452,0,0,1-7.2-93.6a.452.452,0,0,1-.452.452H-9.1v1h1.447A.452.452,0,0,1-7.2-91.7v1.9A.452.452,0,0,1-7.649-89.352Z" transform="translate(10 94.053)"/>
            </g>
            <g id="g8880" transform="translate(7.872 9.935)">
              <path id="path8882" d="M-9.548-35.372A.452.452,0,0,1-10-35.824v-1.243a.452.452,0,0,1,.452-.452.452.452,0,0,1,.452.452v1.243A.452.452,0,0,1-9.548-35.372Z" transform="translate(10 37.519)"/>
            </g>
            <g id="g8884" transform="translate(7.872 14.975)">
              <path id="path8886" d="M-9.548-35.37A.452.452,0,0,1-10-35.822v-1.243a.452.452,0,0,1,.452-.452.452.452,0,0,1,.452.452v1.243A.452.452,0,0,1-9.548-35.37Z" transform="translate(10 37.517)"/>
            </g>
            <g id="g8888" transform="translate(11.698 9.935)">
              <path id="path8890" d="M-9.549-140.367a.46.46,0,0,1-.062,0A.452.452,0,0,1-10-140.88l.848-6.211a.452.452,0,0,1,.509-.387.452.452,0,0,1,.386.509l-.848,6.211A.452.452,0,0,1-9.549-140.367Z" transform="translate(10.001 147.482)"/>
            </g>
            <g id="g8892" transform="translate(13.565 9.935)">
              <path id="path8894" d="M-9.549-140.367a.46.46,0,0,1-.062,0A.452.452,0,0,1-10-140.88l.848-6.211a.452.452,0,0,1,.509-.387.452.452,0,0,1,.386.509l-.848,6.211A.452.452,0,0,1-9.549-140.367Z" transform="translate(10.001 147.482)"/>
            </g>
            <g id="g8896" transform="translate(11.301 11.178)">
              <path id="path8898" d="M-5.66-9.1H-9.548A.452.452,0,0,1-10-9.548.452.452,0,0,1-9.548-10H-5.66a.452.452,0,0,1,.452.452A.452.452,0,0,1-5.66-9.1Z" transform="translate(10 10)"/>
            </g>
            <g id="g8900" transform="translate(10.869 14.975)">
              <path id="path8902" d="M-5.66-9.1H-9.548A.452.452,0,0,1-10-9.548.452.452,0,0,1-9.548-10H-5.66a.452.452,0,0,1,.452.452A.452.452,0,0,1-5.66-9.1Z" transform="translate(10 10)"/>
            </g>
            <g id="g8904" transform="translate(16.61 11.752)">
              <path id="path8906" d="M-7.979-67.195a2,2,0,0,1-1.383-.549A2.031,2.031,0,0,1-10-69.217a.452.452,0,0,1,.452-.452.452.452,0,0,1,.452.452,1.109,1.109,0,0,0,.353.816,1.111,1.111,0,0,0,.838.3A1.131,1.131,0,0,0-6.86-69.145a1.123,1.123,0,0,0-.519-1.019,2.212,2.212,0,0,1-1.05-1.867.46.46,0,0,1,.452-.461.444.444,0,0,1,.452.442,1.32,1.32,0,0,0,.63,1.123,2.026,2.026,0,0,1,.937,1.838A2.022,2.022,0,0,1-7.849-67.2C-7.893-67.2-7.936-67.195-7.979-67.195Z" transform="translate(10 72.493)"/>
            </g>
          </g>
        </g>
      </g>
      <g id="Grupo_1013416" data-name="Grupo 1013416" transform="translate(7 60)">
        <circle id="Elipse_7685" data-name="Elipse 7685" cx="26.5" cy="26.5" r="26.5" transform="translate(1342 2969)" fill="#ed9aa9"/>
        <g id="burbuja-de-dialogo" transform="translate(1351.693 2980.225)">
          <path id="Trazado_696211" data-name="Trazado 696211" d="M195.326,25.474a8.7,8.7,0,0,0,2.551-6.079c0-5.189-5.209-9.395-11.14-9.395S176,14.206,176,19.4l10.737,9.395a14.237,14.237,0,0,0,4.846-.84,6.692,6.692,0,0,0,4.952,2.182A4.745,4.745,0,0,1,195.326,25.474Zm0,0" transform="translate(-164.189 -9.329)" fill="#e87288"/>
          <path id="Trazado_696212" data-name="Trazado 696212" d="M26.672,151.342a9.225,9.225,0,0,1,5.2,8.053c0,5.189-4.807,9.395-10.737,9.395a14.238,14.238,0,0,1-4.846-.84,6.692,6.692,0,0,1-4.952,2.182,4.745,4.745,0,0,0,1.209-4.658A8.7,8.7,0,0,1,10,159.395C10,154.206,15.209,150,21.14,150a11.853,11.853,0,0,1,5.533,1.342Zm0,0" transform="translate(-9.329 -139.934)" fill="#cae9fc"/>
          <path id="Trazado_696213" data-name="Trazado 696213" d="M246.671,100a.671.671,0,1,0,.671.671A.671.671,0,0,0,246.671,100Zm0,0" transform="translate(-229.492 -93.289)"/>
          <path id="Trazado_696214" data-name="Trazado 696214" d="M80.671,261.342a.671.671,0,1,0-.671-.671A.671.671,0,0,0,80.671,261.342Zm0,0" transform="translate(-74.631 -242.552)"/>
          <path id="Trazado_696215" data-name="Trazado 696215" d="M22.548,0c-6.041,0-11,4.165-11.384,9.412C5.411,9.7,0,13.849,0,19.461a9.377,9.377,0,0,0,2.617,6.418,4.081,4.081,0,0,1-1.078,3.845.671.671,0,0,0,.474,1.146A7.4,7.4,0,0,0,7.142,28.8a15.292,15.292,0,0,0,4.669.731c6.041,0,11-4.164,11.383-9.41a15.09,15.09,0,0,0,4.023-.716,7.4,7.4,0,0,0,5.129,2.073.671.671,0,0,0,.474-1.146,4.081,4.081,0,0,1-1.078-3.845,9.377,9.377,0,0,0,2.617-6.418C34.359,4.235,28.531,0,22.548,0ZM11.811,28.185a13.566,13.566,0,0,1-4.6-.792.671.671,0,0,0-.743.17A6.055,6.055,0,0,1,3.458,29.35a5.427,5.427,0,0,0,.409-3.994.67.67,0,0,0-.164-.284,8.064,8.064,0,0,1-2.361-5.612c0-4.729,4.794-8.724,10.469-8.724,5.359,0,10.066,3.726,10.066,8.724,0,4.81-4.516,8.724-10.066,8.724ZM30.656,15.677a.673.673,0,0,0-.164.284,5.427,5.427,0,0,0,.409,3.994,6.053,6.053,0,0,1-3.012-1.787.672.672,0,0,0-.743-.17,13.22,13.22,0,0,1-3.954.775,9.606,9.606,0,0,0-3.626-6.694h8.753a.671.671,0,0,0,0-1.342H17.5A12.516,12.516,0,0,0,12.51,9.414c.386-4.507,4.74-8.072,10.038-8.072,5.675,0,10.469,3.995,10.469,8.724a8.064,8.064,0,0,1-2.361,5.612Zm0,0" transform="translate(0 0)"/>
          <path id="Trazado_696216" data-name="Trazado 696216" d="M129.127,260h-8.455a.671.671,0,1,0,0,1.342h8.455a.671.671,0,1,0,0-1.342Zm0,0" transform="translate(-111.947 -242.552)"/>
          <path id="Trazado_696217" data-name="Trazado 696217" d="M91.811,320H80.671a.671.671,0,0,0,0,1.342h11.14a.671.671,0,0,0,0-1.342Zm0,0" transform="translate(-74.631 -298.526)"/>
          <path id="Trazado_696218" data-name="Trazado 696218" d="M295.127,100h-8.455a.671.671,0,1,0,0,1.342h8.455a.671.671,0,0,0,0-1.342Zm0,0" transform="translate(-266.807 -93.289)"/>
        </g>
      </g>
      <path id="Trazado_724652" data-name="Trazado 724652" d="M250.385,239.761c-15.056-2.206-32.612.156-46.765,5.6A98.836,98.836,0,0,0,181.261,258.1c-3.588,2.614-7.022,5.368-10.331,8.321-.961.858-4.223,5.186-5.493,4.777-4.272-1.379,10.243-14.314,11.906-15.6,7.032-5.417,14.436-10.566,22.615-14.1,13.72-5.933,30.082-9.773,45.081-8.748,8.734.6,17.493,1.1,26,3.623a59.561,59.561,0,0,1,10.384,4.158,63.164,63.164,0,0,1,6.9,4c1.612,1.11,3.111,3.358,4.812,4.142.183-3.315-2.641-6.893-2.708-10.339-.08-4.1,2.854-2.324,4.237.025a108.636,108.636,0,0,1,5.492,11.774c1.479,3.377,4.188,7.338.521,9.978-3.22,2.318-7.446,3.442-11.038,5.016-2.4,1.052-7.082,4.577-9.78,2.994-8.432-4.945,12.457-9.543,13.744-10.479-1.092-1.091-2.812-1.712-4.1-2.616-1.854-1.309-3.5-2.868-5.362-4.169a66.06,66.06,0,0,0-11.332-6.307,59.491,59.491,0,0,0-22.427-4.79c-5.447-.8,1.073.008,0,0" transform="translate(617.245 2481.506)" fill="#222221"/>
      <path id="Trazado_724653" data-name="Trazado 724653" d="M216.781,264.044c15.056,2.206,32.612-.156,46.765-5.605A98.837,98.837,0,0,0,285.9,245.708c3.588-2.614,7.022-5.368,10.331-8.321.961-.858,4.223-5.186,5.493-4.777,4.272,1.379-10.243,14.314-11.906,15.6-7.032,5.417-14.436,10.566-22.615,14.1-13.72,5.933-30.082,9.773-45.081,8.748-8.734-.6-17.493-1.105-26-3.623a59.557,59.557,0,0,1-10.384-4.158,63.159,63.159,0,0,1-6.9-4c-1.612-1.11-3.111-3.358-4.812-4.142-.183,3.315,2.641,6.893,2.708,10.339.08,4.1-2.854,2.324-4.237-.025a108.634,108.634,0,0,1-5.492-11.774c-1.479-3.377-4.188-7.338-.521-9.978,3.22-2.318,7.446-3.442,11.038-5.016,2.4-1.052,7.082-4.577,9.78-2.994,8.432,4.945-12.457,9.543-13.744,10.479,1.092,1.091,2.812,1.712,4.1,2.616,1.854,1.309,3.5,2.868,5.362,4.169a66.061,66.061,0,0,0,11.332,6.307,59.49,59.49,0,0,0,22.427,4.79c5.447.8-1.073-.008,0,0" transform="translate(899.488 2544.097)" fill="#222221"/>
      <g id="Grupo_1013436" data-name="Grupo 1013436" transform="translate(-3 111.002)">
        <path id="Trazado_724645" data-name="Trazado 724645" d="M355.819,344.949c-3.545,0-14.06.783-16.8-.988-5.2-3.365,6.832-4.064,8.7-4.138,4.243-.169,13.957-.529,17.408,1.272,6.922,3.611-6.432,3.854-9.314,3.854" transform="translate(658 2600.319)" fill="#f6f6f6"/>
        <path id="Trazado_724654" data-name="Trazado 724654" d="M355.819,344.949c-3.545,0-14.06.783-16.8-.988-5.2-3.365,6.832-4.064,8.7-4.138,4.243-.169,13.957-.529,17.408,1.272,6.922,3.611-6.432,3.854-9.314,3.854" transform="translate(658 2609.879)" fill="#f6f6f6"/>
      </g>
      <g id="Grupo_1013437" data-name="Grupo 1013437">
        <g id="Grupo_1013435" data-name="Grupo 1013435" transform="translate(-3 8.002)">
          <path id="Trazado_724645-2" data-name="Trazado 724645" d="M355.819,344.949c-3.545,0-14.06.783-16.8-.988-5.2-3.365,6.832-4.064,8.7-4.138,4.243-.169,13.957-.529,17.408,1.272,6.922,3.611-6.432,3.854-9.314,3.854" transform="translate(658 2600.319)" fill="#f6f6f6"/>
          <path id="Trazado_724654-2" data-name="Trazado 724654" d="M355.819,344.949c-3.545,0-14.06.783-16.8-.988-5.2-3.365,6.832-4.064,8.7-4.138,4.243-.169,13.957-.529,17.408,1.272,6.922,3.611-6.432,3.854-9.314,3.854" transform="translate(658 2609.879)" fill="#f6f6f6"/>
        </g>
        <path id="Trazado_724655" data-name="Trazado 724655" d="M355.819,344.949c-3.545,0-14.06.783-16.8-.988-5.2-3.365,6.832-4.064,8.7-4.138,4.243-.169,13.957-.529,17.408,1.272,6.922,3.611-6.432,3.854-9.314,3.854" transform="translate(1445.894 2733.26) rotate(109)" fill="#f6f6f6"/>
      </g>
    </g>
  </g>
</svg>
