<svg xmlns="http://www.w3.org/2000/svg" xmlns:xlink="http://www.w3.org/1999/xlink" width="310.829" height="223.639" viewBox="0 0 310.829 223.639">
  <defs>
    <clipPath id="clip-path">
      <path id="Sustracción_51" data-name="Sustracción 51" d="M302.667,205.479H8.161a155.472,155.472,0,1,1,299.51-81.245,156.841,156.841,0,0,1-5,81.245Z" fill="#112e4c" opacity="0.64"/>
    </clipPath>
    <clipPath id="clip-path-2">
      <rect id="Rectángulo_348646" data-name="Rectángulo 348646" width="296.404" height="266.082" fill="none"/>
    </clipPath>
    <clipPath id="clip-path-3">
      <rect id="Rectángulo_348645" data-name="Rectángulo 348645" width="333.893" height="299.736" fill="#ed9aa9"/>
    </clipPath>
    <clipPath id="clip-path-4">
      <rect id="Rectángulo_348643" data-name="Rectángulo 348643" width="72.113" height="72.032" fill="#4db1f0"/>
    </clipPath>
    <clipPath id="clip-path-5">
      <rect id="Rectángulo_348644" data-name="Rectángulo 348644" width="165.067" height="171.468" fill="#4db1f0"/>
    </clipPath>
    <clipPath id="clip-path-6">
      <rect id="Rectángulo_344461" data-name="Rectángulo 344461" width="227.849" height="223.639" fill="none"/>
    </clipPath>
    <filter id="Trazado_696367" x="40.065" y="0.798" width="75.208" height="59.471" filterUnits="userSpaceOnUse">
      <feOffset dy="3" input="SourceAlpha"/>
      <feGaussianBlur stdDeviation="3" result="blur"/>
      <feFlood flood-opacity="0.161"/>
      <feComposite operator="in" in2="blur"/>
      <feComposite in="SourceGraphic"/>
    </filter>
    <clipPath id="clip-path-9">
      <rect id="Rectángulo_344440" data-name="Rectángulo 344440" width="31.558" height="51.91" fill="none"/>
    </clipPath>
    <clipPath id="clip-path-12">
      <rect id="Rectángulo_344448" data-name="Rectángulo 344448" width="3.542" height="4.22" fill="none"/>
    </clipPath>
    <clipPath id="clip-path-13">
      <rect id="Rectángulo_344451" data-name="Rectángulo 344451" width="3.15" height="0.454" fill="none"/>
    </clipPath>
    <clipPath id="clip-path-14">
      <rect id="Rectángulo_344454" data-name="Rectángulo 344454" width="6.382" height="0.454" fill="none"/>
    </clipPath>
  </defs>
  <g id="Grupo_1014516" data-name="Grupo 1014516" transform="translate(-451 -4505.982)">
    <g id="Grupo_1013684" data-name="Grupo 1013684" transform="translate(451 4520.631)">
      <path id="Sustracción_50" data-name="Sustracción 50" d="M301.706,208.234H9.121A155.315,155.315,0,0,1,0,155.591a156.911,156.911,0,0,1,3.157-31.357A154.833,154.833,0,0,1,26.542,68.6,155.89,155.89,0,0,1,94.92,12.227a154.5,154.5,0,0,1,29.173-9.066,156.755,156.755,0,0,1,62.643,0,154.47,154.47,0,0,1,55.572,23.411,156.023,156.023,0,0,1,56.307,68.455,154.943,154.943,0,0,1,9.056,29.206,156.915,156.915,0,0,1,3.157,31.357,155.315,155.315,0,0,1-9.121,52.643Z" transform="translate(0.001 0)" fill="#e1f3fc"/>
      <g id="Grupo_1013683" data-name="Grupo 1013683" transform="translate(0 0)">
        <g id="Grupo_1013682" data-name="Grupo 1013682" clip-path="url(#clip-path)">
          <g id="Grupo_1013679" data-name="Grupo 1013679" transform="translate(14.424 -19.918)" opacity="0.49">
            <g id="Grupo_1013678" data-name="Grupo 1013678" transform="translate(0 0)" clip-path="url(#clip-path-2)">
              <g id="Grupo_1013677" data-name="Grupo 1013677" transform="translate(-19.839 -18.737)">
                <g id="Grupo_1013676" data-name="Grupo 1013676" clip-path="url(#clip-path-3)">
                  <path id="Trazado_726268" data-name="Trazado 726268" d="M217.564,206.582h17.5a7.489,7.489,0,1,1,0,14.978h-17.5a7.489,7.489,0,0,1,0-14.978" transform="translate(-169.62 16.654)" fill="#bde0f3"/>
                  <path id="Trazado_726269" data-name="Trazado 726269" d="M111.611,92.515l9.424-9.424a12.3,12.3,0,0,1,17.391,0L287.036,231.7h5.319a7.485,7.485,0,0,1,6.266,11.585l10.325,10.325a12.3,12.3,0,0,1,0,17.39l-9.424,9.424a12.3,12.3,0,0,1-17.391,0l-33.746-33.746H202.96a7.489,7.489,0,0,1,0-14.978h50.364a7.488,7.488,0,1,0,0-14.976h-34.9L111.611,109.906a12.3,12.3,0,0,1,0-17.391" transform="translate(-108.01 15.71)" fill="#4db1f0" opacity="0.6"/>
                  <path id="Trazado_726270" data-name="Trazado 726270" d="M159.689,24.676A113.219,113.219,0,0,0,75.8,16.231c-2.416-1.872-5.209-3.971-8.306-6.2A113.591,113.591,0,0,1,214.2,87.329a113.2,113.2,0,0,0-54.511-62.652" transform="translate(38.861 0.744)" fill="#c1e4fa"/>
                  <path id="Trazado_726271" data-name="Trazado 726271" d="M55.694,94.929A19.722,19.722,0,1,0,75.416,75.207,19.722,19.722,0,0,0,55.694,94.929" transform="translate(172.054 14.864)" fill="#c1e4fa"/>
                  <path id="Trazado_726272" data-name="Trazado 726272" d="M119.25,3.6,260.469,144.82a.026.026,0,0,1-.018.043H219.431a7.644,7.644,0,0,0-7.716,7.15,7.488,7.488,0,0,0,7.48,7.827h56.283a.025.025,0,0,1,.017.008l14.274,14.272a12.3,12.3,0,0,1,0,17.391L220.03,261.249a12.3,12.3,0,0,1-17.39,0L32.121,90.73a12.3,12.3,0,0,1,0-17.39L101.859,3.6a12.3,12.3,0,0,1,17.391,0" transform="translate(6.366 0)" fill="#c1e4fa"/>
                  <g id="Grupo_1013672" data-name="Grupo 1013672" transform="translate(199.871 190.702)" opacity="0.57">
                    <g id="Grupo_1013671" data-name="Grupo 1013671">
                      <g id="Grupo_1013670" data-name="Grupo 1013670" clip-path="url(#clip-path-4)">
                        <path id="Trazado_726273" data-name="Trazado 726273" d="M51.692,196.305a37.075,37.075,0,0,1,72.114-12.115L78.217,229.778a12.382,12.382,0,0,1-1.8,1.485,37.083,37.083,0,0,1-24.721-34.958" transform="translate(-51.692 -159.231)" fill="#4db1f0"/>
                      </g>
                    </g>
                  </g>
                  <g id="Grupo_1013675" data-name="Grupo 1013675" transform="translate(34.893 59.257)" opacity="0.3">
                    <g id="Grupo_1013674" data-name="Grupo 1013674">
                      <g id="Grupo_1013673" data-name="Grupo 1013673" clip-path="url(#clip-path-5)">
                        <path id="Trazado_726274" data-name="Trazado 726274" d="M276.9,156.6a106.64,106.64,0,0,1-21.48,64.349L115.423,80.951a12.288,12.288,0,0,1-1.22-15.944A107.14,107.14,0,0,1,276.9,156.6" transform="translate(-111.831 -49.478)" fill="#4db1f0"/>
                      </g>
                    </g>
                  </g>
                  <path id="Trazado_726275" data-name="Trazado 726275" d="M97.281,103.98Z" transform="translate(120.104 20.551)" fill="#1c1c1c"/>
                  <path id="Trazado_726276" data-name="Trazado 726276" d="M7.489,148.44H96.883a7.489,7.489,0,1,0,0-14.978H7.489a7.489,7.489,0,1,0,0,14.978" transform="translate(229.521 26.378)" fill="#4db1f0"/>
                  <path id="Trazado_726277" data-name="Trazado 726277" d="M31.163,103.477A10.458,10.458,0,1,0,41.622,93.018a10.459,10.459,0,0,0-10.459,10.459" transform="translate(244.491 18.384)" fill="#b5dff8"/>
                  <path id="Trazado_726278" data-name="Trazado 726278" d="M257.171,154.069A10.458,10.458,0,1,0,267.63,143.61a10.459,10.459,0,0,0-10.459,10.459" transform="translate(-252.194 28.383)" fill="#c1e4fa"/>
                </g>
              </g>
            </g>
          </g>
        </g>
      </g>
    </g>
    <g id="Grupo_1013665" data-name="Grupo 1013665" transform="translate(490.931 4505.982)">
      <g id="Grupo_930161" data-name="Grupo 930161" clip-path="url(#clip-path-6)">
        <g id="Grupo_930139" data-name="Grupo 930139">
          <g id="Grupo_930138" data-name="Grupo 930138" clip-path="url(#clip-path-6)">
            <path id="Trazado_696360" data-name="Trazado 696360" d="M340.208,168.654l-4.375-7.052,2.16-1.338a1.972,1.972,0,0,0,.915-1.856,11.562,11.562,0,0,1-.039-1.241,1.973,1.973,0,0,0-1.03-1.791l-2.239-1.2,3.924-7.316,2.239,1.2a1.972,1.972,0,0,0,2.061-.133,11.592,11.592,0,0,1,1.055-.654,1.973,1.973,0,0,0,1.04-1.79l-.08-2.54,8.3-.258.077,2.549a1.976,1.976,0,0,0,1.157,1.717q.276.13.546.275t.531.3a1.968,1.968,0,0,0,2.061.015l2.176-1.347,4.374,7.052-2.164,1.343a1.973,1.973,0,0,0-.914,1.858,11.5,11.5,0,0,1,.041,1.236,1.971,1.971,0,0,0,1.03,1.789l2.24,1.2-3.924,7.316-2.24-1.2a1.972,1.972,0,0,0-2.06.132,11.425,11.425,0,0,1-1.052.65,1.973,1.973,0,0,0-1.042,1.789l.078,2.546-8.295.258-.079-2.547a1.969,1.969,0,0,0-1.153-1.711q-.277-.131-.55-.278c-.181-.1-.357-.2-.532-.3a1.976,1.976,0,0,0-2.071-.015Zm7.023-5.238a6.8,6.8,0,1,0-2.783-9.2,6.793,6.793,0,0,0,2.783,9.2" transform="translate(-321.168 -64.571)" fill="#4db1f0"/>
            <path id="Trazado_696361" data-name="Trazado 696361" d="M6.449,213.514l-5.864-9.6-.025.107,3.09-1.893a2.758,2.758,0,0,0,1.062-1.511,6.787,6.787,0,0,0,.077-1.833l-.021-.9a2.814,2.814,0,0,0-1.3-2.4L.275,193.755l.062.2,5.342-9.9-.24.073,3.2,1.717a2.875,2.875,0,0,0,2.772-.234l.764-.472.766-.47a2.886,2.886,0,0,0,1.456-2.382l-.1-3.63-.205.218,11.245-.322-.246-.232.107,3.632a2.939,2.939,0,0,0,1.62,2.334l.8.407.78.446a2.94,2.94,0,0,0,2.851.066l3.1-1.9-.376-.088,5.951,9.546.08-.341-3.078,1.929a2.918,2.918,0,0,0-1.2,2.559l.033.9.031.9a2.91,2.91,0,0,0,1.357,2.468l3.2,1.715-.087-.288-5.294,9.93.251-.076-3.205-1.7a2.826,2.826,0,0,0-1.885-.151,6.856,6.856,0,0,0-1.634.869l-.765.474A2.847,2.847,0,0,0,26.3,214.3l.114,3.626.146-.156-11.242.4.1.1-.144-3.618a3.26,3.26,0,0,0-2.349-2.57,3.244,3.244,0,0,0-3.418-.491l-3.064,1.923m0,0,3.088-1.878a3.168,3.168,0,0,1,3.347.535,3.139,3.139,0,0,1,2.246,2.5l.093,3.61,0,.1.1,0,11.245-.3.151,0,0-.152-.1-3.606a2.522,2.522,0,0,1,1.271-2.083l.775-.474.775-.478a2.509,2.509,0,0,1,2.42-.2l3.176,1.706.164.088.088-.164,5.342-9.9.1-.186-.188-.1L37.377,200.8a2.46,2.46,0,0,1-1.135-2.092l-.027-.911-.029-.91a2.447,2.447,0,0,1,1.012-2.143l3.062-1.9.21-.13-.13-.211-5.908-9.573-.143-.233-.233.145L31,184.741a2.417,2.417,0,0,1-2.344-.049l-.793-.449-.814-.408a2.437,2.437,0,0,1-1.357-1.927l-.123-3.6-.008-.239-.238.008-11.243.376-.212.007.007.212.117,3.6a2.484,2.484,0,0,1-1.247,2.056l-.773.48-.772.482a2.494,2.494,0,0,1-2.4.216l-3.184-1.691-.157-.084-.083.157-5.3,9.93L0,193.949l.133.071,3.181,1.7A2.554,2.554,0,0,1,4.5,197.883c.024.452.046,1.364.07,1.815a2.573,2.573,0,0,1-1.04,2.262L.478,203.888l-.066.042L.453,204Z" transform="translate(187.116 -80.582)" fill="#fff"/>
            <path id="Trazado_696362" data-name="Trazado 696362" d="M24.981,215.3A9.351,9.351,0,1,0,26.6,198.134,9.367,9.367,0,0,0,24.981,215.3m0,0a9.077,9.077,0,1,1,12.949-10.72A9.09,9.09,0,0,1,24.981,215.3" transform="translate(178.104 -89.467)" fill="#fff"/>
            <path id="Trazado_696363" data-name="Trazado 696363" d="M71.4,292.227l-5.036-2.905.89-1.542a1.381,1.381,0,0,0-.049-1.449,8,8,0,0,1-.435-.753,1.381,1.381,0,0,0-1.229-.765h-1.78V279h1.78a1.381,1.381,0,0,0,1.229-.764,8.083,8.083,0,0,1,.435-.753,1.381,1.381,0,0,0,.049-1.449l-.89-1.541,5.036-2.905.891,1.548a1.385,1.385,0,0,0,1.283.677c.142-.007.285-.011.428-.011s.286,0,.428.011a1.379,1.379,0,0,0,1.277-.673l.9-1.552,5.036,2.905-.891,1.545a1.383,1.383,0,0,0,.051,1.45,7.948,7.948,0,0,1,.434.749,1.382,1.382,0,0,0,1.228.763h1.78v5.816h-1.78a1.382,1.382,0,0,0-1.228.764,8.074,8.074,0,0,1-.434.75,1.383,1.383,0,0,0-.051,1.45l.891,1.546-5.036,2.905-.892-1.546a1.382,1.382,0,0,0-1.279-.674c-.143.007-.286.011-.431.011s-.286,0-.428-.011a1.386,1.386,0,0,0-1.283.677Zm2.6-5.559a4.762,4.762,0,1,0-4.765-4.76A4.759,4.759,0,0,0,74,286.669" transform="translate(110.285 -119.112)" fill="#4db1f0"/>
            <path id="Trazado_696364" data-name="Trazado 696364" d="M116.339,29.059l2.906-5.036,1.541.89a1.381,1.381,0,0,0,1.449-.049,8,8,0,0,1,.753-.435,1.381,1.381,0,0,0,.765-1.229v-1.78h5.816V23.2a1.382,1.382,0,0,0,.764,1.229,8.076,8.076,0,0,1,.753.435,1.382,1.382,0,0,0,1.449.049l1.541-.89,2.906,5.036-1.548.891a1.385,1.385,0,0,0-.677,1.283q.011.213.011.428c0,.143,0,.286-.011.428a1.38,1.38,0,0,0,.673,1.278l1.553.9L134.076,39.3l-1.545-.891a1.383,1.383,0,0,0-1.45.051,8.009,8.009,0,0,1-.749.434,1.382,1.382,0,0,0-.763,1.228V41.9h-5.816V40.12a1.382,1.382,0,0,0-.764-1.228,8.078,8.078,0,0,1-.749-.434,1.382,1.382,0,0,0-1.449-.051l-1.546.891-2.906-5.036,1.546-.892a1.382,1.382,0,0,0,.674-1.279q-.011-.214-.011-.431t.011-.428a1.385,1.385,0,0,0-.677-1.283Zm5.559,2.6a4.763,4.763,0,1,0,4.76-4.765,4.759,4.759,0,0,0-4.76,4.765" transform="translate(27.176 -9.694)" fill="#4db1f0"/>
            <path id="Trazado_696365" data-name="Trazado 696365" d="M372.155,212.538l3.039-4.868-.109.029,1.631.922a1.561,1.561,0,0,0,.978.139,3.064,3.064,0,0,0,.886-.387c.6-.284,1.222-.661,1.287-1.4.022-.653.014-1.254.023-1.884l-.159.159,5.942.045-.2-.2c0,.633-.019,1.223,0,1.891a1.593,1.593,0,0,0,.913,1.26c.2.114.606.337.805.451a1.708,1.708,0,0,0,1.564.047l1.649-.9-.322-.086,2.957,4.918.1-.355-1.646.9a2.668,2.668,0,0,0,0,3.723l1.639.911-.1-.381-2.957,4.918.348-.093-1.651-.9a1.7,1.7,0,0,0-1.07-.14,3.14,3.14,0,0,0-.921.414c-.635.311-1.261.718-1.326,1.5-.016.673,0,1.259,0,1.893l.241-.241-5.942.025.216.216c-.064-1.055.309-2.595-.936-3.118l-.4-.218a1.888,1.888,0,0,0-1.924-.256l-1.638.914.214.057-3.018-4.881-.038.144,1.623-.922a1.632,1.632,0,0,0,.642-1.7,1.606,1.606,0,0,0-.667-1.663l-1.647-.874m0,0,1.615.927a1.532,1.532,0,0,1,.586,1.611,1.5,1.5,0,0,1-.612,1.568l-1.639.879-.094.05.055.094,2.92,4.94.078.131.136-.073,1.637-.882a1.542,1.542,0,0,1,1.587.272,4.419,4.419,0,0,1,.751.466,1.106,1.106,0,0,1,.344.7c.009.649-.008,1.383-.008,2.062h.217l5.942.025h.239c.008-.683,0-1.437.013-2.084.038-.592.617-.872,1.083-1.111a2.639,2.639,0,0,1,.77-.354,1.2,1.2,0,0,1,.751.1l1.625.9.218.12.13-.214,2.98-4.9.148-.244-.25-.137-1.625-.892a1.047,1.047,0,0,1-.459-.566,2.739,2.739,0,0,1-.047-.84,1.336,1.336,0,0,1,.5-1.415l1.621-.9.233-.129-.138-.226-2.981-4.9-.12-.2-.2.112-1.625.9A1.522,1.522,0,0,1,387,208.06a4.555,4.555,0,0,1-.753-.449,1.087,1.087,0,0,1-.349-.676c-.02-.642-.013-1.376-.024-2.05l-.2,0-5.942.044h-.16v.158c-.085.968.384,2.312-.7,2.827a5.871,5.871,0,0,1-1.218.616,1.346,1.346,0,0,1-.843-.1l-1.643-.878-.07-.037-.039.067Z" transform="translate(-369.443 -92.719)" fill="#ebebeb"/>
            <path id="Trazado_696366" data-name="Trazado 696366" d="M382.624,219.551c-.025,4.22,5.4,6.289,8.426,3.489a4.687,4.687,0,0,0,0-6.984c-3.028-2.8-8.449-.724-8.424,3.495m0,0c-.018-4.111,5.327-5.968,8.1-3.15a4.357,4.357,0,0,1,0,6.295c-2.773,2.819-8.124.967-8.106-3.145" transform="translate(-374.232 -97.194)" fill="#ebebeb"/>
            <path id="Trazado_696372" data-name="Trazado 696372" d="M13.876,67.637A15.023,15.023,0,1,0,28.734,50.413V65.435Z" transform="translate(176.492 -22.814)" fill="#fff"/>
            <path id="Trazado_696373" data-name="Trazado 696373" d="M46.911,59.847a14.9,14.9,0,0,0,.163,2.2l14.858-2.2V44.826A15.008,15.008,0,0,0,46.911,59.847" transform="translate(140.235 -20.286)" fill="#4db1f0"/>
            <line id="Línea_200" data-name="Línea 200" x1="15.975" transform="translate(187.624 48.163)" fill="none" stroke="#c7c7c7" stroke-miterlimit="10" stroke-width="1"/>
            <circle id="Elipse_4789" data-name="Elipse 4789" cx="1.12" cy="1.12" r="1.12" transform="translate(185.385 47.044)" fill="none" stroke="#c7c7c7" stroke-miterlimit="10" stroke-width="1"/>
            <rect id="Rectángulo_344431" data-name="Rectángulo 344431" width="12.408" height="0.56" transform="translate(170.037 47.324)" fill="#c7c7c7"/>
            <rect id="Rectángulo_344432" data-name="Rectángulo 344432" width="7.024" height="0.56" transform="translate(175.421 48.443)" fill="#c7c7c7"/>
            <rect id="Rectángulo_344433" data-name="Rectángulo 344433" width="4.234" height="30.131" transform="translate(57.01 145.18)" fill="#4db1f0"/>
            <rect id="Rectángulo_344434" data-name="Rectángulo 344434" width="4.234" height="22.838" transform="translate(49.732 152.473)" fill="#0098e8"/>
            <rect id="Rectángulo_344435" data-name="Rectángulo 344435" width="4.234" height="11.419" transform="translate(42.454 163.892)" fill="#4db1f0"/>
            <rect id="Rectángulo_344436" data-name="Rectángulo 344436" width="4.234" height="17.941" transform="translate(35.177 157.37)" fill="#0098e8"/>
            <rect id="Rectángulo_344437" data-name="Rectángulo 344437" width="4.234" height="24.791" transform="translate(27.899 150.52)" fill="#4db1f0"/>
            <rect id="Rectángulo_344438" data-name="Rectángulo 344438" width="4.234" height="28.818" transform="translate(20.621 146.493)" fill="#0098e8"/>
            <path id="Trazado_696374" data-name="Trazado 696374" d="M346.338,258.189l-.049,8.491-.024,8.491-.034,16.981.107-.107q-5.837-.016-11.675,0l-11.674.024-11.674.023-11.675.062,11.675.063,11.674.024,11.674.024q5.838.021,11.675,0h.107v-.107l-.034-16.981-.024-8.491Z" transform="translate(-282.638 -116.841)" fill="#ebebeb"/>
            <path id="Trazado_696375" data-name="Trazado 696375" d="M300,261.2a3.7,3.7,0,0,0-1.868,0,3.255,3.255,0,0,0,.934.12,3.316,3.316,0,0,0,.934-.12" transform="translate(-235.365 -118.149)" fill="#ebebeb"/>
            <path id="Trazado_696376" data-name="Trazado 696376" d="M300,265.915a3.313,3.313,0,0,0-.934-.119,3.273,3.273,0,0,0-.934.119,3.238,3.238,0,0,0,.934.12,3.28,3.28,0,0,0,.934-.12" transform="translate(-235.365 -120.283)" fill="#ebebeb"/>
            <path id="Trazado_696377" data-name="Trazado 696377" d="M300,270.63a3.7,3.7,0,0,0-1.868,0,3.256,3.256,0,0,0,.934.12,3.316,3.316,0,0,0,.934-.12" transform="translate(-235.365 -122.416)" fill="#ebebeb"/>
            <path id="Trazado_696378" data-name="Trazado 696378" d="M300,275.345a3.294,3.294,0,0,0-.934-.12,3.254,3.254,0,0,0-.934.12,3.274,3.274,0,0,0,.934.12,3.315,3.315,0,0,0,.934-.12" transform="translate(-235.365 -124.55)" fill="#ebebeb"/>
            <path id="Trazado_696379" data-name="Trazado 696379" d="M300,280.06a3.315,3.315,0,0,0-.934-.12,3.273,3.273,0,0,0-.934.12,3.274,3.274,0,0,0,.934.12,3.316,3.316,0,0,0,.934-.12" transform="translate(-235.365 -126.684)" fill="#ebebeb"/>
            <path id="Trazado_696380" data-name="Trazado 696380" d="M300,284.775a3.316,3.316,0,0,0-.934-.12,3.274,3.274,0,0,0-.934.12,3.273,3.273,0,0,0,.934.12,3.313,3.313,0,0,0,.934-.12" transform="translate(-235.365 -128.818)" fill="#ebebeb"/>
            <path id="Trazado_696381" data-name="Trazado 696381" d="M300,289.49a3.314,3.314,0,0,0-.934-.12,3.272,3.272,0,0,0-.934.12,3.275,3.275,0,0,0,.934.12,3.316,3.316,0,0,0,.934-.12" transform="translate(-235.365 -130.951)" fill="#ebebeb"/>
            <path id="Trazado_696382" data-name="Trazado 696382" d="M300,294.2a3.313,3.313,0,0,0-.934-.12,3.272,3.272,0,0,0-.934.12,3.274,3.274,0,0,0,.934.12,3.315,3.315,0,0,0,.934-.12" transform="translate(-235.365 -133.085)" fill="#ebebeb"/>
            <path id="Trazado_696383" data-name="Trazado 696383" d="M300,298.919a3.313,3.313,0,0,0-.934-.12,3.271,3.271,0,0,0-.934.12,3.273,3.273,0,0,0,.934.12,3.315,3.315,0,0,0,.934-.12" transform="translate(-235.365 -135.218)" fill="#ebebeb"/>
            <path id="Trazado_696384" data-name="Trazado 696384" d="M300,303.634a3.315,3.315,0,0,0-.934-.12,3.273,3.273,0,0,0-.934.12,3.7,3.7,0,0,0,1.868,0" transform="translate(-235.365 -137.352)" fill="#ebebeb"/>
            <path id="Trazado_696385" data-name="Trazado 696385" d="M300,308.349a3.316,3.316,0,0,0-.934-.12,3.256,3.256,0,0,0-.934.12,3.274,3.274,0,0,0,.934.12,3.316,3.316,0,0,0,.934-.12" transform="translate(-235.365 -139.486)" fill="#ebebeb"/>
            <path id="Trazado_696386" data-name="Trazado 696386" d="M300,313.064a3.315,3.315,0,0,0-.934-.12,3.274,3.274,0,0,0-.934.12,3.7,3.7,0,0,0,1.868,0" transform="translate(-235.365 -141.619)" fill="#ebebeb"/>
            <g id="Grupo_1013685" data-name="Grupo 1013685" transform="translate(8.666 6.389)">
              <g transform="matrix(1, 0, 0, 1, -48.6, -6.39)" filter="url(#Trazado_696367)">
                <path id="Trazado_696367-2" data-name="Trazado 696367" d="M352.3.858V34.234h-4.684v8.1l-8.1-8.1H295.089V.858Z" transform="translate(-246.02 5.94)" fill="#fff"/>
              </g>
              <path id="Trazado_696368" data-name="Trazado 696368" d="M352.165.409c-.121,9.836-.216,23.7-.285,33.375l.285-.285-4.684-.025-.309,0v.312l-.044,8.1.6-.25L339.672,33.5l-.118-.119c-13.145-.026-31.631-.072-44.6-.06l.466.467L295.363.409l-.406.406c14.26-.056,42.949-.279,57.208-.406m0,0C337.7.281,309.019.059,294.551,0V.409l-.06,33.375v.465c13.028.04,31.676-.057,44.9-.059l-.288-.119,8.133,8.059.609.6,0-.853-.044-8.1-.31.31,4.684-.026h.286c0-9.832-.229-23.707-.286-33.658" transform="translate(-294.489)" fill="#ebebeb"/>
              <path id="Trazado_696369" data-name="Trazado 696369" d="M383.279,32.917a2.711,2.711,0,1,1-2.71-2.71,2.71,2.71,0,0,1,2.71,2.71" transform="translate(-365.022 -15.821)" fill="#0098e8"/>
              <path id="Trazado_696370" data-name="Trazado 696370" d="M354.877,32.917a2.71,2.71,0,1,1-2.71-2.71,2.71,2.71,0,0,1,2.71,2.71" transform="translate(-323.093 -15.821)" fill="#0098e8"/>
              <path id="Trazado_696371" data-name="Trazado 696371" d="M326.476,32.917a2.71,2.71,0,1,1-2.71-2.71,2.71,2.71,0,0,1,2.71,2.71" transform="translate(-281.166 -15.821)" fill="#0098e8"/>
            </g>
          </g>
        </g>
        <path id="Trazado_696387" data-name="Trazado 696387" d="M345.305,97.391l-5.587-17.823-3.184,2.261Z" transform="translate(-301.696 -36.008)" fill="#ffa031"/>
        <path id="Trazado_696388" data-name="Trazado 696388" d="M360.607,116.987,345.4,113.275l-.854,4.194Z" transform="translate(-321.383 -51.261)" fill="#ffa031"/>
        <path id="Trazado_696389" data-name="Trazado 696389" d="M364.514,98.4l-19.18-18.471-3.7,5.1Z" transform="translate(-323.696 -36.172)" fill="#ffa031"/>
        <g id="Grupo_930144" data-name="Grupo 930144">
          <g id="Grupo_930143" data-name="Grupo 930143" clip-path="url(#clip-path-6)">
            <path id="Trazado_696390" data-name="Trazado 696390" d="M235.485,370.138h52.244q1.47-4.361,2.776-8.535c1.073-3.438,1.965-6.756,2.661-9.9.164-.745.318-1.484.46-2.212.279-1.429.52-2.819.712-4.166.974-6.761.832-12.378-.553-16.188-1.232-3.405-3.46-5.365-6.778-5.4-.131-.005-.268-.005-.4,0-.268.006-.536.027-.816.06-5.321.613-13.068,5.6-23.563,16.5q-3.769,3.925-8.026,8.891-1.412,1.651-2.923,3.383c-4.719,5.431-10.112,11.415-15.794,17.573" transform="translate(-196.034 -146.499)" fill="#ad6359"/>
            <path id="Trazado_696391" data-name="Trazado 696391" d="M220.374,362.653h69.15c1.336-3.422,2.579-6.712,3.7-9.827q1.256-3.49,2.245-6.723c.268-.876.526-1.741.761-2.589h.005q.723-2.537,1.27-4.905c.235-1,.449-1.965.635-2.918.181-.892.345-1.768.487-2.622.093-.569.181-1.128.257-1.681s.148-1.095.213-1.626c.1-.843.181-1.659.235-2.458.033-.427.06-.849.082-1.259,0-.071.005-.142.011-.214.257-5.661-.531-10.084-2.223-13.194a9.832,9.832,0,0,0-5.239-4.757,3.5,3.5,0,0,0-.4-.148c-2.606-.859-5.792-.712-9.466.493h-.005c-4.725,1.549-10.248,4.84-16.375,9.953-12.553,10.484-29.349,27.461-45.346,44.476" transform="translate(-192.272 -139.013)" fill="#ffc727"/>
            <path id="Trazado_696392" data-name="Trazado 696392" d="M307.5,359.131a35.146,35.146,0,0,1-4.128,11.4c-1.434,2.464-4.172,5.836-7.3,3.777a4.519,4.519,0,0,1-1.533-1.768c4.314-4.566,8.683-9.093,12.964-13.413m15.126,18.3h-6.476c2.19-1.363,4.692-1.943,6.476,0m-6.252-27.149c3.8-3.734,7.522-7.27,11.015-10.446a7.377,7.377,0,0,1,.892,5.146,19.693,19.693,0,0,1-.318,2.6,29.484,29.484,0,0,1-2.8,8.141c-1.079,2-3.022,5.425-5.754,5.382a2.92,2.92,0,0,1-2.4-1.248,7.935,7.935,0,0,1-1.248-4.243,28.073,28.073,0,0,1,.608-5.332" transform="translate(-261.768 -153.788)" fill="#263238"/>
            <g id="Grupo_930142" data-name="Grupo 930142" transform="translate(75.643 171.729)" opacity="0.1">
              <g id="Grupo_930141" data-name="Grupo 930141" transform="translate(0)">
                <g id="Grupo_930140" data-name="Grupo 930140" clip-path="url(#clip-path-9)">
                  <path id="Trazado_696393" data-name="Trazado 696393" d="M220.377,365.593h21.6c1.341-3.422,2.584-6.712,3.7-9.827q1.256-3.49,2.25-6.723c.268-.876.526-1.741.766-2.589q.723-2.537,1.27-4.9l.005-.005c.235-1,.449-1.965.635-2.918.181-.892.345-1.768.487-2.622.093-.569.181-1.128.257-1.681s.148-1.095.214-1.626c.892-7.577.164-13.32-1.916-17.114a11.693,11.693,0,0,0-1.281-1.905l-1.61,2.984-4.27,7.922-5.622,10.429-2.037,3.777-.526.969-7.993,14.825L222.1,362.4Z" transform="translate(-220.377 -313.683)"/>
                </g>
              </g>
            </g>
            <path id="Trazado_696394" data-name="Trazado 696394" d="M210.741,358h35.027c0-5.809-.005-11.431-.011-16.736-.005-1.035-.005-2.058-.005-3.071-.005-1.911-.011-3.777-.016-5.59-.033-13.15-.093-23.513-.12-28.643v-.005c-.016-2.272-.027-3.52-.027-3.52l.318-1.193.624-2.338a40.284,40.284,0,0,0-13.183,6.175q-1.1.772-2.212,1.675a36.958,36.958,0,0,0-5.206,5.157c-.164.2-.323.389-.482.591-.279.356-.553.717-.821,1.089-.307.411-.6.832-.887,1.27v.005a35.476,35.476,0,0,0-3.487,6.674c-2.294,5.809-5.42,19.128-8.836,35.267q-.328,1.577-.673,3.192" transform="translate(-134.052 -134.36)" fill="#ffc727"/>
            <path id="Trazado_696395" data-name="Trazado 696395" d="M66.271,359.022H178.292c-13.484-22.309-26.3-41.24-33.127-48.116a27.639,27.639,0,0,0-2.912-2.557,35.889,35.889,0,0,0-6.756-4.1,47.277,47.277,0,0,0-7.336-2.737c-1.38-.4-2.787-.739-4.21-1.035a67.688,67.688,0,0,0-20.305-.953h-.005c-1.73.181-3.422.427-5.064.739a44.743,44.743,0,0,0-12.159,3.985,26.6,26.6,0,0,0-2.611,1.527,18.024,18.024,0,0,0-4.675,4.347c-.175.246-.356.515-.531.81-.115.192-.23.389-.345.6q-.279.509-.558,1.084-.665,1.38-1.341,3.153v.005c-2.672,7.04-5.414,18.559-8.059,32.245-.679,3.537-1.358,7.216-2.026,11" transform="translate(13.276 -135.382)" fill="#ebebeb"/>
            <path id="Trazado_696396" data-name="Trazado 696396" d="M208.49,322.429A127.291,127.291,0,0,1,196.073,336.6a57.359,57.359,0,0,1-14.831,10.828,26.422,26.422,0,0,1-17.394,2.5c-5.807-1.278-10.76-5.813-13.133-11.7a18.271,18.271,0,0,0,12.469,14.04c6.449,2.038,13.519.822,19.41-2.029a49.858,49.858,0,0,0,15.231-11.96,70.112,70.112,0,0,0,10.666-15.848" transform="translate(-63.151 -145.912)" fill="#c7c7c7"/>
            <path id="Trazado_696397" data-name="Trazado 696397" d="M53.161,359.135H112.38c-11.371-22.008-21.165-40.266-24.975-44.99a.005.005,0,0,1-.005-.005,8.087,8.087,0,0,0-.619-.706c-4.582-4.549-11.2-7.8-17.2-10.019a90.443,90.443,0,0,0-14.431-4s-.027.772-.082,2.212c-.1,2.918-.312,8.562-.564,16q-.041,1.133-.082,2.316c-.367,10.675-.827,24.548-1.265,39.2" transform="translate(86.365 -135.496)" fill="#ffc727"/>
            <path id="Trazado_696398" data-name="Trazado 696398" d="M118.043,350.98v-.005c.038-.093.082-.181.126-.268.055-.109.115-.214.175-.312,0-.005.005-.005.011-.011a3.513,3.513,0,0,1,.213-.285v-.006a1.539,1.539,0,0,1,.159-.17c.082-.082.164-.153.246-.224h.005a2.724,2.724,0,0,1,.257-.181,1.465,1.465,0,0,1,.181-.1,2.314,2.314,0,0,1,.564-.2c.033-.011.071-.016.1-.027h.005a3.854,3.854,0,0,1,1.8.142,12.519,12.519,0,0,1,3.624,1.965,29.563,29.563,0,0,1,3.832,3.378c.405.422.8.859,1.182,1.308.257.3.5.608.75.92s.482.624.717.947a23.532,23.532,0,0,1,3.969,8.442c.148.339.29.673.416,1.013q.09.222.164.443c.044.126.088.252.126.378.055.159.1.318.142.471.542,1.905.564,3.63-.372,4.73a2.389,2.389,0,0,1-.164.175,3.027,3.027,0,0,1-.372.312H135.9a3.758,3.758,0,0,1-1.259.564,1.019,1.019,0,0,1-.186.033,1.042,1.042,0,0,1-.181.033,3.836,3.836,0,0,1-1.648-.2c-.153-.049-.312-.109-.471-.175l-.005-.005a5.142,5.142,0,0,1-.558-.263c-.175-.088-.35-.186-.52-.29-.153-.093-.3-.186-.454-.29a18.353,18.353,0,0,1-1.856-1.451c-.082-.071-.159-.142-.235-.214s-.137-.12-.208-.192c-.148-.131-.29-.263-.432-.4-.066-.06-.131-.12-.2-.186-.235-.219-.454-.438-.662-.635-.175-.175-.339-.334-.487-.476-.285-.274-.569-.558-.849-.849-.213-.219-.422-.438-.63-.668-.241-.257-.476-.526-.712-.794s-.465-.542-.69-.816v-.006a28.871,28.871,0,0,1-4.308-7.084c-.854-2.069-2.31-6.017-1.308-8.475" transform="translate(26.219 -157.999)" fill="#263238"/>
            <path id="Trazado_696399" data-name="Trazado 696399" d="M30.13,331.944v.005c1.462,6.29,4.872,13.834,10.3,22.013.613.925,1.237,1.867,1.867,2.836l.005.006c1.56,2.4,3.181,4.927,4.84,7.566H95.9c-15.488-15.4-39.648-52.441-58.3-53.377-8.6-.432-9.969,10.161-7.467,20.951" transform="translate(116.07 -140.731)" fill="#ad6359"/>
            <path id="Trazado_696400" data-name="Trazado 696400" d="M26.507,320.664a44.657,44.657,0,0,0,1.741,11.272v.005q.345,1.281.761,2.617c.109.345.219.7.334,1.046.175.531.356,1.073.547,1.626.142.4.285.8.432,1.21.126.35.257.712.394,1.068s.268.723.411,1.089c.553,1.462,1.144,2.978,1.774,4.533.153.389.312.783.476,1.177s.323.794.487,1.193v.005c1.943,4.714,4.172,9.794,6.6,15.093H97.325c-.1-.1-17.125-22.448-30.509-36.689C54.5,312.8,40.236,304.428,32.759,307.826c-3.767,1.712-5.918,5.546-6.219,11.217v.005c-.027.52-.044,1.057-.033,1.615" transform="translate(116.014 -138.96)" fill="#ffc727"/>
            <path id="Trazado_696401" data-name="Trazado 696401" d="M117.83,350.707c.055-.109.115-.214.175-.312,0-.005.005-.005.011-.011a3.515,3.515,0,0,1,.214-.285v-.006a1.541,1.541,0,0,1,.159-.17,1.9,1.9,0,0,1,.246-.224h.005a2.722,2.722,0,0,1,.257-.181,1.464,1.464,0,0,1,.181-.1,2.314,2.314,0,0,1,.564-.2v-.005a.905.905,0,0,1,.1-.022h.005a3.854,3.854,0,0,1,1.8.142,12.519,12.519,0,0,1,3.624,1.965,29.562,29.562,0,0,1,3.832,3.378c.405.422.8.859,1.183,1.308.257.3.5.608.75.92s.482.624.717.947a23.532,23.532,0,0,1,3.969,8.442c.148.339.29.673.416,1.013q.09.222.164.443c.044.126.088.252.126.378.055.159.1.318.142.471.542,1.905.564,3.63-.372,4.73-.049.06-.1.115-.164.175a3.029,3.029,0,0,1-.372.312h-.005a3.844,3.844,0,0,1-1.265.558c-.06.011-.12.027-.181.038a1.042,1.042,0,0,1-.181.033,3.836,3.836,0,0,1-1.648-.2c-.153-.049-.312-.109-.471-.175l-.005-.005a5.138,5.138,0,0,1-.558-.263c-.175-.088-.35-.186-.52-.29-.153-.093-.3-.186-.454-.29a18.35,18.35,0,0,1-1.856-1.451c-.082-.071-.159-.142-.235-.214s-.137-.12-.208-.192c-.148-.131-.29-.263-.432-.4-.066-.06-.131-.12-.2-.186-.235-.219-.454-.438-.662-.635-.175-.175-.339-.334-.487-.476-.285-.274-.569-.558-.849-.849-.214-.219-.422-.438-.63-.668-.241-.257-.476-.526-.712-.794s-.465-.542-.69-.816v-.006c-.164-.4-.328-.8-.487-1.193s-.323-.788-.476-1.177c-.63-1.555-1.221-3.071-1.774-4.533-.142-.367-.279-.728-.411-1.089s-.268-.717-.394-1.068c-.148-.405-.29-.81-.432-1.21-.192-.553-.372-1.095-.547-1.626-.115-.35-.224-.7-.334-1.046q-.419-1.339-.761-2.617v-.005c.038-.093.082-.181.126-.268" transform="translate(26.558 -157.999)" fill="#263238"/>
            <path id="Trazado_696402" data-name="Trazado 696402" d="M131.522,406.23c.2.378.394.761.6,1.139h.509c-.268-.432-.542-.859-.816-1.292a.164.164,0,0,0-.29.153" transform="translate(23.23 -183.729)" fill="#263238"/>
            <path id="Trazado_696403" data-name="Trazado 696403" d="M76.384,105.468c.049-.022.1.049.055.077-5.25,3.537-8.393,9.975-5.956,16.26,2.086,5.371,6.646,7.73,11.7,8.289-4.341-2.13-8.086-5.584-9.586-10.237a13.1,13.1,0,0,1,4.007-14.2c-4-4.675-6.668-11-5.228-17.059A13.041,13.041,0,0,1,81.94,78.571c-3-5.3-2.765-12.186,1.068-16.9a15.4,15.4,0,0,1,15.219-5.02,12.3,12.3,0,0,1,11.453-17.6,8.262,8.262,0,0,1,2.956-8.59c2.94-2.4,6.947-2.677,10.686-2.272a9.831,9.831,0,0,1,7.051-6.553,9.524,9.524,0,0,1,10.7,5.666c5.25-2.978,11.382-5.469,17.574-4.122,5.1,1.111,9.832,4.889,10.823,10.079A18.823,18.823,0,0,1,194.367,45.39a13.334,13.334,0,0,1,11.8,5.442,19.241,19.241,0,0,1,3.838,8.387,9.958,9.958,0,0,1,9.378,6.46c1.44,3.794.52,7.435-1.292,10.719a7.324,7.324,0,0,0,.942,3.11,16.518,16.518,0,0,1,.378,15.718c4.971,4.642,4.555,13.084-.816,16.982a12.485,12.485,0,0,1-5.053,17.064,18.37,18.37,0,0,1-.17,15.455c-1.812,3.69-5.464,6.991-9.756,6.586,1.051,3.115-1.467,6.263-4.44,7.369a16.091,16.091,0,0,1-3.52.8c-1.418.186-3.3.044-4.566.728-1.33.7-1.9,2.327-2.743,3.465a14.338,14.338,0,0,1-2.08,2.234,17.115,17.115,0,0,1-17.36,2.6,15.839,15.839,0,0,1-3.969-2.294c-2.934,3.909-8.086,4.675-12.838,3.892-.564-.093-1.122-.208-1.67-.339A29.6,29.6,0,0,1,145.561,168a15.063,15.063,0,0,0-1.648-.63,6.048,6.048,0,0,0-2.8-.224c-1,.164-1.938.547-2.934.717-3.383.569-6.29-1.051-8.973-2.956a14.478,14.478,0,0,1-8.13,5.2h-.005c-8.683,1.922-18.444-4.823-20.294-14.77a16.93,16.93,0,0,1-14.59-5.77l-.005-.005a15.122,15.122,0,0,1-1.057-1.418,15.948,15.948,0,0,1-.87-15.718v-.005c-.005-.005-.005-.005,0-.011s-.005-.005,0-.011c.159-.328.328-.651.515-.969-.164.006-.334.011-.5.006-6.3.082-12.455-2.754-14.858-9.2-2.551-6.843.838-13.544,6.98-16.763M210.117,60.2s1.287.6,1.878.964a13.617,13.617,0,0,1,6.17,9.455,13.676,13.676,0,0,1-.006,3.444c-.016.153-.016.279-.027.427a12.074,12.074,0,0,0,.6-6.668,10.492,10.492,0,0,0-8.655-8.146c.033.318.044.526.044.526M130.549,22.468a8.229,8.229,0,0,0-6.017,5.874c.022,0,.044.005.066.005a10.458,10.458,0,0,1,4.736-3.476,10.034,10.034,0,0,1,10.949,2.874c.093-.055.192-.1.285-.159-2.261-3.569-5.3-6.236-10.019-5.119m-9.7,146.577h.005a16.55,16.55,0,0,0,7.8-4.528c-.038-.027-.082-.055-.12-.082a17.346,17.346,0,0,1-8.009,3.066v.006a18.321,18.321,0,0,1-16.468-6.931c4.1,6.077,10.3,9.953,16.8,8.469" transform="translate(-32.575 -9.694)" fill="#263238"/>
            <path id="Trazado_696404" data-name="Trazado 696404" d="M180.146,304.959c11.7,2.083,30.922-9.175,37.948-23.911.476-1.013-5.79-40-6.231-47.849l-48.588,14.725s5.764,16.192,6.447,29.889a17.642,17.642,0,0,1-.158,3.243c-.008.148-.041.33-.042.538-.654,6.178-.682,21.345,10.624,23.367" transform="translate(-79.658 -105.531)" fill="#ad6359"/>
            <path id="Trazado_696405" data-name="Trazado 696405" d="M186.99,281.89c0,.138-.038.31-.04.517a31.386,31.386,0,0,0,5.069.015c28.471-2.239,33.23-37.5,33.982-47.392L213.862,238.7l-33.168,10.054s5.772,16.2,6.432,29.891a16.763,16.763,0,0,1-.135,3.24" transform="translate(-97.075 -106.36)" fill="#263238"/>
            <path id="Trazado_696406" data-name="Trazado 696406" d="M247.131,108.083c4.218,18.193-8.718,69.029-22.179,79.64-19.514,15.381-49.707,14.912-62.332-8.144-12.238-22.348,5.793-88.3,20.664-97.763,21.906-13.935,57.616-.607,63.847,26.267" transform="translate(-106.906 -34.492)" fill="#ad6359"/>
            <path id="Trazado_696407" data-name="Trazado 696407" d="M250.209,183.806c.06-.123.228.23.188.37-.963,3.4-1.493,7.459,1.324,9.369.087.059.035.229-.076.185-3.652-1.476-2.894-6.855-1.436-9.923" transform="translate(-160.235 -83.168)" fill="#263238"/>
            <path id="Trazado_696408" data-name="Trazado 696408" d="M243.487,178.647c5.618.956,3.293,12.122-1.912,11.237-5.123-.872-2.8-12.039,1.912-11.237" transform="translate(-149.558 -80.826)" fill="#263238"/>
            <path id="Trazado_696409" data-name="Trazado 696409" d="M295.373,175.977c0-.138-.305.107-.33.249-.612,3.482-1.9,7.367-5.264,7.864-.1.015-.131.192-.012.2,3.93.258,5.585-4.917,5.605-8.312" transform="translate(-226.118 -79.618)" fill="#263238"/>
            <path id="Trazado_696410" data-name="Trazado 696410" d="M295.52,168.11c-5.475-1.581-8.234,9.486-3.161,10.95,4.992,1.442,7.751-9.626,3.161-10.95" transform="translate(-228.602 -76.007)" fill="#263238"/>
            <path id="Trazado_696411" data-name="Trazado 696411" d="M241,162.953a44.525,44.525,0,0,0-4.517-1.238c-1.738-.457-3.075-1-4.847-.385a2.412,2.412,0,0,0-1.345,2.62c.543,2.22,2.533,3.308,4.6,3.943a8.788,8.788,0,0,0,6.326-.24c2.106-.855,1.757-3.955-.22-4.7" transform="translate(-140.852 -72.884)" fill="#263238"/>
            <path id="Trazado_696412" data-name="Trazado 696412" d="M283.2,146.814a44.285,44.285,0,0,0,4.675-.287c1.793-.13,3.233-.049,4.711-1.2a2.411,2.411,0,0,0,.426-2.914c-1.23-1.925-3.465-2.311-5.629-2.243a8.783,8.783,0,0,0-5.91,2.269c-1.716,1.49-.384,4.312,1.727,4.377" transform="translate(-219.134 -63.428)" fill="#263238"/>
            <path id="Trazado_696413" data-name="Trazado 696413" d="M277.142,244.1c-.765.9-1.5,2.117-2.764,2.345a9.332,9.332,0,0,1-3.865-.527.124.124,0,0,0-.136.195,4.758,4.758,0,0,0,4.646,1.487c1.566-.429,2.223-1.88,2.471-3.373.034-.209-.241-.258-.353-.126" transform="translate(-197.654 -110.433)" fill="#263238"/>
            <path id="Trazado_696414" data-name="Trazado 696414" d="M279.959,190.622a11.779,11.779,0,0,1-8.657,3.792,14.815,14.815,0,0,1-4.207-.547,4.218,4.218,0,0,1-.781-.233c-.243-.074-.463-.143-.726-.247a.861.861,0,0,1-.549-.884l.006-.025a1.621,1.621,0,0,1,.094-.343l0-.025.059-.3c.393-2.635,1.353-6.581,1.353-6.581-1.043.312-6.32,1.645-6,.287,2.685-11.225,5.671-23.71,10.714-34.313a.321.321,0,0,1,.607.2c-2.154,10.891-6.208,21.33-8.546,32.236,1.665-.317,4.4-.964,5.771-.694.353.174-1.992,7.591-2.074,8.789a.424.424,0,0,0,0,.129c4.307,1.343,7.865.6,12.668-1.6.288-.149.517.128.264.362" transform="translate(-194.855 -68.339)" fill="#263238"/>
            <path id="Trazado_696415" data-name="Trazado 696415" d="M141.734,98.579c2.179-4.341,4.44-5.026,4.44-5.026s.673-5.382,6.422-11.628c6.017-6.537,11.65-6.767,11.65-6.767s3.17-2.748,9.575-4.259a36.047,36.047,0,0,1,6.515-.925c2.475-.131,9.81.717,11.957,1.922,2.469,1.4,5.42.383,8.135.69a18.1,18.1,0,0,1,7.172,2.376,19.528,19.528,0,0,1,4.944,4.068,30.293,30.293,0,0,1,2.256,3.11,8.614,8.614,0,0,0,4.292,3.329,15.626,15.626,0,0,1,8.414,9.668,20.063,20.063,0,0,1,.783,8.2c-.318,3.449,3.077,5.535,4.029,8.666a11.736,11.736,0,0,1,.438,2.053,13.047,13.047,0,0,1-4.7,11.7c4.068,3.81,4.8,11.217,1.653,16.555a11.344,11.344,0,0,1-2.453,2.918c-.1.082-.2.164-.3.241a11.983,11.983,0,0,1-1.807,1.172,18.412,18.412,0,0,1-6.1,1.812,10.545,10.545,0,0,1-2.272.06c-.241.005-.476.005-.712-.005a10.024,10.024,0,0,1-1.467-.159,10.236,10.236,0,0,1-1.965-.575,11.992,11.992,0,0,1-4.642-3.372,13.506,13.506,0,0,1-2.1-3.307,13.734,13.734,0,0,1,.066-11.371v-.077s-9.6,2.34-13.746-4.711c-2.54-4.319-2.83-9.827-2.184-15.077-10.927,5.036-24.1-3.077-24.2-16.282-3.29,2.781-10.443,6.129-14.1,4.438-3.1,11.152-9.036,10.927-11.3,10.78a.743.743,0,0,1-.159-.016c-.285-.044-1.046-5.212,1.462-10.194m64.673,40.579a13.3,13.3,0,0,0,2.825,4.653,5.382,5.382,0,0,0,.389.411c-.115-.153-.225-.307-.329-.465a13.432,13.432,0,0,1-1.341-2.491,15.951,15.951,0,0,1-.712-2.108,32.489,32.489,0,0,1-.821-8.743,13.075,13.075,0,0,0-.01,8.743m-27.756-30.113c-5.584-2.381-9.942-7.73-11.464-14.847.794,8.174,5.414,12.942,11.464,14.847" transform="translate(-81.617 -31.66)" fill="#263238"/>
            <path id="Trazado_696416" data-name="Trazado 696416" d="M204.31,119.641c-7.264,6.283-18.948,5.945-27.928.394-5.889-3.64-8.949-11.873-14.515-18.973-9.165-11.693-30.84-14.432-25.033-32.539,5.163-16.1,32.014-18.007,55.151-4.433,20.44,11.992,28.646,41.432,12.325,55.551" transform="translate(-59.506 -24.914)" fill="#fff"/>
            <path id="Trazado_696417" data-name="Trazado 696417" d="M216.5,182.25a12.973,12.973,0,0,1,.422-1.308v-.005c.12-.318.246-.635.389-.942a16.073,16.073,0,0,1,20.283-8.48c.367.137.723.285,1.073.449a16.094,16.094,0,0,1,9.055,11.447,16.276,16.276,0,0,1,.285,2.135,16.077,16.077,0,0,1-21.663,16.068,15.628,15.628,0,0,1-3.312-1.7c-.219-.142-.433-.3-.646-.454A16.1,16.1,0,0,1,216.5,182.25M227.1,199.6a13.918,13.918,0,1,0-8.168-17.907A13.932,13.932,0,0,0,227.1,199.6" transform="translate(-138.395 -77.157)" fill="#ffc727"/>
            <path id="Trazado_696418" data-name="Trazado 696418" d="M287.591,168.9a19.148,19.148,0,0,1,5.814-10.188,12.428,12.428,0,0,1,4.686-2.65,9.352,9.352,0,0,1,4.741-.153c3.181.728,5.765,3.082,7.27,6.624a17.392,17.392,0,0,1,1.325,6.017v.005a19.888,19.888,0,0,1-.011,2.135,21.281,21.281,0,0,1-.3,2.464c-.06.361-.137.728-.219,1.089a20.554,20.554,0,0,1-2.836,6.717c-2.858,4.33-7.139,6.9-11.371,6.444a9.826,9.826,0,0,1-1.04-.175,9.074,9.074,0,0,1-2.907-1.237c-4.549-2.929-6.816-9.865-5.157-17.092m5.371,14.59a7.282,7.282,0,0,0,3.175,1.648c5.294,1.215,10.96-3.9,12.674-11.376a20.207,20.207,0,0,0,.422-2.694v-.005c.027-.274.044-.553.055-.827v-.006c.022-.46.022-.914.005-1.369v-.005a15.326,15.326,0,0,0-1.161-5.48c-.115-.274-.241-.537-.378-.794a8.256,8.256,0,0,0-5.4-4.577,7.854,7.854,0,0,0-.8-.137,7.77,7.77,0,0,0-4.133.745,10.993,10.993,0,0,0-2.6,1.714,17.046,17.046,0,0,0-5.135,9.055c-1.325,5.792.109,11.343,3.279,14.108" transform="translate(-240.749 -70.449)" fill="#ffc727"/>
            <path id="Trazado_696419" data-name="Trazado 696419" d="M279.263,188.333l1.714-1.3c-1.918-2.537-6.8-6.478-11.557-3.262l1.2,1.779c4.261-2.888,8.464,2.549,8.642,2.779" transform="translate(-200.625 -82.618)" fill="#ffc727"/>
            <path id="Trazado_696420" data-name="Trazado 696420" d="M182.278,204.835l1.958-.884c-.415-.913-4.169-8.946-8.918-9.976-4.44-.949-30.132-.187-31.359-.135l.091,2.146c8.282-.348,27.385-.655,30.813.09,3.135.679,6.415,6.553,7.416,8.759" transform="translate(-35.199 -87.567)" fill="#ffc727"/>
            <path id="Trazado_696421" data-name="Trazado 696421" d="M151.212,199.835s13.1-15.591,20.271-10.778-3.7,28.133-12.849,30.643S147,213.79,147,213.79Z" transform="translate(-26.437 -85.139)" fill="#ad6359"/>
            <path id="Trazado_696422" data-name="Trazado 696422" d="M173.4,201.888a.123.123,0,0,1,.025.241c-6.431,1.964-10.21,7.432-13.028,13.2,2.05-2.134,4.676-3.169,7.559-.7.151.13-.027.37-.2.317-2.5-.77-4.369-.492-6.268,1.393a26.849,26.849,0,0,0-3.356,4.671c-.34.53-1.316.144-1.048-.477.02-.045.043-.093.064-.139.545-7.93,7.68-18.462,16.25-18.505" transform="translate(-31.635 -91.362)" fill="#263238"/>
            <path id="Trazado_696423" data-name="Trazado 696423" d="M193.987,64.284v5.349a1.022,1.022,0,0,0,1.023,1.023,1.046,1.046,0,0,0,.807-.4,2.132,2.132,0,1,1,0,2.7,1.048,1.048,0,0,0-.807-.4,1.022,1.022,0,0,0-1.023,1.022v5.349h5.349a1.023,1.023,0,0,1,1.022,1.023,1.046,1.046,0,0,1-.4.807,2.133,2.133,0,1,0,2.7,0,1.047,1.047,0,0,1-.4-.807,1.023,1.023,0,0,1,1.022-1.023h5.349V73.587a1.022,1.022,0,0,0-1.023-1.022,1.048,1.048,0,0,0-.807.4,2.132,2.132,0,1,1,0-2.7,1.047,1.047,0,0,0,.807.4,1.022,1.022,0,0,0,1.023-1.023V64.284H203.29a1.022,1.022,0,0,1-1.022-1.022,1.048,1.048,0,0,1,.4-.807,2.132,2.132,0,1,0-2.7,0,1.046,1.046,0,0,1,.4.807,1.022,1.022,0,0,1-1.022,1.022Z" transform="translate(-86.991 -26.55)" fill="#263238"/>
            <path id="Trazado_696424" data-name="Trazado 696424" d="M189.346,56.809H194.7a1.022,1.022,0,0,0,1.022-1.022,1.047,1.047,0,0,0-.4-.808,2.133,2.133,0,1,1,2.7,0,1.048,1.048,0,0,0-.4.808,1.022,1.022,0,0,0,1.022,1.022H204V51.461a1.022,1.022,0,0,1,1.022-1.023,1.046,1.046,0,0,1,.807.4,2.132,2.132,0,1,0,0-2.7,1.047,1.047,0,0,1-.807.4A1.022,1.022,0,0,1,204,47.506V42.157h-5.349a1.023,1.023,0,0,0-1.022,1.023,1.047,1.047,0,0,0,.4.807,2.132,2.132,0,1,1-2.7,0,1.046,1.046,0,0,0,.4-.807,1.023,1.023,0,0,0-1.022-1.023h-5.349v5.349a1.022,1.022,0,0,1-1.022,1.022,1.048,1.048,0,0,1-.807-.4,2.132,2.132,0,1,0,0,2.7,1.047,1.047,0,0,1,.807-.4,1.022,1.022,0,0,1,1.022,1.023Z" transform="translate(-82.35 -19.078)" fill="#fff"/>
            <path id="Trazado_696425" data-name="Trazado 696425" d="M123.981,116.118h-5.349a1.022,1.022,0,0,0-1.023,1.023,1.046,1.046,0,0,0,.4.807,2.133,2.133,0,1,1-2.7,0,1.048,1.048,0,0,0,.4-.807,1.022,1.022,0,0,0-1.022-1.023h-5.349v5.349a1.022,1.022,0,0,1-1.022,1.022,1.046,1.046,0,0,1-.807-.4,2.132,2.132,0,1,0,0,2.7,1.046,1.046,0,0,1,.807-.4,1.022,1.022,0,0,1,1.022,1.022v5.349h5.349a1.022,1.022,0,0,0,1.022-1.023,1.048,1.048,0,0,0-.4-.807,2.132,2.132,0,1,1,2.7,0,1.047,1.047,0,0,0-.4.807,1.022,1.022,0,0,0,1.023,1.023h5.349v-5.349A1.022,1.022,0,0,1,125,124.4a1.048,1.048,0,0,1,.807.4,2.132,2.132,0,1,0,0-2.7,1.047,1.047,0,0,1-.807.4,1.022,1.022,0,0,1-1.022-1.022Z" transform="translate(41.473 -52.548)" fill="#fff"/>
          </g>
        </g>
        <g id="Grupo_930146" data-name="Grupo 930146">
          <g id="Grupo_930145" data-name="Grupo 930145" clip-path="url(#clip-path-6)">
            <path id="Trazado_696426" data-name="Trazado 696426" d="M129.658,66.714c-5.43,10.126-.616,16.039-1.349,19.238a53.05,53.05,0,0,1-2.085,5.66l9.782,6.818a51.276,51.276,0,0,1,4.589-3.915c2.742-1.8,9.962.676,17.576-7.927,5.008-5.65,7.153-18.586-3.2-25.8s-21.74-.722-25.315,5.927" transform="translate(-3.592 -26.078)" fill="#ffc727"/>
            <rect id="Rectángulo_344442" data-name="Rectángulo 344442" width="0.392" height="19.294" transform="matrix(-0.702, -0.713, 0.713, -0.702, 129.617, 71.396)" fill="#fff"/>
            <rect id="Rectángulo_344443" data-name="Rectángulo 344443" width="0.392" height="19.294" transform="translate(124.855 67.988) rotate(-155.728)" fill="#fff"/>
            <path id="Trazado_696427" data-name="Trazado 696427" d="M158.483,101.455c1.036.722,2.578.159,3.405-.241l.176-.088a1.428,1.428,0,0,0,.5,1.084c1.43,1,4.09-1.584,4.2-1.695l-.137-.139c-.027.026-2.656,2.578-3.954,1.673a1.3,1.3,0,0,1-.429-1.023,8.165,8.165,0,0,0,2.664-2.253c.579-.831.6-1.494.068-1.867h0a1.027,1.027,0,0,0-1.072-.1c-.958.448-1.727,2.238-1.846,3.626a4.021,4.021,0,0,0-.015.48c-1.27.667-2.626.959-3.457.38a2.752,2.752,0,0,1-.8-2.594q.015-.173.039-.349a4.833,4.833,0,0,0,2.724-1.98c.739-1.059.805-1.99.175-2.429a.79.79,0,0,0-.827-.047c-.951.446-1.958,2.412-2.247,4.3a1.784,1.784,0,0,1-1.343-.284h0c-1.114-.776.117-4.325.13-4.361l-.185-.066c-.053.153-1.291,3.727-.056,4.587a1.97,1.97,0,0,0,1.428.316q-.019.149-.032.3A2.991,2.991,0,0,0,158.483,101.455Zm2.135-7.352c.635.442.3,1.4-.224,2.157a4.878,4.878,0,0,1-2.533,1.891c.294-1.784,1.251-3.669,2.124-4.078a.592.592,0,0,1,.633.03m4.254,2.965h0c.582.406.177,1.173-.116,1.595a7.851,7.851,0,0,1-2.511,2.148c0-.113,0-.233.016-.358.111-1.307.851-3.052,1.734-3.467a.833.833,0,0,1,.877.082" transform="translate(-24.138 -42.305)" fill="#fff"/>
            <rect id="Rectángulo_344444" data-name="Rectángulo 344444" width="14.711" height="2.875" transform="matrix(-0.82, -0.572, 0.572, -0.82, 132.203, 75.088)" fill="#dbdbdb"/>
            <rect id="Rectángulo_344445" data-name="Rectángulo 344445" width="14.711" height="2.875" transform="matrix(-0.82, -0.572, 0.572, -0.82, 130.293, 77.828)" fill="#dbdbdb"/>
            <rect id="Rectángulo_344446" data-name="Rectángulo 344446" width="14.711" height="2.875" transform="matrix(-0.82, -0.572, 0.572, -0.82, 128.383, 80.568)" fill="#dbdbdb"/>
            <path id="Trazado_696428" data-name="Trazado 696428" d="M131.529,88.336c3.141-4.932,3.405-12.565-1.361-16.569,3.265,4.963,2.841,11.061,1.361,16.569" transform="translate(22.759 -32.477)" fill="#fff"/>
          </g>
        </g>
        <g id="Grupo_930160" data-name="Grupo 930160">
          <g id="Grupo_930159" data-name="Grupo 930159" clip-path="url(#clip-path-6)">
            <path id="Trazado_696429" data-name="Trazado 696429" d="M207.361,114.048a7.017,7.017,0,0,1-.119-2.68l-1.657-.7.77-2.278,1.775.452a6.9,6.9,0,0,1,1.8-2.028l-.658-1.623,2.155-1.067.893,1.512a7.051,7.051,0,0,1,2.793-.2l.643-1.51,2.272.766-.405,1.594a7.017,7.017,0,0,1,2.177,1.9l1.429-.573,1.061,2.15-1.335.8a7.082,7.082,0,0,1,.146,2.939l1.389.593-.766,2.272-1.53-.389a6.92,6.92,0,0,1-1.976,2.147l.586,1.443-2.155,1.067-.844-1.421a7.046,7.046,0,0,1-2.829.084l-.65,1.531-2.277-.765.435-1.711a7.028,7.028,0,0,1-2-1.868l-1.639.654-1.06-2.146Zm7.369,3.185a4.906,4.906,0,1,0-5.551-4.163,4.906,4.906,0,0,0,5.551,4.163" transform="translate(-107.188 -47.03)" fill="#dbdbdb"/>
            <path id="Trazado_696430" data-name="Trazado 696430" d="M220.86,121.787l.906.686,1.677-2.215.614-.81a1.43,1.43,0,0,1-.352-.2,1.474,1.474,0,0,1-.465-.6l-.652.86Z" transform="translate(-117.12 -53.692)" fill="#dbdbdb"/>
            <path id="Trazado_696431" data-name="Trazado 696431" d="M215.855,114.058a2.472,2.472,0,1,1,.8,3.686,2.474,2.474,0,0,1-.855-.753,2.474,2.474,0,0,1,.054-2.933m1.063,2.677a1.477,1.477,0,1,0-.465-.6,1.467,1.467,0,0,0,.465.6" transform="translate(-110.333 -51.178)" fill="#dbdbdb"/>
            <path id="Trazado_696432" data-name="Trazado 696432" d="M143.022,142.945a4.893,4.893,0,0,1-.845-1.668l-1.254.028-.165-1.667,1.257-.223a4.81,4.81,0,0,1,.558-1.8l-.882-.841,1.061-1.3,1,.7a4.907,4.907,0,0,1,1.716-.926l-.025-1.143,1.662-.166.2,1.128a4.892,4.892,0,0,1,1.929.584l.742-.774,1.291,1.061-.62.889a4.935,4.935,0,0,1,.936,1.824l1.052-.022.166,1.662-1.083.193a4.8,4.8,0,0,1-.638,1.929l.786.748-1.062,1.3-.944-.66a4.918,4.918,0,0,1-1.772.866l.027,1.158-1.665.168-.215-1.211a4.9,4.9,0,0,1-1.8-.613l-.852.885L142.292,144Zm5.592-.093a3.418,3.418,0,1,0-4.718-1.05,3.418,3.418,0,0,0,4.718,1.05" transform="translate(-2.015 -60.614)" fill="#dbdbdb"/>
            <path id="Trazado_696433" data-name="Trazado 696433" d="M194.427,155.473a4.895,4.895,0,0,1-1.582-.995l-1.061.67-1-1.345.962-.838a4.816,4.816,0,0,1-.449-1.834l-1.19-.267.244-1.657,1.22.088a4.912,4.912,0,0,1,1-1.677l-.61-.967,1.34-1,.752.864a4.888,4.888,0,0,1,1.954-.492l.239-1.046,1.653.245-.073,1.081a4.93,4.93,0,0,1,1.741,1.082l.891-.561,1,1.34-.829.722a4.8,4.8,0,0,1,.446,1.983l1.059.237-.244,1.658-1.149-.08a4.913,4.913,0,0,1-1.074,1.654l.619.979-1.341,1-.808-.927a4.907,4.907,0,0,1-1.862.4l-.275,1.2-1.65-.244Zm4.747-2.957a3.418,3.418,0,1,0-4.586,1.528,3.418,3.418,0,0,0,4.586-1.528" transform="translate(-78.355 -65.609)" fill="#ffc727"/>
            <path id="Trazado_696434" data-name="Trazado 696434" d="M159.742,155.278a7.012,7.012,0,0,1,.756-2.575l-1.34-1.2,1.467-1.905,1.533,1a6.907,6.907,0,0,1,2.357-1.337l-.1-1.748,2.385-.311.355,1.72a7.059,7.059,0,0,1,2.706.718l1.1-1.22,1.9,1.461-.9,1.377a7.024,7.024,0,0,1,1.443,2.507l1.538-.079.308,2.379-1.521.321a7.079,7.079,0,0,1-.814,2.828l1.122,1.011-1.461,1.9-1.322-.863a6.913,6.913,0,0,1-2.564,1.391l.086,1.555-2.385.311-.338-1.618a7.054,7.054,0,0,1-2.7-.837l-1.111,1.238-1.907-1.461.966-1.478a7.03,7.03,0,0,1-1.284-2.415l-1.762.088-.308-2.373Zm5.94,5.4a4.906,4.906,0,1,0-3.9-5.737,4.907,4.907,0,0,0,3.9,5.737" transform="translate(-33.872 -66.614)" fill="#37474f"/>
            <g id="Grupo_930149" data-name="Grupo 930149" transform="translate(129.644 86.634)" opacity="0.6">
              <g id="Grupo_930148" data-name="Grupo 930148" transform="translate(0)">
                <g id="Grupo_930147" data-name="Grupo 930147" transform="translate(0)" clip-path="url(#clip-path-12)">
                  <path id="Trazado_696435" data-name="Trazado 696435" d="M174.279,159.271a1.024,1.024,0,1,0,1.024-1.024,1.024,1.024,0,0,0-1.024,1.024" transform="translate(-173.533 -158.247)" fill="#455a64"/>
                  <path id="Trazado_696436" data-name="Trazado 696436" d="M172.913,163.811v.374h3.542v-.374a1.771,1.771,0,0,0-3.542,0" transform="translate(-172.913 -159.965)" fill="#455a64"/>
                </g>
              </g>
            </g>
            <path id="Trazado_696437" data-name="Trazado 696437" d="M169.489,160.4a1.024,1.024,0,1,0,1.024-1.024,1.024,1.024,0,0,0-1.024,1.024" transform="translate(-36.477 -72.123)" fill="#37474f"/>
            <path id="Trazado_696438" data-name="Trazado 696438" d="M168.122,164.939v.374h3.542v-.374a1.771,1.771,0,0,0-3.542,0" transform="translate(-35.855 -73.842)" fill="#37474f"/>
            <path id="Trazado_696439" data-name="Trazado 696439" d="M224.334,78.955l-.268-2.046,2.4-.558a11.349,11.349,0,0,1,.441-3.3l-2.153-1.16.792-1.907,2.354.719a10.983,10.983,0,0,1,2.035-2.633l-1.294-2.086,1.64-1.255,1.684,1.8a10.82,10.82,0,0,1,3.073-1.26l-.073-2.454,2.047-.268.558,2.4a11.169,11.169,0,0,1,3.3.446l1.16-2.158,1.907.792-.714,2.354a11.21,11.21,0,0,1,2.627,2.036l2.086-1.288,1.26,1.64-1.8,1.673a10.821,10.821,0,0,1,1.261,3.079l2.454-.067.268,2.041-2.4.563a11.2,11.2,0,0,1-.446,3.3l2.164,1.16-.8,1.907-2.354-.714a11.315,11.315,0,0,1-2.03,2.627l1.283,2.08-1.64,1.261-1.673-1.8a10.982,10.982,0,0,1-3.084,1.261l.073,2.448-2.041.268-.563-2.392a11.364,11.364,0,0,1-3.3-.452l-1.16,2.159-1.907-.792.719-2.354a10.983,10.983,0,0,1-2.633-2.035L227.5,85.28l-1.249-1.64,1.791-1.679a11.353,11.353,0,0,1-1.261-3.079Zm13.385,4.507a7.262,7.262,0,1,0-7.262-7.262,7.262,7.262,0,0,0,7.262,7.262" transform="translate(-146.191 -28.305)" fill="#ffc727"/>
            <path id="Trazado_696440" data-name="Trazado 696440" d="M246.289,79.175a1.487,1.487,0,1,0,1.486-1.486,1.486,1.486,0,0,0-1.486,1.486" transform="translate(-156.247 -35.157)" fill="#ffc727"/>
            <rect id="Rectángulo_344449" data-name="Rectángulo 344449" width="3.151" height="0.454" transform="translate(89.953 45.277)" fill="#ffc727"/>
            <g id="Grupo_930152" data-name="Grupo 930152" transform="translate(89.953 45.277)" opacity="0.1">
              <g id="Grupo_930151" data-name="Grupo 930151" transform="translate(0)">
                <g id="Grupo_930150" data-name="Grupo 930150" clip-path="url(#clip-path-13)">
                  <rect id="Rectángulo_344450" data-name="Rectángulo 344450" width="3.151" height="0.454" transform="translate(0 0)"/>
                </g>
              </g>
            </g>
            <rect id="Rectángulo_344452" data-name="Rectángulo 344452" width="6.382" height="0.454" transform="translate(88.337 51.531)" fill="#ffc727"/>
            <g id="Grupo_930155" data-name="Grupo 930155" transform="translate(88.337 51.531)" opacity="0.1">
              <g id="Grupo_930154" data-name="Grupo 930154" transform="translate(0)">
                <g id="Grupo_930153" data-name="Grupo 930153" transform="translate(0)" clip-path="url(#clip-path-14)">
                  <rect id="Rectángulo_344453" data-name="Rectángulo 344453" width="6.382" height="0.454" transform="translate(0 -0.001)"/>
                </g>
              </g>
            </g>
            <rect id="Rectángulo_344455" data-name="Rectángulo 344455" width="6.382" height="0.454" transform="translate(88.337 52.805)" fill="#ffc727"/>
            <g id="Grupo_930158" data-name="Grupo 930158" transform="translate(88.337 52.805)" opacity="0.1">
              <g id="Grupo_930157" data-name="Grupo 930157" transform="translate(0)">
                <g id="Grupo_930156" data-name="Grupo 930156" transform="translate(0)" clip-path="url(#clip-path-14)">
                  <rect id="Rectángulo_344456" data-name="Rectángulo 344456" width="6.382" height="0.454" transform="translate(0 0)"/>
                </g>
              </g>
            </g>
            <rect id="Rectángulo_344458" data-name="Rectángulo 344458" width="5.907" height="0.82" transform="translate(88.575 51.985)" fill="#ffc727"/>
            <rect id="Rectángulo_344459" data-name="Rectángulo 344459" width="2.57" height="0.454" transform="translate(90.243 45.731)" fill="#ffc727"/>
            <path id="Trazado_696441" data-name="Trazado 696441" d="M244.235,89.709h5.222a5.7,5.7,0,0,1-1.44-2.617c-.207-1.2-.309-2.729-.309-2.729h-1.723s-.1,1.526-.311,2.729a5.687,5.687,0,0,1-1.438,2.617" transform="translate(-155.317 -38.178)" fill="#ffc727"/>
          </g>
        </g>
      </g>
    </g>
  </g>
</svg>
