<svg xmlns="http://www.w3.org/2000/svg" xmlns:xlink="http://www.w3.org/1999/xlink" width="478.281" height="748.057" viewBox="0 0 478.281 748.057">
  <defs>
    <filter id="Rectángulo_348591" x="43.271" y="428.795" width="364" height="86" filterUnits="userSpaceOnUse">
      <feOffset dy="3" input="SourceAlpha"/>
      <feGaussianBlur stdDeviation="3" result="blur"/>
      <feFlood flood-opacity="0.161"/>
      <feComposite operator="in" in2="blur"/>
      <feComposite in="SourceGraphic"/>
    </filter>
    <filter id="Rectángulo_344415" x="43.271" y="612.795" width="364" height="102" filterUnits="userSpaceOnUse">
      <feOffset dy="3" input="SourceAlpha"/>
      <feGaussianBlur stdDeviation="3" result="blur-2"/>
      <feFlood flood-opacity="0.161"/>
      <feComposite operator="in" in2="blur-2"/>
      <feComposite in="SourceGraphic"/>
    </filter>
    <filter id="Rectángulo_344415-2" x="43.271" y="512.795" width="364" height="102" filterUnits="userSpaceOnUse">
      <feOffset dy="3" input="SourceAlpha"/>
      <feGaussianBlur stdDeviation="3" result="blur-3"/>
      <feFlood flood-opacity="0.161"/>
      <feComposite operator="in" in2="blur-3"/>
      <feComposite in="SourceGraphic"/>
    </filter>
    <clipPath id="clip-path">
      <path id="path8808" d="M0-682.665H30.842v30.842H0Z" transform="translate(0 682.665)"/>
    </clipPath>
    <filter id="Rectángulo_348590" x="20.771" y="36.296" width="437" height="90" filterUnits="userSpaceOnUse">
      <feOffset dy="3" input="SourceAlpha"/>
      <feGaussianBlur stdDeviation="3" result="blur-4"/>
      <feFlood flood-opacity="0.161"/>
      <feComposite operator="in" in2="blur-4"/>
      <feComposite in="SourceGraphic"/>
    </filter>
    <filter id="Rectángulo_348590-2" x="43.271" y="140.296" width="364" height="86" filterUnits="userSpaceOnUse">
      <feOffset dy="3" input="SourceAlpha"/>
      <feGaussianBlur stdDeviation="3" result="blur-5"/>
      <feFlood flood-opacity="0.161"/>
      <feComposite operator="in" in2="blur-5"/>
      <feComposite in="SourceGraphic"/>
    </filter>
    <filter id="Rectángulo_344415-3" x="43.271" y="324.296" width="364" height="102" filterUnits="userSpaceOnUse">
      <feOffset dy="3" input="SourceAlpha"/>
      <feGaussianBlur stdDeviation="3" result="blur-6"/>
      <feFlood flood-opacity="0.161"/>
      <feComposite operator="in" in2="blur-6"/>
      <feComposite in="SourceGraphic"/>
    </filter>
    <filter id="Rectángulo_344415-4" x="43.271" y="224.296" width="364" height="102" filterUnits="userSpaceOnUse">
      <feOffset dy="3" input="SourceAlpha"/>
      <feGaussianBlur stdDeviation="3" result="blur-7"/>
      <feFlood flood-opacity="0.161"/>
      <feComposite operator="in" in2="blur-7"/>
      <feComposite in="SourceGraphic"/>
    </filter>
  </defs>
  <g id="Grupo_1014561" data-name="Grupo 1014561" transform="translate(6628.771 8822.639)">
    <g id="Grupo_1014504" data-name="Grupo 1014504" transform="translate(-6628.771 -8829.848)">
      <g id="Grupo_1014498" data-name="Grupo 1014498" transform="translate(0 7.209)">
        <rect id="Rectángulo_348585" data-name="Rectángulo 348585" width="478.281" height="748.057" fill="#38312f"/>
        <rect id="Rectángulo_348586" data-name="Rectángulo 348586" width="478.281" height="723.592" fill="#3c6457"/>
      </g>
      <g id="Grupo_1014502" data-name="Grupo 1014502" transform="translate(52.271 442.004)">
        <g transform="matrix(1, 0, 0, 1, -52.27, -434.79)" filter="url(#Rectángulo_348591)">
          <rect id="Rectángulo_348591-2" data-name="Rectángulo 348591" width="346" height="68" rx="10" transform="translate(52.27 434.79)" fill="#ffa031"/>
        </g>
        <g id="Grupo_1013405" data-name="Grupo 1013405" transform="translate(92 13)">
          <text id="Lengua_oral_-_auditiva._Lengua_escrita_lineal." data-name="Lengua oral - auditiva.
Lengua escrita lineal." transform="translate(81 15)" fill="#12263f" font-size="16" font-family="Roboto-Medium, Roboto" font-weight="500"><tspan x="-79.098" y="0">Lengua oral - auditiva.</tspan><tspan x="-76.25" y="24">Lengua escrita lineal.</tspan></text>
        </g>
        <g transform="matrix(1, 0, 0, 1, -52.27, -434.79)" filter="url(#Rectángulo_344415)">
          <rect id="Rectángulo_344415-5" data-name="Rectángulo 344415" width="346" height="84" rx="10" transform="translate(52.27 618.79)" fill="#fff"/>
        </g>
        <g id="Grupo_1013411" data-name="Grupo 1013411" transform="translate(18 193)">
          <text id="Sentido" transform="translate(31 17)" fill="#12263f" font-size="18" font-family="Roboto-Black, Roboto" font-weight="800"><tspan x="-31.289" y="0">Sentido</tspan></text>
          <text id="Búsqueda_del_sentido_idéntico_o_en_otras_palabras_propias_de_la_lengua_oral." data-name="Búsqueda del sentido idéntico o en otras palabras propias de la lengua oral." transform="translate(0 26)" fill="#12263f" font-size="16" font-family="Roboto-Regular, Roboto"><tspan x="0" y="17">Búsqueda del sentido idéntico o en otras </tspan><tspan x="0" y="39">palabras propias de la lengua oral.</tspan></text>
        </g>
        <g transform="matrix(1, 0, 0, 1, -52.27, -434.79)" filter="url(#Rectángulo_344415-2)">
          <rect id="Rectángulo_344415-6" data-name="Rectángulo 344415" width="346" height="84" rx="10" transform="translate(52.27 518.79)" fill="#fff"/>
        </g>
        <g id="Grupo_1013412" data-name="Grupo 1013412" transform="translate(18 93)">
          <text id="Palabra" transform="translate(31 17)" fill="#12263f" font-size="18" font-family="Roboto-Black, Roboto" font-weight="800"><tspan x="-30.959" y="0">Palabra</tspan></text>
          <text id="La_sintaxis_los_campos_semánticos_y_los_giros_idiomáticos." data-name="La sintaxis, los campos semánticos y los giros idiomáticos." transform="translate(0 26)" fill="#12263f" font-size="16" font-family="Roboto-Regular, Roboto"><tspan x="0" y="17">La sintaxis, los campos semánticos y los </tspan><tspan x="0" y="39">giros idiomáticos.</tspan></text>
        </g>
        <g id="Grupo_1013415" data-name="Grupo 1013415" transform="translate(320 100)">
          <circle id="Elipse_4786" data-name="Elipse 4786" cx="26.5" cy="26.5" r="26.5" fill="#ed9aa9"/>
          <g id="g8804" transform="translate(11.541 10.617)">
            <g id="g8806" clip-path="url(#clip-path)">
              <g id="g8812" transform="translate(12.512 10.09)">
                <path id="path8814" d="M-377.841-58.562v9.672a2.767,2.767,0,0,1-2.762,2.771h-.913l-.094.11L-384.42-42.7l-2.9-3.419h-5.633a2.767,2.767,0,0,1-2.762-2.771V-61.333H-380.6a2.767,2.767,0,0,1,2.762,2.771" transform="translate(395.719 61.333)" fill="#09eaa3"/>
              </g>
              <g id="g8816" transform="translate(26.423 10.09)">
                <path id="path8818" d="M-83.833-58.562v9.672A2.767,2.767,0,0,1-86.6-46.119h-.913l-.094.11-.2-.11a2.767,2.767,0,0,0,2.762-2.771v-9.672A2.767,2.767,0,0,0-87.8-61.333h1.2a2.767,2.767,0,0,1,2.762,2.771" transform="translate(87.8 61.333)" fill="#14bb87"/>
              </g>
              <g id="g8820" transform="translate(0.452 5.873)">
                <path id="path8822" d="M-505.061-58.562v9.31a2.767,2.767,0,0,1-2.762,2.771h-11.652l-2.9,3.419-2.9-3.419h-.913a2.767,2.767,0,0,1-2.762-2.771v-9.31a2.767,2.767,0,0,1,2.762-2.771h18.374a2.767,2.767,0,0,1,2.762,2.771" transform="translate(528.959 61.333)" fill="#ff6b81"/>
              </g>
              <g id="g8824" transform="translate(20.383 5.873)">
                <path id="path8826" d="M-83.833-58.562v9.31A2.767,2.767,0,0,1-86.6-46.481h-1.2a2.767,2.767,0,0,0,2.762-2.771v-9.31A2.767,2.767,0,0,0-87.8-61.333h1.2a2.767,2.767,0,0,1,2.762,2.771" transform="translate(87.8 61.333)" fill="#ed2061"/>
              </g>
              <g id="g8828" transform="translate(0.452 25.808)">
                <path id="path8830" d="M-303.772-65.232a1.494,1.494,0,0,1-1.493,1.5h-11.388a1.494,1.494,0,0,1-1.493-1.5,1.494,1.494,0,0,1,1.493-1.5h.4l1.151-1.59,1.151,1.59h8.686a1.494,1.494,0,0,1,1.493,1.5" transform="translate(318.146 68.318)" fill="#4dd4f7"/>
              </g>
              <g id="g8832" transform="translate(12.128 27.398)">
                <path id="path8834" d="M-57.009-31.624a1.494,1.494,0,0,1-1.493,1.5h-1.2a1.494,1.494,0,0,0,1.493-1.5,1.494,1.494,0,0,0-1.493-1.5h1.2a1.494,1.494,0,0,1,1.493,1.5" transform="translate(59.707 33.12)" fill="#00c2f3"/>
              </g>
              <g id="g8836" transform="translate(16.017 0.452)">
                <path id="path8838" d="M-303.772-31.624a1.494,1.494,0,0,1-1.493,1.5h-.4l-.073.1-1.078,1.49-1.151-1.591h-8.686a1.494,1.494,0,0,1-1.493-1.5,1.494,1.494,0,0,1,1.493-1.5h11.388a1.494,1.494,0,0,1,1.493,1.5" transform="translate(318.146 33.12)" fill="#fbdf63"/>
              </g>
              <g id="g8840" transform="translate(27.693 0.452)">
                <path id="path8842" d="M-57.009-31.624a1.494,1.494,0,0,1-1.493,1.5h-.4l-.073.1c-.125-.119-.19-.2-.151-.219a1.5,1.5,0,0,0,.912-1.378,1.494,1.494,0,0,0-1.493-1.5h1.2a1.494,1.494,0,0,1,1.493,1.5" transform="translate(59.707 33.12)" fill="#ffa402"/>
              </g>
              <g id="g8844" transform="translate(0 5.422)">
                <path id="path8846" d="M-111.676,9.174a.452.452,0,0,1-.344-.159l-2.769-3.259h-.7a3.222,3.222,0,0,1-3.214-3.223v-9.31A3.222,3.222,0,0,1-115.493-10h2.149a.452.452,0,0,1,.452.452.452.452,0,0,1-.452.452h-2.149a2.317,2.317,0,0,0-2.31,2.319v9.31a2.317,2.317,0,0,0,2.31,2.319h.913a.452.452,0,0,1,.344.159l2.56,3.013,2.56-3.013a.452.452,0,0,1,.344-.159h11.652a2.317,2.317,0,0,0,2.31-2.319v-9.31A2.317,2.317,0,0,0-97.119-9.1h-14.129a.452.452,0,0,1-.452-.452.452.452,0,0,1,.452-.452h14.129a3.222,3.222,0,0,1,3.214,3.223v9.31a3.222,3.222,0,0,1-3.214,3.223h-11.443l-2.769,3.259A.452.452,0,0,1-111.676,9.174Z" transform="translate(118.706 10)"/>
              </g>
              <g id="g8848" transform="translate(12.06 18.852)">
                <path id="path8850" d="M-393.964.322a.452.452,0,0,1-.344-.159L-397.078-3.1H-402.5a3.222,3.222,0,0,1-3.214-3.223.452.452,0,0,1,.452-.452.452.452,0,0,1,.452.452A2.317,2.317,0,0,0-402.5-4h5.633a.452.452,0,0,1,.344.159l2.56,3.013,2.56-3.013A.452.452,0,0,1-391.06-4h.913a2.317,2.317,0,0,0,2.31-2.319V-9.548a.452.452,0,0,1,.452-.452.452.452,0,0,1,.452.452V-6.32A3.222,3.222,0,0,1-390.147-3.1h-.7L-393.62.162A.452.452,0,0,1-393.964.322Z" transform="translate(405.715 10)"/>
              </g>
              <g id="g8852" transform="translate(25.718 9.638)">
                <path id="path8854" d="M-5.328-1.966a.452.452,0,0,1-.452-.452V-6.777A2.317,2.317,0,0,0-8.089-9.1H-9.548A.452.452,0,0,1-10-9.548.452.452,0,0,1-9.548-10h1.459A3.222,3.222,0,0,1-4.876-6.777v4.359A.452.452,0,0,1-5.328-1.966Z" transform="translate(10 10)"/>
              </g>
              <g id="g8856" transform="translate(0 25.356)">
                <path id="path8858" d="M-190.864-39.719h-11.388a1.948,1.948,0,0,1-1.945-1.948,1.948,1.948,0,0,1,1.945-1.948h.169l1.016-1.4a.452.452,0,0,1,.366-.187.452.452,0,0,1,.366.187l1.016,1.4h2.259a.452.452,0,0,1,.452.452.452.452,0,0,1-.452.452h-2.49a.452.452,0,0,1-.366-.187l-.785-1.085-.785,1.085a.452.452,0,0,1-.366.187h-.4a1.044,1.044,0,0,0-1.041,1.044,1.044,1.044,0,0,0,1.041,1.044h11.388a1.044,1.044,0,0,0,1.041-1.044,1.044,1.044,0,0,0-1.041-1.044h-4.107a.452.452,0,0,1-.452-.452.452.452,0,0,1,.452-.452h4.107a1.948,1.948,0,0,1,1.944,1.948A1.948,1.948,0,0,1-190.864-39.719Z" transform="translate(204.197 45.205)"/>
              </g>
              <g id="g8860" transform="translate(15.565 0)">
                <path id="path8862" d="M-68.878-70.742a.452.452,0,0,1-.366-.187l-1.016-1.4h-4.667a.452.452,0,0,1-.452-.452.452.452,0,0,1,.452-.452h4.9a.452.452,0,0,1,.366.187l.785,1.085.785-1.085a.452.452,0,0,1,.366-.187h.4a1.044,1.044,0,0,0,1.041-1.044,1.044,1.044,0,0,0-1.041-1.044H-78.715a1.044,1.044,0,0,0-1.041,1.044,1.044,1.044,0,0,0,1.041,1.044h1.7a.452.452,0,0,1,.452.452.452.452,0,0,1-.452.452h-1.7A1.948,1.948,0,0,1-80.66-74.28a1.948,1.948,0,0,1,1.944-1.948h11.388a1.948,1.948,0,0,1,1.945,1.948,1.948,1.948,0,0,1-1.945,1.948H-67.5l-1.016,1.4A.452.452,0,0,1-68.878-70.742Z" transform="translate(80.66 76.228)"/>
              </g>
              <g id="g8864" transform="translate(4.622 9.935)">
                <path id="path8866" d="M-9.548-4.693A.452.452,0,0,1-10-5.144v-4.4A.452.452,0,0,1-9.548-10a.452.452,0,0,1,.452.452v4.4A.452.452,0,0,1-9.548-4.693Z" transform="translate(10 10)"/>
              </g>
              <g id="g8868" transform="translate(5.074 16.598)">
                <path id="path8870" transform="translate(0 0)"/>
              </g>
              <g id="g8872" transform="translate(18.633 10.386)">
                <path id="path8874" transform="translate(0 0)"/>
              </g>
              <g id="g8876" transform="translate(6.922 11.178)">
                <path id="path8878" d="M-7.649-89.352h-1.9A.452.452,0,0,1-10-89.8a.452.452,0,0,1,.452-.452H-8.1v-1H-9.548A.452.452,0,0,1-10-91.7v-1.9a.452.452,0,0,1,.452-.452h1.9A.452.452,0,0,1-7.2-93.6a.452.452,0,0,1-.452.452H-9.1v1h1.447A.452.452,0,0,1-7.2-91.7v1.9A.452.452,0,0,1-7.649-89.352Z" transform="translate(10 94.053)"/>
              </g>
              <g id="g8880" transform="translate(7.872 9.935)">
                <path id="path8882" d="M-9.548-35.372A.452.452,0,0,1-10-35.824v-1.243a.452.452,0,0,1,.452-.452.452.452,0,0,1,.452.452v1.243A.452.452,0,0,1-9.548-35.372Z" transform="translate(10 37.519)"/>
              </g>
              <g id="g8884" transform="translate(7.872 14.975)">
                <path id="path8886" d="M-9.548-35.37A.452.452,0,0,1-10-35.822v-1.243a.452.452,0,0,1,.452-.452.452.452,0,0,1,.452.452v1.243A.452.452,0,0,1-9.548-35.37Z" transform="translate(10 37.517)"/>
              </g>
              <g id="g8888" transform="translate(11.698 9.935)">
                <path id="path8890" d="M-9.549-140.367a.46.46,0,0,1-.062,0A.452.452,0,0,1-10-140.88l.848-6.211a.452.452,0,0,1,.509-.387.452.452,0,0,1,.386.509l-.848,6.211A.452.452,0,0,1-9.549-140.367Z" transform="translate(10.001 147.482)"/>
              </g>
              <g id="g8892" transform="translate(13.565 9.935)">
                <path id="path8894" d="M-9.549-140.367a.46.46,0,0,1-.062,0A.452.452,0,0,1-10-140.88l.848-6.211a.452.452,0,0,1,.509-.387.452.452,0,0,1,.386.509l-.848,6.211A.452.452,0,0,1-9.549-140.367Z" transform="translate(10.001 147.482)"/>
              </g>
              <g id="g8896" transform="translate(11.301 11.178)">
                <path id="path8898" d="M-5.66-9.1H-9.548A.452.452,0,0,1-10-9.548.452.452,0,0,1-9.548-10H-5.66a.452.452,0,0,1,.452.452A.452.452,0,0,1-5.66-9.1Z" transform="translate(10 10)"/>
              </g>
              <g id="g8900" transform="translate(10.869 14.975)">
                <path id="path8902" d="M-5.66-9.1H-9.548A.452.452,0,0,1-10-9.548.452.452,0,0,1-9.548-10H-5.66a.452.452,0,0,1,.452.452A.452.452,0,0,1-5.66-9.1Z" transform="translate(10 10)"/>
              </g>
              <g id="g8904" transform="translate(16.61 11.752)">
                <path id="path8906" d="M-7.979-67.195a2,2,0,0,1-1.383-.549A2.031,2.031,0,0,1-10-69.217a.452.452,0,0,1,.452-.452.452.452,0,0,1,.452.452,1.109,1.109,0,0,0,.353.816,1.111,1.111,0,0,0,.838.3A1.131,1.131,0,0,0-6.86-69.145a1.123,1.123,0,0,0-.519-1.019,2.212,2.212,0,0,1-1.05-1.867.46.46,0,0,1,.452-.461.444.444,0,0,1,.452.442,1.32,1.32,0,0,0,.63,1.123,2.026,2.026,0,0,1,.937,1.838A2.022,2.022,0,0,1-7.849-67.2C-7.893-67.2-7.936-67.195-7.979-67.195Z" transform="translate(10 72.493)"/>
              </g>
            </g>
          </g>
        </g>
        <g id="Grupo_1013416" data-name="Grupo 1013416" transform="translate(320 200)">
          <circle id="Elipse_7685" data-name="Elipse 7685" cx="26.5" cy="26.5" r="26.5" fill="#ed9aa9"/>
          <g id="burbuja-de-dialogo" transform="translate(9.693 11.225)">
            <path id="Trazado_696211" data-name="Trazado 696211" d="M195.326,25.474a8.7,8.7,0,0,0,2.551-6.079c0-5.189-5.209-9.395-11.14-9.395S176,14.206,176,19.4l10.737,9.395a14.237,14.237,0,0,0,4.846-.84,6.692,6.692,0,0,0,4.952,2.182A4.745,4.745,0,0,1,195.326,25.474Zm0,0" transform="translate(-164.189 -9.329)" fill="#e87288"/>
            <path id="Trazado_696212" data-name="Trazado 696212" d="M26.672,151.342a9.225,9.225,0,0,1,5.2,8.053c0,5.189-4.807,9.395-10.737,9.395a14.238,14.238,0,0,1-4.846-.84,6.692,6.692,0,0,1-4.952,2.182,4.745,4.745,0,0,0,1.209-4.658A8.7,8.7,0,0,1,10,159.395C10,154.206,15.209,150,21.14,150a11.853,11.853,0,0,1,5.533,1.342Zm0,0" transform="translate(-9.329 -139.934)" fill="#cae9fc"/>
            <path id="Trazado_696213" data-name="Trazado 696213" d="M246.671,100a.671.671,0,1,0,.671.671A.671.671,0,0,0,246.671,100Zm0,0" transform="translate(-229.492 -93.289)"/>
            <path id="Trazado_696214" data-name="Trazado 696214" d="M80.671,261.342a.671.671,0,1,0-.671-.671A.671.671,0,0,0,80.671,261.342Zm0,0" transform="translate(-74.631 -242.552)"/>
            <path id="Trazado_696215" data-name="Trazado 696215" d="M22.548,0c-6.041,0-11,4.165-11.384,9.412C5.411,9.7,0,13.849,0,19.461a9.377,9.377,0,0,0,2.617,6.418,4.081,4.081,0,0,1-1.078,3.845.671.671,0,0,0,.474,1.146A7.4,7.4,0,0,0,7.142,28.8a15.292,15.292,0,0,0,4.669.731c6.041,0,11-4.164,11.383-9.41a15.09,15.09,0,0,0,4.023-.716,7.4,7.4,0,0,0,5.129,2.073.671.671,0,0,0,.474-1.146,4.081,4.081,0,0,1-1.078-3.845,9.377,9.377,0,0,0,2.617-6.418C34.359,4.235,28.531,0,22.548,0ZM11.811,28.185a13.566,13.566,0,0,1-4.6-.792.671.671,0,0,0-.743.17A6.055,6.055,0,0,1,3.458,29.35a5.427,5.427,0,0,0,.409-3.994.67.67,0,0,0-.164-.284,8.064,8.064,0,0,1-2.361-5.612c0-4.729,4.794-8.724,10.469-8.724,5.359,0,10.066,3.726,10.066,8.724,0,4.81-4.516,8.724-10.066,8.724ZM30.656,15.677a.673.673,0,0,0-.164.284,5.427,5.427,0,0,0,.409,3.994,6.053,6.053,0,0,1-3.012-1.787.672.672,0,0,0-.743-.17,13.22,13.22,0,0,1-3.954.775,9.606,9.606,0,0,0-3.626-6.694h8.753a.671.671,0,0,0,0-1.342H17.5A12.516,12.516,0,0,0,12.51,9.414c.386-4.507,4.74-8.072,10.038-8.072,5.675,0,10.469,3.995,10.469,8.724a8.064,8.064,0,0,1-2.361,5.612Zm0,0" transform="translate(0 0)"/>
            <path id="Trazado_696216" data-name="Trazado 696216" d="M129.127,260h-8.455a.671.671,0,1,0,0,1.342h8.455a.671.671,0,1,0,0-1.342Zm0,0" transform="translate(-111.947 -242.552)"/>
            <path id="Trazado_696217" data-name="Trazado 696217" d="M91.811,320H80.671a.671.671,0,0,0,0,1.342h11.14a.671.671,0,0,0,0-1.342Zm0,0" transform="translate(-74.631 -298.526)"/>
            <path id="Trazado_696218" data-name="Trazado 696218" d="M295.127,100h-8.455a.671.671,0,1,0,0,1.342h8.455a.671.671,0,0,0,0-1.342Zm0,0" transform="translate(-266.807 -93.289)"/>
          </g>
        </g>
      </g>
      <g id="Grupo_1014499" data-name="Grupo 1014499" transform="translate(29.771 30.593)">
        <g id="Grupo_1013407" data-name="Grupo 1013407" transform="translate(0 18.911)">
          <g transform="matrix(1, 0, 0, 1, -29.77, -42.3)" filter="url(#Rectángulo_348590)">
            <rect id="Rectángulo_348590-3" data-name="Rectángulo 348590" width="419" height="72" rx="10" transform="translate(29.77 42.3)" fill="#ffdeb7"/>
          </g>
          <text id="Lengua_meta_Lengua_origen" data-name="Lengua meta
Lengua origen" transform="translate(57 29)" fill="#12263f" font-size="16" font-family="Roboto-Medium, Roboto" font-weight="500"><tspan x="-46.613" y="0">Lengua meta</tspan><tspan x="-51.059" y="24">Lengua origen</tspan></text>
          <text id="Lengua_origen_Lengua_meta" data-name="Lengua origen
Lengua meta" transform="translate(352 29)" fill="#12263f" font-size="16" font-family="Roboto-Medium, Roboto" font-weight="500"><tspan x="-51.059" y="0">Lengua origen</tspan><tspan x="-46.613" y="24">Lengua meta</tspan></text>
          <g id="Grupo_1013406" data-name="Grupo 1013406" transform="translate(153 14)">
            <path id="Trazado_696219" data-name="Trazado 696219" d="M24,24H124.321V63.783H103.565L96.646,74.161V63.783H24Z" transform="translate(-22.271 -23.135)" fill="#fcc419"/>
            <path id="Trazado_696220" data-name="Trazado 696220" d="M371.026,77.513a1.73,1.73,0,0,1,1.726,1.845,1.769,1.769,0,0,1-1.785,1.614h-.426A1.73,1.73,0,0,1,372.2,83.2a1.769,1.769,0,0,1-1.707,1.23H369.3a1.73,1.73,0,0,1,1.73,1.73h0a1.73,1.73,0,0,1-1.73,1.73h-8.192a5.278,5.278,0,0,1-3.732-1.546l-.184-.184H352V75.784h5.189v-.93a2.162,2.162,0,0,1,.52-1.407L362.378,68l1.384,1.038a2.594,2.594,0,0,1,.519,3.632l-1.038,1.384H377.08a1.73,1.73,0,0,1,1.73,1.73h0a1.73,1.73,0,0,1-1.73,1.73h-6.919" transform="translate(-279.354 -57.622)" fill="#f5a000"/>
            <path id="Trazado_696224" data-name="Trazado 696224" d="M56.755,78.919H51.566v-.507a2.96,2.96,0,0,0-.867-2.09,2.953,2.953,0,0,1-.863-2.086V72h-1.73a2.6,2.6,0,0,0-2.595,2.595v2.595H37.788A1.769,1.769,0,0,0,36,78.8a1.73,1.73,0,0,0,1.726,1.845A1.73,1.73,0,0,0,36,82.493a1.769,1.769,0,0,0,1.785,1.614h.426a1.73,1.73,0,0,0-1.656,2.23,1.769,1.769,0,0,0,1.707,1.23h1.071a1.706,1.706,0,0,0-1.566,2.149,1.639,1.639,0,0,0,1.566,1.31h9.277a2.959,2.959,0,0,0,2.09-.867A2.953,2.953,0,0,1,52.79,89.3h3.966Z" transform="translate(-31.675 -60.757)" fill="#f5a000"/>
            <path id="Trazado_696225" data-name="Trazado 696225" d="M169.945,71.891v-1.73a2.6,2.6,0,0,0-2.595-2.595h-1.513V52.9c-1.525-1.736-3.459-.678-3.459.831v6.054c0-1.51-1.934-2.567-3.459-.831v1.317a1.73,1.73,0,0,0-2.149-1.678h0a1.73,1.73,0,0,0-1.31,1.678V55.493c-1.525-1.736-3.459-.678-3.459.831V70.64a3.062,3.062,0,0,0,.886,2.139,2.953,2.953,0,0,1,.843,2.065V78.81h9.513V73.621h0a4.237,4.237,0,0,0,2.965-1.21l.53-.519Z" transform="translate(-122.596 -45.082)" fill="#f5a000"/>
            <path id="Trazado_696226" data-name="Trazado 696226" d="M262.613,59.723l1.09-.872a2.162,2.162,0,0,1,1.351-.474h1.478a2.953,2.953,0,0,1,2.088.865h0a2.953,2.953,0,0,1,.865,2.088v1.357a.879.879,0,0,1-.879.879h0a2.053,2.053,0,0,1-1.452-.6l-1.128-1.128-2.595,1.73h0a2.6,2.6,0,0,0,2.595,2.595h0l1.152-1.728a1.946,1.946,0,0,1,1.619-.867h0a.688.688,0,0,1,.688.688v1.367a5.946,5.946,0,0,1-.627,2.659l-.7,1.4a2.162,2.162,0,0,1-1.25,1.084l-4.34,1.447v3.459h-8.648l-1.648-14.012a4.33,4.33,0,0,1,.058-1.372l1.807-8.832h0a2.39,2.39,0,0,1,2.342,2.869l-.828,4.049,1.946-9.513h0a2.746,2.746,0,0,1,2.7,3.257l-1.185,6.256L261.052,48h0a2.811,2.811,0,0,1,2.783,3.21l-1.221,8.513" transform="translate(-201.162 -41.946)" fill="#f5a000"/>
            <path id="Trazado_696231" data-name="Trazado 696231" d="M33.794,86.778A2.5,2.5,0,0,0,36.2,88.756h9.277a3.792,3.792,0,0,0,2.7-1.118,2.074,2.074,0,0,1,1.476-.612h3.966a.865.865,0,1,0,0-1.73H49.655a3.792,3.792,0,0,0-2.7,1.118,2.074,2.074,0,0,1-1.476.612H40.5a2.687,2.687,0,0,0,.145-.865A2.648,2.648,0,0,0,40,84.415a2.579,2.579,0,0,0-.015-3.443,2.579,2.579,0,0,0,0-3.459,2.569,2.569,0,0,0,.515-2.595h1.016v.9a3.427,3.427,0,0,0,3.423,3.423.865.865,0,1,0,0-1.73,1.7,1.7,0,0,1-1.694-1.694v-4.36a1.732,1.732,0,0,1,1.73-1.73h.865v2.088a2.073,2.073,0,0,0,.611,1.476l1.014,1.014a.355.355,0,0,1,.1.253v1.223a.865.865,0,0,0,.865.865h4.324V82.7a.865.865,0,0,0,1.73,0V75.784a.865.865,0,0,0-.865-.865H49.3V74.56a2.073,2.073,0,0,0-.611-1.476l-1.014-1.014a.355.355,0,0,1-.1-.253V68.865A.865.865,0,0,0,46.7,68h-1.73a3.463,3.463,0,0,0-3.459,3.459v1.73H34.594a2.59,2.59,0,0,0-1.928,4.324,2.585,2.585,0,0,0,.275,3.728,2.587,2.587,0,0,0,1.024,3.8A2.681,2.681,0,0,0,33.794,86.778Zm2.408.249a.778.778,0,0,1-.723-.642.943.943,0,0,1,.173-.807A.706.706,0,0,1,36.2,85.3h1.968a.874.874,0,0,1,0,1.73ZM35.08,83.567a.865.865,0,1,1,0-1.73h2.974a.865.865,0,1,1,0,1.73Zm-.486-3.459a.865.865,0,1,1,0-1.73h3.459a.865.865,0,1,1,0,1.73Zm0-5.189h3.459a.865.865,0,1,1,0,1.73H34.594a.865.865,0,1,1,0-1.73Z" transform="translate(-28.541 -57.622)"/>
            <path id="Trazado_696232" data-name="Trazado 696232" d="M150.594,50.595A2.6,2.6,0,0,0,148,53.189V67.533a3.793,3.793,0,0,0,1.118,2.7,2.073,2.073,0,0,1,.611,1.476v3.966a.865.865,0,0,0,.865.865h6.054a.865.865,0,1,0,0-1.73h-5.189v-3.1a3.793,3.793,0,0,0-1.118-2.7,2.073,2.073,0,0,1-.611-1.476V53.189a.865.865,0,0,1,1.73,0v6.919a2.59,2.59,0,0,0,4.324,1.928,2.59,2.59,0,0,0,4.324-1.928V50.595a.865.865,0,1,1,1.73,0V63.567h-.865a2.6,2.6,0,0,0-2.594,2.595.865.865,0,1,0,1.73,0,.865.865,0,0,1,.865-.865h3.459a1.732,1.732,0,0,1,1.73,1.73v.865h-2.088a2.076,2.076,0,0,0-1.477.612l-1.013,1.013a.357.357,0,0,1-.254.105h-1.223a.865.865,0,0,0-.865.865v5.189a.865.865,0,1,0,1.73,0V71.351h.358a2.076,2.076,0,0,0,1.476-.612l1.013-1.013a.356.356,0,0,1,.254-.105h2.953a.865.865,0,0,0,.865-.865v-1.73a3.463,3.463,0,0,0-3.459-3.459h-.865V50.595a2.595,2.595,0,1,0-5.189,0v3.611a2.579,2.579,0,0,0-2.863.79,2.574,2.574,0,0,0-2.091-.378c-.08.02-.159.045-.235.072v-1.5A2.6,2.6,0,0,0,150.594,50.595Zm6.054,6.054a.865.865,0,0,1,1.73,0v3.459a.865.865,0,0,1-1.73,0Zm-2.8-.354a.877.877,0,0,1,.212-.026.865.865,0,0,1,.863.865v2.974a.865.865,0,1,1-1.73,0V57.134a.865.865,0,0,1,.655-.839Z" transform="translate(-119.46 -41.946)"/>
            <path id="Trazado_696233" data-name="Trazado 696233" d="M366.162,83.893h-10.02l-1.477-1.477a.865.865,0,0,0-.611-.253h-5.189a.865.865,0,0,0,0,1.73H353.7l1.477,1.476a.865.865,0,0,0,.611.253h10.378a2.592,2.592,0,0,0,2.344-3.7,2.594,2.594,0,0,0,1.043-3.813,2.579,2.579,0,0,0,.787-2.86h3.611a2.595,2.595,0,0,0,0-5.189H361.837a3.463,3.463,0,0,0-.692-4.843l-1.384-1.038a.865.865,0,0,0-1.175.13l-4.064,4.74a5.546,5.546,0,0,0-1.266,2.741h-4.392a.865.865,0,0,0-.865.865v6.919a.865.865,0,0,0,1.73,0V73.514h4.324a.865.865,0,0,0,.865-.865,3.814,3.814,0,0,1,.917-2.48l3.537-4.126.735.552a1.732,1.732,0,0,1,.346,2.422L359.416,70.4a.865.865,0,0,0,.692,1.384h13.837a.865.865,0,0,1,0,1.73h-6.919a.865.865,0,0,0,0,1.73h.865a.865.865,0,0,1,0,1.73h-.486a.865.865,0,1,0,0,1.73.865.865,0,0,1,0,1.73h-1.244a.865.865,0,0,0,0,1.73.865.865,0,0,1,0,1.73Z" transform="translate(-276.219 -54.488)"/>
            <path id="Trazado_696234" data-name="Trazado 696234" d="M118.916,20H16.865a.865.865,0,0,0-.865.865V60.647a.865.865,0,0,0,.865.865h9.513a.865.865,0,1,0,0-1.73H17.73V21.73H118.051V59.783H97.295a.865.865,0,0,0-.72.385l-5.334,8V60.647a.865.865,0,0,0-.865-.865H29.837a.865.865,0,1,0,0,1.73H89.511v9.513a.865.865,0,0,0,1.584.48l6.662-9.993h21.158a.865.865,0,0,0,.865-.865V20.865A.865.865,0,0,0,118.916,20Z" transform="translate(-16 -20)"/>
            <path id="Trazado_696235" data-name="Trazado 696235" d="M267.213,58.2a3.818,3.818,0,0,0-3.818-3.818h-1.478a3.034,3.034,0,0,0-1.291.292l.928-6.472a3.676,3.676,0,0,0-3.639-4.2.865.865,0,0,0-.85.706l-.2,1.084a3.6,3.6,0,0,0-2.406-.924.865.865,0,0,0-.847.692l-.542,2.65a3.238,3.238,0,0,0-2.07-.747.865.865,0,0,0-.847.692l-1.806,8.832a5.183,5.183,0,0,0-.07,1.646l1.648,14.012a.865.865,0,0,0,.859.763h5.241a.865.865,0,1,0,0-1.73h-4.472l-1.558-13.248a3.457,3.457,0,0,1,.046-1.1l1.633-7.984a1.527,1.527,0,0,1,.821,1.675l-.828,4.05a.865.865,0,0,0,.674,1.021.874.874,0,0,0,.173.017.865.865,0,0,0,.846-.692l.828-4.049v0l.95-4.645a1.884,1.884,0,0,1,1.2,1.894l-1.213,6.469a.865.865,0,0,0,1.7.319l1.152-6.146a.844.844,0,0,0,.032-.108c.014-.072.019-.144.029-.216l.576-3.075a1.946,1.946,0,0,1,1.232,2.095l-1.221,8.513a.865.865,0,0,0,.733.979.9.9,0,0,0,.124.009.861.861,0,0,0,.538-.191l0,0,1.089-.872a1.3,1.3,0,0,1,.812-.284H263.4a2.088,2.088,0,0,1,2.088,2.088l-.014,1.371a1.181,1.181,0,0,1-.84-.348L263.5,58.091a.865.865,0,0,0-1.091-.108l-2.594,1.73a.865.865,0,0,0-.385.72,3.463,3.463,0,0,0,3.459,3.459.865.865,0,0,0,.72-.385l1.152-1.728a1.08,1.08,0,0,1,.723-.467v1.176a5.108,5.108,0,0,1-.537,2.273l-.7,1.4a1.289,1.289,0,0,1-.75.651l-4.34,1.446a.865.865,0,0,0-.591.821V72.54a.865.865,0,1,0,1.73,0V69.7l3.748-1.249a3.009,3.009,0,0,0,1.751-1.518l.7-1.4a6.845,6.845,0,0,0,.718-3.047V61.12a1.543,1.543,0,0,0-.2-.76,1.732,1.732,0,0,0,.2-.808Zm-3.892,2.623-.86,1.289a1.736,1.736,0,0,1-1.249-1.249l1.566-1.044.627.627c.038.038.077.075.117.11A2.822,2.822,0,0,0,263.322,60.819Z" transform="translate(-198.026 -38.811)"/>
          </g>
        </g>
        <path id="Trazado_724652" data-name="Trazado 724652" d="M250.385,239.761c-15.056-2.206-32.612.156-46.765,5.6A98.836,98.836,0,0,0,181.261,258.1c-3.588,2.614-7.022,5.368-10.331,8.321-.961.858-4.223,5.186-5.493,4.777-4.272-1.379,10.243-14.314,11.906-15.6,7.032-5.417,14.436-10.566,22.615-14.1,13.72-5.933,30.082-9.773,45.081-8.748,8.734.6,17.493,1.1,26,3.623a59.56,59.56,0,0,1,10.384,4.158,63.159,63.159,0,0,1,6.9,4c1.612,1.11,3.111,3.358,4.812,4.142.183-3.315-2.641-6.893-2.708-10.339-.08-4.1,2.854-2.324,4.237.025a108.632,108.632,0,0,1,5.492,11.774c1.479,3.377,4.188,7.338.521,9.978-3.22,2.318-7.446,3.442-11.038,5.016-2.4,1.052-7.082,4.577-9.78,2.994-8.432-4.945,12.457-9.543,13.744-10.479-1.092-1.091-2.812-1.712-4.1-2.616-1.854-1.309-3.5-2.868-5.362-4.169a66.06,66.06,0,0,0-11.332-6.307,59.49,59.49,0,0,0-22.427-4.79c-5.447-.8,1.073.008,0,0" transform="translate(-162.654 -232.583)" fill="#222221"/>
        <path id="Trazado_724653" data-name="Trazado 724653" d="M216.781,264.044c15.056,2.206,32.612-.156,46.765-5.605A98.837,98.837,0,0,0,285.9,245.708c3.588-2.614,7.022-5.368,10.331-8.321.961-.858,4.223-5.186,5.493-4.777,4.272,1.379-10.243,14.314-11.906,15.6-7.032,5.417-14.436,10.566-22.615,14.1-13.72,5.933-30.082,9.773-45.081,8.748-8.734-.6-17.493-1.105-26-3.623a59.557,59.557,0,0,1-10.384-4.158,63.159,63.159,0,0,1-6.9-4c-1.612-1.11-3.111-3.358-4.812-4.142-.183,3.315,2.641,6.893,2.708,10.339.08,4.1-2.854,2.324-4.237-.025a108.634,108.634,0,0,1-5.492-11.774c-1.479-3.377-4.188-7.338-.521-9.978,3.22-2.318,7.446-3.442,11.038-5.016,2.4-1.052,7.082-4.577,9.78-2.994,8.432,4.945-12.457,9.543-13.744,10.479,1.092,1.091,2.812,1.712,4.1,2.616,1.854,1.309,3.5,2.868,5.362,4.169a66.061,66.061,0,0,0,11.332,6.307,59.49,59.49,0,0,0,22.427,4.79c5.447.8-1.073-.008,0,0" transform="translate(107.488 -164.992)" fill="#222221"/>
      </g>
      <g id="Grupo_1014501" data-name="Grupo 1014501" transform="translate(52.271 153.505)">
        <g id="Grupo_1014500" data-name="Grupo 1014500">
          <g id="Grupo_1013404" data-name="Grupo 1013404">
            <g transform="matrix(1, 0, 0, 1, -52.27, -146.3)" filter="url(#Rectángulo_348590-2)">
              <rect id="Rectángulo_348590-4" data-name="Rectángulo 348590" width="346" height="68" rx="10" transform="translate(52.27 146.3)" fill="#ffa031"/>
            </g>
            <text id="Lengua_viso_-_gesto_-_espacial._Lengua_tridimensional_ágrafa." data-name="Lengua viso - gesto - espacial.
Lengua tridimensional ágrafa." transform="translate(173 28)" fill="#12263f" font-size="16" font-family="Roboto-Medium, Roboto" font-weight="500"><tspan x="-108.418" y="0">Lengua viso - gesto - espacial.</tspan><tspan x="-106.973" y="24">Lengua tridimensional ágrafa.</tspan></text>
          </g>
          <g transform="matrix(1, 0, 0, 1, -52.27, -146.3)" filter="url(#Rectángulo_344415-3)">
            <rect id="Rectángulo_344415-7" data-name="Rectángulo 344415" width="346" height="84" rx="10" transform="translate(52.27 330.3)" fill="#fff"/>
          </g>
          <g id="Grupo_1013411-2" data-name="Grupo 1013411" transform="translate(17 193)">
            <text id="Sentido-2" data-name="Sentido" transform="translate(31 17)" fill="#12263f" font-size="18" font-family="Roboto-Black, Roboto" font-weight="800"><tspan x="-31.289" y="0">Sentido</tspan></text>
            <text id="Búsqueda_del_sentido_idéntico_o_en_otras_señas_propias_de_la_lengua_visual." data-name="Búsqueda del sentido idéntico o en otras señas propias de la lengua visual." transform="translate(0 26)" fill="#12263f" font-size="16" font-family="Roboto-Regular, Roboto"><tspan x="0" y="17">Búsqueda del sentido idéntico o en otras </tspan><tspan x="0" y="39">señas propias de la lengua visual.</tspan></text>
          </g>
          <g id="Grupo_1013408" data-name="Grupo 1013408" transform="translate(320 200)">
            <circle id="Elipse_4785" data-name="Elipse 4785" cx="26.5" cy="26.5" r="26.5" fill="#ed9aa9"/>
            <g id="Icons" transform="translate(11.088 11.089)">
              <path id="Shape" d="M19.792,49.044V52.33a1.057,1.057,0,0,1-1.057,1.057H6.057A1.057,1.057,0,0,1,5,52.33V48.22Z" transform="translate(-2.358 -22.745)" fill="#dfc49c"/>
              <path id="Shape-2" data-name="Shape" d="M18.208,49.124V52.41a1.057,1.057,0,0,1-1.057,1.057H6.057A1.057,1.057,0,0,1,5,52.41V48.39Z" transform="translate(-2.358 -22.825)" fill="#ffe0b2"/>
              <path id="Shape-3" data-name="Shape" d="M4.226,8.453V2.113A2.113,2.113,0,1,0,0,2.113V20.6a5.811,5.811,0,0,0,5.811,5.811H16.377a4.755,4.755,0,0,0,4.755-4.755v-6.34Z" fill="#dfc49c"/>
              <g id="Grupo_930129" data-name="Grupo 930129">
                <path id="Shape-4" data-name="Shape" d="M4.226,8.453V2.113A2.113,2.113,0,1,0,0,2.113V20.6a5.811,5.811,0,0,0,5.811,5.811h8.981a4.755,4.755,0,0,0,4.755-4.755v-6.34Z" fill="#ffe0b2"/>
                <path id="Shape-5" data-name="Shape" d="M12.226,13.113v3.7a2.113,2.113,0,1,1-4.226,0v-3.7a2.113,2.113,0,1,1,4.226,0Z" transform="translate(-3.774 -5.189)" fill="#ffe0b2"/>
                <path id="Shape-6" data-name="Shape" d="M20.226,10.113V15.4A2.113,2.113,0,0,1,16,15.4V10.113a2.113,2.113,0,0,1,4.226,0Z" transform="translate(-7.547 -3.774)" fill="#ffe0b2"/>
              </g>
              <path id="Shape-7" data-name="Shape" d="M28.226,14.113a21.192,21.192,0,0,1-.069,3.7H24v-3.7a2.113,2.113,0,0,1,4.226,0Z" transform="translate(-11.321 -5.66)" fill="#dfc49c"/>
              <path id="Shape-8" data-name="Shape" d="M26.642,14.255a21.191,21.191,0,0,1-.069,3.7H24v-3.7A2.113,2.113,0,0,1,25.321,12.3,2.113,2.113,0,0,1,26.642,14.255Z" transform="translate(-11.321 -5.802)" fill="#ffe0b2"/>
              <path id="Shape-9" data-name="Shape" d="M51.382,47.329a1.057,1.057,0,0,1-1.057,1.236H45.043a1.057,1.057,0,0,1-.38-2.023c.28-.122.407-.09,1.437-.09a.528.528,0,0,0,.528-.528V40.641a.528.528,0,0,0-.528-.528H45.043a1.057,1.057,0,0,1-1.057-1.236A1.094,1.094,0,0,1,45.1,38h5.225a1.057,1.057,0,0,1,1.057,1.236,1.094,1.094,0,0,1-1.115.877,8.846,8.846,0,0,0-1.1,0,.528.528,0,0,0-.423.528v5.283a.528.528,0,0,0,.354.5c.148.048.122.032,1.173.032a1.094,1.094,0,0,1,1.115.877Z" transform="translate(-20.741 -17.924)" fill="#bb193b"/>
              <path id="Shape-10" data-name="Shape" d="M49.8,47.329a1.057,1.057,0,0,1-1.057,1.236h-3.7a1.057,1.057,0,0,1-.38-2.023c.28-.122.407-.09,1.437-.09a.528.528,0,0,0,.528-.528V40.641a.528.528,0,0,0-.528-.528H45.043a1.057,1.057,0,0,1-1.057-1.236A1.094,1.094,0,0,1,45.1,38h3.64a1.057,1.057,0,0,1,.38,2.023,4.2,4.2,0,0,1-1.437.09.528.528,0,0,0-.528.528v5.283a.528.528,0,0,0,.528.528,4.464,4.464,0,0,1,1.411.079,1.057,1.057,0,0,1,.7.8Z" transform="translate(-20.741 -17.924)" fill="#ef314c"/>
              <path id="Shape-11" data-name="Shape" d="M30.566,26.17v5.283l-8.981,1.585v-.528a5.283,5.283,0,0,1,5.177-5.283H22.113a2.113,2.113,0,1,1,0-4.226H27.4A3.17,3.17,0,0,1,30.566,26.17Z" transform="translate(-9.434 -10.849)" fill="#dfc49c"/>
              <path id="Shape-12" data-name="Shape" d="M28.981,26.17v6.34l-7.4.433v-.433a5.283,5.283,0,0,1,5.177-5.283H22.113a2.113,2.113,0,1,1,0-4.226h3.7A3.17,3.17,0,0,1,28.981,26.17Z" transform="translate(-9.434 -10.849)" fill="#ffe0b2"/>
            </g>
            <g id="Layer_2" transform="translate(11.063 11.064)">
              <path id="Shape-13" data-name="Shape" d="M10.057,54H9.528a.528.528,0,1,0,0,1.057h.528a.528.528,0,0,0,0-1.057Z" transform="translate(-4.245 -25.472)"/>
              <path id="Shape-14" data-name="Shape" d="M14.528,55.057h7.925a.528.528,0,1,0,0-1.057H14.528a.528.528,0,1,0,0,1.057Z" transform="translate(-6.604 -25.472)"/>
              <path id="Shape-15" data-name="Shape" d="M2.642,26.273v3.841A1.585,1.585,0,0,0,4.226,31.7H16.906a1.585,1.585,0,0,0,1.585-1.585V27.229a5.283,5.283,0,0,0,3.7-5.04v-6.34a3.7,3.7,0,0,0-3.7-3.7h-.528V8.981a2.642,2.642,0,0,0-4.226-2.113A2.642,2.642,0,0,0,8.5,6.377,2.583,2.583,0,0,0,5.283,6.34v-3.7A2.642,2.642,0,0,0,0,2.642V21.132a6.34,6.34,0,0,0,2.642,5.14ZM15.321,7.4a1.585,1.585,0,0,1,1.585,1.585v3.17h-3.17V8.981A1.585,1.585,0,0,1,15.321,7.4ZM9.509,6.868a1.585,1.585,0,1,1,3.17,0V12.2a2.6,2.6,0,0,0-1.87,1.5,1.585,1.585,0,0,1-1.3-1.553Zm-2.642,0A1.585,1.585,0,0,1,8.453,8.453v3.7a1.585,1.585,0,0,1-3.17,0v-3.7A1.585,1.585,0,0,1,6.868,6.868ZM1.057,2.642a1.585,1.585,0,1,1,3.17,0v9.509a2.642,2.642,0,0,0,4.755,1.585,2.642,2.642,0,0,0,1.585,1.02,2.642,2.642,0,0,0,2.642,2.678h1.426a5.811,5.811,0,0,0-2.483,4.755v.528a.528.528,0,0,0,1.057,0v-.528a4.755,4.755,0,0,1,4.755-4.755h1.057a.528.528,0,1,0,0-1.057H13.208a1.585,1.585,0,1,1,0-3.17h5.283a2.642,2.642,0,0,1,2.642,2.642v6.34a4.226,4.226,0,0,1-4.226,4.226.528.528,0,0,0,0,1.057h.528v2.642a.528.528,0,0,1-.528.528H4.226a.528.528,0,0,1-.528-.528V26.885a6.218,6.218,0,0,0,2.642.586.528.528,0,1,0,0-1.057,5.283,5.283,0,0,1-5.283-5.283Z" transform="translate(0 0)"/>
              <path id="Shape-16" data-name="Shape" d="M45.669,46.453a1.585,1.585,0,1,0-.058,3.17h5.283a1.585,1.585,0,0,0,1.585-1.849,1.632,1.632,0,0,0-1.643-1.321h-1V41.17h1A1.585,1.585,0,0,0,50.894,38H45.669a1.585,1.585,0,0,0-.058,3.17h1.057v5.283Zm1-6.34H45.611a.529.529,0,0,1,.058-1.057h5.225a.529.529,0,0,1-.058,1.057h-1A1.057,1.057,0,0,0,48.78,41.17v5.283a1.057,1.057,0,0,0,1.057,1.057h1a.576.576,0,0,1,.581.433.528.528,0,0,1-.523.623H45.611a.529.529,0,1,1,.058-1.057h1a1.057,1.057,0,0,0,1.057-1.057V41.17a1.057,1.057,0,0,0-1.057-1.057Z" transform="translate(-20.78 -17.924)"/>
            </g>
          </g>
          <g transform="matrix(1, 0, 0, 1, -52.27, -146.3)" filter="url(#Rectángulo_344415-4)">
            <rect id="Rectángulo_344415-8" data-name="Rectángulo 344415" width="346" height="84" rx="10" transform="translate(52.27 230.3)" fill="#fff"/>
          </g>
          <g id="Grupo_1013412-2" data-name="Grupo 1013412" transform="translate(17 93)">
            <text id="Seña" transform="translate(20 17)" fill="#12263f" font-size="18" font-family="Roboto-Black, Roboto" font-weight="800"><tspan x="-20.386" y="0">Seña</tspan></text>
            <text id="La_sintaxis_los_campos_semánticos_y_los_giros_idiomáticos.-2" data-name="La sintaxis, los campos semánticos y los giros idiomáticos." transform="translate(0 26)" fill="#12263f" font-size="16" font-family="Roboto-Regular, Roboto"><tspan x="0" y="17">La sintaxis, los campos semánticos y los </tspan><tspan x="0" y="39">giros idiomáticos.</tspan></text>
          </g>
          <g id="Grupo_1013408-2" data-name="Grupo 1013408" transform="translate(320 100)">
            <circle id="Elipse_4785-2" data-name="Elipse 4785" cx="26.5" cy="26.5" r="26.5" fill="#ed9aa9"/>
            <g id="Icons-2" data-name="Icons" transform="translate(11.255 11.089)">
              <path id="Shape-17" data-name="Shape" d="M5,49.044V52.33a1.057,1.057,0,0,0,1.057,1.057H18.736a1.057,1.057,0,0,0,1.057-1.057V48.22Z" transform="translate(8.223 -22.745)" fill="#dfc49c"/>
              <path id="Shape-18" data-name="Shape" d="M5,49.124V52.41a1.057,1.057,0,0,0,1.057,1.057H17.151a1.057,1.057,0,0,0,1.057-1.057V48.39Z" transform="translate(9.808 -22.825)" fill="#ffe0b2"/>
              <path id="Shape-19" data-name="Shape" d="M16.906,8.453V2.113a2.113,2.113,0,1,1,4.226,0V20.6a5.811,5.811,0,0,1-5.811,5.811H4.755A4.755,4.755,0,0,1,0,21.66v-6.34Z" transform="translate(9.525)" fill="#dfc49c"/>
              <g id="Grupo_930129-2" data-name="Grupo 930129" transform="translate(11.11)">
                <path id="Shape-20" data-name="Shape" d="M15.321,8.453V2.113a2.113,2.113,0,1,1,4.226,0V20.6a5.811,5.811,0,0,1-5.811,5.811H4.755A4.755,4.755,0,0,1,0,21.66v-6.34Z" fill="#ffe0b2"/>
                <path id="Shape-21" data-name="Shape" d="M8,13.113v3.7a2.113,2.113,0,1,0,4.226,0v-3.7a2.113,2.113,0,1,0-4.226,0Z" transform="translate(3.094 -5.189)" fill="#ffe0b2"/>
                <path id="Shape-22" data-name="Shape" d="M16,10.113V15.4a2.113,2.113,0,0,0,4.226,0V10.113a2.113,2.113,0,1,0-4.226,0Z" transform="translate(-9.132 -3.774)" fill="#ffe0b2"/>
              </g>
              <path id="Shape-23" data-name="Shape" d="M24,14.113a21.192,21.192,0,0,0,.069,3.7h4.158v-3.7a2.113,2.113,0,0,0-4.226,0Z" transform="translate(-10.249 -5.66)" fill="#dfc49c"/>
              <path id="Shape-24" data-name="Shape" d="M24,14.255a21.191,21.191,0,0,0,.069,3.7h2.573v-3.7A2.113,2.113,0,0,0,25.321,12.3,2.113,2.113,0,0,0,24,14.255Z" transform="translate(-8.664 -5.802)" fill="#ffe0b2"/>
              <path id="Shape-25" data-name="Shape" d="M43.986,47.329a1.057,1.057,0,0,0,1.057,1.236h5.283a1.057,1.057,0,0,0,.38-2.023c-.28-.122-.407-.09-1.437-.09a.528.528,0,0,1-.528-.528V40.641a.528.528,0,0,1,.528-.528h1.057a1.057,1.057,0,0,0,1.057-1.236A1.094,1.094,0,0,0,50.268,38H45.043a1.057,1.057,0,0,0-1.057,1.236,1.094,1.094,0,0,0,1.115.877,8.846,8.846,0,0,1,1.1,0,.528.528,0,0,1,.423.528v5.283a.528.528,0,0,1-.354.5c-.148.048-.122.032-1.173.032a1.094,1.094,0,0,0-1.115.877Z" transform="translate(-43.971 -17.924)" fill="#bb193b"/>
              <path id="Shape-26" data-name="Shape" d="M43.986,47.329a1.057,1.057,0,0,0,1.057,1.236h3.7a1.057,1.057,0,0,0,.38-2.023c-.28-.122-.407-.09-1.437-.09a.528.528,0,0,1-.528-.528V40.641a.528.528,0,0,1,.528-.528h1.057A1.057,1.057,0,0,0,49.8,38.876,1.094,1.094,0,0,0,48.683,38h-3.64a1.057,1.057,0,0,0-.38,2.023,4.2,4.2,0,0,0,1.437.09.528.528,0,0,1,.528.528v5.283a.528.528,0,0,1-.528.528,4.464,4.464,0,0,0-1.411.079,1.057,1.057,0,0,0-.7.8Z" transform="translate(-42.386 -17.924)" fill="#ef314c"/>
              <path id="Shape-27" data-name="Shape" d="M20,26.17v5.283l8.981,1.585v-.528A5.283,5.283,0,0,0,23.8,27.226h4.649a2.113,2.113,0,1,0,0-4.226H23.17A3.17,3.17,0,0,0,20,26.17Z" transform="translate(-10.475 -10.849)" fill="#dfc49c"/>
              <path id="Shape-28" data-name="Shape" d="M20,26.17v6.34l7.4.433v-.433a5.283,5.283,0,0,0-5.177-5.283h4.649a2.113,2.113,0,1,0,0-4.226h-3.7A3.17,3.17,0,0,0,20,26.17Z" transform="translate(-8.89 -10.849)" fill="#ffe0b2"/>
            </g>
            <g id="Layer_2-2" data-name="Layer_2" transform="translate(10.217 11.064)">
              <path id="Shape-29" data-name="Shape" d="M9.528,54h.528a.528.528,0,1,1,0,1.057H9.528a.528.528,0,0,1,0-1.057Z" transform="translate(16.381 -25.472)"/>
              <path id="Shape-30" data-name="Shape" d="M22.453,55.057H14.528a.528.528,0,1,1,0-1.057h7.925a.528.528,0,1,1,0,1.057Z" transform="translate(1.343 -25.472)"/>
              <path id="Shape-31" data-name="Shape" d="M19.547,26.273v3.841A1.585,1.585,0,0,1,17.962,31.7H5.283A1.585,1.585,0,0,1,3.7,30.113V27.229A5.283,5.283,0,0,1,0,22.189v-6.34a3.7,3.7,0,0,1,3.7-3.7h.528V8.981A2.642,2.642,0,0,1,8.453,6.868a2.642,2.642,0,0,1,5.235-.491,2.583,2.583,0,0,1,3.217-.037v-3.7a2.642,2.642,0,0,1,5.283,0V21.132a6.34,6.34,0,0,1-2.642,5.14ZM6.868,7.4A1.585,1.585,0,0,0,5.283,8.981v3.17h3.17V8.981A1.585,1.585,0,0,0,6.868,7.4Zm5.811-.528a1.585,1.585,0,1,0-3.17,0V12.2a2.6,2.6,0,0,1,1.87,1.5,1.585,1.585,0,0,0,1.3-1.553Zm2.642,0a1.585,1.585,0,0,0-1.585,1.585v3.7a1.585,1.585,0,0,0,3.17,0v-3.7A1.585,1.585,0,0,0,15.321,6.868Zm5.811-4.226a1.585,1.585,0,1,0-3.17,0v9.509a2.642,2.642,0,0,1-4.755,1.585,2.642,2.642,0,0,1-1.585,1.02,2.642,2.642,0,0,1-2.642,2.678H7.555a5.811,5.811,0,0,1,2.483,4.755v.528a.528.528,0,0,1-1.057,0v-.528a4.755,4.755,0,0,0-4.755-4.755H3.17a.528.528,0,1,1,0-1.057H8.981a1.585,1.585,0,1,0,0-3.17H3.7a2.642,2.642,0,0,0-2.642,2.642v6.34a4.226,4.226,0,0,0,4.226,4.226.528.528,0,0,1,0,1.057H4.755v2.642a.528.528,0,0,0,.528.528H17.962a.528.528,0,0,0,.528-.528V26.885a6.218,6.218,0,0,1-2.642.586.528.528,0,0,1,0-1.057,5.283,5.283,0,0,0,5.283-5.283Z" transform="translate(9.532 0)"/>
              <path id="Shape-32" data-name="Shape" d="M50.887,46.453a1.585,1.585,0,1,1,.058,3.17H45.662a1.585,1.585,0,0,1-1.585-1.849,1.632,1.632,0,0,1,1.643-1.321h1V41.17h-1A1.585,1.585,0,0,1,45.662,38h5.225a1.585,1.585,0,0,1,.058,3.17H49.888v5.283Zm-1-6.34h1.057a.529.529,0,0,0-.058-1.057H45.662a.529.529,0,0,0,.058,1.057h1a1.057,1.057,0,0,1,1.057,1.057v5.283a1.057,1.057,0,0,1-1.057,1.057h-1a.576.576,0,0,0-.581.433.528.528,0,0,0,.523.623h5.283a.529.529,0,1,0-.058-1.057h-1a1.057,1.057,0,0,1-1.057-1.057V41.17a1.057,1.057,0,0,1,1.057-1.057Z" transform="translate(-44.054 -17.924)"/>
            </g>
          </g>
        </g>
        <g id="Grupo_1013436" data-name="Grupo 1013436" transform="translate(377.73 221.997)">
          <path id="Trazado_724645" data-name="Trazado 724645" d="M355.819,344.949c-3.545,0-14.06.783-16.8-.988-5.2-3.365,6.832-4.064,8.7-4.138,4.243-.169,13.957-.529,17.408,1.272,6.922,3.611-6.432,3.854-9.314,3.854" transform="translate(-337.73 -339.676)" fill="#f6f6f6"/>
          <path id="Trazado_724654" data-name="Trazado 724654" d="M355.819,344.949c-3.545,0-14.06.783-16.8-.988-5.2-3.365,6.832-4.064,8.7-4.138,4.243-.169,13.957-.529,17.408,1.272,6.922,3.611-6.432,3.854-9.314,3.854" transform="translate(-337.73 -330.116)" fill="#f6f6f6"/>
        </g>
        <g id="Grupo_1013437" data-name="Grupo 1013437" transform="translate(377.73 111.229)">
          <g id="Grupo_1013435" data-name="Grupo 1013435" transform="translate(0 7.768)">
            <path id="Trazado_724645-2" data-name="Trazado 724645" d="M355.819,344.949c-3.545,0-14.06.783-16.8-.988-5.2-3.365,6.832-4.064,8.7-4.138,4.243-.169,13.957-.529,17.408,1.272,6.922,3.611-6.432,3.854-9.314,3.854" transform="translate(-337.73 -339.676)" fill="#f6f6f6"/>
            <path id="Trazado_724654-2" data-name="Trazado 724654" d="M355.819,344.949c-3.545,0-14.06.783-16.8-.988-5.2-3.365,6.832-4.064,8.7-4.138,4.243-.169,13.957-.529,17.408,1.272,6.922,3.611-6.432,3.854-9.314,3.854" transform="translate(-337.73 -330.116)" fill="#f6f6f6"/>
          </g>
          <path id="Trazado_724655" data-name="Trazado 724655" d="M18.089,5.273c-3.545,0-14.06.783-16.8-.988C-3.905.92,8.125.221,10,.147,14.239-.022,23.952-.382,27.4,1.419c6.922,3.611-6.432,3.854-9.314,3.854" transform="translate(22.04 1.773) rotate(109)" fill="#f6f6f6"/>
        </g>
      </g>
    </g>
  </g>
</svg>
