<svg xmlns="http://www.w3.org/2000/svg" xmlns:xlink="http://www.w3.org/1999/xlink" width="85" height="73" viewBox="0 0 85 73">
  <defs>
    <filter id="Elipse_7683" x="7" y="3" width="71" height="70" filterUnits="userSpaceOnUse">
      <feOffset dy="3" input="SourceAlpha"/>
      <feGaussianBlur stdDeviation="3" result="blur"/>
      <feFlood flood-opacity="0.161"/>
      <feComposite operator="in" in2="blur"/>
      <feComposite in="SourceGraphic"/>
    </filter>
  </defs>
  <g id="Grupo_1014554" data-name="Grupo 1014554" transform="translate(-183 -412)">
    <g id="Grupo_1006100" data-name="Grupo 1006100" transform="translate(3 -434)">
      <rect id="Rectángulo_345654" data-name="Rectángulo 345654" width="85" height="73" rx="5" transform="translate(180 846)" fill="#4db1f0"/>
      <g id="Grupo_1014553" data-name="Grupo 1014553" transform="translate(1.622 1.558)">
        <g id="Grupo_1003781" data-name="Grupo 1003781" transform="translate(194.804 852.945)">
          <g transform="matrix(1, 0, 0, 1, -16.43, -8.5)" filter="url(#Elipse_7683)">
            <ellipse id="Elipse_7683-2" data-name="Elipse 7683" cx="26.5" cy="26" rx="26.5" ry="26" transform="translate(16 9)" fill="#bfe5f9"/>
          </g>
        </g>
        <g id="Grupo_1006101" data-name="Grupo 1006101" transform="translate(194.989 853.377)">
          <g id="traductor_3_" data-name="traductor (3)" transform="translate(0 0)">
            <path id="Trazado_708818" data-name="Trazado 708818" d="M32.795,349.77v-5.493h-17v5.493a2.429,2.429,0,0,1-1.715,2.322L3.43,355.367A4.858,4.858,0,0,0,0,360.01v4.914a2.429,2.429,0,0,0,2.429,2.429H46.155a2.429,2.429,0,0,0,2.429-2.429V360.01a4.858,4.858,0,0,0-3.43-4.644l-10.645-3.276A2.429,2.429,0,0,1,32.795,349.77Z" transform="translate(0 -312.696)" fill="#f1b8a0"/>
            <path id="Trazado_708819" data-name="Trazado 708819" d="M104.564,351.938c11.526,3.844,18.357-6.851,18.357-6.851l.009-.81H105.967v5.493A2.407,2.407,0,0,1,104.564,351.938Z" transform="translate(-90.177 -312.697)" fill="#c98571"/>
            <path id="Trazado_708820" data-name="Trazado 708820" d="M45.155,406.847,35.8,403.969c-1.6,2.23-6.087,7.823-11.511,8.791-5.424-.969-9.912-6.561-11.511-8.791L3.43,406.847A4.858,4.858,0,0,0,0,411.49V416.4a2.429,2.429,0,0,0,2.429,2.429H46.155a2.429,2.429,0,0,0,2.429-2.429V411.49A4.858,4.858,0,0,0,45.155,406.847Z" transform="translate(0 -364.176)" fill="#006bda"/>
            <path id="Trazado_708823" data-name="Trazado 708823" d="M92.746,150.353l4.875-4.062a4.858,4.858,0,0,0,1.687-2.965l2.77-17.315a9.717,9.717,0,0,0-9.595-11.252h-8.79A9.717,9.717,0,0,0,74.1,126.011l2.77,17.315a4.858,4.858,0,0,0,1.687,2.965l4.875,4.062a3.644,3.644,0,0,0,2.333.845h4.649A3.643,3.643,0,0,0,92.746,150.353Z" transform="translate(-63.796 -114.759)" fill="#f1b8a0"/>
            <path id="Trazado_708824" data-name="Trazado 708824" d="M86.438,197.851H98.585v-3.644H75.151l-.273.32,2.77,17.315a4.859,4.859,0,0,0,1.687,2.965l4.875,4.062a3.644,3.644,0,0,0,2.333.845h1.11l-1.993-5.979a8.5,8.5,0,0,1-.436-2.689V199.065A1.214,1.214,0,0,1,86.438,197.851Z" transform="translate(-64.575 -183.276)" fill="#cf8c78"/>
            <g id="Grupo_1006101-2" data-name="Grupo 1006101" transform="translate(0 43.905)">
              <path id="Trazado_708825" data-name="Trazado 708825" d="M7.191,438.712l-5.77-4.792A4.852,4.852,0,0,0,0,437.347v4.887a2.429,2.429,0,0,0,2.429,2.429H8.5v-3.152A3.644,3.644,0,0,0,7.191,438.712Z" transform="translate(0 -433.91)" fill="#0059bd"/>
              <path id="Trazado_708826" data-name="Trazado 708826" d="M299.812,442.174v-4.887a4.852,4.852,0,0,0-1.429-3.436l-5.762,4.8a3.644,3.644,0,0,0-1.311,2.8V444.6h6.073A2.429,2.429,0,0,0,299.812,442.174Z" transform="translate(-251.228 -433.851)" fill="#0059bd"/>
            </g>
            <path id="Trazado_708827" data-name="Trazado 708827" d="M197.961,298.724c-.061.206-1.582,5.053-10.841,5.053v2.429c11.235,0,13.111-6.564,13.185-6.844Z" transform="translate(-161.374 -273.412)" fill="#464655"/>
            <circle id="Elipse_7684" data-name="Elipse 7684" cx="1.215" cy="1.215" r="1.215" transform="translate(24.532 30.365)" fill="#5b5d6e"/>
            <g id="Grupo_1006102" data-name="Grupo 1006102" transform="translate(8.833 19.434)">
              <path id="Trazado_708828" data-name="Trazado 708828" d="M66.978,256H65.415a1.215,1.215,0,0,0-1.215,1.215v4.858a1.215,1.215,0,0,0,1.215,1.215h2.73Z" transform="translate(-64.2 -256)" fill="#707487"/>
              <path id="Trazado_708829" data-name="Trazado 708829" d="M263.3,256H261.4l-1.166,7.288H263.3a1.215,1.215,0,0,0,1.215-1.215v-4.858A1.215,1.215,0,0,0,263.3,256Z" transform="translate(-233.265 -256)" fill="#707487"/>
            </g>
            <path id="Trazado_708832" data-name="Trazado 708832" d="M92.483,114.759h-8.79A9.717,9.717,0,0,0,74.1,126.011l1.309,8.182h1.935a1.214,1.214,0,0,0,1.2-1.015l.876-5.258a1.215,1.215,0,0,1,1.2-1.015H95.561a1.214,1.214,0,0,1,1.2,1.015l.876,5.258a1.215,1.215,0,0,0,1.2,1.015h1.935l1.309-8.182A9.717,9.717,0,0,0,92.483,114.759Z" transform="translate(-63.796 -114.759)" fill="#383838"/>
            <path id="Trazado_708833" data-name="Trazado 708833" d="M75.162,404.721c1.187,1.767,6.537,9.184,13.523,10.432l.427.076.427-.076c6.986-1.248,12.337-8.665,13.523-10.432l-2.439-.75c-1.6,2.23-6.087,7.822-11.511,8.791-5.424-.969-9.912-6.561-11.511-8.791Z" transform="translate(-64.82 -364.178)" fill="#0059bd"/>
          </g>
          <g id="Grupo_1006103" data-name="Grupo 1006103" transform="translate(28.782 35.102)">
            <g id="Grupo_1006103-2" data-name="Grupo 1006103" transform="translate(0 0)">
              <path id="Trazado_708821" data-name="Trazado 708821" d="M396.335,17.655h-5.31l-5.146,14.581a.931.931,0,0,0,.878,1.24h9.579a2.792,2.792,0,0,0,2.792-2.792V20.447A2.792,2.792,0,0,0,396.335,17.655Z" transform="translate(-375.86 -15.794)" fill="#0059bd"/>
              <path id="Trazado_708822" data-name="Trazado 708822" d="M294.1,0a2.792,2.792,0,0,0-2.792,2.792V13.03a2.792,2.792,0,0,0,2.792,2.792V18.9a.652.652,0,0,0,1.112.461l3.541-3.541h2.792L306.694,1.24A.931.931,0,0,0,305.817,0Z" transform="translate(-291.31)" fill="#e4eaf6"/>
              <path id="Trazado_708830" data-name="Trazado 708830" d="M430.2,60.156l-1.861-6.515a.932.932,0,0,0-.9-.675h-.931a.932.932,0,0,0-.9.675l-1.861,6.515a.931.931,0,0,0,1.79.512l.339-1.187h2.185l.339,1.187a.931.931,0,0,0,1.791-.512Zm-3.783-2.536.561-1.964.561,1.964Z" transform="translate(-409.761 -47.381)" fill="#fff"/>
              <path id="Trazado_708831" data-name="Trazado 708831" d="M326.167,27.413h-2.792a.931.931,0,1,0-1.861,0h-2.792a.931.931,0,0,0,0,1.861h4.537a6.69,6.69,0,0,1-.8,2.078,6.307,6.307,0,0,1-.345-.6.931.931,0,0,0-1.694.773,8.116,8.116,0,0,0,.773,1.341,6.677,6.677,0,0,1-1.887,1.129A.931.931,0,1,0,320,35.723a8.565,8.565,0,0,0,2.459-1.481,8.521,8.521,0,0,0,2.435,1.481.93.93,0,1,0,.691-1.728,6.65,6.65,0,0,1-1.875-1.141,8.613,8.613,0,0,0,1.443-3.579h1.018a.931.931,0,1,0,0-1.861Z" transform="translate(-314.999 -23.69)" fill="#707487"/>
            </g>
          </g>
        </g>
      </g>
    </g>
  </g>
</svg>
