<svg xmlns="http://www.w3.org/2000/svg" xmlns:xlink="http://www.w3.org/1999/xlink" width="236.67" height="225.712" viewBox="0 0 236.67 225.712">
  <defs>
    <clipPath id="clip-path">
      <path id="Trazado_715417" data-name="Trazado 715417" d="M158.613,188.539c5.133-6.283,9.645-13.578,16.314-18.6,6.644-5,15.86-7.227,23-11.65a97.6,97.6,0,0,0,15.416-11.519A42.919,42.919,0,0,1,203.984,157c-4.86,3.816-10.854,6.186-16.325,8.965a49.217,49.217,0,0,0-14.154,10.2c-7.881,8.5-14.9,17.831-25.17,23.623a61.957,61.957,0,0,1-6.676,3.252,57.674,57.674,0,0,0,16.954-14.5M214.3,80.129c-8.351-7.287-18.8-11.439-27.929-17.577-7.351-4.94-12.83-16.211-16.419-23.665-4.845-10.067-12.084-21.578-21.517-28.5a48.5,48.5,0,0,0-12.01-6.341c2.581.569,5.158,1.145,7.689,1.921a33.236,33.236,0,0,1,12.337,7.382,69.6,69.6,0,0,1,14.7,19.269c3.323,6.384,5.406,13.409,9.492,19.388,3.709,5.428,8.984,9.5,14.475,12.99,11.945,7.592,25.533,13.55,30.916,27.73,2.137,5.625,2.169,12,1.676,18.026-.18-11.477-4.351-22.721-13.406-30.623M111.757,0C86.568.019,59.411,10.873,47.472,28.071c-6.414,9.235-7.055,15.907-6.286,26.5C42.306,70.026,37.229,78.651,26,89.158c-9.013,8.433-17.628,18.02-21.9,29.086q.38-1.416.856-2.812c2.672-7.82,7.726-14.744,13.118-20.9,4.875-5.571,10.764-10.269,14.96-16.416,8.9-13.042,2.909-28.908,7.23-43.155C44.932,19.569,61.639,12.711,75.2,7.249c.408-.164-.3-.378-.495-.314C61.066,11.292,45.788,18.41,39.409,32.092c-2.937,6.3-3,13.52-3.1,20.324-.131,9.147-.517,17.46-5.659,25.375-4.362,6.716-11.114,11.843-16.314,17.9-5.419,6.318-10,13.454-12.5,21.433C-1.837,128.8.116,143.74,6.706,154.665a108.916,108.916,0,0,0,8.827,15.955c18.7,28.39,56.949,38.083,88.991,39.335,10.2.4,19.13-.331,27.134-2.741a32.975,32.975,0,0,0,6.35-1.534c3.367-1.219,6.781-2.723,10.023-4.22,11.239-5.19,19.131-15,27.479-23.76,9.153-9.6,22.185-12.392,32.436-20.346a41.458,41.458,0,0,0,11.25-13.846,31.814,31.814,0,0,0,3.316-9.386q.958-1.975,1.748-4.033c6.572-9.962,7.836-24.309,4.952-35.441-3.732-14.412-17.544-21.667-29.352-28.641-6.471-3.823-12.579-8.186-17.086-14.292-4.465-6.05-6.974-13.474-10.484-20.081a72.425,72.425,0,0,0-14.644-18.63c-6.178-5.69-13.535-7.964-21.636-9.434-.679-.123-1.358-.241-2.037-.359a65.047,65.047,0,0,0-8.219-2.018A79.471,79.471,0,0,0,111.872,0Z" transform="translate(0 -0.004)" fill="#f5b3bf"/>
    </clipPath>
    <filter id="Rectángulo_33844" x="184.248" y="135.665" width="43.561" height="28.871" filterUnits="userSpaceOnUse">
      <feOffset dy="3" input="SourceAlpha"/>
      <feGaussianBlur stdDeviation="3" result="blur"/>
      <feFlood flood-opacity="0.161"/>
      <feComposite operator="in" in2="blur"/>
      <feComposite in="SourceGraphic"/>
    </filter>
    <filter id="Trazado_113690" x="193.531" y="143.025" width="40.589" height="29.548" filterUnits="userSpaceOnUse">
      <feOffset dy="3" input="SourceAlpha"/>
      <feGaussianBlur stdDeviation="3" result="blur-2"/>
      <feFlood flood-opacity="0.161"/>
      <feComposite operator="in" in2="blur-2"/>
      <feComposite in="SourceGraphic"/>
    </filter>
    <filter id="Rectángulo_33844-2" x="15.992" y="26.601" width="43.561" height="28.871" filterUnits="userSpaceOnUse">
      <feOffset dy="3" input="SourceAlpha"/>
      <feGaussianBlur stdDeviation="3" result="blur-3"/>
      <feFlood flood-opacity="0.161"/>
      <feComposite operator="in" in2="blur-3"/>
      <feComposite in="SourceGraphic"/>
    </filter>
    <filter id="Trazado_113690-2" x="25.276" y="33.961" width="40.589" height="29.548" filterUnits="userSpaceOnUse">
      <feOffset dy="3" input="SourceAlpha"/>
      <feGaussianBlur stdDeviation="3" result="blur-4"/>
      <feFlood flood-opacity="0.161"/>
      <feComposite operator="in" in2="blur-4"/>
      <feComposite in="SourceGraphic"/>
    </filter>
    <filter id="Trazado_113638" x="78.265" y="25.871" width="65.875" height="65.875" filterUnits="userSpaceOnUse">
      <feOffset dy="3" input="SourceAlpha"/>
      <feGaussianBlur stdDeviation="3" result="blur-5"/>
      <feFlood flood-opacity="0.161"/>
      <feComposite operator="in" in2="blur-5"/>
      <feComposite in="SourceGraphic"/>
    </filter>
  </defs>
  <g id="Grupo_1014210" data-name="Grupo 1014210" transform="translate(8798.938 6419.589)">
    <g id="Grupo_1013696" data-name="Grupo 1013696" transform="translate(-8792.938 -6403.93)">
      <g id="Grupo_1012586" data-name="Grupo 1012586" transform="translate(0 0)">
        <g id="Grupo_1010424" data-name="Grupo 1010424" transform="translate(0 0)">
          <g id="Grupo_1006262" data-name="Grupo 1006262" transform="translate(0 0)">
            <g id="Grupo_1006260" data-name="Grupo 1006260" clip-path="url(#clip-path)">
              <rect id="Rectángulo_346887" data-name="Rectángulo 346887" width="233.932" height="210.349" transform="translate(-1.837 0)" fill="#f5b3bf"/>
            </g>
          </g>
          <g id="Grupo_1006266" data-name="Grupo 1006266" transform="translate(187.248 122.467)">
            <g id="Grupo_1006264" data-name="Grupo 1006264" transform="translate(0 3.539)">
              <g transform="matrix(1, 0, 0, 1, -193.25, -141.66)" filter="url(#Rectángulo_33844)">
                <rect id="Rectángulo_33844-3" data-name="Rectángulo 33844" width="25.56" height="10.871" rx="3" transform="translate(193.25 141.66)" fill="#f9e8dc"/>
              </g>
              <g transform="matrix(1, 0, 0, 1, -193.25, -141.66)" filter="url(#Trazado_113690)">
                <path id="Trazado_113690-3" data-name="Trazado 113690" d="M2.892,11.548H19.7a2.892,2.892,0,0,0,2.892-2.892V2.892A2.892,2.892,0,0,0,19.7,0H2.892A2.892,2.892,0,0,0,0,2.892V8.656a2.892,2.892,0,0,0,2.892,2.892" transform="translate(202.53 149.02)" fill="#f5b3bf"/>
              </g>
              <path id="Trazado_113691" data-name="Trazado 113691" d="M2.81,1.4a1.4,1.4,0,1,0-1.4,1.4,1.4,1.4,0,0,0,1.4-1.4" transform="translate(13.349 11.729)" fill="#fff"/>
              <path id="Trazado_113692" data-name="Trazado 113692" d="M2.81,1.4a1.4,1.4,0,1,0-1.4,1.4,1.4,1.4,0,0,0,1.4-1.4" transform="translate(19.174 11.729)" fill="#fff"/>
              <path id="Trazado_113693" data-name="Trazado 113693" d="M2.81,1.4a1.4,1.4,0,1,0-1.4,1.4,1.4,1.4,0,0,0,1.4-1.4" transform="translate(24.997 11.729)" fill="#fff"/>
            </g>
            <g id="Grupo_1006265" data-name="Grupo 1006265" transform="translate(19.941 0)">
              <path id="Trazado_113641" data-name="Trazado 113641" d="M1520.082,262.383a.741.741,0,1,1-.741-.741.741.741,0,0,1,.741.741" transform="translate(-1518.599 -261.642)" fill="#ed9aa9"/>
              <path id="Trazado_113642" data-name="Trazado 113642" d="M1571.756,262.383a.741.741,0,1,1-.741-.741.741.741,0,0,1,.741.741" transform="translate(-1567.014 -261.642)" fill="#ed9aa9"/>
              <path id="Trazado_113643" data-name="Trazado 113643" d="M1623.431,262.383a.741.741,0,1,1-.741-.741.741.741,0,0,1,.741.741" transform="translate(-1615.427 -261.642)" fill="#ed9aa9"/>
              <path id="Trazado_113644" data-name="Trazado 113644" d="M1675.107,262.383a.741.741,0,1,1-.741-.741.741.741,0,0,1,.741.741" transform="translate(-1663.842 -261.642)" fill="#ed9aa9"/>
              <path id="Trazado_113646" data-name="Trazado 113646" d="M1520.082,311.709a.741.741,0,1,1-.741-.741.741.741,0,0,1,.741.741" transform="translate(-1518.599 -307.855)" fill="#ed9aa9"/>
              <path id="Trazado_113647" data-name="Trazado 113647" d="M1571.756,311.709a.741.741,0,1,1-.741-.741.741.741,0,0,1,.741.741" transform="translate(-1567.014 -307.855)" fill="#ed9aa9"/>
              <path id="Trazado_113648" data-name="Trazado 113648" d="M1623.431,311.709a.741.741,0,1,1-.741-.741.741.741,0,0,1,.741.741" transform="translate(-1615.427 -307.855)" fill="#ed9aa9"/>
              <path id="Trazado_113649" data-name="Trazado 113649" d="M1675.107,311.709a.741.741,0,1,1-.741-.741.741.741,0,0,1,.741.741" transform="translate(-1663.842 -307.855)" fill="#ed9aa9"/>
              <path id="Trazado_113651" data-name="Trazado 113651" d="M1520.082,361.035a.741.741,0,1,1-.741-.741.741.741,0,0,1,.741.741" transform="translate(-1518.599 -354.069)" fill="#ed9aa9"/>
              <path id="Trazado_113652" data-name="Trazado 113652" d="M1571.756,361.035a.741.741,0,1,1-.741-.741.741.741,0,0,1,.741.741" transform="translate(-1567.014 -354.069)" fill="#ed9aa9"/>
              <path id="Trazado_113653" data-name="Trazado 113653" d="M1623.431,361.035a.741.741,0,1,1-.741-.741.741.741,0,0,1,.741.741" transform="translate(-1615.427 -354.069)" fill="#ed9aa9"/>
              <path id="Trazado_113654" data-name="Trazado 113654" d="M1675.107,361.035a.741.741,0,1,1-.741-.741.741.741,0,0,1,.741.741" transform="translate(-1663.842 -354.069)" fill="#ed9aa9"/>
              <path id="Trazado_113656" data-name="Trazado 113656" d="M1520.082,410.362a.741.741,0,1,1-.741-.741.741.741,0,0,1,.741.741" transform="translate(-1518.599 -400.283)" fill="#ed9aa9"/>
              <path id="Trazado_113657" data-name="Trazado 113657" d="M1571.756,410.362a.741.741,0,1,1-.741-.741.741.741,0,0,1,.741.741" transform="translate(-1567.014 -400.283)" fill="#ed9aa9"/>
              <path id="Trazado_113658" data-name="Trazado 113658" d="M1623.431,410.362a.741.741,0,1,1-.741-.741.741.741,0,0,1,.741.741" transform="translate(-1615.427 -400.283)" fill="#ed9aa9"/>
              <path id="Trazado_113659" data-name="Trazado 113659" d="M1675.107,410.362a.741.741,0,1,1-.741-.741.741.741,0,0,1,.741.741" transform="translate(-1663.842 -400.283)" fill="#ed9aa9"/>
              <path id="Trazado_113661" data-name="Trazado 113661" d="M1520.082,459.688a.741.741,0,1,1-.741-.741.741.741,0,0,1,.741.741" transform="translate(-1518.599 -446.496)" fill="#ed9aa9"/>
              <path id="Trazado_113662" data-name="Trazado 113662" d="M1571.756,459.688a.741.741,0,1,1-.741-.741.741.741,0,0,1,.741.741" transform="translate(-1567.014 -446.496)" fill="#ed9aa9"/>
              <path id="Trazado_113663" data-name="Trazado 113663" d="M1623.431,459.688a.741.741,0,1,1-.741-.741.741.741,0,0,1,.741.741" transform="translate(-1615.427 -446.496)" fill="#ed9aa9"/>
              <path id="Trazado_113664" data-name="Trazado 113664" d="M1675.107,459.688a.741.741,0,1,1-.741-.741.741.741,0,0,1,.741.741" transform="translate(-1663.842 -446.496)" fill="#ed9aa9"/>
            </g>
          </g>
          <g id="Grupo_1006268" data-name="Grupo 1006268" transform="translate(18.993 13.403)">
            <g id="Grupo_1006264-2" data-name="Grupo 1006264" transform="translate(0 3.539)">
              <g transform="matrix(1, 0, 0, 1, -24.99, -32.6)" filter="url(#Rectángulo_33844-2)">
                <rect id="Rectángulo_33844-4" data-name="Rectángulo 33844" width="25.56" height="10.871" rx="3" transform="translate(24.99 32.6)" fill="#f9e8dc"/>
              </g>
              <g transform="matrix(1, 0, 0, 1, -24.99, -32.6)" filter="url(#Trazado_113690-2)">
                <path id="Trazado_113690-4" data-name="Trazado 113690" d="M2.892,11.548H19.7a2.892,2.892,0,0,0,2.892-2.892V2.892A2.892,2.892,0,0,0,19.7,0H2.892A2.892,2.892,0,0,0,0,2.892V8.656a2.892,2.892,0,0,0,2.892,2.892" transform="translate(34.28 39.96)" fill="#f5b3bf"/>
              </g>
              <path id="Trazado_113691-2" data-name="Trazado 113691" d="M2.81,1.4a1.4,1.4,0,1,0-1.4,1.4,1.4,1.4,0,0,0,1.4-1.4" transform="translate(13.349 11.729)" fill="#fff"/>
              <path id="Trazado_113692-2" data-name="Trazado 113692" d="M2.81,1.4a1.4,1.4,0,1,0-1.4,1.4,1.4,1.4,0,0,0,1.4-1.4" transform="translate(19.174 11.729)" fill="#fff"/>
              <path id="Trazado_113693-2" data-name="Trazado 113693" d="M2.81,1.4a1.4,1.4,0,1,0-1.4,1.4,1.4,1.4,0,0,0,1.4-1.4" transform="translate(24.997 11.729)" fill="#fff"/>
            </g>
            <g id="Grupo_1006265-2" data-name="Grupo 1006265" transform="translate(19.941)">
              <path id="Trazado_113641-2" data-name="Trazado 113641" d="M1520.082,262.383a.741.741,0,1,1-.741-.741.741.741,0,0,1,.741.741" transform="translate(-1518.599 -261.642)" fill="#ed9aa9"/>
              <path id="Trazado_113642-2" data-name="Trazado 113642" d="M1571.756,262.383a.741.741,0,1,1-.741-.741.741.741,0,0,1,.741.741" transform="translate(-1567.014 -261.642)" fill="#ed9aa9"/>
              <path id="Trazado_113643-2" data-name="Trazado 113643" d="M1623.431,262.383a.741.741,0,1,1-.741-.741.741.741,0,0,1,.741.741" transform="translate(-1615.427 -261.642)" fill="#ed9aa9"/>
              <path id="Trazado_113644-2" data-name="Trazado 113644" d="M1675.107,262.383a.741.741,0,1,1-.741-.741.741.741,0,0,1,.741.741" transform="translate(-1663.842 -261.642)" fill="#ed9aa9"/>
              <path id="Trazado_113646-2" data-name="Trazado 113646" d="M1520.082,311.709a.741.741,0,1,1-.741-.741.741.741,0,0,1,.741.741" transform="translate(-1518.599 -307.855)" fill="#ed9aa9"/>
              <path id="Trazado_113647-2" data-name="Trazado 113647" d="M1571.756,311.709a.741.741,0,1,1-.741-.741.741.741,0,0,1,.741.741" transform="translate(-1567.014 -307.855)" fill="#ed9aa9"/>
              <path id="Trazado_113648-2" data-name="Trazado 113648" d="M1623.431,311.709a.741.741,0,1,1-.741-.741.741.741,0,0,1,.741.741" transform="translate(-1615.427 -307.855)" fill="#ed9aa9"/>
              <path id="Trazado_113649-2" data-name="Trazado 113649" d="M1675.107,311.709a.741.741,0,1,1-.741-.741.741.741,0,0,1,.741.741" transform="translate(-1663.842 -307.855)" fill="#ed9aa9"/>
              <path id="Trazado_113651-2" data-name="Trazado 113651" d="M1520.082,361.035a.741.741,0,1,1-.741-.741.741.741,0,0,1,.741.741" transform="translate(-1518.599 -354.069)" fill="#ed9aa9"/>
              <path id="Trazado_113652-2" data-name="Trazado 113652" d="M1571.756,361.035a.741.741,0,1,1-.741-.741.741.741,0,0,1,.741.741" transform="translate(-1567.014 -354.069)" fill="#ed9aa9"/>
              <path id="Trazado_113653-2" data-name="Trazado 113653" d="M1623.431,361.035a.741.741,0,1,1-.741-.741.741.741,0,0,1,.741.741" transform="translate(-1615.427 -354.069)" fill="#ed9aa9"/>
              <path id="Trazado_113654-2" data-name="Trazado 113654" d="M1675.107,361.035a.741.741,0,1,1-.741-.741.741.741,0,0,1,.741.741" transform="translate(-1663.842 -354.069)" fill="#ed9aa9"/>
              <path id="Trazado_113656-2" data-name="Trazado 113656" d="M1520.082,410.362a.741.741,0,1,1-.741-.741.741.741,0,0,1,.741.741" transform="translate(-1518.599 -400.283)" fill="#ed9aa9"/>
              <path id="Trazado_113657-2" data-name="Trazado 113657" d="M1571.756,410.362a.741.741,0,1,1-.741-.741.741.741,0,0,1,.741.741" transform="translate(-1567.014 -400.283)" fill="#ed9aa9"/>
              <path id="Trazado_113658-2" data-name="Trazado 113658" d="M1623.431,410.362a.741.741,0,1,1-.741-.741.741.741,0,0,1,.741.741" transform="translate(-1615.427 -400.283)" fill="#ed9aa9"/>
              <path id="Trazado_113659-2" data-name="Trazado 113659" d="M1675.107,410.362a.741.741,0,1,1-.741-.741.741.741,0,0,1,.741.741" transform="translate(-1663.842 -400.283)" fill="#ed9aa9"/>
              <path id="Trazado_113661-2" data-name="Trazado 113661" d="M1520.082,459.688a.741.741,0,1,1-.741-.741.741.741,0,0,1,.741.741" transform="translate(-1518.599 -446.496)" fill="#ed9aa9"/>
              <path id="Trazado_113662-2" data-name="Trazado 113662" d="M1571.756,459.688a.741.741,0,1,1-.741-.741.741.741,0,0,1,.741.741" transform="translate(-1567.014 -446.496)" fill="#ed9aa9"/>
              <path id="Trazado_113663-2" data-name="Trazado 113663" d="M1623.431,459.688a.741.741,0,1,1-.741-.741.741.741,0,0,1,.741.741" transform="translate(-1615.427 -446.496)" fill="#ed9aa9"/>
              <path id="Trazado_113664-2" data-name="Trazado 113664" d="M1675.107,459.688a.741.741,0,1,1-.741-.741.741.741,0,0,1,.741.741" transform="translate(-1663.842 -446.496)" fill="#ed9aa9"/>
            </g>
          </g>
          <g id="Grupo_1006267" data-name="Grupo 1006267" transform="translate(81.265 16.212)">
            <g id="Grupo_1003557" data-name="Grupo 1003557" transform="translate(0 0)">
              <path id="Trazado_113637" data-name="Trazado 113637" d="M1047.816,468.269a29.789,29.789,0,1,0-29.789,29.789,29.789,29.789,0,0,0,29.789-29.789" transform="translate(-986.494 -438.48)" fill="#ed9aa9"/>
              <g transform="matrix(1, 0, 0, 1, -87.26, -31.87)" filter="url(#Trazado_113638)">
                <path id="Trazado_113638-2" data-name="Trazado 113638" d="M1111.2,537.507a23.938,23.938,0,1,0-23.938,23.938,23.938,23.938,0,0,0,23.938-23.938" transform="translate(-976.06 -481.7)" fill="#fff" opacity="0.5"/>
              </g>
            </g>
          </g>
        </g>
      </g>
    </g>
    <g id="_6736957" data-name="6736957" transform="translate(-8803.174 -6407.459)">
      <g id="Background_Complete" data-name="Background Complete" transform="translate(76.833 -11.986)">
        <g id="Grupo_1006745" data-name="Grupo 1006745" transform="translate(0 170.331)">
          <g id="Grupo_1006743" data-name="Grupo 1006743" transform="translate(0 22.583)">
            <path id="Trazado_717267" data-name="Trazado 717267" d="M177.84,411.48v17.665h54.326V411.48Z" transform="translate(-175.56 -406.544)" fill="#f5f5f5"/>
            <path id="Trazado_717268" data-name="Trazado 717268" d="M172.75,400.46V405.4h58.505V400.46H172.75Z" transform="translate(-172.75 -400.46)" fill="#e0e0e0"/>
            <path id="Trazado_717269" data-name="Trazado 717269" d="M236.658,423.061h27.354V405.4h1.9V400.46H235.52v4.479Z" transform="translate(-207.405 -400.46)" fill="#e0e0e0"/>
            <rect id="Rectángulo_347113" data-name="Rectángulo 347113" width="11.018" height="2.661" transform="translate(9.881 7.789)" fill="#e0e0e0"/>
            <rect id="Rectángulo_347114" data-name="Rectángulo 347114" width="14.145" height="5.617" transform="translate(8.461 13.769)" fill="#fff"/>
          </g>
          <g id="Grupo_1006744" data-name="Grupo 1006744" transform="translate(4.309)">
            <path id="Trazado_717270" data-name="Trazado 717270" d="M186.88,361.07v17.665h54.326V361.07Z" transform="translate(-184.86 -356.13)" fill="#f5f5f5"/>
            <path id="Trazado_717271" data-name="Trazado 717271" d="M182.37,350.04v4.94h58.505v-4.94H182.37Z" transform="translate(-182.37 -350.04)" fill="#ebebeb"/>
            <path id="Trazado_717272" data-name="Trazado 717272" d="M245.7,372.646h27.613V354.98h1.639v-4.94H244.56v4.484Z" transform="translate(-216.705 -350.04)" fill="#ebebeb"/>
            <rect id="Rectángulo_347115" data-name="Rectángulo 347115" width="11.018" height="2.661" transform="translate(9.617 7.789)" fill="#e0e0e0"/>
            <rect id="Rectángulo_347116" data-name="Rectángulo 347116" width="14.145" height="5.617" transform="translate(8.201 13.773)" fill="#fff"/>
          </g>
        </g>
        <g id="Grupo_1010816" data-name="Grupo 1010816" transform="translate(81.269 170.331)">
          <g id="Grupo_1006743-2" data-name="Grupo 1006743" transform="translate(4.309 22.583)">
            <path id="Trazado_717267-2" data-name="Trazado 717267" d="M232.167,411.48v17.666H177.84V411.48Z" transform="translate(-175.941 -406.544)" fill="#f5f5f5"/>
            <path id="Trazado_717268-2" data-name="Trazado 717268" d="M231.256,400.46V405.4H172.75V400.46h58.506Z" transform="translate(-172.75 -400.46)" fill="#e0e0e0"/>
            <path id="Trazado_717269-2" data-name="Trazado 717269" d="M264.773,423.061H237.419V405.4h-1.9V400.46h30.39v4.479Z" transform="translate(-235.52 -400.46)" fill="#e0e0e0"/>
            <rect id="Rectángulo_347113-2" data-name="Rectángulo 347113" width="11.018" height="2.661" transform="translate(37.606 7.789)" fill="#e0e0e0"/>
            <rect id="Rectángulo_347114-2" data-name="Rectángulo 347114" width="14.145" height="5.617" transform="translate(35.9 13.769)" fill="#fff"/>
          </g>
          <g id="Grupo_1006744-2" data-name="Grupo 1006744" transform="translate(0 0)">
            <path id="Trazado_717270-2" data-name="Trazado 717270" d="M241.207,361.07v17.665H186.88V361.07Z" transform="translate(-184.721 -356.13)" fill="#f5f5f5"/>
            <path id="Trazado_717271-2" data-name="Trazado 717271" d="M240.876,350.04v4.94H182.37v-4.94h58.506Z" transform="translate(-182.37 -350.04)" fill="#ebebeb"/>
            <path id="Trazado_717272-2" data-name="Trazado 717272" d="M273.813,372.646H246.2V354.98H244.56v-4.94h30.39v4.484Z" transform="translate(-244.3 -350.04)" fill="#ebebeb"/>
            <rect id="Rectángulo_347115-2" data-name="Rectángulo 347115" width="11.018" height="2.661" transform="translate(37.87 7.789)" fill="#e0e0e0"/>
            <rect id="Rectángulo_347116-2" data-name="Rectángulo 347116" width="14.145" height="5.617" transform="translate(36.159 13.773)" fill="#fff"/>
          </g>
        </g>
        <g id="Grupo_1006749" data-name="Grupo 1006749" transform="translate(74.669)">
          <rect id="Rectángulo_347117" data-name="Rectángulo 347117" width="66.088" height="95.789" transform="translate(3.326 0.001)" fill="#e0e0e0"/>
          <rect id="Rectángulo_347118" data-name="Rectángulo 347118" width="66.088" height="95.789" transform="translate(0.016 0.001)" fill="#f5f5f5"/>
          <g id="Grupo_1006746" data-name="Grupo 1006746" transform="translate(8.047 10.196)">
            <rect id="Rectángulo_347119" data-name="Rectángulo 347119" width="49.664" height="75.042" transform="translate(0.179 0.184)" fill="#fff"/>
            <path id="Trazado_717273" data-name="Trazado 717273" d="M347.933,97.981s0-.125-.009-.367,0-.6-.009-1.066c0-.945-.013-2.325-.018-4.116-.009-3.6-.027-8.837-.045-15.457-.018-13.231-.049-31.972-.081-54.035l.166.166-49.659.013h0l.179-.179c-.013,28.308-.027,54.407-.036,75.042l-.143-.143,36.151.076c4.313.018,7.686.027,9.988.036,1.142.009,2.02.013,2.62.018s.9.013.9.013-.291.009-.878.013-1.465.009-2.593.018c-2.293.009-5.653.022-9.957.036l-36.24.076h-.143v-.143c-.009-20.631-.022-46.734-.036-75.042V22.76h.184l49.659.013h.166v.166c-.031,22.109-.063,40.885-.081,54.143-.018,6.607-.036,11.834-.045,15.421-.009,1.778-.013,3.149-.018,4.085,0,.457-.009.8-.009,1.044s-.009.349-.009.349Z" transform="translate(-298.09 -22.76)" fill="#e0e0e0"/>
          </g>
          <path id="Trazado_717274" data-name="Trazado 717274" d="M417.026,0a11.332,11.332,0,0,1-1.178,1.711c-.766,1.026-1.859,2.423-3.1,3.933s-2.405,2.849-3.265,3.8a11.112,11.112,0,0,1-1.456,1.483,12.762,12.762,0,0,1,1.263-1.648c.887-1.075,1.975-2.4,3.18-3.861s2.293-2.786,3.18-3.861A12.347,12.347,0,0,1,417.031,0Z" transform="translate(-350.738 0.003)" fill="#e0e0e0"/>
          <g id="Grupo_1006747" data-name="Grupo 1006747" transform="translate(58.142 85.174)">
            <path id="Trazado_717275" data-name="Trazado 717275" d="M409.94,190.16a61.568,61.568,0,0,0,8.663,10.835" transform="translate(-409.937 -190.159)" fill="#fff"/>
            <path id="Trazado_717276" data-name="Trazado 717276" d="M418.6,200.994a10.037,10.037,0,0,1-1.509-1.375,48.2,48.2,0,0,1-3.27-3.686,47.348,47.348,0,0,1-2.876-4,9.96,9.96,0,0,1-1.008-1.774,13.785,13.785,0,0,1,1.218,1.635c.73,1.021,1.751,2.423,2.947,3.915s2.334,2.8,3.171,3.736a13.478,13.478,0,0,1,1.326,1.55Z" transform="translate(-409.933 -190.158)" fill="#e0e0e0"/>
          </g>
          <g id="Grupo_1006748" data-name="Grupo 1006748" transform="translate(0 85.03)">
            <path id="Trazado_717277" data-name="Trazado 717277" d="M280.14,200.538q4.327-5.341,8.658-10.678" transform="translate(-280.133 -189.85)" fill="#fff"/>
            <path id="Trazado_717278" data-name="Trazado 717278" d="M288.785,189.843a65.432,65.432,0,0,1-4.188,5.451,64.55,64.55,0,0,1-4.47,5.227,65.881,65.881,0,0,1,4.188-5.455,67.2,67.2,0,0,1,4.466-5.227Z" transform="translate(-280.125 -189.837)" fill="#e0e0e0"/>
          </g>
          <path id="Trazado_717279" data-name="Trazado 717279" d="M280.157,0a60.109,60.109,0,0,1,4.2,5.021,59.24,59.24,0,0,1,3.919,5.245,60.126,60.126,0,0,1-4.2-5.021A58.524,58.524,0,0,1,280.157,0Z" transform="translate(-280.141 0.003)" fill="#e0e0e0"/>
          <rect id="Rectángulo_347120" data-name="Rectángulo 347120" width="16.631" height="47.218" transform="translate(25.788 25.613)" fill="#e0e0e0"/>
        </g>
      </g>
      <g id="Desk" transform="translate(4.236 203.57)">
        <path id="Trazado_717280" data-name="Trazado 717280" d="M207.157,451.127c0,.063-43.989.116-98.239.116s-98.248-.054-98.248-.116,43.98-.117,98.248-.117S207.157,451.064,207.157,451.127Z" transform="translate(-10.67 -451.01)" fill="#263238"/>
      </g>
      <g id="Book" transform="translate(17.97 11.272)">
        <g id="Grupo_1006760" data-name="Grupo 1006760" transform="translate(0 0)">
          <path id="Trazado_717281" data-name="Trazado 717281" d="M25.763,252.844s5.743,4.832,6.684,4.757a9.625,9.625,0,0,1,1.937.088l-6.171-5.7-2.453.854Z" transform="translate(-25.422 -168.992)" fill="#112e4c"/>
          <path id="Trazado_717282" data-name="Trazado 717282" d="M102.961,105.945l-58.417-2.537a1.366,1.366,0,0,1-1.3-1.41c.985-32.179,2.585-70.364,3.506-81.651a1.363,1.363,0,0,1,1.41-1.259l58.457,2.537a1.363,1.363,0,0,1,1.292,1.431l-3.543,81.573a1.364,1.364,0,0,1-1.414,1.313Z" transform="translate(-37.01 -14.673)" fill="#112e4c"/>
          <path id="Trazado_717283" data-name="Trazado 717283" d="M94.368,97.532,36.019,95.423,31.42,91.9,34.19,8.33l60.438,4.123L97.614,15.8Z" transform="translate(-29.172 -7.546)" fill="#fff"/>
          <path id="Trazado_717284" data-name="Trazado 717284" d="M207.312,103.939,201.88,99.08,206.59,18l3.968,4.208Z" transform="translate(-142.117 -13.953)" fill="#e0e0e0"/>
          <g id="Grupo_1006759" data-name="Grupo 1006759">
            <path id="Trazado_717285" data-name="Trazado 717285" d="M85.281,92.894l-59.21-2.571a1.373,1.373,0,0,1-1.313-1.41c.982-32.179,2.578-70.364,3.506-81.651a1.369,1.369,0,0,1,1.427-1.255L88.945,8.582a1.377,1.377,0,0,1,1.313,1.431L86.715,91.585A1.377,1.377,0,0,1,85.284,92.9Z" transform="translate(-24.758 -6.006)" fill="#005b8b"/>
            <path id="Trazado_717286" data-name="Trazado 717286" d="M39.816,92.343c-.047,0,.725-18.706,1.728-41.768S43.4,8.807,43.447,8.81s-.725,18.7-1.728,41.775-1.852,41.765-1.9,41.762Z" transform="translate(-34.734 -7.864)" fill="#263238"/>
            <g id="Grupo_1006750" data-name="Grupo 1006750" transform="translate(9.081 4.351)" opacity="0.3">
              <path id="Trazado_717287" data-name="Trazado 717287" d="M99.35,96.863,51.67,94.791,54.97,18.9l47.68,2.072-3.3,75.891ZM53.077,93.5l44.981,1.954,3.178-73.2L56.255,20.307Z" transform="translate(-51.67 -18.9)"/>
            </g>
            <g id="Grupo_1006751" data-name="Grupo 1006751" transform="translate(27.58 74.193)" opacity="0.3">
              <rect id="Rectángulo_347121" data-name="Rectángulo 347121" width="9.964" height="2.794" transform="translate(0.121 0) rotate(2.49)"/>
            </g>
            <g id="Grupo_1006752" data-name="Grupo 1006752" transform="translate(34.236 9.655)" opacity="0.3">
              <rect id="Rectángulo_347122" data-name="Rectángulo 347122" width="4.643" height="2.794" transform="translate(0.121 0) rotate(2.49)"/>
            </g>
            <g id="Grupo_1006753" data-name="Grupo 1006753" transform="translate(17.585 21.652)" opacity="0.3">
              <rect id="Rectángulo_347123" data-name="Rectángulo 347123" width="34.99" height="12.474" transform="translate(0.542 0) rotate(2.49)"/>
            </g>
            <g id="Grupo_1006754" data-name="Grupo 1006754" transform="translate(21.155 37.694)" opacity="0.3">
              <rect id="Rectángulo_347124" data-name="Rectángulo 347124" width="25.768" height="5.254" transform="translate(0.228 0) rotate(2.49)"/>
            </g>
            <g id="Grupo_1006755" data-name="Grupo 1006755" transform="translate(2.653 11.715)" opacity="0.3">
              <rect id="Rectángulo_347125" data-name="Rectángulo 347125" width="3.583" height="2.257" transform="translate(0.098 0) rotate(2.49)"/>
            </g>
            <g id="Grupo_1006756" data-name="Grupo 1006756" transform="translate(2.501 15.197)" opacity="0.3">
              <rect id="Rectángulo_347126" data-name="Rectángulo 347126" width="3.583" height="2.257" transform="translate(0.098 0) rotate(2.49)"/>
            </g>
            <g id="Grupo_1006757" data-name="Grupo 1006757" transform="translate(0.144 75.493)" opacity="0.3">
              <rect id="Rectángulo_347127" data-name="Rectángulo 347127" width="3.317" height="2.257" transform="translate(0.098 0) rotate(2.49)"/>
            </g>
            <g id="Grupo_1006758" data-name="Grupo 1006758" transform="translate(0.539 23.682)" opacity="0.3">
              <rect id="Rectángulo_347128" data-name="Rectángulo 347128" width="3.583" height="38.823" transform="translate(1.687 0) rotate(2.49)"/>
            </g>
          </g>
          <path id="Trazado_717288" data-name="Trazado 717288" d="M100.85,26.28s0,.125-.007.364-.02.6-.037,1.066c-.037.941-.091,2.325-.162,4.1-.148,3.566-.361,8.719-.628,15.086-.547,12.741-1.3,30.333-2.136,49.765-.172,3.992-.344,7.9-.506,11.651v.088l-.091,0c-16.682-.736-31.363-1.383-41.88-1.849l-12.37-.563c-1.448-.071-2.568-.121-3.33-.159l-.86-.044c-.192-.01-.294-.02-.294-.02s.1,0,.294,0l.864.03c.763.03,1.883.074,3.33.128,2.905.121,7.116.294,12.373.513l41.883,1.788-.091.084c.162-3.745.331-7.659.506-11.651C98.563,77.229,99.335,59.637,99.9,46.9c.287-6.367.523-11.519.682-15.082.084-1.778.148-3.158.2-4.1.024-.466.044-.823.054-1.066s.024-.364.024-.364Z" transform="translate(-33.896 -19.439)" fill="#263238"/>
        </g>
      </g>
      <g id="Glasses" transform="translate(9.618 40.729)">
        <g id="Grupo_1006765" data-name="Grupo 1006765" transform="translate(0 0)">
          <g id="Grupo_1006762" data-name="Grupo 1006762" transform="translate(0 13.001)">
            <path id="Trazado_717289" data-name="Trazado 717289" d="M8.208,147.382C8.39,147.524,38,136.95,38,136.95l-.911-2.72L8.019,142l-1.589,2.48Z" transform="translate(-4.262 -133.424)" fill="#263238"/>
            <path id="Trazado_717290" data-name="Trazado 717290" d="M26.062,161.166c-.26.088-1.2.067-1.005-1.144s9.34-15.828,10.375-17.184a13.876,13.876,0,0,1,4.461-3.779c2.1-1.174,8.425-3.759,8.425-3.759l.871,2.6s-6.269,1.761-9.13,3.658-3.647,3.371-6.141,7.767-3.9,9.64-5.152,10.932a2.913,2.913,0,0,1-2.706.9Z" transform="translate(-16.585 -134.133)" fill="#263238"/>
            <path id="Trazado_717291" data-name="Trazado 717291" d="M31.6,132.245a61.547,61.547,0,0,0-10.214.3,50.808,50.808,0,0,0-18.123,7.022L.283,141.541a.564.564,0,0,0-.25.665l1.329,3.978a.57.57,0,0,0,.429.375,3.015,3.015,0,0,1,2.021,1.576c.9,1.616,4.322,7.19,7.416,8.192s9.063-.513,11.759-1.414,8.412-3.172,9.775-6.627a28.61,28.61,0,0,0,1.5-9.856c0-2.159.462-3.033,2.065-3.57l-1.009-3.02A24.543,24.543,0,0,1,31.6,132.245Zm.449,5.324c1.174,5.338.533,8.209-.294,9.967-1.07,2.264-2.595,4.154-8.938,6.252-6.553,2.17-10.487,1.62-11.965.881s-4.16-4.849-5.645-8.634.037-5.156,1.91-6.661a31.052,31.052,0,0,1,6.2-3.023c.385-.148.779-.27,1.171-.4a53.447,53.447,0,0,1,7.44-1.964c1.815-.256,8.945-1.758,10.122,3.58Z" transform="translate(-0.004 -131.84)" fill="#263238"/>
            <path id="Trazado_717292" data-name="Trazado 717292" d="M40.949,140.947s-.024-.067-.061-.2a4.194,4.194,0,0,0-.189-.57,4.4,4.4,0,0,0-1.329-1.849A6.3,6.3,0,0,0,36,137.1a18.076,18.076,0,0,0-4.822.283,42.128,42.128,0,0,0-5.712,1.373c-1.016.3-2.051.644-3.111,1.016q-1.579.6-3.205,1.34c-.54.25-1.08.509-1.616.8a9.482,9.482,0,0,0-1.542.985,11.12,11.12,0,0,0-1.38,1.265,3.766,3.766,0,0,0-.894,1.636,4.535,4.535,0,0,0-.02,1.906,9.52,9.52,0,0,0,.574,1.883,30.941,30.941,0,0,0,1.765,3.647,23.772,23.772,0,0,0,2.254,3.364,6.025,6.025,0,0,0,1.421,1.333,5.8,5.8,0,0,0,1.839.553,15.278,15.278,0,0,0,3.782.044,26,26,0,0,0,3.587-.631c1.154-.28,2.264-.614,3.327-.982a30.235,30.235,0,0,0,3.043-1.2,15.4,15.4,0,0,0,2.642-1.512,7.908,7.908,0,0,0,1.947-2A10.018,10.018,0,0,0,41,149.915a10.587,10.587,0,0,0,.472-2.224,17.44,17.44,0,0,0-.034-3.651c-.1-1-.243-1.771-.337-2.291-.047-.256-.084-.452-.111-.59s-.034-.2-.034-.2.02.067.051.2.074.334.128.59c.1.52.253,1.289.371,2.291a17.164,17.164,0,0,1,.064,3.671,10.439,10.439,0,0,1-.462,2.251,8.449,8.449,0,0,1-.476,1.164,9.192,9.192,0,0,1-.651,1.154,8.029,8.029,0,0,1-1.967,2.038,15.119,15.119,0,0,1-2.659,1.535,31.623,31.623,0,0,1-3.054,1.215c-1.066.371-2.18.712-3.34,1a26.111,26.111,0,0,1-3.607.641,15.476,15.476,0,0,1-3.826-.044,6.023,6.023,0,0,1-1.9-.57,6.19,6.19,0,0,1-1.471-1.373,23.732,23.732,0,0,1-2.271-3.388,30.762,30.762,0,0,1-1.775-3.668,9.619,9.619,0,0,1-.584-1.92,4.721,4.721,0,0,1,.024-1.981,3.85,3.85,0,0,1,.361-.918,4.916,4.916,0,0,1,.574-.79,11.391,11.391,0,0,1,1.4-1.282,9.689,9.689,0,0,1,1.569-1c.54-.287,1.083-.55,1.626-.8q1.63-.739,3.216-1.336c1.07-.371,2.109-.715,3.128-1.012a41.558,41.558,0,0,1,5.733-1.356,18.183,18.183,0,0,1,4.852-.256,6.343,6.343,0,0,1,3.408,1.279,4.371,4.371,0,0,1,1.319,1.89,4.132,4.132,0,0,1,.172.58c.03.132.044.2.044.2Z" transform="translate(-8.902 -135.217)" fill="#fff"/>
            <g id="Grupo_1006761" data-name="Grupo 1006761" transform="translate(5.518 3.181)" opacity="0.3">
              <path id="Trazado_717293" data-name="Trazado 717293" d="M23.967,143.124c-.4.155-7.561,2.935-7.609,5.692s2.595,7.956,4.093,9.721,5.979,1.819,8.209,1.333,3.165-18.595,3.165-18.595-2.44-.229-7.858,1.852Z" transform="translate(-16.358 -141.268)" fill="#fff"/>
            </g>
            <path id="Trazado_717294" data-name="Trazado 717294" d="M63.6,138.6s-.179.1-.513.256c-.361.165-.84.381-1.417.644a47.333,47.333,0,0,0-4.565,2.318,14.647,14.647,0,0,0-2.264,1.657,11.839,11.839,0,0,0-1.532,1.7c-.385.53-.678.972-.881,1.279a3.421,3.421,0,0,1-.327.469,3.373,3.373,0,0,1,.27-.506c.186-.317.462-.773.837-1.316a11.47,11.47,0,0,1,1.522-1.748,14.165,14.165,0,0,1,2.284-1.687,38.6,38.6,0,0,1,4.606-2.281c.6-.263,1.1-.456,1.441-.594A3.449,3.449,0,0,1,63.6,138.6Z" transform="translate(-34.521 -136.317)" fill="#455a64"/>
            <path id="Trazado_717295" data-name="Trazado 717295" d="M78.121,143.11a7.689,7.689,0,0,1-1.026.486c-.641.283-1.522.678-2.49,1.13s-1.836.877-2.463,1.184a8.463,8.463,0,0,1-1.032.476,6.758,6.758,0,0,1,.975-.584c.614-.337,1.478-.779,2.446-1.232s1.863-.83,2.517-1.083a6.386,6.386,0,0,1,1.073-.371Z" transform="translate(-47.117 -139.307)" fill="#455a64"/>
          </g>
          <g id="Grupo_1006764" data-name="Grupo 1006764" transform="translate(34.32)">
            <path id="Trazado_717296" data-name="Trazado 717296" d="M140.051,101.28c-.061.223-30.07,9.586-30.07,9.586l-.911-2.72L136.964,96.87l2.763,1.026.327,3.388Z" transform="translate(-106.59 -95.668)" fill="#263238"/>
            <path id="Trazado_717297" data-name="Trazado 717297" d="M145.627,132.113c.26-.088,1-.671.115-1.518s-16.982-7.025-18.625-7.484a13.886,13.886,0,0,0-5.837-.334c-2.379.324-8.989,2.065-8.989,2.065l.871,2.6s6.067-2.365,9.495-2.571,4.94.5,9.579,2.51,8.918,5.355,10.689,5.635a2.918,2.918,0,0,0,2.706-.9Z" transform="translate(-108.724 -112.729)" fill="#263238"/>
            <path id="Trazado_717298" data-name="Trazado 717298" d="M101.723,106.644l1.009,3.02c1.6-.536,2.5-.115,3.8,1.609a28.6,28.6,0,0,0,7.126,6.971c3.168,1.94,9.1.314,11.8-.587s8.378-3.28,10.244-5.945,1.248-9.171,1-11.006a3.02,3.02,0,0,1,.665-2.477.57.57,0,0,0,.118-.557l-1.329-3.978a.564.564,0,0,0-.6-.381l-3.57.213a50.913,50.913,0,0,0-18.7,5.294,61.584,61.584,0,0,0-8.338,5.9,24.679,24.679,0,0,1-3.216,1.917Zm11.992-6.34a53.489,53.489,0,0,1,7.126-2.909c.391-.132.779-.27,1.178-.385a31.118,31.118,0,0,1,6.772-1.316c2.4.074,4.44.256,5.53,4.174s1.424,8.81.685,10.291-3.55,4.285-10.089,6.5c-6.33,2.139-8.685,1.545-10.9.381-1.717-.9-3.958-2.811-6.232-7.784S112.112,101.191,113.715,100.3Z" transform="translate(-101.72 -93.309)" fill="#263238"/>
            <path id="Trazado_717299" data-name="Trazado 717299" d="M124.6,104.856s-.057.037-.175.1-.3.165-.526.294c-.462.26-1.147.638-1.977,1.2a10.766,10.766,0,0,0-2.666,2.473,5.534,5.534,0,0,0-.56.945,4.39,4.39,0,0,0-.361,1.107,4.441,4.441,0,0,0,.267,2.487,25.666,25.666,0,0,0,1.252,2.52,20.134,20.134,0,0,0,1.674,2.548,11.863,11.863,0,0,0,2.3,2.291,9.25,9.25,0,0,0,1.458.871,8.381,8.381,0,0,0,1.633.611,9.453,9.453,0,0,0,3.6.135,23.7,23.7,0,0,0,3.7-.83,32.84,32.84,0,0,0,7.352-3.091,18.934,18.934,0,0,0,1.69-1.134,11.76,11.76,0,0,0,1.5-1.323,5.241,5.241,0,0,0,1.117-1.593,6.439,6.439,0,0,0,.3-1.9,23.831,23.831,0,0,0-.2-3.789,31.467,31.467,0,0,0-.658-3.583,8.971,8.971,0,0,0-1.282-3.175,3.727,3.727,0,0,0-1.2-1.09,4.536,4.536,0,0,0-1.5-.489,10.78,10.78,0,0,0-3.033-.037c-.968.128-1.893.327-2.767.53s-1.7.422-2.483.638c-.773.24-1.5.472-2.173.709-1.35.469-2.5.914-3.432,1.292s-1.647.7-2.126.921l-.54.267c-.121.061-.186.088-.186.088s.057-.037.175-.1.3-.162.533-.28c.476-.236,1.184-.563,2.116-.955s2.075-.84,3.425-1.323c.675-.24,1.4-.479,2.176-.722.779-.223,1.609-.442,2.487-.651s1.8-.408,2.777-.543a10.8,10.8,0,0,1,3.074.027,4.669,4.669,0,0,1,1.552.5,3.879,3.879,0,0,1,1.252,1.127,9.248,9.248,0,0,1,1.316,3.229,32.582,32.582,0,0,1,.665,3.6,23.711,23.711,0,0,1,.209,3.816,6.664,6.664,0,0,1-.3,1.957,5.413,5.413,0,0,1-1.154,1.65,12.591,12.591,0,0,1-1.525,1.343,19.837,19.837,0,0,1-1.707,1.147,33.187,33.187,0,0,1-7.4,3.1,23.891,23.891,0,0,1-3.732.83,9.578,9.578,0,0,1-3.661-.145,8.38,8.38,0,0,1-1.66-.628,9.458,9.458,0,0,1-1.481-.887,11.78,11.78,0,0,1-2.328-2.325,20.264,20.264,0,0,1-1.677-2.571,25.225,25.225,0,0,1-1.248-2.544,4.537,4.537,0,0,1-.26-2.551,4.586,4.586,0,0,1,.375-1.13,5.583,5.583,0,0,1,.574-.958,8.779,8.779,0,0,1,1.367-1.458,13.716,13.716,0,0,1,1.34-1.012,22.148,22.148,0,0,1,2-1.178c.233-.121.408-.213.536-.277s.186-.091.186-.091Z" transform="translate(-112.601 -97.862)" fill="#fff"/>
            <path id="Trazado_717300" data-name="Trazado 717300" d="M120.57,123.968s.192-.071.547-.169.867-.24,1.508-.391a39,39,0,0,1,5.054-.948,14.069,14.069,0,0,1,2.838-.027,11.459,11.459,0,0,1,2.267.479c.628.209,1.12.4,1.461.547a3.376,3.376,0,0,1,.52.243,3.89,3.89,0,0,1-.543-.179c-.344-.125-.847-.3-1.471-.493a11.837,11.837,0,0,0-2.247-.439,14.556,14.556,0,0,0-2.8.04,47.153,47.153,0,0,0-5.041.894c-.617.138-1.13.253-1.518.337a3.922,3.922,0,0,1-.563.1Z" transform="translate(-114.21 -112.567)" fill="#455a64"/>
            <path id="Trazado_717301" data-name="Trazado 717301" d="M118.713,130.986a6.567,6.567,0,0,1,1.08-.348c.675-.189,1.616-.425,2.662-.648s2-.385,2.7-.486a6.49,6.49,0,0,1,1.13-.118,8.669,8.669,0,0,1-1.11.243c-.688.132-1.636.314-2.682.536s-1.987.439-2.669.6a8.069,8.069,0,0,1-1.11.229Z" transform="translate(-112.977 -117.21)" fill="#455a64"/>
            <g id="Grupo_1006763" data-name="Grupo 1006763" transform="translate(6.384 5.645)" opacity="0.3">
              <path id="Trazado_717302" data-name="Trazado 717302" d="M128.07,111.372c-1.421.415-5.513,2.48-6.748,4.45a4.043,4.043,0,0,0-.125,4.262c.921,1.262,3.01,4.855,5.679,6.556a9.035,9.035,0,0,0,7.4.918c1.407-.57-1.147-17.579-2.224-17.519a19.984,19.984,0,0,0-3.981,1.336Z" transform="translate(-120.641 -110.039)" fill="#fff"/>
            </g>
          </g>
        </g>
      </g>
      <g id="Plant" transform="translate(22.856 130.045)">
        <g id="Grupo_1006773" data-name="Grupo 1006773">
          <path id="Trazado_717303" data-name="Trazado 717303" d="M72.239,352.859a3.283,3.283,0,0,1,.228,1.438,4.721,4.721,0,0,1,.654-1.626c.116-.184.3-.385.515-.331s.282.322.291.542a3.507,3.507,0,0,1-.4,1.751,3.879,3.879,0,0,1,1.483-1.147.361.361,0,0,1,.322-.027c.112.067.112.229.094.358a2.991,2.991,0,0,1-1.818,2.311l-.314.045a2.794,2.794,0,0,1-2-3.207c.049-.26.2-.56.461-.564C71.992,352.4,72.154,352.639,72.239,352.859Z" transform="translate(-62.734 -323.005)" fill="#005b8b"/>
          <g id="Grupo_1006772" data-name="Grupo 1006772" transform="translate(0.058)">
            <g id="Grupo_1006767" data-name="Grupo 1006767" transform="translate(4.595 32.482)">
              <path id="Trazado_717304" data-name="Trazado 717304" d="M76.29,370.788a9.055,9.055,0,0,0-2.979-1.2A12.265,12.265,0,0,0,73.4,363a6.267,6.267,0,0,0-1.111-2.369,3.243,3.243,0,0,0-2.24-1.25,3.152,3.152,0,0,0-2.486,1.151l-1.1,2.544a9.453,9.453,0,0,0-.13,1.115,13.467,13.467,0,0,0,1.6,7.113,7.455,7.455,0,0,0-2.011,5.966H78.982a7.217,7.217,0,0,0-2.687-6.486Z" transform="translate(-64.411 -359.38)" fill="#455a64"/>
              <path id="Trazado_717305" data-name="Trazado 717305" d="M69.19,384.745a.919.919,0,0,1,.1-.143,3.356,3.356,0,0,1,.323-.376,6.009,6.009,0,0,1,1.447-1.106,6.919,6.919,0,0,1,2.575-.824,6.237,6.237,0,0,1,5.854,2.522,6.859,6.859,0,0,1,1.169,2.437,5.908,5.908,0,0,1,.188,1.814,4.166,4.166,0,0,1-.049.493.547.547,0,0,1-.036.17,7.923,7.923,0,0,0-.237-2.437,6.859,6.859,0,0,0-1.182-2.36,6.15,6.15,0,0,0-5.688-2.45,6.769,6.769,0,0,0-2.526.766,7.832,7.832,0,0,0-1.935,1.5Z" transform="translate(-66.251 -372.007)" fill="#263238"/>
              <path id="Trazado_717306" data-name="Trazado 717306" d="M66.72,365.841a3.13,3.13,0,0,1-.022-.864,7.421,7.421,0,0,1,.354-2.065,4.264,4.264,0,0,1,1.115-1.778,1.793,1.793,0,0,1,.735-.466c.018.031-.273.188-.641.564a4.617,4.617,0,0,0-1.026,1.742,9.4,9.4,0,0,0-.4,2.011A4.411,4.411,0,0,1,66.72,365.841Z" transform="translate(-64.87 -360.09)" fill="#263238"/>
              <path id="Trazado_717307" data-name="Trazado 717307" d="M83.608,392.6a11.454,11.454,0,0,1,1.218-1.245,12.926,12.926,0,0,1,1.259-1.2,5.826,5.826,0,0,1-1.12,1.348,5.966,5.966,0,0,1-1.357,1.106Z" transform="translate(-74.211 -376.366)" fill="#263238"/>
              <path id="Trazado_717308" data-name="Trazado 717308" d="M80.351,390.784a4.353,4.353,0,0,1,.211-1.294,4.407,4.407,0,0,1,.4-1.25,4.351,4.351,0,0,1-.211,1.294A4.407,4.407,0,0,1,80.351,390.784Z" transform="translate(-72.405 -375.313)" fill="#263238"/>
              <path id="Trazado_717309" data-name="Trazado 717309" d="M71.7,390.688a3.367,3.367,0,0,1,.744,1.182,3.419,3.419,0,0,1,.4,1.335,8.809,8.809,0,0,1-.578-1.254A9.126,9.126,0,0,1,71.7,390.688Z" transform="translate(-67.637 -376.664)" fill="#263238"/>
              <path id="Trazado_717310" data-name="Trazado 717310" d="M81.066,373.933a12.845,12.845,0,0,1,1.926-2.544,6.521,6.521,0,0,1-.882,1.33,6.857,6.857,0,0,1-1.039,1.214Z" transform="translate(-72.806 -366.009)" fill="#263238"/>
              <path id="Trazado_717311" data-name="Trazado 717311" d="M79.006,364.067a9.47,9.47,0,0,1,1-1.635,9.11,9.11,0,0,1,1.165-1.523,9.477,9.477,0,0,1-1,1.635A9.116,9.116,0,0,1,79.006,364.067Z" transform="translate(-71.669 -360.223)" fill="#263238"/>
              <path id="Trazado_717312" data-name="Trazado 717312" d="M75.677,370.35a5.03,5.03,0,0,1,.188,1.384,4.755,4.755,0,0,1-.013,1.4,9.875,9.875,0,0,1-.17-2.781Z" transform="translate(-69.809 -365.436)" fill="#263238"/>
              <path id="Trazado_717313" data-name="Trazado 717313" d="M62.629,374.495a8.385,8.385,0,0,1,1.854.945,8.578,8.578,0,0,1,1.689,1.214,15.327,15.327,0,0,1-1.792-1.044A15.824,15.824,0,0,1,62.629,374.495Z" transform="translate(-62.629 -367.722)" fill="#263238"/>
              <g id="Grupo_1006766" data-name="Grupo 1006766" transform="translate(3.588 9.753)" opacity="0.3">
                <path id="Trazado_717314" data-name="Trazado 717314" d="M71.755,381.685a4.59,4.59,0,0,1,2.119-.524,2.663,2.663,0,0,1,2.128.6v.027a7.905,7.905,0,0,0-5.361,1.675,2.13,2.13,0,0,1,1.12-1.778Z" transform="translate(-70.64 -381.153)"/>
              </g>
            </g>
            <path id="Trazado_717315" data-name="Trazado 717315" d="M86.481,322.1a2.609,2.609,0,0,1,1.147-.045,3.8,3.8,0,0,1-1.209-.663c-.134-.108-.273-.273-.211-.435s.278-.188.452-.175a2.791,2.791,0,0,1,1.33.475,3.058,3.058,0,0,1-.757-1.268.283.283,0,0,1,.009-.255c.063-.081.188-.067.287-.04a2.364,2.364,0,0,1,1.635,1.639v.251a2.172,2.172,0,0,1-1.093,1.156,2.23,2.23,0,0,1-1.595.107c-.2-.063-.421-.206-.4-.412C86.1,322.252,86.3,322.149,86.481,322.1Z" transform="translate(-70.979 -304.976)" fill="#005b8b"/>
            <path id="Trazado_717316" data-name="Trazado 717316" d="M144.659,287.294a2.61,2.61,0,0,1-.054,1.147,3.735,3.735,0,0,1,.761-1.151c.121-.125.3-.246.452-.175s.166.3.139.466a2.746,2.746,0,0,1-.587,1.286,3.067,3.067,0,0,1,1.326-.65.272.272,0,0,1,.251.031c.076.072.054.193.018.291a2.352,2.352,0,0,1-1.774,1.491l-.246-.013a2.2,2.2,0,0,1-1.035-2.79c.081-.193.242-.4.443-.363.184.036.269.246.3.43Z" transform="translate(-102.82 -286.859)" fill="#005b8b"/>
            <path id="Trazado_717317" data-name="Trazado 717317" d="M96.011,324.106c.193.009.376.031.56.049.34-3.731-.793-7.516.349-11.081l-.152.193a8.459,8.459,0,0,1-4.094-.367,5.118,5.118,0,0,1-2.961-2.741,3.7,3.7,0,0,1,.632-3.874c1.29-1.348,3.565-1.276,5.187-.349a12.236,12.236,0,0,1,3.686,3.883A6.862,6.862,0,0,1,101,308.793c-1.8-2.477-3.538-5.079-4.107-8.071-.623-3.274.6-7.153,3.641-8.524a6.77,6.77,0,0,1,7.659,2.06c.143.17.264.354.39.533l-.063-.175a4.725,4.725,0,0,1,2.463-2.593,4,4,0,0,1,3.534.17,3.489,3.489,0,0,1,1.738,3.032,3.882,3.882,0,0,1-2.248,3.229,6.1,6.1,0,0,1-3.874.358,11.771,11.771,0,0,1-.018,3.48,20.1,20.1,0,0,1-2.947,7.283,6.436,6.436,0,0,1,1.062.878c2.347,2.455,2.495,6.4,1.268,9.567s-4.56,5.5-6.866,7.991h0a15.1,15.1,0,0,1,1.774,5.567,5.073,5.073,0,0,1,4.47-2.871,2.5,2.5,0,0,1,2.45,1.415,2.581,2.581,0,0,1-.788,2.414,6.413,6.413,0,0,1-5.912,1.733l-.027-.618a26.937,26.937,0,0,1-.1,4.255H89.6s-3.982-16.183,6.423-15.8Z" transform="translate(-72.51 -289.528)" fill="#455a64"/>
            <g id="Grupo_1006768" data-name="Grupo 1006768" transform="translate(0 50.376)">
              <rect id="Rectángulo_347129" data-name="Rectángulo 347129" width="35.255" height="6.248" transform="translate(35.255 6.248) rotate(180)" fill="#005b8b"/>
              <path id="Trazado_717318" data-name="Trazado 717318" d="M88.242,410.51l-4.291,18.673H62.944L58.25,410.51Z" transform="translate(-55.616 -405.502)" fill="#004468"/>
              <path id="Trazado_717319" data-name="Trazado 717319" d="M52.42,413.145c0,.067,7.95.125,17.759.125s17.759-.054,17.759-.125-7.95-.125-17.759-.125S52.42,413.074,52.42,413.145Z" transform="translate(-52.398 -406.888)" fill="#005b8b"/>
            </g>
            <path id="Trazado_717320" data-name="Trazado 717320" d="M98.67,364.585s.067-.045.2-.116a4.331,4.331,0,0,1,.618-.264,5.972,5.972,0,0,1,2.455-.282,7.5,7.5,0,0,1,3.453,1.209,9.286,9.286,0,0,1,2.965,3.355,13.632,13.632,0,0,1,1.42,4.26,22.562,22.562,0,0,1,.237,3.655c0,1.044-.04,1.886-.058,2.463-.013.273-.022.5-.027.667a1.378,1.378,0,0,1-.022.233.864.864,0,0,1-.018-.233c0-.175,0-.4-.009-.672V376.4a24.2,24.2,0,0,0-.278-3.628,13.729,13.729,0,0,0-1.415-4.192,9.2,9.2,0,0,0-2.893-3.3,7.482,7.482,0,0,0-3.364-1.223,6.284,6.284,0,0,0-2.419.215c-.551.17-.838.331-.847.309Z" transform="translate(-77.932 -329.393)" fill="#263238"/>
            <path id="Trazado_717321" data-name="Trazado 717321" d="M105.654,337.5a1.313,1.313,0,0,1-.022-.175c0-.116-.027-.287-.022-.511a8.565,8.565,0,0,1,.219-1.863,8.738,8.738,0,0,1,1.035-2.589,7.173,7.173,0,0,1,1-1.321,5.891,5.891,0,0,1,3.055-1.747,6.774,6.774,0,0,1,1.653-.121,8.137,8.137,0,0,1,2.714.645,9.25,9.25,0,0,1,1.648.9,4.311,4.311,0,0,1,.408.3c.09.072.139.112.134.121a6.44,6.44,0,0,1-.587-.358,10.42,10.42,0,0,0-1.662-.833,8.272,8.272,0,0,0-2.669-.591,6.821,6.821,0,0,0-1.6.13A5.781,5.781,0,0,0,108,331.182a7.25,7.25,0,0,0-.985,1.281,8.946,8.946,0,0,0-1.057,2.526,9.415,9.415,0,0,0-.278,1.836c-.022.439-.013.685-.031.685Z" transform="translate(-81.763 -310.215)" fill="#263238"/>
            <path id="Trazado_717322" data-name="Trazado 717322" d="M133.239,303.326a6.947,6.947,0,0,1-.125-1.2c-.027-.367-.067-.806-.148-1.285a6.421,6.421,0,0,0-.421-1.514,15.6,15.6,0,0,0-1.362-2.535c-.408-.618-.717-.954-.694-.976s.1.067.246.215a7.161,7.161,0,0,1,.564.681,12.667,12.667,0,0,1,1.429,2.54,5.958,5.958,0,0,1,.421,1.559,11.793,11.793,0,0,1,.107,1.308,7.221,7.221,0,0,1-.013,1.2Z" transform="translate(-95.498 -291.805)" fill="#263238"/>
            <path id="Trazado_717323" data-name="Trazado 717323" d="M132.327,387.366a4.1,4.1,0,0,1,1.017.752,4.188,4.188,0,0,1,.887.9,8.12,8.12,0,0,1-1.9-1.653Z" transform="translate(-96.513 -342.346)" fill="#263238"/>
            <path id="Trazado_717324" data-name="Trazado 717324" d="M135.13,384.25a8.307,8.307,0,0,1,2.544-.251,8.3,8.3,0,0,1-2.544.251Z" transform="translate(-98.061 -340.471)" fill="#263238"/>
            <path id="Trazado_717325" data-name="Trazado 717325" d="M133.006,377.276a7.542,7.542,0,0,1,.708-.981,7.821,7.821,0,0,1,.712-.977,2.6,2.6,0,0,1-.551,1.093A2.642,2.642,0,0,1,133.006,377.276Z" transform="translate(-96.887 -335.697)" fill="#263238"/>
            <path id="Trazado_717326" data-name="Trazado 717326" d="M128.456,377.43a5.431,5.431,0,0,1-.228,1.442,5.3,5.3,0,0,1-.426,1.4,5.429,5.429,0,0,1,.228-1.442A5.3,5.3,0,0,1,128.456,377.43Z" transform="translate(-94.008 -336.862)" fill="#263238"/>
            <path id="Trazado_717327" data-name="Trazado 717327" d="M126.786,387.36c-.036-.04.2-.314.524-.6s.623-.5.658-.461-.2.313-.524.6S126.821,387.4,126.786,387.36Z" transform="translate(-93.452 -341.754)" fill="#263238"/>
            <path id="Trazado_717328" data-name="Trazado 717328" d="M115.225,384.668a2.779,2.779,0,0,1,.641-.811c.394-.408.744-.712.784-.672a2.777,2.777,0,0,1-.641.811C115.615,384.4,115.266,384.708,115.225,384.668Z" transform="translate(-87.07 -340.038)" fill="#263238"/>
            <path id="Trazado_717329" data-name="Trazado 717329" d="M112.713,373.554a3.061,3.061,0,0,1,.479-.972,2.974,2.974,0,0,1,.645-.864,3.058,3.058,0,0,1-.479.972A2.972,2.972,0,0,1,112.713,373.554Z" transform="translate(-85.682 -333.708)" fill="#263238"/>
            <path id="Trazado_717330" data-name="Trazado 717330" d="M105.249,367.13a4,4,0,0,1,.116,1.241,4.073,4.073,0,0,1-.081,1.245,4,4,0,0,1-.116-1.241A4.073,4.073,0,0,1,105.249,367.13Z" transform="translate(-81.519 -331.176)" fill="#263238"/>
            <path id="Trazado_717331" data-name="Trazado 717331" d="M89.9,370.068a9.191,9.191,0,0,1,.985,1.151,8.881,8.881,0,0,1,.941,1.182,6.815,6.815,0,0,1-1.926-2.334Z" transform="translate(-73.085 -332.798)" fill="#263238"/>
            <path id="Trazado_717332" data-name="Trazado 717332" d="M87.92,385.226a7.851,7.851,0,0,1,2.428.47,7.851,7.851,0,0,1-2.428-.47Z" transform="translate(-71.997 -341.156)" fill="#263238"/>
            <path id="Trazado_717333" data-name="Trazado 717333" d="M103.939,387.4a3.63,3.63,0,0,1,.475-1.362,3.667,3.667,0,0,1,.815-1.187,9.963,9.963,0,0,1-.641,1.276,9.382,9.382,0,0,1-.654,1.272Z" transform="translate(-80.836 -340.957)" fill="#263238"/>
            <path id="Trazado_717334" data-name="Trazado 717334" d="M98.447,380.781a2.7,2.7,0,0,1-.121-1,2.638,2.638,0,0,1,.076-1.008,2.7,2.7,0,0,1,.121,1A2.638,2.638,0,0,1,98.447,380.781Z" transform="translate(-77.741 -337.602)" fill="#263238"/>
            <path id="Trazado_717335" data-name="Trazado 717335" d="M115.838,393.751a2.256,2.256,0,0,1,.421-1.053,2.224,2.224,0,0,1,.748-.851,5.992,5.992,0,0,1-.578.954A6.276,6.276,0,0,1,115.838,393.751Z" transform="translate(-87.405 -344.821)" fill="#263238"/>
            <path id="Trazado_717336" data-name="Trazado 717336" d="M96.446,394.664a6.221,6.221,0,0,1-.887-2.016,6.218,6.218,0,0,1,.887,2.016Z" transform="translate(-76.209 -345.265)" fill="#263238"/>
            <path id="Trazado_717337" data-name="Trazado 717337" d="M126,363.231a4.731,4.731,0,0,1,1.366-.054,4.964,4.964,0,0,1,1.362.143,4.731,4.731,0,0,1-1.366.054,4.886,4.886,0,0,1-1.357-.143Z" transform="translate(-93.021 -328.988)" fill="#263238"/>
            <path id="Trazado_717338" data-name="Trazado 717338" d="M132.639,349.561a14.352,14.352,0,0,1,2.737-1.935,7.223,7.223,0,0,1-1.312,1.053,7.052,7.052,0,0,1-1.424.887Z" transform="translate(-96.685 -320.406)" fill="#263238"/>
            <path id="Trazado_717339" data-name="Trazado 717339" d="M131.949,335.611a8.269,8.269,0,0,1,1.07-.708,8.141,8.141,0,0,1,1.066-.708,4.23,4.23,0,0,1-2.136,1.415Z" transform="translate(-96.305 -312.991)" fill="#263238"/>
            <path id="Trazado_717340" data-name="Trazado 717340" d="M124.5,328.34a13.188,13.188,0,0,1,.766-3.14,6.713,6.713,0,0,1-.287,1.595A6.869,6.869,0,0,1,124.5,328.34Z" transform="translate(-92.183 -308.027)" fill="#263238"/>
            <path id="Trazado_717341" data-name="Trazado 717341" d="M112.081,328.529a3.479,3.479,0,0,1,.649.958,3.415,3.415,0,0,1,.475,1.057,3.481,3.481,0,0,1-.649-.959A3.414,3.414,0,0,1,112.081,328.529Z" transform="translate(-85.332 -309.864)" fill="#263238"/>
            <path id="Trazado_717342" data-name="Trazado 717342" d="M101.373,353.134c.036-.045.672.443,1.5.954s1.55.869,1.527.918a7.374,7.374,0,0,1-3.037-1.877Z" transform="translate(-79.421 -323.447)" fill="#263238"/>
            <path id="Trazado_717343" data-name="Trazado 717343" d="M118.739,357.144a3.659,3.659,0,0,1,.954-.7,3.582,3.582,0,0,1,1.062-.537,3.66,3.66,0,0,1-.954.7A3.585,3.585,0,0,1,118.739,357.144Z" transform="translate(-89.011 -324.975)" fill="#263238"/>
            <path id="Trazado_717344" data-name="Trazado 717344" d="M121.647,343.685c-.04-.045.461-.538.932-1.259s.726-1.375.779-1.357a3.31,3.31,0,0,1-.614,1.465,3.236,3.236,0,0,1-1.1,1.147Z" transform="translate(-90.616 -316.788)" fill="#263238"/>
            <path id="Trazado_717345" data-name="Trazado 717345" d="M115.881,341.114a4.241,4.241,0,0,1-.04-1.277A4.171,4.171,0,0,1,116,338.57a4.24,4.24,0,0,1,.04,1.276A4.173,4.173,0,0,1,115.881,341.114Z" transform="translate(-87.403 -315.408)" fill="#263238"/>
            <path id="Trazado_717346" data-name="Trazado 717346" d="M112.389,352.672a4.521,4.521,0,0,1-.251-1.29,4.392,4.392,0,0,1-.054-1.312,4.52,4.52,0,0,1,.251,1.29A4.393,4.393,0,0,1,112.389,352.672Z" transform="translate(-85.322 -321.757)" fill="#263238"/>
            <path id="Trazado_717347" data-name="Trazado 717347" d="M103.98,320.83a11.779,11.779,0,0,1,.417,1.46,10.925,10.925,0,0,1,.417,1.46,5.889,5.889,0,0,1-.829-2.916Z" transform="translate(-80.855 -305.614)" fill="#263238"/>
            <path id="Trazado_717348" data-name="Trazado 717348" d="M97.8,339.213a9.351,9.351,0,0,1,1.138-.838,9.421,9.421,0,0,1,1.147-.829,3.624,3.624,0,0,1-1.03.985,3.546,3.546,0,0,1-1.254.676Z" transform="translate(-77.45 -314.842)" fill="#263238"/>
            <path id="Trazado_717349" data-name="Trazado 717349" d="M89.37,334.32a8.783,8.783,0,0,1,1.389-.282,9.073,9.073,0,0,1,1.393-.251,5.658,5.658,0,0,1-2.781.533Z" transform="translate(-72.798 -312.762)" fill="#263238"/>
            <path id="Trazado_717350" data-name="Trazado 717350" d="M97.567,327.981a2.057,2.057,0,0,1,.793.39c.408.26.717.511.685.555a2.064,2.064,0,0,1-.793-.39C97.845,328.277,97.536,328.026,97.567,327.981Z" transform="translate(-77.322 -309.559)" fill="#263238"/>
            <path id="Trazado_717351" data-name="Trazado 717351" d="M93.48,320.416A3.62,3.62,0,0,1,95,322.162a6.034,6.034,0,0,1-.766-.869,6.528,6.528,0,0,1-.752-.878Z" transform="translate(-75.067 -305.383)" fill="#263238"/>
            <path id="Trazado_717352" data-name="Trazado 717352" d="M87.9,327.619a7.3,7.3,0,0,1,1.285.318,6.968,6.968,0,0,1,1.272.367,5.112,5.112,0,0,1-2.553-.685Z" transform="translate(-71.986 -309.357)" fill="#263238"/>
            <path id="Trazado_717353" data-name="Trazado 717353" d="M126.527,313.7a18.744,18.744,0,0,1,1.124-1.716,18.467,18.467,0,0,1,1.147-1.707,11.445,11.445,0,0,1-2.271,3.422Z" transform="translate(-93.31 -299.789)" fill="#263238"/>
            <path id="Trazado_717354" data-name="Trazado 717354" d="M124.021,305.479a11.022,11.022,0,0,1,.385-2.929,11.021,11.021,0,0,1-.385,2.929Z" transform="translate(-91.915 -295.522)" fill="#263238"/>
            <path id="Trazado_717355" data-name="Trazado 717355" d="M115.454,310.46c.058-.009.219.753.6,1.621s.82,1.514.77,1.55a4.066,4.066,0,0,1-.954-1.469,3.994,3.994,0,0,1-.417-1.7Z" transform="translate(-87.191 -299.889)" fill="#263238"/>
            <path id="Trazado_717356" data-name="Trazado 717356" d="M105.377,312.594c.045-.036.609.627,1.384,1.353s1.469,1.254,1.438,1.3a5.752,5.752,0,0,1-1.572-1.156,5.675,5.675,0,0,1-1.25-1.5Z" transform="translate(-81.634 -301.065)" fill="#263238"/>
            <path id="Trazado_717357" data-name="Trazado 717357" d="M109.269,294.29c.058-.009.233.824.542,1.823s.632,1.787.578,1.81a8.395,8.395,0,0,1-1.124-3.632Z" transform="translate(-83.774 -290.962)" fill="#263238"/>
            <path id="Trazado_717358" data-name="Trazado 717358" d="M120.847,288.26a10.986,10.986,0,0,1,.179,2.934,10.982,10.982,0,0,1-.179-2.934Z" transform="translate(-90.152 -287.632)" fill="#263238"/>
            <path id="Trazado_717359" data-name="Trazado 717359" d="M144.88,303.729a5.915,5.915,0,0,1,1.12.081,5.444,5.444,0,0,1,1.115.1,2.281,2.281,0,0,1-1.133.094A2.306,2.306,0,0,1,144.88,303.729Z" transform="translate(-103.444 -296.163)" fill="#263238"/>
            <path id="Trazado_717360" data-name="Trazado 717360" d="M144.169,295.624a16.237,16.237,0,0,1,3.167-1.68,16.247,16.247,0,0,1-3.167,1.68Z" transform="translate(-103.051 -290.768)" fill="#263238"/>
            <path id="Trazado_717361" data-name="Trazado 717361" d="M137.676,294.591a10,10,0,0,1,.847-2.7,10.006,10.006,0,0,1-.847,2.7Z" transform="translate(-99.461 -289.636)" fill="#263238"/>
            <g id="Grupo_1006769" data-name="Grupo 1006769" transform="translate(23.981 34.185)" opacity="0.3">
              <path id="Trazado_717362" data-name="Trazado 717362" d="M112.01,367.49a4.639,4.639,0,0,0-1.984-3.646,4.421,4.421,0,0,0-4.116-.273,6.379,6.379,0,0,1,3.615,1.245,10.117,10.117,0,0,1,2.49,2.674" transform="translate(-105.91 -363.181)"/>
            </g>
            <g id="Grupo_1006770" data-name="Grupo 1006770" transform="translate(28.478 18.063)" opacity="0.3">
              <path id="Trazado_717363" data-name="Trazado 717363" d="M122.149,329.436a4.022,4.022,0,0,0-2.835-2.208,3.828,3.828,0,0,0-3.364,1.2,5.541,5.541,0,0,1,3.3-.26,8.743,8.743,0,0,1,2.9,1.263" transform="translate(-115.95 -327.185)"/>
            </g>
            <g id="Grupo_1006771" data-name="Grupo 1006771" transform="translate(35.949 5.178)" opacity="0.3">
              <path id="Trazado_717364" data-name="Trazado 717364" d="M134.4,302.742a3.181,3.181,0,0,0,.193-2.746,2.69,2.69,0,0,0-1.962-1.577,8.3,8.3,0,0,1,1.742,4.376" transform="translate(-132.63 -298.42)"/>
            </g>
            <path id="Trazado_717365" data-name="Trazado 717365" d="M91.059,367.34a5.162,5.162,0,0,0-.4.434,7.723,7.723,0,0,0-.9,1.321,14.464,14.464,0,0,0-1.294,5.1,23.085,23.085,0,0,0,.264,5.294c.1.672.206,1.214.278,1.59a3.23,3.23,0,0,1,.09.587,3.281,3.281,0,0,1-.175-.569c-.094-.372-.219-.909-.345-1.581a21.1,21.1,0,0,1-.327-5.335,13.532,13.532,0,0,1,1.375-5.16,6.763,6.763,0,0,1,.972-1.3,1.559,1.559,0,0,1,.466-.376Z" transform="translate(-72.149 -331.292)" fill="#263238"/>
          </g>
          <path id="Trazado_717366" data-name="Trazado 717366" d="M87.553,399.2a.492.492,0,0,1-.107.009c-.081,0-.184,0-.314.009-.291,0-.694.009-1.209.018-1.066.009-2.58.018-4.448.031-3.767.009-8.949.018-14.673.027-5.644-.009-10.759-.022-14.5-.027l.072-.072c-.009,1.922-.013,3.48-.018,4.578,0,.529-.013.945-.013,1.245,0,.134,0,.237-.009.323a.323.323,0,0,1-.009.112.3.3,0,0,1-.009-.112c0-.085,0-.193-.009-.323,0-.3-.013-.717-.022-1.245-.009-1.1-.027-2.656-.045-4.578v-.072h.072c3.74-.009,8.855-.018,14.5-.027,5.724.013,10.907.022,14.673.027,1.868.013,3.382.022,4.448.031.515.009.918.013,1.209.018.13,0,.233.009.314.009a.494.494,0,0,1,.108.009Z" transform="translate(-52.24 -348.827)" fill="#263238"/>
        </g>
      </g>
      <g id="Character" transform="translate(47.775 -12.13)">
        <g id="Grupo_1006792" data-name="Grupo 1006792">
          <g id="Grupo_1006774" data-name="Grupo 1006774" transform="translate(48.022 95.444)">
            <path id="Trazado_717367" data-name="Trazado 717367" d="M252.13,433.693h80.444l-7.49-22.053-61.646,3.2Z" transform="translate(-252.13 -313.322)" fill="#263238"/>
            <path id="Trazado_717368" data-name="Trazado 717368" d="M276.759,336.928l47.011-1.753L340.464,241.7,325.378,235.2s-6.26,3.511-17.857,3.567c-11.38.056-11.18-3.812-11.18-3.812l-9.978,10.745s-12.281,34.941-12.471,35.648S276.759,336.928,276.759,336.928Z" transform="translate(-261.779 -234.96)" fill="#fff"/>
          </g>
          <path id="Trazado_717369" data-name="Trazado 717369" d="M357.528,234.315s23.155,4.786,23.355,8.648-9.905,27.768-10.1,28.391-9.1,34.785-9.1,34.785l13.35,45.937H333.41s2.966-43.327,6.327-63.354,4.14-26.733,5.42-34.646c.512-3.177,3.105-14.079,4.713-20.734a14.772,14.772,0,0,0,.245-5.732l1.975.751,5.442,5.96Z" transform="translate(-240.158 -136.256)" fill="#003f60"/>
          <path id="Trazado_717370" data-name="Trazado 717370" d="M242.039,344.115c-.223.334-4.452,15.687-5.147,20.133-.59,3.773-1.53,9.9,2.476,15.576s8.136,5.008,12.131,3.561,8.336-9.788,9.115-14.574-3.751-25.831-3.751-25.831l-14.825,1.141Z" transform="translate(-197.112 -187.425)" fill="#003f60"/>
          <path id="Trazado_717371" data-name="Trazado 717371" d="M283.851,229.6l-5.159,7.273s-17.178,2.215-21.135,5.108-11.947,54.9-11.947,54.9l15.987,8.9-12.354,47.178H264.73s3.84-19.883,3.484-34.168,2.126-32.849,6.678-46.555,8.909-37.451,8.909-37.451l.05-5.186Z" transform="translate(-201.217 -137.134)" fill="#003f60"/>
          <g id="Grupo_1006775" data-name="Grupo 1006775" transform="translate(101.727 183.05)" opacity="0.3">
            <path id="Trazado_717372" data-name="Trazado 717372" d="M376.33,407.788l-27.69-15.4A24.308,24.308,0,0,0,359,408.288a23.979,23.979,0,0,0,18.614,2.938q-.643-1.72-1.28-3.439Z" transform="translate(-348.64 -392.39)"/>
          </g>
          <path id="Trazado_717373" data-name="Trazado 717373" d="M245.48,367.368c.011.05-.657.15-1.642.579A8.282,8.282,0,0,0,238.9,374.2c-.184,1.052-.128,1.725-.184,1.731a1.445,1.445,0,0,1-.072-.467,6.869,6.869,0,0,1,.05-1.291,7.944,7.944,0,0,1,5.069-6.416,6.2,6.2,0,0,1,1.247-.345,1.388,1.388,0,0,1,.473-.039Z" transform="translate(-198.12 -198.241)" fill="#263238"/>
          <path id="Trazado_717374" data-name="Trazado 717374" d="M249.469,384.91s4.4-1.4,5.977-3.177a13.17,13.17,0,0,0,2.922-6.194c.2-2.649,1.191-16.561,1.191-16.561l-11.58-.768-7.117,13.656a11.331,11.331,0,0,0,2.02,10.345A7.089,7.089,0,0,0,249.469,384.91Z" transform="translate(-198.899 -194.18)" fill="#ffbf9d"/>
          <path id="Trazado_717375" data-name="Trazado 717375" d="M275.67,383.843c-.044-.011.072-.618.161-1.6a18.182,18.182,0,0,0-.056-3.856,18.494,18.494,0,0,0-.885-3.751c-.328-.935-.59-1.491-.545-1.514.017-.011.1.122.234.367a9.912,9.912,0,0,1,.5,1.074,15.192,15.192,0,0,1,.985,3.79,14.778,14.778,0,0,1-.028,3.912,10.712,10.712,0,0,1-.223,1.163c-.072.273-.117.417-.139.412Z" transform="translate(-213.96 -200.793)" fill="#263238"/>
          <path id="Trazado_717376" data-name="Trazado 717376" d="M268.935,392.87s.017.239,0,.668a6.4,6.4,0,0,1-.067.779c-.045.3-.072.651-.161,1.024a15.191,15.191,0,0,1-.757,2.588,17.808,17.808,0,0,1-1.514,2.938,17.4,17.4,0,0,1-2.087,2.56,15.323,15.323,0,0,1-2.07,1.725c-.306.228-.612.4-.874.556a5.879,5.879,0,0,1-.684.373,2.918,2.918,0,0,1-.612.267c-.028-.05.829-.462,2.048-1.358a16.864,16.864,0,0,0,2-1.747,18.625,18.625,0,0,0,2.037-2.532,17.938,17.938,0,0,0,1.508-2.877,16.853,16.853,0,0,0,.8-2.532c.339-1.48.373-2.426.428-2.421Z" transform="translate(-207.647 -209.553)" fill="#263238"/>
          <g id="Grupo_1006784" data-name="Grupo 1006784" transform="translate(0 93.389)">
            <g id="Grupo_1006776" data-name="Grupo 1006776" transform="translate(3.687)">
              <path id="Trazado_717377" data-name="Trazado 717377" d="M177.439,231.507a7.5,7.5,0,0,0-4.869,2.86l25.882,36.722,32.314-3.7-.523-33.043s-2.193-3.183-4.318-2.827c-.851.145-28.185,4.413-30.606,11.1,0,0,.284-3.417-1.992-5.125S177.439,231.507,177.439,231.507Z" transform="translate(-172.509 -231.365)" fill="#fff"/>
              <path id="Trazado_717378" data-name="Trazado 717378" d="M177.39,231.407s.128.033.378.106.623.195,1.107.339c.974.306,2.41.768,4.257,1.386s4.118,1.4,6.722,2.426c.651.262,1.319.54,2,.857a5.448,5.448,0,0,1,3.506,6l-.189-.039a6.9,6.9,0,0,1,2.671-2.916,23.579,23.579,0,0,1,3.756-1.992,65.706,65.706,0,0,1,8.781-2.977c3.139-.863,6.461-1.625,9.939-2.315,1.736-.345,3.511-.673,5.325-.968a2.729,2.729,0,0,1,1.43.095,4.839,4.839,0,0,1,1.252.7,9.914,9.914,0,0,1,1.975,2.059l.022.033v.045c.139,8.525.289,17.807.445,27.451.028,1.881.061,3.745.089,5.593v.134l-.128.017c-11.536,1.319-22.459,2.565-32.314,3.689l-.078.011-.045-.061c-11.942-17.006-21.268-30.294-25.815-36.766l-.022-.028.022-.028a6.4,6.4,0,0,1,1.853-1.725,8.389,8.389,0,0,1,1.636-.79,7.036,7.036,0,0,1,1.057-.289,1.482,1.482,0,0,1,.362-.033,3.579,3.579,0,0,0-.362.061,6.773,6.773,0,0,0-1.041.312,8.664,8.664,0,0,0-1.614.807,6.263,6.263,0,0,0-1.814,1.714v-.056c4.569,6.455,13.945,19.71,25.948,36.672l-.122-.056c9.855-1.135,20.779-2.387,32.314-3.717l-.128.145c-.028-1.848-.061-3.712-.089-5.593-.15-9.644-.295-18.931-.428-27.451l.022.078a9.576,9.576,0,0,0-1.909-2,4.62,4.62,0,0,0-1.174-.657,2.442,2.442,0,0,0-1.3-.083c-1.809.295-3.584.618-5.32.957-3.472.684-6.795,1.441-9.928,2.293a65.819,65.819,0,0,0-8.753,2.944,23.643,23.643,0,0,0-3.728,1.964,6.7,6.7,0,0,0-2.6,2.81l-.211.512.022-.556a5.279,5.279,0,0,0-3.383-5.843c-.679-.317-1.341-.6-1.987-.863-2.593-1.035-4.858-1.825-6.7-2.465-1.842-.623-3.266-1.107-4.24-1.436-.479-.161-.846-.284-1.1-.367s-.373-.134-.373-.134Z" transform="translate(-172.46 -231.266)" fill="#263238"/>
            </g>
            <g id="Grupo_1006777" data-name="Grupo 1006777" transform="translate(0 1.946)">
              <path id="Trazado_717379" data-name="Trazado 717379" d="M190.433,277.758l-24.24-41.19a1.057,1.057,0,0,1,.117-1.235h0a1.057,1.057,0,0,1,1.191-.284l19.1,7.618a2.534,2.534,0,0,1,.952.662h0a2.564,2.564,0,0,1,.6,2.265l-.284,1.274,6.689,1.708.145-.373a4.923,4.923,0,0,1,3.088-2.9l30.784-9.805a2.841,2.841,0,0,1,3.383,1.4l21.819,42.142-.712,1.992-34.746,8.236h-6.11l-21.78-11.508Z" transform="translate(-165.928 -234.855)" fill="#ffa031"/>
              <path id="Trazado_717380" data-name="Trazado 717380" d="M190.339,277.665s.134.061.378.189.623.323,1.107.573c.979.512,2.415,1.263,4.285,2.237,3.734,1.964,9.182,4.825,16.049,8.431l-.039-.011c1.914,0,3.962-.006,6.11-.011h-.022c9.644-2.293,21.463-5.1,34.741-8.264l-.095.083c.217-.612.462-1.3.712-1.992v.106c-3.539-6.845-7.323-14.151-11.285-21.791q-2.972-5.734-6.06-11.7L233.1,239.5l-.785-1.519-.4-.762a5.027,5.027,0,0,0-.417-.723,2.705,2.705,0,0,0-2.922-.968c-6.188,1.97-12.265,3.9-18.174,5.787l-8.748,2.782c-1.43.462-2.877.9-4.257,1.369a4.871,4.871,0,0,0-2.8,3.066l-.039.117-.128-.033q-3.406-.868-6.689-1.708l-.128-.033.028-.128.228-1.018a3.008,3.008,0,0,0,.106-.985,2.419,2.419,0,0,0-.885-1.681,2.769,2.769,0,0,0-.857-.462l-.946-.378c-.629-.25-1.252-.5-1.875-.746q-3.723-1.486-7.29-2.91t-6.956-2.777c-.568-.228-1.124-.451-1.686-.673a.961.961,0,0,0-1.347.467.933.933,0,0,0,.022.762l.434.751c.295.5.59,1,.879,1.5,4.652,7.93,8.748,14.914,12.142,20.7s6.071,10.373,7.907,13.517l2.1,3.606q.351.61.534.935l.178.323s-.067-.1-.195-.306-.312-.517-.551-.918c-.484-.818-1.2-2.014-2.126-3.573-1.859-3.139-4.563-7.707-7.974-13.478s-7.529-12.754-12.209-20.684c-.295-.5-.584-1-.885-1.5-.15-.256-.295-.5-.445-.768a1.181,1.181,0,0,1-.028-.951,1.168,1.168,0,0,1,.7-.662,1.249,1.249,0,0,1,.952.067q.835.334,1.686.668c2.259.9,4.585,1.825,6.961,2.771s4.814,1.914,7.3,2.9c.623.245,1.247.5,1.875.746l.946.373a3.084,3.084,0,0,1,.929.5,2.7,2.7,0,0,1,.979,1.864,3.2,3.2,0,0,1-.111,1.063l-.223,1.018-.1-.161q3.289.835,6.689,1.7l-.161.083a5.17,5.17,0,0,1,2.96-3.228c1.419-.49,2.838-.913,4.274-1.38q4.307-1.369,8.742-2.788c5.915-1.886,11.992-3.817,18.18-5.793a2.994,2.994,0,0,1,3.233,1.068,4.639,4.639,0,0,1,.44.762l.4.762.785,1.519q1.569,3.03,3.111,6.015,3.088,5.968,6.06,11.708c3.957,7.646,7.735,14.952,11.274,21.8l.028.05-.017.056c-.25.69-.5,1.38-.712,1.992l-.022.067-.067.017c-13.283,3.133-25.108,5.926-34.752,8.2h-.022c-2.142,0-4.2-.006-6.11-.011h-.022l-.017-.011c-6.856-3.645-12.3-6.533-16.026-8.514-1.853-.991-3.283-1.753-4.257-2.276-.479-.256-.84-.456-1.091-.59s-.362-.206-.362-.206Z" transform="translate(-165.834 -234.762)" fill="#263238"/>
            </g>
            <g id="Grupo_1006778" data-name="Grupo 1006778" transform="translate(3.76 7.726)" opacity="0.3">
              <path id="Trazado_717381" data-name="Trazado 717381" d="M210.4,288.878l-15.882-7.59L172.59,245.15l19.371,7.512-.406,1.035-16.316-6.327L195.3,280.425l15.587,7.451Z" transform="translate(-172.59 -245.15)"/>
            </g>
            <g id="Grupo_1006779" data-name="Grupo 1006779" transform="translate(34.421 8.16)" opacity="0.3">
              <path id="Trazado_717382" data-name="Trazado 717382" d="M247.673,291.472,227.69,255.407l29.449-9.477,19.187,37.156-28.658,8.386Zm-18.353-35.42,18.892,34.1,26.5-7.757-18.135-35.119-27.262,8.77Z" transform="translate(-227.69 -245.93)"/>
            </g>
            <path id="Trazado_717383" data-name="Trazado 717383" d="M239.566,299.758c-.072.039-5.081-8.926-11.2-20.022s-11.013-20.128-10.94-20.167,5.081,8.926,11.2,20.022,11.013,20.122,10.94,20.161Z" transform="translate(-188.717 -243.819)" fill="#263238"/>
            <path id="Trazado_717384" data-name="Trazado 717384" d="M205.26,256.35s.095.134.256.406c.173.295.4.7.69,1.2.6,1.046,1.436,2.565,2.471,4.446,2.065,3.767,4.869,9,7.935,14.791s5.837,11.013,7.863,14.83c1,1.875,1.814,3.406,2.387,4.491.267.512.484.924.64,1.224a2.581,2.581,0,0,1,.206.44,3.227,3.227,0,0,1-.256-.406c-.173-.3-.4-.7-.69-1.2-.6-1.046-1.436-2.565-2.471-4.446-2.065-3.767-4.869-9-7.935-14.791s-5.837-11.013-7.857-14.824c-1-1.875-1.814-3.406-2.387-4.491-.267-.512-.484-.924-.64-1.224a2.588,2.588,0,0,1-.206-.44Z" transform="translate(-183.32 -242.391)" fill="#263238"/>
            <path id="Trazado_717385" data-name="Trazado 717385" d="M211.99,254.942a5.052,5.052,0,0,1,.245-1.669,4.846,4.846,0,0,1,.529-1.6,5.052,5.052,0,0,1-.245,1.669A4.844,4.844,0,0,1,211.99,254.942Z" transform="translate(-186.294 -240.315)" fill="#263238"/>
            <g id="Grupo_1006780" data-name="Grupo 1006780" transform="translate(29.385 25.756)" opacity="0.3">
              <path id="Trazado_717386" data-name="Trazado 717386" d="M218.64,277.55l11.8,21.864,4.107.6-11.736-21.7Z" transform="translate(-218.64 -277.55)"/>
            </g>
            <g id="Grupo_1006781" data-name="Grupo 1006781" transform="translate(25.189 19.924)" opacity="0.3">
              <path id="Trazado_717387" data-name="Trazado 717387" d="M211.1,267.07l6.539,1.308,1.436,2.376-6.7-1.319-1.169-2.014" transform="translate(-211.1 -267.07)"/>
            </g>
            <g id="Grupo_1006782" data-name="Grupo 1006782" transform="translate(47.359 14.626)" opacity="0.3">
              <path id="Trazado_717388" data-name="Trazado 717388" d="M252.092,262.809l-1.152-2.665,7.318-2.593,1.274,2.627Z" transform="translate(-250.94 -257.55)"/>
            </g>
            <g id="Grupo_1006783" data-name="Grupo 1006783" transform="translate(43.965 18.121)" opacity="0.3">
              <path id="Trazado_717389" data-name="Trazado 717389" d="M248.9,279.122l-4.057-7.657,20.723-7.635,3.65,7.635Z" transform="translate(-244.84 -263.83)"/>
            </g>
          </g>
          <g id="Grupo_1006789" data-name="Grupo 1006789" transform="translate(61.633)">
            <g id="Grupo_1006786" data-name="Grupo 1006786" transform="translate(2.977)">
              <path id="Trazado_717390" data-name="Trazado 717390" d="M353.149,67.7a7.2,7.2,0,0,1,6.116-1.859,4.087,4.087,0,0,0,2.638.045,5.819,5.819,0,0,0,1.324-1.386,3.643,3.643,0,0,1,5.236.111,4.389,4.389,0,0,0,.979,1.068c1.7,1,3.773-2.17,5.453-1.163a4.1,4.1,0,0,0-2.009,1.43,1.868,1.868,0,0,0,.1,2.3c1.553,1.508,4.38-1.558,6.132-.284.946.684,1,2.354,2.12,2.682a3.789,3.789,0,0,0,1.347-.033,2.993,2.993,0,0,1,3.055,2.727c.067,1.3-.657,2.838.267,3.745a2.816,2.816,0,0,0,2.287.44,7.748,7.748,0,0,1-1.013,3.372,4.688,4.688,0,0,1,1.263,6.383,9.976,9.976,0,0,1,2.571,2.9,3.494,3.494,0,0,1-.15,3.684,3.085,3.085,0,0,0-.529.707,1.812,1.812,0,0,0-.05.946,15.821,15.821,0,0,1,.562,3.645c-.095,1.23-1.074,2.538-2.3,2.371-.284-.039-.6-.15-.846,0a.816.816,0,0,0-.323.545,8.311,8.311,0,0,0,.05,2.649,3.529,3.529,0,0,1-.523,2.543,1.514,1.514,0,0,1-2.293.167c.284,1.386.568,2.777.851,4.162.167.824.289,1.82-.334,2.387-.818.746-2.192.061-2.732-.9s-.646-2.126-1.219-3.072a6.624,6.624,0,0,1-.69-1.157c-.117-.334-.145-.735-.406-.974-.529-.484-1.419.245-1.375.963a3.77,3.77,0,0,0,1,1.864,1.827,1.827,0,0,1,.356,1.987c-.189.289-.517.467-.7.762-.634,1.018.846,2.1.968,3.294a2.9,2.9,0,0,1-1.241,2.231c-.8.723-2.309,1.269-2.744.278a10.374,10.374,0,0,1-.183-1.1,2.682,2.682,0,0,0-.8-1.024,5.589,5.589,0,0,1-1.525-2.838c.851,1.169,1.742,2.7,1.029,3.957a5.881,5.881,0,0,1-1.258,1.291c-.863.812-1.43,1.9-2.282,2.727s-2.215,1.352-3.216.723a2.667,2.667,0,0,1-4.591,2.432,2.31,2.31,0,0,0-.7-.679,1.886,1.886,0,0,0-1.041-.022,5.78,5.78,0,0,1-5.47-2.51c.362-.106.718-.217,1.08-.323a13.452,13.452,0,0,1-5.888-2.048c-1.67-1.269-2.677-3.684-1.686-5.531.428-.8,1.219-1.608.918-2.465a2.266,2.266,0,0,0-1.43-1.13l-7.29-2.972a6.943,6.943,0,0,1-3.172-2.037c-.751-1.029-.74-2.721.351-3.372a6.8,6.8,0,0,0-2.437-2.9c-1.2-.8-2.615-1.2-3.851-1.948s-2.326-2.037-2.165-3.467,2.192-2.443,3.133-1.352c-.095-2.17-3.934-2.493-4.162-4.652-.184-1.758,2.092-2.554,3.305-3.834-.206-.618-.807-1.035-1.029-1.647-.467-1.28.9-2.471,2.154-3s2.788-1.046,3.15-2.359c.373-1.347-.723-2.938.061-4.1a1.539,1.539,0,0,1,2.048-.406c1.113-2.443,5.709-.339,7.19-2.582a.973.973,0,0,0,.189-.6,1.011,1.011,0,0,0-.217-.5,10.951,10.951,0,0,0-1.987-1.681,2.113,2.113,0,0,1-.846-2.287c.351-.8,1.892-.7,1.831.173a1.916,1.916,0,0,1,2.894.879,2.071,2.071,0,0,1,2.6-.111,6.033,6.033,0,0,1,1.747,2.2" transform="translate(-303.128 -63.443)" fill="#263238"/>
              <path id="Trazado_717391" data-name="Trazado 717391" d="M379.326,112.756c-.685-3.6-3.25-6.566-6.11-8.859a9.345,9.345,0,0,0-4.029-2.137,3.932,3.932,0,0,0-4.057,1.525l.145,2.565c-.423,4.062,2.632,7.562,4.034,11.4.612,1.669,1.091,3.667,2.7,4.413a3.849,3.849,0,0,0,2.732.044c3.489-1.113,5.264-5.348,4.58-8.943Z" transform="translate(-318.837 -80.405)" fill="#455a64"/>
              <path id="Trazado_717392" data-name="Trazado 717392" d="M342.328,128.71a8.192,8.192,0,0,0-.623-10.484c1.514-1.864,1.007-4.769-.5-6.65s-3.751-2.966-5.921-4a11.022,11.022,0,0,0-12.765-8.18c-2.81-4.224-8.876-4.941-13.762-3.573a13.016,13.016,0,0,1-3.623.751,21.255,21.255,0,0,1-2.693-.4c-4.947-.718-9.894,2.721-11.875,7.307a9.117,9.117,0,0,1-1.074,2.131,12.515,12.515,0,0,1-2.465,1.931,7.9,7.9,0,0,0-3.089,5.815c-.1,1.92.49,3.968-.334,5.709a28.266,28.266,0,0,0-1.48,2.476c-.94,2.632,1.959,5.364,1.386,8.1-.117.556-.373,1.08-.534,1.625a4.895,4.895,0,0,0,.262,3.417,6.96,6.96,0,0,1,1.052,2.465,7.858,7.858,0,0,1-.423,2c-.351,1.636,3.116,7.985,4.524,8.887l42.275.807a7.9,7.9,0,0,0,6.182-6.739,2.9,2.9,0,0,1,.412-1.553,3.408,3.408,0,0,1,1.163-.74c2.738-1.436,3.105-5.17,2.849-8.247a3.718,3.718,0,0,1,.039-1.291,4.681,4.681,0,0,1,1.013-1.575Z" transform="translate(-281.94 -77.527)" fill="#263238"/>
              <g id="Grupo_1006785" data-name="Grupo 1006785" transform="translate(3.724 28.423)">
                <path id="Trazado_717393" data-name="Trazado 717393" d="M333.243,137.219c.2-7.479-4.407-16.127-11.8-19.861-4.663-2.354-8.319-2.4-10.779-2.721a17.1,17.1,0,0,0-9.994,1.992c-2.337.523-10.957,8.258-11.486,16.739-.59,9.421-.935,20.946.184,27.979,2.254,14.134,13.088,15.926,13.088,15.926,0-.022-.49,11.2-.49,11.2l7.885,14.624,20.333-20.706,3.055-45.169Z" transform="translate(-288.631 -114.521)" fill="#ffbf9d"/>
                <path id="Trazado_717394" data-name="Trazado 717394" d="M322.858,192.647a2.973,2.973,0,0,0-.929-1.892,3.052,3.052,0,0,0-3.678-.412,4.081,4.081,0,0,0-1.753,3.739h0a3.7,3.7,0,0,0,2.565,1.681,4.954,4.954,0,0,0,.5.044,3.34,3.34,0,0,0,2.287-.762,2.966,2.966,0,0,0,1.007-2.393Z" transform="translate(-300.984 -147.957)" fill="#ff9a6c"/>
                <path id="Trazado_717395" data-name="Trazado 717395" d="M295.3,169.784a1.818,1.818,0,0,0,1.747,1.831,1.735,1.735,0,0,0,1.87-1.636,1.818,1.818,0,0,0-1.747-1.831A1.732,1.732,0,0,0,295.3,169.784Z" transform="translate(-291.588 -138.304)" fill="#263238"/>
                <path id="Trazado_717396" data-name="Trazado 717396" d="M295.327,156.609c.223.239,1.6-.779,3.55-.779,1.948-.022,3.383.979,3.595.74.106-.106-.128-.534-.751-.985a4.987,4.987,0,0,0-2.877-.885,4.8,4.8,0,0,0-2.827.913C295.416,156.074,295.215,156.5,295.327,156.609Z" transform="translate(-291.588 -132.341)" fill="#263238"/>
                <path id="Trazado_717397" data-name="Trazado 717397" d="M311.924,172.848a12.922,12.922,0,0,0-3.166-.568c-.5-.05-.968-.15-1.052-.49a2.507,2.507,0,0,1,.334-1.475q.7-1.811,1.469-3.8c2.042-5.4,3.523-9.844,3.306-9.922s-2.053,4.235-4.1,9.633c-.49,1.33-.963,2.6-1.408,3.817a2.866,2.866,0,0,0-.256,1.953,1.259,1.259,0,0,0,.818.729,3.608,3.608,0,0,0,.846.117,12.547,12.547,0,0,0,3.211,0Z" transform="translate(-296.76 -133.183)" fill="#263238"/>
                <path id="Trazado_717398" data-name="Trazado 717398" d="M313.307,223.248a35.974,35.974,0,0,0,18.926-5.058s-5,10.156-19.143,8.842Z" transform="translate(-299.479 -160.501)" fill="#ff9a6c"/>
                <path id="Trazado_717399" data-name="Trazado 717399" d="M321.249,188.215c-.317-.017-.323,2.1-2.131,3.6s-4.068,1.274-4.079,1.569c-.028.134.5.412,1.458.434a5.236,5.236,0,0,0,3.406-1.191,4.593,4.593,0,0,0,1.653-3.022c.078-.885-.156-1.408-.3-1.4Z" transform="translate(-300.343 -147.204)" fill="#263238"/>
                <path id="Trazado_717400" data-name="Trazado 717400" d="M296.728,143.645c.328.479,1.82.156,3.567.3,1.747.089,3.194.6,3.573.173.173-.211-.022-.673-.623-1.152a5.546,5.546,0,0,0-5.754-.378c-.657.4-.907.829-.762,1.063Z" transform="translate(-292.205 -126.69)" fill="#263238"/>
                <path id="Trazado_717401" data-name="Trazado 717401" d="M330.1,171.223a1.812,1.812,0,0,1-1.814,1.764,1.738,1.738,0,0,1-1.809-1.7,1.812,1.812,0,0,1,1.814-1.764A1.735,1.735,0,0,1,330.1,171.223Z" transform="translate(-305.418 -138.914)" fill="#263238"/>
                <path id="Trazado_717402" data-name="Trazado 717402" d="M337.617,157.853c-.234.228-1.569-.84-3.517-.907-1.948-.095-3.417.857-3.617.607-.1-.111.145-.529.785-.957a4.973,4.973,0,0,1,2.9-.779,4.763,4.763,0,0,1,2.788,1.013c.584.484.768.918.657,1.018Z" transform="translate(-307.184 -132.835)" fill="#263238"/>
                <path id="Trazado_717403" data-name="Trazado 717403" d="M338.4,146c-.4.428-1.886-.089-3.695-.172-1.8-.145-3.35.172-3.684-.3-.145-.228.111-.668.8-1.057a5.913,5.913,0,0,1,5.949.384c.623.479.818.94.64,1.152Z" transform="translate(-307.414 -127.527)" fill="#263238"/>
                <path id="Trazado_717404" data-name="Trazado 717404" d="M364.61,176.323c0-1.052,1.219-3.534,2.259-3.7,2.777-.434,7.78-.212,7.83,6.833.067,9.638-9.621,7.718-9.638,7.44-.017-.217-.451-6.945-.445-10.579Z" transform="translate(-322.33 -140.231)" fill="#ffbf9d"/>
                <path id="Trazado_717405" data-name="Trazado 717405" d="M370.143,185.947c.045-.033.167.117.451.245a1.682,1.682,0,0,0,1.258.017c1.013-.378,1.859-2,1.9-3.74a5.6,5.6,0,0,0-.484-2.4,1.944,1.944,0,0,0-1.274-1.28.844.844,0,0,0-.985.467c-.128.273-.067.462-.117.479-.028.022-.206-.161-.133-.556a1.08,1.08,0,0,1,.373-.607,1.248,1.248,0,0,1,.924-.25,2.347,2.347,0,0,1,1.764,1.48,5.67,5.67,0,0,1,.6,2.682c-.05,1.942-1.03,3.767-2.421,4.179a1.778,1.778,0,0,1-1.536-.245c-.3-.234-.351-.451-.317-.467Z" transform="translate(-324.78 -142.815)" fill="#ff9a6c"/>
              </g>
              <path id="Trazado_717406" data-name="Trazado 717406" d="M285.67,129.82c1.948-1.219,3.189-2.871,3.072-5.164,1.291.384,2.6-1.28,3.355-2.393s1.675-1.681,1.619-3.027a1.558,1.558,0,0,1,.095-.785,1.624,1.624,0,0,1,1.052-.612,6.451,6.451,0,0,0,4.251-4.485,13.649,13.649,0,0,0,6.605,1.091,5.225,5.225,0,0,0,8.837-.384,4.666,4.666,0,0,0,3.133,2.309,13.916,13.916,0,0,0,4,.217,5.527,5.527,0,0,0,3.639,6.26c.345.106.74.211.9.534a1.405,1.405,0,0,1-.15,1.074,4.345,4.345,0,0,0,2.916,5.537,3.245,3.245,0,0,0,.289,5.081c.351.211.807.467.751.874a.942.942,0,0,1-.211.412,6.263,6.263,0,0,0-1.519,3.183,2.325,2.325,0,0,0,1.909,2.576,3.067,3.067,0,0,0-1.224,2.109c-.017.84.835,1.692,1.614,1.391.334-.128,5.131-1.068,5.342-1.358,2.727-3.7-.7-7.791-.968-12.382a29.865,29.865,0,0,0-4.162-13.021,21.927,21.927,0,0,0-3.422-4.647,28.975,28.975,0,0,0-5.3-3.9,26.768,26.768,0,0,0-7.729-3.689c-5.2-1.23-10.606.662-15.453,2.9a22.6,22.6,0,0,0-5.236,3.088,20.547,20.547,0,0,0-4.413,5.759,25.519,25.519,0,0,0-3.489,9.866" transform="translate(-283.594 -82.422)" fill="#263238"/>
              <path id="Trazado_717407" data-name="Trazado 717407" d="M282.271,121.446a3.563,3.563,0,0,1,.523-1.035c.206-.323.5-.7.768-1.169a4.473,4.473,0,0,0,.54-1.8,13.851,13.851,0,0,0-.039-2.382,10.631,10.631,0,0,1,.078-2.86,8.11,8.11,0,0,1,1.269-3.033,8.017,8.017,0,0,1,1.185-1.363,11.5,11.5,0,0,1,1.525-1.13,5.874,5.874,0,0,0,1.463-1.263,7.821,7.821,0,0,0,.918-1.814,12.934,12.934,0,0,1,6.088-6.589,11.711,11.711,0,0,1,2.321-.868,10.361,10.361,0,0,1,2.532-.284,12.717,12.717,0,0,1,1.3.106c.429.067.857.161,1.28.234a6.185,6.185,0,0,0,2.576.006c.863-.167,1.708-.479,2.6-.7a16.5,16.5,0,0,1,2.732-.479A17.106,17.106,0,0,1,314.752,95a14.6,14.6,0,0,1,2.827.523,9.5,9.5,0,0,1,4.847,3.211c.117.161.239.317.356.473l-.156-.061a11.188,11.188,0,0,1,12.938,8.3l-.078-.095a30.485,30.485,0,0,1,3.378,1.792,10.294,10.294,0,0,1,2.755,2.471,6.615,6.615,0,0,1,1.246,3.328,4.544,4.544,0,0,1-.924,3.255v-.161a8.016,8.016,0,0,1,2.2,4.953,7.977,7.977,0,0,1-1.653,5.737c-.234.289-.473.562-.668.857a2.079,2.079,0,0,0-.345.946,5.489,5.489,0,0,0,.028,1,15.651,15.651,0,0,1-.111,3.656,7.659,7.659,0,0,1-.952,2.782,4.729,4.729,0,0,1-1.5,1.564c-.5.328-.94.456-1.185.634a1.974,1.974,0,0,0-.351.289,1.116,1.116,0,0,1,.328-.323c.245-.189.684-.334,1.163-.662a4.757,4.757,0,0,0,1.452-1.553,7.581,7.581,0,0,0,.907-2.749,15.774,15.774,0,0,0,.078-3.623,5.712,5.712,0,0,1-.033-1.03,2.211,2.211,0,0,1,.367-1.024,10.179,10.179,0,0,1,.673-.879,7.7,7.7,0,0,0,.618-.929,7.973,7.973,0,0,0,.963-4.669,7.775,7.775,0,0,0-2.159-4.8l-.078-.078.067-.083a4.305,4.305,0,0,0,.863-3.083,6.4,6.4,0,0,0-1.208-3.194,9.868,9.868,0,0,0-2.688-2.4,29.8,29.8,0,0,0-3.35-1.764l-.061-.028-.017-.067a10.915,10.915,0,0,0-12.6-8.069l-.095.022-.061-.083c-.111-.15-.228-.306-.345-.456a9.253,9.253,0,0,0-4.7-3.111,14.766,14.766,0,0,0-2.766-.517,17.123,17.123,0,0,0-2.777.017,16.544,16.544,0,0,0-2.688.467c-.874.217-1.731.523-2.615.7a6.872,6.872,0,0,1-1.347.139,7.058,7.058,0,0,1-1.33-.15c-.434-.078-.857-.172-1.274-.239a12.081,12.081,0,0,0-1.263-.106,10.113,10.113,0,0,0-2.465.267,11.185,11.185,0,0,0-2.271.84,12.7,12.7,0,0,0-5.988,6.444,7.814,7.814,0,0,1-.952,1.859,6.122,6.122,0,0,1-1.525,1.3,11.589,11.589,0,0,0-1.508,1.107,7.679,7.679,0,0,0-1.169,1.324,7.843,7.843,0,0,0-1.263,2.96,10.6,10.6,0,0,0-.1,2.821,13.92,13.92,0,0,1,.011,2.4,4.611,4.611,0,0,1-.579,1.831c-.284.479-.584.846-.79,1.163a6.409,6.409,0,0,0-.445.735,2.435,2.435,0,0,1-.128.267Z" transform="translate(-282.082 -77.42)" fill="#455a64"/>
              <path id="Trazado_717408" data-name="Trazado 717408" d="M335.155,97.921s-.256-.145-.723-.378a6.442,6.442,0,0,0-2.1-.618,6.048,6.048,0,0,0-3.166.456,6.288,6.288,0,0,0-2.888,2.6,5.4,5.4,0,0,0-.484,1.091,1.194,1.194,0,0,0,.067,1.013l.234.328-.39-.111a3.961,3.961,0,0,0-2.983.351,3.813,3.813,0,0,0-1.636,1.781,4.235,4.235,0,0,0-.378,1.586c-.017.384.017.6-.006.6s-.022-.05-.044-.15a2.992,2.992,0,0,1-.05-.451,4.019,4.019,0,0,1,2-3.578,4.182,4.182,0,0,1,3.177-.406l-.156.217a1.476,1.476,0,0,1-.117-1.258,5.618,5.618,0,0,1,.506-1.157,6.449,6.449,0,0,1,3.033-2.7,6.113,6.113,0,0,1,3.3-.412,5.961,5.961,0,0,1,2.126.723,4.59,4.59,0,0,1,.512.334c.111.083.167.134.161.145Z" transform="translate(-299.09 -78.174)" fill="#455a64"/>
              <path id="Trazado_717409" data-name="Trazado 717409" d="M364.536,118.864a2.28,2.28,0,0,1-.339.345,6.427,6.427,0,0,1-1.091.757,4.6,4.6,0,0,1-1.925.573,3.456,3.456,0,0,1-2.393-.729l.211-.033c-.095.128-.189.262-.284.4s-.217.25-.328.378a5.817,5.817,0,0,1-2.41,1.491,6,6,0,0,1-2.3.284,5.234,5.234,0,0,1-1.519-.351,2.075,2.075,0,0,1-.5-.267,8.347,8.347,0,0,0,2.031.412,6.061,6.061,0,0,0,2.2-.334,5.707,5.707,0,0,0,2.287-1.441c.106-.122.217-.234.312-.356s.184-.25.267-.373l.095-.134.117.1a3.264,3.264,0,0,0,2.192.7,4.546,4.546,0,0,0,1.848-.49c.985-.5,1.486-.968,1.519-.929Z" transform="translate(-312.862 -88.02)" fill="#455a64"/>
              <path id="Trazado_717410" data-name="Trazado 717410" d="M372.042,134.245a1.067,1.067,0,0,1-.022.178,1.64,1.64,0,0,1-.217.467,2.584,2.584,0,0,1-1.553,1.029,4.885,4.885,0,0,1-2.754-.306c-.49-.178-1-.356-1.519-.6a2.632,2.632,0,0,1-1.33-1.219c-.022-.056-.039-.106-.061-.156l.228.072a10.993,10.993,0,0,1-2.86,1.708,4.945,4.945,0,0,1-2.7.273,3.6,3.6,0,0,1-1.664-.762,2.518,2.518,0,0,1-.351-.356c-.067-.089-.1-.139-.095-.145.022-.017.172.167.512.417a3.722,3.722,0,0,0,1.631.651,4.862,4.862,0,0,0,2.576-.323,11.239,11.239,0,0,0,2.777-1.692l.156-.122.072.189c.017.039.033.083.05.128a2.426,2.426,0,0,0,1.191,1.08c.49.239,1,.428,1.48.607a4.8,4.8,0,0,0,2.615.356,2.526,2.526,0,0,0,1.508-.9,5.161,5.161,0,0,0,.334-.579Z" transform="translate(-315.293 -94.453)" fill="#455a64"/>
              <path id="Trazado_717411" data-name="Trazado 717411" d="M393.869,73.131a2.434,2.434,0,0,0-.456.078,2.189,2.189,0,0,0-1.074.69,2.986,2.986,0,0,0-.729,1.842,8.727,8.727,0,0,0,.356,2.627l.039.156h-.161a5.451,5.451,0,0,0-3.333,1.007,4.262,4.262,0,0,0-1.831,3.372,3.966,3.966,0,0,0,1.4,3.216l.323.256h-.412a4.971,4.971,0,0,0-3.656,1.6,4.721,4.721,0,0,0-1.235,2.955,5.245,5.245,0,0,0,.317,2.131c.184.473.334.712.312.723a.721.721,0,0,1-.122-.167,3.483,3.483,0,0,1-.278-.523,4.977,4.977,0,0,1-.406-2.176,4.882,4.882,0,0,1,1.235-3.111,5.193,5.193,0,0,1,3.84-1.719l-.089.25a4.211,4.211,0,0,1-1.514-3.445,4.363,4.363,0,0,1,.573-2.076,4.834,4.834,0,0,1,1.386-1.514,5.706,5.706,0,0,1,3.506-1.029l-.122.15a8.774,8.774,0,0,1-.317-2.7,3.116,3.116,0,0,1,.824-1.92,2.158,2.158,0,0,1,1.163-.668,1.506,1.506,0,0,1,.356-.028.253.253,0,0,1,.122.017Z" transform="translate(-326.725 -67.729)" fill="#455a64"/>
              <path id="Trazado_717412" data-name="Trazado 717412" d="M412.9,109.09a1.158,1.158,0,0,1-.156.095c-.111.05-.267.139-.484.223a6.6,6.6,0,0,1-1.942.434,7.7,7.7,0,0,1-3.027-.367,7.3,7.3,0,0,1-3.244-2.131l.217-.017a6.135,6.135,0,0,1-4.346,2.966,4.653,4.653,0,0,1-4.8-2.56l.25-.011a3.875,3.875,0,0,1-1.163,1.636,5.119,5.119,0,0,1-1.58.89,7.021,7.021,0,0,1-2.933.3,13.229,13.229,0,0,1-1.892-.312,3.415,3.415,0,0,1-.662-.184,4.338,4.338,0,0,1,.679.095,17.384,17.384,0,0,0,1.887.234,7.156,7.156,0,0,0,2.849-.351,4.161,4.161,0,0,0,2.565-2.4l.117-.323.134.312A4.4,4.4,0,0,0,399.883,110a5.9,5.9,0,0,0,4.146-2.816l.095-.161.122.139a7.177,7.177,0,0,0,3.111,2.092,7.587,7.587,0,0,0,2.944.417,8.824,8.824,0,0,0,2.593-.584Z" transform="translate(-328.599 -82.771)" fill="#455a64"/>
              <path id="Trazado_717413" data-name="Trazado 717413" d="M403.674,129.191a.392.392,0,0,1-.111.172.978.978,0,0,1-.545.245,4.5,4.5,0,0,1-2.131-.356,5.264,5.264,0,0,1-2.448-2.053,5.348,5.348,0,0,1-.7-3.834v-.028l.211.161a6.264,6.264,0,0,1-3.862.523,6.952,6.952,0,0,1-2.927-1.269,7.786,7.786,0,0,1-1.541-1.5,2.674,2.674,0,0,1-.429-.657,11.625,11.625,0,0,0,2.087,1.987,7.022,7.022,0,0,0,2.849,1.174,6.073,6.073,0,0,0,3.689-.523l.256-.128-.05.289v.028a5.06,5.06,0,0,0,2.938,5.643,4.575,4.575,0,0,0,2.037.434,1,1,0,0,0,.673-.306Z" transform="translate(-329.507 -88.793)" fill="#455a64"/>
              <path id="Trazado_717414" data-name="Trazado 717414" d="M364.222,73.71a8.213,8.213,0,0,0-.44,2.96,6.739,6.739,0,0,0,.929,3.066,6.652,6.652,0,0,0,2.927,2.571,6.529,6.529,0,0,0,2.2.573l.178.017-.056.167a8.458,8.458,0,0,0-.356,3.111,8.665,8.665,0,0,0,.545,2.448,6.042,6.042,0,0,0,.4.863.748.748,0,0,0,.506.4.5.5,0,0,0,.39-.117c.067-.067.083-.122.095-.122a.229.229,0,0,1-.056.156.516.516,0,0,1-.434.184.836.836,0,0,1-.623-.412,5.531,5.531,0,0,1-.445-.874,8.334,8.334,0,0,1-.618-2.493,8.423,8.423,0,0,1,.334-3.216l.122.184a6.661,6.661,0,0,1-6.244-6.488,6.456,6.456,0,0,1,.312-2.22,4.895,4.895,0,0,1,.228-.568C364.178,73.765,364.211,73.7,364.222,73.71Z" transform="translate(-318.146 -67.997)" fill="#455a64"/>
            </g>
            <path id="Trazado_717415" data-name="Trazado 717415" d="M332.243,167.089v-1.536L316.8,160.583h0c-5.5-2.354-13.355-.99-17.963,1.853l-4,.106.039-.056c-4.574-3.612-12.3-4.346-18.286-1.731l.145.64h0c.011.045.039.139.067.273l.134.573c.807,3.545,1.758,7.307,2.71,8.314.64.679,2.8,1.052,4.552,1.241.668.072,1.28.122,1.72.15.534.033,5.22.328,6.027-.39.874-.779,2.359-6.511,2.793-8.252l4.107-.089c.484,1.375,1.324,7.54,3.294,8.781,2.053,1.291,10.606.868,11.586-.579a65.626,65.626,0,0,0,3.645-8.981l.083-.167,14.791,4.819Zm-40.762,3.879c-.874.69-10.217.206-11.324-.968-.935-.991-2.087-6.049-2.521-7.958-.006-.028-.011-.05-.017-.078,5.342-2.031,12.3-1.386,16.282,1.675-.774,3.011-1.92,6.872-2.421,7.323Zm21.658,0c-.612.9-8.592,1.636-10.629.356-1.408-.885-2.159-5.186-2.793-7.663,4.5-2.693,12.192-3.829,17.084-1.4A52.9,52.9,0,0,1,313.139,170.967Z" transform="translate(-276.59 -105.912)" fill="#263238"/>
            <g id="Grupo_1006787" data-name="Grupo 1006787" transform="translate(23.945 55.74)" opacity="0.3">
              <path id="Trazado_717416" data-name="Trazado 717416" d="M319.62,166.136s.84,6.038,2.576,6.316S326,163.61,326,163.61,320.722,164.656,319.62,166.136Z" transform="translate(-319.62 -163.61)" fill="#fff"/>
            </g>
            <g id="Grupo_1006788" data-name="Grupo 1006788" transform="translate(1.714 55.294)" opacity="0.3">
              <path id="Trazado_717417" data-name="Trazado 717417" d="M279.67,163.844s.84,6.85,2.577,7.134,5.225-8.074,5.225-8.074-6.7-.54-7.8.946Z" transform="translate(-279.67 -162.808)" fill="#fff"/>
            </g>
          </g>
          <g id="Grupo_1006790" data-name="Grupo 1006790" transform="translate(66.462 105.838)">
            <path id="Trazado_717418" data-name="Trazado 717418" d="M362.412,315.825c-1.836-1.931-7.679-6.794-9.4-7.479s-7.1,11.931-7.44,15.242,1.525,7.64,3.851,10.545c3.322,4.14,11.346,9.221,14.379,10.634,3.066,1.43,11.68,6.361,16.922-4.763s4.563-11.035,6.032-15.615c2.281-7.1,4.168-21.1,5.309-29.621a138.994,138.994,0,0,0,.952-23.478c-.367-6.895-2.3-13.1-6.934-17.367-3.9-3.589-16.895,27.863-16.895,28.141s-5.988,33.7-5.988,33.7" transform="translate(-311.994 -253.637)" fill="#455a64"/>
            <path id="Trazado_717419" data-name="Trazado 717419" d="M292.7,290s-1.246-2.137,3.261-2.8a18.3,18.3,0,0,1,8.77.517c1.085.467,6.667,5.776,7.123,6.806,1.224,2.766,3.278,11.213,3.278,11.213l2.782,3.94-6.539,11.73a20.3,20.3,0,0,0-1.953-1.97c-.979-.818-3.923-1.8-4.519-4.268a29.555,29.555,0,0,0-2.4-5.743s-10.974-2.382-11.953-2.871-.9-1.97-.9-1.97a28.548,28.548,0,0,1-3.417-.6,1.773,1.773,0,0,1,.334-3.272c2.332-1.068,10.072-1.63,11.124-1.63s6.088.657,6.088.657-6.611-1.5-8.636-1.658-6.605-.061-7.34-.234c-.918-.212-1.525-2.365.195-3.15a20.239,20.239,0,0,1,6.16-1.274,81.628,81.628,0,0,1,9.966.974l-2.537-2.821a44.434,44.434,0,0,0-6.249-.685,4.657,4.657,0,0,1-2.643-.89Z" transform="translate(-285.268 -268.405)" fill="#ffbf9d"/>
            <path id="Trazado_717420" data-name="Trazado 717420" d="M326.77,333.078l18.391,27.529s7.768-9.51,8.358-16.433l.339-3.4L333.281,320.73l-6.511,12.354Z" transform="translate(-303.675 -283.395)" fill="#ffbf9d"/>
            <path id="Trazado_717421" data-name="Trazado 717421" d="M306.435,318.117c-.006.045-.768-.078-2-.222s-2.933-.3-4.819-.328-3.595.072-4.825.178-1.992.206-2,.161a1.859,1.859,0,0,1,.523-.134c.339-.072.84-.15,1.452-.228a34.581,34.581,0,0,1,4.853-.267,34.134,34.134,0,0,1,4.841.412c.612.1,1.107.195,1.447.273a1.92,1.92,0,0,1,.523.15Z" transform="translate(-288.604 -281.862)" fill="#ff9a6c"/>
            <path id="Trazado_717422" data-name="Trazado 717422" d="M382.717,354.017s-.25-.139-.679-.44c-.467-.334-1.063-.768-1.781-1.28-1.5-1.091-3.556-2.615-5.815-4.318a19.267,19.267,0,0,0-3.317-2.142,9.212,9.212,0,0,0-1.614-.573,7.55,7.55,0,0,0-1.469-.245,3.372,3.372,0,0,0-2.053.479c-.428.273-.618.5-.64.479-.005-.006.033-.061.128-.167a2.3,2.3,0,0,1,.451-.4,3.4,3.4,0,0,1,2.126-.59,7.735,7.735,0,0,1,1.519.217,8.938,8.938,0,0,1,1.669.562,18.561,18.561,0,0,1,3.383,2.154c2.259,1.7,4.3,3.25,5.765,4.385.7.545,1.274,1,1.725,1.358a4.1,4.1,0,0,1,.612.529Z" transform="translate(-320.786 -294.078)" fill="#263238"/>
            <path id="Trazado_717423" data-name="Trazado 717423" d="M400.143,355.788c-.039.039-.685-.712-1.881-1.742a21.256,21.256,0,0,0-2.209-1.669,23.734,23.734,0,0,0-2.966-1.642,23.488,23.488,0,0,0-3.189-1.157,21.8,21.8,0,0,0-2.71-.568c-1.564-.223-2.549-.217-2.549-.273a2.925,2.925,0,0,1,.69-.039c.223-.006.5,0,.812.017s.679.028,1.074.089a19.567,19.567,0,0,1,2.755.512,22.129,22.129,0,0,1,3.239,1.152,22.491,22.491,0,0,1,2.994,1.681,19.692,19.692,0,0,1,2.2,1.742c.3.262.545.529.768.751a6.717,6.717,0,0,1,.545.6,3,3,0,0,1,.423.545Z" transform="translate(-329.342 -295.799)" fill="#263238"/>
            <path id="Trazado_717424" data-name="Trazado 717424" d="M399.295,254.475s-.217.25-.64.657c-.217.2-.473.451-.757.762s-.629.64-.963,1.046-.723.835-1.1,1.33c-.389.479-.762,1.029-1.163,1.6a30.66,30.66,0,0,0-2.215,3.94,31.184,31.184,0,0,0-1.569,4.24c-.173.673-.356,1.308-.467,1.92-.139.6-.228,1.174-.306,1.692-.094.517-.128,1-.173,1.408s-.072.774-.089,1.068a5.3,5.3,0,0,1-.089.913,5.408,5.408,0,0,1-.028-.918c0-.295,0-.657.039-1.08s.05-.9.134-1.425c.067-.529.145-1.1.273-1.714.1-.618.278-1.263.445-1.942a28.9,28.9,0,0,1,1.564-4.29,29.747,29.747,0,0,1,2.259-3.968c.412-.568.79-1.119,1.191-1.6.384-.5.773-.924,1.13-1.319s.7-.729,1-1.024a10.4,10.4,0,0,1,.8-.729,5.548,5.548,0,0,1,.718-.573Z" transform="translate(-331.604 -254.006)" fill="#263238"/>
          </g>
          <path id="Trazado_717425" data-name="Trazado 717425" d="M362.412,315.825c-1.836-1.931-7.679-6.794-9.4-7.479s-7.1,11.931-7.44,15.242,1.525,7.64,3.851,10.545c3.322,4.14,11.346,9.221,14.379,10.634,3.066,1.43,11.68,6.361,16.922-4.763s4.563-11.035,6.032-15.615c2.281-7.1,4.168-21.1,5.309-29.621a138.994,138.994,0,0,0,.952-23.478c-.367-6.895-2.3-13.1-6.934-17.367-3.9-3.589-16.895,27.863-16.895,28.141s-5.988,33.7-5.988,33.7" transform="translate(-245.532 -147.8)" fill="#003f60"/>
          <path id="Trazado_717426" data-name="Trazado 717426" d="M292.7,290s-1.246-2.137,3.261-2.8a18.3,18.3,0,0,1,8.77.517c1.085.467,6.667,5.776,7.123,6.806,1.224,2.766,3.278,11.213,3.278,11.213l2.782,3.94-6.539,11.73a20.3,20.3,0,0,0-1.953-1.97c-.979-.818-3.923-1.8-4.519-4.268a29.555,29.555,0,0,0-2.4-5.743s-10.974-2.382-11.953-2.871-.9-1.97-.9-1.97a28.548,28.548,0,0,1-3.417-.6,1.773,1.773,0,0,1,.334-3.272c2.332-1.068,10.072-1.63,11.124-1.63s6.088.657,6.088.657-6.611-1.5-8.636-1.658-6.605-.061-7.34-.234c-.918-.212-1.525-2.365.195-3.15a20.239,20.239,0,0,1,6.16-1.274,81.628,81.628,0,0,1,9.966.974l-2.537-2.821a44.434,44.434,0,0,0-6.249-.685,4.657,4.657,0,0,1-2.643-.89Z" transform="translate(-218.806 -162.567)" fill="#ffbf9d"/>
          <path id="Trazado_717427" data-name="Trazado 717427" d="M326.77,333.078l18.391,27.529s7.768-9.51,8.358-16.433l.339-3.4L333.281,320.73l-6.511,12.354Z" transform="translate(-237.213 -177.557)" fill="#ffbf9d"/>
          <path id="Trazado_717428" data-name="Trazado 717428" d="M306.435,318.117c-.006.045-.768-.078-2-.222s-2.933-.3-4.819-.328-3.595.072-4.825.178-1.992.206-2,.161a1.859,1.859,0,0,1,.523-.134c.339-.072.84-.15,1.452-.228a34.581,34.581,0,0,1,4.853-.267,34.134,34.134,0,0,1,4.841.412c.612.1,1.107.195,1.447.273a1.92,1.92,0,0,1,.523.15Z" transform="translate(-222.142 -176.024)" fill="#ff9a6c"/>
          <path id="Trazado_717429" data-name="Trazado 717429" d="M382.717,354.017s-.25-.139-.679-.44c-.467-.334-1.063-.768-1.781-1.28-1.5-1.091-3.556-2.615-5.815-4.318a19.267,19.267,0,0,0-3.317-2.142,9.212,9.212,0,0,0-1.614-.573,7.55,7.55,0,0,0-1.469-.245,3.372,3.372,0,0,0-2.053.479c-.428.273-.618.5-.64.479-.005-.006.033-.061.128-.167a2.3,2.3,0,0,1,.451-.4,3.4,3.4,0,0,1,2.126-.59,7.735,7.735,0,0,1,1.519.217,8.938,8.938,0,0,1,1.669.562,18.561,18.561,0,0,1,3.383,2.154c2.259,1.7,4.3,3.25,5.765,4.385.7.545,1.274,1,1.725,1.358a4.1,4.1,0,0,1,.612.529Z" transform="translate(-254.324 -188.24)" fill="#263238"/>
          <path id="Trazado_717430" data-name="Trazado 717430" d="M385.265,304.7s0,.156-.028.451c-.033.317-.083.746-.139,1.28-.139,1.141-.334,2.738-.568,4.7-.512,3.99-1.213,9.46-1.987,15.5-.161,1.213-.317,2.41-.467,3.55l-.145-.161a27.508,27.508,0,0,1,12.8,2.944,14.608,14.608,0,0,1,3.177,2.27,8.188,8.188,0,0,1,.729.762,1.79,1.79,0,0,1,.234.284c-.022.022-.351-.356-1.029-.968a15.544,15.544,0,0,0-3.2-2.181,27.889,27.889,0,0,0-12.71-2.821h-.161l.022-.161c.15-1.141.306-2.332.462-3.55.807-6.032,1.536-11.5,2.07-15.487.278-1.959.5-3.55.662-4.691.083-.534.145-.957.195-1.274a2.5,2.5,0,0,1,.089-.44Z" transform="translate(-261.607 -170.447)" fill="#263238"/>
          <path id="Trazado_717431" data-name="Trazado 717431" d="M399.295,254.475s-.217.25-.64.657c-.217.2-.473.451-.757.762s-.629.64-.963,1.046-.723.835-1.1,1.33c-.389.479-.762,1.029-1.163,1.6a30.66,30.66,0,0,0-2.215,3.94,31.184,31.184,0,0,0-1.569,4.24c-.173.673-.356,1.308-.467,1.92-.139.6-.228,1.174-.306,1.692-.094.517-.128,1-.173,1.408s-.072.774-.089,1.068a5.3,5.3,0,0,1-.089.913,5.408,5.408,0,0,1-.028-.918c0-.295,0-.657.039-1.08s.05-.9.134-1.425c.067-.529.145-1.1.273-1.714.1-.618.278-1.263.445-1.942a28.9,28.9,0,0,1,1.564-4.29,29.747,29.747,0,0,1,2.259-3.968c.412-.568.79-1.119,1.191-1.6.384-.5.773-.924,1.13-1.319s.7-.729,1-1.024a10.4,10.4,0,0,1,.8-.729,5.548,5.548,0,0,1,.718-.573Z" transform="translate(-265.142 -148.168)" fill="#263238"/>
          <g id="Grupo_1006791" data-name="Grupo 1006791" transform="translate(33.563 131.96)">
            <path id="Trazado_717432" data-name="Trazado 717432" d="M230.061,316.968s-4.713-11.653-3.8-15.565a1.068,1.068,0,0,1,1.046-.824h0a1.07,1.07,0,0,1,.952.579l6.138,11.808a5.653,5.653,0,0,1,2.577-2.916,58.13,58.13,0,0,1,5.7-1.792l5.531.69a1.166,1.166,0,0,1,.7,1.959,5.017,5.017,0,0,1-3.333,1.352c-4.012.334-5.058,1.258-5.058,1.258l-2,3.45s4.229-2.894,5.559-3c1.041-.089,6.8-.206,9.293-.256a2.174,2.174,0,0,1,2.12,1.452c.261.79.078,1.7-1.7,2.142,0,0,1.953,1.013-.7,2.337a36.817,36.817,0,0,1-5.008,2L244.3,324.2l-6.338,4.452-7.451-5.12s-2.649-2.816-1-5.164a6.116,6.116,0,0,0,.556-1.4Z" transform="translate(-226.147 -300.58)" fill="#ffbf9d"/>
            <path id="Trazado_717433" data-name="Trazado 717433" d="M256.821,336.787s3.55,3.027,4.324,4.919,1.452,3.812.228,8.375-11.419,0-11.419,0c-.284-1.864-2.565-4.118-5.114-6.416l9.527-7.045Z" transform="translate(-234.438 -316.565)" fill="#ffbf9d"/>
            <path id="Trazado_717434" data-name="Trazado 717434" d="M239.535,319.848a5.5,5.5,0,0,1-.579.929c-.373.562-.863,1.352-1.4,2.231a23.4,23.4,0,0,1-2.042,3.133,4.608,4.608,0,0,1,.473-.991c.323-.6.779-1.408,1.319-2.293a12.959,12.959,0,0,1,2.22-3.011Z" transform="translate(-230.301 -309.125)" fill="#ff9a6c"/>
            <path id="Trazado_717435" data-name="Trazado 717435" d="M265.435,330.4a4.565,4.565,0,0,1-.568.089c-.367.039-.9.078-1.547.128-1.308.1-3.122.2-5.108.317-2.042,0-3.422,1.358-4.435,2.137a15.258,15.258,0,0,1-1.647,1.335,2.546,2.546,0,0,1,.384-.423c.261-.256.64-.629,1.13-1.068a14.429,14.429,0,0,1,1.825-1.43,4.784,4.784,0,0,1,1.258-.6,7.447,7.447,0,0,1,1.464-.239c2-.122,3.806-.189,5.12-.234.657-.022,1.185-.033,1.553-.033a2.13,2.13,0,0,1,.573.028Z" transform="translate(-237.671 -313.797)" fill="#ff9a6c"/>
            <path id="Trazado_717436" data-name="Trazado 717436" d="M247.693,330.063c.05.067-.284.4-.612.846s-.551.868-.629.84.028-.518.4-1.007S247.649,330,247.693,330.063Z" transform="translate(-235.143 -313.652)" fill="#ff9a6c"/>
            <path id="Trazado_717437" data-name="Trazado 717437" d="M268.538,335.269a3.6,3.6,0,0,1-.957.467c-.612.245-1.469.54-2.4.879-1.881.657-3.339,1.352-3.378,1.28a12.559,12.559,0,0,1,3.278-1.553c.946-.339,1.809-.6,2.432-.8a4.263,4.263,0,0,1,1.029-.273Z" transform="translate(-241.959 -315.964)" fill="#ff9a6c"/>
          </g>
        </g>
      </g>
    </g>
  </g>
</svg>
