<svg xmlns="http://www.w3.org/2000/svg" xmlns:xlink="http://www.w3.org/1999/xlink" width="884.732" height="422.005" viewBox="0 0 884.732 422.005">
  <defs>
    <clipPath id="clip-path">
      <path id="Sustracción_51" data-name="Sustracción 51" d="M571.13,387.738H15.4A293.375,293.375,0,1,1,580.572,234.428a295.957,295.957,0,0,1-9.441,153.309Z" fill="#112e4c" opacity="0.64"/>
    </clipPath>
    <clipPath id="clip-path-2">
      <rect id="Rectángulo_348646" data-name="Rectángulo 348646" width="559.311" height="502.094" fill="none"/>
    </clipPath>
    <clipPath id="clip-path-3">
      <rect id="Rectángulo_348645" data-name="Rectángulo 348645" width="630.053" height="565.599" fill="#ed9aa9"/>
    </clipPath>
    <clipPath id="clip-path-4">
      <rect id="Rectángulo_348643" data-name="Rectángulo 348643" width="136.077" height="135.925" fill="#4db1f0"/>
    </clipPath>
    <clipPath id="clip-path-5">
      <rect id="Rectángulo_348644" data-name="Rectángulo 348644" width="311.481" height="323.559" fill="#4db1f0"/>
    </clipPath>
    <clipPath id="clip-path-6">
      <rect id="Rectángulo_344461" data-name="Rectángulo 344461" width="429.949" height="422.005" fill="none"/>
    </clipPath>
    <filter id="Trazado_696367" x="220.584" y="6.828" width="125.951" height="96.255" filterUnits="userSpaceOnUse">
      <feOffset dy="3" input="SourceAlpha"/>
      <feGaussianBlur stdDeviation="3" result="blur"/>
      <feFlood flood-opacity="0.161"/>
      <feComposite operator="in" in2="blur"/>
      <feComposite in="SourceGraphic"/>
    </filter>
    <clipPath id="clip-path-9">
      <rect id="Rectángulo_344440" data-name="Rectángulo 344440" width="59.549" height="97.954" fill="none"/>
    </clipPath>
    <clipPath id="clip-path-12">
      <rect id="Rectángulo_344448" data-name="Rectángulo 344448" width="6.683" height="7.964" fill="none"/>
    </clipPath>
    <clipPath id="clip-path-13">
      <rect id="Rectángulo_344451" data-name="Rectángulo 344451" width="5.944" height="0.857" fill="none"/>
    </clipPath>
    <clipPath id="clip-path-14">
      <rect id="Rectángulo_344454" data-name="Rectángulo 344454" width="12.043" height="0.856" fill="none"/>
    </clipPath>
    <clipPath id="clip-path-15">
      <rect id="Rectángulo_344457" data-name="Rectángulo 344457" width="12.043" height="0.857" fill="none"/>
    </clipPath>
  </defs>
  <g id="Grupo_1014857" data-name="Grupo 1014857" transform="translate(-358 -4594.982)">
    <g id="Grupo_1014550" data-name="Grupo 1014550" transform="translate(-12 31)">
      <g id="Grupo_1013688" data-name="Grupo 1013688" transform="translate(56 58)">
        <g id="Grupo_1013684" data-name="Grupo 1013684" transform="translate(451 4533.625)">
          <path id="Sustracción_50" data-name="Sustracción 50" d="M569.317,392.936H17.211A293.078,293.078,0,0,1,0,293.6a296.09,296.09,0,0,1,5.958-59.17A292.168,292.168,0,0,1,50.085,129.445,294.164,294.164,0,0,1,179.113,23.072,291.546,291.546,0,0,1,234.161,5.965a295.8,295.8,0,0,1,118.206,0A291.484,291.484,0,0,1,457.231,50.142,294.414,294.414,0,0,1,563.483,179.317a292.371,292.371,0,0,1,17.088,55.111,296.1,296.1,0,0,1,5.958,59.17,293.08,293.08,0,0,1-17.211,99.337Z" transform="translate(0.002 0)" fill="#e1f3fc"/>
          <g id="Grupo_1013683" data-name="Grupo 1013683" transform="translate(0 0)">
            <g id="Grupo_1013682" data-name="Grupo 1013682" transform="translate(0 0)" clip-path="url(#clip-path)">
              <g id="Grupo_1013679" data-name="Grupo 1013679" transform="translate(27.218 -37.585)" opacity="0.49">
                <g id="Grupo_1013678" data-name="Grupo 1013678" transform="translate(0 0)" clip-path="url(#clip-path-2)">
                  <g id="Grupo_1013677" data-name="Grupo 1013677" transform="translate(-37.437 -35.357)">
                    <g id="Grupo_1013676" data-name="Grupo 1013676" clip-path="url(#clip-path-3)">
                      <path id="Trazado_726268" data-name="Trazado 726268" d="M224.206,206.582h33.018a14.131,14.131,0,1,1,0,28.263H224.206a14.131,14.131,0,0,1,0-28.263" transform="translate(-133.738 214.662)" fill="#bde0f3"/>
                      <path id="Trazado_726269" data-name="Trazado 726269" d="M114.806,104.069,132.59,86.285a23.2,23.2,0,0,1,32.817,0L445.831,366.71h10.036a14.124,14.124,0,0,1,11.824,21.86l19.483,19.483a23.206,23.206,0,0,1,0,32.814l-17.783,17.783a23.2,23.2,0,0,1-32.817,0L372.9,394.973H287.181a14.131,14.131,0,0,1,0-28.263h95.037a14.13,14.13,0,1,0,0-28.26H316.37L114.806,136.885a23.2,23.2,0,0,1,0-32.817" transform="translate(-108.01 100.151)" fill="#4db1f0" opacity="0.6"/>
                      <path id="Trazado_726270" data-name="Trazado 726270" d="M241.465,43.227A213.642,213.642,0,0,0,83.166,27.29C78.607,23.758,73.337,19.8,67.493,15.6A214.346,214.346,0,0,1,344.327,161.451,213.6,213.6,0,0,0,241.465,43.227" transform="translate(133.197 4.74)" fill="#c1e4fa"/>
                      <path id="Trazado_726271" data-name="Trazado 726271" d="M55.694,112.421A37.214,37.214,0,1,0,92.908,75.207a37.216,37.216,0,0,0-37.214,37.214" transform="translate(374.065 94.756)" fill="#c1e4fa"/>
                      <path id="Trazado_726272" data-name="Trazado 726272" d="M199.727,6.8,466.205,273.275a.048.048,0,0,1-.034.081h-77.4a14.423,14.423,0,0,0-14.561,13.492,14.129,14.129,0,0,0,14.116,14.769H494.529a.047.047,0,0,1,.032.016l26.934,26.932a23.2,23.2,0,0,1,0,32.817L389.9,492.975a23.2,23.2,0,0,1-32.814,0L35.316,171.207a23.2,23.2,0,0,1,0-32.814L166.91,6.8a23.2,23.2,0,0,1,32.817,0" transform="translate(37.309 -0.001)" fill="#c1e4fa"/>
                      <g id="Grupo_1013672" data-name="Grupo 1013672" transform="translate(377.155 359.852)" opacity="0.57">
                        <g id="Grupo_1013671" data-name="Grupo 1013671">
                          <g id="Grupo_1013670" data-name="Grupo 1013670" clip-path="url(#clip-path-4)">
                            <path id="Trazado_726273" data-name="Trazado 726273" d="M51.692,229.19A69.959,69.959,0,0,1,187.77,206.328l-86.025,86.025a23.366,23.366,0,0,1-3.406,2.8A69.976,69.976,0,0,1,51.692,229.19" transform="translate(-51.692 -159.231)" fill="#4db1f0"/>
                          </g>
                        </g>
                      </g>
                      <g id="Grupo_1013675" data-name="Grupo 1013675" transform="translate(65.843 111.817)" opacity="0.3">
                        <g id="Grupo_1013674" data-name="Grupo 1013674">
                          <g id="Grupo_1013673" data-name="Grupo 1013673" clip-path="url(#clip-path-5)">
                            <path id="Trazado_726274" data-name="Trazado 726274" d="M423.312,251.609A201.229,201.229,0,0,1,382.78,373.036L118.611,108.867a23.188,23.188,0,0,1-2.3-30.087,201.189,201.189,0,0,1,104.873-29.3c111.634,0,202.131,90.5,202.131,202.131" transform="translate(-111.831 -49.478)" fill="#4db1f0"/>
                          </g>
                        </g>
                      </g>
                      <path id="Trazado_726275" data-name="Trazado 726275" d="M97.281,103.98Z" transform="translate(312.923 131.008)" fill="#1c1c1c"/>
                      <path id="Trazado_726276" data-name="Trazado 726276" d="M14.131,161.725H182.818a14.131,14.131,0,1,0,0-28.263H14.131a14.131,14.131,0,1,0,0,28.263" transform="translate(433.104 168.154)" fill="#4db1f0"/>
                      <path id="Trazado_726277" data-name="Trazado 726277" d="M31.163,112.754A19.735,19.735,0,1,0,50.9,93.018a19.736,19.736,0,0,0-19.736,19.736" transform="translate(488.994 117.197)" fill="#b5dff8"/>
                      <path id="Trazado_726278" data-name="Trazado 726278" d="M257.171,163.346a19.735,19.735,0,1,0,19.736-19.736,19.736,19.736,0,0,0-19.736,19.736" transform="translate(-247.779 180.94)" fill="#c1e4fa"/>
                    </g>
                  </g>
                </g>
              </g>
            </g>
          </g>
        </g>
        <g id="Grupo_1013665" data-name="Grupo 1013665" transform="translate(526.35 4505.982)">
          <g id="Grupo_930161" data-name="Grupo 930161" clip-path="url(#clip-path-6)">
            <g id="Grupo_930139" data-name="Grupo 930139">
              <g id="Grupo_930138" data-name="Grupo 930138" clip-path="url(#clip-path-6)">
                <path id="Trazado_696360" data-name="Trazado 696360" d="M344.294,191.687l-8.255-13.308,4.076-2.525a3.722,3.722,0,0,0,1.727-3.5,21.817,21.817,0,0,1-.073-2.341,3.723,3.723,0,0,0-1.943-3.379l-4.224-2.265,7.4-13.8,4.224,2.265a3.722,3.722,0,0,0,3.889-.251,21.891,21.891,0,0,1,1.991-1.233,3.722,3.722,0,0,0,1.962-3.377l-.152-4.792,15.653-.487.145,4.81a3.73,3.73,0,0,0,2.183,3.24q.521.245,1.03.519t1,.57a3.713,3.713,0,0,0,3.888.029l4.105-2.542,8.254,13.308-4.083,2.534a3.723,3.723,0,0,0-1.725,3.505,21.669,21.669,0,0,1,.076,2.332,3.72,3.72,0,0,0,1.943,3.375l4.226,2.266-7.4,13.806-4.226-2.267a3.721,3.721,0,0,0-3.886.249,21.569,21.569,0,0,1-1.984,1.226,3.723,3.723,0,0,0-1.966,3.376l.148,4.8-15.652.487-.15-4.806a3.716,3.716,0,0,0-2.177-3.228q-.522-.246-1.037-.524c-.341-.182-.675-.373-1-.57a3.728,3.728,0,0,0-3.907-.028Zm13.253-9.883a12.828,12.828,0,1,0-5.251-17.365,12.819,12.819,0,0,0,5.251,17.365" transform="translate(-308.365 4.716)" fill="#4db1f0"/>
                <path id="Trazado_696361" data-name="Trazado 696361" d="M12.168,244.955,1.1,226.839l-.048.2,5.832-3.571a5.2,5.2,0,0,0,2-2.851,12.807,12.807,0,0,0,.146-3.46L9,215.459a5.309,5.309,0,0,0-2.46-4.53L.52,207.67l.117.384,10.081-18.69-.454.137,6.034,3.241a5.425,5.425,0,0,0,5.23-.441l1.441-.892,1.445-.887a5.445,5.445,0,0,0,2.747-4.495l-.188-6.849-.387.412,21.219-.608-.464-.437.2,6.854a5.547,5.547,0,0,0,3.058,4.4l1.511.768,1.471.841a5.547,5.547,0,0,0,5.38.125l5.843-3.588-.709-.166L75.328,205.8l.151-.643-5.809,3.639a5.507,5.507,0,0,0-2.262,4.83l.062,1.693.058,1.691a5.492,5.492,0,0,0,2.56,4.657l6.041,3.236-.164-.543-9.991,18.738.474-.144L60.4,239.74a5.333,5.333,0,0,0-3.557-.285,12.936,12.936,0,0,0-3.084,1.641l-1.444.894a5.372,5.372,0,0,0-2.684,4.453l.215,6.842.276-.293-21.214.755.2.183-.272-6.826c-.158-2.5-2.344-4-4.433-4.85-1.868-1.239-4.324-2.179-6.449-.926l-5.781,3.628m0,0,5.826-3.544c2.138-1.208,4.442-.244,6.315,1.009,2.055.886,4.1,2.291,4.239,4.71l.176,6.812.005.188.19-.005,21.22-.563.284-.008-.007-.286-.183-6.8a4.758,4.758,0,0,1,2.4-3.931l1.463-.895,1.462-.9a4.735,4.735,0,0,1,4.567-.385l5.994,3.22.309.165.166-.309,10.081-18.69.19-.351-.354-.192-5.978-3.237a4.641,4.641,0,0,1-2.142-3.948l-.051-1.72-.055-1.717a4.618,4.618,0,0,1,1.91-4.043l5.779-3.58.4-.245-.246-.4L64.974,187.241,64.7,186.8l-.439.273-5.777,3.586a4.561,4.561,0,0,1-4.422-.093l-1.5-.847-1.536-.771a4.6,4.6,0,0,1-2.56-3.636l-.231-6.794-.015-.451-.449.014-21.216.71-.4.013.013.4.22,6.8a4.687,4.687,0,0,1-2.352,3.879l-1.459.9-1.458.91a4.706,4.706,0,0,1-4.537.407l-6.008-3.191-.3-.158-.157.3L.134,207.786,0,208.037l.251.134,6,3.214a4.819,4.819,0,0,1,2.239,4.074c.044.852.087,2.573.132,3.426a4.855,4.855,0,0,1-1.962,4.269L.9,226.791l-.125.08.077.123Z" transform="translate(353.086 5.886)" fill="#fff"/>
                <path id="Trazado_696362" data-name="Trazado 696362" d="M29.34,230.909c13.7,7.371,29.6-5.512,25.278-20.483a17.763,17.763,0,0,0-22.223-11.907c-14.876,4.69-16.769,25.06-3.055,32.39m0,0c-13.466-7.344-11.37-27.224,3.311-31.544a17.178,17.178,0,0,1,21.123,11.315C58.3,225.286,42.9,238.069,29.34,230.909" transform="translate(353.88 6.535)" fill="#fff"/>
                <path id="Trazado_696363" data-name="Trazado 696363" d="M78.177,310.537l-9.5-5.482,1.68-2.909a2.606,2.606,0,0,0-.092-2.735,15.09,15.09,0,0,1-.821-1.42,2.607,2.607,0,0,0-2.318-1.443H63.765V285.574h3.358a2.606,2.606,0,0,0,2.318-1.442,15.248,15.248,0,0,1,.821-1.422,2.606,2.606,0,0,0,.092-2.734l-1.68-2.908,9.5-5.482,1.682,2.92a2.613,2.613,0,0,0,2.42,1.278c.269-.013.537-.021.808-.021s.539.007.808.021a2.6,2.6,0,0,0,2.41-1.27L88,271.585l9.5,5.482-1.682,2.916a2.611,2.611,0,0,0,.1,2.736,14.991,14.991,0,0,1,.819,1.414,2.608,2.608,0,0,0,2.317,1.44h3.359v10.974H99.05a2.607,2.607,0,0,0-2.317,1.441,15.245,15.245,0,0,1-.819,1.414,2.61,2.61,0,0,0-.1,2.736l1.682,2.916L88,310.537l-1.683-2.917a2.607,2.607,0,0,0-2.413-1.273c-.27.013-.54.021-.814.021s-.539-.007-.808-.021a2.615,2.615,0,0,0-2.421,1.277Zm4.91-10.49a8.987,8.987,0,1,0-8.991-8.982,8.98,8.98,0,0,0,8.991,8.982" transform="translate(264.666 16.131)" fill="#4db1f0"/>
                <path id="Trazado_696364" data-name="Trazado 696364" d="M116.339,35.833l5.483-9.5,2.908,1.68a2.606,2.606,0,0,0,2.734-.092,15.1,15.1,0,0,1,1.42-.821,2.606,2.606,0,0,0,1.443-2.318V21.421H141.3v3.358a2.607,2.607,0,0,0,1.442,2.318,15.248,15.248,0,0,1,1.421.821,2.608,2.608,0,0,0,2.734.092l2.908-1.68,5.483,9.5-2.921,1.682a2.613,2.613,0,0,0-1.278,2.42q.02.4.021.808c0,.27-.007.539-.021.807a2.6,2.6,0,0,0,1.27,2.411l2.93,1.692-5.483,9.5-2.916-1.682a2.61,2.61,0,0,0-2.736.1,15.112,15.112,0,0,1-1.414.819,2.608,2.608,0,0,0-1.44,2.317v3.359H130.329V56.706a2.607,2.607,0,0,0-1.441-2.317,15.245,15.245,0,0,1-1.414-.819,2.609,2.609,0,0,0-2.734-.1l-2.916,1.682-5.483-9.5,2.917-1.683a2.608,2.608,0,0,0,1.273-2.414q-.02-.4-.021-.813t.021-.808a2.613,2.613,0,0,0-1.277-2.421Zm10.49,4.91a8.987,8.987,0,1,0,8.982-8.991,8.98,8.98,0,0,0-8.982,8.991" transform="translate(154.472 0.708)" fill="#4db1f0"/>
                <path id="Trazado_696365" data-name="Trazado 696365" d="M372.283,219.326l5.734-9.186-.207.055,3.077,1.741a2.946,2.946,0,0,0,1.845.262,5.779,5.779,0,0,0,1.673-.73c1.141-.536,2.307-1.247,2.429-2.641.041-1.232.027-2.367.043-3.555l-.3.3,11.213.085-.384-.385c0,1.194-.035,2.308-.009,3.568a3,3,0,0,0,1.722,2.378c.376.216,1.143.636,1.52.851a3.223,3.223,0,0,0,2.95.089l3.113-1.7-.607-.163,5.579,9.28.18-.67-3.105,1.7a5.034,5.034,0,0,0-.005,7.026l3.093,1.72-.192-.719-5.581,9.28.656-.175-3.115-1.7a3.216,3.216,0,0,0-2.019-.264,5.921,5.921,0,0,0-1.739.781c-1.2.587-2.38,1.354-2.5,2.825-.031,1.271,0,2.376-.008,3.572l.455-.455-11.213.048.408.407c-.121-1.991.584-4.9-1.765-5.883l-.757-.411a3.562,3.562,0,0,0-3.631-.482L377.74,237.9l.4.108-5.694-9.211-.072.272,3.063-1.741a3.08,3.08,0,0,0,1.211-3.217,3.03,3.03,0,0,0-1.259-3.138l-3.108-1.65m0,0,3.047,1.749a2.89,2.89,0,0,1,1.105,3.039,2.828,2.828,0,0,1-1.154,2.959l-3.093,1.658-.177.094.1.177,5.51,9.321.147.247.257-.138,3.09-1.665c1.067-.526,2.015-.1,2.995.512a8.345,8.345,0,0,1,1.417.879,2.087,2.087,0,0,1,.65,1.312c.018,1.224-.016,2.611-.014,3.891l.409,0,11.213.046h.451c.014-1.289-.005-2.711.025-3.933.071-1.117,1.164-1.646,2.043-2.1a4.98,4.98,0,0,1,1.454-.668,2.258,2.258,0,0,1,1.416.191l3.066,1.693.411.226.245-.4,5.624-9.252.28-.46-.472-.259-3.066-1.684a1.975,1.975,0,0,1-.866-1.068,5.165,5.165,0,0,1-.088-1.585c-.09-1-.039-2.113.943-2.669l3.059-1.7.44-.244-.26-.427-5.625-9.252-.227-.373-.38.211-3.066,1.7a2.872,2.872,0,0,1-2.9-.482,8.6,8.6,0,0,1-1.42-.847,2.05,2.05,0,0,1-.658-1.275c-.037-1.211-.024-2.6-.044-3.869l-.38,0-11.213.084-.3,0v.3c-.16,1.826.724,4.364-1.327,5.334a11.081,11.081,0,0,1-2.3,1.162,2.54,2.54,0,0,1-1.59-.187l-3.1-1.656-.132-.07-.073.126Z" transform="translate(-367.165 6.772)" fill="#ebebeb"/>
                <path id="Trazado_696366" data-name="Trazado 696366" d="M382.624,223.787c-.048,7.963,10.189,11.868,15.9,6.584a8.845,8.845,0,0,0,0-13.179c-5.714-5.29-15.944-1.366-15.9,6.6m0,0c-.033-7.757,10.052-11.262,15.288-5.943a8.221,8.221,0,0,1,.007,11.878c-5.232,5.319-15.331,1.824-15.3-5.935" transform="translate(-366.788 7.099)" fill="#ebebeb"/>
                <path id="Trazado_696372" data-name="Trazado 696372" d="M13.876,82.914a28.348,28.348,0,1,0,28.036-32.5V78.759Z" transform="translate(345.348 1.666)" fill="#fff"/>
                <path id="Trazado_696373" data-name="Trazado 696373" d="M46.911,73.17a28.112,28.112,0,0,0,.308,4.156L75.255,73.17V44.826A28.319,28.319,0,0,0,46.911,73.17" transform="translate(306.232 1.482)" fill="#4db1f0"/>
                <line id="Línea_200" data-name="Línea 200" x1="30.146" transform="translate(354.045 90.884)" fill="none" stroke="#c7c7c7" stroke-miterlimit="10" stroke-width="1"/>
                <circle id="Elipse_4789" data-name="Elipse 4789" cx="2.113" cy="2.113" r="2.113" transform="translate(349.82 88.771)" fill="none" stroke="#c7c7c7" stroke-miterlimit="10" stroke-width="1"/>
                <rect id="Rectángulo_344431" data-name="Rectángulo 344431" width="23.414" height="1.057" transform="translate(320.858 89.299)" fill="#c7c7c7"/>
                <rect id="Rectángulo_344432" data-name="Rectángulo 344432" width="13.255" height="1.057" transform="translate(331.017 91.412)" fill="#c7c7c7"/>
                <rect id="Rectángulo_344433" data-name="Rectángulo 344433" width="7.99" height="56.857" transform="translate(107.578 273.953)" fill="#4db1f0"/>
                <rect id="Rectángulo_344434" data-name="Rectángulo 344434" width="7.99" height="43.095" transform="translate(93.845 287.716)" fill="#0098e8"/>
                <rect id="Rectángulo_344435" data-name="Rectángulo 344435" width="7.99" height="21.547" transform="translate(80.111 309.263)" fill="#4db1f0"/>
                <rect id="Rectángulo_344436" data-name="Rectángulo 344436" width="7.99" height="33.855" transform="translate(66.379 296.955)" fill="#0098e8"/>
                <rect id="Rectángulo_344437" data-name="Rectángulo 344437" width="7.99" height="46.78" transform="translate(52.645 284.031)" fill="#4db1f0"/>
                <rect id="Rectángulo_344438" data-name="Rectángulo 344438" width="7.99" height="54.38" transform="translate(38.912 276.431)" fill="#0098e8"/>
                <path id="Trazado_696374" data-name="Trazado 696374" d="M387.758,258.189l-.093,16.022-.045,16.023-.064,32.043.2-.2q-11.014-.031-22.03-.005l-22.029.044-22.029.044-22.03.118,22.03.119,22.029.044,22.029.044q11.016.039,22.03-.005h.2v-.2l-.064-32.043-.045-16.023Z" transform="translate(-267.557 8.534)" fill="#ebebeb"/>
                <path id="Trazado_696375" data-name="Trazado 696375" d="M301.656,261.307a6.978,6.978,0,0,0-3.525,0,6.141,6.141,0,0,0,1.762.226,6.255,6.255,0,0,0,1.762-.226" transform="translate(-179.693 8.63)" fill="#ebebeb"/>
                <path id="Trazado_696376" data-name="Trazado 696376" d="M301.656,266.021a6.257,6.257,0,0,0-1.762-.225,6.178,6.178,0,0,0-1.762.225,6.1,6.1,0,0,0,1.762.227,6.187,6.187,0,0,0,1.762-.227" transform="translate(-179.693 8.785)" fill="#ebebeb"/>
                <path id="Trazado_696377" data-name="Trazado 696377" d="M301.656,270.736a6.978,6.978,0,0,0-3.525,0,6.14,6.14,0,0,0,1.762.226,6.255,6.255,0,0,0,1.762-.226" transform="translate(-179.693 8.941)" fill="#ebebeb"/>
                <path id="Trazado_696378" data-name="Trazado 696378" d="M301.656,275.451a6.218,6.218,0,0,0-1.762-.226,6.141,6.141,0,0,0-1.762.226,6.176,6.176,0,0,0,1.762.226,6.254,6.254,0,0,0,1.762-.226" transform="translate(-179.693 9.097)" fill="#ebebeb"/>
                <path id="Trazado_696379" data-name="Trazado 696379" d="M301.656,280.166a6.256,6.256,0,0,0-1.762-.226,6.178,6.178,0,0,0-1.762.226,6.175,6.175,0,0,0,1.762.226,6.254,6.254,0,0,0,1.762-.226" transform="translate(-179.693 9.253)" fill="#ebebeb"/>
                <path id="Trazado_696380" data-name="Trazado 696380" d="M301.656,284.881a6.256,6.256,0,0,0-1.762-.226,6.177,6.177,0,0,0-1.762.226,6.176,6.176,0,0,0,1.762.226,6.254,6.254,0,0,0,1.762-.226" transform="translate(-179.693 9.409)" fill="#ebebeb"/>
                <path id="Trazado_696381" data-name="Trazado 696381" d="M301.656,289.6a6.256,6.256,0,0,0-1.762-.226,6.177,6.177,0,0,0-1.762.226,6.177,6.177,0,0,0,1.762.226,6.256,6.256,0,0,0,1.762-.226" transform="translate(-179.693 9.565)" fill="#ebebeb"/>
                <path id="Trazado_696382" data-name="Trazado 696382" d="M301.656,294.31a6.256,6.256,0,0,0-1.762-.226,6.177,6.177,0,0,0-1.762.226,6.176,6.176,0,0,0,1.762.226,6.254,6.254,0,0,0,1.762-.226" transform="translate(-179.693 9.72)" fill="#ebebeb"/>
                <path id="Trazado_696383" data-name="Trazado 696383" d="M301.656,299.025a6.256,6.256,0,0,0-1.762-.226,6.176,6.176,0,0,0-1.762.226,6.177,6.177,0,0,0,1.762.226,6.256,6.256,0,0,0,1.762-.226" transform="translate(-179.693 9.876)" fill="#ebebeb"/>
                <path id="Trazado_696384" data-name="Trazado 696384" d="M301.656,303.74a6.255,6.255,0,0,0-1.762-.226,6.177,6.177,0,0,0-1.762.226,6.978,6.978,0,0,0,3.525,0" transform="translate(-179.693 10.032)" fill="#ebebeb"/>
                <path id="Trazado_696385" data-name="Trazado 696385" d="M301.656,308.455a6.258,6.258,0,0,0-1.762-.226,6.141,6.141,0,0,0-1.762.226,6.176,6.176,0,0,0,1.762.226,6.256,6.256,0,0,0,1.762-.226" transform="translate(-179.693 10.188)" fill="#ebebeb"/>
                <path id="Trazado_696386" data-name="Trazado 696386" d="M301.656,313.17a6.254,6.254,0,0,0-1.762-.226,6.178,6.178,0,0,0-1.762.226,6.978,6.978,0,0,0,3.525,0" transform="translate(-179.693 10.344)" fill="#ebebeb"/>
                <g id="Grupo_1013685" data-name="Grupo 1013685" transform="translate(16.353 12.056)">
                  <g transform="matrix(1, 0, 0, 1, -228.7, -12.06)" filter="url(#Trazado_696367)">
                    <path id="Trazado_696367-2" data-name="Trazado 696367" d="M403.04.858V63.837H394.2V79.113L378.924,63.837H295.089V.858Z" transform="translate(-65.5 11.97)" fill="#fff"/>
                  </g>
                  <path id="Trazado_696368" data-name="Trazado 696368" d="M403.323.771c-.227,18.56-.408,44.729-.537,62.979l.537-.537-8.839-.048-.582,0,0,.589-.083,15.276,1.14-.472L379.748,63.207l-.222-.224c-24.8-.049-59.688-.137-84.155-.114l.88.881L296.138.771l-.767.767c26.908-.105,81.044-.526,107.951-.767m0,0C376.026.53,321.906.111,294.606,0l0,.771-.113,62.979,0,.877c24.584.075,59.772-.108,84.717-.111l-.543-.225L394.01,79.5l1.148,1.138-.008-1.61-.083-15.276-.585.585,8.839-.049.539,0c0-18.553-.433-44.736-.539-63.513" transform="translate(-294.489)" fill="#ebebeb"/>
                  <path id="Trazado_696369" data-name="Trazado 696369" d="M388.088,35.321a5.115,5.115,0,1,1-5.114-5.114,5.115,5.115,0,0,1,5.114,5.114" transform="translate(-353.638 -3.06)" fill="#0098e8"/>
                  <path id="Trazado_696370" data-name="Trazado 696370" d="M359.685,35.321a5.114,5.114,0,1,1-5.114-5.114,5.114,5.114,0,0,1,5.114,5.114" transform="translate(-299.71 -3.06)" fill="#0098e8"/>
                  <path id="Trazado_696371" data-name="Trazado 696371" d="M331.284,35.321a5.114,5.114,0,1,1-5.114-5.114,5.115,5.115,0,0,1,5.114,5.114" transform="translate(-245.785 -3.06)" fill="#0098e8"/>
                </g>
              </g>
            </g>
            <path id="Trazado_696387" data-name="Trazado 696387" d="M353.085,113.2,342.543,79.568l-6.008,4.267Z" transform="translate(-270.794 2.63)" fill="#ffa031"/>
            <path id="Trazado_696388" data-name="Trazado 696388" d="M374.854,120.279l-28.7-7-1.612,7.914Z" transform="translate(-300.839 3.744)" fill="#ffa031"/>
            <path id="Trazado_696389" data-name="Trazado 696389" d="M384.81,114.785,348.618,79.931l-6.984,9.62Z" transform="translate(-307.786 2.642)" fill="#ffa031"/>
            <g id="Grupo_930144" data-name="Grupo 930144">
              <g id="Grupo_930143" data-name="Grupo 930143" clip-path="url(#clip-path-6)">
                <path id="Trazado_696390" data-name="Trazado 696390" d="M235.485,411.305h98.584q2.774-8.228,5.238-16.105c2.025-6.488,3.709-12.748,5.021-18.688.31-1.4.6-2.8.868-4.174.527-2.7.981-5.32,1.343-7.862,1.839-12.758,1.57-23.357-1.043-30.547-2.324-6.426-6.529-10.124-12.789-10.2-.248-.01-.506-.01-.754,0-.506.01-1.012.052-1.539.114C320.371,325,305.753,334.4,285.949,354.983q-7.113,7.407-15.145,16.777-2.665,3.115-5.516,6.384c-8.9,10.248-19.081,21.539-29.8,33.161" transform="translate(-161.042 10.7)" fill="#ad6359"/>
                <path id="Trazado_696391" data-name="Trazado 696391" d="M220.374,411.852H350.859c2.521-6.457,4.866-12.665,6.983-18.543q2.371-6.586,4.236-12.686c.506-1.653.992-3.285,1.436-4.886h.01q1.364-4.788,2.4-9.256c.444-1.88.847-3.709,1.2-5.506.341-1.684.651-3.337.919-4.948.176-1.074.341-2.128.486-3.171s.279-2.066.4-3.068c.186-1.591.341-3.13.444-4.638.062-.806.114-1.6.155-2.376,0-.134.01-.269.021-.4.486-10.682-1-19.029-4.194-24.9a18.554,18.554,0,0,0-9.886-8.977,6.612,6.612,0,0,0-.754-.279c-4.917-1.622-10.93-1.343-17.862.93h-.01c-8.915,2.924-19.339,9.132-30.9,18.781-23.688,19.783-55.382,51.818-85.568,83.925" transform="translate(-167.346 10.153)" fill="#ffc727"/>
                <path id="Trazado_696392" data-name="Trazado 696392" d="M319,376.248a66.319,66.319,0,0,1-7.789,21.518c-2.707,4.649-7.872,11.012-13.781,7.128a8.527,8.527,0,0,1-2.893-3.337c8.14-8.616,16.384-17.159,24.463-25.31m28.543,34.525H335.319c4.132-2.572,8.853-3.667,12.221,0m-11.8-51.229c7.18-7.045,14.194-13.719,20.785-19.711,1.736,2.417,2.138,5.93,1.684,9.711a37.171,37.171,0,0,1-.6,4.907,55.634,55.634,0,0,1-5.279,15.362c-2.035,3.781-5.7,10.238-10.857,10.155a5.51,5.51,0,0,1-4.525-2.355c-1.643-2.18-2.252-5.455-2.355-8.006a52.977,52.977,0,0,1,1.147-10.062" transform="translate(-232.705 11.233)" fill="#263238"/>
                <g id="Grupo_930142" data-name="Grupo 930142" transform="translate(142.738 324.051)" opacity="0.1">
                  <g id="Grupo_930141" data-name="Grupo 930141" transform="translate(0)">
                    <g id="Grupo_930140" data-name="Grupo 930140" clip-path="url(#clip-path-9)">
                      <path id="Trazado_696393" data-name="Trazado 696393" d="M220.377,411.637h40.754c2.531-6.457,4.876-12.665,6.983-18.543q2.371-6.586,4.246-12.686.759-2.479,1.446-4.886,1.364-4.788,2.4-9.246l.01-.01c.444-1.88.847-3.709,1.2-5.506.341-1.684.651-3.337.919-4.948.176-1.074.341-2.128.486-3.171s.279-2.066.4-3.068c1.684-14.3.31-25.134-3.616-32.293a22.066,22.066,0,0,0-2.417-3.6l-3.037,5.63-8.058,14.948-10.609,19.68-3.843,7.128-.992,1.828-15.083,27.975-7.944,14.742Z" transform="translate(-220.377 -313.683)"/>
                    </g>
                  </g>
                </g>
                <path id="Trazado_696394" data-name="Trazado 696394" d="M210.741,412.192h66.095c0-10.961-.01-21.57-.021-31.58-.01-1.952-.01-3.884-.01-5.8-.01-3.605-.021-7.128-.031-10.547-.062-24.814-.176-44.37-.227-54.049v-.01c-.031-4.287-.052-6.643-.052-6.643l.6-2.252,1.178-4.411A76.015,76.015,0,0,0,253.4,308.556q-2.076,1.457-4.173,3.161a69.734,69.734,0,0,0-9.824,9.731c-.31.372-.609.733-.909,1.116-.527.671-1.043,1.353-1.55,2.056-.579.775-1.136,1.57-1.674,2.4v.01a66.941,66.941,0,0,0-6.581,12.593c-4.329,10.961-10.227,36.095-16.673,66.549q-.62,2.975-1.271,6.023" transform="translate(-66.03 9.814)" fill="#ffc727"/>
                <path id="Trazado_696395" data-name="Trazado 696395" d="M66.271,412.117H277.654c-25.444-42.1-49.628-77.82-62.51-90.8a52.163,52.163,0,0,0-5.5-4.824A67.722,67.722,0,0,0,196.9,308.76a89.2,89.2,0,0,0-13.843-5.165c-2.6-.754-5.258-1.395-7.944-1.953a127.729,127.729,0,0,0-38.316-1.8h-.01c-3.264.341-6.457.806-9.556,1.395a84.426,84.426,0,0,0-22.944,7.521,50.2,50.2,0,0,0-4.928,2.882,34.013,34.013,0,0,0-8.822,8.2c-.331.465-.671.971-1,1.529-.217.362-.434.733-.651,1.126q-.527.961-1.054,2.045-1.255,2.6-2.531,5.95v.01c-5.041,13.285-10.217,35.021-15.207,60.847-1.281,6.674-2.562,13.616-3.822,20.764" transform="translate(83.833 9.888)" fill="#ebebeb"/>
                <path id="Trazado_696396" data-name="Trazado 696396" d="M259.736,322.429a240.188,240.188,0,0,1-23.431,26.735c-8.418,8.16-17.672,15.5-27.986,20.433-10.184,5.007-21.824,7.232-32.823,4.713-10.958-2.412-20.3-10.969-24.782-22.071,2.16,11.725,11.135,22.92,23.529,26.494,12.169,3.846,25.51,1.551,36.626-3.828a94.08,94.08,0,0,0,28.742-22.569,132.3,132.3,0,0,0,20.126-29.906" transform="translate(14.517 10.657)" fill="#c7c7c7"/>
                <path id="Trazado_696397" data-name="Trazado 696397" d="M53.161,412.109H164.906c-21.457-41.529-39.938-75.981-47.128-84.9a.01.01,0,0,1-.01-.01,15.258,15.258,0,0,0-1.167-1.333c-8.647-8.585-21.136-14.721-32.448-18.9a170.668,170.668,0,0,0-27.231-7.552s-.052,1.457-.155,4.174c-.2,5.506-.589,16.157-1.064,30.186q-.077,2.138-.155,4.37c-.692,20.145-1.56,46.322-2.386,73.967" transform="translate(210.124 9.897)" fill="#ffc727"/>
                <path id="Trazado_696398" data-name="Trazado 696398" d="M118.344,352.614v-.01c.072-.176.155-.341.238-.506.1-.207.217-.4.331-.589,0-.01.01-.01.021-.021a6.625,6.625,0,0,1,.4-.537v-.01a2.9,2.9,0,0,1,.3-.32c.155-.155.31-.289.465-.424h.01a5.141,5.141,0,0,1,.486-.341,2.77,2.77,0,0,1,.341-.186,4.368,4.368,0,0,1,1.064-.382c.062-.021.134-.031.2-.052h.01a7.27,7.27,0,0,1,3.4.269,23.625,23.625,0,0,1,6.839,3.709,55.792,55.792,0,0,1,7.231,6.374c.764.8,1.508,1.622,2.231,2.469.486.568.95,1.147,1.415,1.736s.909,1.178,1.353,1.787a44.4,44.4,0,0,1,7.49,15.93c.279.641.548,1.271.785,1.911q.17.418.31.837c.083.238.165.475.238.713.1.3.186.6.269.888,1.023,3.595,1.064,6.849-.7,8.926-.093.114-.2.217-.31.331a5.722,5.722,0,0,1-.7.589h-.01a7.091,7.091,0,0,1-2.376,1.064,1.922,1.922,0,0,1-.351.062,1.97,1.97,0,0,1-.341.062,7.239,7.239,0,0,1-3.109-.372c-.289-.093-.589-.207-.888-.331l-.01-.01a9.683,9.683,0,0,1-1.054-.5c-.331-.165-.661-.351-.981-.548-.289-.176-.568-.351-.857-.548a34.648,34.648,0,0,1-3.5-2.738c-.155-.134-.3-.269-.444-.4-.134-.114-.258-.227-.393-.362-.279-.248-.548-.5-.816-.754-.124-.114-.248-.227-.372-.351-.444-.413-.857-.826-1.25-1.2-.331-.331-.641-.63-.919-.9-.537-.517-1.074-1.054-1.6-1.6-.4-.413-.8-.826-1.188-1.26-.455-.485-.9-.992-1.343-1.5s-.878-1.023-1.3-1.539v-.01a54.481,54.481,0,0,1-8.13-13.368c-1.612-3.9-4.359-11.353-2.469-15.992" transform="translate(153.877 11.54)" fill="#263238"/>
                <path id="Trazado_696399" data-name="Trazado 696399" d="M31.122,350.539v.01c2.758,11.87,9.194,26.105,19.442,41.539,1.157,1.746,2.335,3.523,3.523,5.351l.01.01c2.944,4.525,6,9.3,9.132,14.277h91.993C126,382.667,80.407,312.77,45.212,311c-16.232-.815-18.811,19.173-14.09,39.535" transform="translate(244.756 10.279)" fill="#ad6359"/>
                <path id="Trazado_696400" data-name="Trazado 696400" d="M26.51,332.724A84.27,84.27,0,0,0,29.8,353.994V354q.651,2.417,1.436,4.938c.207.651.413,1.312.63,1.973.331,1,.671,2.025,1.033,3.068.269.754.537,1.519.816,2.283.238.661.486,1.343.744,2.014s.506,1.364.775,2.056c1.043,2.758,2.159,5.62,3.347,8.554.289.734.589,1.477.9,2.221s.61,1.5.919,2.252v.01c3.667,8.895,7.872,18.481,12.448,28.481h107.3c-.186-.186-32.314-42.358-57.571-69.232C79.326,317.889,52.416,302.087,38.308,308.5c-7.108,3.23-11.167,10.465-11.735,21.167v.01c-.052.981-.083,1.994-.062,3.048" transform="translate(242.425 10.15)" fill="#ffc727"/>
                <path id="Trazado_696401" data-name="Trazado 696401" d="M117.942,352.1c.1-.207.217-.4.331-.589,0-.01.01-.01.021-.021a6.629,6.629,0,0,1,.4-.537v-.01a2.9,2.9,0,0,1,.3-.32,3.59,3.59,0,0,1,.465-.424h.01a5.141,5.141,0,0,1,.486-.341,2.77,2.77,0,0,1,.341-.186,4.368,4.368,0,0,1,1.064-.382v-.01a1.675,1.675,0,0,1,.2-.041h.01a7.27,7.27,0,0,1,3.4.269,23.624,23.624,0,0,1,6.839,3.709,55.792,55.792,0,0,1,7.231,6.374c.764.8,1.508,1.622,2.231,2.469.486.568.95,1.147,1.415,1.736s.909,1.178,1.353,1.787a44.4,44.4,0,0,1,7.49,15.93c.279.641.548,1.271.785,1.911q.17.418.31.837c.083.238.165.475.238.713.1.3.186.6.269.888,1.023,3.595,1.064,6.849-.7,8.926-.093.114-.2.217-.31.331a5.723,5.723,0,0,1-.7.589h-.01a7.255,7.255,0,0,1-2.386,1.054c-.114.021-.227.052-.341.072a1.97,1.97,0,0,1-.341.062,7.239,7.239,0,0,1-3.109-.372c-.289-.093-.589-.207-.888-.331l-.01-.01a9.683,9.683,0,0,1-1.054-.5c-.331-.165-.661-.351-.981-.548-.289-.176-.568-.351-.857-.548a34.644,34.644,0,0,1-3.5-2.738c-.155-.134-.3-.269-.444-.4-.134-.114-.258-.227-.393-.362-.279-.248-.548-.5-.816-.754-.124-.114-.248-.227-.372-.351-.444-.413-.857-.826-1.25-1.2-.331-.331-.641-.63-.919-.9-.537-.517-1.074-1.054-1.6-1.6-.4-.413-.8-.826-1.188-1.26-.455-.485-.9-.992-1.343-1.5s-.878-1.023-1.3-1.539v-.01c-.31-.754-.62-1.508-.919-2.252s-.609-1.488-.9-2.221c-1.188-2.934-2.3-5.8-3.347-8.554-.269-.692-.527-1.374-.775-2.056s-.506-1.353-.744-2.014c-.279-.764-.548-1.529-.816-2.283-.362-1.043-.7-2.066-1.033-3.068-.217-.661-.424-1.322-.63-1.973q-.79-2.526-1.436-4.938v-.01c.072-.176.155-.341.238-.506" transform="translate(154.517 11.54)" fill="#263238"/>
                <path id="Trazado_696402" data-name="Trazado 696402" d="M131.54,406.437c.372.713.744,1.436,1.126,2.149h.961c-.506-.816-1.023-1.622-1.539-2.438a.31.31,0,0,0-.548.289" transform="translate(160.474 13.419)" fill="#263238"/>
                <path id="Trazado_696403" data-name="Trazado 696403" d="M83.335,180.017c.093-.041.186.093.1.145-9.907,6.674-15.837,18.822-11.24,30.682,3.936,10.134,12.541,14.587,22.076,15.64-8.192-4.019-15.258-10.537-18.089-19.318-3.1-9.638-.248-20.62,7.562-26.787-7.552-8.822-12.583-20.764-9.866-32.19,2.273-9.618,10.052-17.51,19.938-18.926-5.661-10-5.217-23,2.014-31.89C102.6,89.016,114,85.6,124.553,87.9a23.207,23.207,0,0,1,21.611-33.213c-1.7-5.971.754-12.3,5.579-16.209,5.547-4.525,13.109-5.052,20.165-4.287a18.551,18.551,0,0,1,13.306-12.366,17.973,17.973,0,0,1,20.2,10.692c9.907-5.62,21.477-10.32,33.161-7.779,9.618,2.1,18.554,9.225,20.423,19.019,19.122-7.665,40.971,2.965,46.973,22.892,8.564-.868,17.045,3.306,22.273,10.269,5.269,7.025,6.787,12.954,7.242,15.826a18.791,18.791,0,0,1,17.7,12.19c2.717,7.159.981,14.029-2.438,20.227a13.819,13.819,0,0,0,1.777,5.868c5.165,9.525,5.568,20.217.713,29.659,9.38,8.76,8.595,24.69-1.539,32.045,6.457,11.3,1.911,26.5-9.535,32.2a34.665,34.665,0,0,1-.32,29.163c-3.419,6.963-10.31,13.192-18.409,12.428,1.984,5.878-2.769,11.818-8.378,13.9a30.361,30.361,0,0,1-6.643,1.508c-2.676.351-6.219.083-8.616,1.374-2.51,1.312-3.585,4.391-5.176,6.539a27.056,27.056,0,0,1-3.926,4.215c-8.843,7.624-21.932,9.308-32.758,4.907a29.886,29.886,0,0,1-7.49-4.328c-5.537,7.376-15.258,8.822-24.225,7.345-1.064-.176-2.118-.393-3.151-.641a55.861,55.861,0,0,1-9.194-3.337,28.424,28.424,0,0,0-3.109-1.188,11.413,11.413,0,0,0-5.289-.424c-1.88.31-3.657,1.033-5.537,1.353-6.384,1.074-11.87-1.983-16.932-5.579a27.319,27.319,0,0,1-15.341,9.8h-.01c-16.384,3.626-34.8-9.1-38.3-27.872a31.947,31.947,0,0,1-27.531-10.888l-.01-.01a28.536,28.536,0,0,1-1.994-2.676,30.1,30.1,0,0,1-1.643-29.659v-.01c-.01-.01-.01-.01,0-.021-.01-.01-.01-.01,0-.021.3-.62.62-1.229.971-1.829-.31.01-.63.021-.95.01-11.88.155-23.5-5.2-28.037-17.355-4.814-12.913,1.581-25.558,13.171-31.632M335.689,94.6s2.428,1.136,3.543,1.818a25.7,25.7,0,0,1,11.643,17.841,25.808,25.808,0,0,1-.01,6.5c-.031.289-.031.527-.052.806a22.784,22.784,0,0,0,1.126-12.583c-1.787-8.233-8.12-13.843-16.333-15.372.062.6.083.992.083.992M185.545,23.4c-6.219,1.477-9.6,5.847-11.353,11.085.041,0,.083.01.124.01a19.735,19.735,0,0,1,8.936-6.56,18.935,18.935,0,0,1,20.661,5.424c.176-.1.362-.2.537-.3-4.267-6.735-10.01-11.766-18.9-9.659m-18.3,276.59h.01c4.886-1.116,9.866-3.833,14.711-8.543-.072-.052-.155-.1-.227-.155a32.732,32.732,0,0,1-15.114,5.785v.01A34.571,34.571,0,0,1,135.555,284c7.727,11.467,19.442,18.781,31.694,15.981" transform="translate(-0.669 0.708)" fill="#263238"/>
                <path id="Trazado_696404" data-name="Trazado 696404" d="M195.111,368.61c22.075,3.931,58.349-17.313,71.607-45.121.9-1.911-10.927-75.472-11.757-90.291l-91.684,27.786s10.877,30.554,12.165,56.4a33.293,33.293,0,0,1-.3,6.119c-.014.28-.077.623-.079,1.014-1.234,11.658-1.287,40.278,20.046,44.093" transform="translate(-5.49 7.708)" fill="#ad6359"/>
                <path id="Trazado_696405" data-name="Trazado 696405" d="M192.575,323.454c0,.26-.072.585-.075.976a59.216,59.216,0,0,0,9.565.028c53.725-4.224,62.7-70.767,64.124-89.428l-22.907,6.934-62.588,18.972s10.893,30.56,12.136,56.4a31.631,31.631,0,0,1-.255,6.114" transform="translate(-22.906 7.769)" fill="#263238"/>
                <path id="Trazado_696406" data-name="Trazado 696406" d="M325.683,136.346c7.959,34.33-16.45,130.257-41.852,150.279-36.822,29.025-93.8,28.138-117.62-15.368C143.116,229.086,177.141,104.633,205.2,86.78c41.336-26.3,108.722-1.146,120.479,49.566" transform="translate(-61.079 2.519)" fill="#ad6359"/>
                <path id="Trazado_696407" data-name="Trazado 696407" d="M251.28,183.829c.113-.232.431.434.354.7-1.817,6.417-2.818,14.074,2.5,17.68.164.111.065.432-.144.348-6.891-2.785-5.461-12.936-2.71-18.725" transform="translate(-81.499 6.075)" fill="#263238"/>
                <path id="Trazado_696408" data-name="Trazado 696408" d="M247.752,178.684c10.6,1.8,6.214,22.875-3.608,21.2-9.666-1.645-5.28-22.717,3.608-21.2" transform="translate(-70.51 5.903)" fill="#263238"/>
                <path id="Trazado_696409" data-name="Trazado 696409" d="M300.415,176.013c0-.26-.576.2-.622.47-1.154,6.57-3.577,13.9-9.933,14.84-.2.029-.248.362-.023.375,7.416.487,10.539-9.278,10.577-15.685" transform="translate(-169.73 5.815)" fill="#263238"/>
                <path id="Trazado_696410" data-name="Trazado 696410" d="M300.7,168.246c-10.332-2.982-15.537,17.9-5.965,20.663,9.42,2.721,14.626-18.164,5.965-20.663" transform="translate(-174.422 5.551)" fill="#263238"/>
                <path id="Trazado_696411" data-name="Trazado 696411" d="M250.545,164.637a84.014,84.014,0,0,0-8.524-2.337c-3.28-.862-5.8-1.884-9.147-.726a4.551,4.551,0,0,0-2.538,4.943c1.025,4.189,4.78,6.243,8.686,7.44a16.583,16.583,0,0,0,11.937-.452c3.973-1.614,3.316-7.463-.414-8.868" transform="translate(-61.562 5.323)" fill="#263238"/>
                <path id="Trazado_696412" data-name="Trazado 696412" d="M285.428,152.716a83.565,83.565,0,0,0,8.821-.541c3.383-.246,6.1-.092,8.889-2.269a4.55,4.55,0,0,0,.8-5.5c-2.321-3.632-6.538-4.361-10.622-4.232a16.574,16.574,0,0,0-11.153,4.281c-3.239,2.812-.725,8.136,3.259,8.26" transform="translate(-164.538 4.633)" fill="#263238"/>
                <path id="Trazado_696413" data-name="Trazado 696413" d="M283.168,244.166c-1.443,1.7-2.827,3.995-5.216,4.426-2.291.412-5.1-.374-7.292-.995a.234.234,0,0,0-.256.368,8.979,8.979,0,0,0,8.766,2.806c2.956-.81,4.2-3.547,4.663-6.366.065-.394-.454-.487-.665-.239" transform="translate(-133.175 8.066)" fill="#263238"/>
                <path id="Trazado_696414" data-name="Trazado 696414" d="M297.183,225.754a22.227,22.227,0,0,1-16.336,7.156,27.959,27.959,0,0,1-7.939-1.033,7.963,7.963,0,0,1-1.473-.439c-.459-.141-.873-.27-1.37-.466a1.625,1.625,0,0,1-1.036-1.667l.01-.046a3.059,3.059,0,0,1,.178-.648l.007-.048.112-.562c.741-4.973,2.554-12.418,2.554-12.418-1.969.588-11.926,3.1-11.322.541,5.067-21.182,10.7-44.742,20.217-64.749a.605.605,0,0,1,1.146.372C277.866,172.3,270.215,192,265.8,212.577c3.143-.6,8.308-1.819,10.889-1.31.666.329-3.759,14.324-3.913,16.586a.8.8,0,0,0,0,.243c8.128,2.534,14.842,1.131,23.9-3.025.543-.282.976.242.5.684" transform="translate(-136.593 4.991)" fill="#263238"/>
                <path id="Trazado_696415" data-name="Trazado 696415" d="M143.326,123.963c4.112-8.192,8.378-9.483,8.378-9.483s1.271-10.155,12.118-21.942c11.353-12.335,21.983-12.769,21.983-12.769s5.981-5.186,18.068-8.037a68.017,68.017,0,0,1,12.293-1.746c4.669-.248,18.512,1.353,22.562,3.626,4.659,2.634,10.227.723,15.351,1.3A34.15,34.15,0,0,1,267.613,79.4a36.848,36.848,0,0,1,9.329,7.676A57.166,57.166,0,0,1,281.2,92.94c2.252,3.378,4.638,4.762,8.1,6.281,7.4,3.3,13.058,9.68,15.878,18.244a37.859,37.859,0,0,1,1.477,15.465c-.6,6.508,5.806,10.444,7.6,16.353a22.141,22.141,0,0,1,.826,3.874,24.62,24.62,0,0,1-8.874,22.076c7.676,7.19,9.05,21.167,3.12,31.24a21.4,21.4,0,0,1-4.628,5.506c-.186.155-.372.31-.558.455a22.613,22.613,0,0,1-3.409,2.211,34.744,34.744,0,0,1-11.508,3.419,19.9,19.9,0,0,1-4.287.114c-.455.01-.9.01-1.343-.01a18.919,18.919,0,0,1-2.769-.3,19.321,19.321,0,0,1-3.709-1.085,22.629,22.629,0,0,1-8.76-6.364,25.486,25.486,0,0,1-3.957-6.24,25.916,25.916,0,0,1,.124-21.457v-.145s-18.107,4.415-25.938-8.889c-4.793-8.151-5.341-18.544-4.122-28.45-20.62,9.5-45.485-5.807-45.661-30.724-6.209,5.248-19.707,11.566-26.607,8.374-5.847,21.043-17.052,20.62-21.328,20.341a1.4,1.4,0,0,1-.3-.031c-.537-.083-1.973-9.835,2.758-19.235m122.037,76.572a25.1,25.1,0,0,0,5.331,8.781,10.144,10.144,0,0,0,.733.775c-.217-.289-.425-.579-.621-.878a25.344,25.344,0,0,1-2.531-4.7,30.1,30.1,0,0,1-1.343-3.977,61.306,61.306,0,0,1-1.55-16.5,24.671,24.671,0,0,0-.02,16.5m-52.375-56.823c-10.537-4.494-18.76-14.587-21.632-28.016,1.5,15.423,10.217,24.421,21.632,28.016" transform="translate(-29.887 2.312)" fill="#263238"/>
                <path id="Trazado_696416" data-name="Trazado 696416" d="M265.024,176.931c-13.707,11.856-35.754,11.218-52.7.744-11.113-6.869-16.887-22.4-27.39-35.8-17.294-22.064-58.194-27.232-47.236-61.4,9.742-30.376,60.41-33.979,104.069-8.365,38.57,22.628,54.056,78.183,23.257,104.824" transform="translate(8.22 1.82)" fill="#fff"/>
                <path id="Trazado_696417" data-name="Trazado 696417" d="M217.026,192.672a24.488,24.488,0,0,1,.8-2.469v-.01c.227-.6.465-1.2.733-1.777a30.33,30.33,0,0,1,38.275-16c.692.258,1.364.537,2.025.847a30.369,30.369,0,0,1,17.087,21.6,30.714,30.714,0,0,1,.537,4.029,30.338,30.338,0,0,1-40.878,30.32A29.492,29.492,0,0,1,229.35,226c-.413-.269-.816-.558-1.219-.857a30.378,30.378,0,0,1-11.105-32.469m20,32.737a26.264,26.264,0,1,0-15.413-33.791,26.29,26.29,0,0,0,15.413,33.791" transform="translate(-69.639 5.636)" fill="#ffc727"/>
                <path id="Trazado_696418" data-name="Trazado 696418" d="M288.072,180.632a36.132,36.132,0,0,1,10.971-19.225,23.453,23.453,0,0,1,8.843-5,17.647,17.647,0,0,1,8.946-.289c6,1.374,10.878,5.816,13.719,12.5a32.814,32.814,0,0,1,2.5,11.353v.01a37.5,37.5,0,0,1-.021,4.029,40.153,40.153,0,0,1-.558,4.649c-.114.682-.258,1.374-.413,2.056a38.789,38.789,0,0,1-5.351,12.676c-5.393,8.171-13.471,13.027-21.457,12.159a18.54,18.54,0,0,1-1.963-.331,17.124,17.124,0,0,1-5.485-2.335c-8.585-5.527-12.862-18.616-9.731-32.252m10.134,27.531a13.741,13.741,0,0,0,5.992,3.109c9.99,2.293,20.682-7.355,23.915-21.467a38.134,38.134,0,0,0,.8-5.083v-.01c.052-.517.083-1.043.1-1.56v-.01c.041-.868.041-1.725.01-2.583v-.01a28.924,28.924,0,0,0-2.19-10.341c-.217-.517-.455-1.012-.713-1.5-2.366-4.618-5.94-7.665-10.2-8.636a14.825,14.825,0,0,0-1.508-.258,14.664,14.664,0,0,0-7.8,1.4,20.744,20.744,0,0,0-4.907,3.233,32.165,32.165,0,0,0-9.69,17.087c-2.5,10.93.207,21.4,6.188,26.622" transform="translate(-199.683 5.146)" fill="#ffc727"/>
                <path id="Trazado_696419" data-name="Trazado 696419" d="M287.994,193.448,291.228,191c-3.62-4.788-12.824-12.224-21.808-6.155l2.268,3.356c8.04-5.449,15.971,4.81,16.307,5.245" transform="translate(-139.604 6.034)" fill="#ffc727"/>
                <path id="Trazado_696420" data-name="Trazado 696420" d="M216.268,214.888l3.694-1.668c-.783-1.723-7.868-16.881-16.828-18.824-8.378-1.791-56.859-.353-59.174-.255l.171,4.049c15.628-.657,51.675-1.236,58.143.17,5.916,1.281,12.105,12.366,13.994,16.529" transform="translate(61.269 6.396)" fill="#ffc727"/>
                <path id="Trazado_696421" data-name="Trazado 696421" d="M154.95,210.213s24.714-29.42,38.251-20.338-6.984,53.087-24.246,57.823S147,236.545,147,236.545Z" transform="translate(80.5 6.218)" fill="#ad6359"/>
                <path id="Trazado_696422" data-name="Trazado 696422" d="M187.908,201.888a.232.232,0,0,1,.048.456c-12.135,3.707-19.266,14.024-24.584,24.9,3.868-4.027,8.823-5.979,14.263-1.319.285.246-.051.7-.373.6-4.709-1.452-8.244-.928-11.827,2.628-2.537,2.518-4.41,5.819-6.334,8.815-.642,1-2.483.272-1.977-.9.037-.086.082-.176.121-.261,1.029-14.964,14.493-34.838,30.663-34.919" transform="translate(79.596 6.673)" fill="#263238"/>
                <path id="Trazado_696423" data-name="Trazado 696423" d="M193.987,69.263V79.357a1.929,1.929,0,0,0,1.93,1.93,1.975,1.975,0,0,0,1.523-.748,4.023,4.023,0,1,1,0,5.1,1.977,1.977,0,0,0-1.523-.747,1.929,1.929,0,0,0-1.93,1.929V96.912h10.094a1.93,1.93,0,0,1,1.929,1.93,1.973,1.973,0,0,1-.748,1.523,4.024,4.024,0,1,0,5.1,0,1.975,1.975,0,0,1-.747-1.523,1.93,1.93,0,0,1,1.929-1.93h10.094V86.819a1.929,1.929,0,0,0-1.93-1.929,1.977,1.977,0,0,0-1.523.747,4.023,4.023,0,1,1,0-5.1,1.975,1.975,0,0,0,1.523.748,1.929,1.929,0,0,0,1.93-1.93V69.263H211.542a1.928,1.928,0,0,1-1.929-1.929,1.977,1.977,0,0,1,.747-1.523,4.023,4.023,0,1,0-5.1,0,1.975,1.975,0,0,1,.748,1.523,1.928,1.928,0,0,1-1.929,1.929Z" transform="translate(7.914 1.939)" fill="#263238"/>
                <path id="Trazado_696424" data-name="Trazado 696424" d="M194.326,69.806H204.42a1.929,1.929,0,0,0,1.929-1.929,1.975,1.975,0,0,0-.748-1.524,4.024,4.024,0,1,1,5.1,0,1.977,1.977,0,0,0-.747,1.524,1.929,1.929,0,0,0,1.929,1.929h10.094V59.713a1.929,1.929,0,0,1,1.929-1.93,1.973,1.973,0,0,1,1.523.748,4.023,4.023,0,1,0,0-5.1,1.975,1.975,0,0,1-1.523.747,1.929,1.929,0,0,1-1.929-1.929V42.157H211.881a1.93,1.93,0,0,0-1.929,1.93,1.975,1.975,0,0,0,.747,1.523,4.023,4.023,0,1,1-5.1,0,1.973,1.973,0,0,0,.748-1.523,1.93,1.93,0,0,0-1.929-1.93H194.326V52.251A1.929,1.929,0,0,1,192.4,54.18a1.977,1.977,0,0,1-1.524-.747,4.023,4.023,0,1,0,0,5.1,1.975,1.975,0,0,1,1.524-.748,1.929,1.929,0,0,1,1.929,1.93Z" transform="translate(7.575 1.393)" fill="#fff"/>
                <path id="Trazado_696425" data-name="Trazado 696425" d="M141.958,116.118H131.865a1.929,1.929,0,0,0-1.93,1.93,1.975,1.975,0,0,0,.748,1.523,4.024,4.024,0,1,1-5.1,0,1.977,1.977,0,0,0,.747-1.523,1.929,1.929,0,0,0-1.929-1.93H114.309v10.094a1.929,1.929,0,0,1-1.929,1.929,1.973,1.973,0,0,1-1.523-.748,4.024,4.024,0,1,0,0,5.1,1.973,1.973,0,0,1,1.523-.748,1.929,1.929,0,0,1,1.929,1.929v10.094H124.4a1.929,1.929,0,0,0,1.929-1.93,1.977,1.977,0,0,0-.747-1.523,4.023,4.023,0,1,1,5.1,0,1.975,1.975,0,0,0-.748,1.523,1.929,1.929,0,0,0,1.93,1.93h10.093V133.673a1.929,1.929,0,0,1,1.929-1.929,1.977,1.977,0,0,1,1.524.747,4.023,4.023,0,1,0,0-5.1,1.975,1.975,0,0,1-1.524.748,1.929,1.929,0,0,1-1.929-1.929Z" transform="translate(170.254 3.838)" fill="#fff"/>
              </g>
            </g>
            <g id="Grupo_930146" data-name="Grupo 930146">
              <g id="Grupo_930145" data-name="Grupo 930145" clip-path="url(#clip-path-6)">
                <path id="Trazado_696426" data-name="Trazado 696426" d="M132.7,74.776c-10.247,19.107-1.162,30.265-2.545,36.3a100.093,100.093,0,0,1-3.935,10.68l18.458,12.866a96.76,96.76,0,0,1,8.659-7.387c5.174-3.4,18.8,1.276,33.166-14.959,9.449-10.661,13.5-35.072-6.034-48.687S139.45,62.229,132.7,74.776" transform="translate(105.182 1.905)" fill="#ffc727"/>
                <rect id="Rectángulo_344442" data-name="Rectángulo 344442" width="0.739" height="36.407" transform="matrix(-0.702, -0.713, 0.713, -0.702, 244.586, 134.724)" fill="#fff"/>
                <rect id="Rectángulo_344443" data-name="Rectángulo 344443" width="0.739" height="36.407" transform="translate(235.6 128.292) rotate(-155.728)" fill="#fff"/>
                <path id="Trazado_696427" data-name="Trazado 696427" d="M160.992,108.525c1.955,1.362,4.865.3,6.426-.455.111-.054.222-.111.333-.165a2.7,2.7,0,0,0,.951,2.045c2.7,1.881,7.718-2.99,7.931-3.2l-.258-.262c-.051.049-5.012,4.865-7.461,3.157a2.453,2.453,0,0,1-.81-1.93,15.407,15.407,0,0,0,5.028-4.251c1.093-1.567,1.137-2.819.128-3.523h0a1.937,1.937,0,0,0-2.023-.186c-1.807.846-3.259,4.223-3.482,6.843a7.581,7.581,0,0,0-.028.9c-2.4,1.258-4.956,1.81-6.523.717-1.177-.82-1.715-2.558-1.515-4.895q.028-.327.074-.659a9.119,9.119,0,0,0,5.139-3.736c1.394-2,1.52-3.755.331-4.584a1.491,1.491,0,0,0-1.561-.088c-1.8.842-3.694,4.552-4.24,8.109a3.367,3.367,0,0,1-2.535-.535h0c-2.1-1.465.221-8.162.245-8.229l-.349-.124c-.1.288-2.437,7.032-.106,8.656a3.718,3.718,0,0,0,2.694.6q-.036.282-.06.562C159.17,105.047,159.339,107.374,160.992,108.525Zm4.029-13.873c1.2.835.567,2.651-.424,4.07a9.2,9.2,0,0,1-4.779,3.569c.555-3.367,2.362-6.923,4.008-7.7a1.117,1.117,0,0,1,1.194.056m8.027,5.594h0c1.1.767.335,2.214-.219,3.009a14.815,14.815,0,0,1-4.738,4.053c0-.214.009-.44.03-.676.21-2.467,1.605-5.758,3.272-6.541a1.571,1.571,0,0,1,1.655.155" transform="translate(92.516 3.09)" fill="#fff"/>
                <rect id="Rectángulo_344444" data-name="Rectángulo 344444" width="27.76" height="5.425" transform="matrix(-0.82, -0.572, 0.572, -0.82, 249.465, 141.69)" fill="#dbdbdb"/>
                <rect id="Rectángulo_344445" data-name="Rectángulo 344445" width="27.76" height="5.425" transform="matrix(-0.82, -0.572, 0.572, -0.82, 245.861, 146.86)" fill="#dbdbdb"/>
                <rect id="Rectángulo_344446" data-name="Rectángulo 344446" width="27.76" height="5.425" transform="matrix(-0.82, -0.572, 0.572, -0.82, 242.257, 152.031)" fill="#dbdbdb"/>
                <path id="Trazado_696428" data-name="Trazado 696428" d="M132.736,103.032c5.927-9.306,6.426-23.71-2.568-31.265,6.161,9.366,5.362,20.873,2.568,31.265" transform="translate(158.404 2.372)" fill="#fff"/>
              </g>
            </g>
            <g id="Grupo_930160" data-name="Grupo 930160">
              <g id="Grupo_930159" data-name="Grupo 930159" clip-path="url(#clip-path-6)">
                <path id="Trazado_696429" data-name="Trazado 696429" d="M208.936,123.028a13.243,13.243,0,0,1-.225-5.058l-3.127-1.33,1.454-4.3,3.35.852a13.022,13.022,0,0,1,3.392-3.827l-1.241-3.062,4.067-2.013,1.685,2.853a13.3,13.3,0,0,1,5.271-.372l1.214-2.849,4.287,1.445-.764,3.008a13.24,13.24,0,0,1,4.107,3.594l2.7-1.082,2,4.058-2.52,1.5A13.364,13.364,0,0,1,234.86,122l2.622,1.12-1.445,4.287-2.886-.733a13.057,13.057,0,0,1-3.729,4.051l1.105,2.722-4.067,2.013-1.593-2.682a13.3,13.3,0,0,1-5.339.158l-1.227,2.889-4.3-1.444.82-3.228a13.262,13.262,0,0,1-3.769-3.526l-3.092,1.234-2-4.049Zm13.9,6.01a9.258,9.258,0,1,0-10.474-7.856,9.258,9.258,0,0,0,10.474,7.856" transform="translate(-19.912 3.435)" fill="#dbdbdb"/>
                <path id="Trazado_696430" data-name="Trazado 696430" d="M220.86,124.573l1.709,1.294,3.165-4.179,1.158-1.529a2.7,2.7,0,0,1-.664-.376,2.781,2.781,0,0,1-.877-1.137l-1.23,1.622Z" transform="translate(-25.104 3.922)" fill="#dbdbdb"/>
                <path id="Trazado_696431" data-name="Trazado 696431" d="M216.307,114.915a4.664,4.664,0,1,1,1.511,6.956,4.669,4.669,0,0,1-1.614-1.42,4.668,4.668,0,0,1,.1-5.535m2.005,5.052a2.787,2.787,0,1,0-.877-1.137,2.766,2.766,0,0,0,.877,1.137" transform="translate(-17.187 3.738)" fill="#dbdbdb"/>
                <path id="Trazado_696432" data-name="Trazado 696432" d="M145.031,150.93a9.233,9.233,0,0,1-1.6-3.147l-2.367.054-.311-3.146,2.372-.421a9.076,9.076,0,0,1,1.054-3.4l-1.665-1.588,2-2.445,1.889,1.327a9.259,9.259,0,0,1,3.239-1.748l-.048-2.157,3.136-.313.378,2.129a9.23,9.23,0,0,1,3.639,1.1l1.4-1.461,2.437,2-1.169,1.677a9.313,9.313,0,0,1,1.767,3.441l1.986-.041.313,3.136-2.043.364a9.068,9.068,0,0,1-1.2,3.64l1.483,1.411-2,2.445-1.781-1.245a9.279,9.279,0,0,1-3.344,1.633l.051,2.186-3.143.316-.406-2.285a9.253,9.253,0,0,1-3.4-1.156l-1.607,1.67-2.433-2Zm10.552-.176a6.45,6.45,0,1,0-8.9-1.981,6.449,6.449,0,0,0,8.9,1.981" transform="translate(121.049 4.427)" fill="#dbdbdb"/>
                <path id="Trazado_696433" data-name="Trazado 696433" d="M198.258,164.781a9.235,9.235,0,0,1-2.986-1.877l-2,1.263-1.885-2.537,1.816-1.581a9.089,9.089,0,0,1-.847-3.461l-2.245-.5.46-3.127,2.3.165a9.27,9.27,0,0,1,1.878-3.165l-1.151-1.825,2.529-1.882,1.419,1.631a9.223,9.223,0,0,1,3.687-.928l.45-1.974,3.119.463-.138,2.039a9.3,9.3,0,0,1,3.285,2.042l1.681-1.058,1.882,2.528-1.565,1.363a9.067,9.067,0,0,1,.841,3.742l2,.447-.46,3.128-2.168-.151a9.269,9.269,0,0,1-2.026,3.121l1.167,1.848-2.531,1.888-1.524-1.75a9.259,9.259,0,0,1-3.514.76l-.519,2.26-3.114-.46Zm8.958-5.581a6.45,6.45,0,1,0-8.654,2.883,6.45,6.45,0,0,0,8.654-2.883" transform="translate(20.77 4.792)" fill="#ffc727"/>
                <path id="Trazado_696434" data-name="Trazado 696434" d="M161.337,162.443a13.231,13.231,0,0,1,1.426-4.858l-2.528-2.271,2.768-3.6,2.893,1.891a13.034,13.034,0,0,1,4.448-2.523l-.182-3.3,4.5-.588.67,3.245a13.321,13.321,0,0,1,5.106,1.355l2.071-2.3,3.588,2.756-1.7,2.6a13.254,13.254,0,0,1,2.722,4.73l2.9-.15.581,4.489-2.871.605a13.357,13.357,0,0,1-1.536,5.336l2.118,1.908-2.756,3.589-2.494-1.629a13.046,13.046,0,0,1-4.839,2.624l.163,2.934-4.5.587-.638-3.053a13.31,13.31,0,0,1-5.1-1.58l-2.1,2.336-3.6-2.757,1.822-2.789a13.266,13.266,0,0,1-2.424-4.557l-3.325.166-.582-4.478Zm11.209,10.19a9.258,9.258,0,1,0-7.365-10.825,9.259,9.259,0,0,0,7.365,10.825" transform="translate(76.179 4.865)" fill="#37474f"/>
                <g id="Grupo_930149" data-name="Grupo 930149" transform="translate(244.637 163.478)" opacity="0.6">
                  <g id="Grupo_930148" data-name="Grupo 930148" transform="translate(0)">
                    <g id="Grupo_930147" data-name="Grupo 930147" transform="translate(0)" clip-path="url(#clip-path-12)">
                      <path id="Trazado_696435" data-name="Trazado 696435" d="M174.279,160.179a1.932,1.932,0,1,0,1.932-1.932,1.932,1.932,0,0,0-1.932,1.932" transform="translate(-172.872 -158.247)" fill="#455a64"/>
                      <path id="Trazado_696436" data-name="Trazado 696436" d="M172.913,165.379v.707H179.6v-.707a3.341,3.341,0,0,0-6.683,0" transform="translate(-172.913 -158.122)" fill="#455a64"/>
                    </g>
                  </g>
                </g>
                <path id="Trazado_696437" data-name="Trazado 696437" d="M169.489,161.307a1.932,1.932,0,1,0,1.932-1.932,1.932,1.932,0,0,0-1.932,1.932" transform="translate(81.504 5.268)" fill="#37474f"/>
                <path id="Trazado_696438" data-name="Trazado 696438" d="M168.122,166.507v.707h6.684v-.707a3.342,3.342,0,0,0-6.684,0" transform="translate(81.464 5.393)" fill="#37474f"/>
                <path id="Trazado_696439" data-name="Trazado 696439" d="M224.571,93.509l-.505-3.862,4.525-1.053a21.417,21.417,0,0,1,.832-6.22l-4.062-2.189,1.494-3.6,4.442,1.357a20.727,20.727,0,0,1,3.841-4.968L232.7,69.04l3.094-2.368,3.178,3.388a20.418,20.418,0,0,1,5.8-2.378l-.137-4.63,3.863-.505,1.053,4.525a21.075,21.075,0,0,1,6.22.842l2.189-4.072,3.6,1.494-1.347,4.441a21.153,21.153,0,0,1,4.957,3.842l3.937-2.431,2.378,3.094-3.4,3.157a20.418,20.418,0,0,1,2.379,5.81l4.63-.127.505,3.852-4.525,1.063a21.127,21.127,0,0,1-.842,6.22l4.083,2.189-1.5,3.6L268.362,98.7a21.353,21.353,0,0,1-3.831,4.957l2.42,3.926-3.094,2.379L260.7,106.57a20.724,20.724,0,0,1-5.82,2.379l.137,4.62-3.852.505-1.063-4.514a21.444,21.444,0,0,1-6.22-.853l-2.189,4.073-3.6-1.495,1.357-4.441A20.726,20.726,0,0,1,234.484,103l-3.936,2.441-2.357-3.094,3.379-3.167a21.422,21.422,0,0,1-2.379-5.81Zm25.258,8.5a13.7,13.7,0,1,0-13.7-13.7,13.7,13.7,0,0,0,13.7,13.7" transform="translate(-77.116 2.067)" fill="#ffc727"/>
                <path id="Trazado_696440" data-name="Trazado 696440" d="M246.289,80.494a2.805,2.805,0,1,0,2.8-2.8,2.8,2.8,0,0,0-2.8,2.8" transform="translate(-76.381 2.568)" fill="#ffc727"/>
                <rect id="Rectángulo_344449" data-name="Rectángulo 344449" width="5.945" height="0.857" transform="translate(169.741 85.438)" fill="#ffc727"/>
                <g id="Grupo_930152" data-name="Grupo 930152" transform="translate(169.741 85.438)" opacity="0.1">
                  <g id="Grupo_930151" data-name="Grupo 930151" transform="translate(0)">
                    <g id="Grupo_930150" data-name="Grupo 930150" clip-path="url(#clip-path-13)">
                      <rect id="Rectángulo_344450" data-name="Rectángulo 344450" width="5.945" height="0.857" transform="translate(0 0)"/>
                    </g>
                  </g>
                </g>
                <rect id="Rectángulo_344452" data-name="Rectángulo 344452" width="12.043" height="0.857" transform="translate(166.691 97.238)" fill="#ffc727"/>
                <g id="Grupo_930155" data-name="Grupo 930155" transform="translate(166.691 97.239)" opacity="0.1">
                  <g id="Grupo_930154" data-name="Grupo 930154" transform="translate(0)">
                    <g id="Grupo_930153" data-name="Grupo 930153" transform="translate(0)" clip-path="url(#clip-path-14)">
                      <rect id="Rectángulo_344453" data-name="Rectángulo 344453" width="12.043" height="0.857" transform="translate(0 -0.001)"/>
                    </g>
                  </g>
                </g>
                <rect id="Rectángulo_344455" data-name="Rectángulo 344455" width="12.043" height="0.857" transform="translate(166.691 99.642)" fill="#ffc727"/>
                <g id="Grupo_930158" data-name="Grupo 930158" transform="translate(166.691 99.642)" opacity="0.1">
                  <g id="Grupo_930157" data-name="Grupo 930157" transform="translate(0)">
                    <g id="Grupo_930156" data-name="Grupo 930156" transform="translate(0)" clip-path="url(#clip-path-15)">
                      <rect id="Rectángulo_344456" data-name="Rectángulo 344456" width="12.043" height="0.857" transform="translate(0 0)"/>
                    </g>
                  </g>
                </g>
                <rect id="Rectángulo_344458" data-name="Rectángulo 344458" width="11.147" height="1.546" transform="translate(167.14 98.096)" fill="#ffc727"/>
                <rect id="Rectángulo_344459" data-name="Rectángulo 344459" width="4.85" height="0.857" transform="translate(170.287 86.294)" fill="#ffc727"/>
                <path id="Trazado_696441" data-name="Trazado 696441" d="M244.235,94.451h9.853a10.754,10.754,0,0,1-2.717-4.938c-.392-2.27-.584-5.149-.584-5.149h-3.252s-.192,2.879-.587,5.149a10.731,10.731,0,0,1-2.714,4.938" transform="translate(-76.447 2.789)" fill="#ffc727"/>
              </g>
            </g>
          </g>
        </g>
      </g>
    </g>
    <g id="Grupo_1014406" data-name="Grupo 1014406" transform="translate(0 16)">
      <rect id="Rectángulo_345257" data-name="Rectángulo 345257" width="263.732" height="41.857" rx="20.929" transform="translate(979 4840.379)" fill="#112e4c"/>
      <path id="Trazado_732951" data-name="Trazado 732951" d="M10.76,12.762H5.979V16h5.611v2h-8.1V5.914h8.085V7.931H5.979v2.88H10.76Zm7,2.756a.773.773,0,0,0-.436-.693,4.95,4.95,0,0,0-1.4-.452q-3.2-.672-3.2-2.723a2.468,2.468,0,0,1,.992-2,4,4,0,0,1,2.594-.8,4.307,4.307,0,0,1,2.735.805,2.538,2.538,0,0,1,1.025,2.092h-2.4a1.161,1.161,0,0,0-.332-.851,1.405,1.405,0,0,0-1.038-.336,1.436,1.436,0,0,0-.938.274.865.865,0,0,0-.332.7.739.739,0,0,0,.378.643,3.885,3.885,0,0,0,1.274.423,10.407,10.407,0,0,1,1.511.4,2.482,2.482,0,0,1,1.9,2.416,2.343,2.343,0,0,1-1.054,1.988,4.548,4.548,0,0,1-2.723.76,4.75,4.75,0,0,1-2-.4,3.363,3.363,0,0,1-1.374-1.1,2.565,2.565,0,0,1-.5-1.515h2.274a1.252,1.252,0,0,0,.473.979,1.877,1.877,0,0,0,1.179.34,1.737,1.737,0,0,0,1.042-.261A.814.814,0,0,0,17.758,15.518ZM22.29,18V10.778H20.954V9.019H22.29V8.255a3.1,3.1,0,0,1,.867-2.345,3.359,3.359,0,0,1,2.428-.834,5.608,5.608,0,0,1,1.22.166L26.781,7.1a3.058,3.058,0,0,0-.73-.075Q24.7,7.026,24.7,8.3v.722h1.785v1.76H24.7V18Zm10.816-.913a3.008,3.008,0,0,1-2.457,1.079,2.837,2.837,0,0,1-2.2-.83,3.543,3.543,0,0,1-.776-2.432V9.019h2.4v5.8q0,1.4,1.278,1.4a1.733,1.733,0,0,0,1.677-.847V9.019H35.43V18H33.173Zm8.268,1.079a4.409,4.409,0,0,1-3.217-1.212,4.308,4.308,0,0,1-1.241-3.229v-.232a5.426,5.426,0,0,1,.523-2.42,3.838,3.838,0,0,1,1.482-1.644,4.159,4.159,0,0,1,2.187-.577,3.727,3.727,0,0,1,2.9,1.162,4.722,4.722,0,0,1,1.058,3.3v.979H39.348a2.229,2.229,0,0,0,.7,1.411,2.12,2.12,0,0,0,1.482.531,2.589,2.589,0,0,0,2.167-1l1.179,1.32a3.6,3.6,0,0,1-1.461,1.191A4.793,4.793,0,0,1,41.374,18.166ZM41.1,10.795a1.5,1.5,0,0,0-1.158.481,2.487,2.487,0,0,0-.569,1.378H42.71v-.191a1.773,1.773,0,0,0-.432-1.233A1.55,1.55,0,0,0,41.1,10.795Zm10.376.473a6.517,6.517,0,0,0-.863-.066,1.757,1.757,0,0,0-1.785.921V18h-2.4V9.019H48.7l.066,1.071a2.223,2.223,0,0,1,2-1.237,2.514,2.514,0,0,1,.747.108Zm3.91,4.8h4.391V18H52.323V16.539l4.225-5.578h-4.1V9.019h7.2v1.419Zm5.387-2.64a5.327,5.327,0,0,1,.515-2.382,3.767,3.767,0,0,1,1.482-1.619,4.323,4.323,0,0,1,2.245-.573,4.09,4.09,0,0,1,2.968,1.112,4.464,4.464,0,0,1,1.282,3.021l.017.614a4.694,4.694,0,0,1-1.154,3.316,4.472,4.472,0,0,1-6.2,0,4.777,4.777,0,0,1-1.158-3.387Zm2.4.174a3.348,3.348,0,0,0,.481,1.955,1.731,1.731,0,0,0,2.739.008,3.664,3.664,0,0,0,.49-2.137,3.315,3.315,0,0,0-.49-1.942,1.593,1.593,0,0,0-1.378-.689,1.567,1.567,0,0,0-1.361.685A3.725,3.725,0,0,0,63.172,13.6Zm11.447-.158a5.413,5.413,0,0,1,.942-3.345,3.057,3.057,0,0,1,2.577-1.245,2.751,2.751,0,0,1,2.167.979V5.25h2.407V18H80.545l-.116-.955a2.823,2.823,0,0,1-2.308,1.121,3.049,3.049,0,0,1-2.544-1.249A5.587,5.587,0,0,1,74.618,13.443Zm2.4.174a3.536,3.536,0,0,0,.44,1.934,1.434,1.434,0,0,0,1.278.672,1.605,1.605,0,0,0,1.569-.938V11.741a1.582,1.582,0,0,0-1.552-.938Q77.017,10.8,77.017,13.617ZM88.7,18.166a4.409,4.409,0,0,1-3.217-1.212,4.308,4.308,0,0,1-1.241-3.229v-.232a5.426,5.426,0,0,1,.523-2.42,3.838,3.838,0,0,1,1.482-1.644,4.159,4.159,0,0,1,2.187-.577,3.727,3.727,0,0,1,2.9,1.162,4.722,4.722,0,0,1,1.058,3.3v.979H86.679a2.229,2.229,0,0,0,.7,1.411,2.12,2.12,0,0,0,1.482.531,2.589,2.589,0,0,0,2.167-1l1.179,1.32a3.6,3.6,0,0,1-1.461,1.191A4.793,4.793,0,0,1,88.7,18.166Zm-.274-7.371a1.5,1.5,0,0,0-1.158.481,2.487,2.487,0,0,0-.569,1.378h3.337v-.191a1.773,1.773,0,0,0-.432-1.233A1.55,1.55,0,0,0,88.431,10.795Zm13.3,5.437a1.573,1.573,0,0,0,1.079-.365,1.28,1.28,0,0,0,.432-.971h2.25a3.077,3.077,0,0,1-.5,1.673,3.286,3.286,0,0,1-1.341,1.179,4.2,4.2,0,0,1-1.88.419,3.9,3.9,0,0,1-3.038-1.224,4.845,4.845,0,0,1-1.112-3.383V13.4a4.79,4.79,0,0,1,1.1-3.312,3.854,3.854,0,0,1,3.03-1.237,3.778,3.778,0,0,1,2.7.959,3.4,3.4,0,0,1,1.033,2.552h-2.25a1.635,1.635,0,0,0-.432-1.133,1.608,1.608,0,0,0-2.362.174,3.532,3.532,0,0,0-.427,1.98v.249a3.576,3.576,0,0,0,.423,1.992A1.464,1.464,0,0,0,101.729,16.232Zm4.756-2.806A5.326,5.326,0,0,1,107,11.044a3.768,3.768,0,0,1,1.482-1.619,4.323,4.323,0,0,1,2.245-.573,4.09,4.09,0,0,1,2.968,1.112,4.464,4.464,0,0,1,1.282,3.021l.017.614a4.694,4.694,0,0,1-1.154,3.316,4.472,4.472,0,0,1-6.2,0,4.777,4.777,0,0,1-1.158-3.387Zm2.4.174a3.348,3.348,0,0,0,.481,1.955,1.731,1.731,0,0,0,2.739.008,3.664,3.664,0,0,0,.49-2.137,3.315,3.315,0,0,0-.49-1.942,1.593,1.593,0,0,0-1.378-.689,1.567,1.567,0,0,0-1.361.685A3.725,3.725,0,0,0,108.884,13.6Zm7.213-.174a5.326,5.326,0,0,1,.515-2.382,3.768,3.768,0,0,1,1.482-1.619,4.323,4.323,0,0,1,2.245-.573,4.09,4.09,0,0,1,2.968,1.112,4.464,4.464,0,0,1,1.282,3.021l.017.614a4.694,4.694,0,0,1-1.154,3.316,4.472,4.472,0,0,1-6.2,0,4.777,4.777,0,0,1-1.158-3.387Zm2.4.174a3.348,3.348,0,0,0,.481,1.955,1.731,1.731,0,0,0,2.739.008,3.664,3.664,0,0,0,.49-2.137,3.315,3.315,0,0,0-.49-1.942,1.593,1.593,0,0,0-1.378-.689,1.567,1.567,0,0,0-1.361.685A3.725,3.725,0,0,0,118.5,13.6Zm12.634-2.333a6.517,6.517,0,0,0-.863-.066,1.757,1.757,0,0,0-1.785.921V18h-2.4V9.019h2.266l.066,1.071a2.223,2.223,0,0,1,2-1.237,2.514,2.514,0,0,1,.747.108Zm.78,2.175a5.413,5.413,0,0,1,.942-3.345,3.057,3.057,0,0,1,2.577-1.245,2.751,2.751,0,0,1,2.167.979V5.25H140V18h-2.167l-.116-.955a2.823,2.823,0,0,1-2.308,1.121,3.049,3.049,0,0,1-2.544-1.249A5.587,5.587,0,0,1,131.91,13.443Zm2.4.174a3.536,3.536,0,0,0,.44,1.934,1.434,1.434,0,0,0,1.278.672,1.605,1.605,0,0,0,1.569-.938V11.741a1.582,1.582,0,0,0-1.552-.938Q134.309,10.8,134.309,13.617ZM144.395,18h-2.407V9.019h2.407ZM141.846,6.694a1.181,1.181,0,0,1,.361-.888,1.556,1.556,0,0,1,1.963,0,1.175,1.175,0,0,1,.365.888,1.178,1.178,0,0,1-.369.9,1.539,1.539,0,0,1-1.951,0A1.178,1.178,0,0,1,141.846,6.694Zm6.732,2.324.075,1.038a3.136,3.136,0,0,1,2.582-1.2,2.606,2.606,0,0,1,2.125.838,3.912,3.912,0,0,1,.714,2.507V18h-2.4V12.256a1.556,1.556,0,0,0-.332-1.108,1.486,1.486,0,0,0-1.1-.344,1.65,1.65,0,0,0-1.519.863V18h-2.4V9.019ZM161.1,18a2.664,2.664,0,0,1-.241-.805,2.9,2.9,0,0,1-2.266.971A3.189,3.189,0,0,1,156.4,17.4a2.456,2.456,0,0,1-.867-1.926,2.538,2.538,0,0,1,1.058-2.191,5.222,5.222,0,0,1,3.059-.772h1.1V12a1.48,1.48,0,0,0-.32-1,1.257,1.257,0,0,0-1.009-.374,1.429,1.429,0,0,0-.95.291.987.987,0,0,0-.344.8h-2.4a2.41,2.41,0,0,1,.481-1.444,3.182,3.182,0,0,1,1.361-1.042,4.961,4.961,0,0,1,1.976-.378,3.92,3.92,0,0,1,2.635.834,2.918,2.918,0,0,1,.975,2.345v3.893a4.294,4.294,0,0,0,.357,1.934V18Zm-1.984-1.668a2.066,2.066,0,0,0,.979-.237,1.554,1.554,0,0,0,.664-.635V13.916h-.9q-1.8,0-1.917,1.245l-.008.141a.96.96,0,0,0,.315.739A1.225,1.225,0,0,0,159.112,16.332Zm9.629-.1a1.573,1.573,0,0,0,1.079-.365,1.28,1.28,0,0,0,.432-.971h2.25a3.077,3.077,0,0,1-.5,1.673,3.286,3.286,0,0,1-1.341,1.179,4.2,4.2,0,0,1-1.88.419,3.9,3.9,0,0,1-3.038-1.224,4.845,4.845,0,0,1-1.112-3.383V13.4a4.79,4.79,0,0,1,1.1-3.312,3.854,3.854,0,0,1,3.03-1.237,3.778,3.778,0,0,1,2.7.959,3.4,3.4,0,0,1,1.033,2.552h-2.25a1.635,1.635,0,0,0-.432-1.133,1.608,1.608,0,0,0-2.362.174,3.532,3.532,0,0,0-.427,1.98v.249a3.576,3.576,0,0,0,.423,1.992A1.464,1.464,0,0,0,168.741,16.232ZM176.4,18H174V9.019H176.4ZM173.854,6.694a1.181,1.181,0,0,1,.361-.888,1.556,1.556,0,0,1,1.963,0,1.175,1.175,0,0,1,.365.888,1.178,1.178,0,0,1-.369.9,1.539,1.539,0,0,1-1.951,0A1.178,1.178,0,0,1,173.854,6.694ZM178,13.426a5.327,5.327,0,0,1,.515-2.382A3.767,3.767,0,0,1,180,9.425a4.323,4.323,0,0,1,2.245-.573,4.09,4.09,0,0,1,2.968,1.112,4.464,4.464,0,0,1,1.282,3.021l.017.614a4.694,4.694,0,0,1-1.154,3.316,4.472,4.472,0,0,1-6.2,0A4.777,4.777,0,0,1,178,13.534Zm2.4.174a3.348,3.348,0,0,0,.481,1.955,1.731,1.731,0,0,0,2.739.008,3.664,3.664,0,0,0,.49-2.137,3.315,3.315,0,0,0-.49-1.942,1.593,1.593,0,0,0-1.378-.689,1.567,1.567,0,0,0-1.361.685A3.725,3.725,0,0,0,180.4,13.6Zm2.316-8.351h2.615l-2.3,2.573h-1.951ZM190.2,9.019l.075,1.038a3.136,3.136,0,0,1,2.582-1.2,2.606,2.606,0,0,1,2.125.838,3.912,3.912,0,0,1,.714,2.507V18h-2.4V12.256a1.556,1.556,0,0,0-.332-1.108,1.486,1.486,0,0,0-1.1-.344,1.65,1.65,0,0,0-1.519.863V18h-2.4V9.019Z" transform="translate(1031 4848.808)" fill="#fff"/>
    </g>
    <g id="Grupo_1014407" data-name="Grupo 1014407" transform="translate(0 16)">
      <rect id="Rectángulo_345257-2" data-name="Rectángulo 345257" width="263.732" height="41.857" rx="20.929" transform="translate(979.001 4775.379)" fill="#112e4c"/>
      <path id="Trazado_732950" data-name="Trazado 732950" d="M14.746,12.762H9.964V16h5.611v2h-8.1V5.914h8.085V7.931H9.964v2.88h4.781Zm7,2.756a.773.773,0,0,0-.436-.693,4.95,4.95,0,0,0-1.4-.452q-3.2-.672-3.2-2.723a2.468,2.468,0,0,1,.992-2,4,4,0,0,1,2.594-.8,4.307,4.307,0,0,1,2.735.805,2.538,2.538,0,0,1,1.025,2.092h-2.4a1.161,1.161,0,0,0-.332-.851,1.405,1.405,0,0,0-1.038-.336,1.436,1.436,0,0,0-.938.274.865.865,0,0,0-.332.7.739.739,0,0,0,.378.643,3.885,3.885,0,0,0,1.274.423,10.407,10.407,0,0,1,1.511.4,2.482,2.482,0,0,1,1.9,2.416,2.343,2.343,0,0,1-1.054,1.988,4.548,4.548,0,0,1-2.723.76,4.75,4.75,0,0,1-2-.4,3.363,3.363,0,0,1-1.374-1.1,2.565,2.565,0,0,1-.5-1.515H18.7a1.252,1.252,0,0,0,.473.979,1.877,1.877,0,0,0,1.179.34A1.737,1.737,0,0,0,21.39,16.2.814.814,0,0,0,21.743,15.518ZM26.275,18V10.778H24.939V9.019h1.336V8.255a3.1,3.1,0,0,1,.867-2.345,3.359,3.359,0,0,1,2.428-.834,5.608,5.608,0,0,1,1.22.166L30.766,7.1a3.058,3.058,0,0,0-.73-.075q-1.353,0-1.353,1.27v.722h1.785v1.76H28.683V18Zm10.816-.913a3.008,3.008,0,0,1-2.457,1.079,2.837,2.837,0,0,1-2.2-.83,3.543,3.543,0,0,1-.776-2.432V9.019h2.4v5.8q0,1.4,1.278,1.4a1.733,1.733,0,0,0,1.677-.847V9.019h2.407V18H37.158Zm8.268,1.079a4.409,4.409,0,0,1-3.217-1.212A4.308,4.308,0,0,1,40.9,13.725v-.232a5.426,5.426,0,0,1,.523-2.42,3.838,3.838,0,0,1,1.482-1.644,4.159,4.159,0,0,1,2.187-.577,3.727,3.727,0,0,1,2.9,1.162,4.722,4.722,0,0,1,1.058,3.3v.979H43.333a2.229,2.229,0,0,0,.7,1.411,2.12,2.12,0,0,0,1.482.531,2.589,2.589,0,0,0,2.167-1l1.179,1.32A3.6,3.6,0,0,1,47.4,17.739,4.793,4.793,0,0,1,45.359,18.166Zm-.274-7.371a1.5,1.5,0,0,0-1.158.481,2.487,2.487,0,0,0-.569,1.378H46.7v-.191a1.773,1.773,0,0,0-.432-1.233A1.55,1.55,0,0,0,45.085,10.795Zm10.376.473A6.517,6.517,0,0,0,54.6,11.2a1.757,1.757,0,0,0-1.785.921V18h-2.4V9.019H52.68l.066,1.071a2.223,2.223,0,0,1,2-1.237,2.514,2.514,0,0,1,.747.108Zm3.91,4.8h4.391V18H56.308V16.539l4.225-5.578h-4.1V9.019h7.2v1.419Zm5.387-2.64a5.326,5.326,0,0,1,.515-2.382,3.768,3.768,0,0,1,1.482-1.619A4.323,4.323,0,0,1,69,8.853a4.09,4.09,0,0,1,2.968,1.112,4.464,4.464,0,0,1,1.282,3.021l.017.614a4.694,4.694,0,0,1-1.154,3.316,4.472,4.472,0,0,1-6.2,0,4.777,4.777,0,0,1-1.158-3.387Zm2.4.174a3.348,3.348,0,0,0,.481,1.955,1.731,1.731,0,0,0,2.739.008,3.664,3.664,0,0,0,.49-2.137,3.315,3.315,0,0,0-.49-1.942A1.593,1.593,0,0,0,69,10.795a1.567,1.567,0,0,0-1.361.685A3.725,3.725,0,0,0,67.157,13.6ZM78.6,13.443a5.413,5.413,0,0,1,.942-3.345,3.057,3.057,0,0,1,2.577-1.245,2.751,2.751,0,0,1,2.167.979V5.25H86.7V18H84.53l-.116-.955a2.823,2.823,0,0,1-2.308,1.121,3.049,3.049,0,0,1-2.544-1.249A5.587,5.587,0,0,1,78.6,13.443Zm2.4.174a3.536,3.536,0,0,0,.44,1.934,1.434,1.434,0,0,0,1.278.672,1.605,1.605,0,0,0,1.569-.938V11.741a1.582,1.582,0,0,0-1.552-.938Q81,10.8,81,13.617ZM92.69,18.166a4.409,4.409,0,0,1-3.217-1.212,4.308,4.308,0,0,1-1.241-3.229v-.232a5.426,5.426,0,0,1,.523-2.42,3.838,3.838,0,0,1,1.482-1.644,4.159,4.159,0,0,1,2.187-.577,3.727,3.727,0,0,1,2.9,1.162,4.722,4.722,0,0,1,1.058,3.3v.979H90.665a2.229,2.229,0,0,0,.7,1.411,2.12,2.12,0,0,0,1.482.531,2.589,2.589,0,0,0,2.167-1l1.179,1.32a3.6,3.6,0,0,1-1.461,1.191A4.793,4.793,0,0,1,92.69,18.166Zm-.274-7.371a1.5,1.5,0,0,0-1.158.481,2.487,2.487,0,0,0-.569,1.378h3.337v-.191a1.773,1.773,0,0,0-.432-1.233A1.55,1.55,0,0,0,92.416,10.795Zm17.647,2.8a5.387,5.387,0,0,1-.942,3.324,3.021,3.021,0,0,1-2.544,1.249,2.8,2.8,0,0,1-2.2-.946v4.233h-2.4V9.019H104.2l.083.88a2.819,2.819,0,0,1,2.274-1.046,3.041,3.041,0,0,1,2.582,1.229,5.532,5.532,0,0,1,.921,3.387Zm-2.4-.174a3.535,3.535,0,0,0-.444-1.934,1.446,1.446,0,0,0-1.291-.681,1.571,1.571,0,0,0-1.552.863v3.677a1.6,1.6,0,0,0,1.569.888Q107.665,16.232,107.665,13.418Zm8.932-2.15a6.517,6.517,0,0,0-.863-.066,1.757,1.757,0,0,0-1.785.921V18h-2.4V9.019h2.266l.066,1.071a2.223,2.223,0,0,1,2-1.237,2.514,2.514,0,0,1,.747.108Zm.481,2.158a5.326,5.326,0,0,1,.515-2.382,3.768,3.768,0,0,1,1.482-1.619,4.323,4.323,0,0,1,2.245-.573,4.09,4.09,0,0,1,2.968,1.112,4.464,4.464,0,0,1,1.282,3.021l.017.614a4.694,4.694,0,0,1-1.154,3.316,4.472,4.472,0,0,1-6.2,0,4.777,4.777,0,0,1-1.158-3.387Zm2.4.174a3.348,3.348,0,0,0,.481,1.955,1.731,1.731,0,0,0,2.739.008,3.664,3.664,0,0,0,.49-2.137,3.315,3.315,0,0,0-.49-1.942,1.593,1.593,0,0,0-1.378-.689,1.567,1.567,0,0,0-1.361.685A3.725,3.725,0,0,0,119.477,13.6Zm7.213-.158a5.413,5.413,0,0,1,.942-3.345,3.057,3.057,0,0,1,2.577-1.245,2.751,2.751,0,0,1,2.167.979V5.25h2.407V18h-2.167l-.116-.955a2.823,2.823,0,0,1-2.308,1.121,3.049,3.049,0,0,1-2.544-1.249A5.587,5.587,0,0,1,126.69,13.443Zm2.4.174a3.536,3.536,0,0,0,.44,1.934,1.434,1.434,0,0,0,1.278.672,1.605,1.605,0,0,0,1.569-.938V11.741a1.582,1.582,0,0,0-1.552-.938Q129.089,10.8,129.089,13.617Zm12.933,3.47a3.008,3.008,0,0,1-2.457,1.079,2.837,2.837,0,0,1-2.2-.83,3.543,3.543,0,0,1-.776-2.432V9.019h2.4v5.8q0,1.4,1.278,1.4a1.733,1.733,0,0,0,1.677-.847V9.019h2.407V18h-2.258Zm7.869-.855a1.573,1.573,0,0,0,1.079-.365,1.28,1.28,0,0,0,.432-.971h2.25a3.077,3.077,0,0,1-.5,1.673,3.286,3.286,0,0,1-1.341,1.179,4.2,4.2,0,0,1-1.88.419,3.9,3.9,0,0,1-3.038-1.224,4.845,4.845,0,0,1-1.112-3.383V13.4a4.79,4.79,0,0,1,1.1-3.312,3.854,3.854,0,0,1,3.03-1.237,3.778,3.778,0,0,1,2.7.959,3.4,3.4,0,0,1,1.033,2.552H151.4a1.635,1.635,0,0,0-.432-1.133,1.608,1.608,0,0,0-2.362.174,3.532,3.532,0,0,0-.427,1.98v.249a3.576,3.576,0,0,0,.423,1.992A1.464,1.464,0,0,0,149.891,16.232Zm8.865,0a1.573,1.573,0,0,0,1.079-.365,1.28,1.28,0,0,0,.432-.971h2.25a3.077,3.077,0,0,1-.5,1.673,3.286,3.286,0,0,1-1.341,1.179,4.2,4.2,0,0,1-1.88.419,3.9,3.9,0,0,1-3.038-1.224,4.845,4.845,0,0,1-1.112-3.383V13.4a4.79,4.79,0,0,1,1.1-3.312,3.854,3.854,0,0,1,3.03-1.237,3.778,3.778,0,0,1,2.7.959,3.4,3.4,0,0,1,1.033,2.552h-2.25a1.635,1.635,0,0,0-.432-1.133,1.608,1.608,0,0,0-2.362.174,3.532,3.532,0,0,0-.427,1.98v.249a3.576,3.576,0,0,0,.423,1.992A1.464,1.464,0,0,0,158.756,16.232ZM166.417,18H164.01V9.019h2.407ZM163.869,6.694a1.181,1.181,0,0,1,.361-.888,1.556,1.556,0,0,1,1.963,0,1.175,1.175,0,0,1,.365.888,1.178,1.178,0,0,1-.369.9,1.539,1.539,0,0,1-1.951,0A1.178,1.178,0,0,1,163.869,6.694Zm4.15,6.732a5.327,5.327,0,0,1,.515-2.382,3.767,3.767,0,0,1,1.482-1.619,4.323,4.323,0,0,1,2.245-.573,4.09,4.09,0,0,1,2.968,1.112,4.464,4.464,0,0,1,1.282,3.021l.017.614a4.694,4.694,0,0,1-1.154,3.316,4.472,4.472,0,0,1-6.2,0,4.777,4.777,0,0,1-1.158-3.387Zm2.4.174a3.348,3.348,0,0,0,.481,1.955,1.731,1.731,0,0,0,2.739.008,3.664,3.664,0,0,0,.49-2.137,3.315,3.315,0,0,0-.49-1.942,1.593,1.593,0,0,0-1.378-.689,1.567,1.567,0,0,0-1.361.685A3.725,3.725,0,0,0,170.418,13.6Zm2.316-8.351h2.615l-2.3,2.573H171.1Zm7.479,3.769.075,1.038a3.136,3.136,0,0,1,2.582-1.2,2.606,2.606,0,0,1,2.125.838,3.912,3.912,0,0,1,.714,2.507V18h-2.4V12.256a1.556,1.556,0,0,0-.332-1.108,1.486,1.486,0,0,0-1.1-.344,1.65,1.65,0,0,0-1.519.863V18h-2.4V9.019Z" transform="translate(1041 4782.808)" fill="#fff"/>
    </g>
    <g id="Grupo_1014404" data-name="Grupo 1014404" transform="translate(0 16)">
      <rect id="Rectángulo_345257-3" data-name="Rectángulo 345257" width="263.732" height="41.857" rx="20.929" transform="translate(358 4775.379)" fill="#112e4c"/>
      <path id="Trazado_732948" data-name="Trazado 732948" d="M13.99,12.762H9.209V16h5.611v2h-8.1V5.914H14.8V7.931H9.209v2.88H13.99Zm7,2.756a.773.773,0,0,0-.436-.693,4.95,4.95,0,0,0-1.4-.452q-3.2-.672-3.2-2.723a2.468,2.468,0,0,1,.992-2,4,4,0,0,1,2.594-.8,4.307,4.307,0,0,1,2.735.805A2.538,2.538,0,0,1,23.3,11.75H20.9a1.161,1.161,0,0,0-.332-.851,1.405,1.405,0,0,0-1.038-.336,1.436,1.436,0,0,0-.938.274.865.865,0,0,0-.332.7.739.739,0,0,0,.378.643,3.885,3.885,0,0,0,1.274.423,10.407,10.407,0,0,1,1.511.4,2.482,2.482,0,0,1,1.9,2.416,2.343,2.343,0,0,1-1.054,1.988,4.548,4.548,0,0,1-2.723.76,4.75,4.75,0,0,1-2-.4,3.363,3.363,0,0,1-1.374-1.1,2.565,2.565,0,0,1-.5-1.515h2.274a1.252,1.252,0,0,0,.473.979,1.877,1.877,0,0,0,1.179.34,1.737,1.737,0,0,0,1.042-.261A.814.814,0,0,0,20.988,15.518ZM25.52,18V10.778H24.184V9.019H25.52V8.255a3.1,3.1,0,0,1,.867-2.345,3.359,3.359,0,0,1,2.428-.834,5.608,5.608,0,0,1,1.22.166L30.011,7.1a3.058,3.058,0,0,0-.73-.075q-1.353,0-1.353,1.27v.722h1.785v1.76H27.927V18Zm10.816-.913a3.008,3.008,0,0,1-2.457,1.079,2.837,2.837,0,0,1-2.2-.83A3.543,3.543,0,0,1,30.9,14.9V9.019h2.4v5.8q0,1.4,1.278,1.4a1.733,1.733,0,0,0,1.677-.847V9.019H38.66V18H36.4ZM44.6,18.166a4.409,4.409,0,0,1-3.217-1.212,4.308,4.308,0,0,1-1.241-3.229v-.232a5.426,5.426,0,0,1,.523-2.42,3.838,3.838,0,0,1,1.482-1.644,4.159,4.159,0,0,1,2.187-.577,3.727,3.727,0,0,1,2.9,1.162,4.722,4.722,0,0,1,1.058,3.3v.979H42.578a2.229,2.229,0,0,0,.7,1.411,2.12,2.12,0,0,0,1.482.531,2.589,2.589,0,0,0,2.167-1l1.179,1.32a3.6,3.6,0,0,1-1.461,1.191A4.793,4.793,0,0,1,44.6,18.166Zm-.274-7.371a1.5,1.5,0,0,0-1.158.481,2.487,2.487,0,0,0-.569,1.378H45.94v-.191a1.773,1.773,0,0,0-.432-1.233A1.55,1.55,0,0,0,44.33,10.795Zm10.376.473a6.517,6.517,0,0,0-.863-.066,1.757,1.757,0,0,0-1.785.921V18h-2.4V9.019h2.266l.066,1.071a2.223,2.223,0,0,1,2-1.237,2.514,2.514,0,0,1,.747.108Zm3.91,4.8h4.391V18H55.552V16.539l4.225-5.578h-4.1V9.019h7.2v1.419ZM64,13.426a5.326,5.326,0,0,1,.515-2.382A3.768,3.768,0,0,1,66,9.425a4.323,4.323,0,0,1,2.245-.573,4.09,4.09,0,0,1,2.968,1.112,4.464,4.464,0,0,1,1.282,3.021l.017.614a4.694,4.694,0,0,1-1.154,3.316,4.472,4.472,0,0,1-6.2,0A4.777,4.777,0,0,1,64,13.534Zm2.4.174a3.348,3.348,0,0,0,.481,1.955,1.731,1.731,0,0,0,2.739.008,3.664,3.664,0,0,0,.49-2.137,3.315,3.315,0,0,0-.49-1.942,1.593,1.593,0,0,0-1.378-.689,1.567,1.567,0,0,0-1.361.685A3.725,3.725,0,0,0,66.4,13.6Zm11.447-.158a5.413,5.413,0,0,1,.942-3.345,3.057,3.057,0,0,1,2.577-1.245,2.751,2.751,0,0,1,2.167.979V5.25h2.407V18H83.775l-.116-.955a2.823,2.823,0,0,1-2.308,1.121,3.049,3.049,0,0,1-2.544-1.249A5.587,5.587,0,0,1,77.848,13.443Zm2.4.174a3.536,3.536,0,0,0,.44,1.934,1.434,1.434,0,0,0,1.278.672,1.605,1.605,0,0,0,1.569-.938V11.741a1.582,1.582,0,0,0-1.552-.938Q80.247,10.8,80.247,13.617Zm11.688,4.549a4.409,4.409,0,0,1-3.217-1.212,4.308,4.308,0,0,1-1.241-3.229v-.232A5.426,5.426,0,0,1,88,11.073a3.838,3.838,0,0,1,1.482-1.644,4.159,4.159,0,0,1,2.187-.577,3.727,3.727,0,0,1,2.9,1.162,4.722,4.722,0,0,1,1.058,3.3v.979H89.909a2.229,2.229,0,0,0,.7,1.411,2.12,2.12,0,0,0,1.482.531,2.589,2.589,0,0,0,2.167-1l1.179,1.32a3.6,3.6,0,0,1-1.461,1.191A4.793,4.793,0,0,1,91.935,18.166Zm-.274-7.371a1.5,1.5,0,0,0-1.158.481,2.487,2.487,0,0,0-.569,1.378h3.337v-.191a1.773,1.773,0,0,0-.432-1.233A1.55,1.55,0,0,0,91.661,10.795Zm11.812-1.776.075,1a3.156,3.156,0,0,1,2.582-1.17,2.4,2.4,0,0,1,2.382,1.37,3.084,3.084,0,0,1,2.7-1.37,2.679,2.679,0,0,1,2.175.851,3.911,3.911,0,0,1,.714,2.561V18h-2.407V12.272a1.71,1.71,0,0,0-.3-1.116,1.324,1.324,0,0,0-1.054-.353,1.5,1.5,0,0,0-1.494,1.029L108.852,18h-2.4V12.281a1.689,1.689,0,0,0-.307-1.129A1.337,1.337,0,0,0,105.1,10.8a1.555,1.555,0,0,0-1.478.847V18h-2.4V9.019Zm16.6,9.147a4.409,4.409,0,0,1-3.217-1.212,4.308,4.308,0,0,1-1.241-3.229v-.232a5.426,5.426,0,0,1,.523-2.42,3.838,3.838,0,0,1,1.482-1.644,4.159,4.159,0,0,1,2.187-.577,3.727,3.727,0,0,1,2.9,1.162,4.722,4.722,0,0,1,1.058,3.3v.979h-5.719a2.229,2.229,0,0,0,.7,1.411,2.12,2.12,0,0,0,1.482.531,2.589,2.589,0,0,0,2.167-1l1.179,1.32a3.6,3.6,0,0,1-1.461,1.191A4.793,4.793,0,0,1,120.074,18.166Zm-.274-7.371a1.5,1.5,0,0,0-1.158.481,2.487,2.487,0,0,0-.569,1.378h3.337v-.191a1.773,1.773,0,0,0-.432-1.233A1.55,1.55,0,0,0,119.8,10.795Zm7.579-1.776.075,1a3.156,3.156,0,0,1,2.582-1.17,2.4,2.4,0,0,1,2.382,1.37,3.084,3.084,0,0,1,2.7-1.37,2.679,2.679,0,0,1,2.175.851A3.911,3.911,0,0,1,138,12.264V18H135.6V12.272a1.71,1.71,0,0,0-.3-1.116,1.324,1.324,0,0,0-1.054-.353,1.5,1.5,0,0,0-1.494,1.029L132.758,18h-2.4V12.281a1.689,1.689,0,0,0-.307-1.129,1.337,1.337,0,0,0-1.046-.349,1.555,1.555,0,0,0-1.478.847V18h-2.4V9.019Zm12.094,4.408a5.327,5.327,0,0,1,.515-2.382,3.767,3.767,0,0,1,1.482-1.619,4.323,4.323,0,0,1,2.245-.573,4.09,4.09,0,0,1,2.968,1.112,4.464,4.464,0,0,1,1.282,3.021l.017.614a4.694,4.694,0,0,1-1.154,3.316,4.472,4.472,0,0,1-6.2,0,4.777,4.777,0,0,1-1.158-3.387Zm2.4.174a3.348,3.348,0,0,0,.481,1.955,1.731,1.731,0,0,0,2.739.008,3.664,3.664,0,0,0,.49-2.137,3.315,3.315,0,0,0-.49-1.942,1.593,1.593,0,0,0-1.378-.689,1.567,1.567,0,0,0-1.361.685A3.725,3.725,0,0,0,141.872,13.6Zm12.634-2.333a6.517,6.517,0,0,0-.863-.066,1.757,1.757,0,0,0-1.785.921V18h-2.4V9.019h2.266l.066,1.071a2.223,2.223,0,0,1,2-1.237,2.514,2.514,0,0,1,.747.108ZM158.192,18h-2.407V9.019h2.407ZM155.643,6.694A1.181,1.181,0,0,1,156,5.806a1.556,1.556,0,0,1,1.963,0,1.175,1.175,0,0,1,.365.888,1.178,1.178,0,0,1-.369.9,1.539,1.539,0,0,1-1.951,0A1.178,1.178,0,0,1,155.643,6.694ZM165.372,18a2.664,2.664,0,0,1-.241-.805,2.9,2.9,0,0,1-2.266.971,3.189,3.189,0,0,1-2.187-.764,2.456,2.456,0,0,1-.867-1.926,2.538,2.538,0,0,1,1.058-2.191,5.222,5.222,0,0,1,3.059-.772h1.1V12a1.48,1.48,0,0,0-.32-1,1.257,1.257,0,0,0-1.009-.374,1.429,1.429,0,0,0-.95.291.987.987,0,0,0-.344.8h-2.4a2.41,2.41,0,0,1,.481-1.444,3.182,3.182,0,0,1,1.361-1.042,4.961,4.961,0,0,1,1.976-.378,3.92,3.92,0,0,1,2.635.834,2.918,2.918,0,0,1,.975,2.345v3.893a4.294,4.294,0,0,0,.357,1.934V18Zm-1.984-1.668a2.066,2.066,0,0,0,.979-.237,1.554,1.554,0,0,0,.664-.635V13.916h-.9q-1.8,0-1.917,1.245l-.008.141a.96.96,0,0,0,.315.739A1.225,1.225,0,0,0,163.388,16.332Z" transform="translate(372 4783.704)" fill="#fff"/>
    </g>
    <g id="Grupo_1014405" data-name="Grupo 1014405" transform="translate(0 16)">
      <rect id="Rectángulo_345257-4" data-name="Rectángulo 345257" width="263.732" height="41.857" rx="20.929" transform="translate(358 4840.379)" fill="#112e4c"/>
      <path id="Trazado_732949" data-name="Trazado 732949" d="M9.991,12.762H5.209V16h5.611v2h-8.1V5.914H10.8V7.931H5.209v2.88H9.991Zm7,2.756a.773.773,0,0,0-.436-.693,4.95,4.95,0,0,0-1.4-.452q-3.2-.672-3.2-2.723a2.468,2.468,0,0,1,.992-2,4,4,0,0,1,2.594-.8,4.307,4.307,0,0,1,2.735.805A2.538,2.538,0,0,1,19.3,11.75H16.9a1.161,1.161,0,0,0-.332-.851,1.405,1.405,0,0,0-1.038-.336,1.436,1.436,0,0,0-.938.274.865.865,0,0,0-.332.7.739.739,0,0,0,.378.643,3.885,3.885,0,0,0,1.274.423,10.407,10.407,0,0,1,1.511.4,2.482,2.482,0,0,1,1.9,2.416,2.343,2.343,0,0,1-1.054,1.988,4.548,4.548,0,0,1-2.723.76,4.75,4.75,0,0,1-2-.4,3.363,3.363,0,0,1-1.374-1.1,2.565,2.565,0,0,1-.5-1.515h2.274a1.252,1.252,0,0,0,.473.979,1.877,1.877,0,0,0,1.179.34,1.737,1.737,0,0,0,1.042-.261A.814.814,0,0,0,16.988,15.518ZM21.521,18V10.778H20.184V9.019h1.336V8.255a3.1,3.1,0,0,1,.867-2.345,3.359,3.359,0,0,1,2.428-.834,5.608,5.608,0,0,1,1.22.166L26.011,7.1a3.058,3.058,0,0,0-.73-.075q-1.353,0-1.353,1.27v.722h1.785v1.76H23.928V18Zm10.816-.913a3.008,3.008,0,0,1-2.457,1.079,2.837,2.837,0,0,1-2.2-.83A3.543,3.543,0,0,1,26.9,14.9V9.019h2.4v5.8q0,1.4,1.278,1.4a1.733,1.733,0,0,0,1.677-.847V9.019h2.407V18H32.4ZM40.6,18.166a4.409,4.409,0,0,1-3.217-1.212,4.308,4.308,0,0,1-1.241-3.229v-.232a5.426,5.426,0,0,1,.523-2.42,3.838,3.838,0,0,1,1.482-1.644,4.159,4.159,0,0,1,2.187-.577,3.727,3.727,0,0,1,2.9,1.162,4.722,4.722,0,0,1,1.058,3.3v.979H38.579a2.229,2.229,0,0,0,.7,1.411,2.12,2.12,0,0,0,1.482.531,2.589,2.589,0,0,0,2.167-1l1.179,1.32a3.6,3.6,0,0,1-1.461,1.191A4.793,4.793,0,0,1,40.6,18.166Zm-.274-7.371a1.5,1.5,0,0,0-1.158.481,2.487,2.487,0,0,0-.569,1.378H41.94v-.191a1.773,1.773,0,0,0-.432-1.233A1.55,1.55,0,0,0,40.33,10.795Zm10.376.473a6.517,6.517,0,0,0-.863-.066,1.757,1.757,0,0,0-1.785.921V18h-2.4V9.019h2.266l.066,1.071a2.223,2.223,0,0,1,2-1.237,2.514,2.514,0,0,1,.747.108Zm3.91,4.8h4.391V18H51.553V16.539l4.225-5.578h-4.1V9.019h7.2v1.419ZM60,13.426a5.327,5.327,0,0,1,.515-2.382A3.767,3.767,0,0,1,62,9.425a4.323,4.323,0,0,1,2.245-.573,4.09,4.09,0,0,1,2.968,1.112,4.464,4.464,0,0,1,1.282,3.021l.017.614a4.694,4.694,0,0,1-1.154,3.316,4.472,4.472,0,0,1-6.2,0A4.777,4.777,0,0,1,60,13.534Zm2.4.174a3.348,3.348,0,0,0,.481,1.955,1.731,1.731,0,0,0,2.739.008,3.664,3.664,0,0,0,.49-2.137,3.315,3.315,0,0,0-.49-1.942,1.593,1.593,0,0,0-1.378-.689,1.567,1.567,0,0,0-1.361.685A3.725,3.725,0,0,0,62.4,13.6Zm11.447-.158a5.413,5.413,0,0,1,.942-3.345,3.057,3.057,0,0,1,2.577-1.245,2.751,2.751,0,0,1,2.167.979V5.25h2.407V18H79.775l-.116-.955a2.823,2.823,0,0,1-2.308,1.121,3.049,3.049,0,0,1-2.544-1.249A5.587,5.587,0,0,1,73.849,13.443Zm2.4.174a3.536,3.536,0,0,0,.44,1.934,1.434,1.434,0,0,0,1.278.672,1.605,1.605,0,0,0,1.569-.938V11.741a1.582,1.582,0,0,0-1.552-.938Q76.248,10.8,76.248,13.617Zm11.688,4.549a4.409,4.409,0,0,1-3.217-1.212,4.308,4.308,0,0,1-1.241-3.229v-.232A5.426,5.426,0,0,1,84,11.073a3.838,3.838,0,0,1,1.482-1.644,4.159,4.159,0,0,1,2.187-.577,3.727,3.727,0,0,1,2.9,1.162,4.722,4.722,0,0,1,1.058,3.3v.979H85.91a2.229,2.229,0,0,0,.7,1.411,2.12,2.12,0,0,0,1.482.531,2.589,2.589,0,0,0,2.167-1l1.179,1.32a3.6,3.6,0,0,1-1.461,1.191A4.793,4.793,0,0,1,87.935,18.166Zm-.274-7.371a1.5,1.5,0,0,0-1.158.481,2.487,2.487,0,0,0-.569,1.378h3.337v-.191a1.773,1.773,0,0,0-.432-1.233A1.55,1.55,0,0,0,87.661,10.795Zm13.3,5.437a1.573,1.573,0,0,0,1.079-.365,1.28,1.28,0,0,0,.432-.971h2.25a3.077,3.077,0,0,1-.5,1.673,3.286,3.286,0,0,1-1.341,1.179,4.2,4.2,0,0,1-1.88.419,3.9,3.9,0,0,1-3.038-1.224,4.845,4.845,0,0,1-1.112-3.383V13.4a4.79,4.79,0,0,1,1.1-3.312,3.854,3.854,0,0,1,3.03-1.237,3.778,3.778,0,0,1,2.7.959,3.4,3.4,0,0,1,1.033,2.552h-2.25a1.635,1.635,0,0,0-.432-1.133,1.608,1.608,0,0,0-2.362.174,3.532,3.532,0,0,0-.427,1.98v.249a3.576,3.576,0,0,0,.423,1.992A1.464,1.464,0,0,0,100.959,16.232Zm4.756-2.806a5.326,5.326,0,0,1,.515-2.382,3.768,3.768,0,0,1,1.482-1.619,4.323,4.323,0,0,1,2.245-.573,4.09,4.09,0,0,1,2.968,1.112,4.464,4.464,0,0,1,1.282,3.021l.017.614a4.694,4.694,0,0,1-1.154,3.316,4.472,4.472,0,0,1-6.2,0,4.777,4.777,0,0,1-1.158-3.387Zm2.4.174a3.348,3.348,0,0,0,.481,1.955,1.731,1.731,0,0,0,2.739.008,3.664,3.664,0,0,0,.49-2.137,3.315,3.315,0,0,0-.49-1.942,1.593,1.593,0,0,0-1.378-.689,1.567,1.567,0,0,0-1.361.685A3.725,3.725,0,0,0,108.114,13.6Zm9.836-4.582.075,1a3.156,3.156,0,0,1,2.582-1.17,2.4,2.4,0,0,1,2.382,1.37,3.084,3.084,0,0,1,2.7-1.37,2.679,2.679,0,0,1,2.175.851,3.911,3.911,0,0,1,.714,2.561V18h-2.407V12.272a1.71,1.71,0,0,0-.3-1.116,1.324,1.324,0,0,0-1.054-.353,1.5,1.5,0,0,0-1.494,1.029L123.33,18h-2.4V12.281a1.689,1.689,0,0,0-.307-1.129,1.337,1.337,0,0,0-1.046-.349,1.555,1.555,0,0,0-1.478.847V18h-2.4V9.019ZM138.5,13.592a5.387,5.387,0,0,1-.942,3.324,3.021,3.021,0,0,1-2.544,1.249,2.8,2.8,0,0,1-2.2-.946v4.233h-2.4V9.019h2.225l.083.88A2.819,2.819,0,0,1,135,8.853a3.041,3.041,0,0,1,2.582,1.229,5.532,5.532,0,0,1,.921,3.387Zm-2.4-.174a3.535,3.535,0,0,0-.444-1.934,1.446,1.446,0,0,0-1.291-.681,1.571,1.571,0,0,0-1.552.863v3.677a1.6,1.6,0,0,0,1.569.888Q136.1,16.232,136.1,13.418Zm8.932-2.15a6.517,6.517,0,0,0-.863-.066,1.757,1.757,0,0,0-1.785.921V18h-2.4V9.019h2.266l.066,1.071a2.223,2.223,0,0,1,2-1.237,2.514,2.514,0,0,1,.747.108Zm5.288,6.9a4.409,4.409,0,0,1-3.217-1.212,4.308,4.308,0,0,1-1.241-3.229v-.232a5.426,5.426,0,0,1,.523-2.42,3.838,3.838,0,0,1,1.482-1.644,4.159,4.159,0,0,1,2.187-.577,3.727,3.727,0,0,1,2.9,1.162,4.722,4.722,0,0,1,1.058,3.3v.979H148.3A2.228,2.228,0,0,0,149,15.7a2.12,2.12,0,0,0,1.482.531,2.589,2.589,0,0,0,2.167-1l1.179,1.32a3.6,3.6,0,0,1-1.461,1.191A4.793,4.793,0,0,1,150.324,18.166Zm-.274-7.371a1.5,1.5,0,0,0-1.158.481,2.487,2.487,0,0,0-.569,1.378h3.337v-.191a1.773,1.773,0,0,0-.432-1.233A1.55,1.55,0,0,0,150.05,10.795Zm7.537-1.776.075,1.038a3.136,3.136,0,0,1,2.582-1.2,2.606,2.606,0,0,1,2.125.838,3.912,3.912,0,0,1,.714,2.507V18h-2.4V12.256a1.556,1.556,0,0,0-.332-1.108,1.486,1.486,0,0,0-1.1-.344,1.65,1.65,0,0,0-1.519.863V18h-2.4V9.019Zm12.177,6.5a.773.773,0,0,0-.436-.693,4.95,4.95,0,0,0-1.4-.452q-3.2-.672-3.2-2.723a2.468,2.468,0,0,1,.992-2,4,4,0,0,1,2.594-.8,4.307,4.307,0,0,1,2.735.805,2.538,2.538,0,0,1,1.025,2.092h-2.4a1.161,1.161,0,0,0-.332-.851,1.405,1.405,0,0,0-1.038-.336,1.436,1.436,0,0,0-.938.274.865.865,0,0,0-.332.7.739.739,0,0,0,.378.643,3.885,3.885,0,0,0,1.274.423,10.407,10.407,0,0,1,1.511.4,2.482,2.482,0,0,1,1.9,2.416,2.343,2.343,0,0,1-1.054,1.988,4.548,4.548,0,0,1-2.723.76,4.75,4.75,0,0,1-2-.4,3.363,3.363,0,0,1-1.374-1.1,2.565,2.565,0,0,1-.5-1.515h2.274a1.252,1.252,0,0,0,.473.979,1.877,1.877,0,0,0,1.179.34,1.737,1.737,0,0,0,1.042-.261A.814.814,0,0,0,169.764,15.518ZM176.172,18h-2.407V9.019h2.407ZM173.624,6.694a1.181,1.181,0,0,1,.361-.888,1.556,1.556,0,0,1,1.963,0,1.175,1.175,0,0,1,.365.888,1.178,1.178,0,0,1-.369.9,1.539,1.539,0,0,1-1.951,0A1.178,1.178,0,0,1,173.624,6.694Zm4.15,6.732a5.327,5.327,0,0,1,.515-2.382,3.767,3.767,0,0,1,1.482-1.619,4.323,4.323,0,0,1,2.245-.573,4.09,4.09,0,0,1,2.968,1.112,4.464,4.464,0,0,1,1.282,3.021l.017.614a4.694,4.694,0,0,1-1.154,3.316,4.472,4.472,0,0,1-6.2,0,4.777,4.777,0,0,1-1.158-3.387Zm2.4.174a3.348,3.348,0,0,0,.481,1.955,1.731,1.731,0,0,0,2.739.008,3.664,3.664,0,0,0,.49-2.137,3.315,3.315,0,0,0-.49-1.942,1.593,1.593,0,0,0-1.378-.689,1.567,1.567,0,0,0-1.361.685A3.725,3.725,0,0,0,180.173,13.6Zm2.316-8.351H185.1l-2.3,2.573h-1.951Zm7.479,3.769.075,1.038a3.136,3.136,0,0,1,2.582-1.2,2.606,2.606,0,0,1,2.125.838,3.912,3.912,0,0,1,.714,2.507V18h-2.4V12.256a1.556,1.556,0,0,0-.332-1.108,1.486,1.486,0,0,0-1.1-.344,1.65,1.65,0,0,0-1.519.863V18h-2.4V9.019Z" transform="translate(377 4848.704)" fill="#fff"/>
    </g>
  </g>
</svg>
